%TF.GenerationSoftware,KiCad,Pcbnew,(5.1.6)-1*%
%TF.CreationDate,2020-07-25T19:19:23-04:00*%
%TF.ProjectId,TKLpcb,544b4c70-6362-42e6-9b69-6361645f7063,rev?*%
%TF.SameCoordinates,Original*%
%TF.FileFunction,Copper,L2,Bot*%
%TF.FilePolarity,Positive*%
%FSLAX46Y46*%
G04 Gerber Fmt 4.6, Leading zero omitted, Abs format (unit mm)*
G04 Created by KiCad (PCBNEW (5.1.6)-1) date 2020-07-25 19:19:23*
%MOMM*%
%LPD*%
G01*
G04 APERTURE LIST*
%ADD10C,0.100000*%
%ADD11C,0.150000*%
%ADD12C,0.300000*%
%ADD13C,0.400000*%
%TA.AperFunction,SMDPad,CuDef*%
%ADD14R,1.400000X1.200000*%
%TD*%
%TA.AperFunction,SMDPad,CuDef*%
%ADD15R,0.550000X1.500000*%
%TD*%
%TA.AperFunction,SMDPad,CuDef*%
%ADD16R,1.500000X0.550000*%
%TD*%
%TA.AperFunction,ComponentPad*%
%ADD17C,2.200000*%
%TD*%
%TA.AperFunction,ComponentPad*%
%ADD18C,2.250000*%
%TD*%
%TA.AperFunction,SMDPad,CuDef*%
%ADD19R,1.200000X1.200000*%
%TD*%
%TA.AperFunction,ViaPad*%
%ADD20C,0.800000*%
%TD*%
%TA.AperFunction,Conductor*%
%ADD21C,0.250000*%
%TD*%
G04 APERTURE END LIST*
D10*
D11*
X474004400Y-375989000D02*
X474004400Y-407989000D01*
X582004400Y-407989000D01*
X582004400Y-375989000D01*
X474004400Y-375989000D01*
D10*
D11*
X10000000Y-10000000D02*
X10000000Y-409989000D01*
X584004400Y-409989000D01*
X584004400Y-10000000D01*
X10000000Y-10000000D01*
D10*
D11*
X12000000Y-12000000D02*
X12000000Y-407989000D01*
X582004400Y-407989000D01*
X582004400Y-12000000D01*
X12000000Y-12000000D01*
D10*
D11*
X60000000Y-12000000D02*
X60000000Y-10000000D01*
D10*
D11*
X110000000Y-12000000D02*
X110000000Y-10000000D01*
D10*
D11*
X160000000Y-12000000D02*
X160000000Y-10000000D01*
D10*
D11*
X210000000Y-12000000D02*
X210000000Y-10000000D01*
D10*
D11*
X260000000Y-12000000D02*
X260000000Y-10000000D01*
D10*
D11*
X310000000Y-12000000D02*
X310000000Y-10000000D01*
D10*
D11*
X360000000Y-12000000D02*
X360000000Y-10000000D01*
D10*
D11*
X410000000Y-12000000D02*
X410000000Y-10000000D01*
D10*
D11*
X460000000Y-12000000D02*
X460000000Y-10000000D01*
D10*
D11*
X510000000Y-12000000D02*
X510000000Y-10000000D01*
D10*
D11*
X560000000Y-12000000D02*
X560000000Y-10000000D01*
D10*
D11*
X36065476Y-11588095D02*
X35322619Y-11588095D01*
X35694047Y-11588095D02*
X35694047Y-10288095D01*
X35570238Y-10473809D01*
X35446428Y-10597619D01*
X35322619Y-10659523D01*
D10*
D11*
X85322619Y-10411904D02*
X85384523Y-10350000D01*
X85508333Y-10288095D01*
X85817857Y-10288095D01*
X85941666Y-10350000D01*
X86003571Y-10411904D01*
X86065476Y-10535714D01*
X86065476Y-10659523D01*
X86003571Y-10845238D01*
X85260714Y-11588095D01*
X86065476Y-11588095D01*
D10*
D11*
X135260714Y-10288095D02*
X136065476Y-10288095D01*
X135632142Y-10783333D01*
X135817857Y-10783333D01*
X135941666Y-10845238D01*
X136003571Y-10907142D01*
X136065476Y-11030952D01*
X136065476Y-11340476D01*
X136003571Y-11464285D01*
X135941666Y-11526190D01*
X135817857Y-11588095D01*
X135446428Y-11588095D01*
X135322619Y-11526190D01*
X135260714Y-11464285D01*
D10*
D11*
X185941666Y-10721428D02*
X185941666Y-11588095D01*
X185632142Y-10226190D02*
X185322619Y-11154761D01*
X186127380Y-11154761D01*
D10*
D11*
X236003571Y-10288095D02*
X235384523Y-10288095D01*
X235322619Y-10907142D01*
X235384523Y-10845238D01*
X235508333Y-10783333D01*
X235817857Y-10783333D01*
X235941666Y-10845238D01*
X236003571Y-10907142D01*
X236065476Y-11030952D01*
X236065476Y-11340476D01*
X236003571Y-11464285D01*
X235941666Y-11526190D01*
X235817857Y-11588095D01*
X235508333Y-11588095D01*
X235384523Y-11526190D01*
X235322619Y-11464285D01*
D10*
D11*
X285941666Y-10288095D02*
X285694047Y-10288095D01*
X285570238Y-10350000D01*
X285508333Y-10411904D01*
X285384523Y-10597619D01*
X285322619Y-10845238D01*
X285322619Y-11340476D01*
X285384523Y-11464285D01*
X285446428Y-11526190D01*
X285570238Y-11588095D01*
X285817857Y-11588095D01*
X285941666Y-11526190D01*
X286003571Y-11464285D01*
X286065476Y-11340476D01*
X286065476Y-11030952D01*
X286003571Y-10907142D01*
X285941666Y-10845238D01*
X285817857Y-10783333D01*
X285570238Y-10783333D01*
X285446428Y-10845238D01*
X285384523Y-10907142D01*
X285322619Y-11030952D01*
D10*
D11*
X335260714Y-10288095D02*
X336127380Y-10288095D01*
X335570238Y-11588095D01*
D10*
D11*
X385570238Y-10845238D02*
X385446428Y-10783333D01*
X385384523Y-10721428D01*
X385322619Y-10597619D01*
X385322619Y-10535714D01*
X385384523Y-10411904D01*
X385446428Y-10350000D01*
X385570238Y-10288095D01*
X385817857Y-10288095D01*
X385941666Y-10350000D01*
X386003571Y-10411904D01*
X386065476Y-10535714D01*
X386065476Y-10597619D01*
X386003571Y-10721428D01*
X385941666Y-10783333D01*
X385817857Y-10845238D01*
X385570238Y-10845238D01*
X385446428Y-10907142D01*
X385384523Y-10969047D01*
X385322619Y-11092857D01*
X385322619Y-11340476D01*
X385384523Y-11464285D01*
X385446428Y-11526190D01*
X385570238Y-11588095D01*
X385817857Y-11588095D01*
X385941666Y-11526190D01*
X386003571Y-11464285D01*
X386065476Y-11340476D01*
X386065476Y-11092857D01*
X386003571Y-10969047D01*
X385941666Y-10907142D01*
X385817857Y-10845238D01*
D10*
D11*
X435446428Y-11588095D02*
X435694047Y-11588095D01*
X435817857Y-11526190D01*
X435879761Y-11464285D01*
X436003571Y-11278571D01*
X436065476Y-11030952D01*
X436065476Y-10535714D01*
X436003571Y-10411904D01*
X435941666Y-10350000D01*
X435817857Y-10288095D01*
X435570238Y-10288095D01*
X435446428Y-10350000D01*
X435384523Y-10411904D01*
X435322619Y-10535714D01*
X435322619Y-10845238D01*
X435384523Y-10969047D01*
X435446428Y-11030952D01*
X435570238Y-11092857D01*
X435817857Y-11092857D01*
X435941666Y-11030952D01*
X436003571Y-10969047D01*
X436065476Y-10845238D01*
D10*
D11*
X486065476Y-11588095D02*
X485322619Y-11588095D01*
X485694047Y-11588095D02*
X485694047Y-10288095D01*
X485570238Y-10473809D01*
X485446428Y-10597619D01*
X485322619Y-10659523D01*
X486870238Y-10288095D02*
X486994047Y-10288095D01*
X487117857Y-10350000D01*
X487179761Y-10411904D01*
X487241666Y-10535714D01*
X487303571Y-10783333D01*
X487303571Y-11092857D01*
X487241666Y-11340476D01*
X487179761Y-11464285D01*
X487117857Y-11526190D01*
X486994047Y-11588095D01*
X486870238Y-11588095D01*
X486746428Y-11526190D01*
X486684523Y-11464285D01*
X486622619Y-11340476D01*
X486560714Y-11092857D01*
X486560714Y-10783333D01*
X486622619Y-10535714D01*
X486684523Y-10411904D01*
X486746428Y-10350000D01*
X486870238Y-10288095D01*
D10*
D11*
X536065476Y-11588095D02*
X535322619Y-11588095D01*
X535694047Y-11588095D02*
X535694047Y-10288095D01*
X535570238Y-10473809D01*
X535446428Y-10597619D01*
X535322619Y-10659523D01*
X537303571Y-11588095D02*
X536560714Y-11588095D01*
X536932142Y-11588095D02*
X536932142Y-10288095D01*
X536808333Y-10473809D01*
X536684523Y-10597619D01*
X536560714Y-10659523D01*
D10*
D11*
X60000000Y-407989000D02*
X60000000Y-409989000D01*
D10*
D11*
X110000000Y-407989000D02*
X110000000Y-409989000D01*
D10*
D11*
X160000000Y-407989000D02*
X160000000Y-409989000D01*
D10*
D11*
X210000000Y-407989000D02*
X210000000Y-409989000D01*
D10*
D11*
X260000000Y-407989000D02*
X260000000Y-409989000D01*
D10*
D11*
X310000000Y-407989000D02*
X310000000Y-409989000D01*
D10*
D11*
X360000000Y-407989000D02*
X360000000Y-409989000D01*
D10*
D11*
X410000000Y-407989000D02*
X410000000Y-409989000D01*
D10*
D11*
X460000000Y-407989000D02*
X460000000Y-409989000D01*
D10*
D11*
X510000000Y-407989000D02*
X510000000Y-409989000D01*
D10*
D11*
X560000000Y-407989000D02*
X560000000Y-409989000D01*
D10*
D11*
X36065476Y-409577095D02*
X35322619Y-409577095D01*
X35694047Y-409577095D02*
X35694047Y-408277095D01*
X35570238Y-408462809D01*
X35446428Y-408586619D01*
X35322619Y-408648523D01*
D10*
D11*
X85322619Y-408400904D02*
X85384523Y-408339000D01*
X85508333Y-408277095D01*
X85817857Y-408277095D01*
X85941666Y-408339000D01*
X86003571Y-408400904D01*
X86065476Y-408524714D01*
X86065476Y-408648523D01*
X86003571Y-408834238D01*
X85260714Y-409577095D01*
X86065476Y-409577095D01*
D10*
D11*
X135260714Y-408277095D02*
X136065476Y-408277095D01*
X135632142Y-408772333D01*
X135817857Y-408772333D01*
X135941666Y-408834238D01*
X136003571Y-408896142D01*
X136065476Y-409019952D01*
X136065476Y-409329476D01*
X136003571Y-409453285D01*
X135941666Y-409515190D01*
X135817857Y-409577095D01*
X135446428Y-409577095D01*
X135322619Y-409515190D01*
X135260714Y-409453285D01*
D10*
D11*
X185941666Y-408710428D02*
X185941666Y-409577095D01*
X185632142Y-408215190D02*
X185322619Y-409143761D01*
X186127380Y-409143761D01*
D10*
D11*
X236003571Y-408277095D02*
X235384523Y-408277095D01*
X235322619Y-408896142D01*
X235384523Y-408834238D01*
X235508333Y-408772333D01*
X235817857Y-408772333D01*
X235941666Y-408834238D01*
X236003571Y-408896142D01*
X236065476Y-409019952D01*
X236065476Y-409329476D01*
X236003571Y-409453285D01*
X235941666Y-409515190D01*
X235817857Y-409577095D01*
X235508333Y-409577095D01*
X235384523Y-409515190D01*
X235322619Y-409453285D01*
D10*
D11*
X285941666Y-408277095D02*
X285694047Y-408277095D01*
X285570238Y-408339000D01*
X285508333Y-408400904D01*
X285384523Y-408586619D01*
X285322619Y-408834238D01*
X285322619Y-409329476D01*
X285384523Y-409453285D01*
X285446428Y-409515190D01*
X285570238Y-409577095D01*
X285817857Y-409577095D01*
X285941666Y-409515190D01*
X286003571Y-409453285D01*
X286065476Y-409329476D01*
X286065476Y-409019952D01*
X286003571Y-408896142D01*
X285941666Y-408834238D01*
X285817857Y-408772333D01*
X285570238Y-408772333D01*
X285446428Y-408834238D01*
X285384523Y-408896142D01*
X285322619Y-409019952D01*
D10*
D11*
X335260714Y-408277095D02*
X336127380Y-408277095D01*
X335570238Y-409577095D01*
D10*
D11*
X385570238Y-408834238D02*
X385446428Y-408772333D01*
X385384523Y-408710428D01*
X385322619Y-408586619D01*
X385322619Y-408524714D01*
X385384523Y-408400904D01*
X385446428Y-408339000D01*
X385570238Y-408277095D01*
X385817857Y-408277095D01*
X385941666Y-408339000D01*
X386003571Y-408400904D01*
X386065476Y-408524714D01*
X386065476Y-408586619D01*
X386003571Y-408710428D01*
X385941666Y-408772333D01*
X385817857Y-408834238D01*
X385570238Y-408834238D01*
X385446428Y-408896142D01*
X385384523Y-408958047D01*
X385322619Y-409081857D01*
X385322619Y-409329476D01*
X385384523Y-409453285D01*
X385446428Y-409515190D01*
X385570238Y-409577095D01*
X385817857Y-409577095D01*
X385941666Y-409515190D01*
X386003571Y-409453285D01*
X386065476Y-409329476D01*
X386065476Y-409081857D01*
X386003571Y-408958047D01*
X385941666Y-408896142D01*
X385817857Y-408834238D01*
D10*
D11*
X435446428Y-409577095D02*
X435694047Y-409577095D01*
X435817857Y-409515190D01*
X435879761Y-409453285D01*
X436003571Y-409267571D01*
X436065476Y-409019952D01*
X436065476Y-408524714D01*
X436003571Y-408400904D01*
X435941666Y-408339000D01*
X435817857Y-408277095D01*
X435570238Y-408277095D01*
X435446428Y-408339000D01*
X435384523Y-408400904D01*
X435322619Y-408524714D01*
X435322619Y-408834238D01*
X435384523Y-408958047D01*
X435446428Y-409019952D01*
X435570238Y-409081857D01*
X435817857Y-409081857D01*
X435941666Y-409019952D01*
X436003571Y-408958047D01*
X436065476Y-408834238D01*
D10*
D11*
X486065476Y-409577095D02*
X485322619Y-409577095D01*
X485694047Y-409577095D02*
X485694047Y-408277095D01*
X485570238Y-408462809D01*
X485446428Y-408586619D01*
X485322619Y-408648523D01*
X486870238Y-408277095D02*
X486994047Y-408277095D01*
X487117857Y-408339000D01*
X487179761Y-408400904D01*
X487241666Y-408524714D01*
X487303571Y-408772333D01*
X487303571Y-409081857D01*
X487241666Y-409329476D01*
X487179761Y-409453285D01*
X487117857Y-409515190D01*
X486994047Y-409577095D01*
X486870238Y-409577095D01*
X486746428Y-409515190D01*
X486684523Y-409453285D01*
X486622619Y-409329476D01*
X486560714Y-409081857D01*
X486560714Y-408772333D01*
X486622619Y-408524714D01*
X486684523Y-408400904D01*
X486746428Y-408339000D01*
X486870238Y-408277095D01*
D10*
D11*
X536065476Y-409577095D02*
X535322619Y-409577095D01*
X535694047Y-409577095D02*
X535694047Y-408277095D01*
X535570238Y-408462809D01*
X535446428Y-408586619D01*
X535322619Y-408648523D01*
X537303571Y-409577095D02*
X536560714Y-409577095D01*
X536932142Y-409577095D02*
X536932142Y-408277095D01*
X536808333Y-408462809D01*
X536684523Y-408586619D01*
X536560714Y-408648523D01*
D10*
D11*
X10000000Y-60000000D02*
X12000000Y-60000000D01*
D10*
D11*
X10000000Y-110000000D02*
X12000000Y-110000000D01*
D10*
D11*
X10000000Y-160000000D02*
X12000000Y-160000000D01*
D10*
D11*
X10000000Y-210000000D02*
X12000000Y-210000000D01*
D10*
D11*
X10000000Y-260000000D02*
X12000000Y-260000000D01*
D10*
D11*
X10000000Y-310000000D02*
X12000000Y-310000000D01*
D10*
D11*
X10000000Y-360000000D02*
X12000000Y-360000000D01*
D10*
D11*
X10690476Y-35216666D02*
X11309523Y-35216666D01*
X10566666Y-35588095D02*
X11000000Y-34288095D01*
X11433333Y-35588095D01*
D10*
D11*
X11092857Y-84907142D02*
X11278571Y-84969047D01*
X11340476Y-85030952D01*
X11402380Y-85154761D01*
X11402380Y-85340476D01*
X11340476Y-85464285D01*
X11278571Y-85526190D01*
X11154761Y-85588095D01*
X10659523Y-85588095D01*
X10659523Y-84288095D01*
X11092857Y-84288095D01*
X11216666Y-84350000D01*
X11278571Y-84411904D01*
X11340476Y-84535714D01*
X11340476Y-84659523D01*
X11278571Y-84783333D01*
X11216666Y-84845238D01*
X11092857Y-84907142D01*
X10659523Y-84907142D01*
D10*
D11*
X11402380Y-135464285D02*
X11340476Y-135526190D01*
X11154761Y-135588095D01*
X11030952Y-135588095D01*
X10845238Y-135526190D01*
X10721428Y-135402380D01*
X10659523Y-135278571D01*
X10597619Y-135030952D01*
X10597619Y-134845238D01*
X10659523Y-134597619D01*
X10721428Y-134473809D01*
X10845238Y-134350000D01*
X11030952Y-134288095D01*
X11154761Y-134288095D01*
X11340476Y-134350000D01*
X11402380Y-134411904D01*
D10*
D11*
X10659523Y-185588095D02*
X10659523Y-184288095D01*
X10969047Y-184288095D01*
X11154761Y-184350000D01*
X11278571Y-184473809D01*
X11340476Y-184597619D01*
X11402380Y-184845238D01*
X11402380Y-185030952D01*
X11340476Y-185278571D01*
X11278571Y-185402380D01*
X11154761Y-185526190D01*
X10969047Y-185588095D01*
X10659523Y-185588095D01*
D10*
D11*
X10721428Y-234907142D02*
X11154761Y-234907142D01*
X11340476Y-235588095D02*
X10721428Y-235588095D01*
X10721428Y-234288095D01*
X11340476Y-234288095D01*
D10*
D11*
X11185714Y-284907142D02*
X10752380Y-284907142D01*
X10752380Y-285588095D02*
X10752380Y-284288095D01*
X11371428Y-284288095D01*
D10*
D11*
X11340476Y-334350000D02*
X11216666Y-334288095D01*
X11030952Y-334288095D01*
X10845238Y-334350000D01*
X10721428Y-334473809D01*
X10659523Y-334597619D01*
X10597619Y-334845238D01*
X10597619Y-335030952D01*
X10659523Y-335278571D01*
X10721428Y-335402380D01*
X10845238Y-335526190D01*
X11030952Y-335588095D01*
X11154761Y-335588095D01*
X11340476Y-335526190D01*
X11402380Y-335464285D01*
X11402380Y-335030952D01*
X11154761Y-335030952D01*
D10*
D11*
X10628571Y-385588095D02*
X10628571Y-384288095D01*
X10628571Y-384907142D02*
X11371428Y-384907142D01*
X11371428Y-385588095D02*
X11371428Y-384288095D01*
D10*
D11*
X584004400Y-60000000D02*
X582004400Y-60000000D01*
D10*
D11*
X584004400Y-110000000D02*
X582004400Y-110000000D01*
D10*
D11*
X584004400Y-160000000D02*
X582004400Y-160000000D01*
D10*
D11*
X584004400Y-210000000D02*
X582004400Y-210000000D01*
D10*
D11*
X584004400Y-260000000D02*
X582004400Y-260000000D01*
D10*
D11*
X584004400Y-310000000D02*
X582004400Y-310000000D01*
D10*
D11*
X584004400Y-360000000D02*
X582004400Y-360000000D01*
D10*
D11*
X582694876Y-35216666D02*
X583313923Y-35216666D01*
X582571066Y-35588095D02*
X583004400Y-34288095D01*
X583437733Y-35588095D01*
D10*
D11*
X583097257Y-84907142D02*
X583282971Y-84969047D01*
X583344876Y-85030952D01*
X583406780Y-85154761D01*
X583406780Y-85340476D01*
X583344876Y-85464285D01*
X583282971Y-85526190D01*
X583159161Y-85588095D01*
X582663923Y-85588095D01*
X582663923Y-84288095D01*
X583097257Y-84288095D01*
X583221066Y-84350000D01*
X583282971Y-84411904D01*
X583344876Y-84535714D01*
X583344876Y-84659523D01*
X583282971Y-84783333D01*
X583221066Y-84845238D01*
X583097257Y-84907142D01*
X582663923Y-84907142D01*
D10*
D11*
X583406780Y-135464285D02*
X583344876Y-135526190D01*
X583159161Y-135588095D01*
X583035352Y-135588095D01*
X582849638Y-135526190D01*
X582725828Y-135402380D01*
X582663923Y-135278571D01*
X582602019Y-135030952D01*
X582602019Y-134845238D01*
X582663923Y-134597619D01*
X582725828Y-134473809D01*
X582849638Y-134350000D01*
X583035352Y-134288095D01*
X583159161Y-134288095D01*
X583344876Y-134350000D01*
X583406780Y-134411904D01*
D10*
D11*
X582663923Y-185588095D02*
X582663923Y-184288095D01*
X582973447Y-184288095D01*
X583159161Y-184350000D01*
X583282971Y-184473809D01*
X583344876Y-184597619D01*
X583406780Y-184845238D01*
X583406780Y-185030952D01*
X583344876Y-185278571D01*
X583282971Y-185402380D01*
X583159161Y-185526190D01*
X582973447Y-185588095D01*
X582663923Y-185588095D01*
D10*
D11*
X582725828Y-234907142D02*
X583159161Y-234907142D01*
X583344876Y-235588095D02*
X582725828Y-235588095D01*
X582725828Y-234288095D01*
X583344876Y-234288095D01*
D10*
D11*
X583190114Y-284907142D02*
X582756780Y-284907142D01*
X582756780Y-285588095D02*
X582756780Y-284288095D01*
X583375828Y-284288095D01*
D10*
D11*
X583344876Y-334350000D02*
X583221066Y-334288095D01*
X583035352Y-334288095D01*
X582849638Y-334350000D01*
X582725828Y-334473809D01*
X582663923Y-334597619D01*
X582602019Y-334845238D01*
X582602019Y-335030952D01*
X582663923Y-335278571D01*
X582725828Y-335402380D01*
X582849638Y-335526190D01*
X583035352Y-335588095D01*
X583159161Y-335588095D01*
X583344876Y-335526190D01*
X583406780Y-335464285D01*
X583406780Y-335030952D01*
X583159161Y-335030952D01*
D10*
D11*
X582632971Y-385588095D02*
X582632971Y-384288095D01*
X582632971Y-384907142D02*
X583375828Y-384907142D01*
X583375828Y-385588095D02*
X583375828Y-384288095D01*
D10*
D11*
X497436542Y-403767571D02*
X497436542Y-402267571D01*
X497793685Y-402267571D01*
X498007971Y-402339000D01*
X498150828Y-402481857D01*
X498222257Y-402624714D01*
X498293685Y-402910428D01*
X498293685Y-403124714D01*
X498222257Y-403410428D01*
X498150828Y-403553285D01*
X498007971Y-403696142D01*
X497793685Y-403767571D01*
X497436542Y-403767571D01*
X499579400Y-403767571D02*
X499579400Y-402981857D01*
X499507971Y-402839000D01*
X499365114Y-402767571D01*
X499079400Y-402767571D01*
X498936542Y-402839000D01*
X499579400Y-403696142D02*
X499436542Y-403767571D01*
X499079400Y-403767571D01*
X498936542Y-403696142D01*
X498865114Y-403553285D01*
X498865114Y-403410428D01*
X498936542Y-403267571D01*
X499079400Y-403196142D01*
X499436542Y-403196142D01*
X499579400Y-403124714D01*
X500079400Y-402767571D02*
X500650828Y-402767571D01*
X500293685Y-402267571D02*
X500293685Y-403553285D01*
X500365114Y-403696142D01*
X500507971Y-403767571D01*
X500650828Y-403767571D01*
X501722257Y-403696142D02*
X501579400Y-403767571D01*
X501293685Y-403767571D01*
X501150828Y-403696142D01*
X501079400Y-403553285D01*
X501079400Y-402981857D01*
X501150828Y-402839000D01*
X501293685Y-402767571D01*
X501579400Y-402767571D01*
X501722257Y-402839000D01*
X501793685Y-402981857D01*
X501793685Y-403124714D01*
X501079400Y-403267571D01*
X502436542Y-403624714D02*
X502507971Y-403696142D01*
X502436542Y-403767571D01*
X502365114Y-403696142D01*
X502436542Y-403624714D01*
X502436542Y-403767571D01*
X502436542Y-402839000D02*
X502507971Y-402910428D01*
X502436542Y-402981857D01*
X502365114Y-402910428D01*
X502436542Y-402839000D01*
X502436542Y-402981857D01*
D10*
D11*
X474004400Y-404489000D02*
X582004400Y-404489000D01*
D10*
D11*
X475436542Y-406567571D02*
X475436542Y-405067571D01*
X476293685Y-406567571D02*
X475650828Y-405710428D01*
X476293685Y-405067571D02*
X475436542Y-405924714D01*
X476936542Y-406567571D02*
X476936542Y-405567571D01*
X476936542Y-405067571D02*
X476865114Y-405139000D01*
X476936542Y-405210428D01*
X477007971Y-405139000D01*
X476936542Y-405067571D01*
X476936542Y-405210428D01*
X478507971Y-406424714D02*
X478436542Y-406496142D01*
X478222257Y-406567571D01*
X478079400Y-406567571D01*
X477865114Y-406496142D01*
X477722257Y-406353285D01*
X477650828Y-406210428D01*
X477579400Y-405924714D01*
X477579400Y-405710428D01*
X477650828Y-405424714D01*
X477722257Y-405281857D01*
X477865114Y-405139000D01*
X478079400Y-405067571D01*
X478222257Y-405067571D01*
X478436542Y-405139000D01*
X478507971Y-405210428D01*
X479793685Y-406567571D02*
X479793685Y-405781857D01*
X479722257Y-405639000D01*
X479579400Y-405567571D01*
X479293685Y-405567571D01*
X479150828Y-405639000D01*
X479793685Y-406496142D02*
X479650828Y-406567571D01*
X479293685Y-406567571D01*
X479150828Y-406496142D01*
X479079400Y-406353285D01*
X479079400Y-406210428D01*
X479150828Y-406067571D01*
X479293685Y-405996142D01*
X479650828Y-405996142D01*
X479793685Y-405924714D01*
X481150828Y-406567571D02*
X481150828Y-405067571D01*
X481150828Y-406496142D02*
X481007971Y-406567571D01*
X480722257Y-406567571D01*
X480579400Y-406496142D01*
X480507971Y-406424714D01*
X480436542Y-406281857D01*
X480436542Y-405853285D01*
X480507971Y-405710428D01*
X480579400Y-405639000D01*
X480722257Y-405567571D01*
X481007971Y-405567571D01*
X481150828Y-405639000D01*
X483007971Y-405781857D02*
X483507971Y-405781857D01*
X483722257Y-406567571D02*
X483007971Y-406567571D01*
X483007971Y-405067571D01*
X483722257Y-405067571D01*
X484365114Y-406424714D02*
X484436542Y-406496142D01*
X484365114Y-406567571D01*
X484293685Y-406496142D01*
X484365114Y-406424714D01*
X484365114Y-406567571D01*
X485079400Y-406567571D02*
X485079400Y-405067571D01*
X485436542Y-405067571D01*
X485650828Y-405139000D01*
X485793685Y-405281857D01*
X485865114Y-405424714D01*
X485936542Y-405710428D01*
X485936542Y-405924714D01*
X485865114Y-406210428D01*
X485793685Y-406353285D01*
X485650828Y-406496142D01*
X485436542Y-406567571D01*
X485079400Y-406567571D01*
X486579400Y-406424714D02*
X486650828Y-406496142D01*
X486579400Y-406567571D01*
X486507971Y-406496142D01*
X486579400Y-406424714D01*
X486579400Y-406567571D01*
X487222257Y-406139000D02*
X487936542Y-406139000D01*
X487079400Y-406567571D02*
X487579400Y-405067571D01*
X488079400Y-406567571D01*
X488579400Y-406424714D02*
X488650828Y-406496142D01*
X488579400Y-406567571D01*
X488507971Y-406496142D01*
X488579400Y-406424714D01*
X488579400Y-406567571D01*
X491579400Y-406567571D02*
X491579400Y-405067571D01*
X491722257Y-405996142D02*
X492150828Y-406567571D01*
X492150828Y-405567571D02*
X491579400Y-406139000D01*
X492793685Y-406567571D02*
X492793685Y-405567571D01*
X492793685Y-405067571D02*
X492722257Y-405139000D01*
X492793685Y-405210428D01*
X492865114Y-405139000D01*
X492793685Y-405067571D01*
X492793685Y-405210428D01*
X494150828Y-406496142D02*
X494007971Y-406567571D01*
X493722257Y-406567571D01*
X493579400Y-406496142D01*
X493507971Y-406424714D01*
X493436542Y-406281857D01*
X493436542Y-405853285D01*
X493507971Y-405710428D01*
X493579400Y-405639000D01*
X493722257Y-405567571D01*
X494007971Y-405567571D01*
X494150828Y-405639000D01*
X495436542Y-406567571D02*
X495436542Y-405781857D01*
X495365114Y-405639000D01*
X495222257Y-405567571D01*
X494936542Y-405567571D01*
X494793685Y-405639000D01*
X495436542Y-406496142D02*
X495293685Y-406567571D01*
X494936542Y-406567571D01*
X494793685Y-406496142D01*
X494722257Y-406353285D01*
X494722257Y-406210428D01*
X494793685Y-406067571D01*
X494936542Y-405996142D01*
X495293685Y-405996142D01*
X495436542Y-405924714D01*
X496793685Y-406567571D02*
X496793685Y-405067571D01*
X496793685Y-406496142D02*
X496650828Y-406567571D01*
X496365114Y-406567571D01*
X496222257Y-406496142D01*
X496150828Y-406424714D01*
X496079400Y-406281857D01*
X496079400Y-405853285D01*
X496150828Y-405710428D01*
X496222257Y-405639000D01*
X496365114Y-405567571D01*
X496650828Y-405567571D01*
X496793685Y-405639000D01*
X499079400Y-407139000D02*
X499007971Y-407067571D01*
X498865114Y-406853285D01*
X498793685Y-406710428D01*
X498722257Y-406496142D01*
X498650828Y-406139000D01*
X498650828Y-405853285D01*
X498722257Y-405496142D01*
X498793685Y-405281857D01*
X498865114Y-405139000D01*
X499007971Y-404924714D01*
X499079400Y-404853285D01*
X500365114Y-405067571D02*
X499650828Y-405067571D01*
X499579400Y-405781857D01*
X499650828Y-405710428D01*
X499793685Y-405639000D01*
X500150828Y-405639000D01*
X500293685Y-405710428D01*
X500365114Y-405781857D01*
X500436542Y-405924714D01*
X500436542Y-406281857D01*
X500365114Y-406424714D01*
X500293685Y-406496142D01*
X500150828Y-406567571D01*
X499793685Y-406567571D01*
X499650828Y-406496142D01*
X499579400Y-406424714D01*
X501079400Y-406424714D02*
X501150828Y-406496142D01*
X501079400Y-406567571D01*
X501007971Y-406496142D01*
X501079400Y-406424714D01*
X501079400Y-406567571D01*
X502579400Y-406567571D02*
X501722257Y-406567571D01*
X502150828Y-406567571D02*
X502150828Y-405067571D01*
X502007971Y-405281857D01*
X501865114Y-405424714D01*
X501722257Y-405496142D01*
X503222257Y-406424714D02*
X503293685Y-406496142D01*
X503222257Y-406567571D01*
X503150828Y-406496142D01*
X503222257Y-406424714D01*
X503222257Y-406567571D01*
X504579400Y-405067571D02*
X504293685Y-405067571D01*
X504150828Y-405139000D01*
X504079400Y-405210428D01*
X503936542Y-405424714D01*
X503865114Y-405710428D01*
X503865114Y-406281857D01*
X503936542Y-406424714D01*
X504007971Y-406496142D01*
X504150828Y-406567571D01*
X504436542Y-406567571D01*
X504579400Y-406496142D01*
X504650828Y-406424714D01*
X504722257Y-406281857D01*
X504722257Y-405924714D01*
X504650828Y-405781857D01*
X504579400Y-405710428D01*
X504436542Y-405639000D01*
X504150828Y-405639000D01*
X504007971Y-405710428D01*
X503936542Y-405781857D01*
X503865114Y-405924714D01*
X505222257Y-407139000D02*
X505293685Y-407067571D01*
X505436542Y-406853285D01*
X505507971Y-406710428D01*
X505579400Y-406496142D01*
X505650828Y-406139000D01*
X505650828Y-405853285D01*
X505579400Y-405496142D01*
X505507971Y-405281857D01*
X505436542Y-405139000D01*
X505293685Y-404924714D01*
X505222257Y-404853285D01*
X506365114Y-405996142D02*
X507507971Y-405996142D01*
X509007971Y-406567571D02*
X508150828Y-406567571D01*
X508579400Y-406567571D02*
X508579400Y-405067571D01*
X508436542Y-405281857D01*
X508293685Y-405424714D01*
X508150828Y-405496142D01*
D10*
D11*
X474004400Y-401489000D02*
X582004400Y-401489000D01*
D10*
D12*
X561413685Y-403767571D02*
X560913685Y-403053285D01*
X560556542Y-403767571D02*
X560556542Y-402267571D01*
X561127971Y-402267571D01*
X561270828Y-402339000D01*
X561342257Y-402410428D01*
X561413685Y-402553285D01*
X561413685Y-402767571D01*
X561342257Y-402910428D01*
X561270828Y-402981857D01*
X561127971Y-403053285D01*
X560556542Y-403053285D01*
X562627971Y-403696142D02*
X562485114Y-403767571D01*
X562199400Y-403767571D01*
X562056542Y-403696142D01*
X561985114Y-403553285D01*
X561985114Y-402981857D01*
X562056542Y-402839000D01*
X562199400Y-402767571D01*
X562485114Y-402767571D01*
X562627971Y-402839000D01*
X562699400Y-402981857D01*
X562699400Y-403124714D01*
X561985114Y-403267571D01*
X563199400Y-402767571D02*
X563556542Y-403767571D01*
X563913685Y-402767571D01*
X564485114Y-403624714D02*
X564556542Y-403696142D01*
X564485114Y-403767571D01*
X564413685Y-403696142D01*
X564485114Y-403624714D01*
X564485114Y-403767571D01*
X564485114Y-402839000D02*
X564556542Y-402910428D01*
X564485114Y-402981857D01*
X564413685Y-402910428D01*
X564485114Y-402839000D01*
X564485114Y-402981857D01*
D10*
D11*
X475365114Y-403696142D02*
X475579400Y-403767571D01*
X475936542Y-403767571D01*
X476079400Y-403696142D01*
X476150828Y-403624714D01*
X476222257Y-403481857D01*
X476222257Y-403339000D01*
X476150828Y-403196142D01*
X476079400Y-403124714D01*
X475936542Y-403053285D01*
X475650828Y-402981857D01*
X475507971Y-402910428D01*
X475436542Y-402839000D01*
X475365114Y-402696142D01*
X475365114Y-402553285D01*
X475436542Y-402410428D01*
X475507971Y-402339000D01*
X475650828Y-402267571D01*
X476007971Y-402267571D01*
X476222257Y-402339000D01*
X476865114Y-403767571D02*
X476865114Y-402767571D01*
X476865114Y-402267571D02*
X476793685Y-402339000D01*
X476865114Y-402410428D01*
X476936542Y-402339000D01*
X476865114Y-402267571D01*
X476865114Y-402410428D01*
X477436542Y-402767571D02*
X478222257Y-402767571D01*
X477436542Y-403767571D01*
X478222257Y-403767571D01*
X479365114Y-403696142D02*
X479222257Y-403767571D01*
X478936542Y-403767571D01*
X478793685Y-403696142D01*
X478722257Y-403553285D01*
X478722257Y-402981857D01*
X478793685Y-402839000D01*
X478936542Y-402767571D01*
X479222257Y-402767571D01*
X479365114Y-402839000D01*
X479436542Y-402981857D01*
X479436542Y-403124714D01*
X478722257Y-403267571D01*
X480079400Y-403624714D02*
X480150828Y-403696142D01*
X480079400Y-403767571D01*
X480007971Y-403696142D01*
X480079400Y-403624714D01*
X480079400Y-403767571D01*
X480079400Y-402839000D02*
X480150828Y-402910428D01*
X480079400Y-402981857D01*
X480007971Y-402910428D01*
X480079400Y-402839000D01*
X480079400Y-402981857D01*
X481865114Y-403339000D02*
X482579400Y-403339000D01*
X481722257Y-403767571D02*
X482222257Y-402267571D01*
X482722257Y-403767571D01*
X483150828Y-402410428D02*
X483222257Y-402339000D01*
X483365114Y-402267571D01*
X483722257Y-402267571D01*
X483865114Y-402339000D01*
X483936542Y-402410428D01*
X484007971Y-402553285D01*
X484007971Y-402696142D01*
X483936542Y-402910428D01*
X483079400Y-403767571D01*
X484007971Y-403767571D01*
D10*
D11*
X560436542Y-406567571D02*
X560436542Y-405067571D01*
X561793685Y-406567571D02*
X561793685Y-405067571D01*
X561793685Y-406496142D02*
X561650828Y-406567571D01*
X561365114Y-406567571D01*
X561222257Y-406496142D01*
X561150828Y-406424714D01*
X561079400Y-406281857D01*
X561079400Y-405853285D01*
X561150828Y-405710428D01*
X561222257Y-405639000D01*
X561365114Y-405567571D01*
X561650828Y-405567571D01*
X561793685Y-405639000D01*
X562507971Y-406424714D02*
X562579400Y-406496142D01*
X562507971Y-406567571D01*
X562436542Y-406496142D01*
X562507971Y-406424714D01*
X562507971Y-406567571D01*
X562507971Y-405639000D02*
X562579400Y-405710428D01*
X562507971Y-405781857D01*
X562436542Y-405710428D01*
X562507971Y-405639000D01*
X562507971Y-405781857D01*
X565150828Y-406567571D02*
X564293685Y-406567571D01*
X564722257Y-406567571D02*
X564722257Y-405067571D01*
X564579400Y-405281857D01*
X564436542Y-405424714D01*
X564293685Y-405496142D01*
X566865114Y-404996142D02*
X565579400Y-406924714D01*
X568150828Y-406567571D02*
X567293685Y-406567571D01*
X567722257Y-406567571D02*
X567722257Y-405067571D01*
X567579400Y-405281857D01*
X567436542Y-405424714D01*
X567293685Y-405496142D01*
D10*
D11*
X474004400Y-397489000D02*
X582004400Y-397489000D01*
D10*
D13*
X475716780Y-398193761D02*
X476859638Y-398193761D01*
X476038209Y-400193761D02*
X476288209Y-398193761D01*
X477276304Y-400193761D02*
X477442971Y-398860428D01*
X477526304Y-398193761D02*
X477419161Y-398289000D01*
X477502495Y-398384238D01*
X477609638Y-398289000D01*
X477526304Y-398193761D01*
X477502495Y-398384238D01*
X478109638Y-398860428D02*
X478871542Y-398860428D01*
X478478685Y-398193761D02*
X478264400Y-399908047D01*
X478335828Y-400098523D01*
X478514400Y-400193761D01*
X478704876Y-400193761D01*
X479657257Y-400193761D02*
X479478685Y-400098523D01*
X479407257Y-399908047D01*
X479621542Y-398193761D01*
X481192971Y-400098523D02*
X480990590Y-400193761D01*
X480609638Y-400193761D01*
X480431066Y-400098523D01*
X480359638Y-399908047D01*
X480454876Y-399146142D01*
X480573923Y-398955666D01*
X480776304Y-398860428D01*
X481157257Y-398860428D01*
X481335828Y-398955666D01*
X481407257Y-399146142D01*
X481383447Y-399336619D01*
X480407257Y-399527095D01*
X482157257Y-400003285D02*
X482240590Y-400098523D01*
X482133447Y-400193761D01*
X482050114Y-400098523D01*
X482157257Y-400003285D01*
X482133447Y-400193761D01*
X482288209Y-398955666D02*
X482371542Y-399050904D01*
X482264400Y-399146142D01*
X482181066Y-399050904D01*
X482288209Y-398955666D01*
X482264400Y-399146142D01*
D10*
D11*
X475936542Y-395581857D02*
X475436542Y-395581857D01*
X475436542Y-396367571D02*
X475436542Y-394867571D01*
X476150828Y-394867571D01*
X476722257Y-396367571D02*
X476722257Y-395367571D01*
X476722257Y-394867571D02*
X476650828Y-394939000D01*
X476722257Y-395010428D01*
X476793685Y-394939000D01*
X476722257Y-394867571D01*
X476722257Y-395010428D01*
X477650828Y-396367571D02*
X477507971Y-396296142D01*
X477436542Y-396153285D01*
X477436542Y-394867571D01*
X478793685Y-396296142D02*
X478650828Y-396367571D01*
X478365114Y-396367571D01*
X478222257Y-396296142D01*
X478150828Y-396153285D01*
X478150828Y-395581857D01*
X478222257Y-395439000D01*
X478365114Y-395367571D01*
X478650828Y-395367571D01*
X478793685Y-395439000D01*
X478865114Y-395581857D01*
X478865114Y-395724714D01*
X478150828Y-395867571D01*
X479507971Y-396224714D02*
X479579400Y-396296142D01*
X479507971Y-396367571D01*
X479436542Y-396296142D01*
X479507971Y-396224714D01*
X479507971Y-396367571D01*
X479507971Y-395439000D02*
X479579400Y-395510428D01*
X479507971Y-395581857D01*
X479436542Y-395510428D01*
X479507971Y-395439000D01*
X479507971Y-395581857D01*
X481150828Y-394867571D02*
X482007971Y-394867571D01*
X481579400Y-396367571D02*
X481579400Y-394867571D01*
X482507971Y-396367571D02*
X482507971Y-394867571D01*
X483365114Y-396367571D02*
X482722257Y-395510428D01*
X483365114Y-394867571D02*
X482507971Y-395724714D01*
X484722257Y-396367571D02*
X484007971Y-396367571D01*
X484007971Y-394867571D01*
X485222257Y-395367571D02*
X485222257Y-396867571D01*
X485222257Y-395439000D02*
X485365114Y-395367571D01*
X485650828Y-395367571D01*
X485793685Y-395439000D01*
X485865114Y-395510428D01*
X485936542Y-395653285D01*
X485936542Y-396081857D01*
X485865114Y-396224714D01*
X485793685Y-396296142D01*
X485650828Y-396367571D01*
X485365114Y-396367571D01*
X485222257Y-396296142D01*
X487222257Y-396296142D02*
X487079400Y-396367571D01*
X486793685Y-396367571D01*
X486650828Y-396296142D01*
X486579400Y-396224714D01*
X486507971Y-396081857D01*
X486507971Y-395653285D01*
X486579400Y-395510428D01*
X486650828Y-395439000D01*
X486793685Y-395367571D01*
X487079400Y-395367571D01*
X487222257Y-395439000D01*
X487865114Y-396367571D02*
X487865114Y-394867571D01*
X487865114Y-395439000D02*
X488007971Y-395367571D01*
X488293685Y-395367571D01*
X488436542Y-395439000D01*
X488507971Y-395510428D01*
X488579400Y-395653285D01*
X488579400Y-396081857D01*
X488507971Y-396224714D01*
X488436542Y-396296142D01*
X488293685Y-396367571D01*
X488007971Y-396367571D01*
X487865114Y-396296142D01*
X489222257Y-396224714D02*
X489293685Y-396296142D01*
X489222257Y-396367571D01*
X489150828Y-396296142D01*
X489222257Y-396224714D01*
X489222257Y-396367571D01*
X489936542Y-396367571D02*
X489936542Y-394867571D01*
X490079400Y-395796142D02*
X490507971Y-396367571D01*
X490507971Y-395367571D02*
X489936542Y-395939000D01*
X491150828Y-396367571D02*
X491150828Y-395367571D01*
X491150828Y-394867571D02*
X491079400Y-394939000D01*
X491150828Y-395010428D01*
X491222257Y-394939000D01*
X491150828Y-394867571D01*
X491150828Y-395010428D01*
X492507971Y-396296142D02*
X492365114Y-396367571D01*
X492079400Y-396367571D01*
X491936542Y-396296142D01*
X491865114Y-396224714D01*
X491793685Y-396081857D01*
X491793685Y-395653285D01*
X491865114Y-395510428D01*
X491936542Y-395439000D01*
X492079400Y-395367571D01*
X492365114Y-395367571D01*
X492507971Y-395439000D01*
X493793685Y-396367571D02*
X493793685Y-395581857D01*
X493722257Y-395439000D01*
X493579400Y-395367571D01*
X493293685Y-395367571D01*
X493150828Y-395439000D01*
X493793685Y-396296142D02*
X493650828Y-396367571D01*
X493293685Y-396367571D01*
X493150828Y-396296142D01*
X493079400Y-396153285D01*
X493079400Y-396010428D01*
X493150828Y-395867571D01*
X493293685Y-395796142D01*
X493650828Y-395796142D01*
X493793685Y-395724714D01*
X495150828Y-396367571D02*
X495150828Y-394867571D01*
X495150828Y-396296142D02*
X495007971Y-396367571D01*
X494722257Y-396367571D01*
X494579400Y-396296142D01*
X494507971Y-396224714D01*
X494436542Y-396081857D01*
X494436542Y-395653285D01*
X494507971Y-395510428D01*
X494579400Y-395439000D01*
X494722257Y-395367571D01*
X495007971Y-395367571D01*
X495150828Y-395439000D01*
X495507971Y-396510428D02*
X496650828Y-396510428D01*
X497007971Y-395367571D02*
X497007971Y-396867571D01*
X497007971Y-395439000D02*
X497150828Y-395367571D01*
X497436542Y-395367571D01*
X497579400Y-395439000D01*
X497650828Y-395510428D01*
X497722257Y-395653285D01*
X497722257Y-396081857D01*
X497650828Y-396224714D01*
X497579400Y-396296142D01*
X497436542Y-396367571D01*
X497150828Y-396367571D01*
X497007971Y-396296142D01*
X499007971Y-396296142D02*
X498865114Y-396367571D01*
X498579400Y-396367571D01*
X498436542Y-396296142D01*
X498365114Y-396224714D01*
X498293685Y-396081857D01*
X498293685Y-395653285D01*
X498365114Y-395510428D01*
X498436542Y-395439000D01*
X498579400Y-395367571D01*
X498865114Y-395367571D01*
X499007971Y-395439000D01*
X499650828Y-396367571D02*
X499650828Y-394867571D01*
X499650828Y-395439000D02*
X499793685Y-395367571D01*
X500079400Y-395367571D01*
X500222257Y-395439000D01*
X500293685Y-395510428D01*
X500365114Y-395653285D01*
X500365114Y-396081857D01*
X500293685Y-396224714D01*
X500222257Y-396296142D01*
X500079400Y-396367571D01*
X499793685Y-396367571D01*
X499650828Y-396296142D01*
D10*
D11*
X474004400Y-391489000D02*
X582004400Y-391489000D01*
D10*
D11*
X475365114Y-393596142D02*
X475579400Y-393667571D01*
X475936542Y-393667571D01*
X476079400Y-393596142D01*
X476150828Y-393524714D01*
X476222257Y-393381857D01*
X476222257Y-393239000D01*
X476150828Y-393096142D01*
X476079400Y-393024714D01*
X475936542Y-392953285D01*
X475650828Y-392881857D01*
X475507971Y-392810428D01*
X475436542Y-392739000D01*
X475365114Y-392596142D01*
X475365114Y-392453285D01*
X475436542Y-392310428D01*
X475507971Y-392239000D01*
X475650828Y-392167571D01*
X476007971Y-392167571D01*
X476222257Y-392239000D01*
X476865114Y-393667571D02*
X476865114Y-392167571D01*
X477507971Y-393667571D02*
X477507971Y-392881857D01*
X477436542Y-392739000D01*
X477293685Y-392667571D01*
X477079400Y-392667571D01*
X476936542Y-392739000D01*
X476865114Y-392810428D01*
X478793685Y-393596142D02*
X478650828Y-393667571D01*
X478365114Y-393667571D01*
X478222257Y-393596142D01*
X478150828Y-393453285D01*
X478150828Y-392881857D01*
X478222257Y-392739000D01*
X478365114Y-392667571D01*
X478650828Y-392667571D01*
X478793685Y-392739000D01*
X478865114Y-392881857D01*
X478865114Y-393024714D01*
X478150828Y-393167571D01*
X480079400Y-393596142D02*
X479936542Y-393667571D01*
X479650828Y-393667571D01*
X479507971Y-393596142D01*
X479436542Y-393453285D01*
X479436542Y-392881857D01*
X479507971Y-392739000D01*
X479650828Y-392667571D01*
X479936542Y-392667571D01*
X480079400Y-392739000D01*
X480150828Y-392881857D01*
X480150828Y-393024714D01*
X479436542Y-393167571D01*
X480579400Y-392667571D02*
X481150828Y-392667571D01*
X480793685Y-392167571D02*
X480793685Y-393453285D01*
X480865114Y-393596142D01*
X481007971Y-393667571D01*
X481150828Y-393667571D01*
X481650828Y-393524714D02*
X481722257Y-393596142D01*
X481650828Y-393667571D01*
X481579400Y-393596142D01*
X481650828Y-393524714D01*
X481650828Y-393667571D01*
X481650828Y-392739000D02*
X481722257Y-392810428D01*
X481650828Y-392881857D01*
X481579400Y-392810428D01*
X481650828Y-392739000D01*
X481650828Y-392881857D01*
D10*
D11*
X494004400Y-401489000D02*
X494004400Y-404489000D01*
D10*
D11*
X558004400Y-401489000D02*
X558004400Y-407989000D01*
%TO.P,R5,2*%
%TO.N,Net-(J1-PadA7)*%
%TA.AperFunction,SMDPad,CuDef*%
G36*
G01*
X380549999Y-98081200D02*
X381450001Y-98081200D01*
G75*
G02*
X381700000Y-98331199I0J-249999D01*
G01*
X381700000Y-98981201D01*
G75*
G02*
X381450001Y-99231200I-249999J0D01*
G01*
X380549999Y-99231200D01*
G75*
G02*
X380300000Y-98981201I0J249999D01*
G01*
X380300000Y-98331199D01*
G75*
G02*
X380549999Y-98081200I249999J0D01*
G01*
G37*
%TD.AperFunction*%
%TO.P,R5,1*%
%TO.N,Net-(R5-Pad1)*%
%TA.AperFunction,SMDPad,CuDef*%
G36*
G01*
X380549999Y-96031200D02*
X381450001Y-96031200D01*
G75*
G02*
X381700000Y-96281199I0J-249999D01*
G01*
X381700000Y-96931201D01*
G75*
G02*
X381450001Y-97181200I-249999J0D01*
G01*
X380549999Y-97181200D01*
G75*
G02*
X380300000Y-96931201I0J249999D01*
G01*
X380300000Y-96281199D01*
G75*
G02*
X380549999Y-96031200I249999J0D01*
G01*
G37*
%TD.AperFunction*%
%TD*%
D14*
%TO.P,X1,2*%
%TO.N,Net-(C7-Pad1)*%
X374956000Y-103975000D03*
%TO.P,X1,1*%
%TO.N,Net-(C6-Pad1)*%
X372756000Y-103975000D03*
%TO.P,X1,3*%
%TO.N,GND*%
X374956000Y-105575000D03*
%TO.P,X1,4*%
%TO.N,N/C*%
X372756000Y-105575000D03*
%TD*%
D15*
%TO.P,U1,44*%
%TO.N,VCC*%
X350806000Y-105712000D03*
%TO.P,U1,43*%
%TO.N,GND*%
X351606000Y-105712000D03*
%TO.P,U1,42*%
%TO.N,Net-(U1-Pad42)*%
X352406000Y-105712000D03*
%TO.P,U1,41*%
%TO.N,/col17*%
X353206000Y-105712000D03*
%TO.P,U1,40*%
%TO.N,/matrix/row0*%
X354006000Y-105712000D03*
%TO.P,U1,39*%
%TO.N,/matrix/row1*%
X354806000Y-105712000D03*
%TO.P,U1,38*%
%TO.N,/matrix/row2*%
X355606000Y-105712000D03*
%TO.P,U1,37*%
%TO.N,/matrix/row3*%
X356406000Y-105712000D03*
%TO.P,U1,36*%
%TO.N,/matrix/row4*%
X357206000Y-105712000D03*
%TO.P,U1,35*%
%TO.N,GND*%
X358006000Y-105712000D03*
%TO.P,U1,34*%
%TO.N,VCC*%
X358806000Y-105712000D03*
D16*
%TO.P,U1,33*%
%TO.N,Net-(R6-Pad2)*%
X360506000Y-104012000D03*
%TO.P,U1,32*%
%TO.N,/matrix/row5*%
X360506000Y-103212000D03*
%TO.P,U1,31*%
%TO.N,/matrix/col0*%
X360506000Y-102412000D03*
%TO.P,U1,30*%
%TO.N,/matrix/col1*%
X360506000Y-101612000D03*
%TO.P,U1,29*%
%TO.N,/matrix/col2*%
X360506000Y-100812000D03*
%TO.P,U1,28*%
%TO.N,/matrix/col3*%
X360506000Y-100012000D03*
%TO.P,U1,27*%
%TO.N,/matrix/col4*%
X360506000Y-99212000D03*
%TO.P,U1,26*%
%TO.N,/matrix/col5*%
X360506000Y-98412000D03*
%TO.P,U1,25*%
%TO.N,/matrix/col6*%
X360506000Y-97612000D03*
%TO.P,U1,24*%
%TO.N,VCC*%
X360506000Y-96812000D03*
%TO.P,U1,23*%
%TO.N,GND*%
X360506000Y-96012000D03*
D15*
%TO.P,U1,22*%
%TO.N,/col16*%
X358806000Y-94312000D03*
%TO.P,U1,21*%
%TO.N,/col15*%
X358006000Y-94312000D03*
%TO.P,U1,20*%
%TO.N,/col14*%
X357206000Y-94312000D03*
%TO.P,U1,19*%
%TO.N,/col13*%
X356406000Y-94312000D03*
%TO.P,U1,18*%
%TO.N,/col12*%
X355606000Y-94312000D03*
%TO.P,U1,17*%
%TO.N,Net-(C7-Pad1)*%
X354806000Y-94312000D03*
%TO.P,U1,16*%
%TO.N,Net-(C6-Pad1)*%
X354006000Y-94312000D03*
%TO.P,U1,15*%
%TO.N,GND*%
X353206000Y-94312000D03*
%TO.P,U1,14*%
%TO.N,VCC*%
X352406000Y-94312000D03*
%TO.P,U1,13*%
%TO.N,Net-(R2-Pad1)*%
X351606000Y-94312000D03*
%TO.P,U1,12*%
%TO.N,/col11*%
X350806000Y-94312000D03*
D16*
%TO.P,U1,11*%
%TO.N,/col10*%
X349106000Y-96012000D03*
%TO.P,U1,10*%
%TO.N,/col9*%
X349106000Y-96812000D03*
%TO.P,U1,9*%
%TO.N,/col8*%
X349106000Y-97612000D03*
%TO.P,U1,8*%
%TO.N,/col7*%
X349106000Y-98412000D03*
%TO.P,U1,7*%
%TO.N,Net-(U1-Pad7)*%
X349106000Y-99212000D03*
%TO.P,U1,6*%
%TO.N,Net-(C8-Pad2)*%
X349106000Y-100012000D03*
%TO.P,U1,5*%
%TO.N,GND*%
X349106000Y-100812000D03*
%TO.P,U1,4*%
%TO.N,Net-(R5-Pad1)*%
X349106000Y-101612000D03*
%TO.P,U1,3*%
%TO.N,Net-(R4-Pad1)*%
X349106000Y-102412000D03*
%TO.P,U1,2*%
%TO.N,VCC*%
X349106000Y-103212000D03*
%TO.P,U1,1*%
%TO.N,Net-(U1-Pad1)*%
X349106000Y-104012000D03*
%TD*%
%TO.P,R6,2*%
%TO.N,Net-(R6-Pad2)*%
%TA.AperFunction,SMDPad,CuDef*%
G36*
G01*
X380549999Y-105225000D02*
X381450001Y-105225000D01*
G75*
G02*
X381700000Y-105474999I0J-249999D01*
G01*
X381700000Y-106125001D01*
G75*
G02*
X381450001Y-106375000I-249999J0D01*
G01*
X380549999Y-106375000D01*
G75*
G02*
X380300000Y-106125001I0J249999D01*
G01*
X380300000Y-105474999D01*
G75*
G02*
X380549999Y-105225000I249999J0D01*
G01*
G37*
%TD.AperFunction*%
%TO.P,R6,1*%
%TO.N,GND*%
%TA.AperFunction,SMDPad,CuDef*%
G36*
G01*
X380549999Y-103175000D02*
X381450001Y-103175000D01*
G75*
G02*
X381700000Y-103424999I0J-249999D01*
G01*
X381700000Y-104075001D01*
G75*
G02*
X381450001Y-104325000I-249999J0D01*
G01*
X380549999Y-104325000D01*
G75*
G02*
X380300000Y-104075001I0J249999D01*
G01*
X380300000Y-103424999D01*
G75*
G02*
X380549999Y-103175000I249999J0D01*
G01*
G37*
%TD.AperFunction*%
%TD*%
%TO.P,R4,2*%
%TO.N,Net-(J1-PadA6)*%
%TA.AperFunction,SMDPad,CuDef*%
G36*
G01*
X378168999Y-98081200D02*
X379069001Y-98081200D01*
G75*
G02*
X379319000Y-98331199I0J-249999D01*
G01*
X379319000Y-98981201D01*
G75*
G02*
X379069001Y-99231200I-249999J0D01*
G01*
X378168999Y-99231200D01*
G75*
G02*
X377919000Y-98981201I0J249999D01*
G01*
X377919000Y-98331199D01*
G75*
G02*
X378168999Y-98081200I249999J0D01*
G01*
G37*
%TD.AperFunction*%
%TO.P,R4,1*%
%TO.N,Net-(R4-Pad1)*%
%TA.AperFunction,SMDPad,CuDef*%
G36*
G01*
X378168999Y-96031200D02*
X379069001Y-96031200D01*
G75*
G02*
X379319000Y-96281199I0J-249999D01*
G01*
X379319000Y-96931201D01*
G75*
G02*
X379069001Y-97181200I-249999J0D01*
G01*
X378168999Y-97181200D01*
G75*
G02*
X377919000Y-96931201I0J249999D01*
G01*
X377919000Y-96281199D01*
G75*
G02*
X378168999Y-96031200I249999J0D01*
G01*
G37*
%TD.AperFunction*%
%TD*%
%TO.P,R3,2*%
%TO.N,Net-(J1-PadB5)*%
%TA.AperFunction,SMDPad,CuDef*%
G36*
G01*
X373405999Y-98081200D02*
X374306001Y-98081200D01*
G75*
G02*
X374556000Y-98331199I0J-249999D01*
G01*
X374556000Y-98981201D01*
G75*
G02*
X374306001Y-99231200I-249999J0D01*
G01*
X373405999Y-99231200D01*
G75*
G02*
X373156000Y-98981201I0J249999D01*
G01*
X373156000Y-98331199D01*
G75*
G02*
X373405999Y-98081200I249999J0D01*
G01*
G37*
%TD.AperFunction*%
%TO.P,R3,1*%
%TO.N,GND*%
%TA.AperFunction,SMDPad,CuDef*%
G36*
G01*
X373405999Y-96031200D02*
X374306001Y-96031200D01*
G75*
G02*
X374556000Y-96281199I0J-249999D01*
G01*
X374556000Y-96931201D01*
G75*
G02*
X374306001Y-97181200I-249999J0D01*
G01*
X373405999Y-97181200D01*
G75*
G02*
X373156000Y-96931201I0J249999D01*
G01*
X373156000Y-96281199D01*
G75*
G02*
X373405999Y-96031200I249999J0D01*
G01*
G37*
%TD.AperFunction*%
%TD*%
%TO.P,R2,2*%
%TO.N,VCC*%
%TA.AperFunction,SMDPad,CuDef*%
G36*
G01*
X368643999Y-109988000D02*
X369544001Y-109988000D01*
G75*
G02*
X369794000Y-110237999I0J-249999D01*
G01*
X369794000Y-110888001D01*
G75*
G02*
X369544001Y-111138000I-249999J0D01*
G01*
X368643999Y-111138000D01*
G75*
G02*
X368394000Y-110888001I0J249999D01*
G01*
X368394000Y-110237999D01*
G75*
G02*
X368643999Y-109988000I249999J0D01*
G01*
G37*
%TD.AperFunction*%
%TO.P,R2,1*%
%TO.N,Net-(R2-Pad1)*%
%TA.AperFunction,SMDPad,CuDef*%
G36*
G01*
X368643999Y-107938000D02*
X369544001Y-107938000D01*
G75*
G02*
X369794000Y-108187999I0J-249999D01*
G01*
X369794000Y-108838001D01*
G75*
G02*
X369544001Y-109088000I-249999J0D01*
G01*
X368643999Y-109088000D01*
G75*
G02*
X368394000Y-108838001I0J249999D01*
G01*
X368394000Y-108187999D01*
G75*
G02*
X368643999Y-107938000I249999J0D01*
G01*
G37*
%TD.AperFunction*%
%TD*%
%TO.P,R1,2*%
%TO.N,GND*%
%TA.AperFunction,SMDPad,CuDef*%
G36*
G01*
X368643999Y-98081200D02*
X369544001Y-98081200D01*
G75*
G02*
X369794000Y-98331199I0J-249999D01*
G01*
X369794000Y-98981201D01*
G75*
G02*
X369544001Y-99231200I-249999J0D01*
G01*
X368643999Y-99231200D01*
G75*
G02*
X368394000Y-98981201I0J249999D01*
G01*
X368394000Y-98331199D01*
G75*
G02*
X368643999Y-98081200I249999J0D01*
G01*
G37*
%TD.AperFunction*%
%TO.P,R1,1*%
%TO.N,Net-(J1-PadA5)*%
%TA.AperFunction,SMDPad,CuDef*%
G36*
G01*
X368643999Y-96031200D02*
X369544001Y-96031200D01*
G75*
G02*
X369794000Y-96281199I0J-249999D01*
G01*
X369794000Y-96931201D01*
G75*
G02*
X369544001Y-97181200I-249999J0D01*
G01*
X368643999Y-97181200D01*
G75*
G02*
X368394000Y-96931201I0J249999D01*
G01*
X368394000Y-96281199D01*
G75*
G02*
X368643999Y-96031200I249999J0D01*
G01*
G37*
%TD.AperFunction*%
%TD*%
D17*
%TO.P,K86,2*%
%TO.N,Net-(D86-Pad2)*%
X370046000Y-135572000D03*
%TO.P,K86,1*%
%TO.N,/col17*%
X376396000Y-133032000D03*
%TD*%
%TO.P,K85,2*%
%TO.N,Net-(D85-Pad2)*%
X350996000Y-135572000D03*
%TO.P,K85,1*%
%TO.N,/col16*%
X357346000Y-133032000D03*
%TD*%
%TO.P,K84,2*%
%TO.N,Net-(D84-Pad2)*%
X331946000Y-135572000D03*
%TO.P,K84,1*%
%TO.N,/col15*%
X338296000Y-133032000D03*
%TD*%
%TO.P,K83,2*%
%TO.N,Net-(D83-Pad2)*%
X303371000Y-135572000D03*
%TO.P,K83,1*%
%TO.N,/col14*%
X309721000Y-133032000D03*
%TD*%
%TO.P,K82,2*%
%TO.N,Net-(D82-Pad2)*%
X279559000Y-135572000D03*
%TO.P,K82,1*%
%TO.N,/col13*%
X285909000Y-133032000D03*
%TD*%
%TO.P,K81,2*%
%TO.N,Net-(D81-Pad2)*%
X255746000Y-135572000D03*
%TO.P,K81,1*%
%TO.N,/col12*%
X262096000Y-133032000D03*
%TD*%
D18*
%TO.P,K80,2*%
%TO.N,Net-(D80-Pad2)*%
X181134000Y-133032000D03*
%TO.P,K80,1*%
%TO.N,/matrix/col6*%
X174784000Y-135572000D03*
%TD*%
D17*
%TO.P,K79,2*%
%TO.N,Net-(D79-Pad2)*%
X93821000Y-135572000D03*
%TO.P,K79,1*%
%TO.N,/matrix/col2*%
X100171000Y-133032000D03*
%TD*%
%TO.P,K78,2*%
%TO.N,Net-(D78-Pad2)*%
X70008800Y-135572000D03*
%TO.P,K78,1*%
%TO.N,/matrix/col1*%
X76358800Y-133032000D03*
%TD*%
%TO.P,K77,2*%
%TO.N,Net-(D77-Pad2)*%
X46196200Y-135572000D03*
%TO.P,K77,1*%
%TO.N,/matrix/col0*%
X52546200Y-133032000D03*
%TD*%
%TO.P,K76,2*%
%TO.N,Net-(D76-Pad2)*%
X350996000Y-116522000D03*
%TO.P,K76,1*%
%TO.N,/col16*%
X357346000Y-113982000D03*
%TD*%
%TO.P,K75,2*%
%TO.N,Net-(D75-Pad2)*%
X291465000Y-116522000D03*
%TO.P,K75,1*%
%TO.N,/col12*%
X297815000Y-113982000D03*
%TD*%
%TO.P,K74,2*%
%TO.N,Net-(D74-Pad2)*%
X255746000Y-116522000D03*
%TO.P,K74,1*%
%TO.N,/col11*%
X262096000Y-113982000D03*
%TD*%
%TO.P,K73,2*%
%TO.N,Net-(D73-Pad2)*%
X236696000Y-116522000D03*
%TO.P,K73,1*%
%TO.N,/col10*%
X243046000Y-113982000D03*
%TD*%
%TO.P,K72,2*%
%TO.N,Net-(D72-Pad2)*%
X217646000Y-116522000D03*
%TO.P,K72,1*%
%TO.N,/col9*%
X223996000Y-113982000D03*
%TD*%
%TO.P,K71,2*%
%TO.N,Net-(D71-Pad2)*%
X198596000Y-116522000D03*
%TO.P,K71,1*%
%TO.N,/col7*%
X204946000Y-113982000D03*
%TD*%
%TO.P,K70,2*%
%TO.N,Net-(D70-Pad2)*%
X179546000Y-116522000D03*
%TO.P,K70,1*%
%TO.N,/matrix/col6*%
X185896000Y-113982000D03*
%TD*%
%TO.P,K69,2*%
%TO.N,Net-(D69-Pad2)*%
X160496000Y-116522000D03*
%TO.P,K69,1*%
%TO.N,/matrix/col5*%
X166846000Y-113982000D03*
%TD*%
%TO.P,K68,2*%
%TO.N,Net-(D68-Pad2)*%
X141446000Y-116522000D03*
%TO.P,K68,1*%
%TO.N,/matrix/col4*%
X147796000Y-113982000D03*
%TD*%
%TO.P,K67,2*%
%TO.N,Net-(D67-Pad2)*%
X122396000Y-116522000D03*
%TO.P,K67,1*%
%TO.N,/matrix/col3*%
X128746000Y-113982000D03*
%TD*%
%TO.P,K66,2*%
%TO.N,Net-(D66-Pad2)*%
X103346000Y-116522000D03*
%TO.P,K66,1*%
%TO.N,/matrix/col2*%
X109696000Y-113982000D03*
%TD*%
%TO.P,K65,2*%
%TO.N,Net-(D65-Pad2)*%
X84296200Y-116522000D03*
%TO.P,K65,1*%
%TO.N,/matrix/col1*%
X90646200Y-113982000D03*
%TD*%
%TO.P,K64,2*%
%TO.N,Net-(D64-Pad2)*%
X53340000Y-116522000D03*
%TO.P,K64,1*%
%TO.N,/matrix/col0*%
X59690000Y-113982000D03*
%TD*%
%TO.P,K63,2*%
%TO.N,Net-(D63-Pad2)*%
X296228000Y-97472500D03*
%TO.P,K63,1*%
%TO.N,/col13*%
X302578000Y-94932500D03*
%TD*%
%TO.P,K62,2*%
%TO.N,Net-(D62-Pad2)*%
X265271000Y-97472500D03*
%TO.P,K62,1*%
%TO.N,/col12*%
X271621000Y-94932500D03*
%TD*%
%TO.P,K61,2*%
%TO.N,Net-(D61-Pad2)*%
X246221000Y-97472500D03*
%TO.P,K61,1*%
%TO.N,/col11*%
X252571000Y-94932500D03*
%TD*%
%TO.P,K60,2*%
%TO.N,Net-(D60-Pad2)*%
X227171000Y-97472500D03*
%TO.P,K60,1*%
%TO.N,/col10*%
X233521000Y-94932500D03*
%TD*%
%TO.P,K59,2*%
%TO.N,Net-(D59-Pad2)*%
X208121000Y-97472500D03*
%TO.P,K59,1*%
%TO.N,/col9*%
X214471000Y-94932500D03*
%TD*%
%TO.P,K58,2*%
%TO.N,Net-(D58-Pad2)*%
X189071000Y-97472500D03*
%TO.P,K58,1*%
%TO.N,/col7*%
X195421000Y-94932500D03*
%TD*%
%TO.P,K57,2*%
%TO.N,Net-(D57-Pad2)*%
X170021000Y-97472500D03*
%TO.P,K57,1*%
%TO.N,/matrix/col6*%
X176371000Y-94932500D03*
%TD*%
%TO.P,K56,2*%
%TO.N,Net-(D56-Pad2)*%
X150971000Y-97472500D03*
%TO.P,K56,1*%
%TO.N,/matrix/col5*%
X157321000Y-94932500D03*
%TD*%
%TO.P,K55,2*%
%TO.N,Net-(D55-Pad2)*%
X131921000Y-97472500D03*
%TO.P,K55,1*%
%TO.N,/matrix/col4*%
X138271000Y-94932500D03*
%TD*%
%TO.P,K54,2*%
%TO.N,Net-(D54-Pad2)*%
X112871000Y-97472500D03*
%TO.P,K54,1*%
%TO.N,/matrix/col3*%
X119221000Y-94932500D03*
%TD*%
%TO.P,K53,2*%
%TO.N,Net-(D53-Pad2)*%
X93821000Y-97472500D03*
%TO.P,K53,1*%
%TO.N,/matrix/col2*%
X100171000Y-94932500D03*
%TD*%
%TO.P,K52,2*%
%TO.N,Net-(D52-Pad2)*%
X74771200Y-97472500D03*
%TO.P,K52,1*%
%TO.N,/matrix/col1*%
X81121200Y-94932500D03*
%TD*%
%TO.P,K51,2*%
%TO.N,Net-(D51-Pad2)*%
X48577500Y-97472500D03*
%TO.P,K51,1*%
%TO.N,/matrix/col0*%
X54927500Y-94932500D03*
%TD*%
%TO.P,K50,2*%
%TO.N,Net-(D50-Pad2)*%
X370046000Y-78422500D03*
%TO.P,K50,1*%
%TO.N,/col17*%
X376396000Y-75882500D03*
%TD*%
%TO.P,K49,2*%
%TO.N,Net-(D49-Pad2)*%
X350996000Y-78422500D03*
%TO.P,K49,1*%
%TO.N,/col16*%
X357346000Y-75882500D03*
%TD*%
%TO.P,K48,2*%
%TO.N,Net-(D48-Pad2)*%
X331946000Y-78422500D03*
%TO.P,K48,1*%
%TO.N,/col15*%
X338296000Y-75882500D03*
%TD*%
%TO.P,K47,2*%
%TO.N,Net-(D47-Pad2)*%
X303371000Y-78422500D03*
%TO.P,K47,1*%
%TO.N,/col14*%
X309721000Y-75882500D03*
%TD*%
%TO.P,K46,2*%
%TO.N,Net-(D46-Pad2)*%
X279559000Y-78422500D03*
%TO.P,K46,1*%
%TO.N,/col13*%
X285909000Y-75882500D03*
%TD*%
%TO.P,K45,2*%
%TO.N,Net-(D45-Pad2)*%
X260509000Y-78422500D03*
%TO.P,K45,1*%
%TO.N,/col12*%
X266859000Y-75882500D03*
%TD*%
%TO.P,K44,2*%
%TO.N,Net-(D44-Pad2)*%
X241459000Y-78422500D03*
%TO.P,K44,1*%
%TO.N,/col11*%
X247809000Y-75882500D03*
%TD*%
%TO.P,K43,2*%
%TO.N,Net-(D43-Pad2)*%
X222409000Y-78422500D03*
%TO.P,K43,1*%
%TO.N,/col10*%
X228759000Y-75882500D03*
%TD*%
%TO.P,K42,2*%
%TO.N,Net-(D42-Pad2)*%
X203359000Y-78422500D03*
%TO.P,K42,1*%
%TO.N,/col9*%
X209709000Y-75882500D03*
%TD*%
%TO.P,K41,2*%
%TO.N,Net-(D41-Pad2)*%
X184309000Y-78422500D03*
%TO.P,K41,1*%
%TO.N,/col7*%
X190659000Y-75882500D03*
%TD*%
%TO.P,K40,2*%
%TO.N,Net-(D40-Pad2)*%
X165259000Y-78422500D03*
%TO.P,K40,1*%
%TO.N,/matrix/col6*%
X171609000Y-75882500D03*
%TD*%
%TO.P,K39,2*%
%TO.N,Net-(D39-Pad2)*%
X146209000Y-78422500D03*
%TO.P,K39,1*%
%TO.N,/matrix/col5*%
X152559000Y-75882500D03*
%TD*%
%TO.P,K38,2*%
%TO.N,Net-(D38-Pad2)*%
X127159000Y-78422500D03*
%TO.P,K38,1*%
%TO.N,/matrix/col4*%
X133509000Y-75882500D03*
%TD*%
%TO.P,K37,2*%
%TO.N,Net-(D37-Pad2)*%
X108109000Y-78422500D03*
%TO.P,K37,1*%
%TO.N,/matrix/col3*%
X114459000Y-75882500D03*
%TD*%
%TO.P,K36,2*%
%TO.N,Net-(D36-Pad2)*%
X89058800Y-78422500D03*
%TO.P,K36,1*%
%TO.N,/matrix/col2*%
X95408800Y-75882500D03*
%TD*%
%TO.P,K35,2*%
%TO.N,Net-(D35-Pad2)*%
X70008800Y-78422500D03*
%TO.P,K35,1*%
%TO.N,/matrix/col1*%
X76358800Y-75882500D03*
%TD*%
%TO.P,K34,2*%
%TO.N,Net-(D34-Pad2)*%
X46196200Y-78422500D03*
%TO.P,K34,1*%
%TO.N,/matrix/col0*%
X52546200Y-75882500D03*
%TD*%
%TO.P,K33,2*%
%TO.N,Net-(D33-Pad2)*%
X370046000Y-59372500D03*
%TO.P,K33,1*%
%TO.N,/col17*%
X376396000Y-56832500D03*
%TD*%
%TO.P,K32,2*%
%TO.N,Net-(D32-Pad2)*%
X350996000Y-59372500D03*
%TO.P,K32,1*%
%TO.N,/col16*%
X357346000Y-56832500D03*
%TD*%
%TO.P,K31,2*%
%TO.N,Net-(D31-Pad2)*%
X331946000Y-59372500D03*
%TO.P,K31,1*%
%TO.N,/col15*%
X338296000Y-56832500D03*
%TD*%
%TO.P,K30,2*%
%TO.N,Net-(D30-Pad2)*%
X298609000Y-59372500D03*
%TO.P,K30,1*%
%TO.N,/col14*%
X304959000Y-56832500D03*
%TD*%
%TO.P,K29,2*%
%TO.N,Net-(D29-Pad2)*%
X270034000Y-59372500D03*
%TO.P,K29,1*%
%TO.N,/col13*%
X276384000Y-56832500D03*
%TD*%
%TO.P,K28,2*%
%TO.N,Net-(D28-Pad2)*%
X250984000Y-59372500D03*
%TO.P,K28,1*%
%TO.N,/col12*%
X257334000Y-56832500D03*
%TD*%
%TO.P,K27,2*%
%TO.N,Net-(D27-Pad2)*%
X231934000Y-59372500D03*
%TO.P,K27,1*%
%TO.N,/col11*%
X238284000Y-56832500D03*
%TD*%
%TO.P,K26,2*%
%TO.N,Net-(D26-Pad2)*%
X212884000Y-59372500D03*
%TO.P,K26,1*%
%TO.N,/col10*%
X219234000Y-56832500D03*
%TD*%
%TO.P,K25,2*%
%TO.N,Net-(D25-Pad2)*%
X193834000Y-59372500D03*
%TO.P,K25,1*%
%TO.N,/col9*%
X200184000Y-56832500D03*
%TD*%
%TO.P,K24,2*%
%TO.N,Net-(D24-Pad2)*%
X174784000Y-59372500D03*
%TO.P,K24,1*%
%TO.N,/col7*%
X181134000Y-56832500D03*
%TD*%
%TO.P,K23,2*%
%TO.N,Net-(D23-Pad2)*%
X155734000Y-59372500D03*
%TO.P,K23,1*%
%TO.N,/matrix/col6*%
X162084000Y-56832500D03*
%TD*%
%TO.P,K22,2*%
%TO.N,Net-(D22-Pad2)*%
X136684000Y-59372500D03*
%TO.P,K22,1*%
%TO.N,/matrix/col5*%
X143034000Y-56832500D03*
%TD*%
%TO.P,K21,2*%
%TO.N,Net-(D21-Pad2)*%
X117634000Y-59372500D03*
%TO.P,K21,1*%
%TO.N,/matrix/col4*%
X123984000Y-56832500D03*
%TD*%
%TO.P,K20,2*%
%TO.N,Net-(D20-Pad2)*%
X98584000Y-59372500D03*
%TO.P,K20,1*%
%TO.N,/matrix/col3*%
X104934000Y-56832500D03*
%TD*%
%TO.P,K19,2*%
%TO.N,Net-(D19-Pad2)*%
X79533800Y-59372500D03*
%TO.P,K19,1*%
%TO.N,/matrix/col2*%
X85883800Y-56832500D03*
%TD*%
%TO.P,K18,2*%
%TO.N,Net-(D18-Pad2)*%
X60483800Y-59372500D03*
%TO.P,K18,1*%
%TO.N,/matrix/col1*%
X66833800Y-56832500D03*
%TD*%
%TO.P,K17,2*%
%TO.N,Net-(D17-Pad2)*%
X41433800Y-59372500D03*
%TO.P,K17,1*%
%TO.N,/matrix/col0*%
X47783800Y-56832500D03*
%TD*%
%TO.P,K16,2*%
%TO.N,Net-(D16-Pad2)*%
X370046000Y-35560000D03*
%TO.P,K16,1*%
%TO.N,/col17*%
X376396000Y-33020000D03*
%TD*%
%TO.P,K15,2*%
%TO.N,Net-(D15-Pad2)*%
X350996000Y-35560000D03*
%TO.P,K15,1*%
%TO.N,/col16*%
X357346000Y-33020000D03*
%TD*%
%TO.P,K14,2*%
%TO.N,Net-(D14-Pad2)*%
X331946000Y-35560000D03*
%TO.P,K14,1*%
%TO.N,/col15*%
X338296000Y-33020000D03*
%TD*%
%TO.P,K13,2*%
%TO.N,Net-(D13-Pad2)*%
X308134000Y-35560000D03*
%TO.P,K13,1*%
%TO.N,/col13*%
X314484000Y-33020000D03*
%TD*%
%TO.P,K12,2*%
%TO.N,Net-(D12-Pad2)*%
X289084000Y-35560000D03*
%TO.P,K12,1*%
%TO.N,/col12*%
X295434000Y-33020000D03*
%TD*%
%TO.P,K11,2*%
%TO.N,Net-(D11-Pad2)*%
X270034000Y-35560000D03*
%TO.P,K11,1*%
%TO.N,/col11*%
X276384000Y-33020000D03*
%TD*%
%TO.P,K10,2*%
%TO.N,Net-(D10-Pad2)*%
X250984000Y-35560000D03*
%TO.P,K10,1*%
%TO.N,/col10*%
X257334000Y-33020000D03*
%TD*%
%TO.P,K9,2*%
%TO.N,Net-(D9-Pad2)*%
X222409000Y-35560000D03*
%TO.P,K9,1*%
%TO.N,/col9*%
X228759000Y-33020000D03*
%TD*%
%TO.P,K8,2*%
%TO.N,Net-(D8-Pad2)*%
X203359000Y-35560000D03*
%TO.P,K8,1*%
%TO.N,/col7*%
X209709000Y-33020000D03*
%TD*%
%TO.P,K7,2*%
%TO.N,Net-(D7-Pad2)*%
X184309000Y-35560000D03*
%TO.P,K7,1*%
%TO.N,/matrix/col6*%
X190659000Y-33020000D03*
%TD*%
%TO.P,K6,2*%
%TO.N,Net-(D6-Pad2)*%
X165259000Y-35560000D03*
%TO.P,K6,1*%
%TO.N,/matrix/col5*%
X171609000Y-33020000D03*
%TD*%
%TO.P,K5,2*%
%TO.N,Net-(D5-Pad2)*%
X136684000Y-35560000D03*
%TO.P,K5,1*%
%TO.N,/matrix/col4*%
X143034000Y-33020000D03*
%TD*%
%TO.P,K4,2*%
%TO.N,Net-(D4-Pad2)*%
X117634000Y-35560000D03*
%TO.P,K4,1*%
%TO.N,/matrix/col3*%
X123984000Y-33020000D03*
%TD*%
%TO.P,K3,2*%
%TO.N,Net-(D3-Pad2)*%
X98584000Y-35560000D03*
%TO.P,K3,1*%
%TO.N,/matrix/col2*%
X104934000Y-33020000D03*
%TD*%
%TO.P,K2,2*%
%TO.N,Net-(D2-Pad2)*%
X79533800Y-35560000D03*
%TO.P,K2,1*%
%TO.N,/matrix/col1*%
X85883800Y-33020000D03*
%TD*%
%TO.P,K1,2*%
%TO.N,Net-(D1-Pad2)*%
X41433800Y-35560000D03*
%TO.P,K1,1*%
%TO.N,/matrix/col0*%
X47783800Y-33020000D03*
%TD*%
D19*
%TO.P,D86,1*%
%TO.N,/matrix/row5*%
X364331000Y-138919000D03*
%TO.P,D86,2*%
%TO.N,Net-(D86-Pad2)*%
X364331000Y-142069000D03*
%TD*%
%TO.P,D50,1*%
%TO.N,/matrix/row2*%
X364331000Y-86531200D03*
%TO.P,D50,2*%
%TO.N,Net-(D50-Pad2)*%
X364331000Y-89681200D03*
%TD*%
%TO.P,D33,1*%
%TO.N,/matrix/row1*%
X364331000Y-67481200D03*
%TO.P,D33,2*%
%TO.N,Net-(D33-Pad2)*%
X364331000Y-70631200D03*
%TD*%
%TO.P,D16,1*%
%TO.N,/matrix/row0*%
X366712000Y-48431200D03*
%TO.P,D16,2*%
%TO.N,Net-(D16-Pad2)*%
X366712000Y-51581200D03*
%TD*%
%TO.P,D85,1*%
%TO.N,/matrix/row5*%
X345281000Y-138919000D03*
%TO.P,D85,2*%
%TO.N,Net-(D85-Pad2)*%
X345281000Y-142069000D03*
%TD*%
%TO.P,D76,1*%
%TO.N,/matrix/row4*%
X345281000Y-123825000D03*
%TO.P,D76,2*%
%TO.N,Net-(D76-Pad2)*%
X345281000Y-126975000D03*
%TD*%
%TO.P,D49,1*%
%TO.N,/matrix/row2*%
X345281000Y-86531200D03*
%TO.P,D49,2*%
%TO.N,Net-(D49-Pad2)*%
X345281000Y-89681200D03*
%TD*%
%TO.P,D32,1*%
%TO.N,/matrix/row1*%
X345281000Y-67481200D03*
%TO.P,D32,2*%
%TO.N,Net-(D32-Pad2)*%
X345281000Y-70631200D03*
%TD*%
%TO.P,D15,1*%
%TO.N,/matrix/row0*%
X347662000Y-48431200D03*
%TO.P,D15,2*%
%TO.N,Net-(D15-Pad2)*%
X347662000Y-51581200D03*
%TD*%
%TO.P,D84,1*%
%TO.N,/matrix/row5*%
X326231000Y-138919000D03*
%TO.P,D84,2*%
%TO.N,Net-(D84-Pad2)*%
X326231000Y-142069000D03*
%TD*%
%TO.P,D48,1*%
%TO.N,/matrix/row2*%
X326231000Y-86531200D03*
%TO.P,D48,2*%
%TO.N,Net-(D48-Pad2)*%
X326231000Y-89681200D03*
%TD*%
%TO.P,D31,1*%
%TO.N,/matrix/row1*%
X326231000Y-67481200D03*
%TO.P,D31,2*%
%TO.N,Net-(D31-Pad2)*%
X326231000Y-70631200D03*
%TD*%
%TO.P,D14,1*%
%TO.N,/matrix/row0*%
X328612000Y-48431200D03*
%TO.P,D14,2*%
%TO.N,Net-(D14-Pad2)*%
X328612000Y-51581200D03*
%TD*%
%TO.P,D47,1*%
%TO.N,/matrix/row2*%
X292894000Y-86531200D03*
%TO.P,D47,2*%
%TO.N,Net-(D47-Pad2)*%
X292894000Y-89681200D03*
%TD*%
%TO.P,D30,1*%
%TO.N,/matrix/row1*%
X283369000Y-67481200D03*
%TO.P,D30,2*%
%TO.N,Net-(D30-Pad2)*%
X283369000Y-70631200D03*
%TD*%
%TO.P,D83,1*%
%TO.N,/matrix/row5*%
X295275000Y-138919000D03*
%TO.P,D83,2*%
%TO.N,Net-(D83-Pad2)*%
X295275000Y-142069000D03*
%TD*%
%TO.P,D63,1*%
%TO.N,/matrix/row3*%
X278606000Y-105581000D03*
%TO.P,D63,2*%
%TO.N,Net-(D63-Pad2)*%
X278606000Y-108731000D03*
%TD*%
%TO.P,D46,1*%
%TO.N,/matrix/row2*%
X273844000Y-86531200D03*
%TO.P,D46,2*%
%TO.N,Net-(D46-Pad2)*%
X273844000Y-89681200D03*
%TD*%
%TO.P,D29,1*%
%TO.N,/matrix/row1*%
X264319000Y-67481200D03*
%TO.P,D29,2*%
%TO.N,Net-(D29-Pad2)*%
X264319000Y-70631200D03*
%TD*%
%TO.P,D13,1*%
%TO.N,/matrix/row0*%
X304800000Y-48431200D03*
%TO.P,D13,2*%
%TO.N,Net-(D13-Pad2)*%
X304800000Y-51581200D03*
%TD*%
%TO.P,D82,1*%
%TO.N,/matrix/row5*%
X273844000Y-138919000D03*
%TO.P,D82,2*%
%TO.N,Net-(D82-Pad2)*%
X273844000Y-142069000D03*
%TD*%
%TO.P,D81,1*%
%TO.N,/matrix/row5*%
X245269000Y-138919000D03*
%TO.P,D81,2*%
%TO.N,Net-(D81-Pad2)*%
X245269000Y-142069000D03*
%TD*%
%TO.P,D75,1*%
%TO.N,/matrix/row4*%
X271462000Y-122250000D03*
%TO.P,D75,2*%
%TO.N,Net-(D75-Pad2)*%
X271462000Y-125400000D03*
%TD*%
%TO.P,D62,1*%
%TO.N,/matrix/row3*%
X259556000Y-105581000D03*
%TO.P,D62,2*%
%TO.N,Net-(D62-Pad2)*%
X259556000Y-108731000D03*
%TD*%
%TO.P,D45,1*%
%TO.N,/matrix/row2*%
X254794000Y-86531200D03*
%TO.P,D45,2*%
%TO.N,Net-(D45-Pad2)*%
X254794000Y-89681200D03*
%TD*%
%TO.P,D28,1*%
%TO.N,/matrix/row1*%
X245269000Y-67481200D03*
%TO.P,D28,2*%
%TO.N,Net-(D28-Pad2)*%
X245269000Y-70631200D03*
%TD*%
%TO.P,D12,1*%
%TO.N,/matrix/row0*%
X285750000Y-48431200D03*
%TO.P,D12,2*%
%TO.N,Net-(D12-Pad2)*%
X285750000Y-51581200D03*
%TD*%
%TO.P,D74,1*%
%TO.N,/matrix/row4*%
X250031000Y-124631000D03*
%TO.P,D74,2*%
%TO.N,Net-(D74-Pad2)*%
X250031000Y-127781000D03*
%TD*%
%TO.P,D61,1*%
%TO.N,/matrix/row3*%
X240506000Y-105581000D03*
%TO.P,D61,2*%
%TO.N,Net-(D61-Pad2)*%
X240506000Y-108731000D03*
%TD*%
%TO.P,D44,1*%
%TO.N,/matrix/row2*%
X235744000Y-86531200D03*
%TO.P,D44,2*%
%TO.N,Net-(D44-Pad2)*%
X235744000Y-89681200D03*
%TD*%
%TO.P,D27,1*%
%TO.N,/matrix/row1*%
X226219000Y-67481200D03*
%TO.P,D27,2*%
%TO.N,Net-(D27-Pad2)*%
X226219000Y-70631200D03*
%TD*%
%TO.P,D11,1*%
%TO.N,/matrix/row0*%
X266700000Y-48431200D03*
%TO.P,D11,2*%
%TO.N,Net-(D11-Pad2)*%
X266700000Y-51581200D03*
%TD*%
%TO.P,D73,1*%
%TO.N,/matrix/row4*%
X230981000Y-122250000D03*
%TO.P,D73,2*%
%TO.N,Net-(D73-Pad2)*%
X230981000Y-125400000D03*
%TD*%
%TO.P,D60,1*%
%TO.N,/matrix/row3*%
X221456000Y-105581000D03*
%TO.P,D60,2*%
%TO.N,Net-(D60-Pad2)*%
X221456000Y-108731000D03*
%TD*%
%TO.P,D43,1*%
%TO.N,/matrix/row2*%
X216694000Y-86531200D03*
%TO.P,D43,2*%
%TO.N,Net-(D43-Pad2)*%
X216694000Y-89681200D03*
%TD*%
%TO.P,D26,1*%
%TO.N,/matrix/row1*%
X207169000Y-67481200D03*
%TO.P,D26,2*%
%TO.N,Net-(D26-Pad2)*%
X207169000Y-70631200D03*
%TD*%
%TO.P,D10,1*%
%TO.N,/matrix/row0*%
X247650000Y-48431200D03*
%TO.P,D10,2*%
%TO.N,Net-(D10-Pad2)*%
X247650000Y-51581200D03*
%TD*%
%TO.P,D72,1*%
%TO.N,/matrix/row4*%
X211931000Y-124631000D03*
%TO.P,D72,2*%
%TO.N,Net-(D72-Pad2)*%
X211931000Y-127781000D03*
%TD*%
%TO.P,D59,1*%
%TO.N,/matrix/row3*%
X202406000Y-105581000D03*
%TO.P,D59,2*%
%TO.N,Net-(D59-Pad2)*%
X202406000Y-108731000D03*
%TD*%
%TO.P,D42,1*%
%TO.N,/matrix/row2*%
X197644000Y-86531200D03*
%TO.P,D42,2*%
%TO.N,Net-(D42-Pad2)*%
X197644000Y-89681200D03*
%TD*%
%TO.P,D25,1*%
%TO.N,/matrix/row1*%
X188119000Y-67481200D03*
%TO.P,D25,2*%
%TO.N,Net-(D25-Pad2)*%
X188119000Y-70631200D03*
%TD*%
%TO.P,D9,1*%
%TO.N,/matrix/row0*%
X219075000Y-48431200D03*
%TO.P,D9,2*%
%TO.N,Net-(D9-Pad2)*%
X219075000Y-51581200D03*
%TD*%
%TO.P,D71,1*%
%TO.N,/matrix/row4*%
X192881000Y-124631000D03*
%TO.P,D71,2*%
%TO.N,Net-(D71-Pad2)*%
X192881000Y-127781000D03*
%TD*%
%TO.P,D58,1*%
%TO.N,/matrix/row3*%
X183356000Y-105581000D03*
%TO.P,D58,2*%
%TO.N,Net-(D58-Pad2)*%
X183356000Y-108731000D03*
%TD*%
%TO.P,D41,1*%
%TO.N,/matrix/row2*%
X178594000Y-86531200D03*
%TO.P,D41,2*%
%TO.N,Net-(D41-Pad2)*%
X178594000Y-89681200D03*
%TD*%
%TO.P,D24,1*%
%TO.N,/matrix/row1*%
X169069000Y-67481200D03*
%TO.P,D24,2*%
%TO.N,Net-(D24-Pad2)*%
X169069000Y-70631200D03*
%TD*%
%TO.P,D8,1*%
%TO.N,/matrix/row0*%
X200025000Y-48431200D03*
%TO.P,D8,2*%
%TO.N,Net-(D8-Pad2)*%
X200025000Y-51581200D03*
%TD*%
%TO.P,D80,1*%
%TO.N,/matrix/row5*%
X154781000Y-136537000D03*
%TO.P,D80,2*%
%TO.N,Net-(D80-Pad2)*%
X154781000Y-139687000D03*
%TD*%
%TO.P,D70,1*%
%TO.N,/matrix/row4*%
X173831000Y-124631000D03*
%TO.P,D70,2*%
%TO.N,Net-(D70-Pad2)*%
X173831000Y-127781000D03*
%TD*%
%TO.P,D57,1*%
%TO.N,/matrix/row3*%
X164306000Y-105581000D03*
%TO.P,D57,2*%
%TO.N,Net-(D57-Pad2)*%
X164306000Y-108731000D03*
%TD*%
%TO.P,D40,1*%
%TO.N,/matrix/row2*%
X159544000Y-86531200D03*
%TO.P,D40,2*%
%TO.N,Net-(D40-Pad2)*%
X159544000Y-89681200D03*
%TD*%
%TO.P,D23,1*%
%TO.N,/matrix/row1*%
X150019000Y-67481200D03*
%TO.P,D23,2*%
%TO.N,Net-(D23-Pad2)*%
X150019000Y-70631200D03*
%TD*%
%TO.P,D7,1*%
%TO.N,/matrix/row0*%
X180975000Y-48431200D03*
%TO.P,D7,2*%
%TO.N,Net-(D7-Pad2)*%
X180975000Y-51581200D03*
%TD*%
%TO.P,D69,1*%
%TO.N,/matrix/row4*%
X154781000Y-124631000D03*
%TO.P,D69,2*%
%TO.N,Net-(D69-Pad2)*%
X154781000Y-127781000D03*
%TD*%
%TO.P,D56,1*%
%TO.N,/matrix/row3*%
X145256000Y-105581000D03*
%TO.P,D56,2*%
%TO.N,Net-(D56-Pad2)*%
X145256000Y-108731000D03*
%TD*%
%TO.P,D39,1*%
%TO.N,/matrix/row2*%
X140494000Y-86531200D03*
%TO.P,D39,2*%
%TO.N,Net-(D39-Pad2)*%
X140494000Y-89681200D03*
%TD*%
%TO.P,D22,1*%
%TO.N,/matrix/row1*%
X130969000Y-67481200D03*
%TO.P,D22,2*%
%TO.N,Net-(D22-Pad2)*%
X130969000Y-70631200D03*
%TD*%
%TO.P,D6,1*%
%TO.N,/matrix/row0*%
X161925000Y-48431200D03*
%TO.P,D6,2*%
%TO.N,Net-(D6-Pad2)*%
X161925000Y-51581200D03*
%TD*%
%TO.P,D68,1*%
%TO.N,/matrix/row4*%
X135731000Y-124631000D03*
%TO.P,D68,2*%
%TO.N,Net-(D68-Pad2)*%
X135731000Y-127781000D03*
%TD*%
%TO.P,D55,1*%
%TO.N,/matrix/row3*%
X126206000Y-105581000D03*
%TO.P,D55,2*%
%TO.N,Net-(D55-Pad2)*%
X126206000Y-108731000D03*
%TD*%
%TO.P,D38,1*%
%TO.N,/matrix/row2*%
X121444000Y-86531200D03*
%TO.P,D38,2*%
%TO.N,Net-(D38-Pad2)*%
X121444000Y-89681200D03*
%TD*%
%TO.P,D21,1*%
%TO.N,/matrix/row1*%
X111919000Y-67481200D03*
%TO.P,D21,2*%
%TO.N,Net-(D21-Pad2)*%
X111919000Y-70631200D03*
%TD*%
%TO.P,D5,1*%
%TO.N,/matrix/row0*%
X133350000Y-48431200D03*
%TO.P,D5,2*%
%TO.N,Net-(D5-Pad2)*%
X133350000Y-51581200D03*
%TD*%
%TO.P,D67,1*%
%TO.N,/matrix/row4*%
X116681000Y-124631000D03*
%TO.P,D67,2*%
%TO.N,Net-(D67-Pad2)*%
X116681000Y-127781000D03*
%TD*%
%TO.P,D54,1*%
%TO.N,/matrix/row3*%
X107156000Y-105581000D03*
%TO.P,D54,2*%
%TO.N,Net-(D54-Pad2)*%
X107156000Y-108731000D03*
%TD*%
%TO.P,D37,1*%
%TO.N,/matrix/row2*%
X102394000Y-86531200D03*
%TO.P,D37,2*%
%TO.N,Net-(D37-Pad2)*%
X102394000Y-89681200D03*
%TD*%
%TO.P,D20,1*%
%TO.N,/matrix/row1*%
X92868800Y-67481200D03*
%TO.P,D20,2*%
%TO.N,Net-(D20-Pad2)*%
X92868800Y-70631200D03*
%TD*%
%TO.P,D4,1*%
%TO.N,/matrix/row0*%
X114300000Y-48431200D03*
%TO.P,D4,2*%
%TO.N,Net-(D4-Pad2)*%
X114300000Y-51581200D03*
%TD*%
%TO.P,D79,1*%
%TO.N,/matrix/row5*%
X85725000Y-141300000D03*
%TO.P,D79,2*%
%TO.N,Net-(D79-Pad2)*%
X85725000Y-144450000D03*
%TD*%
%TO.P,D66,1*%
%TO.N,/matrix/row4*%
X97631200Y-124631000D03*
%TO.P,D66,2*%
%TO.N,Net-(D66-Pad2)*%
X97631200Y-127781000D03*
%TD*%
%TO.P,D53,1*%
%TO.N,/matrix/row3*%
X88106200Y-105581000D03*
%TO.P,D53,2*%
%TO.N,Net-(D53-Pad2)*%
X88106200Y-108731000D03*
%TD*%
%TO.P,D36,1*%
%TO.N,/matrix/row2*%
X83343800Y-86531200D03*
%TO.P,D36,2*%
%TO.N,Net-(D36-Pad2)*%
X83343800Y-89681200D03*
%TD*%
%TO.P,D19,1*%
%TO.N,/matrix/row1*%
X73818800Y-67481200D03*
%TO.P,D19,2*%
%TO.N,Net-(D19-Pad2)*%
X73818800Y-70631200D03*
%TD*%
%TO.P,D3,1*%
%TO.N,/matrix/row0*%
X95250000Y-48431200D03*
%TO.P,D3,2*%
%TO.N,Net-(D3-Pad2)*%
X95250000Y-51581200D03*
%TD*%
%TO.P,D78,1*%
%TO.N,/matrix/row5*%
X64293800Y-141300000D03*
%TO.P,D78,2*%
%TO.N,Net-(D78-Pad2)*%
X64293800Y-144450000D03*
%TD*%
%TO.P,D65,1*%
%TO.N,/matrix/row4*%
X78581200Y-124631000D03*
%TO.P,D65,2*%
%TO.N,Net-(D65-Pad2)*%
X78581200Y-127781000D03*
%TD*%
%TO.P,D52,1*%
%TO.N,/matrix/row3*%
X69056200Y-103200000D03*
%TO.P,D52,2*%
%TO.N,Net-(D52-Pad2)*%
X69056200Y-106350000D03*
%TD*%
%TO.P,D35,1*%
%TO.N,/matrix/row2*%
X64293800Y-86531200D03*
%TO.P,D35,2*%
%TO.N,Net-(D35-Pad2)*%
X64293800Y-89681200D03*
%TD*%
%TO.P,D18,1*%
%TO.N,/matrix/row1*%
X54768800Y-67481200D03*
%TO.P,D18,2*%
%TO.N,Net-(D18-Pad2)*%
X54768800Y-70631200D03*
%TD*%
%TO.P,D2,1*%
%TO.N,/matrix/row0*%
X76200000Y-48431200D03*
%TO.P,D2,2*%
%TO.N,Net-(D2-Pad2)*%
X76200000Y-51581200D03*
%TD*%
%TO.P,D77,1*%
%TO.N,/matrix/row5*%
X38100000Y-141300000D03*
%TO.P,D77,2*%
%TO.N,Net-(D77-Pad2)*%
X38100000Y-144450000D03*
%TD*%
%TO.P,D64,1*%
%TO.N,/matrix/row4*%
X38100000Y-124631000D03*
%TO.P,D64,2*%
%TO.N,Net-(D64-Pad2)*%
X38100000Y-127781000D03*
%TD*%
%TO.P,D51,1*%
%TO.N,/matrix/row3*%
X38100000Y-105581000D03*
%TO.P,D51,2*%
%TO.N,Net-(D51-Pad2)*%
X38100000Y-108731000D03*
%TD*%
%TO.P,D34,1*%
%TO.N,/matrix/row2*%
X38100000Y-86531200D03*
%TO.P,D34,2*%
%TO.N,Net-(D34-Pad2)*%
X38100000Y-89681200D03*
%TD*%
%TO.P,D17,1*%
%TO.N,/matrix/row1*%
X38100000Y-67481200D03*
%TO.P,D17,2*%
%TO.N,Net-(D17-Pad2)*%
X38100000Y-70631200D03*
%TD*%
%TO.P,D1,1*%
%TO.N,/matrix/row0*%
X38100000Y-48431200D03*
%TO.P,D1,2*%
%TO.N,Net-(D1-Pad2)*%
X38100000Y-51581200D03*
%TD*%
%TO.P,C8,2*%
%TO.N,Net-(C8-Pad2)*%
%TA.AperFunction,SMDPad,CuDef*%
G36*
G01*
X368643999Y-102844000D02*
X369544001Y-102844000D01*
G75*
G02*
X369794000Y-103093999I0J-249999D01*
G01*
X369794000Y-103744001D01*
G75*
G02*
X369544001Y-103994000I-249999J0D01*
G01*
X368643999Y-103994000D01*
G75*
G02*
X368394000Y-103744001I0J249999D01*
G01*
X368394000Y-103093999D01*
G75*
G02*
X368643999Y-102844000I249999J0D01*
G01*
G37*
%TD.AperFunction*%
%TO.P,C8,1*%
%TO.N,GND*%
%TA.AperFunction,SMDPad,CuDef*%
G36*
G01*
X368643999Y-100794000D02*
X369544001Y-100794000D01*
G75*
G02*
X369794000Y-101043999I0J-249999D01*
G01*
X369794000Y-101694001D01*
G75*
G02*
X369544001Y-101944000I-249999J0D01*
G01*
X368643999Y-101944000D01*
G75*
G02*
X368394000Y-101694001I0J249999D01*
G01*
X368394000Y-101043999D01*
G75*
G02*
X368643999Y-100794000I249999J0D01*
G01*
G37*
%TD.AperFunction*%
%TD*%
%TO.P,C7,2*%
%TO.N,GND*%
%TA.AperFunction,SMDPad,CuDef*%
G36*
G01*
X378168999Y-105225000D02*
X379069001Y-105225000D01*
G75*
G02*
X379319000Y-105474999I0J-249999D01*
G01*
X379319000Y-106125001D01*
G75*
G02*
X379069001Y-106375000I-249999J0D01*
G01*
X378168999Y-106375000D01*
G75*
G02*
X377919000Y-106125001I0J249999D01*
G01*
X377919000Y-105474999D01*
G75*
G02*
X378168999Y-105225000I249999J0D01*
G01*
G37*
%TD.AperFunction*%
%TO.P,C7,1*%
%TO.N,Net-(C7-Pad1)*%
%TA.AperFunction,SMDPad,CuDef*%
G36*
G01*
X378168999Y-103175000D02*
X379069001Y-103175000D01*
G75*
G02*
X379319000Y-103424999I0J-249999D01*
G01*
X379319000Y-104075001D01*
G75*
G02*
X379069001Y-104325000I-249999J0D01*
G01*
X378168999Y-104325000D01*
G75*
G02*
X377919000Y-104075001I0J249999D01*
G01*
X377919000Y-103424999D01*
G75*
G02*
X378168999Y-103175000I249999J0D01*
G01*
G37*
%TD.AperFunction*%
%TD*%
%TO.P,C6,2*%
%TO.N,GND*%
%TA.AperFunction,SMDPad,CuDef*%
G36*
G01*
X376688000Y-109988001D02*
X376688000Y-109087999D01*
G75*
G02*
X376937999Y-108838000I249999J0D01*
G01*
X377588001Y-108838000D01*
G75*
G02*
X377838000Y-109087999I0J-249999D01*
G01*
X377838000Y-109988001D01*
G75*
G02*
X377588001Y-110238000I-249999J0D01*
G01*
X376937999Y-110238000D01*
G75*
G02*
X376688000Y-109988001I0J249999D01*
G01*
G37*
%TD.AperFunction*%
%TO.P,C6,1*%
%TO.N,Net-(C6-Pad1)*%
%TA.AperFunction,SMDPad,CuDef*%
G36*
G01*
X374638000Y-109988001D02*
X374638000Y-109087999D01*
G75*
G02*
X374887999Y-108838000I249999J0D01*
G01*
X375538001Y-108838000D01*
G75*
G02*
X375788000Y-109087999I0J-249999D01*
G01*
X375788000Y-109988001D01*
G75*
G02*
X375538001Y-110238000I-249999J0D01*
G01*
X374887999Y-110238000D01*
G75*
G02*
X374638000Y-109988001I0J249999D01*
G01*
G37*
%TD.AperFunction*%
%TD*%
D20*
%TO.N,GND*%
X376255200Y-99540300D03*
%TO.N,VCC*%
X358512200Y-107071800D03*
X363333400Y-104221600D03*
X350968100Y-107078300D03*
%TO.N,Net-(C7-Pad1)*%
X372974800Y-99892300D03*
X355530400Y-95752700D03*
%TO.N,Net-(C8-Pad2)*%
X366562500Y-99813300D03*
X351492600Y-99690400D03*
%TO.N,/matrix/row1*%
X338962900Y-67492500D03*
X321699100Y-67292700D03*
X324683700Y-67492500D03*
%TO.N,/matrix/row2*%
X342363800Y-90694600D03*
X294280300Y-85698900D03*
X326701100Y-95162200D03*
X360966100Y-88970800D03*
%TO.N,Net-(J1-PadA7)*%
X213006800Y-23685800D03*
%TO.N,Net-(J1-PadA6)*%
X215400300Y-26580700D03*
%TO.N,Net-(J1-PadA5)*%
X358484200Y-78680900D03*
%TO.N,Net-(J1-PadB5)*%
X210312300Y-26064600D03*
%TO.N,/matrix/col0*%
X358568700Y-103274000D03*
%TO.N,/matrix/col1*%
X361863100Y-102993700D03*
X91053100Y-100360900D03*
%TO.N,/matrix/col2*%
X356500700Y-103909700D03*
%TO.N,/matrix/col3*%
X357170200Y-100592800D03*
%TO.N,/matrix/col4*%
X358895700Y-99087900D03*
%TO.N,/matrix/col5*%
X357673300Y-98595100D03*
X157573100Y-92543100D03*
X153574600Y-87926800D03*
%TO.N,/matrix/col6*%
X356524800Y-98807800D03*
X178378000Y-93353000D03*
%TO.N,/col7*%
X345694200Y-104160300D03*
%TO.N,/col9*%
X344697300Y-104607100D03*
%TO.N,/col10*%
X343918500Y-105243100D03*
X230893600Y-51776400D03*
%TO.N,/col11*%
X253052900Y-51760200D03*
X345164700Y-98462800D03*
%TO.N,/col12*%
X342432200Y-106091400D03*
X269083300Y-51783200D03*
%TO.N,/col13*%
X356530800Y-95674500D03*
X289186100Y-51786800D03*
%TO.N,/col15*%
X342452100Y-107168500D03*
%TO.N,/col16*%
X366356400Y-103896900D03*
%TO.N,/col17*%
X352508700Y-107168500D03*
%TO.N,/col14*%
X351260100Y-90329400D03*
%TO.N,Net-(R2-Pad1)*%
X353655300Y-96733900D03*
X374206000Y-114297500D03*
%TO.N,Net-(R4-Pad1)*%
X376463700Y-101348900D03*
X350841300Y-101367700D03*
%TO.N,Net-(R5-Pad1)*%
X376966900Y-102260500D03*
X347733600Y-101818000D03*
%TD*%
D21*
%TO.N,GND*%
X376255200Y-99540300D02*
X375738400Y-100057100D01*
X375738400Y-100057100D02*
X375738400Y-102057700D01*
X375738400Y-102057700D02*
X376666500Y-102985800D01*
X376666500Y-102985800D02*
X377543200Y-102985800D01*
X377543200Y-102985800D02*
X377709100Y-102819900D01*
X377709100Y-102819900D02*
X379290500Y-102819900D01*
X379290500Y-102819900D02*
X380138700Y-103668100D01*
X380138700Y-103668100D02*
X380138700Y-103750000D01*
X377263000Y-109538000D02*
X376189900Y-110611100D01*
X376189900Y-110611100D02*
X373331200Y-110611100D01*
X373331200Y-110611100D02*
X367792700Y-105072600D01*
X367792700Y-105072600D02*
X365822400Y-105072600D01*
X365822400Y-105072600D02*
X364069700Y-103319900D01*
X364069700Y-103319900D02*
X364069700Y-98663500D01*
X364069700Y-98663500D02*
X361418200Y-96012000D01*
X361418200Y-96012000D02*
X360506000Y-96012000D01*
X377412700Y-107006300D02*
X377263000Y-107156000D01*
X377263000Y-107156000D02*
X377263000Y-109538000D01*
X373856000Y-97293100D02*
X374113600Y-97293100D01*
X374113600Y-97293100D02*
X376255200Y-99434700D01*
X376255200Y-99434700D02*
X376255200Y-99540300D01*
X351370300Y-100857200D02*
X351606000Y-101092900D01*
X351606000Y-101092900D02*
X351606000Y-104636700D01*
X350181300Y-100812000D02*
X350351000Y-100642300D01*
X350351000Y-100642300D02*
X351155400Y-100642300D01*
X351155400Y-100642300D02*
X351370300Y-100857200D01*
X351370300Y-100857200D02*
X354963100Y-97264400D01*
X354963100Y-97264400D02*
X354963100Y-96998500D01*
X354963100Y-96998500D02*
X353351900Y-95387300D01*
X353351900Y-95387300D02*
X353206000Y-95387300D01*
X360506000Y-96012000D02*
X358583200Y-96012000D01*
X358583200Y-96012000D02*
X357596700Y-96998500D01*
X357596700Y-96998500D02*
X354963100Y-96998500D01*
X353206000Y-94312000D02*
X353206000Y-95387300D01*
X349106000Y-100812000D02*
X350181300Y-100812000D01*
X373856000Y-97293100D02*
X370919300Y-97293100D01*
X370919300Y-97293100D02*
X369556200Y-98656200D01*
X369556200Y-98656200D02*
X369094000Y-98656200D01*
X373856000Y-96606200D02*
X373856000Y-97293100D01*
X369094000Y-101369000D02*
X369094000Y-98656200D01*
X358006000Y-104636700D02*
X351606000Y-104636700D01*
X351606000Y-105712000D02*
X351606000Y-104636700D01*
X358006000Y-105712000D02*
X358006000Y-104636700D01*
X377412700Y-107006300D02*
X378619000Y-105800000D01*
X375981300Y-105575000D02*
X377412700Y-107006300D01*
X374956000Y-105575000D02*
X375981300Y-105575000D01*
X378619000Y-105800000D02*
X380138700Y-104280300D01*
X380138700Y-104280300D02*
X380138700Y-103750000D01*
X380138700Y-103750000D02*
X381000000Y-103750000D01*
%TO.N,VCC*%
X361581300Y-96812000D02*
X363333400Y-98564100D01*
X363333400Y-98564100D02*
X363333400Y-104221600D01*
X358806000Y-105712000D02*
X358806000Y-106787300D01*
X358806000Y-106787300D02*
X358796700Y-106787300D01*
X358796700Y-106787300D02*
X358512200Y-107071800D01*
X352406000Y-94312000D02*
X352406000Y-93236700D01*
X349106000Y-103212000D02*
X348030700Y-103212000D01*
X348030700Y-103212000D02*
X345272700Y-105970000D01*
X345272700Y-105970000D02*
X343599400Y-105970000D01*
X343599400Y-105970000D02*
X343161900Y-105532500D01*
X343161900Y-105532500D02*
X343161900Y-99399800D01*
X343161900Y-99399800D02*
X349325000Y-93236700D01*
X349325000Y-93236700D02*
X352406000Y-93236700D01*
X349531100Y-103212000D02*
X349106000Y-103212000D01*
X363333400Y-104221600D02*
X363333400Y-104802400D01*
X363333400Y-104802400D02*
X369094000Y-110563000D01*
X360506000Y-96812000D02*
X361581300Y-96812000D01*
X349531100Y-103212000D02*
X350181300Y-103212000D01*
X350806000Y-105712000D02*
X350806000Y-106787300D01*
X350806000Y-106787300D02*
X350968100Y-106949400D01*
X350968100Y-106949400D02*
X350968100Y-107078300D01*
X350806000Y-105712000D02*
X350806000Y-104636700D01*
X350181300Y-103212000D02*
X350181300Y-104012000D01*
X350181300Y-104012000D02*
X350806000Y-104636700D01*
%TO.N,Net-(C7-Pad1)*%
X354806000Y-94312000D02*
X354806000Y-95387300D01*
X355530400Y-95752700D02*
X355165000Y-95387300D01*
X355165000Y-95387300D02*
X354806000Y-95387300D01*
X374956000Y-103512300D02*
X378381300Y-103512300D01*
X378381300Y-103512300D02*
X378619000Y-103750000D01*
X374956000Y-103512300D02*
X374956000Y-103049700D01*
X374956000Y-103975000D02*
X374956000Y-103512300D01*
X372974800Y-99892300D02*
X372974800Y-101068500D01*
X372974800Y-101068500D02*
X374956000Y-103049700D01*
%TO.N,Net-(C8-Pad2)*%
X349106000Y-100012000D02*
X351171000Y-100012000D01*
X351171000Y-100012000D02*
X351492600Y-99690400D01*
X369094000Y-103419000D02*
X368848700Y-103419000D01*
X368848700Y-103419000D02*
X366562500Y-101132800D01*
X366562500Y-101132800D02*
X366562500Y-99813300D01*
%TO.N,/matrix/row0*%
X323611300Y-52506600D02*
X327686700Y-48431200D01*
X301882600Y-50423300D02*
X303965900Y-52506600D01*
X303965900Y-52506600D02*
X323611300Y-52506600D01*
X323611300Y-52506600D02*
X323611300Y-89467400D01*
X323611300Y-89467400D02*
X342037800Y-107893900D01*
X342037800Y-107893900D02*
X352899400Y-107893900D01*
X352899400Y-107893900D02*
X354006000Y-106787300D01*
X354006000Y-105712000D02*
X354006000Y-106787300D01*
X328149400Y-48431200D02*
X328149400Y-37294300D01*
X328149400Y-37294300D02*
X333876200Y-31567500D01*
X333876200Y-31567500D02*
X338876500Y-31567500D01*
X338876500Y-31567500D02*
X347662000Y-40353000D01*
X347662000Y-40353000D02*
X347662000Y-48431200D01*
X328149400Y-48431200D02*
X327686700Y-48431200D01*
X328612000Y-48431200D02*
X328149400Y-48431200D01*
X301882600Y-50423300D02*
X303874700Y-48431200D01*
X283307400Y-50827900D02*
X285029000Y-52549500D01*
X285029000Y-52549500D02*
X299756400Y-52549500D01*
X299756400Y-52549500D02*
X301882600Y-50423300D01*
X304800000Y-48431200D02*
X303874700Y-48431200D01*
X284824700Y-48431200D02*
X283307400Y-49948500D01*
X283307400Y-49948500D02*
X283307400Y-50827900D01*
X283307400Y-50827900D02*
X282428000Y-50827900D01*
X282428000Y-50827900D02*
X280738400Y-52517500D01*
X280738400Y-52517500D02*
X265893300Y-52517500D01*
X265893300Y-52517500D02*
X263790900Y-50415000D01*
X347662000Y-48431200D02*
X347662000Y-49356500D01*
X347662000Y-49356500D02*
X346729000Y-50289500D01*
X346729000Y-50289500D02*
X346729000Y-52313200D01*
X346729000Y-52313200D02*
X352737600Y-58321800D01*
X352737600Y-58321800D02*
X357873900Y-58321800D01*
X357873900Y-58321800D02*
X366712000Y-49483700D01*
X366712000Y-49483700D02*
X366712000Y-48431200D01*
X111393400Y-50412500D02*
X113374700Y-48431200D01*
X92343400Y-50412500D02*
X94437400Y-52506600D01*
X94437400Y-52506600D02*
X109299300Y-52506600D01*
X109299300Y-52506600D02*
X111393400Y-50412500D01*
X111393400Y-50412500D02*
X113487400Y-52506600D01*
X113487400Y-52506600D02*
X128349300Y-52506600D01*
X128349300Y-52506600D02*
X130443400Y-50412500D01*
X130443400Y-50412500D02*
X132424700Y-48431200D01*
X160999700Y-52368700D02*
X157568000Y-52368700D01*
X157568000Y-52368700D02*
X157430100Y-52506600D01*
X157430100Y-52506600D02*
X132537400Y-52506600D01*
X132537400Y-52506600D02*
X130443400Y-50412500D01*
X92343400Y-50412500D02*
X94324700Y-48431200D01*
X75252500Y-52506400D02*
X75252700Y-52506600D01*
X75252700Y-52506600D02*
X90249300Y-52506600D01*
X90249300Y-52506600D02*
X92343400Y-50412500D01*
X114300000Y-48431200D02*
X113374700Y-48431200D01*
X95250000Y-48431200D02*
X94324700Y-48431200D01*
X75252500Y-52506400D02*
X57275400Y-52506400D01*
X57275400Y-52506400D02*
X51512200Y-58269600D01*
X51512200Y-58269600D02*
X43123200Y-58269600D01*
X43123200Y-58269600D02*
X37174600Y-52321000D01*
X37174600Y-52321000D02*
X37174600Y-50281900D01*
X37174600Y-50281900D02*
X38100000Y-49356500D01*
X76200000Y-49356500D02*
X75252500Y-50304000D01*
X75252500Y-50304000D02*
X75252500Y-52506400D01*
X76200000Y-48431200D02*
X76200000Y-49356500D01*
X38100000Y-48431200D02*
X38100000Y-49356500D01*
X244743400Y-50412500D02*
X246724700Y-48431200D01*
X217767900Y-52000900D02*
X218273600Y-52506600D01*
X218273600Y-52506600D02*
X242649300Y-52506600D01*
X242649300Y-52506600D02*
X244743400Y-50412500D01*
X244743400Y-50412500D02*
X246837400Y-52506600D01*
X246837400Y-52506600D02*
X261699300Y-52506600D01*
X261699300Y-52506600D02*
X263790900Y-50415000D01*
X263790900Y-50415000D02*
X265774700Y-48431200D01*
X217767900Y-52000900D02*
X218149700Y-51619100D01*
X218149700Y-51619100D02*
X218149700Y-48431200D01*
X198193500Y-51457700D02*
X199242400Y-52506600D01*
X199242400Y-52506600D02*
X217262200Y-52506600D01*
X217262200Y-52506600D02*
X217767900Y-52000900D01*
X247650000Y-48431200D02*
X246724700Y-48431200D01*
X199099700Y-48431200D02*
X198193500Y-49337400D01*
X198193500Y-49337400D02*
X198193500Y-51457700D01*
X178068400Y-50412500D02*
X180162400Y-52506600D01*
X180162400Y-52506600D02*
X195024300Y-52506600D01*
X195024300Y-52506600D02*
X196073200Y-51457700D01*
X196073200Y-51457700D02*
X198193500Y-51457700D01*
X178068400Y-50412500D02*
X180049700Y-48431200D01*
X160999700Y-52368700D02*
X161137600Y-52506600D01*
X161137600Y-52506600D02*
X175974300Y-52506600D01*
X175974300Y-52506600D02*
X178068400Y-50412500D01*
X200025000Y-48431200D02*
X199099700Y-48431200D01*
X180975000Y-48431200D02*
X180049700Y-48431200D01*
X160999700Y-48431200D02*
X160999700Y-52368700D01*
X133350000Y-48431200D02*
X132424700Y-48431200D01*
X266700000Y-48431200D02*
X265774700Y-48431200D01*
X285750000Y-48431200D02*
X284824700Y-48431200D01*
X219075000Y-48431200D02*
X218149700Y-48431200D01*
X161925000Y-48431200D02*
X160999700Y-48431200D01*
%TO.N,Net-(D1-Pad2)*%
X38100000Y-51581200D02*
X38100000Y-50655900D01*
X38100000Y-50655900D02*
X41433800Y-47322100D01*
X41433800Y-47322100D02*
X41433800Y-35560000D01*
%TO.N,/matrix/row1*%
X344355700Y-67492500D02*
X344355700Y-71414500D01*
X344355700Y-71414500D02*
X344497800Y-71556600D01*
X344497800Y-71556600D02*
X359330300Y-71556600D01*
X359330300Y-71556600D02*
X363405700Y-67481200D01*
X344355700Y-67481200D02*
X344355700Y-67492500D01*
X344355700Y-67492500D02*
X338962900Y-67492500D01*
X321699100Y-67292700D02*
X321699100Y-88195600D01*
X321699100Y-88195600D02*
X341849100Y-108345600D01*
X341849100Y-108345600D02*
X353247700Y-108345600D01*
X353247700Y-108345600D02*
X354806000Y-106787300D01*
X283137700Y-67481200D02*
X295214800Y-55404100D01*
X295214800Y-55404100D02*
X309810500Y-55404100D01*
X309810500Y-55404100D02*
X321699100Y-67292700D01*
X326231000Y-67481200D02*
X325305700Y-67481200D01*
X324683700Y-67492500D02*
X325294400Y-67492500D01*
X325294400Y-67492500D02*
X325305700Y-67481200D01*
X364331000Y-67481200D02*
X363405700Y-67481200D01*
X345281000Y-67481200D02*
X344355700Y-67481200D01*
X354806000Y-105712000D02*
X354806000Y-106787300D01*
X283137700Y-67481200D02*
X282906400Y-67481200D01*
X283369000Y-67481200D02*
X283137700Y-67481200D01*
X242362400Y-69462500D02*
X244343700Y-67481200D01*
X223312400Y-69462500D02*
X225406400Y-71556600D01*
X225406400Y-71556600D02*
X240268300Y-71556600D01*
X240268300Y-71556600D02*
X242362400Y-69462500D01*
X242362400Y-69462500D02*
X244500800Y-71601000D01*
X244500800Y-71601000D02*
X263207400Y-71601000D01*
X263207400Y-71601000D02*
X263393700Y-71414700D01*
X263393700Y-71414700D02*
X263568700Y-71589700D01*
X263568700Y-71589700D02*
X278797900Y-71589700D01*
X278797900Y-71589700D02*
X282906400Y-67481200D01*
X263393700Y-67481200D02*
X263393700Y-71414700D01*
X223312400Y-69462500D02*
X225293700Y-67481200D01*
X204261500Y-69463400D02*
X206354600Y-71556600D01*
X206354600Y-71556600D02*
X221218300Y-71556600D01*
X221218300Y-71556600D02*
X223312400Y-69462500D01*
X245269000Y-67481200D02*
X244343700Y-67481200D01*
X204261500Y-69463400D02*
X206243700Y-67481200D01*
X187193600Y-71371000D02*
X187382700Y-71560100D01*
X187382700Y-71560100D02*
X202164800Y-71560100D01*
X202164800Y-71560100D02*
X204261500Y-69463400D01*
X226219000Y-67481200D02*
X225293700Y-67481200D01*
X168143600Y-71371000D02*
X168332700Y-71560100D01*
X168332700Y-71560100D02*
X187004500Y-71560100D01*
X187004500Y-71560100D02*
X187193600Y-71371000D01*
X169069000Y-68406500D02*
X168143600Y-69331900D01*
X168143600Y-69331900D02*
X168143600Y-71371000D01*
X168143600Y-71371000D02*
X167958000Y-71556600D01*
X167958000Y-71556600D02*
X149195200Y-71556600D01*
X149195200Y-71556600D02*
X149093700Y-71455100D01*
X149093700Y-71455100D02*
X149093700Y-69331800D01*
X149093700Y-69331800D02*
X150019000Y-68406500D01*
X150019000Y-67481200D02*
X150019000Y-68406500D01*
X169069000Y-67481200D02*
X169069000Y-68406500D01*
X188119000Y-68406500D02*
X187193600Y-69331900D01*
X187193600Y-69331900D02*
X187193600Y-71371000D01*
X130043700Y-63970100D02*
X138633800Y-55380000D01*
X138633800Y-55380000D02*
X143662300Y-55380000D01*
X143662300Y-55380000D02*
X150019000Y-61736700D01*
X150019000Y-61736700D02*
X150019000Y-67481200D01*
X207169000Y-67481200D02*
X206243700Y-67481200D01*
X188119000Y-67481200D02*
X188119000Y-68406500D01*
X130043700Y-67481200D02*
X130043700Y-63970100D01*
X130043700Y-63970100D02*
X126885300Y-63970100D01*
X126885300Y-63970100D02*
X120826800Y-57911600D01*
X120826800Y-57911600D02*
X115744100Y-57911600D01*
X115744100Y-57911600D02*
X111919000Y-61736700D01*
X111919000Y-61736700D02*
X111919000Y-67481200D01*
X92406200Y-67481200D02*
X92406200Y-63512100D01*
X92406200Y-63512100D02*
X100515100Y-55403200D01*
X100515100Y-55403200D02*
X105585500Y-55403200D01*
X105585500Y-55403200D02*
X111919000Y-61736700D01*
X92406200Y-67481200D02*
X91943500Y-67481200D01*
X92868800Y-67481200D02*
X92406200Y-67481200D01*
X264319000Y-67481200D02*
X263393700Y-67481200D01*
X130969000Y-67481200D02*
X130043700Y-67481200D01*
X71493200Y-69979700D02*
X73072400Y-71558900D01*
X73072400Y-71558900D02*
X87865800Y-71558900D01*
X87865800Y-71558900D02*
X91943500Y-67481200D01*
X72893500Y-67481200D02*
X71493200Y-68881500D01*
X71493200Y-68881500D02*
X71493200Y-69979700D01*
X71493200Y-69979700D02*
X69839800Y-71633100D01*
X69839800Y-71633100D02*
X54105300Y-71633100D01*
X54105300Y-71633100D02*
X52618600Y-70146400D01*
X73818800Y-67481200D02*
X72893500Y-67481200D01*
X53843500Y-67481200D02*
X52618600Y-68706100D01*
X52618600Y-68706100D02*
X52618600Y-70146400D01*
X52618600Y-70146400D02*
X51208400Y-71556600D01*
X51208400Y-71556600D02*
X37290300Y-71556600D01*
X37290300Y-71556600D02*
X37174600Y-71440900D01*
X37174600Y-71440900D02*
X37174600Y-69331900D01*
X37174600Y-69331900D02*
X38100000Y-68406500D01*
X54768800Y-67481200D02*
X53843500Y-67481200D01*
X38100000Y-67481200D02*
X38100000Y-68406500D01*
%TO.N,Net-(D2-Pad2)*%
X76200000Y-51581200D02*
X76200000Y-50655900D01*
X76200000Y-50655900D02*
X79533800Y-47322100D01*
X79533800Y-47322100D02*
X79533800Y-35560000D01*
%TO.N,/matrix/row2*%
X326701100Y-95162200D02*
X340370600Y-108831700D01*
X340370600Y-108831700D02*
X353561600Y-108831700D01*
X353561600Y-108831700D02*
X355606000Y-106787300D01*
X178594000Y-86531200D02*
X177668700Y-86531200D01*
X170170200Y-76979300D02*
X170170200Y-75305400D01*
X170170200Y-75305400D02*
X171030300Y-74445300D01*
X171030300Y-74445300D02*
X191242300Y-74445300D01*
X191242300Y-74445300D02*
X197644000Y-80847000D01*
X177668700Y-86531200D02*
X177668700Y-86149800D01*
X177668700Y-86149800D02*
X170170200Y-78651300D01*
X170170200Y-78651300D02*
X170170200Y-76979300D01*
X159544000Y-86531200D02*
X159544000Y-82089300D01*
X159544000Y-82089300D02*
X164654000Y-76979300D01*
X164654000Y-76979300D02*
X170170200Y-76979300D01*
X138343800Y-89270500D02*
X139679900Y-90606600D01*
X139679900Y-90606600D02*
X143663600Y-90606600D01*
X143663600Y-90606600D02*
X147739000Y-86531200D01*
X147739000Y-86531200D02*
X159544000Y-86531200D01*
X139568700Y-86531200D02*
X138343800Y-87756100D01*
X138343800Y-87756100D02*
X138343800Y-89270500D01*
X119293800Y-89206200D02*
X120694200Y-90606600D01*
X120694200Y-90606600D02*
X137007700Y-90606600D01*
X137007700Y-90606600D02*
X138343800Y-89270500D01*
X140494000Y-86531200D02*
X139568700Y-86531200D01*
X119293800Y-89206200D02*
X119229400Y-89270600D01*
X119229400Y-89270600D02*
X117779300Y-89270600D01*
X117779300Y-89270600D02*
X116443300Y-90606600D01*
X116443300Y-90606600D02*
X101635400Y-90606600D01*
X101635400Y-90606600D02*
X100439700Y-89410800D01*
X120518700Y-86531200D02*
X119293800Y-87756100D01*
X119293800Y-87756100D02*
X119293800Y-89206200D01*
X100439700Y-89410800D02*
X99217300Y-90633200D01*
X99217300Y-90633200D02*
X82581300Y-90633200D01*
X102394000Y-87456500D02*
X100439700Y-89410800D01*
X121444000Y-86531200D02*
X120518700Y-86531200D01*
X244630400Y-77032900D02*
X253868700Y-86271300D01*
X253868700Y-86271300D02*
X253868700Y-86531200D01*
X235744000Y-80809500D02*
X239556800Y-76996700D01*
X239556800Y-76996700D02*
X244594100Y-76996700D01*
X244594100Y-76996700D02*
X244630400Y-77032900D01*
X244630400Y-77032900D02*
X247256100Y-74407200D01*
X247256100Y-74407200D02*
X267412300Y-74407200D01*
X267412300Y-74407200D02*
X273844000Y-80838900D01*
X235744000Y-80809500D02*
X229353900Y-74419400D01*
X229353900Y-74419400D02*
X223118600Y-74419400D01*
X223118600Y-74419400D02*
X216694000Y-80844000D01*
X235744000Y-86531200D02*
X235744000Y-80809500D01*
X273844000Y-80838900D02*
X277705100Y-76977800D01*
X277705100Y-76977800D02*
X282673100Y-76977800D01*
X282673100Y-76977800D02*
X291968700Y-86273400D01*
X291968700Y-86273400D02*
X291968700Y-86531200D01*
X273844000Y-86531200D02*
X273844000Y-80838900D01*
X254794000Y-86531200D02*
X253868700Y-86531200D01*
X216694000Y-80844000D02*
X210290500Y-74440500D01*
X210290500Y-74440500D02*
X204050500Y-74440500D01*
X204050500Y-74440500D02*
X197644000Y-80847000D01*
X216694000Y-86531200D02*
X216694000Y-80844000D01*
X197644000Y-80847000D02*
X197644000Y-86531200D01*
X326231000Y-86531200D02*
X326231000Y-87456500D01*
X326231000Y-87456500D02*
X325305600Y-88381900D01*
X325305600Y-88381900D02*
X325305600Y-90505000D01*
X325305600Y-90505000D02*
X325495200Y-90694600D01*
X325495200Y-90694600D02*
X342363800Y-90694600D01*
X345281000Y-86531200D02*
X345281000Y-87456500D01*
X345281000Y-87456500D02*
X342363800Y-90373700D01*
X342363800Y-90373700D02*
X342363800Y-90694600D01*
X363405700Y-86531200D02*
X360966100Y-88970800D01*
X292894000Y-86531200D02*
X293819300Y-86531200D01*
X294280300Y-85698900D02*
X293819300Y-86159900D01*
X293819300Y-86159900D02*
X293819300Y-86531200D01*
X292894000Y-86531200D02*
X291968700Y-86531200D01*
X355606000Y-105712000D02*
X355606000Y-106787300D01*
X364331000Y-86531200D02*
X363405700Y-86531200D01*
X38100000Y-86531200D02*
X38100000Y-87456500D01*
X63368400Y-90462800D02*
X68597400Y-95691800D01*
X68597400Y-95691800D02*
X79290200Y-95691800D01*
X79290200Y-95691800D02*
X79968900Y-96370500D01*
X79968900Y-96370500D02*
X81752200Y-96370500D01*
X81752200Y-96370500D02*
X82581300Y-95541400D01*
X82581300Y-95541400D02*
X82581300Y-90633200D01*
X64293800Y-87456500D02*
X63368400Y-88381900D01*
X63368400Y-88381900D02*
X63368400Y-90462800D01*
X38100000Y-87456500D02*
X37174600Y-88381900D01*
X37174600Y-88381900D02*
X37174600Y-90422200D01*
X37174600Y-90422200D02*
X37359000Y-90606600D01*
X37359000Y-90606600D02*
X48156500Y-90606600D01*
X48156500Y-90606600D02*
X53944600Y-96394700D01*
X53944600Y-96394700D02*
X57436500Y-96394700D01*
X57436500Y-96394700D02*
X63368400Y-90462800D01*
X64293800Y-86531200D02*
X64293800Y-87456500D01*
X82581300Y-90633200D02*
X82418500Y-90470400D01*
X82418500Y-90470400D02*
X82418500Y-86531200D01*
X102394000Y-86531200D02*
X102394000Y-87456500D01*
X83343800Y-86531200D02*
X82418500Y-86531200D01*
%TO.N,Net-(D3-Pad2)*%
X95250000Y-51581200D02*
X95250000Y-50655900D01*
X95250000Y-50655900D02*
X98584000Y-47321900D01*
X98584000Y-47321900D02*
X98584000Y-35560000D01*
%TO.N,/matrix/row3*%
X267842600Y-115419100D02*
X272387400Y-119963900D01*
X272387400Y-119963900D02*
X272387400Y-122984700D01*
X272387400Y-122984700D02*
X272196700Y-123175400D01*
X272196700Y-123175400D02*
X271989100Y-123175400D01*
X271989100Y-123175400D02*
X270536600Y-124627900D01*
X270536600Y-124627900D02*
X270536600Y-126223800D01*
X270536600Y-126223800D02*
X270638200Y-126325400D01*
X270638200Y-126325400D02*
X276461900Y-126325400D01*
X276461900Y-126325400D02*
X284662300Y-134525800D01*
X284662300Y-134525800D02*
X293209200Y-134525800D01*
X293209200Y-134525800D02*
X294516400Y-133218600D01*
X294516400Y-133218600D02*
X307045300Y-133218600D01*
X307045300Y-133218600D02*
X308290500Y-134463800D01*
X308290500Y-134463800D02*
X328729500Y-134463800D01*
X328729500Y-134463800D02*
X356406000Y-106787300D01*
X244471400Y-113380200D02*
X240970900Y-109879700D01*
X240970900Y-109879700D02*
X239928100Y-109879700D01*
X239928100Y-109879700D02*
X239580700Y-109532300D01*
X239580700Y-109532300D02*
X239580700Y-107431600D01*
X239580700Y-107431600D02*
X240506000Y-106506300D01*
X225452600Y-114615700D02*
X241089400Y-114615700D01*
X241089400Y-114615700D02*
X241902500Y-115428800D01*
X241902500Y-115428800D02*
X243615200Y-115428800D01*
X243615200Y-115428800D02*
X244471400Y-114572600D01*
X244471400Y-114572600D02*
X244471400Y-113380200D01*
X244471400Y-113380200D02*
X254284500Y-113380200D01*
X254284500Y-113380200D02*
X256871800Y-110792900D01*
X256871800Y-110792900D02*
X261498000Y-115419100D01*
X261498000Y-115419100D02*
X267842600Y-115419100D01*
X258630700Y-105581000D02*
X256871800Y-107339900D01*
X256871800Y-107339900D02*
X256871800Y-110792900D01*
X225452600Y-114615700D02*
X225452600Y-113421100D01*
X225452600Y-113421100D02*
X221911200Y-109879700D01*
X221911200Y-109879700D02*
X220875700Y-109879700D01*
X220875700Y-109879700D02*
X220530700Y-109534700D01*
X220530700Y-109534700D02*
X220530700Y-107431600D01*
X220530700Y-107431600D02*
X221456000Y-106506300D01*
X206402600Y-114615700D02*
X222184600Y-114615700D01*
X222184600Y-114615700D02*
X222988000Y-115419100D01*
X222988000Y-115419100D02*
X224649200Y-115419100D01*
X224649200Y-115419100D02*
X225452600Y-114615700D01*
X240506000Y-105581000D02*
X240506000Y-106506300D01*
X206402600Y-114615700D02*
X206402600Y-113421100D01*
X206402600Y-113421100D02*
X202861200Y-109879700D01*
X202861200Y-109879700D02*
X201825700Y-109879700D01*
X201825700Y-109879700D02*
X201480700Y-109534700D01*
X201480700Y-109534700D02*
X201480700Y-107431600D01*
X201480700Y-107431600D02*
X202406000Y-106506300D01*
X183356000Y-106506300D02*
X182430600Y-107431700D01*
X182430600Y-107431700D02*
X182430600Y-109554800D01*
X182430600Y-109554800D02*
X185387400Y-112511600D01*
X185387400Y-112511600D02*
X201030500Y-112511600D01*
X201030500Y-112511600D02*
X203938000Y-115419100D01*
X203938000Y-115419100D02*
X205599200Y-115419100D01*
X205599200Y-115419100D02*
X206402600Y-114615700D01*
X221456000Y-105581000D02*
X221456000Y-106506300D01*
X267842600Y-115419100D02*
X277680700Y-105581000D01*
X356406000Y-105712000D02*
X356406000Y-106787300D01*
X278606000Y-105581000D02*
X277680700Y-105581000D01*
X183356000Y-105581000D02*
X183356000Y-106506300D01*
X164306000Y-99869500D02*
X170676500Y-93499000D01*
X170676500Y-93499000D02*
X176962500Y-93499000D01*
X176962500Y-93499000D02*
X183356000Y-99892500D01*
X183356000Y-99892500D02*
X183356000Y-105581000D01*
X202406000Y-105581000D02*
X202406000Y-106506300D01*
X164306000Y-99869500D02*
X164306000Y-105581000D01*
X145256000Y-99836700D02*
X151586500Y-93506200D01*
X151586500Y-93506200D02*
X157942700Y-93506200D01*
X157942700Y-93506200D02*
X164306000Y-99869500D01*
X145256000Y-99836700D02*
X145256000Y-105581000D01*
X126206000Y-99901600D02*
X132627600Y-93480000D01*
X132627600Y-93480000D02*
X138899300Y-93480000D01*
X138899300Y-93480000D02*
X145256000Y-99836700D01*
X259556000Y-105581000D02*
X258630700Y-105581000D01*
X126206000Y-99901600D02*
X119796800Y-93492400D01*
X119796800Y-93492400D02*
X113562300Y-93492400D01*
X113562300Y-93492400D02*
X107156000Y-99898700D01*
X126206000Y-105581000D02*
X126206000Y-99901600D01*
X107156000Y-99898700D02*
X107156000Y-105581000D01*
X87643600Y-105581000D02*
X87643600Y-101634000D01*
X87643600Y-101634000D02*
X95796100Y-93481500D01*
X95796100Y-93481500D02*
X100738800Y-93481500D01*
X100738800Y-93481500D02*
X107156000Y-99898700D01*
X87643600Y-105581000D02*
X87180900Y-105581000D01*
X88106200Y-105581000D02*
X87643600Y-105581000D01*
X87180900Y-105581000D02*
X85442900Y-107319000D01*
X85442900Y-107319000D02*
X68313900Y-107319000D01*
X68313900Y-107319000D02*
X68130900Y-107136000D01*
X38100000Y-105581000D02*
X38100000Y-106506300D01*
X68130900Y-107136000D02*
X68130900Y-105050600D01*
X68130900Y-105050600D02*
X69056200Y-104125300D01*
X38100000Y-106506300D02*
X37145200Y-107461100D01*
X37145200Y-107461100D02*
X37145200Y-109445100D01*
X37145200Y-109445100D02*
X37402000Y-109701900D01*
X37402000Y-109701900D02*
X65565000Y-109701900D01*
X65565000Y-109701900D02*
X68130900Y-107136000D01*
X69056200Y-103200000D02*
X69056200Y-104125300D01*
%TO.N,Net-(D4-Pad2)*%
X114300000Y-51581200D02*
X114300000Y-50655900D01*
X114300000Y-50655900D02*
X117634000Y-47321900D01*
X117634000Y-47321900D02*
X117634000Y-35560000D01*
%TO.N,/matrix/row4*%
X247371800Y-126364900D02*
X249105700Y-124631000D01*
X230055700Y-126364900D02*
X247371800Y-126364900D01*
X247371800Y-126364900D02*
X247371800Y-126792700D01*
X247371800Y-126792700D02*
X249285500Y-128706400D01*
X249285500Y-128706400D02*
X268959300Y-128706400D01*
X268959300Y-128706400D02*
X270037300Y-127628400D01*
X270037300Y-127628400D02*
X276853800Y-127628400D01*
X276853800Y-127628400D02*
X284201600Y-134976200D01*
X284201600Y-134976200D02*
X299824800Y-134976200D01*
X299824800Y-134976200D02*
X301132000Y-133669000D01*
X301132000Y-133669000D02*
X306462800Y-133669000D01*
X306462800Y-133669000D02*
X307708000Y-134914200D01*
X307708000Y-134914200D02*
X329207600Y-134914200D01*
X329207600Y-134914200D02*
X340296800Y-123825000D01*
X340296800Y-123825000D02*
X345281000Y-123825000D01*
X270536700Y-122250000D02*
X270037300Y-122749400D01*
X270037300Y-122749400D02*
X270037300Y-127628400D01*
X230055700Y-126364900D02*
X230055700Y-122250000D01*
X209024400Y-126612300D02*
X211122600Y-128710600D01*
X211122600Y-128710600D02*
X223595100Y-128710600D01*
X223595100Y-128710600D02*
X224900400Y-127405300D01*
X224900400Y-127405300D02*
X229015300Y-127405300D01*
X229015300Y-127405300D02*
X230055700Y-126364900D01*
X250031000Y-124631000D02*
X249105700Y-124631000D01*
X209024400Y-126612300D02*
X211005700Y-124631000D01*
X191675300Y-128238500D02*
X192143200Y-128706400D01*
X192143200Y-128706400D02*
X206930300Y-128706400D01*
X206930300Y-128706400D02*
X209024400Y-126612300D01*
X230981000Y-122250000D02*
X230055700Y-122250000D01*
X115755700Y-128588900D02*
X115873200Y-128706400D01*
X115873200Y-128706400D02*
X117426700Y-128706400D01*
X117426700Y-128706400D02*
X118623400Y-127509700D01*
X118623400Y-127509700D02*
X133777600Y-127509700D01*
X115755700Y-124631000D02*
X115755700Y-128588900D01*
X93230100Y-128106800D02*
X99581900Y-134458600D01*
X99581900Y-134458600D02*
X109886000Y-134458600D01*
X109886000Y-134458600D02*
X115755700Y-128588900D01*
X93230100Y-128106800D02*
X92630500Y-128706400D01*
X92630500Y-128706400D02*
X77761000Y-128706400D01*
X77761000Y-128706400D02*
X77655800Y-128601200D01*
X96705900Y-124631000D02*
X93230100Y-128106800D01*
X97631200Y-124631000D02*
X96705900Y-124631000D01*
X77655800Y-128601200D02*
X77655800Y-125093800D01*
X77655800Y-125093800D02*
X78118600Y-124631000D01*
X38100000Y-125556300D02*
X37174600Y-126481700D01*
X37174600Y-126481700D02*
X37174600Y-128524700D01*
X37174600Y-128524700D02*
X40849500Y-132199600D01*
X40849500Y-132199600D02*
X49355900Y-132199600D01*
X49355900Y-132199600D02*
X51648400Y-134492100D01*
X51648400Y-134492100D02*
X65148600Y-134492100D01*
X65148600Y-134492100D02*
X71039500Y-128601200D01*
X71039500Y-128601200D02*
X77655800Y-128601200D01*
X38100000Y-124631000D02*
X38100000Y-125556300D01*
X78581200Y-124631000D02*
X78118600Y-124631000D01*
X345281000Y-123825000D02*
X345281000Y-119194400D01*
X345281000Y-119194400D02*
X357206000Y-107269400D01*
X357206000Y-107269400D02*
X357206000Y-105712000D01*
X271462000Y-122250000D02*
X270536700Y-122250000D01*
X191675300Y-128238500D02*
X191955700Y-127958100D01*
X191955700Y-127958100D02*
X191955700Y-124631000D01*
X170924400Y-126612300D02*
X173018400Y-128706400D01*
X173018400Y-128706400D02*
X190646500Y-128706400D01*
X190646500Y-128706400D02*
X190834000Y-128518900D01*
X190834000Y-128518900D02*
X191394900Y-128518900D01*
X191394900Y-128518900D02*
X191675300Y-128238500D01*
X211931000Y-124631000D02*
X211005700Y-124631000D01*
X151881700Y-126605000D02*
X153855700Y-124631000D01*
X133777600Y-127509700D02*
X134974300Y-128706400D01*
X134974300Y-128706400D02*
X149780300Y-128706400D01*
X149780300Y-128706400D02*
X151881700Y-126605000D01*
X151881700Y-126605000D02*
X154029900Y-128753200D01*
X154029900Y-128753200D02*
X168783500Y-128753200D01*
X168783500Y-128753200D02*
X170924400Y-126612300D01*
X172905700Y-124631000D02*
X170924400Y-126612300D01*
X133777600Y-127509700D02*
X135731000Y-125556300D01*
X154781000Y-124631000D02*
X153855700Y-124631000D01*
X192881000Y-124631000D02*
X191955700Y-124631000D01*
X173831000Y-124631000D02*
X172905700Y-124631000D01*
X135731000Y-124631000D02*
X135731000Y-125556300D01*
X116681000Y-124631000D02*
X115755700Y-124631000D01*
%TO.N,Net-(D5-Pad2)*%
X133350000Y-51581200D02*
X133350000Y-50655900D01*
X133350000Y-50655900D02*
X136684000Y-47321900D01*
X136684000Y-47321900D02*
X136684000Y-35560000D01*
%TO.N,/matrix/row5*%
X154781000Y-136537000D02*
X155706300Y-136537000D01*
X155706300Y-136537000D02*
X160677300Y-131566000D01*
X160677300Y-131566000D02*
X233466800Y-131566000D01*
X233466800Y-131566000D02*
X240819800Y-138919000D01*
X240819800Y-138919000D02*
X245269000Y-138919000D01*
X85725000Y-140374700D02*
X91978600Y-134121100D01*
X91978600Y-134121100D02*
X97542900Y-134121100D01*
X97542900Y-134121100D02*
X99958800Y-136537000D01*
X99958800Y-136537000D02*
X154781000Y-136537000D01*
X358801000Y-134468000D02*
X358954700Y-134468000D01*
X358954700Y-134468000D02*
X363405700Y-138919000D01*
X344818400Y-138919000D02*
X349618000Y-134119400D01*
X349618000Y-134119400D02*
X354102100Y-134119400D01*
X354102100Y-134119400D02*
X354450700Y-134468000D01*
X354450700Y-134468000D02*
X358801000Y-134468000D01*
X358801000Y-134468000D02*
X358801000Y-131697000D01*
X358801000Y-131697000D02*
X358643600Y-131539600D01*
X358643600Y-131539600D02*
X358643600Y-118127400D01*
X358643600Y-118127400D02*
X359430700Y-117340300D01*
X359430700Y-117340300D02*
X359430700Y-103212000D01*
X360506000Y-103212000D02*
X359430700Y-103212000D01*
X364331000Y-138919000D02*
X363405700Y-138919000D01*
X344818400Y-138919000D02*
X344355700Y-138919000D01*
X345281000Y-138919000D02*
X344818400Y-138919000D01*
X326231000Y-138919000D02*
X327156300Y-138919000D01*
X327156300Y-138919000D02*
X327156300Y-138340700D01*
X327156300Y-138340700D02*
X331381300Y-134115700D01*
X331381300Y-134115700D02*
X335048400Y-134115700D01*
X335048400Y-134115700D02*
X336396700Y-135464000D01*
X336396700Y-135464000D02*
X340900700Y-135464000D01*
X340900700Y-135464000D02*
X344355700Y-138919000D01*
X325768400Y-138919000D02*
X326231000Y-138919000D01*
X295275000Y-138919000D02*
X294349700Y-138919000D01*
X273381400Y-138919000D02*
X278162200Y-134138200D01*
X278162200Y-134138200D02*
X282683900Y-134138200D01*
X282683900Y-134138200D02*
X285005500Y-136459800D01*
X285005500Y-136459800D02*
X291890500Y-136459800D01*
X291890500Y-136459800D02*
X294349700Y-138919000D01*
X273381400Y-138919000D02*
X272918700Y-138919000D01*
X273844000Y-138919000D02*
X273381400Y-138919000D01*
X245269000Y-138919000D02*
X246194300Y-138919000D01*
X246194300Y-138919000D02*
X250993900Y-134119400D01*
X250993900Y-134119400D02*
X258852100Y-134119400D01*
X258852100Y-134119400D02*
X260196700Y-135464000D01*
X260196700Y-135464000D02*
X269463700Y-135464000D01*
X269463700Y-135464000D02*
X272918700Y-138919000D01*
X85725000Y-140374700D02*
X79370200Y-140374700D01*
X79370200Y-140374700D02*
X73127600Y-134132100D01*
X73127600Y-134132100D02*
X69376300Y-134132100D01*
X69376300Y-134132100D02*
X64205400Y-139303000D01*
X85725000Y-141300000D02*
X85725000Y-140374700D01*
X64293800Y-140469000D02*
X64205400Y-140380600D01*
X64205400Y-140380600D02*
X64205400Y-139303000D01*
X64205400Y-139303000D02*
X54485900Y-139303000D01*
X54485900Y-139303000D02*
X49324900Y-134142000D01*
X49324900Y-134142000D02*
X45605000Y-134142000D01*
X45605000Y-134142000D02*
X39025300Y-140721700D01*
X39025300Y-140721700D02*
X39025300Y-141300000D01*
X296200300Y-138919000D02*
X296837100Y-138919000D01*
X296837100Y-138919000D02*
X301636700Y-134119400D01*
X301636700Y-134119400D02*
X305732700Y-134119400D01*
X305732700Y-134119400D02*
X307077300Y-135464000D01*
X307077300Y-135464000D02*
X321850700Y-135464000D01*
X321850700Y-135464000D02*
X325305700Y-138919000D01*
X64293800Y-141300000D02*
X64293800Y-140469000D01*
X38100000Y-141300000D02*
X39025300Y-141300000D01*
X325768400Y-138919000D02*
X325305700Y-138919000D01*
X295275000Y-138919000D02*
X296200300Y-138919000D01*
%TO.N,Net-(D6-Pad2)*%
X161925000Y-51581200D02*
X161925000Y-50655900D01*
X161925000Y-50655900D02*
X165259000Y-47321900D01*
X165259000Y-47321900D02*
X165259000Y-35560000D01*
%TO.N,Net-(D7-Pad2)*%
X180975000Y-51581200D02*
X180975000Y-50655900D01*
X180975000Y-50655900D02*
X184309000Y-47321900D01*
X184309000Y-47321900D02*
X184309000Y-35560000D01*
%TO.N,Net-(D8-Pad2)*%
X200025000Y-51581200D02*
X200025000Y-50655900D01*
X200025000Y-50655900D02*
X203359000Y-47321900D01*
X203359000Y-47321900D02*
X203359000Y-35560000D01*
%TO.N,Net-(D9-Pad2)*%
X219075000Y-51581200D02*
X219075000Y-50655900D01*
X219075000Y-50655900D02*
X222409000Y-47321900D01*
X222409000Y-47321900D02*
X222409000Y-35560000D01*
%TO.N,Net-(D10-Pad2)*%
X247650000Y-51581200D02*
X247650000Y-50655900D01*
X247650000Y-50655900D02*
X250984000Y-47321900D01*
X250984000Y-47321900D02*
X250984000Y-35560000D01*
%TO.N,Net-(D11-Pad2)*%
X266700000Y-51581200D02*
X266700000Y-50655900D01*
X266700000Y-50655900D02*
X270034000Y-47321900D01*
X270034000Y-47321900D02*
X270034000Y-35560000D01*
%TO.N,Net-(D12-Pad2)*%
X289084000Y-35560000D02*
X289084000Y-47321900D01*
X289084000Y-47321900D02*
X285750000Y-50655900D01*
X285750000Y-51581200D02*
X285750000Y-50655900D01*
%TO.N,Net-(D13-Pad2)*%
X304800000Y-51581200D02*
X304800000Y-50655900D01*
X304800000Y-50655900D02*
X308134000Y-47321900D01*
X308134000Y-47321900D02*
X308134000Y-35560000D01*
%TO.N,Net-(D14-Pad2)*%
X328612000Y-51581200D02*
X328612000Y-50655900D01*
X328612000Y-50655900D02*
X331946000Y-47321900D01*
X331946000Y-47321900D02*
X331946000Y-35560000D01*
%TO.N,Net-(D15-Pad2)*%
X347662000Y-50655900D02*
X350996000Y-47321900D01*
X350996000Y-47321900D02*
X350996000Y-35560000D01*
X347662000Y-51581200D02*
X347662000Y-50655900D01*
%TO.N,Net-(D16-Pad2)*%
X366712000Y-50655900D02*
X370046000Y-47321900D01*
X370046000Y-47321900D02*
X370046000Y-35560000D01*
X366712000Y-51581200D02*
X366712000Y-50655900D01*
%TO.N,Net-(D17-Pad2)*%
X38100000Y-70631200D02*
X38100000Y-69705900D01*
X38100000Y-69705900D02*
X41433800Y-66372100D01*
X41433800Y-66372100D02*
X41433800Y-59372500D01*
%TO.N,Net-(D18-Pad2)*%
X54768800Y-70631200D02*
X54768800Y-69705900D01*
X54768800Y-69705900D02*
X55694100Y-68780600D01*
X55694100Y-68780600D02*
X55694100Y-63751700D01*
X55694100Y-63751700D02*
X60073300Y-59372500D01*
X60073300Y-59372500D02*
X60483800Y-59372500D01*
%TO.N,Net-(D19-Pad2)*%
X73818800Y-70631200D02*
X73818800Y-69705900D01*
X73818800Y-69705900D02*
X74744100Y-68780600D01*
X74744100Y-68780600D02*
X74744100Y-63745500D01*
X74744100Y-63745500D02*
X79117100Y-59372500D01*
X79117100Y-59372500D02*
X79533800Y-59372500D01*
%TO.N,Net-(D20-Pad2)*%
X92868800Y-69705900D02*
X94694700Y-67880000D01*
X94694700Y-67880000D02*
X94694700Y-62843600D01*
X94694700Y-62843600D02*
X98165800Y-59372500D01*
X98165800Y-59372500D02*
X98584000Y-59372500D01*
X92868800Y-70631200D02*
X92868800Y-69705900D01*
%TO.N,Net-(D21-Pad2)*%
X111919000Y-70631200D02*
X111919000Y-69705900D01*
X111919000Y-69705900D02*
X112844300Y-68780600D01*
X112844300Y-68780600D02*
X112844300Y-63718900D01*
X112844300Y-63718900D02*
X117190700Y-59372500D01*
X117190700Y-59372500D02*
X117634000Y-59372500D01*
%TO.N,Net-(D22-Pad2)*%
X130969000Y-70631200D02*
X130969000Y-69705900D01*
X130969000Y-69705900D02*
X131894300Y-68780600D01*
X131894300Y-68780600D02*
X131894300Y-63740500D01*
X131894300Y-63740500D02*
X136262300Y-59372500D01*
X136262300Y-59372500D02*
X136684000Y-59372500D01*
%TO.N,Net-(D23-Pad2)*%
X150019000Y-70631200D02*
X150019000Y-69705900D01*
X150019000Y-69705900D02*
X150944300Y-68780600D01*
X150944300Y-68780600D02*
X150944300Y-63718900D01*
X150944300Y-63718900D02*
X155290700Y-59372500D01*
X155290700Y-59372500D02*
X155734000Y-59372500D01*
%TO.N,Net-(D24-Pad2)*%
X169069000Y-70631200D02*
X169069000Y-69705900D01*
X169069000Y-69705900D02*
X169994300Y-68780600D01*
X169994300Y-68780600D02*
X169994300Y-63757500D01*
X169994300Y-63757500D02*
X174379300Y-59372500D01*
X174379300Y-59372500D02*
X174784000Y-59372500D01*
%TO.N,Net-(D25-Pad2)*%
X188119000Y-70631200D02*
X188119000Y-69705900D01*
X188119000Y-69705900D02*
X189044300Y-68780600D01*
X189044300Y-68780600D02*
X189044300Y-63719400D01*
X189044300Y-63719400D02*
X193391200Y-59372500D01*
X193391200Y-59372500D02*
X193834000Y-59372500D01*
%TO.N,Net-(D26-Pad2)*%
X207169000Y-70631200D02*
X207169000Y-69705900D01*
X207169000Y-69705900D02*
X212884000Y-63990900D01*
X212884000Y-63990900D02*
X212884000Y-59372500D01*
%TO.N,Net-(D27-Pad2)*%
X226219000Y-70631200D02*
X226219000Y-69705900D01*
X226219000Y-69705900D02*
X227144300Y-68780600D01*
X227144300Y-68780600D02*
X227144300Y-63734900D01*
X227144300Y-63734900D02*
X231506700Y-59372500D01*
X231506700Y-59372500D02*
X231934000Y-59372500D01*
%TO.N,Net-(D28-Pad2)*%
X245269000Y-70631200D02*
X245269000Y-69705900D01*
X245269000Y-69705900D02*
X246194300Y-68780600D01*
X246194300Y-68780600D02*
X246194300Y-63737300D01*
X246194300Y-63737300D02*
X250559100Y-59372500D01*
X250559100Y-59372500D02*
X250984000Y-59372500D01*
%TO.N,Net-(D29-Pad2)*%
X264319000Y-70631200D02*
X264319000Y-69705900D01*
X264319000Y-69705900D02*
X265244300Y-68780600D01*
X265244300Y-68780600D02*
X265244300Y-63705100D01*
X265244300Y-63705100D02*
X269576900Y-59372500D01*
X269576900Y-59372500D02*
X270034000Y-59372500D01*
%TO.N,Net-(D30-Pad2)*%
X283369000Y-70631200D02*
X284294300Y-70631200D01*
X284294300Y-70631200D02*
X295553000Y-59372500D01*
X295553000Y-59372500D02*
X298609000Y-59372500D01*
%TO.N,Net-(D31-Pad2)*%
X326231000Y-70631200D02*
X326231000Y-69705900D01*
X326231000Y-69705900D02*
X331946000Y-63990900D01*
X331946000Y-63990900D02*
X331946000Y-59372500D01*
%TO.N,Net-(D32-Pad2)*%
X345281000Y-70631200D02*
X345281000Y-69705900D01*
X345281000Y-69705900D02*
X346206300Y-68780600D01*
X346206300Y-68780600D02*
X346206300Y-63705100D01*
X346206300Y-63705100D02*
X350538900Y-59372500D01*
X350538900Y-59372500D02*
X350996000Y-59372500D01*
%TO.N,Net-(D33-Pad2)*%
X364331000Y-70631200D02*
X364331000Y-69705900D01*
X364331000Y-69705900D02*
X370046000Y-63990900D01*
X370046000Y-63990900D02*
X370046000Y-59372500D01*
%TO.N,Net-(D34-Pad2)*%
X38100000Y-89681200D02*
X38100000Y-88755900D01*
X38100000Y-88755900D02*
X39025300Y-87830600D01*
X39025300Y-87830600D02*
X39025300Y-85189000D01*
X39025300Y-85189000D02*
X45791800Y-78422500D01*
X45791800Y-78422500D02*
X46196200Y-78422500D01*
%TO.N,Net-(D35-Pad2)*%
X64293800Y-89681200D02*
X64293800Y-88755900D01*
X64293800Y-88755900D02*
X70008800Y-83040900D01*
X70008800Y-83040900D02*
X70008800Y-78422500D01*
%TO.N,Net-(D36-Pad2)*%
X83343800Y-89681200D02*
X83343800Y-88755900D01*
X83343800Y-88755900D02*
X84269100Y-87830600D01*
X84269100Y-87830600D02*
X84269100Y-82755100D01*
X84269100Y-82755100D02*
X88601700Y-78422500D01*
X88601700Y-78422500D02*
X89058800Y-78422500D01*
%TO.N,Net-(D37-Pad2)*%
X102394000Y-89681200D02*
X102394000Y-88755900D01*
X102394000Y-88755900D02*
X103319300Y-87830600D01*
X103319300Y-87830600D02*
X103319300Y-82755100D01*
X103319300Y-82755100D02*
X107651900Y-78422500D01*
X107651900Y-78422500D02*
X108109000Y-78422500D01*
%TO.N,Net-(D38-Pad2)*%
X121444000Y-89681200D02*
X121444000Y-88755900D01*
X121444000Y-88755900D02*
X122369300Y-87830600D01*
X122369300Y-87830600D02*
X122369300Y-82755100D01*
X122369300Y-82755100D02*
X126701900Y-78422500D01*
X126701900Y-78422500D02*
X127159000Y-78422500D01*
%TO.N,Net-(D39-Pad2)*%
X140494000Y-89681200D02*
X140494000Y-88755900D01*
X140494000Y-88755900D02*
X141419300Y-87830600D01*
X141419300Y-87830600D02*
X141419300Y-82755100D01*
X141419300Y-82755100D02*
X145751900Y-78422500D01*
X145751900Y-78422500D02*
X146209000Y-78422500D01*
%TO.N,Net-(D40-Pad2)*%
X159544000Y-89681200D02*
X159544000Y-88755900D01*
X159544000Y-88755900D02*
X160469300Y-87830600D01*
X160469300Y-87830600D02*
X160469300Y-82789500D01*
X160469300Y-82789500D02*
X164836300Y-78422500D01*
X164836300Y-78422500D02*
X165259000Y-78422500D01*
%TO.N,Net-(D41-Pad2)*%
X178594000Y-89681200D02*
X178594000Y-88755900D01*
X178594000Y-88755900D02*
X178709700Y-88755900D01*
X178709700Y-88755900D02*
X180560900Y-86904700D01*
X180560900Y-86904700D02*
X180560900Y-81723600D01*
X180560900Y-81723600D02*
X183862000Y-78422500D01*
X183862000Y-78422500D02*
X184309000Y-78422500D01*
%TO.N,Net-(D42-Pad2)*%
X197644000Y-89681200D02*
X197644000Y-88755900D01*
X197644000Y-88755900D02*
X198569300Y-87830600D01*
X198569300Y-87830600D02*
X198569300Y-82793600D01*
X198569300Y-82793600D02*
X202940400Y-78422500D01*
X202940400Y-78422500D02*
X203359000Y-78422500D01*
%TO.N,Net-(D43-Pad2)*%
X216694000Y-89681200D02*
X216694000Y-88755900D01*
X216694000Y-88755900D02*
X217619300Y-87830600D01*
X217619300Y-87830600D02*
X217619300Y-82807500D01*
X217619300Y-82807500D02*
X222004300Y-78422500D01*
X222004300Y-78422500D02*
X222409000Y-78422500D01*
%TO.N,Net-(D44-Pad2)*%
X235744000Y-89681200D02*
X235744000Y-88755900D01*
X235744000Y-88755900D02*
X236669300Y-87830600D01*
X236669300Y-87830600D02*
X236669300Y-82790700D01*
X236669300Y-82790700D02*
X241037500Y-78422500D01*
X241037500Y-78422500D02*
X241459000Y-78422500D01*
%TO.N,Net-(D45-Pad2)*%
X254794000Y-88755900D02*
X254866300Y-88755900D01*
X254866300Y-88755900D02*
X256169600Y-87452600D01*
X256169600Y-87452600D02*
X256169600Y-82304800D01*
X256169600Y-82304800D02*
X260051900Y-78422500D01*
X260051900Y-78422500D02*
X260509000Y-78422500D01*
X254794000Y-89681200D02*
X254794000Y-88755900D01*
%TO.N,Net-(D46-Pad2)*%
X273844000Y-89681200D02*
X273844000Y-88755900D01*
X273844000Y-88755900D02*
X274769300Y-87830600D01*
X274769300Y-87830600D02*
X274769300Y-82810500D01*
X274769300Y-82810500D02*
X279157300Y-78422500D01*
X279157300Y-78422500D02*
X279559000Y-78422500D01*
%TO.N,Net-(D47-Pad2)*%
X292894000Y-89681200D02*
X292894000Y-88755900D01*
X292894000Y-88755900D02*
X292894000Y-88432600D01*
X292894000Y-88432600D02*
X302904100Y-78422500D01*
X302904100Y-78422500D02*
X303371000Y-78422500D01*
%TO.N,Net-(D48-Pad2)*%
X326231000Y-89681200D02*
X326231000Y-88755900D01*
X326231000Y-88755900D02*
X327156300Y-87830600D01*
X327156300Y-87830600D02*
X327156300Y-82817900D01*
X327156300Y-82817900D02*
X331551700Y-78422500D01*
X331551700Y-78422500D02*
X331946000Y-78422500D01*
%TO.N,Net-(D49-Pad2)*%
X345281000Y-89681200D02*
X345281000Y-88755900D01*
X345281000Y-88755900D02*
X350996000Y-83040900D01*
X350996000Y-83040900D02*
X350996000Y-78422500D01*
%TO.N,Net-(D50-Pad2)*%
X364331000Y-88755900D02*
X370046000Y-83040900D01*
X370046000Y-83040900D02*
X370046000Y-78422500D01*
X364331000Y-89681200D02*
X364331000Y-88755900D01*
%TO.N,Net-(D51-Pad2)*%
X38100000Y-108731000D02*
X38100000Y-107535600D01*
X38100000Y-107535600D02*
X48163100Y-97472500D01*
X48163100Y-97472500D02*
X48577500Y-97472500D01*
%TO.N,Net-(D52-Pad2)*%
X69056200Y-106350000D02*
X69056200Y-105424700D01*
X69056200Y-105424700D02*
X69981500Y-104499400D01*
X69981500Y-104499400D02*
X69981500Y-101849900D01*
X69981500Y-101849900D02*
X74358900Y-97472500D01*
X74358900Y-97472500D02*
X74771200Y-97472500D01*
%TO.N,Net-(D53-Pad2)*%
X88106200Y-107805700D02*
X89481800Y-106430100D01*
X89481800Y-106430100D02*
X89481800Y-100906500D01*
X89481800Y-100906500D02*
X92915800Y-97472500D01*
X92915800Y-97472500D02*
X93821000Y-97472500D01*
X88106200Y-108731000D02*
X88106200Y-107805700D01*
%TO.N,Net-(D54-Pad2)*%
X107156000Y-108731000D02*
X107156000Y-107805700D01*
X107156000Y-107805700D02*
X108081300Y-106880400D01*
X108081300Y-106880400D02*
X108081300Y-101825300D01*
X108081300Y-101825300D02*
X112434100Y-97472500D01*
X112434100Y-97472500D02*
X112871000Y-97472500D01*
%TO.N,Net-(D55-Pad2)*%
X126206000Y-108731000D02*
X126206000Y-107805700D01*
X126206000Y-107805700D02*
X127131300Y-106880400D01*
X127131300Y-106880400D02*
X127131300Y-101825600D01*
X127131300Y-101825600D02*
X131484400Y-97472500D01*
X131484400Y-97472500D02*
X131921000Y-97472500D01*
%TO.N,Net-(D56-Pad2)*%
X145256000Y-108731000D02*
X145256000Y-107805700D01*
X145256000Y-107805700D02*
X146181300Y-106880400D01*
X146181300Y-106880400D02*
X146181300Y-101817500D01*
X146181300Y-101817500D02*
X150526300Y-97472500D01*
X150526300Y-97472500D02*
X150971000Y-97472500D01*
%TO.N,Net-(D57-Pad2)*%
X164306000Y-108731000D02*
X164306000Y-107805700D01*
X164306000Y-107805700D02*
X165231300Y-106880400D01*
X165231300Y-106880400D02*
X165231300Y-101845600D01*
X165231300Y-101845600D02*
X169604400Y-97472500D01*
X169604400Y-97472500D02*
X170021000Y-97472500D01*
%TO.N,Net-(D58-Pad2)*%
X183356000Y-108731000D02*
X183356000Y-107805700D01*
X183356000Y-107805700D02*
X184281300Y-106880400D01*
X184281300Y-106880400D02*
X184281300Y-101805100D01*
X184281300Y-101805100D02*
X188613900Y-97472500D01*
X188613900Y-97472500D02*
X189071000Y-97472500D01*
%TO.N,Net-(D59-Pad2)*%
X202406000Y-108731000D02*
X202406000Y-107805700D01*
X202406000Y-107805700D02*
X203331300Y-106880400D01*
X203331300Y-106880400D02*
X203331300Y-101805100D01*
X203331300Y-101805100D02*
X207663900Y-97472500D01*
X207663900Y-97472500D02*
X208121000Y-97472500D01*
%TO.N,Net-(D60-Pad2)*%
X221456000Y-108731000D02*
X221456000Y-107805700D01*
X221456000Y-107805700D02*
X222381300Y-106880400D01*
X222381300Y-106880400D02*
X222381300Y-101805100D01*
X222381300Y-101805100D02*
X226713900Y-97472500D01*
X226713900Y-97472500D02*
X227171000Y-97472500D01*
%TO.N,Net-(D61-Pad2)*%
X240506000Y-108731000D02*
X240506000Y-107805700D01*
X240506000Y-107805700D02*
X241431300Y-106880400D01*
X241431300Y-106880400D02*
X241431300Y-101805100D01*
X241431300Y-101805100D02*
X245763900Y-97472500D01*
X245763900Y-97472500D02*
X246221000Y-97472500D01*
%TO.N,Net-(D62-Pad2)*%
X259556000Y-107805700D02*
X259628600Y-107805700D01*
X259628600Y-107805700D02*
X260931600Y-106502700D01*
X260931600Y-106502700D02*
X260931600Y-101354800D01*
X260931600Y-101354800D02*
X264813900Y-97472500D01*
X264813900Y-97472500D02*
X265271000Y-97472500D01*
X259556000Y-108731000D02*
X259556000Y-107805700D01*
%TO.N,Net-(D63-Pad2)*%
X296228000Y-97472500D02*
X296228000Y-99620200D01*
X296228000Y-99620200D02*
X299251000Y-102643200D01*
X299251000Y-102643200D02*
X299251000Y-114612400D01*
X299251000Y-114612400D02*
X298441700Y-115421700D01*
X298441700Y-115421700D02*
X296828200Y-115421700D01*
X296828200Y-115421700D02*
X294643400Y-113236900D01*
X294643400Y-113236900D02*
X289150500Y-113236900D01*
X289150500Y-113236900D02*
X284644600Y-108731000D01*
X284644600Y-108731000D02*
X278606000Y-108731000D01*
%TO.N,Net-(D64-Pad2)*%
X39025300Y-127781000D02*
X50284300Y-116522000D01*
X50284300Y-116522000D02*
X53340000Y-116522000D01*
X38100000Y-127781000D02*
X39025300Y-127781000D01*
%TO.N,Net-(D65-Pad2)*%
X78581200Y-127781000D02*
X78581200Y-126855700D01*
X78581200Y-126855700D02*
X84296200Y-121140700D01*
X84296200Y-121140700D02*
X84296200Y-116522000D01*
%TO.N,Net-(D66-Pad2)*%
X97631200Y-127781000D02*
X97631200Y-126855700D01*
X97631200Y-126855700D02*
X103254100Y-121232800D01*
X103254100Y-121232800D02*
X103254100Y-116613900D01*
X103254100Y-116613900D02*
X103346000Y-116522000D01*
%TO.N,Net-(D67-Pad2)*%
X116681000Y-127781000D02*
X116681000Y-126855700D01*
X116681000Y-126855700D02*
X117606300Y-125930400D01*
X117606300Y-125930400D02*
X117606300Y-120854600D01*
X117606300Y-120854600D02*
X121938900Y-116522000D01*
X121938900Y-116522000D02*
X122396000Y-116522000D01*
%TO.N,Net-(D68-Pad2)*%
X135731000Y-127781000D02*
X135731000Y-126855700D01*
X135731000Y-126855700D02*
X136656300Y-125930400D01*
X136656300Y-125930400D02*
X136656300Y-120854600D01*
X136656300Y-120854600D02*
X140988900Y-116522000D01*
X140988900Y-116522000D02*
X141446000Y-116522000D01*
%TO.N,Net-(D69-Pad2)*%
X154781000Y-127781000D02*
X154781000Y-126855700D01*
X154781000Y-126855700D02*
X155706300Y-125930400D01*
X155706300Y-125930400D02*
X155706300Y-120854600D01*
X155706300Y-120854600D02*
X160038900Y-116522000D01*
X160038900Y-116522000D02*
X160496000Y-116522000D01*
%TO.N,Net-(D70-Pad2)*%
X173831000Y-127781000D02*
X173831000Y-126855700D01*
X173831000Y-126855700D02*
X179546000Y-121140700D01*
X179546000Y-121140700D02*
X179546000Y-116522000D01*
%TO.N,Net-(D71-Pad2)*%
X192881000Y-127781000D02*
X192881000Y-126855700D01*
X192881000Y-126855700D02*
X193806300Y-125930400D01*
X193806300Y-125930400D02*
X193806300Y-120854600D01*
X193806300Y-120854600D02*
X198138900Y-116522000D01*
X198138900Y-116522000D02*
X198596000Y-116522000D01*
%TO.N,Net-(D72-Pad2)*%
X211931000Y-127781000D02*
X211931000Y-126855700D01*
X211931000Y-126855700D02*
X212856300Y-125930400D01*
X212856300Y-125930400D02*
X212856300Y-120854600D01*
X212856300Y-120854600D02*
X217188900Y-116522000D01*
X217188900Y-116522000D02*
X217646000Y-116522000D01*
%TO.N,Net-(D73-Pad2)*%
X230981000Y-125400000D02*
X230981000Y-124474700D01*
X230981000Y-124474700D02*
X231906300Y-123549400D01*
X231906300Y-123549400D02*
X231906300Y-120854600D01*
X231906300Y-120854600D02*
X236238900Y-116522000D01*
X236238900Y-116522000D02*
X236696000Y-116522000D01*
%TO.N,Net-(D74-Pad2)*%
X250031000Y-127781000D02*
X250031000Y-126855700D01*
X250031000Y-126855700D02*
X250956300Y-125930400D01*
X250956300Y-125930400D02*
X250956300Y-120854600D01*
X250956300Y-120854600D02*
X255288900Y-116522000D01*
X255288900Y-116522000D02*
X255746000Y-116522000D01*
%TO.N,Net-(D75-Pad2)*%
X272387300Y-125400000D02*
X281265300Y-116522000D01*
X281265300Y-116522000D02*
X291465000Y-116522000D01*
X271462000Y-125400000D02*
X272387300Y-125400000D01*
%TO.N,Net-(D76-Pad2)*%
X345281000Y-126975000D02*
X345281000Y-126049700D01*
X345281000Y-126049700D02*
X346206300Y-125124400D01*
X346206300Y-125124400D02*
X346206300Y-120905500D01*
X346206300Y-120905500D02*
X350589800Y-116522000D01*
X350589800Y-116522000D02*
X350996000Y-116522000D01*
%TO.N,Net-(D77-Pad2)*%
X38100000Y-144450000D02*
X38100000Y-143263800D01*
X38100000Y-143263800D02*
X45791800Y-135572000D01*
X45791800Y-135572000D02*
X46196200Y-135572000D01*
%TO.N,Net-(D78-Pad2)*%
X64293800Y-144450000D02*
X64293800Y-143524700D01*
X64293800Y-143524700D02*
X65219100Y-142599400D01*
X65219100Y-142599400D02*
X65219100Y-139956400D01*
X65219100Y-139956400D02*
X69603500Y-135572000D01*
X69603500Y-135572000D02*
X70008800Y-135572000D01*
%TO.N,Net-(D79-Pad2)*%
X85725000Y-144450000D02*
X85725000Y-143262700D01*
X85725000Y-143262700D02*
X93415700Y-135572000D01*
X93415700Y-135572000D02*
X93821000Y-135572000D01*
%TO.N,Net-(D80-Pad2)*%
X154781000Y-139687000D02*
X155706300Y-139687000D01*
X155706300Y-139687000D02*
X162361300Y-133032000D01*
X162361300Y-133032000D02*
X181134000Y-133032000D01*
%TO.N,Net-(D81-Pad2)*%
X246194300Y-142069000D02*
X252691300Y-135572000D01*
X252691300Y-135572000D02*
X255746000Y-135572000D01*
X245269000Y-142069000D02*
X246194300Y-142069000D01*
%TO.N,Net-(D82-Pad2)*%
X273844000Y-142069000D02*
X273844000Y-140894300D01*
X273844000Y-140894300D02*
X279166300Y-135572000D01*
X279166300Y-135572000D02*
X279559000Y-135572000D01*
%TO.N,Net-(D83-Pad2)*%
X295275000Y-142069000D02*
X296200300Y-142069000D01*
X296200300Y-142069000D02*
X302697300Y-135572000D01*
X302697300Y-135572000D02*
X303371000Y-135572000D01*
%TO.N,Net-(D84-Pad2)*%
X326231000Y-142069000D02*
X326231000Y-140894300D01*
X326231000Y-140894300D02*
X331553300Y-135572000D01*
X331553300Y-135572000D02*
X331946000Y-135572000D01*
%TO.N,Net-(D85-Pad2)*%
X345281000Y-142069000D02*
X345281000Y-140812500D01*
X345281000Y-140812500D02*
X350521500Y-135572000D01*
X350521500Y-135572000D02*
X350996000Y-135572000D01*
%TO.N,Net-(D86-Pad2)*%
X364331000Y-142069000D02*
X364331000Y-140894300D01*
X364331000Y-140894300D02*
X369653300Y-135572000D01*
X369653300Y-135572000D02*
X370046000Y-135572000D01*
%TO.N,Net-(J1-PadA7)*%
X381000000Y-98656200D02*
X382076800Y-97579400D01*
X382076800Y-97579400D02*
X382076800Y-42961700D01*
X382076800Y-42961700D02*
X377756600Y-38641500D01*
X377756600Y-38641500D02*
X377756600Y-35307700D01*
X377756600Y-35307700D02*
X377821400Y-35242900D01*
X377821400Y-35242900D02*
X377821400Y-32422700D01*
X377821400Y-32422700D02*
X374309100Y-28910400D01*
X374309100Y-28910400D02*
X218868400Y-28910400D01*
X218868400Y-28910400D02*
X213643800Y-23685800D01*
X213643800Y-23685800D02*
X213006800Y-23685800D01*
%TO.N,Net-(J1-PadA6)*%
X215400300Y-26580700D02*
X218180400Y-29360800D01*
X218180400Y-29360800D02*
X368416800Y-29360800D01*
X368416800Y-29360800D02*
X376213500Y-37157500D01*
X376213500Y-37157500D02*
X376213500Y-53912400D01*
X376213500Y-53912400D02*
X374956400Y-55169500D01*
X374956400Y-55169500D02*
X374956400Y-58312500D01*
X374956400Y-58312500D02*
X376247200Y-59603300D01*
X376247200Y-59603300D02*
X376247200Y-72891900D01*
X376247200Y-72891900D02*
X374926300Y-74212800D01*
X374926300Y-74212800D02*
X374926300Y-78658700D01*
X374926300Y-78658700D02*
X379657200Y-83389600D01*
X379657200Y-83389600D02*
X379657200Y-97161400D01*
X379657200Y-97161400D02*
X378619000Y-98199600D01*
X378619000Y-98199600D02*
X378619000Y-98656200D01*
%TO.N,Net-(J1-PadA5)*%
X369094000Y-96606200D02*
X367541000Y-96606200D01*
X367541000Y-96606200D02*
X358484200Y-87549400D01*
X358484200Y-87549400D02*
X358484200Y-78680900D01*
%TO.N,Net-(J1-PadB5)*%
X210312300Y-26064600D02*
X215051300Y-30803600D01*
X215051300Y-30803600D02*
X367326800Y-30803600D01*
X367326800Y-30803600D02*
X371475400Y-34952200D01*
X371475400Y-34952200D02*
X371475400Y-95814600D01*
X371475400Y-95814600D02*
X369658800Y-97631200D01*
X369658800Y-97631200D02*
X368521400Y-97631200D01*
X368521400Y-97631200D02*
X368021700Y-98130900D01*
X368021700Y-98130900D02*
X368021700Y-101916600D01*
X368021700Y-101916600D02*
X368379700Y-102274600D01*
X368379700Y-102274600D02*
X369781800Y-102274600D01*
X369781800Y-102274600D02*
X370138700Y-101917700D01*
X370138700Y-101917700D02*
X370138700Y-101702700D01*
X370138700Y-101702700D02*
X373185200Y-98656200D01*
X373185200Y-98656200D02*
X373856000Y-98656200D01*
%TO.N,/matrix/col0*%
X359430700Y-102412000D02*
X358568700Y-103274000D01*
X360506000Y-102412000D02*
X359430700Y-102412000D01*
X47783800Y-33020000D02*
X47783800Y-56832500D01*
X52546200Y-133032000D02*
X59690000Y-125888200D01*
X59690000Y-125888200D02*
X59690000Y-113982000D01*
X54927500Y-94932500D02*
X52546200Y-92551200D01*
X52546200Y-92551200D02*
X52546200Y-75882500D01*
%TO.N,/matrix/col1*%
X76358800Y-75882500D02*
X76358800Y-90170100D01*
X76358800Y-90170100D02*
X81121200Y-94932500D01*
X361581300Y-101612000D02*
X361581300Y-102711900D01*
X361581300Y-102711900D02*
X361863100Y-102993700D01*
X360506000Y-101612000D02*
X361581300Y-101612000D01*
X91053100Y-100360900D02*
X91053100Y-113575100D01*
X91053100Y-113575100D02*
X90646200Y-113982000D01*
%TO.N,/matrix/col2*%
X359430700Y-100812000D02*
X359430700Y-100979700D01*
X359430700Y-100979700D02*
X356500700Y-103909700D01*
X360506000Y-100812000D02*
X359430700Y-100812000D01*
X100171000Y-133032000D02*
X103704400Y-129498600D01*
X103704400Y-129498600D02*
X103704400Y-119220300D01*
X103704400Y-119220300D02*
X108942700Y-113982000D01*
X108942700Y-113982000D02*
X109696000Y-113982000D01*
X100171000Y-94932500D02*
X100171000Y-105210300D01*
X100171000Y-105210300D02*
X108942700Y-113982000D01*
%TO.N,/matrix/col3*%
X360506000Y-100012000D02*
X357751000Y-100012000D01*
X357751000Y-100012000D02*
X357170200Y-100592800D01*
X104934000Y-56832500D02*
X104934000Y-66357500D01*
X104934000Y-66357500D02*
X114459000Y-75882500D01*
X128746000Y-113982000D02*
X119221000Y-104457000D01*
X119221000Y-104457000D02*
X119221000Y-94932500D01*
%TO.N,/matrix/col4*%
X358895700Y-99087900D02*
X359019800Y-99212000D01*
X359019800Y-99212000D02*
X360506000Y-99212000D01*
X147796000Y-113982000D02*
X138271000Y-104457000D01*
X138271000Y-104457000D02*
X138271000Y-94932500D01*
%TO.N,/matrix/col5*%
X360506000Y-98412000D02*
X359430700Y-98412000D01*
X357673300Y-98595100D02*
X357956200Y-98312200D01*
X357956200Y-98312200D02*
X359330900Y-98312200D01*
X359330900Y-98312200D02*
X359430700Y-98412000D01*
X153574600Y-87926800D02*
X157573100Y-91925300D01*
X157573100Y-91925300D02*
X157573100Y-92543100D01*
X143034000Y-56832500D02*
X143034000Y-66357500D01*
X143034000Y-66357500D02*
X152559000Y-75882500D01*
X166846000Y-113982000D02*
X157321000Y-104457000D01*
X157321000Y-104457000D02*
X157321000Y-94932500D01*
%TO.N,/matrix/col6*%
X360506000Y-97612000D02*
X357630700Y-97612000D01*
X357630700Y-97612000D02*
X356524800Y-98717900D01*
X356524800Y-98717900D02*
X356524800Y-98807800D01*
X178378000Y-93353000D02*
X177668600Y-92643600D01*
X177668600Y-92643600D02*
X177668600Y-88877000D01*
X177668600Y-88877000D02*
X179017000Y-87528600D01*
X179017000Y-87528600D02*
X179271400Y-87528600D01*
X179271400Y-87528600D02*
X179557400Y-87242600D01*
X179557400Y-87242600D02*
X179557400Y-83830900D01*
X179557400Y-83830900D02*
X171609000Y-75882500D01*
X185896000Y-113982000D02*
X176371000Y-104457000D01*
X176371000Y-104457000D02*
X176371000Y-94932500D01*
%TO.N,/col7*%
X348030700Y-98412000D02*
X348030700Y-100222000D01*
X348030700Y-100222000D02*
X345694200Y-102558500D01*
X345694200Y-102558500D02*
X345694200Y-104160300D01*
X190659000Y-75882500D02*
X195421000Y-80644500D01*
X195421000Y-80644500D02*
X195421000Y-94932500D01*
X195421000Y-94932500D02*
X195421000Y-104457000D01*
X195421000Y-104457000D02*
X204946000Y-113982000D01*
X349106000Y-98412000D02*
X348030700Y-98412000D01*
%TO.N,/col9*%
X348030700Y-96812000D02*
X347478300Y-97364400D01*
X347478300Y-97364400D02*
X347478300Y-98587000D01*
X347478300Y-98587000D02*
X344697300Y-101368000D01*
X344697300Y-101368000D02*
X344697300Y-104607100D01*
X209709000Y-75882500D02*
X209709000Y-90170500D01*
X209709000Y-90170500D02*
X214471000Y-94932500D01*
X349106000Y-96812000D02*
X348030700Y-96812000D01*
X223996000Y-113982000D02*
X214471000Y-104457000D01*
X214471000Y-104457000D02*
X214471000Y-94932500D01*
%TO.N,/col10*%
X343918500Y-105243100D02*
X343918500Y-101430300D01*
X343918500Y-101430300D02*
X347028000Y-98320800D01*
X347028000Y-98320800D02*
X347028000Y-97014700D01*
X347028000Y-97014700D02*
X348030700Y-96012000D01*
X233521000Y-94932500D02*
X233521000Y-104457000D01*
X233521000Y-104457000D02*
X243046000Y-113982000D01*
X228759000Y-75882500D02*
X228759000Y-90170500D01*
X228759000Y-90170500D02*
X233521000Y-94932500D01*
X349106000Y-96012000D02*
X348030700Y-96012000D01*
X257334000Y-33020000D02*
X249650000Y-33020000D01*
X249650000Y-33020000D02*
X230893600Y-51776400D01*
%TO.N,/col11*%
X276384000Y-33020000D02*
X270540700Y-33020000D01*
X270540700Y-33020000D02*
X253052900Y-50507800D01*
X253052900Y-50507800D02*
X253052900Y-51760200D01*
X350806000Y-95387300D02*
X348009500Y-95387300D01*
X348009500Y-95387300D02*
X345164700Y-98232100D01*
X345164700Y-98232100D02*
X345164700Y-98462800D01*
X350806000Y-94312000D02*
X350806000Y-95387300D01*
X262096000Y-113982000D02*
X258630600Y-110516600D01*
X258630600Y-110516600D02*
X258630600Y-107958900D01*
X258630600Y-107958900D02*
X260083200Y-106506300D01*
X260083200Y-106506300D02*
X260290800Y-106506300D01*
X260290800Y-106506300D02*
X260481300Y-106315800D01*
X260481300Y-106315800D02*
X260481300Y-102842800D01*
X260481300Y-102842800D02*
X252571000Y-94932500D01*
X252571000Y-94932500D02*
X252571000Y-90131500D01*
X252571000Y-90131500D02*
X255246000Y-87456500D01*
X255246000Y-87456500D02*
X255528800Y-87456500D01*
X255528800Y-87456500D02*
X255719300Y-87266000D01*
X255719300Y-87266000D02*
X255719300Y-83792800D01*
X255719300Y-83792800D02*
X247809000Y-75882500D01*
%TO.N,/col12*%
X355606000Y-94312000D02*
X355606000Y-93236700D01*
X342432200Y-106091400D02*
X342432200Y-99492600D01*
X342432200Y-99492600D02*
X349173500Y-92751300D01*
X349173500Y-92751300D02*
X355120600Y-92751300D01*
X355120600Y-92751300D02*
X355606000Y-93236700D01*
X271621000Y-94932500D02*
X271621000Y-80644500D01*
X271621000Y-80644500D02*
X266859000Y-75882500D01*
X297815000Y-113982000D02*
X278765500Y-94932500D01*
X278765500Y-94932500D02*
X271621000Y-94932500D01*
X295434000Y-33020000D02*
X287846500Y-33020000D01*
X287846500Y-33020000D02*
X269083300Y-51783200D01*
%TO.N,/col13*%
X356406000Y-95387300D02*
X356406000Y-95549700D01*
X356406000Y-95549700D02*
X356530800Y-95674500D01*
X356406000Y-94312000D02*
X356406000Y-95387300D01*
X314484000Y-33020000D02*
X307952900Y-33020000D01*
X307952900Y-33020000D02*
X289186100Y-51786800D01*
X285909000Y-133032000D02*
X288087600Y-133032000D01*
X288087600Y-133032000D02*
X302578000Y-118541600D01*
X302578000Y-118541600D02*
X302578000Y-94932500D01*
%TO.N,/col15*%
X352425500Y-88306200D02*
X352257600Y-88306200D01*
X352257600Y-88306200D02*
X341690300Y-98873500D01*
X341690300Y-98873500D02*
X341690300Y-106406700D01*
X341690300Y-106406700D02*
X342452100Y-107168500D01*
X358006000Y-93236700D02*
X353075500Y-88306200D01*
X353075500Y-88306200D02*
X352425500Y-88306200D01*
X338296000Y-75882500D02*
X350476800Y-75882500D01*
X350476800Y-75882500D02*
X352425500Y-77831200D01*
X352425500Y-77831200D02*
X352425500Y-88306200D01*
X358006000Y-94312000D02*
X358006000Y-93236700D01*
X338296000Y-56832500D02*
X338237600Y-56890900D01*
X338237600Y-56890900D02*
X338237600Y-75824100D01*
X338237600Y-75824100D02*
X338296000Y-75882500D01*
X338296000Y-33020000D02*
X338296000Y-56832500D01*
%TO.N,/col16*%
X366356400Y-103896900D02*
X364970500Y-102511000D01*
X364970500Y-102511000D02*
X364970500Y-98237500D01*
X364970500Y-98237500D02*
X361045000Y-94312000D01*
X361045000Y-94312000D02*
X358806000Y-94312000D01*
X357346000Y-75882500D02*
X357346000Y-91769600D01*
X357346000Y-91769600D02*
X358806000Y-93229600D01*
X358806000Y-93229600D02*
X358806000Y-94312000D01*
X357346000Y-33020000D02*
X357346000Y-56832500D01*
X357346000Y-133032000D02*
X357346000Y-113982000D01*
%TO.N,/col17*%
X376396000Y-56832500D02*
X376697600Y-57134100D01*
X376697600Y-57134100D02*
X376697600Y-75580900D01*
X376697600Y-75580900D02*
X376396000Y-75882500D01*
X376396000Y-33020000D02*
X376663900Y-33287900D01*
X376663900Y-33287900D02*
X376663900Y-56564600D01*
X376663900Y-56564600D02*
X376396000Y-56832500D01*
X353206000Y-105712000D02*
X353206000Y-106787300D01*
X352508700Y-107168500D02*
X352889900Y-106787300D01*
X352889900Y-106787300D02*
X353206000Y-106787300D01*
%TO.N,/col14*%
X357206000Y-94312000D02*
X357206000Y-93236700D01*
X351260100Y-90329400D02*
X354298700Y-90329400D01*
X354298700Y-90329400D02*
X357206000Y-93236700D01*
X309721000Y-75882500D02*
X309568800Y-76034700D01*
X309568800Y-76034700D02*
X309568800Y-132879800D01*
X309568800Y-132879800D02*
X309721000Y-133032000D01*
X304959000Y-56832500D02*
X309721000Y-61594500D01*
X309721000Y-61594500D02*
X309721000Y-75882500D01*
%TO.N,Net-(R2-Pad1)*%
X351606000Y-94312000D02*
X351606000Y-95387300D01*
X353655300Y-96733900D02*
X352952600Y-96733900D01*
X352952600Y-96733900D02*
X351606000Y-95387300D01*
X374206000Y-114297500D02*
X374206000Y-113625000D01*
X374206000Y-113625000D02*
X369094000Y-108513000D01*
%TO.N,Net-(R4-Pad1)*%
X378619000Y-96606200D02*
X377124600Y-98100600D01*
X377124600Y-98100600D02*
X377124600Y-100688000D01*
X377124600Y-100688000D02*
X376463700Y-101348900D01*
X350181300Y-102412000D02*
X350181300Y-102027700D01*
X350181300Y-102027700D02*
X350841300Y-101367700D01*
X349106000Y-102412000D02*
X350181300Y-102412000D01*
%TO.N,Net-(R5-Pad1)*%
X381000000Y-96606200D02*
X379650200Y-97956000D01*
X379650200Y-97956000D02*
X379650200Y-99577200D01*
X379650200Y-99577200D02*
X376966900Y-102260500D01*
X348030700Y-101612000D02*
X347824700Y-101818000D01*
X347824700Y-101818000D02*
X347733600Y-101818000D01*
X349106000Y-101612000D02*
X348030700Y-101612000D01*
%TO.N,Net-(R6-Pad2)*%
X361581300Y-104012000D02*
X361581300Y-104651300D01*
X361581300Y-104651300D02*
X371972000Y-115042000D01*
X371972000Y-115042000D02*
X374500800Y-115042000D01*
X374500800Y-115042000D02*
X381000000Y-108542800D01*
X381000000Y-108542800D02*
X381000000Y-105800000D01*
X360506000Y-104012000D02*
X361581300Y-104012000D01*
%TO.N,Net-(C6-Pad1)*%
X372756000Y-103975000D02*
X371730700Y-103975000D01*
X371730700Y-103975000D02*
X371083400Y-104622300D01*
X371083400Y-104622300D02*
X366055800Y-104622300D01*
X366055800Y-104622300D02*
X364520100Y-103086600D01*
X364520100Y-103086600D02*
X364520100Y-98433900D01*
X364520100Y-98433900D02*
X361497800Y-95411600D01*
X361497800Y-95411600D02*
X358085400Y-95411600D01*
X358085400Y-95411600D02*
X356980300Y-96516700D01*
X356980300Y-96516700D02*
X355135400Y-96516700D01*
X355135400Y-96516700D02*
X354006000Y-95387300D01*
X354006000Y-94312000D02*
X354006000Y-95387300D01*
X372756000Y-103975000D02*
X373781300Y-103975000D01*
X373781300Y-103975000D02*
X373781300Y-108106300D01*
X373781300Y-108106300D02*
X375213000Y-109538000D01*
%TD*%
M02*
