%TF.GenerationSoftware,KiCad,Pcbnew,(5.1.6)-1*%
%TF.CreationDate,2020-07-25T19:19:23-04:00*%
%TF.ProjectId,TKLpcb,544b4c70-6362-42e6-9b69-6361645f7063,rev?*%
%TF.SameCoordinates,Original*%
%TF.FileFunction,Legend,Bot*%
%TF.FilePolarity,Positive*%
%FSLAX46Y46*%
G04 Gerber Fmt 4.6, Leading zero omitted, Abs format (unit mm)*
G04 Created by KiCad (PCBNEW (5.1.6)-1) date 2020-07-25 19:19:23*
%MOMM*%
%LPD*%
G01*
G04 APERTURE LIST*
%ADD10C,0.100000*%
%ADD11C,0.150000*%
%ADD12C,0.300000*%
%ADD13C,0.400000*%
%ADD14C,0.120000*%
%ADD15C,0.200000*%
%ADD16C,0.015000*%
G04 APERTURE END LIST*
D10*
D11*
X474004400Y-375989000D02*
X474004400Y-407989000D01*
X582004400Y-407989000D01*
X582004400Y-375989000D01*
X474004400Y-375989000D01*
D10*
D11*
X10000000Y-10000000D02*
X10000000Y-409989000D01*
X584004400Y-409989000D01*
X584004400Y-10000000D01*
X10000000Y-10000000D01*
D10*
D11*
X12000000Y-12000000D02*
X12000000Y-407989000D01*
X582004400Y-407989000D01*
X582004400Y-12000000D01*
X12000000Y-12000000D01*
D10*
D11*
X60000000Y-12000000D02*
X60000000Y-10000000D01*
D10*
D11*
X110000000Y-12000000D02*
X110000000Y-10000000D01*
D10*
D11*
X160000000Y-12000000D02*
X160000000Y-10000000D01*
D10*
D11*
X210000000Y-12000000D02*
X210000000Y-10000000D01*
D10*
D11*
X260000000Y-12000000D02*
X260000000Y-10000000D01*
D10*
D11*
X310000000Y-12000000D02*
X310000000Y-10000000D01*
D10*
D11*
X360000000Y-12000000D02*
X360000000Y-10000000D01*
D10*
D11*
X410000000Y-12000000D02*
X410000000Y-10000000D01*
D10*
D11*
X460000000Y-12000000D02*
X460000000Y-10000000D01*
D10*
D11*
X510000000Y-12000000D02*
X510000000Y-10000000D01*
D10*
D11*
X560000000Y-12000000D02*
X560000000Y-10000000D01*
D10*
D11*
X36065476Y-11588095D02*
X35322619Y-11588095D01*
X35694047Y-11588095D02*
X35694047Y-10288095D01*
X35570238Y-10473809D01*
X35446428Y-10597619D01*
X35322619Y-10659523D01*
D10*
D11*
X85322619Y-10411904D02*
X85384523Y-10350000D01*
X85508333Y-10288095D01*
X85817857Y-10288095D01*
X85941666Y-10350000D01*
X86003571Y-10411904D01*
X86065476Y-10535714D01*
X86065476Y-10659523D01*
X86003571Y-10845238D01*
X85260714Y-11588095D01*
X86065476Y-11588095D01*
D10*
D11*
X135260714Y-10288095D02*
X136065476Y-10288095D01*
X135632142Y-10783333D01*
X135817857Y-10783333D01*
X135941666Y-10845238D01*
X136003571Y-10907142D01*
X136065476Y-11030952D01*
X136065476Y-11340476D01*
X136003571Y-11464285D01*
X135941666Y-11526190D01*
X135817857Y-11588095D01*
X135446428Y-11588095D01*
X135322619Y-11526190D01*
X135260714Y-11464285D01*
D10*
D11*
X185941666Y-10721428D02*
X185941666Y-11588095D01*
X185632142Y-10226190D02*
X185322619Y-11154761D01*
X186127380Y-11154761D01*
D10*
D11*
X236003571Y-10288095D02*
X235384523Y-10288095D01*
X235322619Y-10907142D01*
X235384523Y-10845238D01*
X235508333Y-10783333D01*
X235817857Y-10783333D01*
X235941666Y-10845238D01*
X236003571Y-10907142D01*
X236065476Y-11030952D01*
X236065476Y-11340476D01*
X236003571Y-11464285D01*
X235941666Y-11526190D01*
X235817857Y-11588095D01*
X235508333Y-11588095D01*
X235384523Y-11526190D01*
X235322619Y-11464285D01*
D10*
D11*
X285941666Y-10288095D02*
X285694047Y-10288095D01*
X285570238Y-10350000D01*
X285508333Y-10411904D01*
X285384523Y-10597619D01*
X285322619Y-10845238D01*
X285322619Y-11340476D01*
X285384523Y-11464285D01*
X285446428Y-11526190D01*
X285570238Y-11588095D01*
X285817857Y-11588095D01*
X285941666Y-11526190D01*
X286003571Y-11464285D01*
X286065476Y-11340476D01*
X286065476Y-11030952D01*
X286003571Y-10907142D01*
X285941666Y-10845238D01*
X285817857Y-10783333D01*
X285570238Y-10783333D01*
X285446428Y-10845238D01*
X285384523Y-10907142D01*
X285322619Y-11030952D01*
D10*
D11*
X335260714Y-10288095D02*
X336127380Y-10288095D01*
X335570238Y-11588095D01*
D10*
D11*
X385570238Y-10845238D02*
X385446428Y-10783333D01*
X385384523Y-10721428D01*
X385322619Y-10597619D01*
X385322619Y-10535714D01*
X385384523Y-10411904D01*
X385446428Y-10350000D01*
X385570238Y-10288095D01*
X385817857Y-10288095D01*
X385941666Y-10350000D01*
X386003571Y-10411904D01*
X386065476Y-10535714D01*
X386065476Y-10597619D01*
X386003571Y-10721428D01*
X385941666Y-10783333D01*
X385817857Y-10845238D01*
X385570238Y-10845238D01*
X385446428Y-10907142D01*
X385384523Y-10969047D01*
X385322619Y-11092857D01*
X385322619Y-11340476D01*
X385384523Y-11464285D01*
X385446428Y-11526190D01*
X385570238Y-11588095D01*
X385817857Y-11588095D01*
X385941666Y-11526190D01*
X386003571Y-11464285D01*
X386065476Y-11340476D01*
X386065476Y-11092857D01*
X386003571Y-10969047D01*
X385941666Y-10907142D01*
X385817857Y-10845238D01*
D10*
D11*
X435446428Y-11588095D02*
X435694047Y-11588095D01*
X435817857Y-11526190D01*
X435879761Y-11464285D01*
X436003571Y-11278571D01*
X436065476Y-11030952D01*
X436065476Y-10535714D01*
X436003571Y-10411904D01*
X435941666Y-10350000D01*
X435817857Y-10288095D01*
X435570238Y-10288095D01*
X435446428Y-10350000D01*
X435384523Y-10411904D01*
X435322619Y-10535714D01*
X435322619Y-10845238D01*
X435384523Y-10969047D01*
X435446428Y-11030952D01*
X435570238Y-11092857D01*
X435817857Y-11092857D01*
X435941666Y-11030952D01*
X436003571Y-10969047D01*
X436065476Y-10845238D01*
D10*
D11*
X486065476Y-11588095D02*
X485322619Y-11588095D01*
X485694047Y-11588095D02*
X485694047Y-10288095D01*
X485570238Y-10473809D01*
X485446428Y-10597619D01*
X485322619Y-10659523D01*
X486870238Y-10288095D02*
X486994047Y-10288095D01*
X487117857Y-10350000D01*
X487179761Y-10411904D01*
X487241666Y-10535714D01*
X487303571Y-10783333D01*
X487303571Y-11092857D01*
X487241666Y-11340476D01*
X487179761Y-11464285D01*
X487117857Y-11526190D01*
X486994047Y-11588095D01*
X486870238Y-11588095D01*
X486746428Y-11526190D01*
X486684523Y-11464285D01*
X486622619Y-11340476D01*
X486560714Y-11092857D01*
X486560714Y-10783333D01*
X486622619Y-10535714D01*
X486684523Y-10411904D01*
X486746428Y-10350000D01*
X486870238Y-10288095D01*
D10*
D11*
X536065476Y-11588095D02*
X535322619Y-11588095D01*
X535694047Y-11588095D02*
X535694047Y-10288095D01*
X535570238Y-10473809D01*
X535446428Y-10597619D01*
X535322619Y-10659523D01*
X537303571Y-11588095D02*
X536560714Y-11588095D01*
X536932142Y-11588095D02*
X536932142Y-10288095D01*
X536808333Y-10473809D01*
X536684523Y-10597619D01*
X536560714Y-10659523D01*
D10*
D11*
X60000000Y-407989000D02*
X60000000Y-409989000D01*
D10*
D11*
X110000000Y-407989000D02*
X110000000Y-409989000D01*
D10*
D11*
X160000000Y-407989000D02*
X160000000Y-409989000D01*
D10*
D11*
X210000000Y-407989000D02*
X210000000Y-409989000D01*
D10*
D11*
X260000000Y-407989000D02*
X260000000Y-409989000D01*
D10*
D11*
X310000000Y-407989000D02*
X310000000Y-409989000D01*
D10*
D11*
X360000000Y-407989000D02*
X360000000Y-409989000D01*
D10*
D11*
X410000000Y-407989000D02*
X410000000Y-409989000D01*
D10*
D11*
X460000000Y-407989000D02*
X460000000Y-409989000D01*
D10*
D11*
X510000000Y-407989000D02*
X510000000Y-409989000D01*
D10*
D11*
X560000000Y-407989000D02*
X560000000Y-409989000D01*
D10*
D11*
X36065476Y-409577095D02*
X35322619Y-409577095D01*
X35694047Y-409577095D02*
X35694047Y-408277095D01*
X35570238Y-408462809D01*
X35446428Y-408586619D01*
X35322619Y-408648523D01*
D10*
D11*
X85322619Y-408400904D02*
X85384523Y-408339000D01*
X85508333Y-408277095D01*
X85817857Y-408277095D01*
X85941666Y-408339000D01*
X86003571Y-408400904D01*
X86065476Y-408524714D01*
X86065476Y-408648523D01*
X86003571Y-408834238D01*
X85260714Y-409577095D01*
X86065476Y-409577095D01*
D10*
D11*
X135260714Y-408277095D02*
X136065476Y-408277095D01*
X135632142Y-408772333D01*
X135817857Y-408772333D01*
X135941666Y-408834238D01*
X136003571Y-408896142D01*
X136065476Y-409019952D01*
X136065476Y-409329476D01*
X136003571Y-409453285D01*
X135941666Y-409515190D01*
X135817857Y-409577095D01*
X135446428Y-409577095D01*
X135322619Y-409515190D01*
X135260714Y-409453285D01*
D10*
D11*
X185941666Y-408710428D02*
X185941666Y-409577095D01*
X185632142Y-408215190D02*
X185322619Y-409143761D01*
X186127380Y-409143761D01*
D10*
D11*
X236003571Y-408277095D02*
X235384523Y-408277095D01*
X235322619Y-408896142D01*
X235384523Y-408834238D01*
X235508333Y-408772333D01*
X235817857Y-408772333D01*
X235941666Y-408834238D01*
X236003571Y-408896142D01*
X236065476Y-409019952D01*
X236065476Y-409329476D01*
X236003571Y-409453285D01*
X235941666Y-409515190D01*
X235817857Y-409577095D01*
X235508333Y-409577095D01*
X235384523Y-409515190D01*
X235322619Y-409453285D01*
D10*
D11*
X285941666Y-408277095D02*
X285694047Y-408277095D01*
X285570238Y-408339000D01*
X285508333Y-408400904D01*
X285384523Y-408586619D01*
X285322619Y-408834238D01*
X285322619Y-409329476D01*
X285384523Y-409453285D01*
X285446428Y-409515190D01*
X285570238Y-409577095D01*
X285817857Y-409577095D01*
X285941666Y-409515190D01*
X286003571Y-409453285D01*
X286065476Y-409329476D01*
X286065476Y-409019952D01*
X286003571Y-408896142D01*
X285941666Y-408834238D01*
X285817857Y-408772333D01*
X285570238Y-408772333D01*
X285446428Y-408834238D01*
X285384523Y-408896142D01*
X285322619Y-409019952D01*
D10*
D11*
X335260714Y-408277095D02*
X336127380Y-408277095D01*
X335570238Y-409577095D01*
D10*
D11*
X385570238Y-408834238D02*
X385446428Y-408772333D01*
X385384523Y-408710428D01*
X385322619Y-408586619D01*
X385322619Y-408524714D01*
X385384523Y-408400904D01*
X385446428Y-408339000D01*
X385570238Y-408277095D01*
X385817857Y-408277095D01*
X385941666Y-408339000D01*
X386003571Y-408400904D01*
X386065476Y-408524714D01*
X386065476Y-408586619D01*
X386003571Y-408710428D01*
X385941666Y-408772333D01*
X385817857Y-408834238D01*
X385570238Y-408834238D01*
X385446428Y-408896142D01*
X385384523Y-408958047D01*
X385322619Y-409081857D01*
X385322619Y-409329476D01*
X385384523Y-409453285D01*
X385446428Y-409515190D01*
X385570238Y-409577095D01*
X385817857Y-409577095D01*
X385941666Y-409515190D01*
X386003571Y-409453285D01*
X386065476Y-409329476D01*
X386065476Y-409081857D01*
X386003571Y-408958047D01*
X385941666Y-408896142D01*
X385817857Y-408834238D01*
D10*
D11*
X435446428Y-409577095D02*
X435694047Y-409577095D01*
X435817857Y-409515190D01*
X435879761Y-409453285D01*
X436003571Y-409267571D01*
X436065476Y-409019952D01*
X436065476Y-408524714D01*
X436003571Y-408400904D01*
X435941666Y-408339000D01*
X435817857Y-408277095D01*
X435570238Y-408277095D01*
X435446428Y-408339000D01*
X435384523Y-408400904D01*
X435322619Y-408524714D01*
X435322619Y-408834238D01*
X435384523Y-408958047D01*
X435446428Y-409019952D01*
X435570238Y-409081857D01*
X435817857Y-409081857D01*
X435941666Y-409019952D01*
X436003571Y-408958047D01*
X436065476Y-408834238D01*
D10*
D11*
X486065476Y-409577095D02*
X485322619Y-409577095D01*
X485694047Y-409577095D02*
X485694047Y-408277095D01*
X485570238Y-408462809D01*
X485446428Y-408586619D01*
X485322619Y-408648523D01*
X486870238Y-408277095D02*
X486994047Y-408277095D01*
X487117857Y-408339000D01*
X487179761Y-408400904D01*
X487241666Y-408524714D01*
X487303571Y-408772333D01*
X487303571Y-409081857D01*
X487241666Y-409329476D01*
X487179761Y-409453285D01*
X487117857Y-409515190D01*
X486994047Y-409577095D01*
X486870238Y-409577095D01*
X486746428Y-409515190D01*
X486684523Y-409453285D01*
X486622619Y-409329476D01*
X486560714Y-409081857D01*
X486560714Y-408772333D01*
X486622619Y-408524714D01*
X486684523Y-408400904D01*
X486746428Y-408339000D01*
X486870238Y-408277095D01*
D10*
D11*
X536065476Y-409577095D02*
X535322619Y-409577095D01*
X535694047Y-409577095D02*
X535694047Y-408277095D01*
X535570238Y-408462809D01*
X535446428Y-408586619D01*
X535322619Y-408648523D01*
X537303571Y-409577095D02*
X536560714Y-409577095D01*
X536932142Y-409577095D02*
X536932142Y-408277095D01*
X536808333Y-408462809D01*
X536684523Y-408586619D01*
X536560714Y-408648523D01*
D10*
D11*
X10000000Y-60000000D02*
X12000000Y-60000000D01*
D10*
D11*
X10000000Y-110000000D02*
X12000000Y-110000000D01*
D10*
D11*
X10000000Y-160000000D02*
X12000000Y-160000000D01*
D10*
D11*
X10000000Y-210000000D02*
X12000000Y-210000000D01*
D10*
D11*
X10000000Y-260000000D02*
X12000000Y-260000000D01*
D10*
D11*
X10000000Y-310000000D02*
X12000000Y-310000000D01*
D10*
D11*
X10000000Y-360000000D02*
X12000000Y-360000000D01*
D10*
D11*
X10690476Y-35216666D02*
X11309523Y-35216666D01*
X10566666Y-35588095D02*
X11000000Y-34288095D01*
X11433333Y-35588095D01*
D10*
D11*
X11092857Y-84907142D02*
X11278571Y-84969047D01*
X11340476Y-85030952D01*
X11402380Y-85154761D01*
X11402380Y-85340476D01*
X11340476Y-85464285D01*
X11278571Y-85526190D01*
X11154761Y-85588095D01*
X10659523Y-85588095D01*
X10659523Y-84288095D01*
X11092857Y-84288095D01*
X11216666Y-84350000D01*
X11278571Y-84411904D01*
X11340476Y-84535714D01*
X11340476Y-84659523D01*
X11278571Y-84783333D01*
X11216666Y-84845238D01*
X11092857Y-84907142D01*
X10659523Y-84907142D01*
D10*
D11*
X11402380Y-135464285D02*
X11340476Y-135526190D01*
X11154761Y-135588095D01*
X11030952Y-135588095D01*
X10845238Y-135526190D01*
X10721428Y-135402380D01*
X10659523Y-135278571D01*
X10597619Y-135030952D01*
X10597619Y-134845238D01*
X10659523Y-134597619D01*
X10721428Y-134473809D01*
X10845238Y-134350000D01*
X11030952Y-134288095D01*
X11154761Y-134288095D01*
X11340476Y-134350000D01*
X11402380Y-134411904D01*
D10*
D11*
X10659523Y-185588095D02*
X10659523Y-184288095D01*
X10969047Y-184288095D01*
X11154761Y-184350000D01*
X11278571Y-184473809D01*
X11340476Y-184597619D01*
X11402380Y-184845238D01*
X11402380Y-185030952D01*
X11340476Y-185278571D01*
X11278571Y-185402380D01*
X11154761Y-185526190D01*
X10969047Y-185588095D01*
X10659523Y-185588095D01*
D10*
D11*
X10721428Y-234907142D02*
X11154761Y-234907142D01*
X11340476Y-235588095D02*
X10721428Y-235588095D01*
X10721428Y-234288095D01*
X11340476Y-234288095D01*
D10*
D11*
X11185714Y-284907142D02*
X10752380Y-284907142D01*
X10752380Y-285588095D02*
X10752380Y-284288095D01*
X11371428Y-284288095D01*
D10*
D11*
X11340476Y-334350000D02*
X11216666Y-334288095D01*
X11030952Y-334288095D01*
X10845238Y-334350000D01*
X10721428Y-334473809D01*
X10659523Y-334597619D01*
X10597619Y-334845238D01*
X10597619Y-335030952D01*
X10659523Y-335278571D01*
X10721428Y-335402380D01*
X10845238Y-335526190D01*
X11030952Y-335588095D01*
X11154761Y-335588095D01*
X11340476Y-335526190D01*
X11402380Y-335464285D01*
X11402380Y-335030952D01*
X11154761Y-335030952D01*
D10*
D11*
X10628571Y-385588095D02*
X10628571Y-384288095D01*
X10628571Y-384907142D02*
X11371428Y-384907142D01*
X11371428Y-385588095D02*
X11371428Y-384288095D01*
D10*
D11*
X584004400Y-60000000D02*
X582004400Y-60000000D01*
D10*
D11*
X584004400Y-110000000D02*
X582004400Y-110000000D01*
D10*
D11*
X584004400Y-160000000D02*
X582004400Y-160000000D01*
D10*
D11*
X584004400Y-210000000D02*
X582004400Y-210000000D01*
D10*
D11*
X584004400Y-260000000D02*
X582004400Y-260000000D01*
D10*
D11*
X584004400Y-310000000D02*
X582004400Y-310000000D01*
D10*
D11*
X584004400Y-360000000D02*
X582004400Y-360000000D01*
D10*
D11*
X582694876Y-35216666D02*
X583313923Y-35216666D01*
X582571066Y-35588095D02*
X583004400Y-34288095D01*
X583437733Y-35588095D01*
D10*
D11*
X583097257Y-84907142D02*
X583282971Y-84969047D01*
X583344876Y-85030952D01*
X583406780Y-85154761D01*
X583406780Y-85340476D01*
X583344876Y-85464285D01*
X583282971Y-85526190D01*
X583159161Y-85588095D01*
X582663923Y-85588095D01*
X582663923Y-84288095D01*
X583097257Y-84288095D01*
X583221066Y-84350000D01*
X583282971Y-84411904D01*
X583344876Y-84535714D01*
X583344876Y-84659523D01*
X583282971Y-84783333D01*
X583221066Y-84845238D01*
X583097257Y-84907142D01*
X582663923Y-84907142D01*
D10*
D11*
X583406780Y-135464285D02*
X583344876Y-135526190D01*
X583159161Y-135588095D01*
X583035352Y-135588095D01*
X582849638Y-135526190D01*
X582725828Y-135402380D01*
X582663923Y-135278571D01*
X582602019Y-135030952D01*
X582602019Y-134845238D01*
X582663923Y-134597619D01*
X582725828Y-134473809D01*
X582849638Y-134350000D01*
X583035352Y-134288095D01*
X583159161Y-134288095D01*
X583344876Y-134350000D01*
X583406780Y-134411904D01*
D10*
D11*
X582663923Y-185588095D02*
X582663923Y-184288095D01*
X582973447Y-184288095D01*
X583159161Y-184350000D01*
X583282971Y-184473809D01*
X583344876Y-184597619D01*
X583406780Y-184845238D01*
X583406780Y-185030952D01*
X583344876Y-185278571D01*
X583282971Y-185402380D01*
X583159161Y-185526190D01*
X582973447Y-185588095D01*
X582663923Y-185588095D01*
D10*
D11*
X582725828Y-234907142D02*
X583159161Y-234907142D01*
X583344876Y-235588095D02*
X582725828Y-235588095D01*
X582725828Y-234288095D01*
X583344876Y-234288095D01*
D10*
D11*
X583190114Y-284907142D02*
X582756780Y-284907142D01*
X582756780Y-285588095D02*
X582756780Y-284288095D01*
X583375828Y-284288095D01*
D10*
D11*
X583344876Y-334350000D02*
X583221066Y-334288095D01*
X583035352Y-334288095D01*
X582849638Y-334350000D01*
X582725828Y-334473809D01*
X582663923Y-334597619D01*
X582602019Y-334845238D01*
X582602019Y-335030952D01*
X582663923Y-335278571D01*
X582725828Y-335402380D01*
X582849638Y-335526190D01*
X583035352Y-335588095D01*
X583159161Y-335588095D01*
X583344876Y-335526190D01*
X583406780Y-335464285D01*
X583406780Y-335030952D01*
X583159161Y-335030952D01*
D10*
D11*
X582632971Y-385588095D02*
X582632971Y-384288095D01*
X582632971Y-384907142D02*
X583375828Y-384907142D01*
X583375828Y-385588095D02*
X583375828Y-384288095D01*
D10*
D11*
X497436542Y-403767571D02*
X497436542Y-402267571D01*
X497793685Y-402267571D01*
X498007971Y-402339000D01*
X498150828Y-402481857D01*
X498222257Y-402624714D01*
X498293685Y-402910428D01*
X498293685Y-403124714D01*
X498222257Y-403410428D01*
X498150828Y-403553285D01*
X498007971Y-403696142D01*
X497793685Y-403767571D01*
X497436542Y-403767571D01*
X499579400Y-403767571D02*
X499579400Y-402981857D01*
X499507971Y-402839000D01*
X499365114Y-402767571D01*
X499079400Y-402767571D01*
X498936542Y-402839000D01*
X499579400Y-403696142D02*
X499436542Y-403767571D01*
X499079400Y-403767571D01*
X498936542Y-403696142D01*
X498865114Y-403553285D01*
X498865114Y-403410428D01*
X498936542Y-403267571D01*
X499079400Y-403196142D01*
X499436542Y-403196142D01*
X499579400Y-403124714D01*
X500079400Y-402767571D02*
X500650828Y-402767571D01*
X500293685Y-402267571D02*
X500293685Y-403553285D01*
X500365114Y-403696142D01*
X500507971Y-403767571D01*
X500650828Y-403767571D01*
X501722257Y-403696142D02*
X501579400Y-403767571D01*
X501293685Y-403767571D01*
X501150828Y-403696142D01*
X501079400Y-403553285D01*
X501079400Y-402981857D01*
X501150828Y-402839000D01*
X501293685Y-402767571D01*
X501579400Y-402767571D01*
X501722257Y-402839000D01*
X501793685Y-402981857D01*
X501793685Y-403124714D01*
X501079400Y-403267571D01*
X502436542Y-403624714D02*
X502507971Y-403696142D01*
X502436542Y-403767571D01*
X502365114Y-403696142D01*
X502436542Y-403624714D01*
X502436542Y-403767571D01*
X502436542Y-402839000D02*
X502507971Y-402910428D01*
X502436542Y-402981857D01*
X502365114Y-402910428D01*
X502436542Y-402839000D01*
X502436542Y-402981857D01*
D10*
D11*
X474004400Y-404489000D02*
X582004400Y-404489000D01*
D10*
D11*
X475436542Y-406567571D02*
X475436542Y-405067571D01*
X476293685Y-406567571D02*
X475650828Y-405710428D01*
X476293685Y-405067571D02*
X475436542Y-405924714D01*
X476936542Y-406567571D02*
X476936542Y-405567571D01*
X476936542Y-405067571D02*
X476865114Y-405139000D01*
X476936542Y-405210428D01*
X477007971Y-405139000D01*
X476936542Y-405067571D01*
X476936542Y-405210428D01*
X478507971Y-406424714D02*
X478436542Y-406496142D01*
X478222257Y-406567571D01*
X478079400Y-406567571D01*
X477865114Y-406496142D01*
X477722257Y-406353285D01*
X477650828Y-406210428D01*
X477579400Y-405924714D01*
X477579400Y-405710428D01*
X477650828Y-405424714D01*
X477722257Y-405281857D01*
X477865114Y-405139000D01*
X478079400Y-405067571D01*
X478222257Y-405067571D01*
X478436542Y-405139000D01*
X478507971Y-405210428D01*
X479793685Y-406567571D02*
X479793685Y-405781857D01*
X479722257Y-405639000D01*
X479579400Y-405567571D01*
X479293685Y-405567571D01*
X479150828Y-405639000D01*
X479793685Y-406496142D02*
X479650828Y-406567571D01*
X479293685Y-406567571D01*
X479150828Y-406496142D01*
X479079400Y-406353285D01*
X479079400Y-406210428D01*
X479150828Y-406067571D01*
X479293685Y-405996142D01*
X479650828Y-405996142D01*
X479793685Y-405924714D01*
X481150828Y-406567571D02*
X481150828Y-405067571D01*
X481150828Y-406496142D02*
X481007971Y-406567571D01*
X480722257Y-406567571D01*
X480579400Y-406496142D01*
X480507971Y-406424714D01*
X480436542Y-406281857D01*
X480436542Y-405853285D01*
X480507971Y-405710428D01*
X480579400Y-405639000D01*
X480722257Y-405567571D01*
X481007971Y-405567571D01*
X481150828Y-405639000D01*
X483007971Y-405781857D02*
X483507971Y-405781857D01*
X483722257Y-406567571D02*
X483007971Y-406567571D01*
X483007971Y-405067571D01*
X483722257Y-405067571D01*
X484365114Y-406424714D02*
X484436542Y-406496142D01*
X484365114Y-406567571D01*
X484293685Y-406496142D01*
X484365114Y-406424714D01*
X484365114Y-406567571D01*
X485079400Y-406567571D02*
X485079400Y-405067571D01*
X485436542Y-405067571D01*
X485650828Y-405139000D01*
X485793685Y-405281857D01*
X485865114Y-405424714D01*
X485936542Y-405710428D01*
X485936542Y-405924714D01*
X485865114Y-406210428D01*
X485793685Y-406353285D01*
X485650828Y-406496142D01*
X485436542Y-406567571D01*
X485079400Y-406567571D01*
X486579400Y-406424714D02*
X486650828Y-406496142D01*
X486579400Y-406567571D01*
X486507971Y-406496142D01*
X486579400Y-406424714D01*
X486579400Y-406567571D01*
X487222257Y-406139000D02*
X487936542Y-406139000D01*
X487079400Y-406567571D02*
X487579400Y-405067571D01*
X488079400Y-406567571D01*
X488579400Y-406424714D02*
X488650828Y-406496142D01*
X488579400Y-406567571D01*
X488507971Y-406496142D01*
X488579400Y-406424714D01*
X488579400Y-406567571D01*
X491579400Y-406567571D02*
X491579400Y-405067571D01*
X491722257Y-405996142D02*
X492150828Y-406567571D01*
X492150828Y-405567571D02*
X491579400Y-406139000D01*
X492793685Y-406567571D02*
X492793685Y-405567571D01*
X492793685Y-405067571D02*
X492722257Y-405139000D01*
X492793685Y-405210428D01*
X492865114Y-405139000D01*
X492793685Y-405067571D01*
X492793685Y-405210428D01*
X494150828Y-406496142D02*
X494007971Y-406567571D01*
X493722257Y-406567571D01*
X493579400Y-406496142D01*
X493507971Y-406424714D01*
X493436542Y-406281857D01*
X493436542Y-405853285D01*
X493507971Y-405710428D01*
X493579400Y-405639000D01*
X493722257Y-405567571D01*
X494007971Y-405567571D01*
X494150828Y-405639000D01*
X495436542Y-406567571D02*
X495436542Y-405781857D01*
X495365114Y-405639000D01*
X495222257Y-405567571D01*
X494936542Y-405567571D01*
X494793685Y-405639000D01*
X495436542Y-406496142D02*
X495293685Y-406567571D01*
X494936542Y-406567571D01*
X494793685Y-406496142D01*
X494722257Y-406353285D01*
X494722257Y-406210428D01*
X494793685Y-406067571D01*
X494936542Y-405996142D01*
X495293685Y-405996142D01*
X495436542Y-405924714D01*
X496793685Y-406567571D02*
X496793685Y-405067571D01*
X496793685Y-406496142D02*
X496650828Y-406567571D01*
X496365114Y-406567571D01*
X496222257Y-406496142D01*
X496150828Y-406424714D01*
X496079400Y-406281857D01*
X496079400Y-405853285D01*
X496150828Y-405710428D01*
X496222257Y-405639000D01*
X496365114Y-405567571D01*
X496650828Y-405567571D01*
X496793685Y-405639000D01*
X499079400Y-407139000D02*
X499007971Y-407067571D01*
X498865114Y-406853285D01*
X498793685Y-406710428D01*
X498722257Y-406496142D01*
X498650828Y-406139000D01*
X498650828Y-405853285D01*
X498722257Y-405496142D01*
X498793685Y-405281857D01*
X498865114Y-405139000D01*
X499007971Y-404924714D01*
X499079400Y-404853285D01*
X500365114Y-405067571D02*
X499650828Y-405067571D01*
X499579400Y-405781857D01*
X499650828Y-405710428D01*
X499793685Y-405639000D01*
X500150828Y-405639000D01*
X500293685Y-405710428D01*
X500365114Y-405781857D01*
X500436542Y-405924714D01*
X500436542Y-406281857D01*
X500365114Y-406424714D01*
X500293685Y-406496142D01*
X500150828Y-406567571D01*
X499793685Y-406567571D01*
X499650828Y-406496142D01*
X499579400Y-406424714D01*
X501079400Y-406424714D02*
X501150828Y-406496142D01*
X501079400Y-406567571D01*
X501007971Y-406496142D01*
X501079400Y-406424714D01*
X501079400Y-406567571D01*
X502579400Y-406567571D02*
X501722257Y-406567571D01*
X502150828Y-406567571D02*
X502150828Y-405067571D01*
X502007971Y-405281857D01*
X501865114Y-405424714D01*
X501722257Y-405496142D01*
X503222257Y-406424714D02*
X503293685Y-406496142D01*
X503222257Y-406567571D01*
X503150828Y-406496142D01*
X503222257Y-406424714D01*
X503222257Y-406567571D01*
X504579400Y-405067571D02*
X504293685Y-405067571D01*
X504150828Y-405139000D01*
X504079400Y-405210428D01*
X503936542Y-405424714D01*
X503865114Y-405710428D01*
X503865114Y-406281857D01*
X503936542Y-406424714D01*
X504007971Y-406496142D01*
X504150828Y-406567571D01*
X504436542Y-406567571D01*
X504579400Y-406496142D01*
X504650828Y-406424714D01*
X504722257Y-406281857D01*
X504722257Y-405924714D01*
X504650828Y-405781857D01*
X504579400Y-405710428D01*
X504436542Y-405639000D01*
X504150828Y-405639000D01*
X504007971Y-405710428D01*
X503936542Y-405781857D01*
X503865114Y-405924714D01*
X505222257Y-407139000D02*
X505293685Y-407067571D01*
X505436542Y-406853285D01*
X505507971Y-406710428D01*
X505579400Y-406496142D01*
X505650828Y-406139000D01*
X505650828Y-405853285D01*
X505579400Y-405496142D01*
X505507971Y-405281857D01*
X505436542Y-405139000D01*
X505293685Y-404924714D01*
X505222257Y-404853285D01*
X506365114Y-405996142D02*
X507507971Y-405996142D01*
X509007971Y-406567571D02*
X508150828Y-406567571D01*
X508579400Y-406567571D02*
X508579400Y-405067571D01*
X508436542Y-405281857D01*
X508293685Y-405424714D01*
X508150828Y-405496142D01*
D10*
D11*
X474004400Y-401489000D02*
X582004400Y-401489000D01*
D10*
D12*
X561413685Y-403767571D02*
X560913685Y-403053285D01*
X560556542Y-403767571D02*
X560556542Y-402267571D01*
X561127971Y-402267571D01*
X561270828Y-402339000D01*
X561342257Y-402410428D01*
X561413685Y-402553285D01*
X561413685Y-402767571D01*
X561342257Y-402910428D01*
X561270828Y-402981857D01*
X561127971Y-403053285D01*
X560556542Y-403053285D01*
X562627971Y-403696142D02*
X562485114Y-403767571D01*
X562199400Y-403767571D01*
X562056542Y-403696142D01*
X561985114Y-403553285D01*
X561985114Y-402981857D01*
X562056542Y-402839000D01*
X562199400Y-402767571D01*
X562485114Y-402767571D01*
X562627971Y-402839000D01*
X562699400Y-402981857D01*
X562699400Y-403124714D01*
X561985114Y-403267571D01*
X563199400Y-402767571D02*
X563556542Y-403767571D01*
X563913685Y-402767571D01*
X564485114Y-403624714D02*
X564556542Y-403696142D01*
X564485114Y-403767571D01*
X564413685Y-403696142D01*
X564485114Y-403624714D01*
X564485114Y-403767571D01*
X564485114Y-402839000D02*
X564556542Y-402910428D01*
X564485114Y-402981857D01*
X564413685Y-402910428D01*
X564485114Y-402839000D01*
X564485114Y-402981857D01*
D10*
D11*
X475365114Y-403696142D02*
X475579400Y-403767571D01*
X475936542Y-403767571D01*
X476079400Y-403696142D01*
X476150828Y-403624714D01*
X476222257Y-403481857D01*
X476222257Y-403339000D01*
X476150828Y-403196142D01*
X476079400Y-403124714D01*
X475936542Y-403053285D01*
X475650828Y-402981857D01*
X475507971Y-402910428D01*
X475436542Y-402839000D01*
X475365114Y-402696142D01*
X475365114Y-402553285D01*
X475436542Y-402410428D01*
X475507971Y-402339000D01*
X475650828Y-402267571D01*
X476007971Y-402267571D01*
X476222257Y-402339000D01*
X476865114Y-403767571D02*
X476865114Y-402767571D01*
X476865114Y-402267571D02*
X476793685Y-402339000D01*
X476865114Y-402410428D01*
X476936542Y-402339000D01*
X476865114Y-402267571D01*
X476865114Y-402410428D01*
X477436542Y-402767571D02*
X478222257Y-402767571D01*
X477436542Y-403767571D01*
X478222257Y-403767571D01*
X479365114Y-403696142D02*
X479222257Y-403767571D01*
X478936542Y-403767571D01*
X478793685Y-403696142D01*
X478722257Y-403553285D01*
X478722257Y-402981857D01*
X478793685Y-402839000D01*
X478936542Y-402767571D01*
X479222257Y-402767571D01*
X479365114Y-402839000D01*
X479436542Y-402981857D01*
X479436542Y-403124714D01*
X478722257Y-403267571D01*
X480079400Y-403624714D02*
X480150828Y-403696142D01*
X480079400Y-403767571D01*
X480007971Y-403696142D01*
X480079400Y-403624714D01*
X480079400Y-403767571D01*
X480079400Y-402839000D02*
X480150828Y-402910428D01*
X480079400Y-402981857D01*
X480007971Y-402910428D01*
X480079400Y-402839000D01*
X480079400Y-402981857D01*
X481865114Y-403339000D02*
X482579400Y-403339000D01*
X481722257Y-403767571D02*
X482222257Y-402267571D01*
X482722257Y-403767571D01*
X483150828Y-402410428D02*
X483222257Y-402339000D01*
X483365114Y-402267571D01*
X483722257Y-402267571D01*
X483865114Y-402339000D01*
X483936542Y-402410428D01*
X484007971Y-402553285D01*
X484007971Y-402696142D01*
X483936542Y-402910428D01*
X483079400Y-403767571D01*
X484007971Y-403767571D01*
D10*
D11*
X560436542Y-406567571D02*
X560436542Y-405067571D01*
X561793685Y-406567571D02*
X561793685Y-405067571D01*
X561793685Y-406496142D02*
X561650828Y-406567571D01*
X561365114Y-406567571D01*
X561222257Y-406496142D01*
X561150828Y-406424714D01*
X561079400Y-406281857D01*
X561079400Y-405853285D01*
X561150828Y-405710428D01*
X561222257Y-405639000D01*
X561365114Y-405567571D01*
X561650828Y-405567571D01*
X561793685Y-405639000D01*
X562507971Y-406424714D02*
X562579400Y-406496142D01*
X562507971Y-406567571D01*
X562436542Y-406496142D01*
X562507971Y-406424714D01*
X562507971Y-406567571D01*
X562507971Y-405639000D02*
X562579400Y-405710428D01*
X562507971Y-405781857D01*
X562436542Y-405710428D01*
X562507971Y-405639000D01*
X562507971Y-405781857D01*
X565150828Y-406567571D02*
X564293685Y-406567571D01*
X564722257Y-406567571D02*
X564722257Y-405067571D01*
X564579400Y-405281857D01*
X564436542Y-405424714D01*
X564293685Y-405496142D01*
X566865114Y-404996142D02*
X565579400Y-406924714D01*
X568150828Y-406567571D02*
X567293685Y-406567571D01*
X567722257Y-406567571D02*
X567722257Y-405067571D01*
X567579400Y-405281857D01*
X567436542Y-405424714D01*
X567293685Y-405496142D01*
D10*
D11*
X474004400Y-397489000D02*
X582004400Y-397489000D01*
D10*
D13*
X475716780Y-398193761D02*
X476859638Y-398193761D01*
X476038209Y-400193761D02*
X476288209Y-398193761D01*
X477276304Y-400193761D02*
X477442971Y-398860428D01*
X477526304Y-398193761D02*
X477419161Y-398289000D01*
X477502495Y-398384238D01*
X477609638Y-398289000D01*
X477526304Y-398193761D01*
X477502495Y-398384238D01*
X478109638Y-398860428D02*
X478871542Y-398860428D01*
X478478685Y-398193761D02*
X478264400Y-399908047D01*
X478335828Y-400098523D01*
X478514400Y-400193761D01*
X478704876Y-400193761D01*
X479657257Y-400193761D02*
X479478685Y-400098523D01*
X479407257Y-399908047D01*
X479621542Y-398193761D01*
X481192971Y-400098523D02*
X480990590Y-400193761D01*
X480609638Y-400193761D01*
X480431066Y-400098523D01*
X480359638Y-399908047D01*
X480454876Y-399146142D01*
X480573923Y-398955666D01*
X480776304Y-398860428D01*
X481157257Y-398860428D01*
X481335828Y-398955666D01*
X481407257Y-399146142D01*
X481383447Y-399336619D01*
X480407257Y-399527095D01*
X482157257Y-400003285D02*
X482240590Y-400098523D01*
X482133447Y-400193761D01*
X482050114Y-400098523D01*
X482157257Y-400003285D01*
X482133447Y-400193761D01*
X482288209Y-398955666D02*
X482371542Y-399050904D01*
X482264400Y-399146142D01*
X482181066Y-399050904D01*
X482288209Y-398955666D01*
X482264400Y-399146142D01*
D10*
D11*
X475936542Y-395581857D02*
X475436542Y-395581857D01*
X475436542Y-396367571D02*
X475436542Y-394867571D01*
X476150828Y-394867571D01*
X476722257Y-396367571D02*
X476722257Y-395367571D01*
X476722257Y-394867571D02*
X476650828Y-394939000D01*
X476722257Y-395010428D01*
X476793685Y-394939000D01*
X476722257Y-394867571D01*
X476722257Y-395010428D01*
X477650828Y-396367571D02*
X477507971Y-396296142D01*
X477436542Y-396153285D01*
X477436542Y-394867571D01*
X478793685Y-396296142D02*
X478650828Y-396367571D01*
X478365114Y-396367571D01*
X478222257Y-396296142D01*
X478150828Y-396153285D01*
X478150828Y-395581857D01*
X478222257Y-395439000D01*
X478365114Y-395367571D01*
X478650828Y-395367571D01*
X478793685Y-395439000D01*
X478865114Y-395581857D01*
X478865114Y-395724714D01*
X478150828Y-395867571D01*
X479507971Y-396224714D02*
X479579400Y-396296142D01*
X479507971Y-396367571D01*
X479436542Y-396296142D01*
X479507971Y-396224714D01*
X479507971Y-396367571D01*
X479507971Y-395439000D02*
X479579400Y-395510428D01*
X479507971Y-395581857D01*
X479436542Y-395510428D01*
X479507971Y-395439000D01*
X479507971Y-395581857D01*
X481150828Y-394867571D02*
X482007971Y-394867571D01*
X481579400Y-396367571D02*
X481579400Y-394867571D01*
X482507971Y-396367571D02*
X482507971Y-394867571D01*
X483365114Y-396367571D02*
X482722257Y-395510428D01*
X483365114Y-394867571D02*
X482507971Y-395724714D01*
X484722257Y-396367571D02*
X484007971Y-396367571D01*
X484007971Y-394867571D01*
X485222257Y-395367571D02*
X485222257Y-396867571D01*
X485222257Y-395439000D02*
X485365114Y-395367571D01*
X485650828Y-395367571D01*
X485793685Y-395439000D01*
X485865114Y-395510428D01*
X485936542Y-395653285D01*
X485936542Y-396081857D01*
X485865114Y-396224714D01*
X485793685Y-396296142D01*
X485650828Y-396367571D01*
X485365114Y-396367571D01*
X485222257Y-396296142D01*
X487222257Y-396296142D02*
X487079400Y-396367571D01*
X486793685Y-396367571D01*
X486650828Y-396296142D01*
X486579400Y-396224714D01*
X486507971Y-396081857D01*
X486507971Y-395653285D01*
X486579400Y-395510428D01*
X486650828Y-395439000D01*
X486793685Y-395367571D01*
X487079400Y-395367571D01*
X487222257Y-395439000D01*
X487865114Y-396367571D02*
X487865114Y-394867571D01*
X487865114Y-395439000D02*
X488007971Y-395367571D01*
X488293685Y-395367571D01*
X488436542Y-395439000D01*
X488507971Y-395510428D01*
X488579400Y-395653285D01*
X488579400Y-396081857D01*
X488507971Y-396224714D01*
X488436542Y-396296142D01*
X488293685Y-396367571D01*
X488007971Y-396367571D01*
X487865114Y-396296142D01*
X489222257Y-396224714D02*
X489293685Y-396296142D01*
X489222257Y-396367571D01*
X489150828Y-396296142D01*
X489222257Y-396224714D01*
X489222257Y-396367571D01*
X489936542Y-396367571D02*
X489936542Y-394867571D01*
X490079400Y-395796142D02*
X490507971Y-396367571D01*
X490507971Y-395367571D02*
X489936542Y-395939000D01*
X491150828Y-396367571D02*
X491150828Y-395367571D01*
X491150828Y-394867571D02*
X491079400Y-394939000D01*
X491150828Y-395010428D01*
X491222257Y-394939000D01*
X491150828Y-394867571D01*
X491150828Y-395010428D01*
X492507971Y-396296142D02*
X492365114Y-396367571D01*
X492079400Y-396367571D01*
X491936542Y-396296142D01*
X491865114Y-396224714D01*
X491793685Y-396081857D01*
X491793685Y-395653285D01*
X491865114Y-395510428D01*
X491936542Y-395439000D01*
X492079400Y-395367571D01*
X492365114Y-395367571D01*
X492507971Y-395439000D01*
X493793685Y-396367571D02*
X493793685Y-395581857D01*
X493722257Y-395439000D01*
X493579400Y-395367571D01*
X493293685Y-395367571D01*
X493150828Y-395439000D01*
X493793685Y-396296142D02*
X493650828Y-396367571D01*
X493293685Y-396367571D01*
X493150828Y-396296142D01*
X493079400Y-396153285D01*
X493079400Y-396010428D01*
X493150828Y-395867571D01*
X493293685Y-395796142D01*
X493650828Y-395796142D01*
X493793685Y-395724714D01*
X495150828Y-396367571D02*
X495150828Y-394867571D01*
X495150828Y-396296142D02*
X495007971Y-396367571D01*
X494722257Y-396367571D01*
X494579400Y-396296142D01*
X494507971Y-396224714D01*
X494436542Y-396081857D01*
X494436542Y-395653285D01*
X494507971Y-395510428D01*
X494579400Y-395439000D01*
X494722257Y-395367571D01*
X495007971Y-395367571D01*
X495150828Y-395439000D01*
X495507971Y-396510428D02*
X496650828Y-396510428D01*
X497007971Y-395367571D02*
X497007971Y-396867571D01*
X497007971Y-395439000D02*
X497150828Y-395367571D01*
X497436542Y-395367571D01*
X497579400Y-395439000D01*
X497650828Y-395510428D01*
X497722257Y-395653285D01*
X497722257Y-396081857D01*
X497650828Y-396224714D01*
X497579400Y-396296142D01*
X497436542Y-396367571D01*
X497150828Y-396367571D01*
X497007971Y-396296142D01*
X499007971Y-396296142D02*
X498865114Y-396367571D01*
X498579400Y-396367571D01*
X498436542Y-396296142D01*
X498365114Y-396224714D01*
X498293685Y-396081857D01*
X498293685Y-395653285D01*
X498365114Y-395510428D01*
X498436542Y-395439000D01*
X498579400Y-395367571D01*
X498865114Y-395367571D01*
X499007971Y-395439000D01*
X499650828Y-396367571D02*
X499650828Y-394867571D01*
X499650828Y-395439000D02*
X499793685Y-395367571D01*
X500079400Y-395367571D01*
X500222257Y-395439000D01*
X500293685Y-395510428D01*
X500365114Y-395653285D01*
X500365114Y-396081857D01*
X500293685Y-396224714D01*
X500222257Y-396296142D01*
X500079400Y-396367571D01*
X499793685Y-396367571D01*
X499650828Y-396296142D01*
D10*
D11*
X474004400Y-391489000D02*
X582004400Y-391489000D01*
D10*
D11*
X475365114Y-393596142D02*
X475579400Y-393667571D01*
X475936542Y-393667571D01*
X476079400Y-393596142D01*
X476150828Y-393524714D01*
X476222257Y-393381857D01*
X476222257Y-393239000D01*
X476150828Y-393096142D01*
X476079400Y-393024714D01*
X475936542Y-392953285D01*
X475650828Y-392881857D01*
X475507971Y-392810428D01*
X475436542Y-392739000D01*
X475365114Y-392596142D01*
X475365114Y-392453285D01*
X475436542Y-392310428D01*
X475507971Y-392239000D01*
X475650828Y-392167571D01*
X476007971Y-392167571D01*
X476222257Y-392239000D01*
X476865114Y-393667571D02*
X476865114Y-392167571D01*
X477507971Y-393667571D02*
X477507971Y-392881857D01*
X477436542Y-392739000D01*
X477293685Y-392667571D01*
X477079400Y-392667571D01*
X476936542Y-392739000D01*
X476865114Y-392810428D01*
X478793685Y-393596142D02*
X478650828Y-393667571D01*
X478365114Y-393667571D01*
X478222257Y-393596142D01*
X478150828Y-393453285D01*
X478150828Y-392881857D01*
X478222257Y-392739000D01*
X478365114Y-392667571D01*
X478650828Y-392667571D01*
X478793685Y-392739000D01*
X478865114Y-392881857D01*
X478865114Y-393024714D01*
X478150828Y-393167571D01*
X480079400Y-393596142D02*
X479936542Y-393667571D01*
X479650828Y-393667571D01*
X479507971Y-393596142D01*
X479436542Y-393453285D01*
X479436542Y-392881857D01*
X479507971Y-392739000D01*
X479650828Y-392667571D01*
X479936542Y-392667571D01*
X480079400Y-392739000D01*
X480150828Y-392881857D01*
X480150828Y-393024714D01*
X479436542Y-393167571D01*
X480579400Y-392667571D02*
X481150828Y-392667571D01*
X480793685Y-392167571D02*
X480793685Y-393453285D01*
X480865114Y-393596142D01*
X481007971Y-393667571D01*
X481150828Y-393667571D01*
X481650828Y-393524714D02*
X481722257Y-393596142D01*
X481650828Y-393667571D01*
X481579400Y-393596142D01*
X481650828Y-393524714D01*
X481650828Y-393667571D01*
X481650828Y-392739000D02*
X481722257Y-392810428D01*
X481650828Y-392881857D01*
X481579400Y-392810428D01*
X481650828Y-392739000D01*
X481650828Y-392881857D01*
D10*
D11*
X494004400Y-401489000D02*
X494004400Y-404489000D01*
D10*
D11*
X558004400Y-401489000D02*
X558004400Y-407989000D01*
D14*
%TO.C,R5*%
X381710000Y-97369948D02*
X381710000Y-97892452D01*
X380290000Y-97369948D02*
X380290000Y-97892452D01*
D11*
%TO.C,U1*%
X349631000Y-104612000D02*
X348356000Y-104612000D01*
X359981000Y-105187000D02*
X359306000Y-105187000D01*
X359981000Y-94837000D02*
X359306000Y-94837000D01*
X349631000Y-94837000D02*
X350306000Y-94837000D01*
X349631000Y-105187000D02*
X350306000Y-105187000D01*
X349631000Y-94837000D02*
X349631000Y-95512000D01*
X359981000Y-94837000D02*
X359981000Y-95512000D01*
X359981000Y-105187000D02*
X359981000Y-104512000D01*
X349631000Y-105187000D02*
X349631000Y-104612000D01*
D14*
%TO.C,R6*%
X381710000Y-104513748D02*
X381710000Y-105036252D01*
X380290000Y-104513748D02*
X380290000Y-105036252D01*
%TO.C,R4*%
X379329000Y-97369948D02*
X379329000Y-97892452D01*
X377909000Y-97369948D02*
X377909000Y-97892452D01*
%TO.C,R3*%
X374566000Y-97369948D02*
X374566000Y-97892452D01*
X373146000Y-97369948D02*
X373146000Y-97892452D01*
%TO.C,R2*%
X369804000Y-109276748D02*
X369804000Y-109799252D01*
X368384000Y-109276748D02*
X368384000Y-109799252D01*
%TO.C,R1*%
X369804000Y-97369948D02*
X369804000Y-97892452D01*
X368384000Y-97369948D02*
X368384000Y-97892452D01*
D15*
%TO.C,D86*%
X365531000Y-143294000D02*
X365531000Y-137394000D01*
X363131000Y-143294000D02*
X365531000Y-143294000D01*
X363131000Y-137394000D02*
X363131000Y-143294000D01*
X365531000Y-137694000D02*
X363131000Y-137694000D01*
X365531000Y-137794000D02*
X363131000Y-137794000D01*
X365531000Y-137594000D02*
X363131000Y-137594000D01*
X365531000Y-137494000D02*
X363131000Y-137494000D01*
X365531000Y-137394000D02*
X363131000Y-137394000D01*
%TO.C,D50*%
X365531000Y-90906200D02*
X365531000Y-85006200D01*
X363131000Y-90906200D02*
X365531000Y-90906200D01*
X363131000Y-85006200D02*
X363131000Y-90906200D01*
X365531000Y-85306200D02*
X363131000Y-85306200D01*
X365531000Y-85406200D02*
X363131000Y-85406200D01*
X365531000Y-85206200D02*
X363131000Y-85206200D01*
X365531000Y-85106200D02*
X363131000Y-85106200D01*
X365531000Y-85006200D02*
X363131000Y-85006200D01*
%TO.C,D33*%
X365531000Y-71856200D02*
X365531000Y-65956200D01*
X363131000Y-71856200D02*
X365531000Y-71856200D01*
X363131000Y-65956200D02*
X363131000Y-71856200D01*
X365531000Y-66256200D02*
X363131000Y-66256200D01*
X365531000Y-66356200D02*
X363131000Y-66356200D01*
X365531000Y-66156200D02*
X363131000Y-66156200D01*
X365531000Y-66056200D02*
X363131000Y-66056200D01*
X365531000Y-65956200D02*
X363131000Y-65956200D01*
%TO.C,D16*%
X367912000Y-52806200D02*
X367912000Y-46906200D01*
X365512000Y-52806200D02*
X367912000Y-52806200D01*
X365512000Y-46906200D02*
X365512000Y-52806200D01*
X367912000Y-47206200D02*
X365512000Y-47206200D01*
X367912000Y-47306200D02*
X365512000Y-47306200D01*
X367912000Y-47106200D02*
X365512000Y-47106200D01*
X367912000Y-47006200D02*
X365512000Y-47006200D01*
X367912000Y-46906200D02*
X365512000Y-46906200D01*
%TO.C,D85*%
X346481000Y-143294000D02*
X346481000Y-137394000D01*
X344081000Y-143294000D02*
X346481000Y-143294000D01*
X344081000Y-137394000D02*
X344081000Y-143294000D01*
X346481000Y-137694000D02*
X344081000Y-137694000D01*
X346481000Y-137794000D02*
X344081000Y-137794000D01*
X346481000Y-137594000D02*
X344081000Y-137594000D01*
X346481000Y-137494000D02*
X344081000Y-137494000D01*
X346481000Y-137394000D02*
X344081000Y-137394000D01*
%TO.C,D76*%
X346481000Y-128200000D02*
X346481000Y-122300000D01*
X344081000Y-128200000D02*
X346481000Y-128200000D01*
X344081000Y-122300000D02*
X344081000Y-128200000D01*
X346481000Y-122600000D02*
X344081000Y-122600000D01*
X346481000Y-122700000D02*
X344081000Y-122700000D01*
X346481000Y-122500000D02*
X344081000Y-122500000D01*
X346481000Y-122400000D02*
X344081000Y-122400000D01*
X346481000Y-122300000D02*
X344081000Y-122300000D01*
%TO.C,D49*%
X346481000Y-90906200D02*
X346481000Y-85006200D01*
X344081000Y-90906200D02*
X346481000Y-90906200D01*
X344081000Y-85006200D02*
X344081000Y-90906200D01*
X346481000Y-85306200D02*
X344081000Y-85306200D01*
X346481000Y-85406200D02*
X344081000Y-85406200D01*
X346481000Y-85206200D02*
X344081000Y-85206200D01*
X346481000Y-85106200D02*
X344081000Y-85106200D01*
X346481000Y-85006200D02*
X344081000Y-85006200D01*
%TO.C,D32*%
X346481000Y-71856200D02*
X346481000Y-65956200D01*
X344081000Y-71856200D02*
X346481000Y-71856200D01*
X344081000Y-65956200D02*
X344081000Y-71856200D01*
X346481000Y-66256200D02*
X344081000Y-66256200D01*
X346481000Y-66356200D02*
X344081000Y-66356200D01*
X346481000Y-66156200D02*
X344081000Y-66156200D01*
X346481000Y-66056200D02*
X344081000Y-66056200D01*
X346481000Y-65956200D02*
X344081000Y-65956200D01*
%TO.C,D15*%
X348862000Y-52806200D02*
X348862000Y-46906200D01*
X346462000Y-52806200D02*
X348862000Y-52806200D01*
X346462000Y-46906200D02*
X346462000Y-52806200D01*
X348862000Y-47206200D02*
X346462000Y-47206200D01*
X348862000Y-47306200D02*
X346462000Y-47306200D01*
X348862000Y-47106200D02*
X346462000Y-47106200D01*
X348862000Y-47006200D02*
X346462000Y-47006200D01*
X348862000Y-46906200D02*
X346462000Y-46906200D01*
%TO.C,D84*%
X327431000Y-143294000D02*
X327431000Y-137394000D01*
X325031000Y-143294000D02*
X327431000Y-143294000D01*
X325031000Y-137394000D02*
X325031000Y-143294000D01*
X327431000Y-137694000D02*
X325031000Y-137694000D01*
X327431000Y-137794000D02*
X325031000Y-137794000D01*
X327431000Y-137594000D02*
X325031000Y-137594000D01*
X327431000Y-137494000D02*
X325031000Y-137494000D01*
X327431000Y-137394000D02*
X325031000Y-137394000D01*
%TO.C,D48*%
X327431000Y-90906200D02*
X327431000Y-85006200D01*
X325031000Y-90906200D02*
X327431000Y-90906200D01*
X325031000Y-85006200D02*
X325031000Y-90906200D01*
X327431000Y-85306200D02*
X325031000Y-85306200D01*
X327431000Y-85406200D02*
X325031000Y-85406200D01*
X327431000Y-85206200D02*
X325031000Y-85206200D01*
X327431000Y-85106200D02*
X325031000Y-85106200D01*
X327431000Y-85006200D02*
X325031000Y-85006200D01*
%TO.C,D31*%
X327431000Y-71856200D02*
X327431000Y-65956200D01*
X325031000Y-71856200D02*
X327431000Y-71856200D01*
X325031000Y-65956200D02*
X325031000Y-71856200D01*
X327431000Y-66256200D02*
X325031000Y-66256200D01*
X327431000Y-66356200D02*
X325031000Y-66356200D01*
X327431000Y-66156200D02*
X325031000Y-66156200D01*
X327431000Y-66056200D02*
X325031000Y-66056200D01*
X327431000Y-65956200D02*
X325031000Y-65956200D01*
%TO.C,D14*%
X329812000Y-52806200D02*
X329812000Y-46906200D01*
X327412000Y-52806200D02*
X329812000Y-52806200D01*
X327412000Y-46906200D02*
X327412000Y-52806200D01*
X329812000Y-47206200D02*
X327412000Y-47206200D01*
X329812000Y-47306200D02*
X327412000Y-47306200D01*
X329812000Y-47106200D02*
X327412000Y-47106200D01*
X329812000Y-47006200D02*
X327412000Y-47006200D01*
X329812000Y-46906200D02*
X327412000Y-46906200D01*
%TO.C,D47*%
X294094000Y-90906200D02*
X294094000Y-85006200D01*
X291694000Y-90906200D02*
X294094000Y-90906200D01*
X291694000Y-85006200D02*
X291694000Y-90906200D01*
X294094000Y-85306200D02*
X291694000Y-85306200D01*
X294094000Y-85406200D02*
X291694000Y-85406200D01*
X294094000Y-85206200D02*
X291694000Y-85206200D01*
X294094000Y-85106200D02*
X291694000Y-85106200D01*
X294094000Y-85006200D02*
X291694000Y-85006200D01*
%TO.C,D30*%
X284569000Y-71856200D02*
X284569000Y-65956200D01*
X282169000Y-71856200D02*
X284569000Y-71856200D01*
X282169000Y-65956200D02*
X282169000Y-71856200D01*
X284569000Y-66256200D02*
X282169000Y-66256200D01*
X284569000Y-66356200D02*
X282169000Y-66356200D01*
X284569000Y-66156200D02*
X282169000Y-66156200D01*
X284569000Y-66056200D02*
X282169000Y-66056200D01*
X284569000Y-65956200D02*
X282169000Y-65956200D01*
%TO.C,D83*%
X296475000Y-143294000D02*
X296475000Y-137394000D01*
X294075000Y-143294000D02*
X296475000Y-143294000D01*
X294075000Y-137394000D02*
X294075000Y-143294000D01*
X296475000Y-137694000D02*
X294075000Y-137694000D01*
X296475000Y-137794000D02*
X294075000Y-137794000D01*
X296475000Y-137594000D02*
X294075000Y-137594000D01*
X296475000Y-137494000D02*
X294075000Y-137494000D01*
X296475000Y-137394000D02*
X294075000Y-137394000D01*
%TO.C,D63*%
X279806000Y-109956000D02*
X279806000Y-104056000D01*
X277406000Y-109956000D02*
X279806000Y-109956000D01*
X277406000Y-104056000D02*
X277406000Y-109956000D01*
X279806000Y-104356000D02*
X277406000Y-104356000D01*
X279806000Y-104456000D02*
X277406000Y-104456000D01*
X279806000Y-104256000D02*
X277406000Y-104256000D01*
X279806000Y-104156000D02*
X277406000Y-104156000D01*
X279806000Y-104056000D02*
X277406000Y-104056000D01*
%TO.C,D46*%
X275044000Y-90906200D02*
X275044000Y-85006200D01*
X272644000Y-90906200D02*
X275044000Y-90906200D01*
X272644000Y-85006200D02*
X272644000Y-90906200D01*
X275044000Y-85306200D02*
X272644000Y-85306200D01*
X275044000Y-85406200D02*
X272644000Y-85406200D01*
X275044000Y-85206200D02*
X272644000Y-85206200D01*
X275044000Y-85106200D02*
X272644000Y-85106200D01*
X275044000Y-85006200D02*
X272644000Y-85006200D01*
%TO.C,D29*%
X265519000Y-71856200D02*
X265519000Y-65956200D01*
X263119000Y-71856200D02*
X265519000Y-71856200D01*
X263119000Y-65956200D02*
X263119000Y-71856200D01*
X265519000Y-66256200D02*
X263119000Y-66256200D01*
X265519000Y-66356200D02*
X263119000Y-66356200D01*
X265519000Y-66156200D02*
X263119000Y-66156200D01*
X265519000Y-66056200D02*
X263119000Y-66056200D01*
X265519000Y-65956200D02*
X263119000Y-65956200D01*
%TO.C,D13*%
X306000000Y-52806200D02*
X306000000Y-46906200D01*
X303600000Y-52806200D02*
X306000000Y-52806200D01*
X303600000Y-46906200D02*
X303600000Y-52806200D01*
X306000000Y-47206200D02*
X303600000Y-47206200D01*
X306000000Y-47306200D02*
X303600000Y-47306200D01*
X306000000Y-47106200D02*
X303600000Y-47106200D01*
X306000000Y-47006200D02*
X303600000Y-47006200D01*
X306000000Y-46906200D02*
X303600000Y-46906200D01*
%TO.C,D82*%
X275044000Y-143294000D02*
X275044000Y-137394000D01*
X272644000Y-143294000D02*
X275044000Y-143294000D01*
X272644000Y-137394000D02*
X272644000Y-143294000D01*
X275044000Y-137694000D02*
X272644000Y-137694000D01*
X275044000Y-137794000D02*
X272644000Y-137794000D01*
X275044000Y-137594000D02*
X272644000Y-137594000D01*
X275044000Y-137494000D02*
X272644000Y-137494000D01*
X275044000Y-137394000D02*
X272644000Y-137394000D01*
%TO.C,D81*%
X246469000Y-143294000D02*
X246469000Y-137394000D01*
X244069000Y-143294000D02*
X246469000Y-143294000D01*
X244069000Y-137394000D02*
X244069000Y-143294000D01*
X246469000Y-137694000D02*
X244069000Y-137694000D01*
X246469000Y-137794000D02*
X244069000Y-137794000D01*
X246469000Y-137594000D02*
X244069000Y-137594000D01*
X246469000Y-137494000D02*
X244069000Y-137494000D01*
X246469000Y-137394000D02*
X244069000Y-137394000D01*
%TO.C,D75*%
X272662000Y-126625000D02*
X272662000Y-120725000D01*
X270262000Y-126625000D02*
X272662000Y-126625000D01*
X270262000Y-120725000D02*
X270262000Y-126625000D01*
X272662000Y-121025000D02*
X270262000Y-121025000D01*
X272662000Y-121125000D02*
X270262000Y-121125000D01*
X272662000Y-120925000D02*
X270262000Y-120925000D01*
X272662000Y-120825000D02*
X270262000Y-120825000D01*
X272662000Y-120725000D02*
X270262000Y-120725000D01*
%TO.C,D62*%
X260756000Y-109956000D02*
X260756000Y-104056000D01*
X258356000Y-109956000D02*
X260756000Y-109956000D01*
X258356000Y-104056000D02*
X258356000Y-109956000D01*
X260756000Y-104356000D02*
X258356000Y-104356000D01*
X260756000Y-104456000D02*
X258356000Y-104456000D01*
X260756000Y-104256000D02*
X258356000Y-104256000D01*
X260756000Y-104156000D02*
X258356000Y-104156000D01*
X260756000Y-104056000D02*
X258356000Y-104056000D01*
%TO.C,D45*%
X255994000Y-90906200D02*
X255994000Y-85006200D01*
X253594000Y-90906200D02*
X255994000Y-90906200D01*
X253594000Y-85006200D02*
X253594000Y-90906200D01*
X255994000Y-85306200D02*
X253594000Y-85306200D01*
X255994000Y-85406200D02*
X253594000Y-85406200D01*
X255994000Y-85206200D02*
X253594000Y-85206200D01*
X255994000Y-85106200D02*
X253594000Y-85106200D01*
X255994000Y-85006200D02*
X253594000Y-85006200D01*
%TO.C,D28*%
X246469000Y-71856200D02*
X246469000Y-65956200D01*
X244069000Y-71856200D02*
X246469000Y-71856200D01*
X244069000Y-65956200D02*
X244069000Y-71856200D01*
X246469000Y-66256200D02*
X244069000Y-66256200D01*
X246469000Y-66356200D02*
X244069000Y-66356200D01*
X246469000Y-66156200D02*
X244069000Y-66156200D01*
X246469000Y-66056200D02*
X244069000Y-66056200D01*
X246469000Y-65956200D02*
X244069000Y-65956200D01*
%TO.C,D12*%
X286950000Y-52806200D02*
X286950000Y-46906200D01*
X284550000Y-52806200D02*
X286950000Y-52806200D01*
X284550000Y-46906200D02*
X284550000Y-52806200D01*
X286950000Y-47206200D02*
X284550000Y-47206200D01*
X286950000Y-47306200D02*
X284550000Y-47306200D01*
X286950000Y-47106200D02*
X284550000Y-47106200D01*
X286950000Y-47006200D02*
X284550000Y-47006200D01*
X286950000Y-46906200D02*
X284550000Y-46906200D01*
%TO.C,D74*%
X251231000Y-129006000D02*
X251231000Y-123106000D01*
X248831000Y-129006000D02*
X251231000Y-129006000D01*
X248831000Y-123106000D02*
X248831000Y-129006000D01*
X251231000Y-123406000D02*
X248831000Y-123406000D01*
X251231000Y-123506000D02*
X248831000Y-123506000D01*
X251231000Y-123306000D02*
X248831000Y-123306000D01*
X251231000Y-123206000D02*
X248831000Y-123206000D01*
X251231000Y-123106000D02*
X248831000Y-123106000D01*
%TO.C,D61*%
X241706000Y-109956000D02*
X241706000Y-104056000D01*
X239306000Y-109956000D02*
X241706000Y-109956000D01*
X239306000Y-104056000D02*
X239306000Y-109956000D01*
X241706000Y-104356000D02*
X239306000Y-104356000D01*
X241706000Y-104456000D02*
X239306000Y-104456000D01*
X241706000Y-104256000D02*
X239306000Y-104256000D01*
X241706000Y-104156000D02*
X239306000Y-104156000D01*
X241706000Y-104056000D02*
X239306000Y-104056000D01*
%TO.C,D44*%
X236944000Y-90906200D02*
X236944000Y-85006200D01*
X234544000Y-90906200D02*
X236944000Y-90906200D01*
X234544000Y-85006200D02*
X234544000Y-90906200D01*
X236944000Y-85306200D02*
X234544000Y-85306200D01*
X236944000Y-85406200D02*
X234544000Y-85406200D01*
X236944000Y-85206200D02*
X234544000Y-85206200D01*
X236944000Y-85106200D02*
X234544000Y-85106200D01*
X236944000Y-85006200D02*
X234544000Y-85006200D01*
%TO.C,D27*%
X227419000Y-71856200D02*
X227419000Y-65956200D01*
X225019000Y-71856200D02*
X227419000Y-71856200D01*
X225019000Y-65956200D02*
X225019000Y-71856200D01*
X227419000Y-66256200D02*
X225019000Y-66256200D01*
X227419000Y-66356200D02*
X225019000Y-66356200D01*
X227419000Y-66156200D02*
X225019000Y-66156200D01*
X227419000Y-66056200D02*
X225019000Y-66056200D01*
X227419000Y-65956200D02*
X225019000Y-65956200D01*
%TO.C,D11*%
X267900000Y-52806200D02*
X267900000Y-46906200D01*
X265500000Y-52806200D02*
X267900000Y-52806200D01*
X265500000Y-46906200D02*
X265500000Y-52806200D01*
X267900000Y-47206200D02*
X265500000Y-47206200D01*
X267900000Y-47306200D02*
X265500000Y-47306200D01*
X267900000Y-47106200D02*
X265500000Y-47106200D01*
X267900000Y-47006200D02*
X265500000Y-47006200D01*
X267900000Y-46906200D02*
X265500000Y-46906200D01*
%TO.C,D73*%
X232181000Y-126625000D02*
X232181000Y-120725000D01*
X229781000Y-126625000D02*
X232181000Y-126625000D01*
X229781000Y-120725000D02*
X229781000Y-126625000D01*
X232181000Y-121025000D02*
X229781000Y-121025000D01*
X232181000Y-121125000D02*
X229781000Y-121125000D01*
X232181000Y-120925000D02*
X229781000Y-120925000D01*
X232181000Y-120825000D02*
X229781000Y-120825000D01*
X232181000Y-120725000D02*
X229781000Y-120725000D01*
%TO.C,D60*%
X222656000Y-109956000D02*
X222656000Y-104056000D01*
X220256000Y-109956000D02*
X222656000Y-109956000D01*
X220256000Y-104056000D02*
X220256000Y-109956000D01*
X222656000Y-104356000D02*
X220256000Y-104356000D01*
X222656000Y-104456000D02*
X220256000Y-104456000D01*
X222656000Y-104256000D02*
X220256000Y-104256000D01*
X222656000Y-104156000D02*
X220256000Y-104156000D01*
X222656000Y-104056000D02*
X220256000Y-104056000D01*
%TO.C,D43*%
X217894000Y-90906200D02*
X217894000Y-85006200D01*
X215494000Y-90906200D02*
X217894000Y-90906200D01*
X215494000Y-85006200D02*
X215494000Y-90906200D01*
X217894000Y-85306200D02*
X215494000Y-85306200D01*
X217894000Y-85406200D02*
X215494000Y-85406200D01*
X217894000Y-85206200D02*
X215494000Y-85206200D01*
X217894000Y-85106200D02*
X215494000Y-85106200D01*
X217894000Y-85006200D02*
X215494000Y-85006200D01*
%TO.C,D26*%
X208369000Y-71856200D02*
X208369000Y-65956200D01*
X205969000Y-71856200D02*
X208369000Y-71856200D01*
X205969000Y-65956200D02*
X205969000Y-71856200D01*
X208369000Y-66256200D02*
X205969000Y-66256200D01*
X208369000Y-66356200D02*
X205969000Y-66356200D01*
X208369000Y-66156200D02*
X205969000Y-66156200D01*
X208369000Y-66056200D02*
X205969000Y-66056200D01*
X208369000Y-65956200D02*
X205969000Y-65956200D01*
%TO.C,D10*%
X248850000Y-52806200D02*
X248850000Y-46906200D01*
X246450000Y-52806200D02*
X248850000Y-52806200D01*
X246450000Y-46906200D02*
X246450000Y-52806200D01*
X248850000Y-47206200D02*
X246450000Y-47206200D01*
X248850000Y-47306200D02*
X246450000Y-47306200D01*
X248850000Y-47106200D02*
X246450000Y-47106200D01*
X248850000Y-47006200D02*
X246450000Y-47006200D01*
X248850000Y-46906200D02*
X246450000Y-46906200D01*
%TO.C,D72*%
X213131000Y-129006000D02*
X213131000Y-123106000D01*
X210731000Y-129006000D02*
X213131000Y-129006000D01*
X210731000Y-123106000D02*
X210731000Y-129006000D01*
X213131000Y-123406000D02*
X210731000Y-123406000D01*
X213131000Y-123506000D02*
X210731000Y-123506000D01*
X213131000Y-123306000D02*
X210731000Y-123306000D01*
X213131000Y-123206000D02*
X210731000Y-123206000D01*
X213131000Y-123106000D02*
X210731000Y-123106000D01*
%TO.C,D59*%
X203606000Y-109956000D02*
X203606000Y-104056000D01*
X201206000Y-109956000D02*
X203606000Y-109956000D01*
X201206000Y-104056000D02*
X201206000Y-109956000D01*
X203606000Y-104356000D02*
X201206000Y-104356000D01*
X203606000Y-104456000D02*
X201206000Y-104456000D01*
X203606000Y-104256000D02*
X201206000Y-104256000D01*
X203606000Y-104156000D02*
X201206000Y-104156000D01*
X203606000Y-104056000D02*
X201206000Y-104056000D01*
%TO.C,D42*%
X198844000Y-90906200D02*
X198844000Y-85006200D01*
X196444000Y-90906200D02*
X198844000Y-90906200D01*
X196444000Y-85006200D02*
X196444000Y-90906200D01*
X198844000Y-85306200D02*
X196444000Y-85306200D01*
X198844000Y-85406200D02*
X196444000Y-85406200D01*
X198844000Y-85206200D02*
X196444000Y-85206200D01*
X198844000Y-85106200D02*
X196444000Y-85106200D01*
X198844000Y-85006200D02*
X196444000Y-85006200D01*
%TO.C,D25*%
X189319000Y-71856200D02*
X189319000Y-65956200D01*
X186919000Y-71856200D02*
X189319000Y-71856200D01*
X186919000Y-65956200D02*
X186919000Y-71856200D01*
X189319000Y-66256200D02*
X186919000Y-66256200D01*
X189319000Y-66356200D02*
X186919000Y-66356200D01*
X189319000Y-66156200D02*
X186919000Y-66156200D01*
X189319000Y-66056200D02*
X186919000Y-66056200D01*
X189319000Y-65956200D02*
X186919000Y-65956200D01*
%TO.C,D9*%
X220275000Y-52806200D02*
X220275000Y-46906200D01*
X217875000Y-52806200D02*
X220275000Y-52806200D01*
X217875000Y-46906200D02*
X217875000Y-52806200D01*
X220275000Y-47206200D02*
X217875000Y-47206200D01*
X220275000Y-47306200D02*
X217875000Y-47306200D01*
X220275000Y-47106200D02*
X217875000Y-47106200D01*
X220275000Y-47006200D02*
X217875000Y-47006200D01*
X220275000Y-46906200D02*
X217875000Y-46906200D01*
%TO.C,D71*%
X194081000Y-129006000D02*
X194081000Y-123106000D01*
X191681000Y-129006000D02*
X194081000Y-129006000D01*
X191681000Y-123106000D02*
X191681000Y-129006000D01*
X194081000Y-123406000D02*
X191681000Y-123406000D01*
X194081000Y-123506000D02*
X191681000Y-123506000D01*
X194081000Y-123306000D02*
X191681000Y-123306000D01*
X194081000Y-123206000D02*
X191681000Y-123206000D01*
X194081000Y-123106000D02*
X191681000Y-123106000D01*
%TO.C,D58*%
X184556000Y-109956000D02*
X184556000Y-104056000D01*
X182156000Y-109956000D02*
X184556000Y-109956000D01*
X182156000Y-104056000D02*
X182156000Y-109956000D01*
X184556000Y-104356000D02*
X182156000Y-104356000D01*
X184556000Y-104456000D02*
X182156000Y-104456000D01*
X184556000Y-104256000D02*
X182156000Y-104256000D01*
X184556000Y-104156000D02*
X182156000Y-104156000D01*
X184556000Y-104056000D02*
X182156000Y-104056000D01*
%TO.C,D41*%
X179794000Y-90906200D02*
X179794000Y-85006200D01*
X177394000Y-90906200D02*
X179794000Y-90906200D01*
X177394000Y-85006200D02*
X177394000Y-90906200D01*
X179794000Y-85306200D02*
X177394000Y-85306200D01*
X179794000Y-85406200D02*
X177394000Y-85406200D01*
X179794000Y-85206200D02*
X177394000Y-85206200D01*
X179794000Y-85106200D02*
X177394000Y-85106200D01*
X179794000Y-85006200D02*
X177394000Y-85006200D01*
%TO.C,D24*%
X170269000Y-71856200D02*
X170269000Y-65956200D01*
X167869000Y-71856200D02*
X170269000Y-71856200D01*
X167869000Y-65956200D02*
X167869000Y-71856200D01*
X170269000Y-66256200D02*
X167869000Y-66256200D01*
X170269000Y-66356200D02*
X167869000Y-66356200D01*
X170269000Y-66156200D02*
X167869000Y-66156200D01*
X170269000Y-66056200D02*
X167869000Y-66056200D01*
X170269000Y-65956200D02*
X167869000Y-65956200D01*
%TO.C,D8*%
X201225000Y-52806200D02*
X201225000Y-46906200D01*
X198825000Y-52806200D02*
X201225000Y-52806200D01*
X198825000Y-46906200D02*
X198825000Y-52806200D01*
X201225000Y-47206200D02*
X198825000Y-47206200D01*
X201225000Y-47306200D02*
X198825000Y-47306200D01*
X201225000Y-47106200D02*
X198825000Y-47106200D01*
X201225000Y-47006200D02*
X198825000Y-47006200D01*
X201225000Y-46906200D02*
X198825000Y-46906200D01*
%TO.C,D80*%
X155981000Y-140912000D02*
X155981000Y-135012000D01*
X153581000Y-140912000D02*
X155981000Y-140912000D01*
X153581000Y-135012000D02*
X153581000Y-140912000D01*
X155981000Y-135312000D02*
X153581000Y-135312000D01*
X155981000Y-135412000D02*
X153581000Y-135412000D01*
X155981000Y-135212000D02*
X153581000Y-135212000D01*
X155981000Y-135112000D02*
X153581000Y-135112000D01*
X155981000Y-135012000D02*
X153581000Y-135012000D01*
%TO.C,D70*%
X175031000Y-129006000D02*
X175031000Y-123106000D01*
X172631000Y-129006000D02*
X175031000Y-129006000D01*
X172631000Y-123106000D02*
X172631000Y-129006000D01*
X175031000Y-123406000D02*
X172631000Y-123406000D01*
X175031000Y-123506000D02*
X172631000Y-123506000D01*
X175031000Y-123306000D02*
X172631000Y-123306000D01*
X175031000Y-123206000D02*
X172631000Y-123206000D01*
X175031000Y-123106000D02*
X172631000Y-123106000D01*
%TO.C,D57*%
X165506000Y-109956000D02*
X165506000Y-104056000D01*
X163106000Y-109956000D02*
X165506000Y-109956000D01*
X163106000Y-104056000D02*
X163106000Y-109956000D01*
X165506000Y-104356000D02*
X163106000Y-104356000D01*
X165506000Y-104456000D02*
X163106000Y-104456000D01*
X165506000Y-104256000D02*
X163106000Y-104256000D01*
X165506000Y-104156000D02*
X163106000Y-104156000D01*
X165506000Y-104056000D02*
X163106000Y-104056000D01*
%TO.C,D40*%
X160744000Y-90906200D02*
X160744000Y-85006200D01*
X158344000Y-90906200D02*
X160744000Y-90906200D01*
X158344000Y-85006200D02*
X158344000Y-90906200D01*
X160744000Y-85306200D02*
X158344000Y-85306200D01*
X160744000Y-85406200D02*
X158344000Y-85406200D01*
X160744000Y-85206200D02*
X158344000Y-85206200D01*
X160744000Y-85106200D02*
X158344000Y-85106200D01*
X160744000Y-85006200D02*
X158344000Y-85006200D01*
%TO.C,D23*%
X151219000Y-71856200D02*
X151219000Y-65956200D01*
X148819000Y-71856200D02*
X151219000Y-71856200D01*
X148819000Y-65956200D02*
X148819000Y-71856200D01*
X151219000Y-66256200D02*
X148819000Y-66256200D01*
X151219000Y-66356200D02*
X148819000Y-66356200D01*
X151219000Y-66156200D02*
X148819000Y-66156200D01*
X151219000Y-66056200D02*
X148819000Y-66056200D01*
X151219000Y-65956200D02*
X148819000Y-65956200D01*
%TO.C,D7*%
X182175000Y-52806200D02*
X182175000Y-46906200D01*
X179775000Y-52806200D02*
X182175000Y-52806200D01*
X179775000Y-46906200D02*
X179775000Y-52806200D01*
X182175000Y-47206200D02*
X179775000Y-47206200D01*
X182175000Y-47306200D02*
X179775000Y-47306200D01*
X182175000Y-47106200D02*
X179775000Y-47106200D01*
X182175000Y-47006200D02*
X179775000Y-47006200D01*
X182175000Y-46906200D02*
X179775000Y-46906200D01*
%TO.C,D69*%
X155981000Y-129006000D02*
X155981000Y-123106000D01*
X153581000Y-129006000D02*
X155981000Y-129006000D01*
X153581000Y-123106000D02*
X153581000Y-129006000D01*
X155981000Y-123406000D02*
X153581000Y-123406000D01*
X155981000Y-123506000D02*
X153581000Y-123506000D01*
X155981000Y-123306000D02*
X153581000Y-123306000D01*
X155981000Y-123206000D02*
X153581000Y-123206000D01*
X155981000Y-123106000D02*
X153581000Y-123106000D01*
%TO.C,D56*%
X146456000Y-109956000D02*
X146456000Y-104056000D01*
X144056000Y-109956000D02*
X146456000Y-109956000D01*
X144056000Y-104056000D02*
X144056000Y-109956000D01*
X146456000Y-104356000D02*
X144056000Y-104356000D01*
X146456000Y-104456000D02*
X144056000Y-104456000D01*
X146456000Y-104256000D02*
X144056000Y-104256000D01*
X146456000Y-104156000D02*
X144056000Y-104156000D01*
X146456000Y-104056000D02*
X144056000Y-104056000D01*
%TO.C,D39*%
X141694000Y-90906200D02*
X141694000Y-85006200D01*
X139294000Y-90906200D02*
X141694000Y-90906200D01*
X139294000Y-85006200D02*
X139294000Y-90906200D01*
X141694000Y-85306200D02*
X139294000Y-85306200D01*
X141694000Y-85406200D02*
X139294000Y-85406200D01*
X141694000Y-85206200D02*
X139294000Y-85206200D01*
X141694000Y-85106200D02*
X139294000Y-85106200D01*
X141694000Y-85006200D02*
X139294000Y-85006200D01*
%TO.C,D22*%
X132169000Y-71856200D02*
X132169000Y-65956200D01*
X129769000Y-71856200D02*
X132169000Y-71856200D01*
X129769000Y-65956200D02*
X129769000Y-71856200D01*
X132169000Y-66256200D02*
X129769000Y-66256200D01*
X132169000Y-66356200D02*
X129769000Y-66356200D01*
X132169000Y-66156200D02*
X129769000Y-66156200D01*
X132169000Y-66056200D02*
X129769000Y-66056200D01*
X132169000Y-65956200D02*
X129769000Y-65956200D01*
%TO.C,D6*%
X163125000Y-52806200D02*
X163125000Y-46906200D01*
X160725000Y-52806200D02*
X163125000Y-52806200D01*
X160725000Y-46906200D02*
X160725000Y-52806200D01*
X163125000Y-47206200D02*
X160725000Y-47206200D01*
X163125000Y-47306200D02*
X160725000Y-47306200D01*
X163125000Y-47106200D02*
X160725000Y-47106200D01*
X163125000Y-47006200D02*
X160725000Y-47006200D01*
X163125000Y-46906200D02*
X160725000Y-46906200D01*
%TO.C,D68*%
X136931000Y-129006000D02*
X136931000Y-123106000D01*
X134531000Y-129006000D02*
X136931000Y-129006000D01*
X134531000Y-123106000D02*
X134531000Y-129006000D01*
X136931000Y-123406000D02*
X134531000Y-123406000D01*
X136931000Y-123506000D02*
X134531000Y-123506000D01*
X136931000Y-123306000D02*
X134531000Y-123306000D01*
X136931000Y-123206000D02*
X134531000Y-123206000D01*
X136931000Y-123106000D02*
X134531000Y-123106000D01*
%TO.C,D55*%
X127406000Y-109956000D02*
X127406000Y-104056000D01*
X125006000Y-109956000D02*
X127406000Y-109956000D01*
X125006000Y-104056000D02*
X125006000Y-109956000D01*
X127406000Y-104356000D02*
X125006000Y-104356000D01*
X127406000Y-104456000D02*
X125006000Y-104456000D01*
X127406000Y-104256000D02*
X125006000Y-104256000D01*
X127406000Y-104156000D02*
X125006000Y-104156000D01*
X127406000Y-104056000D02*
X125006000Y-104056000D01*
%TO.C,D38*%
X122644000Y-90906200D02*
X122644000Y-85006200D01*
X120244000Y-90906200D02*
X122644000Y-90906200D01*
X120244000Y-85006200D02*
X120244000Y-90906200D01*
X122644000Y-85306200D02*
X120244000Y-85306200D01*
X122644000Y-85406200D02*
X120244000Y-85406200D01*
X122644000Y-85206200D02*
X120244000Y-85206200D01*
X122644000Y-85106200D02*
X120244000Y-85106200D01*
X122644000Y-85006200D02*
X120244000Y-85006200D01*
%TO.C,D21*%
X113119000Y-71856200D02*
X113119000Y-65956200D01*
X110719000Y-71856200D02*
X113119000Y-71856200D01*
X110719000Y-65956200D02*
X110719000Y-71856200D01*
X113119000Y-66256200D02*
X110719000Y-66256200D01*
X113119000Y-66356200D02*
X110719000Y-66356200D01*
X113119000Y-66156200D02*
X110719000Y-66156200D01*
X113119000Y-66056200D02*
X110719000Y-66056200D01*
X113119000Y-65956200D02*
X110719000Y-65956200D01*
%TO.C,D5*%
X134550000Y-52806200D02*
X134550000Y-46906200D01*
X132150000Y-52806200D02*
X134550000Y-52806200D01*
X132150000Y-46906200D02*
X132150000Y-52806200D01*
X134550000Y-47206200D02*
X132150000Y-47206200D01*
X134550000Y-47306200D02*
X132150000Y-47306200D01*
X134550000Y-47106200D02*
X132150000Y-47106200D01*
X134550000Y-47006200D02*
X132150000Y-47006200D01*
X134550000Y-46906200D02*
X132150000Y-46906200D01*
%TO.C,D67*%
X117881000Y-129006000D02*
X117881000Y-123106000D01*
X115481000Y-129006000D02*
X117881000Y-129006000D01*
X115481000Y-123106000D02*
X115481000Y-129006000D01*
X117881000Y-123406000D02*
X115481000Y-123406000D01*
X117881000Y-123506000D02*
X115481000Y-123506000D01*
X117881000Y-123306000D02*
X115481000Y-123306000D01*
X117881000Y-123206000D02*
X115481000Y-123206000D01*
X117881000Y-123106000D02*
X115481000Y-123106000D01*
%TO.C,D54*%
X108356000Y-109956000D02*
X108356000Y-104056000D01*
X105956000Y-109956000D02*
X108356000Y-109956000D01*
X105956000Y-104056000D02*
X105956000Y-109956000D01*
X108356000Y-104356000D02*
X105956000Y-104356000D01*
X108356000Y-104456000D02*
X105956000Y-104456000D01*
X108356000Y-104256000D02*
X105956000Y-104256000D01*
X108356000Y-104156000D02*
X105956000Y-104156000D01*
X108356000Y-104056000D02*
X105956000Y-104056000D01*
%TO.C,D37*%
X103594000Y-90906200D02*
X103594000Y-85006200D01*
X101194000Y-90906200D02*
X103594000Y-90906200D01*
X101194000Y-85006200D02*
X101194000Y-90906200D01*
X103594000Y-85306200D02*
X101194000Y-85306200D01*
X103594000Y-85406200D02*
X101194000Y-85406200D01*
X103594000Y-85206200D02*
X101194000Y-85206200D01*
X103594000Y-85106200D02*
X101194000Y-85106200D01*
X103594000Y-85006200D02*
X101194000Y-85006200D01*
%TO.C,D20*%
X94068800Y-71856200D02*
X94068800Y-65956200D01*
X91668800Y-71856200D02*
X94068800Y-71856200D01*
X91668800Y-65956200D02*
X91668800Y-71856200D01*
X94068800Y-66256200D02*
X91668800Y-66256200D01*
X94068800Y-66356200D02*
X91668800Y-66356200D01*
X94068800Y-66156200D02*
X91668800Y-66156200D01*
X94068800Y-66056200D02*
X91668800Y-66056200D01*
X94068800Y-65956200D02*
X91668800Y-65956200D01*
%TO.C,D4*%
X115500000Y-52806200D02*
X115500000Y-46906200D01*
X113100000Y-52806200D02*
X115500000Y-52806200D01*
X113100000Y-46906200D02*
X113100000Y-52806200D01*
X115500000Y-47206200D02*
X113100000Y-47206200D01*
X115500000Y-47306200D02*
X113100000Y-47306200D01*
X115500000Y-47106200D02*
X113100000Y-47106200D01*
X115500000Y-47006200D02*
X113100000Y-47006200D01*
X115500000Y-46906200D02*
X113100000Y-46906200D01*
%TO.C,D79*%
X86925000Y-145675000D02*
X86925000Y-139775000D01*
X84525000Y-145675000D02*
X86925000Y-145675000D01*
X84525000Y-139775000D02*
X84525000Y-145675000D01*
X86925000Y-140075000D02*
X84525000Y-140075000D01*
X86925000Y-140175000D02*
X84525000Y-140175000D01*
X86925000Y-139975000D02*
X84525000Y-139975000D01*
X86925000Y-139875000D02*
X84525000Y-139875000D01*
X86925000Y-139775000D02*
X84525000Y-139775000D01*
%TO.C,D66*%
X98831200Y-129006000D02*
X98831200Y-123106000D01*
X96431200Y-129006000D02*
X98831200Y-129006000D01*
X96431200Y-123106000D02*
X96431200Y-129006000D01*
X98831200Y-123406000D02*
X96431200Y-123406000D01*
X98831200Y-123506000D02*
X96431200Y-123506000D01*
X98831200Y-123306000D02*
X96431200Y-123306000D01*
X98831200Y-123206000D02*
X96431200Y-123206000D01*
X98831200Y-123106000D02*
X96431200Y-123106000D01*
%TO.C,D53*%
X89306200Y-109956000D02*
X89306200Y-104056000D01*
X86906200Y-109956000D02*
X89306200Y-109956000D01*
X86906200Y-104056000D02*
X86906200Y-109956000D01*
X89306200Y-104356000D02*
X86906200Y-104356000D01*
X89306200Y-104456000D02*
X86906200Y-104456000D01*
X89306200Y-104256000D02*
X86906200Y-104256000D01*
X89306200Y-104156000D02*
X86906200Y-104156000D01*
X89306200Y-104056000D02*
X86906200Y-104056000D01*
%TO.C,D36*%
X84543800Y-90906200D02*
X84543800Y-85006200D01*
X82143800Y-90906200D02*
X84543800Y-90906200D01*
X82143800Y-85006200D02*
X82143800Y-90906200D01*
X84543800Y-85306200D02*
X82143800Y-85306200D01*
X84543800Y-85406200D02*
X82143800Y-85406200D01*
X84543800Y-85206200D02*
X82143800Y-85206200D01*
X84543800Y-85106200D02*
X82143800Y-85106200D01*
X84543800Y-85006200D02*
X82143800Y-85006200D01*
%TO.C,D19*%
X75018800Y-71856200D02*
X75018800Y-65956200D01*
X72618800Y-71856200D02*
X75018800Y-71856200D01*
X72618800Y-65956200D02*
X72618800Y-71856200D01*
X75018800Y-66256200D02*
X72618800Y-66256200D01*
X75018800Y-66356200D02*
X72618800Y-66356200D01*
X75018800Y-66156200D02*
X72618800Y-66156200D01*
X75018800Y-66056200D02*
X72618800Y-66056200D01*
X75018800Y-65956200D02*
X72618800Y-65956200D01*
%TO.C,D3*%
X96450000Y-52806200D02*
X96450000Y-46906200D01*
X94050000Y-52806200D02*
X96450000Y-52806200D01*
X94050000Y-46906200D02*
X94050000Y-52806200D01*
X96450000Y-47206200D02*
X94050000Y-47206200D01*
X96450000Y-47306200D02*
X94050000Y-47306200D01*
X96450000Y-47106200D02*
X94050000Y-47106200D01*
X96450000Y-47006200D02*
X94050000Y-47006200D01*
X96450000Y-46906200D02*
X94050000Y-46906200D01*
%TO.C,D78*%
X65493800Y-145675000D02*
X65493800Y-139775000D01*
X63093800Y-145675000D02*
X65493800Y-145675000D01*
X63093800Y-139775000D02*
X63093800Y-145675000D01*
X65493800Y-140075000D02*
X63093800Y-140075000D01*
X65493800Y-140175000D02*
X63093800Y-140175000D01*
X65493800Y-139975000D02*
X63093800Y-139975000D01*
X65493800Y-139875000D02*
X63093800Y-139875000D01*
X65493800Y-139775000D02*
X63093800Y-139775000D01*
%TO.C,D65*%
X79781200Y-129006000D02*
X79781200Y-123106000D01*
X77381200Y-129006000D02*
X79781200Y-129006000D01*
X77381200Y-123106000D02*
X77381200Y-129006000D01*
X79781200Y-123406000D02*
X77381200Y-123406000D01*
X79781200Y-123506000D02*
X77381200Y-123506000D01*
X79781200Y-123306000D02*
X77381200Y-123306000D01*
X79781200Y-123206000D02*
X77381200Y-123206000D01*
X79781200Y-123106000D02*
X77381200Y-123106000D01*
%TO.C,D52*%
X70256200Y-107575000D02*
X70256200Y-101675000D01*
X67856200Y-107575000D02*
X70256200Y-107575000D01*
X67856200Y-101675000D02*
X67856200Y-107575000D01*
X70256200Y-101975000D02*
X67856200Y-101975000D01*
X70256200Y-102075000D02*
X67856200Y-102075000D01*
X70256200Y-101875000D02*
X67856200Y-101875000D01*
X70256200Y-101775000D02*
X67856200Y-101775000D01*
X70256200Y-101675000D02*
X67856200Y-101675000D01*
%TO.C,D35*%
X65493800Y-90906200D02*
X65493800Y-85006200D01*
X63093800Y-90906200D02*
X65493800Y-90906200D01*
X63093800Y-85006200D02*
X63093800Y-90906200D01*
X65493800Y-85306200D02*
X63093800Y-85306200D01*
X65493800Y-85406200D02*
X63093800Y-85406200D01*
X65493800Y-85206200D02*
X63093800Y-85206200D01*
X65493800Y-85106200D02*
X63093800Y-85106200D01*
X65493800Y-85006200D02*
X63093800Y-85006200D01*
%TO.C,D18*%
X55968800Y-71856200D02*
X55968800Y-65956200D01*
X53568800Y-71856200D02*
X55968800Y-71856200D01*
X53568800Y-65956200D02*
X53568800Y-71856200D01*
X55968800Y-66256200D02*
X53568800Y-66256200D01*
X55968800Y-66356200D02*
X53568800Y-66356200D01*
X55968800Y-66156200D02*
X53568800Y-66156200D01*
X55968800Y-66056200D02*
X53568800Y-66056200D01*
X55968800Y-65956200D02*
X53568800Y-65956200D01*
%TO.C,D2*%
X77400000Y-52806200D02*
X77400000Y-46906200D01*
X75000000Y-52806200D02*
X77400000Y-52806200D01*
X75000000Y-46906200D02*
X75000000Y-52806200D01*
X77400000Y-47206200D02*
X75000000Y-47206200D01*
X77400000Y-47306200D02*
X75000000Y-47306200D01*
X77400000Y-47106200D02*
X75000000Y-47106200D01*
X77400000Y-47006200D02*
X75000000Y-47006200D01*
X77400000Y-46906200D02*
X75000000Y-46906200D01*
%TO.C,D77*%
X39300000Y-145675000D02*
X39300000Y-139775000D01*
X36900000Y-145675000D02*
X39300000Y-145675000D01*
X36900000Y-139775000D02*
X36900000Y-145675000D01*
X39300000Y-140075000D02*
X36900000Y-140075000D01*
X39300000Y-140175000D02*
X36900000Y-140175000D01*
X39300000Y-139975000D02*
X36900000Y-139975000D01*
X39300000Y-139875000D02*
X36900000Y-139875000D01*
X39300000Y-139775000D02*
X36900000Y-139775000D01*
%TO.C,D64*%
X39300000Y-129006000D02*
X39300000Y-123106000D01*
X36900000Y-129006000D02*
X39300000Y-129006000D01*
X36900000Y-123106000D02*
X36900000Y-129006000D01*
X39300000Y-123406000D02*
X36900000Y-123406000D01*
X39300000Y-123506000D02*
X36900000Y-123506000D01*
X39300000Y-123306000D02*
X36900000Y-123306000D01*
X39300000Y-123206000D02*
X36900000Y-123206000D01*
X39300000Y-123106000D02*
X36900000Y-123106000D01*
%TO.C,D51*%
X39300000Y-109956000D02*
X39300000Y-104056000D01*
X36900000Y-109956000D02*
X39300000Y-109956000D01*
X36900000Y-104056000D02*
X36900000Y-109956000D01*
X39300000Y-104356000D02*
X36900000Y-104356000D01*
X39300000Y-104456000D02*
X36900000Y-104456000D01*
X39300000Y-104256000D02*
X36900000Y-104256000D01*
X39300000Y-104156000D02*
X36900000Y-104156000D01*
X39300000Y-104056000D02*
X36900000Y-104056000D01*
%TO.C,D34*%
X39300000Y-90906200D02*
X39300000Y-85006200D01*
X36900000Y-90906200D02*
X39300000Y-90906200D01*
X36900000Y-85006200D02*
X36900000Y-90906200D01*
X39300000Y-85306200D02*
X36900000Y-85306200D01*
X39300000Y-85406200D02*
X36900000Y-85406200D01*
X39300000Y-85206200D02*
X36900000Y-85206200D01*
X39300000Y-85106200D02*
X36900000Y-85106200D01*
X39300000Y-85006200D02*
X36900000Y-85006200D01*
%TO.C,D17*%
X39300000Y-71856200D02*
X39300000Y-65956200D01*
X36900000Y-71856200D02*
X39300000Y-71856200D01*
X36900000Y-65956200D02*
X36900000Y-71856200D01*
X39300000Y-66256200D02*
X36900000Y-66256200D01*
X39300000Y-66356200D02*
X36900000Y-66356200D01*
X39300000Y-66156200D02*
X36900000Y-66156200D01*
X39300000Y-66056200D02*
X36900000Y-66056200D01*
X39300000Y-65956200D02*
X36900000Y-65956200D01*
%TO.C,D1*%
X39300000Y-52806200D02*
X39300000Y-46906200D01*
X36900000Y-52806200D02*
X39300000Y-52806200D01*
X36900000Y-46906200D02*
X36900000Y-52806200D01*
X39300000Y-47206200D02*
X36900000Y-47206200D01*
X39300000Y-47306200D02*
X36900000Y-47306200D01*
X39300000Y-47106200D02*
X36900000Y-47106200D01*
X39300000Y-47006200D02*
X36900000Y-47006200D01*
X39300000Y-46906200D02*
X36900000Y-46906200D01*
D14*
%TO.C,C8*%
X369804000Y-102132748D02*
X369804000Y-102655252D01*
X368384000Y-102132748D02*
X368384000Y-102655252D01*
%TO.C,C7*%
X379329000Y-104513748D02*
X379329000Y-105036252D01*
X377909000Y-104513748D02*
X377909000Y-105036252D01*
%TO.C,C6*%
X375976748Y-108828000D02*
X376499252Y-108828000D01*
X375976748Y-110248000D02*
X376499252Y-110248000D01*
%TO.C,R5*%
D11*
X379802380Y-97464533D02*
X379326190Y-97131200D01*
X379802380Y-96893104D02*
X378802380Y-96893104D01*
X378802380Y-97274057D01*
X378850000Y-97369295D01*
X378897619Y-97416914D01*
X378992857Y-97464533D01*
X379135714Y-97464533D01*
X379230952Y-97416914D01*
X379278571Y-97369295D01*
X379326190Y-97274057D01*
X379326190Y-96893104D01*
X378802380Y-98369295D02*
X378802380Y-97893104D01*
X379278571Y-97845485D01*
X379230952Y-97893104D01*
X379183333Y-97988342D01*
X379183333Y-98226438D01*
X379230952Y-98321676D01*
X379278571Y-98369295D01*
X379373809Y-98416914D01*
X379611904Y-98416914D01*
X379707142Y-98369295D01*
X379754761Y-98321676D01*
X379802380Y-98226438D01*
X379802380Y-97988342D01*
X379754761Y-97893104D01*
X379707142Y-97845485D01*
%TO.C,X1*%
D16*
X373424356Y-106560850D02*
X373161675Y-106954871D01*
X373161675Y-106560850D02*
X373424356Y-106954871D01*
X372805180Y-106954871D02*
X373030335Y-106954871D01*
X372917757Y-106954871D02*
X372917757Y-106560850D01*
X372955283Y-106617139D01*
X372992809Y-106654665D01*
X373030335Y-106673428D01*
%TO.C,U1*%
D11*
X355567904Y-106914380D02*
X355567904Y-107723904D01*
X355520285Y-107819142D01*
X355472666Y-107866761D01*
X355377428Y-107914380D01*
X355186952Y-107914380D01*
X355091714Y-107866761D01*
X355044095Y-107819142D01*
X354996476Y-107723904D01*
X354996476Y-106914380D01*
X353996476Y-107914380D02*
X354567904Y-107914380D01*
X354282190Y-107914380D02*
X354282190Y-106914380D01*
X354377428Y-107057238D01*
X354472666Y-107152476D01*
X354567904Y-107200095D01*
%TO.C,R6*%
X379802380Y-104608333D02*
X379326190Y-104275000D01*
X379802380Y-104036904D02*
X378802380Y-104036904D01*
X378802380Y-104417857D01*
X378850000Y-104513095D01*
X378897619Y-104560714D01*
X378992857Y-104608333D01*
X379135714Y-104608333D01*
X379230952Y-104560714D01*
X379278571Y-104513095D01*
X379326190Y-104417857D01*
X379326190Y-104036904D01*
X378802380Y-105465476D02*
X378802380Y-105275000D01*
X378850000Y-105179761D01*
X378897619Y-105132142D01*
X379040476Y-105036904D01*
X379230952Y-104989285D01*
X379611904Y-104989285D01*
X379707142Y-105036904D01*
X379754761Y-105084523D01*
X379802380Y-105179761D01*
X379802380Y-105370238D01*
X379754761Y-105465476D01*
X379707142Y-105513095D01*
X379611904Y-105560714D01*
X379373809Y-105560714D01*
X379278571Y-105513095D01*
X379230952Y-105465476D01*
X379183333Y-105370238D01*
X379183333Y-105179761D01*
X379230952Y-105084523D01*
X379278571Y-105036904D01*
X379373809Y-104989285D01*
%TO.C,R4*%
X377421380Y-97464533D02*
X376945190Y-97131200D01*
X377421380Y-96893104D02*
X376421380Y-96893104D01*
X376421380Y-97274057D01*
X376469000Y-97369295D01*
X376516619Y-97416914D01*
X376611857Y-97464533D01*
X376754714Y-97464533D01*
X376849952Y-97416914D01*
X376897571Y-97369295D01*
X376945190Y-97274057D01*
X376945190Y-96893104D01*
X376754714Y-98321676D02*
X377421380Y-98321676D01*
X376373761Y-98083580D02*
X377088047Y-97845485D01*
X377088047Y-98464533D01*
%TO.C,R3*%
X372658380Y-97464533D02*
X372182190Y-97131200D01*
X372658380Y-96893104D02*
X371658380Y-96893104D01*
X371658380Y-97274057D01*
X371706000Y-97369295D01*
X371753619Y-97416914D01*
X371848857Y-97464533D01*
X371991714Y-97464533D01*
X372086952Y-97416914D01*
X372134571Y-97369295D01*
X372182190Y-97274057D01*
X372182190Y-96893104D01*
X371658380Y-97797866D02*
X371658380Y-98416914D01*
X372039333Y-98083580D01*
X372039333Y-98226438D01*
X372086952Y-98321676D01*
X372134571Y-98369295D01*
X372229809Y-98416914D01*
X372467904Y-98416914D01*
X372563142Y-98369295D01*
X372610761Y-98321676D01*
X372658380Y-98226438D01*
X372658380Y-97940723D01*
X372610761Y-97845485D01*
X372563142Y-97797866D01*
%TO.C,R2*%
X367896380Y-109371333D02*
X367420190Y-109038000D01*
X367896380Y-108799904D02*
X366896380Y-108799904D01*
X366896380Y-109180857D01*
X366944000Y-109276095D01*
X366991619Y-109323714D01*
X367086857Y-109371333D01*
X367229714Y-109371333D01*
X367324952Y-109323714D01*
X367372571Y-109276095D01*
X367420190Y-109180857D01*
X367420190Y-108799904D01*
X366991619Y-109752285D02*
X366944000Y-109799904D01*
X366896380Y-109895142D01*
X366896380Y-110133238D01*
X366944000Y-110228476D01*
X366991619Y-110276095D01*
X367086857Y-110323714D01*
X367182095Y-110323714D01*
X367324952Y-110276095D01*
X367896380Y-109704666D01*
X367896380Y-110323714D01*
%TO.C,R1*%
X367896380Y-97464533D02*
X367420190Y-97131200D01*
X367896380Y-96893104D02*
X366896380Y-96893104D01*
X366896380Y-97274057D01*
X366944000Y-97369295D01*
X366991619Y-97416914D01*
X367086857Y-97464533D01*
X367229714Y-97464533D01*
X367324952Y-97416914D01*
X367372571Y-97369295D01*
X367420190Y-97274057D01*
X367420190Y-96893104D01*
X367896380Y-98416914D02*
X367896380Y-97845485D01*
X367896380Y-98131200D02*
X366896380Y-98131200D01*
X367039238Y-98035961D01*
X367134476Y-97940723D01*
X367182095Y-97845485D01*
%TO.C,D86*%
X366617904Y-139522571D02*
X365817904Y-139522571D01*
X365817904Y-139713047D01*
X365856000Y-139827333D01*
X365932190Y-139903523D01*
X366008380Y-139941619D01*
X366160761Y-139979714D01*
X366275047Y-139979714D01*
X366427428Y-139941619D01*
X366503619Y-139903523D01*
X366579809Y-139827333D01*
X366617904Y-139713047D01*
X366617904Y-139522571D01*
X366160761Y-140436857D02*
X366122666Y-140360666D01*
X366084571Y-140322571D01*
X366008380Y-140284476D01*
X365970285Y-140284476D01*
X365894095Y-140322571D01*
X365856000Y-140360666D01*
X365817904Y-140436857D01*
X365817904Y-140589238D01*
X365856000Y-140665428D01*
X365894095Y-140703523D01*
X365970285Y-140741619D01*
X366008380Y-140741619D01*
X366084571Y-140703523D01*
X366122666Y-140665428D01*
X366160761Y-140589238D01*
X366160761Y-140436857D01*
X366198857Y-140360666D01*
X366236952Y-140322571D01*
X366313142Y-140284476D01*
X366465523Y-140284476D01*
X366541714Y-140322571D01*
X366579809Y-140360666D01*
X366617904Y-140436857D01*
X366617904Y-140589238D01*
X366579809Y-140665428D01*
X366541714Y-140703523D01*
X366465523Y-140741619D01*
X366313142Y-140741619D01*
X366236952Y-140703523D01*
X366198857Y-140665428D01*
X366160761Y-140589238D01*
X365817904Y-141427333D02*
X365817904Y-141274952D01*
X365856000Y-141198761D01*
X365894095Y-141160666D01*
X366008380Y-141084476D01*
X366160761Y-141046380D01*
X366465523Y-141046380D01*
X366541714Y-141084476D01*
X366579809Y-141122571D01*
X366617904Y-141198761D01*
X366617904Y-141351142D01*
X366579809Y-141427333D01*
X366541714Y-141465428D01*
X366465523Y-141503523D01*
X366275047Y-141503523D01*
X366198857Y-141465428D01*
X366160761Y-141427333D01*
X366122666Y-141351142D01*
X366122666Y-141198761D01*
X366160761Y-141122571D01*
X366198857Y-141084476D01*
X366275047Y-141046380D01*
%TO.C,D50*%
X366617904Y-87134771D02*
X365817904Y-87134771D01*
X365817904Y-87325247D01*
X365856000Y-87439533D01*
X365932190Y-87515723D01*
X366008380Y-87553819D01*
X366160761Y-87591914D01*
X366275047Y-87591914D01*
X366427428Y-87553819D01*
X366503619Y-87515723D01*
X366579809Y-87439533D01*
X366617904Y-87325247D01*
X366617904Y-87134771D01*
X365817904Y-88315723D02*
X365817904Y-87934771D01*
X366198857Y-87896676D01*
X366160761Y-87934771D01*
X366122666Y-88010961D01*
X366122666Y-88201438D01*
X366160761Y-88277628D01*
X366198857Y-88315723D01*
X366275047Y-88353819D01*
X366465523Y-88353819D01*
X366541714Y-88315723D01*
X366579809Y-88277628D01*
X366617904Y-88201438D01*
X366617904Y-88010961D01*
X366579809Y-87934771D01*
X366541714Y-87896676D01*
X365817904Y-88849057D02*
X365817904Y-88925247D01*
X365856000Y-89001438D01*
X365894095Y-89039533D01*
X365970285Y-89077628D01*
X366122666Y-89115723D01*
X366313142Y-89115723D01*
X366465523Y-89077628D01*
X366541714Y-89039533D01*
X366579809Y-89001438D01*
X366617904Y-88925247D01*
X366617904Y-88849057D01*
X366579809Y-88772866D01*
X366541714Y-88734771D01*
X366465523Y-88696676D01*
X366313142Y-88658580D01*
X366122666Y-88658580D01*
X365970285Y-88696676D01*
X365894095Y-88734771D01*
X365856000Y-88772866D01*
X365817904Y-88849057D01*
%TO.C,D33*%
X366617904Y-68084771D02*
X365817904Y-68084771D01*
X365817904Y-68275247D01*
X365856000Y-68389533D01*
X365932190Y-68465723D01*
X366008380Y-68503819D01*
X366160761Y-68541914D01*
X366275047Y-68541914D01*
X366427428Y-68503819D01*
X366503619Y-68465723D01*
X366579809Y-68389533D01*
X366617904Y-68275247D01*
X366617904Y-68084771D01*
X365817904Y-68808580D02*
X365817904Y-69303819D01*
X366122666Y-69037152D01*
X366122666Y-69151438D01*
X366160761Y-69227628D01*
X366198857Y-69265723D01*
X366275047Y-69303819D01*
X366465523Y-69303819D01*
X366541714Y-69265723D01*
X366579809Y-69227628D01*
X366617904Y-69151438D01*
X366617904Y-68922866D01*
X366579809Y-68846676D01*
X366541714Y-68808580D01*
X365817904Y-69570485D02*
X365817904Y-70065723D01*
X366122666Y-69799057D01*
X366122666Y-69913342D01*
X366160761Y-69989533D01*
X366198857Y-70027628D01*
X366275047Y-70065723D01*
X366465523Y-70065723D01*
X366541714Y-70027628D01*
X366579809Y-69989533D01*
X366617904Y-69913342D01*
X366617904Y-69684771D01*
X366579809Y-69608580D01*
X366541714Y-69570485D01*
%TO.C,D16*%
X368998904Y-49034771D02*
X368198904Y-49034771D01*
X368198904Y-49225247D01*
X368237000Y-49339533D01*
X368313190Y-49415723D01*
X368389380Y-49453819D01*
X368541761Y-49491914D01*
X368656047Y-49491914D01*
X368808428Y-49453819D01*
X368884619Y-49415723D01*
X368960809Y-49339533D01*
X368998904Y-49225247D01*
X368998904Y-49034771D01*
X368998904Y-50253819D02*
X368998904Y-49796676D01*
X368998904Y-50025247D02*
X368198904Y-50025247D01*
X368313190Y-49949057D01*
X368389380Y-49872866D01*
X368427476Y-49796676D01*
X368198904Y-50939533D02*
X368198904Y-50787152D01*
X368237000Y-50710961D01*
X368275095Y-50672866D01*
X368389380Y-50596676D01*
X368541761Y-50558580D01*
X368846523Y-50558580D01*
X368922714Y-50596676D01*
X368960809Y-50634771D01*
X368998904Y-50710961D01*
X368998904Y-50863342D01*
X368960809Y-50939533D01*
X368922714Y-50977628D01*
X368846523Y-51015723D01*
X368656047Y-51015723D01*
X368579857Y-50977628D01*
X368541761Y-50939533D01*
X368503666Y-50863342D01*
X368503666Y-50710961D01*
X368541761Y-50634771D01*
X368579857Y-50596676D01*
X368656047Y-50558580D01*
%TO.C,D85*%
X347567904Y-139522571D02*
X346767904Y-139522571D01*
X346767904Y-139713047D01*
X346806000Y-139827333D01*
X346882190Y-139903523D01*
X346958380Y-139941619D01*
X347110761Y-139979714D01*
X347225047Y-139979714D01*
X347377428Y-139941619D01*
X347453619Y-139903523D01*
X347529809Y-139827333D01*
X347567904Y-139713047D01*
X347567904Y-139522571D01*
X347110761Y-140436857D02*
X347072666Y-140360666D01*
X347034571Y-140322571D01*
X346958380Y-140284476D01*
X346920285Y-140284476D01*
X346844095Y-140322571D01*
X346806000Y-140360666D01*
X346767904Y-140436857D01*
X346767904Y-140589238D01*
X346806000Y-140665428D01*
X346844095Y-140703523D01*
X346920285Y-140741619D01*
X346958380Y-140741619D01*
X347034571Y-140703523D01*
X347072666Y-140665428D01*
X347110761Y-140589238D01*
X347110761Y-140436857D01*
X347148857Y-140360666D01*
X347186952Y-140322571D01*
X347263142Y-140284476D01*
X347415523Y-140284476D01*
X347491714Y-140322571D01*
X347529809Y-140360666D01*
X347567904Y-140436857D01*
X347567904Y-140589238D01*
X347529809Y-140665428D01*
X347491714Y-140703523D01*
X347415523Y-140741619D01*
X347263142Y-140741619D01*
X347186952Y-140703523D01*
X347148857Y-140665428D01*
X347110761Y-140589238D01*
X346767904Y-141465428D02*
X346767904Y-141084476D01*
X347148857Y-141046380D01*
X347110761Y-141084476D01*
X347072666Y-141160666D01*
X347072666Y-141351142D01*
X347110761Y-141427333D01*
X347148857Y-141465428D01*
X347225047Y-141503523D01*
X347415523Y-141503523D01*
X347491714Y-141465428D01*
X347529809Y-141427333D01*
X347567904Y-141351142D01*
X347567904Y-141160666D01*
X347529809Y-141084476D01*
X347491714Y-141046380D01*
%TO.C,D76*%
X347567904Y-124428571D02*
X346767904Y-124428571D01*
X346767904Y-124619047D01*
X346806000Y-124733333D01*
X346882190Y-124809523D01*
X346958380Y-124847619D01*
X347110761Y-124885714D01*
X347225047Y-124885714D01*
X347377428Y-124847619D01*
X347453619Y-124809523D01*
X347529809Y-124733333D01*
X347567904Y-124619047D01*
X347567904Y-124428571D01*
X346767904Y-125152380D02*
X346767904Y-125685714D01*
X347567904Y-125342857D01*
X346767904Y-126333333D02*
X346767904Y-126180952D01*
X346806000Y-126104761D01*
X346844095Y-126066666D01*
X346958380Y-125990476D01*
X347110761Y-125952380D01*
X347415523Y-125952380D01*
X347491714Y-125990476D01*
X347529809Y-126028571D01*
X347567904Y-126104761D01*
X347567904Y-126257142D01*
X347529809Y-126333333D01*
X347491714Y-126371428D01*
X347415523Y-126409523D01*
X347225047Y-126409523D01*
X347148857Y-126371428D01*
X347110761Y-126333333D01*
X347072666Y-126257142D01*
X347072666Y-126104761D01*
X347110761Y-126028571D01*
X347148857Y-125990476D01*
X347225047Y-125952380D01*
%TO.C,D49*%
X347567904Y-87134771D02*
X346767904Y-87134771D01*
X346767904Y-87325247D01*
X346806000Y-87439533D01*
X346882190Y-87515723D01*
X346958380Y-87553819D01*
X347110761Y-87591914D01*
X347225047Y-87591914D01*
X347377428Y-87553819D01*
X347453619Y-87515723D01*
X347529809Y-87439533D01*
X347567904Y-87325247D01*
X347567904Y-87134771D01*
X347034571Y-88277628D02*
X347567904Y-88277628D01*
X346729809Y-88087152D02*
X347301238Y-87896676D01*
X347301238Y-88391914D01*
X347567904Y-88734771D02*
X347567904Y-88887152D01*
X347529809Y-88963342D01*
X347491714Y-89001438D01*
X347377428Y-89077628D01*
X347225047Y-89115723D01*
X346920285Y-89115723D01*
X346844095Y-89077628D01*
X346806000Y-89039533D01*
X346767904Y-88963342D01*
X346767904Y-88810961D01*
X346806000Y-88734771D01*
X346844095Y-88696676D01*
X346920285Y-88658580D01*
X347110761Y-88658580D01*
X347186952Y-88696676D01*
X347225047Y-88734771D01*
X347263142Y-88810961D01*
X347263142Y-88963342D01*
X347225047Y-89039533D01*
X347186952Y-89077628D01*
X347110761Y-89115723D01*
%TO.C,D32*%
X347567904Y-68084771D02*
X346767904Y-68084771D01*
X346767904Y-68275247D01*
X346806000Y-68389533D01*
X346882190Y-68465723D01*
X346958380Y-68503819D01*
X347110761Y-68541914D01*
X347225047Y-68541914D01*
X347377428Y-68503819D01*
X347453619Y-68465723D01*
X347529809Y-68389533D01*
X347567904Y-68275247D01*
X347567904Y-68084771D01*
X346767904Y-68808580D02*
X346767904Y-69303819D01*
X347072666Y-69037152D01*
X347072666Y-69151438D01*
X347110761Y-69227628D01*
X347148857Y-69265723D01*
X347225047Y-69303819D01*
X347415523Y-69303819D01*
X347491714Y-69265723D01*
X347529809Y-69227628D01*
X347567904Y-69151438D01*
X347567904Y-68922866D01*
X347529809Y-68846676D01*
X347491714Y-68808580D01*
X346844095Y-69608580D02*
X346806000Y-69646676D01*
X346767904Y-69722866D01*
X346767904Y-69913342D01*
X346806000Y-69989533D01*
X346844095Y-70027628D01*
X346920285Y-70065723D01*
X346996476Y-70065723D01*
X347110761Y-70027628D01*
X347567904Y-69570485D01*
X347567904Y-70065723D01*
%TO.C,D15*%
X349948904Y-49034771D02*
X349148904Y-49034771D01*
X349148904Y-49225247D01*
X349187000Y-49339533D01*
X349263190Y-49415723D01*
X349339380Y-49453819D01*
X349491761Y-49491914D01*
X349606047Y-49491914D01*
X349758428Y-49453819D01*
X349834619Y-49415723D01*
X349910809Y-49339533D01*
X349948904Y-49225247D01*
X349948904Y-49034771D01*
X349948904Y-50253819D02*
X349948904Y-49796676D01*
X349948904Y-50025247D02*
X349148904Y-50025247D01*
X349263190Y-49949057D01*
X349339380Y-49872866D01*
X349377476Y-49796676D01*
X349148904Y-50977628D02*
X349148904Y-50596676D01*
X349529857Y-50558580D01*
X349491761Y-50596676D01*
X349453666Y-50672866D01*
X349453666Y-50863342D01*
X349491761Y-50939533D01*
X349529857Y-50977628D01*
X349606047Y-51015723D01*
X349796523Y-51015723D01*
X349872714Y-50977628D01*
X349910809Y-50939533D01*
X349948904Y-50863342D01*
X349948904Y-50672866D01*
X349910809Y-50596676D01*
X349872714Y-50558580D01*
%TO.C,D84*%
X328517904Y-139522571D02*
X327717904Y-139522571D01*
X327717904Y-139713047D01*
X327756000Y-139827333D01*
X327832190Y-139903523D01*
X327908380Y-139941619D01*
X328060761Y-139979714D01*
X328175047Y-139979714D01*
X328327428Y-139941619D01*
X328403619Y-139903523D01*
X328479809Y-139827333D01*
X328517904Y-139713047D01*
X328517904Y-139522571D01*
X328060761Y-140436857D02*
X328022666Y-140360666D01*
X327984571Y-140322571D01*
X327908380Y-140284476D01*
X327870285Y-140284476D01*
X327794095Y-140322571D01*
X327756000Y-140360666D01*
X327717904Y-140436857D01*
X327717904Y-140589238D01*
X327756000Y-140665428D01*
X327794095Y-140703523D01*
X327870285Y-140741619D01*
X327908380Y-140741619D01*
X327984571Y-140703523D01*
X328022666Y-140665428D01*
X328060761Y-140589238D01*
X328060761Y-140436857D01*
X328098857Y-140360666D01*
X328136952Y-140322571D01*
X328213142Y-140284476D01*
X328365523Y-140284476D01*
X328441714Y-140322571D01*
X328479809Y-140360666D01*
X328517904Y-140436857D01*
X328517904Y-140589238D01*
X328479809Y-140665428D01*
X328441714Y-140703523D01*
X328365523Y-140741619D01*
X328213142Y-140741619D01*
X328136952Y-140703523D01*
X328098857Y-140665428D01*
X328060761Y-140589238D01*
X327984571Y-141427333D02*
X328517904Y-141427333D01*
X327679809Y-141236857D02*
X328251238Y-141046380D01*
X328251238Y-141541619D01*
%TO.C,D48*%
X328517904Y-87134771D02*
X327717904Y-87134771D01*
X327717904Y-87325247D01*
X327756000Y-87439533D01*
X327832190Y-87515723D01*
X327908380Y-87553819D01*
X328060761Y-87591914D01*
X328175047Y-87591914D01*
X328327428Y-87553819D01*
X328403619Y-87515723D01*
X328479809Y-87439533D01*
X328517904Y-87325247D01*
X328517904Y-87134771D01*
X327984571Y-88277628D02*
X328517904Y-88277628D01*
X327679809Y-88087152D02*
X328251238Y-87896676D01*
X328251238Y-88391914D01*
X328060761Y-88810961D02*
X328022666Y-88734771D01*
X327984571Y-88696676D01*
X327908380Y-88658580D01*
X327870285Y-88658580D01*
X327794095Y-88696676D01*
X327756000Y-88734771D01*
X327717904Y-88810961D01*
X327717904Y-88963342D01*
X327756000Y-89039533D01*
X327794095Y-89077628D01*
X327870285Y-89115723D01*
X327908380Y-89115723D01*
X327984571Y-89077628D01*
X328022666Y-89039533D01*
X328060761Y-88963342D01*
X328060761Y-88810961D01*
X328098857Y-88734771D01*
X328136952Y-88696676D01*
X328213142Y-88658580D01*
X328365523Y-88658580D01*
X328441714Y-88696676D01*
X328479809Y-88734771D01*
X328517904Y-88810961D01*
X328517904Y-88963342D01*
X328479809Y-89039533D01*
X328441714Y-89077628D01*
X328365523Y-89115723D01*
X328213142Y-89115723D01*
X328136952Y-89077628D01*
X328098857Y-89039533D01*
X328060761Y-88963342D01*
%TO.C,D31*%
X328517904Y-68084771D02*
X327717904Y-68084771D01*
X327717904Y-68275247D01*
X327756000Y-68389533D01*
X327832190Y-68465723D01*
X327908380Y-68503819D01*
X328060761Y-68541914D01*
X328175047Y-68541914D01*
X328327428Y-68503819D01*
X328403619Y-68465723D01*
X328479809Y-68389533D01*
X328517904Y-68275247D01*
X328517904Y-68084771D01*
X327717904Y-68808580D02*
X327717904Y-69303819D01*
X328022666Y-69037152D01*
X328022666Y-69151438D01*
X328060761Y-69227628D01*
X328098857Y-69265723D01*
X328175047Y-69303819D01*
X328365523Y-69303819D01*
X328441714Y-69265723D01*
X328479809Y-69227628D01*
X328517904Y-69151438D01*
X328517904Y-68922866D01*
X328479809Y-68846676D01*
X328441714Y-68808580D01*
X328517904Y-70065723D02*
X328517904Y-69608580D01*
X328517904Y-69837152D02*
X327717904Y-69837152D01*
X327832190Y-69760961D01*
X327908380Y-69684771D01*
X327946476Y-69608580D01*
%TO.C,D14*%
X330898904Y-49034771D02*
X330098904Y-49034771D01*
X330098904Y-49225247D01*
X330137000Y-49339533D01*
X330213190Y-49415723D01*
X330289380Y-49453819D01*
X330441761Y-49491914D01*
X330556047Y-49491914D01*
X330708428Y-49453819D01*
X330784619Y-49415723D01*
X330860809Y-49339533D01*
X330898904Y-49225247D01*
X330898904Y-49034771D01*
X330898904Y-50253819D02*
X330898904Y-49796676D01*
X330898904Y-50025247D02*
X330098904Y-50025247D01*
X330213190Y-49949057D01*
X330289380Y-49872866D01*
X330327476Y-49796676D01*
X330365571Y-50939533D02*
X330898904Y-50939533D01*
X330060809Y-50749057D02*
X330632238Y-50558580D01*
X330632238Y-51053819D01*
%TO.C,D47*%
X295180904Y-87134771D02*
X294380904Y-87134771D01*
X294380904Y-87325247D01*
X294419000Y-87439533D01*
X294495190Y-87515723D01*
X294571380Y-87553819D01*
X294723761Y-87591914D01*
X294838047Y-87591914D01*
X294990428Y-87553819D01*
X295066619Y-87515723D01*
X295142809Y-87439533D01*
X295180904Y-87325247D01*
X295180904Y-87134771D01*
X294647571Y-88277628D02*
X295180904Y-88277628D01*
X294342809Y-88087152D02*
X294914238Y-87896676D01*
X294914238Y-88391914D01*
X294380904Y-88620485D02*
X294380904Y-89153819D01*
X295180904Y-88810961D01*
%TO.C,D30*%
X285655904Y-68084771D02*
X284855904Y-68084771D01*
X284855904Y-68275247D01*
X284894000Y-68389533D01*
X284970190Y-68465723D01*
X285046380Y-68503819D01*
X285198761Y-68541914D01*
X285313047Y-68541914D01*
X285465428Y-68503819D01*
X285541619Y-68465723D01*
X285617809Y-68389533D01*
X285655904Y-68275247D01*
X285655904Y-68084771D01*
X284855904Y-68808580D02*
X284855904Y-69303819D01*
X285160666Y-69037152D01*
X285160666Y-69151438D01*
X285198761Y-69227628D01*
X285236857Y-69265723D01*
X285313047Y-69303819D01*
X285503523Y-69303819D01*
X285579714Y-69265723D01*
X285617809Y-69227628D01*
X285655904Y-69151438D01*
X285655904Y-68922866D01*
X285617809Y-68846676D01*
X285579714Y-68808580D01*
X284855904Y-69799057D02*
X284855904Y-69875247D01*
X284894000Y-69951438D01*
X284932095Y-69989533D01*
X285008285Y-70027628D01*
X285160666Y-70065723D01*
X285351142Y-70065723D01*
X285503523Y-70027628D01*
X285579714Y-69989533D01*
X285617809Y-69951438D01*
X285655904Y-69875247D01*
X285655904Y-69799057D01*
X285617809Y-69722866D01*
X285579714Y-69684771D01*
X285503523Y-69646676D01*
X285351142Y-69608580D01*
X285160666Y-69608580D01*
X285008285Y-69646676D01*
X284932095Y-69684771D01*
X284894000Y-69722866D01*
X284855904Y-69799057D01*
%TO.C,D83*%
X297561904Y-139522571D02*
X296761904Y-139522571D01*
X296761904Y-139713047D01*
X296800000Y-139827333D01*
X296876190Y-139903523D01*
X296952380Y-139941619D01*
X297104761Y-139979714D01*
X297219047Y-139979714D01*
X297371428Y-139941619D01*
X297447619Y-139903523D01*
X297523809Y-139827333D01*
X297561904Y-139713047D01*
X297561904Y-139522571D01*
X297104761Y-140436857D02*
X297066666Y-140360666D01*
X297028571Y-140322571D01*
X296952380Y-140284476D01*
X296914285Y-140284476D01*
X296838095Y-140322571D01*
X296800000Y-140360666D01*
X296761904Y-140436857D01*
X296761904Y-140589238D01*
X296800000Y-140665428D01*
X296838095Y-140703523D01*
X296914285Y-140741619D01*
X296952380Y-140741619D01*
X297028571Y-140703523D01*
X297066666Y-140665428D01*
X297104761Y-140589238D01*
X297104761Y-140436857D01*
X297142857Y-140360666D01*
X297180952Y-140322571D01*
X297257142Y-140284476D01*
X297409523Y-140284476D01*
X297485714Y-140322571D01*
X297523809Y-140360666D01*
X297561904Y-140436857D01*
X297561904Y-140589238D01*
X297523809Y-140665428D01*
X297485714Y-140703523D01*
X297409523Y-140741619D01*
X297257142Y-140741619D01*
X297180952Y-140703523D01*
X297142857Y-140665428D01*
X297104761Y-140589238D01*
X296761904Y-141008285D02*
X296761904Y-141503523D01*
X297066666Y-141236857D01*
X297066666Y-141351142D01*
X297104761Y-141427333D01*
X297142857Y-141465428D01*
X297219047Y-141503523D01*
X297409523Y-141503523D01*
X297485714Y-141465428D01*
X297523809Y-141427333D01*
X297561904Y-141351142D01*
X297561904Y-141122571D01*
X297523809Y-141046380D01*
X297485714Y-141008285D01*
%TO.C,D63*%
X280892904Y-106184571D02*
X280092904Y-106184571D01*
X280092904Y-106375047D01*
X280131000Y-106489333D01*
X280207190Y-106565523D01*
X280283380Y-106603619D01*
X280435761Y-106641714D01*
X280550047Y-106641714D01*
X280702428Y-106603619D01*
X280778619Y-106565523D01*
X280854809Y-106489333D01*
X280892904Y-106375047D01*
X280892904Y-106184571D01*
X280092904Y-107327428D02*
X280092904Y-107175047D01*
X280131000Y-107098857D01*
X280169095Y-107060761D01*
X280283380Y-106984571D01*
X280435761Y-106946476D01*
X280740523Y-106946476D01*
X280816714Y-106984571D01*
X280854809Y-107022666D01*
X280892904Y-107098857D01*
X280892904Y-107251238D01*
X280854809Y-107327428D01*
X280816714Y-107365523D01*
X280740523Y-107403619D01*
X280550047Y-107403619D01*
X280473857Y-107365523D01*
X280435761Y-107327428D01*
X280397666Y-107251238D01*
X280397666Y-107098857D01*
X280435761Y-107022666D01*
X280473857Y-106984571D01*
X280550047Y-106946476D01*
X280092904Y-107670285D02*
X280092904Y-108165523D01*
X280397666Y-107898857D01*
X280397666Y-108013142D01*
X280435761Y-108089333D01*
X280473857Y-108127428D01*
X280550047Y-108165523D01*
X280740523Y-108165523D01*
X280816714Y-108127428D01*
X280854809Y-108089333D01*
X280892904Y-108013142D01*
X280892904Y-107784571D01*
X280854809Y-107708380D01*
X280816714Y-107670285D01*
%TO.C,D46*%
X276130904Y-87134771D02*
X275330904Y-87134771D01*
X275330904Y-87325247D01*
X275369000Y-87439533D01*
X275445190Y-87515723D01*
X275521380Y-87553819D01*
X275673761Y-87591914D01*
X275788047Y-87591914D01*
X275940428Y-87553819D01*
X276016619Y-87515723D01*
X276092809Y-87439533D01*
X276130904Y-87325247D01*
X276130904Y-87134771D01*
X275597571Y-88277628D02*
X276130904Y-88277628D01*
X275292809Y-88087152D02*
X275864238Y-87896676D01*
X275864238Y-88391914D01*
X275330904Y-89039533D02*
X275330904Y-88887152D01*
X275369000Y-88810961D01*
X275407095Y-88772866D01*
X275521380Y-88696676D01*
X275673761Y-88658580D01*
X275978523Y-88658580D01*
X276054714Y-88696676D01*
X276092809Y-88734771D01*
X276130904Y-88810961D01*
X276130904Y-88963342D01*
X276092809Y-89039533D01*
X276054714Y-89077628D01*
X275978523Y-89115723D01*
X275788047Y-89115723D01*
X275711857Y-89077628D01*
X275673761Y-89039533D01*
X275635666Y-88963342D01*
X275635666Y-88810961D01*
X275673761Y-88734771D01*
X275711857Y-88696676D01*
X275788047Y-88658580D01*
%TO.C,D29*%
X266605904Y-68084771D02*
X265805904Y-68084771D01*
X265805904Y-68275247D01*
X265844000Y-68389533D01*
X265920190Y-68465723D01*
X265996380Y-68503819D01*
X266148761Y-68541914D01*
X266263047Y-68541914D01*
X266415428Y-68503819D01*
X266491619Y-68465723D01*
X266567809Y-68389533D01*
X266605904Y-68275247D01*
X266605904Y-68084771D01*
X265882095Y-68846676D02*
X265844000Y-68884771D01*
X265805904Y-68960961D01*
X265805904Y-69151438D01*
X265844000Y-69227628D01*
X265882095Y-69265723D01*
X265958285Y-69303819D01*
X266034476Y-69303819D01*
X266148761Y-69265723D01*
X266605904Y-68808580D01*
X266605904Y-69303819D01*
X266605904Y-69684771D02*
X266605904Y-69837152D01*
X266567809Y-69913342D01*
X266529714Y-69951438D01*
X266415428Y-70027628D01*
X266263047Y-70065723D01*
X265958285Y-70065723D01*
X265882095Y-70027628D01*
X265844000Y-69989533D01*
X265805904Y-69913342D01*
X265805904Y-69760961D01*
X265844000Y-69684771D01*
X265882095Y-69646676D01*
X265958285Y-69608580D01*
X266148761Y-69608580D01*
X266224952Y-69646676D01*
X266263047Y-69684771D01*
X266301142Y-69760961D01*
X266301142Y-69913342D01*
X266263047Y-69989533D01*
X266224952Y-70027628D01*
X266148761Y-70065723D01*
%TO.C,D13*%
X307086904Y-49034771D02*
X306286904Y-49034771D01*
X306286904Y-49225247D01*
X306325000Y-49339533D01*
X306401190Y-49415723D01*
X306477380Y-49453819D01*
X306629761Y-49491914D01*
X306744047Y-49491914D01*
X306896428Y-49453819D01*
X306972619Y-49415723D01*
X307048809Y-49339533D01*
X307086904Y-49225247D01*
X307086904Y-49034771D01*
X307086904Y-50253819D02*
X307086904Y-49796676D01*
X307086904Y-50025247D02*
X306286904Y-50025247D01*
X306401190Y-49949057D01*
X306477380Y-49872866D01*
X306515476Y-49796676D01*
X306286904Y-50520485D02*
X306286904Y-51015723D01*
X306591666Y-50749057D01*
X306591666Y-50863342D01*
X306629761Y-50939533D01*
X306667857Y-50977628D01*
X306744047Y-51015723D01*
X306934523Y-51015723D01*
X307010714Y-50977628D01*
X307048809Y-50939533D01*
X307086904Y-50863342D01*
X307086904Y-50634771D01*
X307048809Y-50558580D01*
X307010714Y-50520485D01*
%TO.C,D82*%
X276130904Y-139522571D02*
X275330904Y-139522571D01*
X275330904Y-139713047D01*
X275369000Y-139827333D01*
X275445190Y-139903523D01*
X275521380Y-139941619D01*
X275673761Y-139979714D01*
X275788047Y-139979714D01*
X275940428Y-139941619D01*
X276016619Y-139903523D01*
X276092809Y-139827333D01*
X276130904Y-139713047D01*
X276130904Y-139522571D01*
X275673761Y-140436857D02*
X275635666Y-140360666D01*
X275597571Y-140322571D01*
X275521380Y-140284476D01*
X275483285Y-140284476D01*
X275407095Y-140322571D01*
X275369000Y-140360666D01*
X275330904Y-140436857D01*
X275330904Y-140589238D01*
X275369000Y-140665428D01*
X275407095Y-140703523D01*
X275483285Y-140741619D01*
X275521380Y-140741619D01*
X275597571Y-140703523D01*
X275635666Y-140665428D01*
X275673761Y-140589238D01*
X275673761Y-140436857D01*
X275711857Y-140360666D01*
X275749952Y-140322571D01*
X275826142Y-140284476D01*
X275978523Y-140284476D01*
X276054714Y-140322571D01*
X276092809Y-140360666D01*
X276130904Y-140436857D01*
X276130904Y-140589238D01*
X276092809Y-140665428D01*
X276054714Y-140703523D01*
X275978523Y-140741619D01*
X275826142Y-140741619D01*
X275749952Y-140703523D01*
X275711857Y-140665428D01*
X275673761Y-140589238D01*
X275407095Y-141046380D02*
X275369000Y-141084476D01*
X275330904Y-141160666D01*
X275330904Y-141351142D01*
X275369000Y-141427333D01*
X275407095Y-141465428D01*
X275483285Y-141503523D01*
X275559476Y-141503523D01*
X275673761Y-141465428D01*
X276130904Y-141008285D01*
X276130904Y-141503523D01*
%TO.C,D81*%
X247555904Y-139522571D02*
X246755904Y-139522571D01*
X246755904Y-139713047D01*
X246794000Y-139827333D01*
X246870190Y-139903523D01*
X246946380Y-139941619D01*
X247098761Y-139979714D01*
X247213047Y-139979714D01*
X247365428Y-139941619D01*
X247441619Y-139903523D01*
X247517809Y-139827333D01*
X247555904Y-139713047D01*
X247555904Y-139522571D01*
X247098761Y-140436857D02*
X247060666Y-140360666D01*
X247022571Y-140322571D01*
X246946380Y-140284476D01*
X246908285Y-140284476D01*
X246832095Y-140322571D01*
X246794000Y-140360666D01*
X246755904Y-140436857D01*
X246755904Y-140589238D01*
X246794000Y-140665428D01*
X246832095Y-140703523D01*
X246908285Y-140741619D01*
X246946380Y-140741619D01*
X247022571Y-140703523D01*
X247060666Y-140665428D01*
X247098761Y-140589238D01*
X247098761Y-140436857D01*
X247136857Y-140360666D01*
X247174952Y-140322571D01*
X247251142Y-140284476D01*
X247403523Y-140284476D01*
X247479714Y-140322571D01*
X247517809Y-140360666D01*
X247555904Y-140436857D01*
X247555904Y-140589238D01*
X247517809Y-140665428D01*
X247479714Y-140703523D01*
X247403523Y-140741619D01*
X247251142Y-140741619D01*
X247174952Y-140703523D01*
X247136857Y-140665428D01*
X247098761Y-140589238D01*
X247555904Y-141503523D02*
X247555904Y-141046380D01*
X247555904Y-141274952D02*
X246755904Y-141274952D01*
X246870190Y-141198761D01*
X246946380Y-141122571D01*
X246984476Y-141046380D01*
%TO.C,D75*%
X273748904Y-122853571D02*
X272948904Y-122853571D01*
X272948904Y-123044047D01*
X272987000Y-123158333D01*
X273063190Y-123234523D01*
X273139380Y-123272619D01*
X273291761Y-123310714D01*
X273406047Y-123310714D01*
X273558428Y-123272619D01*
X273634619Y-123234523D01*
X273710809Y-123158333D01*
X273748904Y-123044047D01*
X273748904Y-122853571D01*
X272948904Y-123577380D02*
X272948904Y-124110714D01*
X273748904Y-123767857D01*
X272948904Y-124796428D02*
X272948904Y-124415476D01*
X273329857Y-124377380D01*
X273291761Y-124415476D01*
X273253666Y-124491666D01*
X273253666Y-124682142D01*
X273291761Y-124758333D01*
X273329857Y-124796428D01*
X273406047Y-124834523D01*
X273596523Y-124834523D01*
X273672714Y-124796428D01*
X273710809Y-124758333D01*
X273748904Y-124682142D01*
X273748904Y-124491666D01*
X273710809Y-124415476D01*
X273672714Y-124377380D01*
%TO.C,D62*%
X261842904Y-106184571D02*
X261042904Y-106184571D01*
X261042904Y-106375047D01*
X261081000Y-106489333D01*
X261157190Y-106565523D01*
X261233380Y-106603619D01*
X261385761Y-106641714D01*
X261500047Y-106641714D01*
X261652428Y-106603619D01*
X261728619Y-106565523D01*
X261804809Y-106489333D01*
X261842904Y-106375047D01*
X261842904Y-106184571D01*
X261042904Y-107327428D02*
X261042904Y-107175047D01*
X261081000Y-107098857D01*
X261119095Y-107060761D01*
X261233380Y-106984571D01*
X261385761Y-106946476D01*
X261690523Y-106946476D01*
X261766714Y-106984571D01*
X261804809Y-107022666D01*
X261842904Y-107098857D01*
X261842904Y-107251238D01*
X261804809Y-107327428D01*
X261766714Y-107365523D01*
X261690523Y-107403619D01*
X261500047Y-107403619D01*
X261423857Y-107365523D01*
X261385761Y-107327428D01*
X261347666Y-107251238D01*
X261347666Y-107098857D01*
X261385761Y-107022666D01*
X261423857Y-106984571D01*
X261500047Y-106946476D01*
X261119095Y-107708380D02*
X261081000Y-107746476D01*
X261042904Y-107822666D01*
X261042904Y-108013142D01*
X261081000Y-108089333D01*
X261119095Y-108127428D01*
X261195285Y-108165523D01*
X261271476Y-108165523D01*
X261385761Y-108127428D01*
X261842904Y-107670285D01*
X261842904Y-108165523D01*
%TO.C,D45*%
X257080904Y-87134771D02*
X256280904Y-87134771D01*
X256280904Y-87325247D01*
X256319000Y-87439533D01*
X256395190Y-87515723D01*
X256471380Y-87553819D01*
X256623761Y-87591914D01*
X256738047Y-87591914D01*
X256890428Y-87553819D01*
X256966619Y-87515723D01*
X257042809Y-87439533D01*
X257080904Y-87325247D01*
X257080904Y-87134771D01*
X256547571Y-88277628D02*
X257080904Y-88277628D01*
X256242809Y-88087152D02*
X256814238Y-87896676D01*
X256814238Y-88391914D01*
X256280904Y-89077628D02*
X256280904Y-88696676D01*
X256661857Y-88658580D01*
X256623761Y-88696676D01*
X256585666Y-88772866D01*
X256585666Y-88963342D01*
X256623761Y-89039533D01*
X256661857Y-89077628D01*
X256738047Y-89115723D01*
X256928523Y-89115723D01*
X257004714Y-89077628D01*
X257042809Y-89039533D01*
X257080904Y-88963342D01*
X257080904Y-88772866D01*
X257042809Y-88696676D01*
X257004714Y-88658580D01*
%TO.C,D28*%
X247555904Y-68084771D02*
X246755904Y-68084771D01*
X246755904Y-68275247D01*
X246794000Y-68389533D01*
X246870190Y-68465723D01*
X246946380Y-68503819D01*
X247098761Y-68541914D01*
X247213047Y-68541914D01*
X247365428Y-68503819D01*
X247441619Y-68465723D01*
X247517809Y-68389533D01*
X247555904Y-68275247D01*
X247555904Y-68084771D01*
X246832095Y-68846676D02*
X246794000Y-68884771D01*
X246755904Y-68960961D01*
X246755904Y-69151438D01*
X246794000Y-69227628D01*
X246832095Y-69265723D01*
X246908285Y-69303819D01*
X246984476Y-69303819D01*
X247098761Y-69265723D01*
X247555904Y-68808580D01*
X247555904Y-69303819D01*
X247098761Y-69760961D02*
X247060666Y-69684771D01*
X247022571Y-69646676D01*
X246946380Y-69608580D01*
X246908285Y-69608580D01*
X246832095Y-69646676D01*
X246794000Y-69684771D01*
X246755904Y-69760961D01*
X246755904Y-69913342D01*
X246794000Y-69989533D01*
X246832095Y-70027628D01*
X246908285Y-70065723D01*
X246946380Y-70065723D01*
X247022571Y-70027628D01*
X247060666Y-69989533D01*
X247098761Y-69913342D01*
X247098761Y-69760961D01*
X247136857Y-69684771D01*
X247174952Y-69646676D01*
X247251142Y-69608580D01*
X247403523Y-69608580D01*
X247479714Y-69646676D01*
X247517809Y-69684771D01*
X247555904Y-69760961D01*
X247555904Y-69913342D01*
X247517809Y-69989533D01*
X247479714Y-70027628D01*
X247403523Y-70065723D01*
X247251142Y-70065723D01*
X247174952Y-70027628D01*
X247136857Y-69989533D01*
X247098761Y-69913342D01*
%TO.C,D12*%
X288036904Y-49034771D02*
X287236904Y-49034771D01*
X287236904Y-49225247D01*
X287275000Y-49339533D01*
X287351190Y-49415723D01*
X287427380Y-49453819D01*
X287579761Y-49491914D01*
X287694047Y-49491914D01*
X287846428Y-49453819D01*
X287922619Y-49415723D01*
X287998809Y-49339533D01*
X288036904Y-49225247D01*
X288036904Y-49034771D01*
X288036904Y-50253819D02*
X288036904Y-49796676D01*
X288036904Y-50025247D02*
X287236904Y-50025247D01*
X287351190Y-49949057D01*
X287427380Y-49872866D01*
X287465476Y-49796676D01*
X287313095Y-50558580D02*
X287275000Y-50596676D01*
X287236904Y-50672866D01*
X287236904Y-50863342D01*
X287275000Y-50939533D01*
X287313095Y-50977628D01*
X287389285Y-51015723D01*
X287465476Y-51015723D01*
X287579761Y-50977628D01*
X288036904Y-50520485D01*
X288036904Y-51015723D01*
%TO.C,D74*%
X252317904Y-125234571D02*
X251517904Y-125234571D01*
X251517904Y-125425047D01*
X251556000Y-125539333D01*
X251632190Y-125615523D01*
X251708380Y-125653619D01*
X251860761Y-125691714D01*
X251975047Y-125691714D01*
X252127428Y-125653619D01*
X252203619Y-125615523D01*
X252279809Y-125539333D01*
X252317904Y-125425047D01*
X252317904Y-125234571D01*
X251517904Y-125958380D02*
X251517904Y-126491714D01*
X252317904Y-126148857D01*
X251784571Y-127139333D02*
X252317904Y-127139333D01*
X251479809Y-126948857D02*
X252051238Y-126758380D01*
X252051238Y-127253619D01*
%TO.C,D61*%
X242792904Y-106184571D02*
X241992904Y-106184571D01*
X241992904Y-106375047D01*
X242031000Y-106489333D01*
X242107190Y-106565523D01*
X242183380Y-106603619D01*
X242335761Y-106641714D01*
X242450047Y-106641714D01*
X242602428Y-106603619D01*
X242678619Y-106565523D01*
X242754809Y-106489333D01*
X242792904Y-106375047D01*
X242792904Y-106184571D01*
X241992904Y-107327428D02*
X241992904Y-107175047D01*
X242031000Y-107098857D01*
X242069095Y-107060761D01*
X242183380Y-106984571D01*
X242335761Y-106946476D01*
X242640523Y-106946476D01*
X242716714Y-106984571D01*
X242754809Y-107022666D01*
X242792904Y-107098857D01*
X242792904Y-107251238D01*
X242754809Y-107327428D01*
X242716714Y-107365523D01*
X242640523Y-107403619D01*
X242450047Y-107403619D01*
X242373857Y-107365523D01*
X242335761Y-107327428D01*
X242297666Y-107251238D01*
X242297666Y-107098857D01*
X242335761Y-107022666D01*
X242373857Y-106984571D01*
X242450047Y-106946476D01*
X242792904Y-108165523D02*
X242792904Y-107708380D01*
X242792904Y-107936952D02*
X241992904Y-107936952D01*
X242107190Y-107860761D01*
X242183380Y-107784571D01*
X242221476Y-107708380D01*
%TO.C,D44*%
X238030904Y-87134771D02*
X237230904Y-87134771D01*
X237230904Y-87325247D01*
X237269000Y-87439533D01*
X237345190Y-87515723D01*
X237421380Y-87553819D01*
X237573761Y-87591914D01*
X237688047Y-87591914D01*
X237840428Y-87553819D01*
X237916619Y-87515723D01*
X237992809Y-87439533D01*
X238030904Y-87325247D01*
X238030904Y-87134771D01*
X237497571Y-88277628D02*
X238030904Y-88277628D01*
X237192809Y-88087152D02*
X237764238Y-87896676D01*
X237764238Y-88391914D01*
X237497571Y-89039533D02*
X238030904Y-89039533D01*
X237192809Y-88849057D02*
X237764238Y-88658580D01*
X237764238Y-89153819D01*
%TO.C,D27*%
X228505904Y-68084771D02*
X227705904Y-68084771D01*
X227705904Y-68275247D01*
X227744000Y-68389533D01*
X227820190Y-68465723D01*
X227896380Y-68503819D01*
X228048761Y-68541914D01*
X228163047Y-68541914D01*
X228315428Y-68503819D01*
X228391619Y-68465723D01*
X228467809Y-68389533D01*
X228505904Y-68275247D01*
X228505904Y-68084771D01*
X227782095Y-68846676D02*
X227744000Y-68884771D01*
X227705904Y-68960961D01*
X227705904Y-69151438D01*
X227744000Y-69227628D01*
X227782095Y-69265723D01*
X227858285Y-69303819D01*
X227934476Y-69303819D01*
X228048761Y-69265723D01*
X228505904Y-68808580D01*
X228505904Y-69303819D01*
X227705904Y-69570485D02*
X227705904Y-70103819D01*
X228505904Y-69760961D01*
%TO.C,D11*%
X268986904Y-49034771D02*
X268186904Y-49034771D01*
X268186904Y-49225247D01*
X268225000Y-49339533D01*
X268301190Y-49415723D01*
X268377380Y-49453819D01*
X268529761Y-49491914D01*
X268644047Y-49491914D01*
X268796428Y-49453819D01*
X268872619Y-49415723D01*
X268948809Y-49339533D01*
X268986904Y-49225247D01*
X268986904Y-49034771D01*
X268986904Y-50253819D02*
X268986904Y-49796676D01*
X268986904Y-50025247D02*
X268186904Y-50025247D01*
X268301190Y-49949057D01*
X268377380Y-49872866D01*
X268415476Y-49796676D01*
X268986904Y-51015723D02*
X268986904Y-50558580D01*
X268986904Y-50787152D02*
X268186904Y-50787152D01*
X268301190Y-50710961D01*
X268377380Y-50634771D01*
X268415476Y-50558580D01*
%TO.C,D73*%
X233267904Y-122853571D02*
X232467904Y-122853571D01*
X232467904Y-123044047D01*
X232506000Y-123158333D01*
X232582190Y-123234523D01*
X232658380Y-123272619D01*
X232810761Y-123310714D01*
X232925047Y-123310714D01*
X233077428Y-123272619D01*
X233153619Y-123234523D01*
X233229809Y-123158333D01*
X233267904Y-123044047D01*
X233267904Y-122853571D01*
X232467904Y-123577380D02*
X232467904Y-124110714D01*
X233267904Y-123767857D01*
X232467904Y-124339285D02*
X232467904Y-124834523D01*
X232772666Y-124567857D01*
X232772666Y-124682142D01*
X232810761Y-124758333D01*
X232848857Y-124796428D01*
X232925047Y-124834523D01*
X233115523Y-124834523D01*
X233191714Y-124796428D01*
X233229809Y-124758333D01*
X233267904Y-124682142D01*
X233267904Y-124453571D01*
X233229809Y-124377380D01*
X233191714Y-124339285D01*
%TO.C,D60*%
X223742904Y-106184571D02*
X222942904Y-106184571D01*
X222942904Y-106375047D01*
X222981000Y-106489333D01*
X223057190Y-106565523D01*
X223133380Y-106603619D01*
X223285761Y-106641714D01*
X223400047Y-106641714D01*
X223552428Y-106603619D01*
X223628619Y-106565523D01*
X223704809Y-106489333D01*
X223742904Y-106375047D01*
X223742904Y-106184571D01*
X222942904Y-107327428D02*
X222942904Y-107175047D01*
X222981000Y-107098857D01*
X223019095Y-107060761D01*
X223133380Y-106984571D01*
X223285761Y-106946476D01*
X223590523Y-106946476D01*
X223666714Y-106984571D01*
X223704809Y-107022666D01*
X223742904Y-107098857D01*
X223742904Y-107251238D01*
X223704809Y-107327428D01*
X223666714Y-107365523D01*
X223590523Y-107403619D01*
X223400047Y-107403619D01*
X223323857Y-107365523D01*
X223285761Y-107327428D01*
X223247666Y-107251238D01*
X223247666Y-107098857D01*
X223285761Y-107022666D01*
X223323857Y-106984571D01*
X223400047Y-106946476D01*
X222942904Y-107898857D02*
X222942904Y-107975047D01*
X222981000Y-108051238D01*
X223019095Y-108089333D01*
X223095285Y-108127428D01*
X223247666Y-108165523D01*
X223438142Y-108165523D01*
X223590523Y-108127428D01*
X223666714Y-108089333D01*
X223704809Y-108051238D01*
X223742904Y-107975047D01*
X223742904Y-107898857D01*
X223704809Y-107822666D01*
X223666714Y-107784571D01*
X223590523Y-107746476D01*
X223438142Y-107708380D01*
X223247666Y-107708380D01*
X223095285Y-107746476D01*
X223019095Y-107784571D01*
X222981000Y-107822666D01*
X222942904Y-107898857D01*
%TO.C,D43*%
X218980904Y-87134771D02*
X218180904Y-87134771D01*
X218180904Y-87325247D01*
X218219000Y-87439533D01*
X218295190Y-87515723D01*
X218371380Y-87553819D01*
X218523761Y-87591914D01*
X218638047Y-87591914D01*
X218790428Y-87553819D01*
X218866619Y-87515723D01*
X218942809Y-87439533D01*
X218980904Y-87325247D01*
X218980904Y-87134771D01*
X218447571Y-88277628D02*
X218980904Y-88277628D01*
X218142809Y-88087152D02*
X218714238Y-87896676D01*
X218714238Y-88391914D01*
X218180904Y-88620485D02*
X218180904Y-89115723D01*
X218485666Y-88849057D01*
X218485666Y-88963342D01*
X218523761Y-89039533D01*
X218561857Y-89077628D01*
X218638047Y-89115723D01*
X218828523Y-89115723D01*
X218904714Y-89077628D01*
X218942809Y-89039533D01*
X218980904Y-88963342D01*
X218980904Y-88734771D01*
X218942809Y-88658580D01*
X218904714Y-88620485D01*
%TO.C,D26*%
X209455904Y-68084771D02*
X208655904Y-68084771D01*
X208655904Y-68275247D01*
X208694000Y-68389533D01*
X208770190Y-68465723D01*
X208846380Y-68503819D01*
X208998761Y-68541914D01*
X209113047Y-68541914D01*
X209265428Y-68503819D01*
X209341619Y-68465723D01*
X209417809Y-68389533D01*
X209455904Y-68275247D01*
X209455904Y-68084771D01*
X208732095Y-68846676D02*
X208694000Y-68884771D01*
X208655904Y-68960961D01*
X208655904Y-69151438D01*
X208694000Y-69227628D01*
X208732095Y-69265723D01*
X208808285Y-69303819D01*
X208884476Y-69303819D01*
X208998761Y-69265723D01*
X209455904Y-68808580D01*
X209455904Y-69303819D01*
X208655904Y-69989533D02*
X208655904Y-69837152D01*
X208694000Y-69760961D01*
X208732095Y-69722866D01*
X208846380Y-69646676D01*
X208998761Y-69608580D01*
X209303523Y-69608580D01*
X209379714Y-69646676D01*
X209417809Y-69684771D01*
X209455904Y-69760961D01*
X209455904Y-69913342D01*
X209417809Y-69989533D01*
X209379714Y-70027628D01*
X209303523Y-70065723D01*
X209113047Y-70065723D01*
X209036857Y-70027628D01*
X208998761Y-69989533D01*
X208960666Y-69913342D01*
X208960666Y-69760961D01*
X208998761Y-69684771D01*
X209036857Y-69646676D01*
X209113047Y-69608580D01*
%TO.C,D10*%
X249936904Y-49034771D02*
X249136904Y-49034771D01*
X249136904Y-49225247D01*
X249175000Y-49339533D01*
X249251190Y-49415723D01*
X249327380Y-49453819D01*
X249479761Y-49491914D01*
X249594047Y-49491914D01*
X249746428Y-49453819D01*
X249822619Y-49415723D01*
X249898809Y-49339533D01*
X249936904Y-49225247D01*
X249936904Y-49034771D01*
X249936904Y-50253819D02*
X249936904Y-49796676D01*
X249936904Y-50025247D02*
X249136904Y-50025247D01*
X249251190Y-49949057D01*
X249327380Y-49872866D01*
X249365476Y-49796676D01*
X249136904Y-50749057D02*
X249136904Y-50825247D01*
X249175000Y-50901438D01*
X249213095Y-50939533D01*
X249289285Y-50977628D01*
X249441666Y-51015723D01*
X249632142Y-51015723D01*
X249784523Y-50977628D01*
X249860714Y-50939533D01*
X249898809Y-50901438D01*
X249936904Y-50825247D01*
X249936904Y-50749057D01*
X249898809Y-50672866D01*
X249860714Y-50634771D01*
X249784523Y-50596676D01*
X249632142Y-50558580D01*
X249441666Y-50558580D01*
X249289285Y-50596676D01*
X249213095Y-50634771D01*
X249175000Y-50672866D01*
X249136904Y-50749057D01*
%TO.C,D72*%
X214217904Y-125234571D02*
X213417904Y-125234571D01*
X213417904Y-125425047D01*
X213456000Y-125539333D01*
X213532190Y-125615523D01*
X213608380Y-125653619D01*
X213760761Y-125691714D01*
X213875047Y-125691714D01*
X214027428Y-125653619D01*
X214103619Y-125615523D01*
X214179809Y-125539333D01*
X214217904Y-125425047D01*
X214217904Y-125234571D01*
X213417904Y-125958380D02*
X213417904Y-126491714D01*
X214217904Y-126148857D01*
X213494095Y-126758380D02*
X213456000Y-126796476D01*
X213417904Y-126872666D01*
X213417904Y-127063142D01*
X213456000Y-127139333D01*
X213494095Y-127177428D01*
X213570285Y-127215523D01*
X213646476Y-127215523D01*
X213760761Y-127177428D01*
X214217904Y-126720285D01*
X214217904Y-127215523D01*
%TO.C,D59*%
X204692904Y-106184571D02*
X203892904Y-106184571D01*
X203892904Y-106375047D01*
X203931000Y-106489333D01*
X204007190Y-106565523D01*
X204083380Y-106603619D01*
X204235761Y-106641714D01*
X204350047Y-106641714D01*
X204502428Y-106603619D01*
X204578619Y-106565523D01*
X204654809Y-106489333D01*
X204692904Y-106375047D01*
X204692904Y-106184571D01*
X203892904Y-107365523D02*
X203892904Y-106984571D01*
X204273857Y-106946476D01*
X204235761Y-106984571D01*
X204197666Y-107060761D01*
X204197666Y-107251238D01*
X204235761Y-107327428D01*
X204273857Y-107365523D01*
X204350047Y-107403619D01*
X204540523Y-107403619D01*
X204616714Y-107365523D01*
X204654809Y-107327428D01*
X204692904Y-107251238D01*
X204692904Y-107060761D01*
X204654809Y-106984571D01*
X204616714Y-106946476D01*
X204692904Y-107784571D02*
X204692904Y-107936952D01*
X204654809Y-108013142D01*
X204616714Y-108051238D01*
X204502428Y-108127428D01*
X204350047Y-108165523D01*
X204045285Y-108165523D01*
X203969095Y-108127428D01*
X203931000Y-108089333D01*
X203892904Y-108013142D01*
X203892904Y-107860761D01*
X203931000Y-107784571D01*
X203969095Y-107746476D01*
X204045285Y-107708380D01*
X204235761Y-107708380D01*
X204311952Y-107746476D01*
X204350047Y-107784571D01*
X204388142Y-107860761D01*
X204388142Y-108013142D01*
X204350047Y-108089333D01*
X204311952Y-108127428D01*
X204235761Y-108165523D01*
%TO.C,D42*%
X199930904Y-87134771D02*
X199130904Y-87134771D01*
X199130904Y-87325247D01*
X199169000Y-87439533D01*
X199245190Y-87515723D01*
X199321380Y-87553819D01*
X199473761Y-87591914D01*
X199588047Y-87591914D01*
X199740428Y-87553819D01*
X199816619Y-87515723D01*
X199892809Y-87439533D01*
X199930904Y-87325247D01*
X199930904Y-87134771D01*
X199397571Y-88277628D02*
X199930904Y-88277628D01*
X199092809Y-88087152D02*
X199664238Y-87896676D01*
X199664238Y-88391914D01*
X199207095Y-88658580D02*
X199169000Y-88696676D01*
X199130904Y-88772866D01*
X199130904Y-88963342D01*
X199169000Y-89039533D01*
X199207095Y-89077628D01*
X199283285Y-89115723D01*
X199359476Y-89115723D01*
X199473761Y-89077628D01*
X199930904Y-88620485D01*
X199930904Y-89115723D01*
%TO.C,D25*%
X190405904Y-68084771D02*
X189605904Y-68084771D01*
X189605904Y-68275247D01*
X189644000Y-68389533D01*
X189720190Y-68465723D01*
X189796380Y-68503819D01*
X189948761Y-68541914D01*
X190063047Y-68541914D01*
X190215428Y-68503819D01*
X190291619Y-68465723D01*
X190367809Y-68389533D01*
X190405904Y-68275247D01*
X190405904Y-68084771D01*
X189682095Y-68846676D02*
X189644000Y-68884771D01*
X189605904Y-68960961D01*
X189605904Y-69151438D01*
X189644000Y-69227628D01*
X189682095Y-69265723D01*
X189758285Y-69303819D01*
X189834476Y-69303819D01*
X189948761Y-69265723D01*
X190405904Y-68808580D01*
X190405904Y-69303819D01*
X189605904Y-70027628D02*
X189605904Y-69646676D01*
X189986857Y-69608580D01*
X189948761Y-69646676D01*
X189910666Y-69722866D01*
X189910666Y-69913342D01*
X189948761Y-69989533D01*
X189986857Y-70027628D01*
X190063047Y-70065723D01*
X190253523Y-70065723D01*
X190329714Y-70027628D01*
X190367809Y-69989533D01*
X190405904Y-69913342D01*
X190405904Y-69722866D01*
X190367809Y-69646676D01*
X190329714Y-69608580D01*
%TO.C,D9*%
X221361904Y-49415723D02*
X220561904Y-49415723D01*
X220561904Y-49606200D01*
X220600000Y-49720485D01*
X220676190Y-49796676D01*
X220752380Y-49834771D01*
X220904761Y-49872866D01*
X221019047Y-49872866D01*
X221171428Y-49834771D01*
X221247619Y-49796676D01*
X221323809Y-49720485D01*
X221361904Y-49606200D01*
X221361904Y-49415723D01*
X221361904Y-50253819D02*
X221361904Y-50406200D01*
X221323809Y-50482390D01*
X221285714Y-50520485D01*
X221171428Y-50596676D01*
X221019047Y-50634771D01*
X220714285Y-50634771D01*
X220638095Y-50596676D01*
X220600000Y-50558580D01*
X220561904Y-50482390D01*
X220561904Y-50330009D01*
X220600000Y-50253819D01*
X220638095Y-50215723D01*
X220714285Y-50177628D01*
X220904761Y-50177628D01*
X220980952Y-50215723D01*
X221019047Y-50253819D01*
X221057142Y-50330009D01*
X221057142Y-50482390D01*
X221019047Y-50558580D01*
X220980952Y-50596676D01*
X220904761Y-50634771D01*
%TO.C,D71*%
X195167904Y-125234571D02*
X194367904Y-125234571D01*
X194367904Y-125425047D01*
X194406000Y-125539333D01*
X194482190Y-125615523D01*
X194558380Y-125653619D01*
X194710761Y-125691714D01*
X194825047Y-125691714D01*
X194977428Y-125653619D01*
X195053619Y-125615523D01*
X195129809Y-125539333D01*
X195167904Y-125425047D01*
X195167904Y-125234571D01*
X194367904Y-125958380D02*
X194367904Y-126491714D01*
X195167904Y-126148857D01*
X195167904Y-127215523D02*
X195167904Y-126758380D01*
X195167904Y-126986952D02*
X194367904Y-126986952D01*
X194482190Y-126910761D01*
X194558380Y-126834571D01*
X194596476Y-126758380D01*
%TO.C,D58*%
X185642904Y-106184571D02*
X184842904Y-106184571D01*
X184842904Y-106375047D01*
X184881000Y-106489333D01*
X184957190Y-106565523D01*
X185033380Y-106603619D01*
X185185761Y-106641714D01*
X185300047Y-106641714D01*
X185452428Y-106603619D01*
X185528619Y-106565523D01*
X185604809Y-106489333D01*
X185642904Y-106375047D01*
X185642904Y-106184571D01*
X184842904Y-107365523D02*
X184842904Y-106984571D01*
X185223857Y-106946476D01*
X185185761Y-106984571D01*
X185147666Y-107060761D01*
X185147666Y-107251238D01*
X185185761Y-107327428D01*
X185223857Y-107365523D01*
X185300047Y-107403619D01*
X185490523Y-107403619D01*
X185566714Y-107365523D01*
X185604809Y-107327428D01*
X185642904Y-107251238D01*
X185642904Y-107060761D01*
X185604809Y-106984571D01*
X185566714Y-106946476D01*
X185185761Y-107860761D02*
X185147666Y-107784571D01*
X185109571Y-107746476D01*
X185033380Y-107708380D01*
X184995285Y-107708380D01*
X184919095Y-107746476D01*
X184881000Y-107784571D01*
X184842904Y-107860761D01*
X184842904Y-108013142D01*
X184881000Y-108089333D01*
X184919095Y-108127428D01*
X184995285Y-108165523D01*
X185033380Y-108165523D01*
X185109571Y-108127428D01*
X185147666Y-108089333D01*
X185185761Y-108013142D01*
X185185761Y-107860761D01*
X185223857Y-107784571D01*
X185261952Y-107746476D01*
X185338142Y-107708380D01*
X185490523Y-107708380D01*
X185566714Y-107746476D01*
X185604809Y-107784571D01*
X185642904Y-107860761D01*
X185642904Y-108013142D01*
X185604809Y-108089333D01*
X185566714Y-108127428D01*
X185490523Y-108165523D01*
X185338142Y-108165523D01*
X185261952Y-108127428D01*
X185223857Y-108089333D01*
X185185761Y-108013142D01*
%TO.C,D41*%
X180880904Y-87134771D02*
X180080904Y-87134771D01*
X180080904Y-87325247D01*
X180119000Y-87439533D01*
X180195190Y-87515723D01*
X180271380Y-87553819D01*
X180423761Y-87591914D01*
X180538047Y-87591914D01*
X180690428Y-87553819D01*
X180766619Y-87515723D01*
X180842809Y-87439533D01*
X180880904Y-87325247D01*
X180880904Y-87134771D01*
X180347571Y-88277628D02*
X180880904Y-88277628D01*
X180042809Y-88087152D02*
X180614238Y-87896676D01*
X180614238Y-88391914D01*
X180880904Y-89115723D02*
X180880904Y-88658580D01*
X180880904Y-88887152D02*
X180080904Y-88887152D01*
X180195190Y-88810961D01*
X180271380Y-88734771D01*
X180309476Y-88658580D01*
%TO.C,D24*%
X171355904Y-68084771D02*
X170555904Y-68084771D01*
X170555904Y-68275247D01*
X170594000Y-68389533D01*
X170670190Y-68465723D01*
X170746380Y-68503819D01*
X170898761Y-68541914D01*
X171013047Y-68541914D01*
X171165428Y-68503819D01*
X171241619Y-68465723D01*
X171317809Y-68389533D01*
X171355904Y-68275247D01*
X171355904Y-68084771D01*
X170632095Y-68846676D02*
X170594000Y-68884771D01*
X170555904Y-68960961D01*
X170555904Y-69151438D01*
X170594000Y-69227628D01*
X170632095Y-69265723D01*
X170708285Y-69303819D01*
X170784476Y-69303819D01*
X170898761Y-69265723D01*
X171355904Y-68808580D01*
X171355904Y-69303819D01*
X170822571Y-69989533D02*
X171355904Y-69989533D01*
X170517809Y-69799057D02*
X171089238Y-69608580D01*
X171089238Y-70103819D01*
%TO.C,D8*%
X202311904Y-49415723D02*
X201511904Y-49415723D01*
X201511904Y-49606200D01*
X201550000Y-49720485D01*
X201626190Y-49796676D01*
X201702380Y-49834771D01*
X201854761Y-49872866D01*
X201969047Y-49872866D01*
X202121428Y-49834771D01*
X202197619Y-49796676D01*
X202273809Y-49720485D01*
X202311904Y-49606200D01*
X202311904Y-49415723D01*
X201854761Y-50330009D02*
X201816666Y-50253819D01*
X201778571Y-50215723D01*
X201702380Y-50177628D01*
X201664285Y-50177628D01*
X201588095Y-50215723D01*
X201550000Y-50253819D01*
X201511904Y-50330009D01*
X201511904Y-50482390D01*
X201550000Y-50558580D01*
X201588095Y-50596676D01*
X201664285Y-50634771D01*
X201702380Y-50634771D01*
X201778571Y-50596676D01*
X201816666Y-50558580D01*
X201854761Y-50482390D01*
X201854761Y-50330009D01*
X201892857Y-50253819D01*
X201930952Y-50215723D01*
X202007142Y-50177628D01*
X202159523Y-50177628D01*
X202235714Y-50215723D01*
X202273809Y-50253819D01*
X202311904Y-50330009D01*
X202311904Y-50482390D01*
X202273809Y-50558580D01*
X202235714Y-50596676D01*
X202159523Y-50634771D01*
X202007142Y-50634771D01*
X201930952Y-50596676D01*
X201892857Y-50558580D01*
X201854761Y-50482390D01*
%TO.C,D80*%
X157067904Y-137140571D02*
X156267904Y-137140571D01*
X156267904Y-137331047D01*
X156306000Y-137445333D01*
X156382190Y-137521523D01*
X156458380Y-137559619D01*
X156610761Y-137597714D01*
X156725047Y-137597714D01*
X156877428Y-137559619D01*
X156953619Y-137521523D01*
X157029809Y-137445333D01*
X157067904Y-137331047D01*
X157067904Y-137140571D01*
X156610761Y-138054857D02*
X156572666Y-137978666D01*
X156534571Y-137940571D01*
X156458380Y-137902476D01*
X156420285Y-137902476D01*
X156344095Y-137940571D01*
X156306000Y-137978666D01*
X156267904Y-138054857D01*
X156267904Y-138207238D01*
X156306000Y-138283428D01*
X156344095Y-138321523D01*
X156420285Y-138359619D01*
X156458380Y-138359619D01*
X156534571Y-138321523D01*
X156572666Y-138283428D01*
X156610761Y-138207238D01*
X156610761Y-138054857D01*
X156648857Y-137978666D01*
X156686952Y-137940571D01*
X156763142Y-137902476D01*
X156915523Y-137902476D01*
X156991714Y-137940571D01*
X157029809Y-137978666D01*
X157067904Y-138054857D01*
X157067904Y-138207238D01*
X157029809Y-138283428D01*
X156991714Y-138321523D01*
X156915523Y-138359619D01*
X156763142Y-138359619D01*
X156686952Y-138321523D01*
X156648857Y-138283428D01*
X156610761Y-138207238D01*
X156267904Y-138854857D02*
X156267904Y-138931047D01*
X156306000Y-139007238D01*
X156344095Y-139045333D01*
X156420285Y-139083428D01*
X156572666Y-139121523D01*
X156763142Y-139121523D01*
X156915523Y-139083428D01*
X156991714Y-139045333D01*
X157029809Y-139007238D01*
X157067904Y-138931047D01*
X157067904Y-138854857D01*
X157029809Y-138778666D01*
X156991714Y-138740571D01*
X156915523Y-138702476D01*
X156763142Y-138664380D01*
X156572666Y-138664380D01*
X156420285Y-138702476D01*
X156344095Y-138740571D01*
X156306000Y-138778666D01*
X156267904Y-138854857D01*
%TO.C,D70*%
X176117904Y-125234571D02*
X175317904Y-125234571D01*
X175317904Y-125425047D01*
X175356000Y-125539333D01*
X175432190Y-125615523D01*
X175508380Y-125653619D01*
X175660761Y-125691714D01*
X175775047Y-125691714D01*
X175927428Y-125653619D01*
X176003619Y-125615523D01*
X176079809Y-125539333D01*
X176117904Y-125425047D01*
X176117904Y-125234571D01*
X175317904Y-125958380D02*
X175317904Y-126491714D01*
X176117904Y-126148857D01*
X175317904Y-126948857D02*
X175317904Y-127025047D01*
X175356000Y-127101238D01*
X175394095Y-127139333D01*
X175470285Y-127177428D01*
X175622666Y-127215523D01*
X175813142Y-127215523D01*
X175965523Y-127177428D01*
X176041714Y-127139333D01*
X176079809Y-127101238D01*
X176117904Y-127025047D01*
X176117904Y-126948857D01*
X176079809Y-126872666D01*
X176041714Y-126834571D01*
X175965523Y-126796476D01*
X175813142Y-126758380D01*
X175622666Y-126758380D01*
X175470285Y-126796476D01*
X175394095Y-126834571D01*
X175356000Y-126872666D01*
X175317904Y-126948857D01*
%TO.C,D57*%
X166592904Y-106184571D02*
X165792904Y-106184571D01*
X165792904Y-106375047D01*
X165831000Y-106489333D01*
X165907190Y-106565523D01*
X165983380Y-106603619D01*
X166135761Y-106641714D01*
X166250047Y-106641714D01*
X166402428Y-106603619D01*
X166478619Y-106565523D01*
X166554809Y-106489333D01*
X166592904Y-106375047D01*
X166592904Y-106184571D01*
X165792904Y-107365523D02*
X165792904Y-106984571D01*
X166173857Y-106946476D01*
X166135761Y-106984571D01*
X166097666Y-107060761D01*
X166097666Y-107251238D01*
X166135761Y-107327428D01*
X166173857Y-107365523D01*
X166250047Y-107403619D01*
X166440523Y-107403619D01*
X166516714Y-107365523D01*
X166554809Y-107327428D01*
X166592904Y-107251238D01*
X166592904Y-107060761D01*
X166554809Y-106984571D01*
X166516714Y-106946476D01*
X165792904Y-107670285D02*
X165792904Y-108203619D01*
X166592904Y-107860761D01*
%TO.C,D40*%
X161830904Y-87134771D02*
X161030904Y-87134771D01*
X161030904Y-87325247D01*
X161069000Y-87439533D01*
X161145190Y-87515723D01*
X161221380Y-87553819D01*
X161373761Y-87591914D01*
X161488047Y-87591914D01*
X161640428Y-87553819D01*
X161716619Y-87515723D01*
X161792809Y-87439533D01*
X161830904Y-87325247D01*
X161830904Y-87134771D01*
X161297571Y-88277628D02*
X161830904Y-88277628D01*
X160992809Y-88087152D02*
X161564238Y-87896676D01*
X161564238Y-88391914D01*
X161030904Y-88849057D02*
X161030904Y-88925247D01*
X161069000Y-89001438D01*
X161107095Y-89039533D01*
X161183285Y-89077628D01*
X161335666Y-89115723D01*
X161526142Y-89115723D01*
X161678523Y-89077628D01*
X161754714Y-89039533D01*
X161792809Y-89001438D01*
X161830904Y-88925247D01*
X161830904Y-88849057D01*
X161792809Y-88772866D01*
X161754714Y-88734771D01*
X161678523Y-88696676D01*
X161526142Y-88658580D01*
X161335666Y-88658580D01*
X161183285Y-88696676D01*
X161107095Y-88734771D01*
X161069000Y-88772866D01*
X161030904Y-88849057D01*
%TO.C,D23*%
X152305904Y-68084771D02*
X151505904Y-68084771D01*
X151505904Y-68275247D01*
X151544000Y-68389533D01*
X151620190Y-68465723D01*
X151696380Y-68503819D01*
X151848761Y-68541914D01*
X151963047Y-68541914D01*
X152115428Y-68503819D01*
X152191619Y-68465723D01*
X152267809Y-68389533D01*
X152305904Y-68275247D01*
X152305904Y-68084771D01*
X151582095Y-68846676D02*
X151544000Y-68884771D01*
X151505904Y-68960961D01*
X151505904Y-69151438D01*
X151544000Y-69227628D01*
X151582095Y-69265723D01*
X151658285Y-69303819D01*
X151734476Y-69303819D01*
X151848761Y-69265723D01*
X152305904Y-68808580D01*
X152305904Y-69303819D01*
X151505904Y-69570485D02*
X151505904Y-70065723D01*
X151810666Y-69799057D01*
X151810666Y-69913342D01*
X151848761Y-69989533D01*
X151886857Y-70027628D01*
X151963047Y-70065723D01*
X152153523Y-70065723D01*
X152229714Y-70027628D01*
X152267809Y-69989533D01*
X152305904Y-69913342D01*
X152305904Y-69684771D01*
X152267809Y-69608580D01*
X152229714Y-69570485D01*
%TO.C,D7*%
X183261904Y-49415723D02*
X182461904Y-49415723D01*
X182461904Y-49606200D01*
X182500000Y-49720485D01*
X182576190Y-49796676D01*
X182652380Y-49834771D01*
X182804761Y-49872866D01*
X182919047Y-49872866D01*
X183071428Y-49834771D01*
X183147619Y-49796676D01*
X183223809Y-49720485D01*
X183261904Y-49606200D01*
X183261904Y-49415723D01*
X182461904Y-50139533D02*
X182461904Y-50672866D01*
X183261904Y-50330009D01*
%TO.C,D69*%
X157067904Y-125234571D02*
X156267904Y-125234571D01*
X156267904Y-125425047D01*
X156306000Y-125539333D01*
X156382190Y-125615523D01*
X156458380Y-125653619D01*
X156610761Y-125691714D01*
X156725047Y-125691714D01*
X156877428Y-125653619D01*
X156953619Y-125615523D01*
X157029809Y-125539333D01*
X157067904Y-125425047D01*
X157067904Y-125234571D01*
X156267904Y-126377428D02*
X156267904Y-126225047D01*
X156306000Y-126148857D01*
X156344095Y-126110761D01*
X156458380Y-126034571D01*
X156610761Y-125996476D01*
X156915523Y-125996476D01*
X156991714Y-126034571D01*
X157029809Y-126072666D01*
X157067904Y-126148857D01*
X157067904Y-126301238D01*
X157029809Y-126377428D01*
X156991714Y-126415523D01*
X156915523Y-126453619D01*
X156725047Y-126453619D01*
X156648857Y-126415523D01*
X156610761Y-126377428D01*
X156572666Y-126301238D01*
X156572666Y-126148857D01*
X156610761Y-126072666D01*
X156648857Y-126034571D01*
X156725047Y-125996476D01*
X157067904Y-126834571D02*
X157067904Y-126986952D01*
X157029809Y-127063142D01*
X156991714Y-127101238D01*
X156877428Y-127177428D01*
X156725047Y-127215523D01*
X156420285Y-127215523D01*
X156344095Y-127177428D01*
X156306000Y-127139333D01*
X156267904Y-127063142D01*
X156267904Y-126910761D01*
X156306000Y-126834571D01*
X156344095Y-126796476D01*
X156420285Y-126758380D01*
X156610761Y-126758380D01*
X156686952Y-126796476D01*
X156725047Y-126834571D01*
X156763142Y-126910761D01*
X156763142Y-127063142D01*
X156725047Y-127139333D01*
X156686952Y-127177428D01*
X156610761Y-127215523D01*
%TO.C,D56*%
X147542904Y-106184571D02*
X146742904Y-106184571D01*
X146742904Y-106375047D01*
X146781000Y-106489333D01*
X146857190Y-106565523D01*
X146933380Y-106603619D01*
X147085761Y-106641714D01*
X147200047Y-106641714D01*
X147352428Y-106603619D01*
X147428619Y-106565523D01*
X147504809Y-106489333D01*
X147542904Y-106375047D01*
X147542904Y-106184571D01*
X146742904Y-107365523D02*
X146742904Y-106984571D01*
X147123857Y-106946476D01*
X147085761Y-106984571D01*
X147047666Y-107060761D01*
X147047666Y-107251238D01*
X147085761Y-107327428D01*
X147123857Y-107365523D01*
X147200047Y-107403619D01*
X147390523Y-107403619D01*
X147466714Y-107365523D01*
X147504809Y-107327428D01*
X147542904Y-107251238D01*
X147542904Y-107060761D01*
X147504809Y-106984571D01*
X147466714Y-106946476D01*
X146742904Y-108089333D02*
X146742904Y-107936952D01*
X146781000Y-107860761D01*
X146819095Y-107822666D01*
X146933380Y-107746476D01*
X147085761Y-107708380D01*
X147390523Y-107708380D01*
X147466714Y-107746476D01*
X147504809Y-107784571D01*
X147542904Y-107860761D01*
X147542904Y-108013142D01*
X147504809Y-108089333D01*
X147466714Y-108127428D01*
X147390523Y-108165523D01*
X147200047Y-108165523D01*
X147123857Y-108127428D01*
X147085761Y-108089333D01*
X147047666Y-108013142D01*
X147047666Y-107860761D01*
X147085761Y-107784571D01*
X147123857Y-107746476D01*
X147200047Y-107708380D01*
%TO.C,D39*%
X142780904Y-87134771D02*
X141980904Y-87134771D01*
X141980904Y-87325247D01*
X142019000Y-87439533D01*
X142095190Y-87515723D01*
X142171380Y-87553819D01*
X142323761Y-87591914D01*
X142438047Y-87591914D01*
X142590428Y-87553819D01*
X142666619Y-87515723D01*
X142742809Y-87439533D01*
X142780904Y-87325247D01*
X142780904Y-87134771D01*
X141980904Y-87858580D02*
X141980904Y-88353819D01*
X142285666Y-88087152D01*
X142285666Y-88201438D01*
X142323761Y-88277628D01*
X142361857Y-88315723D01*
X142438047Y-88353819D01*
X142628523Y-88353819D01*
X142704714Y-88315723D01*
X142742809Y-88277628D01*
X142780904Y-88201438D01*
X142780904Y-87972866D01*
X142742809Y-87896676D01*
X142704714Y-87858580D01*
X142780904Y-88734771D02*
X142780904Y-88887152D01*
X142742809Y-88963342D01*
X142704714Y-89001438D01*
X142590428Y-89077628D01*
X142438047Y-89115723D01*
X142133285Y-89115723D01*
X142057095Y-89077628D01*
X142019000Y-89039533D01*
X141980904Y-88963342D01*
X141980904Y-88810961D01*
X142019000Y-88734771D01*
X142057095Y-88696676D01*
X142133285Y-88658580D01*
X142323761Y-88658580D01*
X142399952Y-88696676D01*
X142438047Y-88734771D01*
X142476142Y-88810961D01*
X142476142Y-88963342D01*
X142438047Y-89039533D01*
X142399952Y-89077628D01*
X142323761Y-89115723D01*
%TO.C,D22*%
X133255904Y-68084771D02*
X132455904Y-68084771D01*
X132455904Y-68275247D01*
X132494000Y-68389533D01*
X132570190Y-68465723D01*
X132646380Y-68503819D01*
X132798761Y-68541914D01*
X132913047Y-68541914D01*
X133065428Y-68503819D01*
X133141619Y-68465723D01*
X133217809Y-68389533D01*
X133255904Y-68275247D01*
X133255904Y-68084771D01*
X132532095Y-68846676D02*
X132494000Y-68884771D01*
X132455904Y-68960961D01*
X132455904Y-69151438D01*
X132494000Y-69227628D01*
X132532095Y-69265723D01*
X132608285Y-69303819D01*
X132684476Y-69303819D01*
X132798761Y-69265723D01*
X133255904Y-68808580D01*
X133255904Y-69303819D01*
X132532095Y-69608580D02*
X132494000Y-69646676D01*
X132455904Y-69722866D01*
X132455904Y-69913342D01*
X132494000Y-69989533D01*
X132532095Y-70027628D01*
X132608285Y-70065723D01*
X132684476Y-70065723D01*
X132798761Y-70027628D01*
X133255904Y-69570485D01*
X133255904Y-70065723D01*
%TO.C,D6*%
X164211904Y-49415723D02*
X163411904Y-49415723D01*
X163411904Y-49606200D01*
X163450000Y-49720485D01*
X163526190Y-49796676D01*
X163602380Y-49834771D01*
X163754761Y-49872866D01*
X163869047Y-49872866D01*
X164021428Y-49834771D01*
X164097619Y-49796676D01*
X164173809Y-49720485D01*
X164211904Y-49606200D01*
X164211904Y-49415723D01*
X163411904Y-50558580D02*
X163411904Y-50406200D01*
X163450000Y-50330009D01*
X163488095Y-50291914D01*
X163602380Y-50215723D01*
X163754761Y-50177628D01*
X164059523Y-50177628D01*
X164135714Y-50215723D01*
X164173809Y-50253819D01*
X164211904Y-50330009D01*
X164211904Y-50482390D01*
X164173809Y-50558580D01*
X164135714Y-50596676D01*
X164059523Y-50634771D01*
X163869047Y-50634771D01*
X163792857Y-50596676D01*
X163754761Y-50558580D01*
X163716666Y-50482390D01*
X163716666Y-50330009D01*
X163754761Y-50253819D01*
X163792857Y-50215723D01*
X163869047Y-50177628D01*
%TO.C,D68*%
X138017904Y-125234571D02*
X137217904Y-125234571D01*
X137217904Y-125425047D01*
X137256000Y-125539333D01*
X137332190Y-125615523D01*
X137408380Y-125653619D01*
X137560761Y-125691714D01*
X137675047Y-125691714D01*
X137827428Y-125653619D01*
X137903619Y-125615523D01*
X137979809Y-125539333D01*
X138017904Y-125425047D01*
X138017904Y-125234571D01*
X137217904Y-126377428D02*
X137217904Y-126225047D01*
X137256000Y-126148857D01*
X137294095Y-126110761D01*
X137408380Y-126034571D01*
X137560761Y-125996476D01*
X137865523Y-125996476D01*
X137941714Y-126034571D01*
X137979809Y-126072666D01*
X138017904Y-126148857D01*
X138017904Y-126301238D01*
X137979809Y-126377428D01*
X137941714Y-126415523D01*
X137865523Y-126453619D01*
X137675047Y-126453619D01*
X137598857Y-126415523D01*
X137560761Y-126377428D01*
X137522666Y-126301238D01*
X137522666Y-126148857D01*
X137560761Y-126072666D01*
X137598857Y-126034571D01*
X137675047Y-125996476D01*
X137560761Y-126910761D02*
X137522666Y-126834571D01*
X137484571Y-126796476D01*
X137408380Y-126758380D01*
X137370285Y-126758380D01*
X137294095Y-126796476D01*
X137256000Y-126834571D01*
X137217904Y-126910761D01*
X137217904Y-127063142D01*
X137256000Y-127139333D01*
X137294095Y-127177428D01*
X137370285Y-127215523D01*
X137408380Y-127215523D01*
X137484571Y-127177428D01*
X137522666Y-127139333D01*
X137560761Y-127063142D01*
X137560761Y-126910761D01*
X137598857Y-126834571D01*
X137636952Y-126796476D01*
X137713142Y-126758380D01*
X137865523Y-126758380D01*
X137941714Y-126796476D01*
X137979809Y-126834571D01*
X138017904Y-126910761D01*
X138017904Y-127063142D01*
X137979809Y-127139333D01*
X137941714Y-127177428D01*
X137865523Y-127215523D01*
X137713142Y-127215523D01*
X137636952Y-127177428D01*
X137598857Y-127139333D01*
X137560761Y-127063142D01*
%TO.C,D55*%
X128492904Y-106184571D02*
X127692904Y-106184571D01*
X127692904Y-106375047D01*
X127731000Y-106489333D01*
X127807190Y-106565523D01*
X127883380Y-106603619D01*
X128035761Y-106641714D01*
X128150047Y-106641714D01*
X128302428Y-106603619D01*
X128378619Y-106565523D01*
X128454809Y-106489333D01*
X128492904Y-106375047D01*
X128492904Y-106184571D01*
X127692904Y-107365523D02*
X127692904Y-106984571D01*
X128073857Y-106946476D01*
X128035761Y-106984571D01*
X127997666Y-107060761D01*
X127997666Y-107251238D01*
X128035761Y-107327428D01*
X128073857Y-107365523D01*
X128150047Y-107403619D01*
X128340523Y-107403619D01*
X128416714Y-107365523D01*
X128454809Y-107327428D01*
X128492904Y-107251238D01*
X128492904Y-107060761D01*
X128454809Y-106984571D01*
X128416714Y-106946476D01*
X127692904Y-108127428D02*
X127692904Y-107746476D01*
X128073857Y-107708380D01*
X128035761Y-107746476D01*
X127997666Y-107822666D01*
X127997666Y-108013142D01*
X128035761Y-108089333D01*
X128073857Y-108127428D01*
X128150047Y-108165523D01*
X128340523Y-108165523D01*
X128416714Y-108127428D01*
X128454809Y-108089333D01*
X128492904Y-108013142D01*
X128492904Y-107822666D01*
X128454809Y-107746476D01*
X128416714Y-107708380D01*
%TO.C,D38*%
X123730904Y-87134771D02*
X122930904Y-87134771D01*
X122930904Y-87325247D01*
X122969000Y-87439533D01*
X123045190Y-87515723D01*
X123121380Y-87553819D01*
X123273761Y-87591914D01*
X123388047Y-87591914D01*
X123540428Y-87553819D01*
X123616619Y-87515723D01*
X123692809Y-87439533D01*
X123730904Y-87325247D01*
X123730904Y-87134771D01*
X122930904Y-87858580D02*
X122930904Y-88353819D01*
X123235666Y-88087152D01*
X123235666Y-88201438D01*
X123273761Y-88277628D01*
X123311857Y-88315723D01*
X123388047Y-88353819D01*
X123578523Y-88353819D01*
X123654714Y-88315723D01*
X123692809Y-88277628D01*
X123730904Y-88201438D01*
X123730904Y-87972866D01*
X123692809Y-87896676D01*
X123654714Y-87858580D01*
X123273761Y-88810961D02*
X123235666Y-88734771D01*
X123197571Y-88696676D01*
X123121380Y-88658580D01*
X123083285Y-88658580D01*
X123007095Y-88696676D01*
X122969000Y-88734771D01*
X122930904Y-88810961D01*
X122930904Y-88963342D01*
X122969000Y-89039533D01*
X123007095Y-89077628D01*
X123083285Y-89115723D01*
X123121380Y-89115723D01*
X123197571Y-89077628D01*
X123235666Y-89039533D01*
X123273761Y-88963342D01*
X123273761Y-88810961D01*
X123311857Y-88734771D01*
X123349952Y-88696676D01*
X123426142Y-88658580D01*
X123578523Y-88658580D01*
X123654714Y-88696676D01*
X123692809Y-88734771D01*
X123730904Y-88810961D01*
X123730904Y-88963342D01*
X123692809Y-89039533D01*
X123654714Y-89077628D01*
X123578523Y-89115723D01*
X123426142Y-89115723D01*
X123349952Y-89077628D01*
X123311857Y-89039533D01*
X123273761Y-88963342D01*
%TO.C,D21*%
X114205904Y-68084771D02*
X113405904Y-68084771D01*
X113405904Y-68275247D01*
X113444000Y-68389533D01*
X113520190Y-68465723D01*
X113596380Y-68503819D01*
X113748761Y-68541914D01*
X113863047Y-68541914D01*
X114015428Y-68503819D01*
X114091619Y-68465723D01*
X114167809Y-68389533D01*
X114205904Y-68275247D01*
X114205904Y-68084771D01*
X113482095Y-68846676D02*
X113444000Y-68884771D01*
X113405904Y-68960961D01*
X113405904Y-69151438D01*
X113444000Y-69227628D01*
X113482095Y-69265723D01*
X113558285Y-69303819D01*
X113634476Y-69303819D01*
X113748761Y-69265723D01*
X114205904Y-68808580D01*
X114205904Y-69303819D01*
X114205904Y-70065723D02*
X114205904Y-69608580D01*
X114205904Y-69837152D02*
X113405904Y-69837152D01*
X113520190Y-69760961D01*
X113596380Y-69684771D01*
X113634476Y-69608580D01*
%TO.C,D5*%
X135636904Y-49415723D02*
X134836904Y-49415723D01*
X134836904Y-49606200D01*
X134875000Y-49720485D01*
X134951190Y-49796676D01*
X135027380Y-49834771D01*
X135179761Y-49872866D01*
X135294047Y-49872866D01*
X135446428Y-49834771D01*
X135522619Y-49796676D01*
X135598809Y-49720485D01*
X135636904Y-49606200D01*
X135636904Y-49415723D01*
X134836904Y-50596676D02*
X134836904Y-50215723D01*
X135217857Y-50177628D01*
X135179761Y-50215723D01*
X135141666Y-50291914D01*
X135141666Y-50482390D01*
X135179761Y-50558580D01*
X135217857Y-50596676D01*
X135294047Y-50634771D01*
X135484523Y-50634771D01*
X135560714Y-50596676D01*
X135598809Y-50558580D01*
X135636904Y-50482390D01*
X135636904Y-50291914D01*
X135598809Y-50215723D01*
X135560714Y-50177628D01*
%TO.C,D67*%
X118967904Y-125234571D02*
X118167904Y-125234571D01*
X118167904Y-125425047D01*
X118206000Y-125539333D01*
X118282190Y-125615523D01*
X118358380Y-125653619D01*
X118510761Y-125691714D01*
X118625047Y-125691714D01*
X118777428Y-125653619D01*
X118853619Y-125615523D01*
X118929809Y-125539333D01*
X118967904Y-125425047D01*
X118967904Y-125234571D01*
X118167904Y-126377428D02*
X118167904Y-126225047D01*
X118206000Y-126148857D01*
X118244095Y-126110761D01*
X118358380Y-126034571D01*
X118510761Y-125996476D01*
X118815523Y-125996476D01*
X118891714Y-126034571D01*
X118929809Y-126072666D01*
X118967904Y-126148857D01*
X118967904Y-126301238D01*
X118929809Y-126377428D01*
X118891714Y-126415523D01*
X118815523Y-126453619D01*
X118625047Y-126453619D01*
X118548857Y-126415523D01*
X118510761Y-126377428D01*
X118472666Y-126301238D01*
X118472666Y-126148857D01*
X118510761Y-126072666D01*
X118548857Y-126034571D01*
X118625047Y-125996476D01*
X118167904Y-126720285D02*
X118167904Y-127253619D01*
X118967904Y-126910761D01*
%TO.C,D54*%
X109442904Y-106184571D02*
X108642904Y-106184571D01*
X108642904Y-106375047D01*
X108681000Y-106489333D01*
X108757190Y-106565523D01*
X108833380Y-106603619D01*
X108985761Y-106641714D01*
X109100047Y-106641714D01*
X109252428Y-106603619D01*
X109328619Y-106565523D01*
X109404809Y-106489333D01*
X109442904Y-106375047D01*
X109442904Y-106184571D01*
X108642904Y-107365523D02*
X108642904Y-106984571D01*
X109023857Y-106946476D01*
X108985761Y-106984571D01*
X108947666Y-107060761D01*
X108947666Y-107251238D01*
X108985761Y-107327428D01*
X109023857Y-107365523D01*
X109100047Y-107403619D01*
X109290523Y-107403619D01*
X109366714Y-107365523D01*
X109404809Y-107327428D01*
X109442904Y-107251238D01*
X109442904Y-107060761D01*
X109404809Y-106984571D01*
X109366714Y-106946476D01*
X108909571Y-108089333D02*
X109442904Y-108089333D01*
X108604809Y-107898857D02*
X109176238Y-107708380D01*
X109176238Y-108203619D01*
%TO.C,D37*%
X104680904Y-87134771D02*
X103880904Y-87134771D01*
X103880904Y-87325247D01*
X103919000Y-87439533D01*
X103995190Y-87515723D01*
X104071380Y-87553819D01*
X104223761Y-87591914D01*
X104338047Y-87591914D01*
X104490428Y-87553819D01*
X104566619Y-87515723D01*
X104642809Y-87439533D01*
X104680904Y-87325247D01*
X104680904Y-87134771D01*
X103880904Y-87858580D02*
X103880904Y-88353819D01*
X104185666Y-88087152D01*
X104185666Y-88201438D01*
X104223761Y-88277628D01*
X104261857Y-88315723D01*
X104338047Y-88353819D01*
X104528523Y-88353819D01*
X104604714Y-88315723D01*
X104642809Y-88277628D01*
X104680904Y-88201438D01*
X104680904Y-87972866D01*
X104642809Y-87896676D01*
X104604714Y-87858580D01*
X103880904Y-88620485D02*
X103880904Y-89153819D01*
X104680904Y-88810961D01*
%TO.C,D20*%
X95155704Y-68084771D02*
X94355704Y-68084771D01*
X94355704Y-68275247D01*
X94393800Y-68389533D01*
X94469990Y-68465723D01*
X94546180Y-68503819D01*
X94698561Y-68541914D01*
X94812847Y-68541914D01*
X94965228Y-68503819D01*
X95041419Y-68465723D01*
X95117609Y-68389533D01*
X95155704Y-68275247D01*
X95155704Y-68084771D01*
X94431895Y-68846676D02*
X94393800Y-68884771D01*
X94355704Y-68960961D01*
X94355704Y-69151438D01*
X94393800Y-69227628D01*
X94431895Y-69265723D01*
X94508085Y-69303819D01*
X94584276Y-69303819D01*
X94698561Y-69265723D01*
X95155704Y-68808580D01*
X95155704Y-69303819D01*
X94355704Y-69799057D02*
X94355704Y-69875247D01*
X94393800Y-69951438D01*
X94431895Y-69989533D01*
X94508085Y-70027628D01*
X94660466Y-70065723D01*
X94850942Y-70065723D01*
X95003323Y-70027628D01*
X95079514Y-69989533D01*
X95117609Y-69951438D01*
X95155704Y-69875247D01*
X95155704Y-69799057D01*
X95117609Y-69722866D01*
X95079514Y-69684771D01*
X95003323Y-69646676D01*
X94850942Y-69608580D01*
X94660466Y-69608580D01*
X94508085Y-69646676D01*
X94431895Y-69684771D01*
X94393800Y-69722866D01*
X94355704Y-69799057D01*
%TO.C,D4*%
X116586904Y-49415723D02*
X115786904Y-49415723D01*
X115786904Y-49606200D01*
X115825000Y-49720485D01*
X115901190Y-49796676D01*
X115977380Y-49834771D01*
X116129761Y-49872866D01*
X116244047Y-49872866D01*
X116396428Y-49834771D01*
X116472619Y-49796676D01*
X116548809Y-49720485D01*
X116586904Y-49606200D01*
X116586904Y-49415723D01*
X116053571Y-50558580D02*
X116586904Y-50558580D01*
X115748809Y-50368104D02*
X116320238Y-50177628D01*
X116320238Y-50672866D01*
%TO.C,D79*%
X88011904Y-141903571D02*
X87211904Y-141903571D01*
X87211904Y-142094047D01*
X87250000Y-142208333D01*
X87326190Y-142284523D01*
X87402380Y-142322619D01*
X87554761Y-142360714D01*
X87669047Y-142360714D01*
X87821428Y-142322619D01*
X87897619Y-142284523D01*
X87973809Y-142208333D01*
X88011904Y-142094047D01*
X88011904Y-141903571D01*
X87211904Y-142627380D02*
X87211904Y-143160714D01*
X88011904Y-142817857D01*
X88011904Y-143503571D02*
X88011904Y-143655952D01*
X87973809Y-143732142D01*
X87935714Y-143770238D01*
X87821428Y-143846428D01*
X87669047Y-143884523D01*
X87364285Y-143884523D01*
X87288095Y-143846428D01*
X87250000Y-143808333D01*
X87211904Y-143732142D01*
X87211904Y-143579761D01*
X87250000Y-143503571D01*
X87288095Y-143465476D01*
X87364285Y-143427380D01*
X87554761Y-143427380D01*
X87630952Y-143465476D01*
X87669047Y-143503571D01*
X87707142Y-143579761D01*
X87707142Y-143732142D01*
X87669047Y-143808333D01*
X87630952Y-143846428D01*
X87554761Y-143884523D01*
%TO.C,D66*%
X99918104Y-125234571D02*
X99118104Y-125234571D01*
X99118104Y-125425047D01*
X99156200Y-125539333D01*
X99232390Y-125615523D01*
X99308580Y-125653619D01*
X99460961Y-125691714D01*
X99575247Y-125691714D01*
X99727628Y-125653619D01*
X99803819Y-125615523D01*
X99880009Y-125539333D01*
X99918104Y-125425047D01*
X99918104Y-125234571D01*
X99118104Y-126377428D02*
X99118104Y-126225047D01*
X99156200Y-126148857D01*
X99194295Y-126110761D01*
X99308580Y-126034571D01*
X99460961Y-125996476D01*
X99765723Y-125996476D01*
X99841914Y-126034571D01*
X99880009Y-126072666D01*
X99918104Y-126148857D01*
X99918104Y-126301238D01*
X99880009Y-126377428D01*
X99841914Y-126415523D01*
X99765723Y-126453619D01*
X99575247Y-126453619D01*
X99499057Y-126415523D01*
X99460961Y-126377428D01*
X99422866Y-126301238D01*
X99422866Y-126148857D01*
X99460961Y-126072666D01*
X99499057Y-126034571D01*
X99575247Y-125996476D01*
X99118104Y-127139333D02*
X99118104Y-126986952D01*
X99156200Y-126910761D01*
X99194295Y-126872666D01*
X99308580Y-126796476D01*
X99460961Y-126758380D01*
X99765723Y-126758380D01*
X99841914Y-126796476D01*
X99880009Y-126834571D01*
X99918104Y-126910761D01*
X99918104Y-127063142D01*
X99880009Y-127139333D01*
X99841914Y-127177428D01*
X99765723Y-127215523D01*
X99575247Y-127215523D01*
X99499057Y-127177428D01*
X99460961Y-127139333D01*
X99422866Y-127063142D01*
X99422866Y-126910761D01*
X99460961Y-126834571D01*
X99499057Y-126796476D01*
X99575247Y-126758380D01*
%TO.C,D53*%
X90393104Y-106184571D02*
X89593104Y-106184571D01*
X89593104Y-106375047D01*
X89631200Y-106489333D01*
X89707390Y-106565523D01*
X89783580Y-106603619D01*
X89935961Y-106641714D01*
X90050247Y-106641714D01*
X90202628Y-106603619D01*
X90278819Y-106565523D01*
X90355009Y-106489333D01*
X90393104Y-106375047D01*
X90393104Y-106184571D01*
X89593104Y-107365523D02*
X89593104Y-106984571D01*
X89974057Y-106946476D01*
X89935961Y-106984571D01*
X89897866Y-107060761D01*
X89897866Y-107251238D01*
X89935961Y-107327428D01*
X89974057Y-107365523D01*
X90050247Y-107403619D01*
X90240723Y-107403619D01*
X90316914Y-107365523D01*
X90355009Y-107327428D01*
X90393104Y-107251238D01*
X90393104Y-107060761D01*
X90355009Y-106984571D01*
X90316914Y-106946476D01*
X89593104Y-107670285D02*
X89593104Y-108165523D01*
X89897866Y-107898857D01*
X89897866Y-108013142D01*
X89935961Y-108089333D01*
X89974057Y-108127428D01*
X90050247Y-108165523D01*
X90240723Y-108165523D01*
X90316914Y-108127428D01*
X90355009Y-108089333D01*
X90393104Y-108013142D01*
X90393104Y-107784571D01*
X90355009Y-107708380D01*
X90316914Y-107670285D01*
%TO.C,D36*%
X85630704Y-87134771D02*
X84830704Y-87134771D01*
X84830704Y-87325247D01*
X84868800Y-87439533D01*
X84944990Y-87515723D01*
X85021180Y-87553819D01*
X85173561Y-87591914D01*
X85287847Y-87591914D01*
X85440228Y-87553819D01*
X85516419Y-87515723D01*
X85592609Y-87439533D01*
X85630704Y-87325247D01*
X85630704Y-87134771D01*
X84830704Y-87858580D02*
X84830704Y-88353819D01*
X85135466Y-88087152D01*
X85135466Y-88201438D01*
X85173561Y-88277628D01*
X85211657Y-88315723D01*
X85287847Y-88353819D01*
X85478323Y-88353819D01*
X85554514Y-88315723D01*
X85592609Y-88277628D01*
X85630704Y-88201438D01*
X85630704Y-87972866D01*
X85592609Y-87896676D01*
X85554514Y-87858580D01*
X84830704Y-89039533D02*
X84830704Y-88887152D01*
X84868800Y-88810961D01*
X84906895Y-88772866D01*
X85021180Y-88696676D01*
X85173561Y-88658580D01*
X85478323Y-88658580D01*
X85554514Y-88696676D01*
X85592609Y-88734771D01*
X85630704Y-88810961D01*
X85630704Y-88963342D01*
X85592609Y-89039533D01*
X85554514Y-89077628D01*
X85478323Y-89115723D01*
X85287847Y-89115723D01*
X85211657Y-89077628D01*
X85173561Y-89039533D01*
X85135466Y-88963342D01*
X85135466Y-88810961D01*
X85173561Y-88734771D01*
X85211657Y-88696676D01*
X85287847Y-88658580D01*
%TO.C,D19*%
X76105704Y-68084771D02*
X75305704Y-68084771D01*
X75305704Y-68275247D01*
X75343800Y-68389533D01*
X75419990Y-68465723D01*
X75496180Y-68503819D01*
X75648561Y-68541914D01*
X75762847Y-68541914D01*
X75915228Y-68503819D01*
X75991419Y-68465723D01*
X76067609Y-68389533D01*
X76105704Y-68275247D01*
X76105704Y-68084771D01*
X76105704Y-69303819D02*
X76105704Y-68846676D01*
X76105704Y-69075247D02*
X75305704Y-69075247D01*
X75419990Y-68999057D01*
X75496180Y-68922866D01*
X75534276Y-68846676D01*
X76105704Y-69684771D02*
X76105704Y-69837152D01*
X76067609Y-69913342D01*
X76029514Y-69951438D01*
X75915228Y-70027628D01*
X75762847Y-70065723D01*
X75458085Y-70065723D01*
X75381895Y-70027628D01*
X75343800Y-69989533D01*
X75305704Y-69913342D01*
X75305704Y-69760961D01*
X75343800Y-69684771D01*
X75381895Y-69646676D01*
X75458085Y-69608580D01*
X75648561Y-69608580D01*
X75724752Y-69646676D01*
X75762847Y-69684771D01*
X75800942Y-69760961D01*
X75800942Y-69913342D01*
X75762847Y-69989533D01*
X75724752Y-70027628D01*
X75648561Y-70065723D01*
%TO.C,D3*%
X97536904Y-49415723D02*
X96736904Y-49415723D01*
X96736904Y-49606200D01*
X96775000Y-49720485D01*
X96851190Y-49796676D01*
X96927380Y-49834771D01*
X97079761Y-49872866D01*
X97194047Y-49872866D01*
X97346428Y-49834771D01*
X97422619Y-49796676D01*
X97498809Y-49720485D01*
X97536904Y-49606200D01*
X97536904Y-49415723D01*
X96736904Y-50139533D02*
X96736904Y-50634771D01*
X97041666Y-50368104D01*
X97041666Y-50482390D01*
X97079761Y-50558580D01*
X97117857Y-50596676D01*
X97194047Y-50634771D01*
X97384523Y-50634771D01*
X97460714Y-50596676D01*
X97498809Y-50558580D01*
X97536904Y-50482390D01*
X97536904Y-50253819D01*
X97498809Y-50177628D01*
X97460714Y-50139533D01*
%TO.C,D78*%
X66580704Y-141903571D02*
X65780704Y-141903571D01*
X65780704Y-142094047D01*
X65818800Y-142208333D01*
X65894990Y-142284523D01*
X65971180Y-142322619D01*
X66123561Y-142360714D01*
X66237847Y-142360714D01*
X66390228Y-142322619D01*
X66466419Y-142284523D01*
X66542609Y-142208333D01*
X66580704Y-142094047D01*
X66580704Y-141903571D01*
X65780704Y-142627380D02*
X65780704Y-143160714D01*
X66580704Y-142817857D01*
X66123561Y-143579761D02*
X66085466Y-143503571D01*
X66047371Y-143465476D01*
X65971180Y-143427380D01*
X65933085Y-143427380D01*
X65856895Y-143465476D01*
X65818800Y-143503571D01*
X65780704Y-143579761D01*
X65780704Y-143732142D01*
X65818800Y-143808333D01*
X65856895Y-143846428D01*
X65933085Y-143884523D01*
X65971180Y-143884523D01*
X66047371Y-143846428D01*
X66085466Y-143808333D01*
X66123561Y-143732142D01*
X66123561Y-143579761D01*
X66161657Y-143503571D01*
X66199752Y-143465476D01*
X66275942Y-143427380D01*
X66428323Y-143427380D01*
X66504514Y-143465476D01*
X66542609Y-143503571D01*
X66580704Y-143579761D01*
X66580704Y-143732142D01*
X66542609Y-143808333D01*
X66504514Y-143846428D01*
X66428323Y-143884523D01*
X66275942Y-143884523D01*
X66199752Y-143846428D01*
X66161657Y-143808333D01*
X66123561Y-143732142D01*
%TO.C,D65*%
X80868104Y-125234571D02*
X80068104Y-125234571D01*
X80068104Y-125425047D01*
X80106200Y-125539333D01*
X80182390Y-125615523D01*
X80258580Y-125653619D01*
X80410961Y-125691714D01*
X80525247Y-125691714D01*
X80677628Y-125653619D01*
X80753819Y-125615523D01*
X80830009Y-125539333D01*
X80868104Y-125425047D01*
X80868104Y-125234571D01*
X80068104Y-126377428D02*
X80068104Y-126225047D01*
X80106200Y-126148857D01*
X80144295Y-126110761D01*
X80258580Y-126034571D01*
X80410961Y-125996476D01*
X80715723Y-125996476D01*
X80791914Y-126034571D01*
X80830009Y-126072666D01*
X80868104Y-126148857D01*
X80868104Y-126301238D01*
X80830009Y-126377428D01*
X80791914Y-126415523D01*
X80715723Y-126453619D01*
X80525247Y-126453619D01*
X80449057Y-126415523D01*
X80410961Y-126377428D01*
X80372866Y-126301238D01*
X80372866Y-126148857D01*
X80410961Y-126072666D01*
X80449057Y-126034571D01*
X80525247Y-125996476D01*
X80068104Y-127177428D02*
X80068104Y-126796476D01*
X80449057Y-126758380D01*
X80410961Y-126796476D01*
X80372866Y-126872666D01*
X80372866Y-127063142D01*
X80410961Y-127139333D01*
X80449057Y-127177428D01*
X80525247Y-127215523D01*
X80715723Y-127215523D01*
X80791914Y-127177428D01*
X80830009Y-127139333D01*
X80868104Y-127063142D01*
X80868104Y-126872666D01*
X80830009Y-126796476D01*
X80791914Y-126758380D01*
%TO.C,D52*%
X71343104Y-103803571D02*
X70543104Y-103803571D01*
X70543104Y-103994047D01*
X70581200Y-104108333D01*
X70657390Y-104184523D01*
X70733580Y-104222619D01*
X70885961Y-104260714D01*
X71000247Y-104260714D01*
X71152628Y-104222619D01*
X71228819Y-104184523D01*
X71305009Y-104108333D01*
X71343104Y-103994047D01*
X71343104Y-103803571D01*
X70543104Y-104984523D02*
X70543104Y-104603571D01*
X70924057Y-104565476D01*
X70885961Y-104603571D01*
X70847866Y-104679761D01*
X70847866Y-104870238D01*
X70885961Y-104946428D01*
X70924057Y-104984523D01*
X71000247Y-105022619D01*
X71190723Y-105022619D01*
X71266914Y-104984523D01*
X71305009Y-104946428D01*
X71343104Y-104870238D01*
X71343104Y-104679761D01*
X71305009Y-104603571D01*
X71266914Y-104565476D01*
X70619295Y-105327380D02*
X70581200Y-105365476D01*
X70543104Y-105441666D01*
X70543104Y-105632142D01*
X70581200Y-105708333D01*
X70619295Y-105746428D01*
X70695485Y-105784523D01*
X70771676Y-105784523D01*
X70885961Y-105746428D01*
X71343104Y-105289285D01*
X71343104Y-105784523D01*
%TO.C,D35*%
X66580704Y-87134771D02*
X65780704Y-87134771D01*
X65780704Y-87325247D01*
X65818800Y-87439533D01*
X65894990Y-87515723D01*
X65971180Y-87553819D01*
X66123561Y-87591914D01*
X66237847Y-87591914D01*
X66390228Y-87553819D01*
X66466419Y-87515723D01*
X66542609Y-87439533D01*
X66580704Y-87325247D01*
X66580704Y-87134771D01*
X65780704Y-87858580D02*
X65780704Y-88353819D01*
X66085466Y-88087152D01*
X66085466Y-88201438D01*
X66123561Y-88277628D01*
X66161657Y-88315723D01*
X66237847Y-88353819D01*
X66428323Y-88353819D01*
X66504514Y-88315723D01*
X66542609Y-88277628D01*
X66580704Y-88201438D01*
X66580704Y-87972866D01*
X66542609Y-87896676D01*
X66504514Y-87858580D01*
X65780704Y-89077628D02*
X65780704Y-88696676D01*
X66161657Y-88658580D01*
X66123561Y-88696676D01*
X66085466Y-88772866D01*
X66085466Y-88963342D01*
X66123561Y-89039533D01*
X66161657Y-89077628D01*
X66237847Y-89115723D01*
X66428323Y-89115723D01*
X66504514Y-89077628D01*
X66542609Y-89039533D01*
X66580704Y-88963342D01*
X66580704Y-88772866D01*
X66542609Y-88696676D01*
X66504514Y-88658580D01*
%TO.C,D18*%
X57055704Y-68084771D02*
X56255704Y-68084771D01*
X56255704Y-68275247D01*
X56293800Y-68389533D01*
X56369990Y-68465723D01*
X56446180Y-68503819D01*
X56598561Y-68541914D01*
X56712847Y-68541914D01*
X56865228Y-68503819D01*
X56941419Y-68465723D01*
X57017609Y-68389533D01*
X57055704Y-68275247D01*
X57055704Y-68084771D01*
X57055704Y-69303819D02*
X57055704Y-68846676D01*
X57055704Y-69075247D02*
X56255704Y-69075247D01*
X56369990Y-68999057D01*
X56446180Y-68922866D01*
X56484276Y-68846676D01*
X56598561Y-69760961D02*
X56560466Y-69684771D01*
X56522371Y-69646676D01*
X56446180Y-69608580D01*
X56408085Y-69608580D01*
X56331895Y-69646676D01*
X56293800Y-69684771D01*
X56255704Y-69760961D01*
X56255704Y-69913342D01*
X56293800Y-69989533D01*
X56331895Y-70027628D01*
X56408085Y-70065723D01*
X56446180Y-70065723D01*
X56522371Y-70027628D01*
X56560466Y-69989533D01*
X56598561Y-69913342D01*
X56598561Y-69760961D01*
X56636657Y-69684771D01*
X56674752Y-69646676D01*
X56750942Y-69608580D01*
X56903323Y-69608580D01*
X56979514Y-69646676D01*
X57017609Y-69684771D01*
X57055704Y-69760961D01*
X57055704Y-69913342D01*
X57017609Y-69989533D01*
X56979514Y-70027628D01*
X56903323Y-70065723D01*
X56750942Y-70065723D01*
X56674752Y-70027628D01*
X56636657Y-69989533D01*
X56598561Y-69913342D01*
%TO.C,D2*%
X78486904Y-49415723D02*
X77686904Y-49415723D01*
X77686904Y-49606200D01*
X77725000Y-49720485D01*
X77801190Y-49796676D01*
X77877380Y-49834771D01*
X78029761Y-49872866D01*
X78144047Y-49872866D01*
X78296428Y-49834771D01*
X78372619Y-49796676D01*
X78448809Y-49720485D01*
X78486904Y-49606200D01*
X78486904Y-49415723D01*
X77763095Y-50177628D02*
X77725000Y-50215723D01*
X77686904Y-50291914D01*
X77686904Y-50482390D01*
X77725000Y-50558580D01*
X77763095Y-50596676D01*
X77839285Y-50634771D01*
X77915476Y-50634771D01*
X78029761Y-50596676D01*
X78486904Y-50139533D01*
X78486904Y-50634771D01*
%TO.C,D77*%
X40386904Y-141903571D02*
X39586904Y-141903571D01*
X39586904Y-142094047D01*
X39625000Y-142208333D01*
X39701190Y-142284523D01*
X39777380Y-142322619D01*
X39929761Y-142360714D01*
X40044047Y-142360714D01*
X40196428Y-142322619D01*
X40272619Y-142284523D01*
X40348809Y-142208333D01*
X40386904Y-142094047D01*
X40386904Y-141903571D01*
X39586904Y-142627380D02*
X39586904Y-143160714D01*
X40386904Y-142817857D01*
X39586904Y-143389285D02*
X39586904Y-143922619D01*
X40386904Y-143579761D01*
%TO.C,D64*%
X40386904Y-125234571D02*
X39586904Y-125234571D01*
X39586904Y-125425047D01*
X39625000Y-125539333D01*
X39701190Y-125615523D01*
X39777380Y-125653619D01*
X39929761Y-125691714D01*
X40044047Y-125691714D01*
X40196428Y-125653619D01*
X40272619Y-125615523D01*
X40348809Y-125539333D01*
X40386904Y-125425047D01*
X40386904Y-125234571D01*
X39586904Y-126377428D02*
X39586904Y-126225047D01*
X39625000Y-126148857D01*
X39663095Y-126110761D01*
X39777380Y-126034571D01*
X39929761Y-125996476D01*
X40234523Y-125996476D01*
X40310714Y-126034571D01*
X40348809Y-126072666D01*
X40386904Y-126148857D01*
X40386904Y-126301238D01*
X40348809Y-126377428D01*
X40310714Y-126415523D01*
X40234523Y-126453619D01*
X40044047Y-126453619D01*
X39967857Y-126415523D01*
X39929761Y-126377428D01*
X39891666Y-126301238D01*
X39891666Y-126148857D01*
X39929761Y-126072666D01*
X39967857Y-126034571D01*
X40044047Y-125996476D01*
X39853571Y-127139333D02*
X40386904Y-127139333D01*
X39548809Y-126948857D02*
X40120238Y-126758380D01*
X40120238Y-127253619D01*
%TO.C,D51*%
X40386904Y-106184571D02*
X39586904Y-106184571D01*
X39586904Y-106375047D01*
X39625000Y-106489333D01*
X39701190Y-106565523D01*
X39777380Y-106603619D01*
X39929761Y-106641714D01*
X40044047Y-106641714D01*
X40196428Y-106603619D01*
X40272619Y-106565523D01*
X40348809Y-106489333D01*
X40386904Y-106375047D01*
X40386904Y-106184571D01*
X39586904Y-107365523D02*
X39586904Y-106984571D01*
X39967857Y-106946476D01*
X39929761Y-106984571D01*
X39891666Y-107060761D01*
X39891666Y-107251238D01*
X39929761Y-107327428D01*
X39967857Y-107365523D01*
X40044047Y-107403619D01*
X40234523Y-107403619D01*
X40310714Y-107365523D01*
X40348809Y-107327428D01*
X40386904Y-107251238D01*
X40386904Y-107060761D01*
X40348809Y-106984571D01*
X40310714Y-106946476D01*
X40386904Y-108165523D02*
X40386904Y-107708380D01*
X40386904Y-107936952D02*
X39586904Y-107936952D01*
X39701190Y-107860761D01*
X39777380Y-107784571D01*
X39815476Y-107708380D01*
%TO.C,D34*%
X40386904Y-87134771D02*
X39586904Y-87134771D01*
X39586904Y-87325247D01*
X39625000Y-87439533D01*
X39701190Y-87515723D01*
X39777380Y-87553819D01*
X39929761Y-87591914D01*
X40044047Y-87591914D01*
X40196428Y-87553819D01*
X40272619Y-87515723D01*
X40348809Y-87439533D01*
X40386904Y-87325247D01*
X40386904Y-87134771D01*
X39586904Y-87858580D02*
X39586904Y-88353819D01*
X39891666Y-88087152D01*
X39891666Y-88201438D01*
X39929761Y-88277628D01*
X39967857Y-88315723D01*
X40044047Y-88353819D01*
X40234523Y-88353819D01*
X40310714Y-88315723D01*
X40348809Y-88277628D01*
X40386904Y-88201438D01*
X40386904Y-87972866D01*
X40348809Y-87896676D01*
X40310714Y-87858580D01*
X39853571Y-89039533D02*
X40386904Y-89039533D01*
X39548809Y-88849057D02*
X40120238Y-88658580D01*
X40120238Y-89153819D01*
%TO.C,D17*%
X40386904Y-68084771D02*
X39586904Y-68084771D01*
X39586904Y-68275247D01*
X39625000Y-68389533D01*
X39701190Y-68465723D01*
X39777380Y-68503819D01*
X39929761Y-68541914D01*
X40044047Y-68541914D01*
X40196428Y-68503819D01*
X40272619Y-68465723D01*
X40348809Y-68389533D01*
X40386904Y-68275247D01*
X40386904Y-68084771D01*
X40386904Y-69303819D02*
X40386904Y-68846676D01*
X40386904Y-69075247D02*
X39586904Y-69075247D01*
X39701190Y-68999057D01*
X39777380Y-68922866D01*
X39815476Y-68846676D01*
X39586904Y-69570485D02*
X39586904Y-70103819D01*
X40386904Y-69760961D01*
%TO.C,D1*%
X40386904Y-49415723D02*
X39586904Y-49415723D01*
X39586904Y-49606200D01*
X39625000Y-49720485D01*
X39701190Y-49796676D01*
X39777380Y-49834771D01*
X39929761Y-49872866D01*
X40044047Y-49872866D01*
X40196428Y-49834771D01*
X40272619Y-49796676D01*
X40348809Y-49720485D01*
X40386904Y-49606200D01*
X40386904Y-49415723D01*
X40386904Y-50634771D02*
X40386904Y-50177628D01*
X40386904Y-50406200D02*
X39586904Y-50406200D01*
X39701190Y-50330009D01*
X39777380Y-50253819D01*
X39815476Y-50177628D01*
%TO.C,C8*%
X367801142Y-102227333D02*
X367848761Y-102179714D01*
X367896380Y-102036857D01*
X367896380Y-101941619D01*
X367848761Y-101798761D01*
X367753523Y-101703523D01*
X367658285Y-101655904D01*
X367467809Y-101608285D01*
X367324952Y-101608285D01*
X367134476Y-101655904D01*
X367039238Y-101703523D01*
X366944000Y-101798761D01*
X366896380Y-101941619D01*
X366896380Y-102036857D01*
X366944000Y-102179714D01*
X366991619Y-102227333D01*
X367324952Y-102798761D02*
X367277333Y-102703523D01*
X367229714Y-102655904D01*
X367134476Y-102608285D01*
X367086857Y-102608285D01*
X366991619Y-102655904D01*
X366944000Y-102703523D01*
X366896380Y-102798761D01*
X366896380Y-102989238D01*
X366944000Y-103084476D01*
X366991619Y-103132095D01*
X367086857Y-103179714D01*
X367134476Y-103179714D01*
X367229714Y-103132095D01*
X367277333Y-103084476D01*
X367324952Y-102989238D01*
X367324952Y-102798761D01*
X367372571Y-102703523D01*
X367420190Y-102655904D01*
X367515428Y-102608285D01*
X367705904Y-102608285D01*
X367801142Y-102655904D01*
X367848761Y-102703523D01*
X367896380Y-102798761D01*
X367896380Y-102989238D01*
X367848761Y-103084476D01*
X367801142Y-103132095D01*
X367705904Y-103179714D01*
X367515428Y-103179714D01*
X367420190Y-103132095D01*
X367372571Y-103084476D01*
X367324952Y-102989238D01*
%TO.C,C7*%
X377326142Y-104608333D02*
X377373761Y-104560714D01*
X377421380Y-104417857D01*
X377421380Y-104322619D01*
X377373761Y-104179761D01*
X377278523Y-104084523D01*
X377183285Y-104036904D01*
X376992809Y-103989285D01*
X376849952Y-103989285D01*
X376659476Y-104036904D01*
X376564238Y-104084523D01*
X376469000Y-104179761D01*
X376421380Y-104322619D01*
X376421380Y-104417857D01*
X376469000Y-104560714D01*
X376516619Y-104608333D01*
X376421380Y-104941666D02*
X376421380Y-105608333D01*
X377421380Y-105179761D01*
%TO.C,C6*%
X376404666Y-111545142D02*
X376452285Y-111592761D01*
X376595142Y-111640380D01*
X376690380Y-111640380D01*
X376833238Y-111592761D01*
X376928476Y-111497523D01*
X376976095Y-111402285D01*
X377023714Y-111211809D01*
X377023714Y-111068952D01*
X376976095Y-110878476D01*
X376928476Y-110783238D01*
X376833238Y-110688000D01*
X376690380Y-110640380D01*
X376595142Y-110640380D01*
X376452285Y-110688000D01*
X376404666Y-110735619D01*
X375547523Y-110640380D02*
X375738000Y-110640380D01*
X375833238Y-110688000D01*
X375880857Y-110735619D01*
X375976095Y-110878476D01*
X376023714Y-111068952D01*
X376023714Y-111449904D01*
X375976095Y-111545142D01*
X375928476Y-111592761D01*
X375833238Y-111640380D01*
X375642761Y-111640380D01*
X375547523Y-111592761D01*
X375499904Y-111545142D01*
X375452285Y-111449904D01*
X375452285Y-111211809D01*
X375499904Y-111116571D01*
X375547523Y-111068952D01*
X375642761Y-111021333D01*
X375833238Y-111021333D01*
X375928476Y-111068952D01*
X375976095Y-111116571D01*
X376023714Y-111211809D01*
%TD*%
M02*
