%TF.GenerationSoftware,KiCad,Pcbnew,(5.1.6)-1*%
%TF.CreationDate,2020-07-25T19:19:23-04:00*%
%TF.ProjectId,TKLpcb,544b4c70-6362-42e6-9b69-6361645f7063,rev?*%
%TF.SameCoordinates,Original*%
%TF.FileFunction,Copper,L1,Top*%
%TF.FilePolarity,Positive*%
%FSLAX46Y46*%
G04 Gerber Fmt 4.6, Leading zero omitted, Abs format (unit mm)*
G04 Created by KiCad (PCBNEW (5.1.6)-1) date 2020-07-25 19:19:23*
%MOMM*%
%LPD*%
G01*
G04 APERTURE LIST*
%ADD10C,0.100000*%
%ADD11C,0.150000*%
%ADD12C,0.300000*%
%ADD13C,0.400000*%
%TA.AperFunction,SMDPad,CuDef*%
%ADD14R,1.700000X1.000000*%
%TD*%
%TA.AperFunction,ComponentPad*%
%ADD15C,2.200000*%
%TD*%
%TA.AperFunction,ComponentPad*%
%ADD16C,2.250000*%
%TD*%
%TA.AperFunction,SMDPad,CuDef*%
%ADD17R,2.180000X2.000000*%
%TD*%
%TA.AperFunction,SMDPad,CuDef*%
%ADD18R,0.300000X1.150000*%
%TD*%
%TA.AperFunction,SMDPad,CuDef*%
%ADD19R,0.600000X1.150000*%
%TD*%
%TA.AperFunction,ViaPad*%
%ADD20C,0.800000*%
%TD*%
%TA.AperFunction,Conductor*%
%ADD21C,0.250000*%
%TD*%
G04 APERTURE END LIST*
D10*
D11*
X474004400Y-375989000D02*
X474004400Y-407989000D01*
X582004400Y-407989000D01*
X582004400Y-375989000D01*
X474004400Y-375989000D01*
D10*
D11*
X10000000Y-10000000D02*
X10000000Y-409989000D01*
X584004400Y-409989000D01*
X584004400Y-10000000D01*
X10000000Y-10000000D01*
D10*
D11*
X12000000Y-12000000D02*
X12000000Y-407989000D01*
X582004400Y-407989000D01*
X582004400Y-12000000D01*
X12000000Y-12000000D01*
D10*
D11*
X60000000Y-12000000D02*
X60000000Y-10000000D01*
D10*
D11*
X110000000Y-12000000D02*
X110000000Y-10000000D01*
D10*
D11*
X160000000Y-12000000D02*
X160000000Y-10000000D01*
D10*
D11*
X210000000Y-12000000D02*
X210000000Y-10000000D01*
D10*
D11*
X260000000Y-12000000D02*
X260000000Y-10000000D01*
D10*
D11*
X310000000Y-12000000D02*
X310000000Y-10000000D01*
D10*
D11*
X360000000Y-12000000D02*
X360000000Y-10000000D01*
D10*
D11*
X410000000Y-12000000D02*
X410000000Y-10000000D01*
D10*
D11*
X460000000Y-12000000D02*
X460000000Y-10000000D01*
D10*
D11*
X510000000Y-12000000D02*
X510000000Y-10000000D01*
D10*
D11*
X560000000Y-12000000D02*
X560000000Y-10000000D01*
D10*
D11*
X36065476Y-11588095D02*
X35322619Y-11588095D01*
X35694047Y-11588095D02*
X35694047Y-10288095D01*
X35570238Y-10473809D01*
X35446428Y-10597619D01*
X35322619Y-10659523D01*
D10*
D11*
X85322619Y-10411904D02*
X85384523Y-10350000D01*
X85508333Y-10288095D01*
X85817857Y-10288095D01*
X85941666Y-10350000D01*
X86003571Y-10411904D01*
X86065476Y-10535714D01*
X86065476Y-10659523D01*
X86003571Y-10845238D01*
X85260714Y-11588095D01*
X86065476Y-11588095D01*
D10*
D11*
X135260714Y-10288095D02*
X136065476Y-10288095D01*
X135632142Y-10783333D01*
X135817857Y-10783333D01*
X135941666Y-10845238D01*
X136003571Y-10907142D01*
X136065476Y-11030952D01*
X136065476Y-11340476D01*
X136003571Y-11464285D01*
X135941666Y-11526190D01*
X135817857Y-11588095D01*
X135446428Y-11588095D01*
X135322619Y-11526190D01*
X135260714Y-11464285D01*
D10*
D11*
X185941666Y-10721428D02*
X185941666Y-11588095D01*
X185632142Y-10226190D02*
X185322619Y-11154761D01*
X186127380Y-11154761D01*
D10*
D11*
X236003571Y-10288095D02*
X235384523Y-10288095D01*
X235322619Y-10907142D01*
X235384523Y-10845238D01*
X235508333Y-10783333D01*
X235817857Y-10783333D01*
X235941666Y-10845238D01*
X236003571Y-10907142D01*
X236065476Y-11030952D01*
X236065476Y-11340476D01*
X236003571Y-11464285D01*
X235941666Y-11526190D01*
X235817857Y-11588095D01*
X235508333Y-11588095D01*
X235384523Y-11526190D01*
X235322619Y-11464285D01*
D10*
D11*
X285941666Y-10288095D02*
X285694047Y-10288095D01*
X285570238Y-10350000D01*
X285508333Y-10411904D01*
X285384523Y-10597619D01*
X285322619Y-10845238D01*
X285322619Y-11340476D01*
X285384523Y-11464285D01*
X285446428Y-11526190D01*
X285570238Y-11588095D01*
X285817857Y-11588095D01*
X285941666Y-11526190D01*
X286003571Y-11464285D01*
X286065476Y-11340476D01*
X286065476Y-11030952D01*
X286003571Y-10907142D01*
X285941666Y-10845238D01*
X285817857Y-10783333D01*
X285570238Y-10783333D01*
X285446428Y-10845238D01*
X285384523Y-10907142D01*
X285322619Y-11030952D01*
D10*
D11*
X335260714Y-10288095D02*
X336127380Y-10288095D01*
X335570238Y-11588095D01*
D10*
D11*
X385570238Y-10845238D02*
X385446428Y-10783333D01*
X385384523Y-10721428D01*
X385322619Y-10597619D01*
X385322619Y-10535714D01*
X385384523Y-10411904D01*
X385446428Y-10350000D01*
X385570238Y-10288095D01*
X385817857Y-10288095D01*
X385941666Y-10350000D01*
X386003571Y-10411904D01*
X386065476Y-10535714D01*
X386065476Y-10597619D01*
X386003571Y-10721428D01*
X385941666Y-10783333D01*
X385817857Y-10845238D01*
X385570238Y-10845238D01*
X385446428Y-10907142D01*
X385384523Y-10969047D01*
X385322619Y-11092857D01*
X385322619Y-11340476D01*
X385384523Y-11464285D01*
X385446428Y-11526190D01*
X385570238Y-11588095D01*
X385817857Y-11588095D01*
X385941666Y-11526190D01*
X386003571Y-11464285D01*
X386065476Y-11340476D01*
X386065476Y-11092857D01*
X386003571Y-10969047D01*
X385941666Y-10907142D01*
X385817857Y-10845238D01*
D10*
D11*
X435446428Y-11588095D02*
X435694047Y-11588095D01*
X435817857Y-11526190D01*
X435879761Y-11464285D01*
X436003571Y-11278571D01*
X436065476Y-11030952D01*
X436065476Y-10535714D01*
X436003571Y-10411904D01*
X435941666Y-10350000D01*
X435817857Y-10288095D01*
X435570238Y-10288095D01*
X435446428Y-10350000D01*
X435384523Y-10411904D01*
X435322619Y-10535714D01*
X435322619Y-10845238D01*
X435384523Y-10969047D01*
X435446428Y-11030952D01*
X435570238Y-11092857D01*
X435817857Y-11092857D01*
X435941666Y-11030952D01*
X436003571Y-10969047D01*
X436065476Y-10845238D01*
D10*
D11*
X486065476Y-11588095D02*
X485322619Y-11588095D01*
X485694047Y-11588095D02*
X485694047Y-10288095D01*
X485570238Y-10473809D01*
X485446428Y-10597619D01*
X485322619Y-10659523D01*
X486870238Y-10288095D02*
X486994047Y-10288095D01*
X487117857Y-10350000D01*
X487179761Y-10411904D01*
X487241666Y-10535714D01*
X487303571Y-10783333D01*
X487303571Y-11092857D01*
X487241666Y-11340476D01*
X487179761Y-11464285D01*
X487117857Y-11526190D01*
X486994047Y-11588095D01*
X486870238Y-11588095D01*
X486746428Y-11526190D01*
X486684523Y-11464285D01*
X486622619Y-11340476D01*
X486560714Y-11092857D01*
X486560714Y-10783333D01*
X486622619Y-10535714D01*
X486684523Y-10411904D01*
X486746428Y-10350000D01*
X486870238Y-10288095D01*
D10*
D11*
X536065476Y-11588095D02*
X535322619Y-11588095D01*
X535694047Y-11588095D02*
X535694047Y-10288095D01*
X535570238Y-10473809D01*
X535446428Y-10597619D01*
X535322619Y-10659523D01*
X537303571Y-11588095D02*
X536560714Y-11588095D01*
X536932142Y-11588095D02*
X536932142Y-10288095D01*
X536808333Y-10473809D01*
X536684523Y-10597619D01*
X536560714Y-10659523D01*
D10*
D11*
X60000000Y-407989000D02*
X60000000Y-409989000D01*
D10*
D11*
X110000000Y-407989000D02*
X110000000Y-409989000D01*
D10*
D11*
X160000000Y-407989000D02*
X160000000Y-409989000D01*
D10*
D11*
X210000000Y-407989000D02*
X210000000Y-409989000D01*
D10*
D11*
X260000000Y-407989000D02*
X260000000Y-409989000D01*
D10*
D11*
X310000000Y-407989000D02*
X310000000Y-409989000D01*
D10*
D11*
X360000000Y-407989000D02*
X360000000Y-409989000D01*
D10*
D11*
X410000000Y-407989000D02*
X410000000Y-409989000D01*
D10*
D11*
X460000000Y-407989000D02*
X460000000Y-409989000D01*
D10*
D11*
X510000000Y-407989000D02*
X510000000Y-409989000D01*
D10*
D11*
X560000000Y-407989000D02*
X560000000Y-409989000D01*
D10*
D11*
X36065476Y-409577095D02*
X35322619Y-409577095D01*
X35694047Y-409577095D02*
X35694047Y-408277095D01*
X35570238Y-408462809D01*
X35446428Y-408586619D01*
X35322619Y-408648523D01*
D10*
D11*
X85322619Y-408400904D02*
X85384523Y-408339000D01*
X85508333Y-408277095D01*
X85817857Y-408277095D01*
X85941666Y-408339000D01*
X86003571Y-408400904D01*
X86065476Y-408524714D01*
X86065476Y-408648523D01*
X86003571Y-408834238D01*
X85260714Y-409577095D01*
X86065476Y-409577095D01*
D10*
D11*
X135260714Y-408277095D02*
X136065476Y-408277095D01*
X135632142Y-408772333D01*
X135817857Y-408772333D01*
X135941666Y-408834238D01*
X136003571Y-408896142D01*
X136065476Y-409019952D01*
X136065476Y-409329476D01*
X136003571Y-409453285D01*
X135941666Y-409515190D01*
X135817857Y-409577095D01*
X135446428Y-409577095D01*
X135322619Y-409515190D01*
X135260714Y-409453285D01*
D10*
D11*
X185941666Y-408710428D02*
X185941666Y-409577095D01*
X185632142Y-408215190D02*
X185322619Y-409143761D01*
X186127380Y-409143761D01*
D10*
D11*
X236003571Y-408277095D02*
X235384523Y-408277095D01*
X235322619Y-408896142D01*
X235384523Y-408834238D01*
X235508333Y-408772333D01*
X235817857Y-408772333D01*
X235941666Y-408834238D01*
X236003571Y-408896142D01*
X236065476Y-409019952D01*
X236065476Y-409329476D01*
X236003571Y-409453285D01*
X235941666Y-409515190D01*
X235817857Y-409577095D01*
X235508333Y-409577095D01*
X235384523Y-409515190D01*
X235322619Y-409453285D01*
D10*
D11*
X285941666Y-408277095D02*
X285694047Y-408277095D01*
X285570238Y-408339000D01*
X285508333Y-408400904D01*
X285384523Y-408586619D01*
X285322619Y-408834238D01*
X285322619Y-409329476D01*
X285384523Y-409453285D01*
X285446428Y-409515190D01*
X285570238Y-409577095D01*
X285817857Y-409577095D01*
X285941666Y-409515190D01*
X286003571Y-409453285D01*
X286065476Y-409329476D01*
X286065476Y-409019952D01*
X286003571Y-408896142D01*
X285941666Y-408834238D01*
X285817857Y-408772333D01*
X285570238Y-408772333D01*
X285446428Y-408834238D01*
X285384523Y-408896142D01*
X285322619Y-409019952D01*
D10*
D11*
X335260714Y-408277095D02*
X336127380Y-408277095D01*
X335570238Y-409577095D01*
D10*
D11*
X385570238Y-408834238D02*
X385446428Y-408772333D01*
X385384523Y-408710428D01*
X385322619Y-408586619D01*
X385322619Y-408524714D01*
X385384523Y-408400904D01*
X385446428Y-408339000D01*
X385570238Y-408277095D01*
X385817857Y-408277095D01*
X385941666Y-408339000D01*
X386003571Y-408400904D01*
X386065476Y-408524714D01*
X386065476Y-408586619D01*
X386003571Y-408710428D01*
X385941666Y-408772333D01*
X385817857Y-408834238D01*
X385570238Y-408834238D01*
X385446428Y-408896142D01*
X385384523Y-408958047D01*
X385322619Y-409081857D01*
X385322619Y-409329476D01*
X385384523Y-409453285D01*
X385446428Y-409515190D01*
X385570238Y-409577095D01*
X385817857Y-409577095D01*
X385941666Y-409515190D01*
X386003571Y-409453285D01*
X386065476Y-409329476D01*
X386065476Y-409081857D01*
X386003571Y-408958047D01*
X385941666Y-408896142D01*
X385817857Y-408834238D01*
D10*
D11*
X435446428Y-409577095D02*
X435694047Y-409577095D01*
X435817857Y-409515190D01*
X435879761Y-409453285D01*
X436003571Y-409267571D01*
X436065476Y-409019952D01*
X436065476Y-408524714D01*
X436003571Y-408400904D01*
X435941666Y-408339000D01*
X435817857Y-408277095D01*
X435570238Y-408277095D01*
X435446428Y-408339000D01*
X435384523Y-408400904D01*
X435322619Y-408524714D01*
X435322619Y-408834238D01*
X435384523Y-408958047D01*
X435446428Y-409019952D01*
X435570238Y-409081857D01*
X435817857Y-409081857D01*
X435941666Y-409019952D01*
X436003571Y-408958047D01*
X436065476Y-408834238D01*
D10*
D11*
X486065476Y-409577095D02*
X485322619Y-409577095D01*
X485694047Y-409577095D02*
X485694047Y-408277095D01*
X485570238Y-408462809D01*
X485446428Y-408586619D01*
X485322619Y-408648523D01*
X486870238Y-408277095D02*
X486994047Y-408277095D01*
X487117857Y-408339000D01*
X487179761Y-408400904D01*
X487241666Y-408524714D01*
X487303571Y-408772333D01*
X487303571Y-409081857D01*
X487241666Y-409329476D01*
X487179761Y-409453285D01*
X487117857Y-409515190D01*
X486994047Y-409577095D01*
X486870238Y-409577095D01*
X486746428Y-409515190D01*
X486684523Y-409453285D01*
X486622619Y-409329476D01*
X486560714Y-409081857D01*
X486560714Y-408772333D01*
X486622619Y-408524714D01*
X486684523Y-408400904D01*
X486746428Y-408339000D01*
X486870238Y-408277095D01*
D10*
D11*
X536065476Y-409577095D02*
X535322619Y-409577095D01*
X535694047Y-409577095D02*
X535694047Y-408277095D01*
X535570238Y-408462809D01*
X535446428Y-408586619D01*
X535322619Y-408648523D01*
X537303571Y-409577095D02*
X536560714Y-409577095D01*
X536932142Y-409577095D02*
X536932142Y-408277095D01*
X536808333Y-408462809D01*
X536684523Y-408586619D01*
X536560714Y-408648523D01*
D10*
D11*
X10000000Y-60000000D02*
X12000000Y-60000000D01*
D10*
D11*
X10000000Y-110000000D02*
X12000000Y-110000000D01*
D10*
D11*
X10000000Y-160000000D02*
X12000000Y-160000000D01*
D10*
D11*
X10000000Y-210000000D02*
X12000000Y-210000000D01*
D10*
D11*
X10000000Y-260000000D02*
X12000000Y-260000000D01*
D10*
D11*
X10000000Y-310000000D02*
X12000000Y-310000000D01*
D10*
D11*
X10000000Y-360000000D02*
X12000000Y-360000000D01*
D10*
D11*
X10690476Y-35216666D02*
X11309523Y-35216666D01*
X10566666Y-35588095D02*
X11000000Y-34288095D01*
X11433333Y-35588095D01*
D10*
D11*
X11092857Y-84907142D02*
X11278571Y-84969047D01*
X11340476Y-85030952D01*
X11402380Y-85154761D01*
X11402380Y-85340476D01*
X11340476Y-85464285D01*
X11278571Y-85526190D01*
X11154761Y-85588095D01*
X10659523Y-85588095D01*
X10659523Y-84288095D01*
X11092857Y-84288095D01*
X11216666Y-84350000D01*
X11278571Y-84411904D01*
X11340476Y-84535714D01*
X11340476Y-84659523D01*
X11278571Y-84783333D01*
X11216666Y-84845238D01*
X11092857Y-84907142D01*
X10659523Y-84907142D01*
D10*
D11*
X11402380Y-135464285D02*
X11340476Y-135526190D01*
X11154761Y-135588095D01*
X11030952Y-135588095D01*
X10845238Y-135526190D01*
X10721428Y-135402380D01*
X10659523Y-135278571D01*
X10597619Y-135030952D01*
X10597619Y-134845238D01*
X10659523Y-134597619D01*
X10721428Y-134473809D01*
X10845238Y-134350000D01*
X11030952Y-134288095D01*
X11154761Y-134288095D01*
X11340476Y-134350000D01*
X11402380Y-134411904D01*
D10*
D11*
X10659523Y-185588095D02*
X10659523Y-184288095D01*
X10969047Y-184288095D01*
X11154761Y-184350000D01*
X11278571Y-184473809D01*
X11340476Y-184597619D01*
X11402380Y-184845238D01*
X11402380Y-185030952D01*
X11340476Y-185278571D01*
X11278571Y-185402380D01*
X11154761Y-185526190D01*
X10969047Y-185588095D01*
X10659523Y-185588095D01*
D10*
D11*
X10721428Y-234907142D02*
X11154761Y-234907142D01*
X11340476Y-235588095D02*
X10721428Y-235588095D01*
X10721428Y-234288095D01*
X11340476Y-234288095D01*
D10*
D11*
X11185714Y-284907142D02*
X10752380Y-284907142D01*
X10752380Y-285588095D02*
X10752380Y-284288095D01*
X11371428Y-284288095D01*
D10*
D11*
X11340476Y-334350000D02*
X11216666Y-334288095D01*
X11030952Y-334288095D01*
X10845238Y-334350000D01*
X10721428Y-334473809D01*
X10659523Y-334597619D01*
X10597619Y-334845238D01*
X10597619Y-335030952D01*
X10659523Y-335278571D01*
X10721428Y-335402380D01*
X10845238Y-335526190D01*
X11030952Y-335588095D01*
X11154761Y-335588095D01*
X11340476Y-335526190D01*
X11402380Y-335464285D01*
X11402380Y-335030952D01*
X11154761Y-335030952D01*
D10*
D11*
X10628571Y-385588095D02*
X10628571Y-384288095D01*
X10628571Y-384907142D02*
X11371428Y-384907142D01*
X11371428Y-385588095D02*
X11371428Y-384288095D01*
D10*
D11*
X584004400Y-60000000D02*
X582004400Y-60000000D01*
D10*
D11*
X584004400Y-110000000D02*
X582004400Y-110000000D01*
D10*
D11*
X584004400Y-160000000D02*
X582004400Y-160000000D01*
D10*
D11*
X584004400Y-210000000D02*
X582004400Y-210000000D01*
D10*
D11*
X584004400Y-260000000D02*
X582004400Y-260000000D01*
D10*
D11*
X584004400Y-310000000D02*
X582004400Y-310000000D01*
D10*
D11*
X584004400Y-360000000D02*
X582004400Y-360000000D01*
D10*
D11*
X582694876Y-35216666D02*
X583313923Y-35216666D01*
X582571066Y-35588095D02*
X583004400Y-34288095D01*
X583437733Y-35588095D01*
D10*
D11*
X583097257Y-84907142D02*
X583282971Y-84969047D01*
X583344876Y-85030952D01*
X583406780Y-85154761D01*
X583406780Y-85340476D01*
X583344876Y-85464285D01*
X583282971Y-85526190D01*
X583159161Y-85588095D01*
X582663923Y-85588095D01*
X582663923Y-84288095D01*
X583097257Y-84288095D01*
X583221066Y-84350000D01*
X583282971Y-84411904D01*
X583344876Y-84535714D01*
X583344876Y-84659523D01*
X583282971Y-84783333D01*
X583221066Y-84845238D01*
X583097257Y-84907142D01*
X582663923Y-84907142D01*
D10*
D11*
X583406780Y-135464285D02*
X583344876Y-135526190D01*
X583159161Y-135588095D01*
X583035352Y-135588095D01*
X582849638Y-135526190D01*
X582725828Y-135402380D01*
X582663923Y-135278571D01*
X582602019Y-135030952D01*
X582602019Y-134845238D01*
X582663923Y-134597619D01*
X582725828Y-134473809D01*
X582849638Y-134350000D01*
X583035352Y-134288095D01*
X583159161Y-134288095D01*
X583344876Y-134350000D01*
X583406780Y-134411904D01*
D10*
D11*
X582663923Y-185588095D02*
X582663923Y-184288095D01*
X582973447Y-184288095D01*
X583159161Y-184350000D01*
X583282971Y-184473809D01*
X583344876Y-184597619D01*
X583406780Y-184845238D01*
X583406780Y-185030952D01*
X583344876Y-185278571D01*
X583282971Y-185402380D01*
X583159161Y-185526190D01*
X582973447Y-185588095D01*
X582663923Y-185588095D01*
D10*
D11*
X582725828Y-234907142D02*
X583159161Y-234907142D01*
X583344876Y-235588095D02*
X582725828Y-235588095D01*
X582725828Y-234288095D01*
X583344876Y-234288095D01*
D10*
D11*
X583190114Y-284907142D02*
X582756780Y-284907142D01*
X582756780Y-285588095D02*
X582756780Y-284288095D01*
X583375828Y-284288095D01*
D10*
D11*
X583344876Y-334350000D02*
X583221066Y-334288095D01*
X583035352Y-334288095D01*
X582849638Y-334350000D01*
X582725828Y-334473809D01*
X582663923Y-334597619D01*
X582602019Y-334845238D01*
X582602019Y-335030952D01*
X582663923Y-335278571D01*
X582725828Y-335402380D01*
X582849638Y-335526190D01*
X583035352Y-335588095D01*
X583159161Y-335588095D01*
X583344876Y-335526190D01*
X583406780Y-335464285D01*
X583406780Y-335030952D01*
X583159161Y-335030952D01*
D10*
D11*
X582632971Y-385588095D02*
X582632971Y-384288095D01*
X582632971Y-384907142D02*
X583375828Y-384907142D01*
X583375828Y-385588095D02*
X583375828Y-384288095D01*
D10*
D11*
X497436542Y-403767571D02*
X497436542Y-402267571D01*
X497793685Y-402267571D01*
X498007971Y-402339000D01*
X498150828Y-402481857D01*
X498222257Y-402624714D01*
X498293685Y-402910428D01*
X498293685Y-403124714D01*
X498222257Y-403410428D01*
X498150828Y-403553285D01*
X498007971Y-403696142D01*
X497793685Y-403767571D01*
X497436542Y-403767571D01*
X499579400Y-403767571D02*
X499579400Y-402981857D01*
X499507971Y-402839000D01*
X499365114Y-402767571D01*
X499079400Y-402767571D01*
X498936542Y-402839000D01*
X499579400Y-403696142D02*
X499436542Y-403767571D01*
X499079400Y-403767571D01*
X498936542Y-403696142D01*
X498865114Y-403553285D01*
X498865114Y-403410428D01*
X498936542Y-403267571D01*
X499079400Y-403196142D01*
X499436542Y-403196142D01*
X499579400Y-403124714D01*
X500079400Y-402767571D02*
X500650828Y-402767571D01*
X500293685Y-402267571D02*
X500293685Y-403553285D01*
X500365114Y-403696142D01*
X500507971Y-403767571D01*
X500650828Y-403767571D01*
X501722257Y-403696142D02*
X501579400Y-403767571D01*
X501293685Y-403767571D01*
X501150828Y-403696142D01*
X501079400Y-403553285D01*
X501079400Y-402981857D01*
X501150828Y-402839000D01*
X501293685Y-402767571D01*
X501579400Y-402767571D01*
X501722257Y-402839000D01*
X501793685Y-402981857D01*
X501793685Y-403124714D01*
X501079400Y-403267571D01*
X502436542Y-403624714D02*
X502507971Y-403696142D01*
X502436542Y-403767571D01*
X502365114Y-403696142D01*
X502436542Y-403624714D01*
X502436542Y-403767571D01*
X502436542Y-402839000D02*
X502507971Y-402910428D01*
X502436542Y-402981857D01*
X502365114Y-402910428D01*
X502436542Y-402839000D01*
X502436542Y-402981857D01*
D10*
D11*
X474004400Y-404489000D02*
X582004400Y-404489000D01*
D10*
D11*
X475436542Y-406567571D02*
X475436542Y-405067571D01*
X476293685Y-406567571D02*
X475650828Y-405710428D01*
X476293685Y-405067571D02*
X475436542Y-405924714D01*
X476936542Y-406567571D02*
X476936542Y-405567571D01*
X476936542Y-405067571D02*
X476865114Y-405139000D01*
X476936542Y-405210428D01*
X477007971Y-405139000D01*
X476936542Y-405067571D01*
X476936542Y-405210428D01*
X478507971Y-406424714D02*
X478436542Y-406496142D01*
X478222257Y-406567571D01*
X478079400Y-406567571D01*
X477865114Y-406496142D01*
X477722257Y-406353285D01*
X477650828Y-406210428D01*
X477579400Y-405924714D01*
X477579400Y-405710428D01*
X477650828Y-405424714D01*
X477722257Y-405281857D01*
X477865114Y-405139000D01*
X478079400Y-405067571D01*
X478222257Y-405067571D01*
X478436542Y-405139000D01*
X478507971Y-405210428D01*
X479793685Y-406567571D02*
X479793685Y-405781857D01*
X479722257Y-405639000D01*
X479579400Y-405567571D01*
X479293685Y-405567571D01*
X479150828Y-405639000D01*
X479793685Y-406496142D02*
X479650828Y-406567571D01*
X479293685Y-406567571D01*
X479150828Y-406496142D01*
X479079400Y-406353285D01*
X479079400Y-406210428D01*
X479150828Y-406067571D01*
X479293685Y-405996142D01*
X479650828Y-405996142D01*
X479793685Y-405924714D01*
X481150828Y-406567571D02*
X481150828Y-405067571D01*
X481150828Y-406496142D02*
X481007971Y-406567571D01*
X480722257Y-406567571D01*
X480579400Y-406496142D01*
X480507971Y-406424714D01*
X480436542Y-406281857D01*
X480436542Y-405853285D01*
X480507971Y-405710428D01*
X480579400Y-405639000D01*
X480722257Y-405567571D01*
X481007971Y-405567571D01*
X481150828Y-405639000D01*
X483007971Y-405781857D02*
X483507971Y-405781857D01*
X483722257Y-406567571D02*
X483007971Y-406567571D01*
X483007971Y-405067571D01*
X483722257Y-405067571D01*
X484365114Y-406424714D02*
X484436542Y-406496142D01*
X484365114Y-406567571D01*
X484293685Y-406496142D01*
X484365114Y-406424714D01*
X484365114Y-406567571D01*
X485079400Y-406567571D02*
X485079400Y-405067571D01*
X485436542Y-405067571D01*
X485650828Y-405139000D01*
X485793685Y-405281857D01*
X485865114Y-405424714D01*
X485936542Y-405710428D01*
X485936542Y-405924714D01*
X485865114Y-406210428D01*
X485793685Y-406353285D01*
X485650828Y-406496142D01*
X485436542Y-406567571D01*
X485079400Y-406567571D01*
X486579400Y-406424714D02*
X486650828Y-406496142D01*
X486579400Y-406567571D01*
X486507971Y-406496142D01*
X486579400Y-406424714D01*
X486579400Y-406567571D01*
X487222257Y-406139000D02*
X487936542Y-406139000D01*
X487079400Y-406567571D02*
X487579400Y-405067571D01*
X488079400Y-406567571D01*
X488579400Y-406424714D02*
X488650828Y-406496142D01*
X488579400Y-406567571D01*
X488507971Y-406496142D01*
X488579400Y-406424714D01*
X488579400Y-406567571D01*
X491579400Y-406567571D02*
X491579400Y-405067571D01*
X491722257Y-405996142D02*
X492150828Y-406567571D01*
X492150828Y-405567571D02*
X491579400Y-406139000D01*
X492793685Y-406567571D02*
X492793685Y-405567571D01*
X492793685Y-405067571D02*
X492722257Y-405139000D01*
X492793685Y-405210428D01*
X492865114Y-405139000D01*
X492793685Y-405067571D01*
X492793685Y-405210428D01*
X494150828Y-406496142D02*
X494007971Y-406567571D01*
X493722257Y-406567571D01*
X493579400Y-406496142D01*
X493507971Y-406424714D01*
X493436542Y-406281857D01*
X493436542Y-405853285D01*
X493507971Y-405710428D01*
X493579400Y-405639000D01*
X493722257Y-405567571D01*
X494007971Y-405567571D01*
X494150828Y-405639000D01*
X495436542Y-406567571D02*
X495436542Y-405781857D01*
X495365114Y-405639000D01*
X495222257Y-405567571D01*
X494936542Y-405567571D01*
X494793685Y-405639000D01*
X495436542Y-406496142D02*
X495293685Y-406567571D01*
X494936542Y-406567571D01*
X494793685Y-406496142D01*
X494722257Y-406353285D01*
X494722257Y-406210428D01*
X494793685Y-406067571D01*
X494936542Y-405996142D01*
X495293685Y-405996142D01*
X495436542Y-405924714D01*
X496793685Y-406567571D02*
X496793685Y-405067571D01*
X496793685Y-406496142D02*
X496650828Y-406567571D01*
X496365114Y-406567571D01*
X496222257Y-406496142D01*
X496150828Y-406424714D01*
X496079400Y-406281857D01*
X496079400Y-405853285D01*
X496150828Y-405710428D01*
X496222257Y-405639000D01*
X496365114Y-405567571D01*
X496650828Y-405567571D01*
X496793685Y-405639000D01*
X499079400Y-407139000D02*
X499007971Y-407067571D01*
X498865114Y-406853285D01*
X498793685Y-406710428D01*
X498722257Y-406496142D01*
X498650828Y-406139000D01*
X498650828Y-405853285D01*
X498722257Y-405496142D01*
X498793685Y-405281857D01*
X498865114Y-405139000D01*
X499007971Y-404924714D01*
X499079400Y-404853285D01*
X500365114Y-405067571D02*
X499650828Y-405067571D01*
X499579400Y-405781857D01*
X499650828Y-405710428D01*
X499793685Y-405639000D01*
X500150828Y-405639000D01*
X500293685Y-405710428D01*
X500365114Y-405781857D01*
X500436542Y-405924714D01*
X500436542Y-406281857D01*
X500365114Y-406424714D01*
X500293685Y-406496142D01*
X500150828Y-406567571D01*
X499793685Y-406567571D01*
X499650828Y-406496142D01*
X499579400Y-406424714D01*
X501079400Y-406424714D02*
X501150828Y-406496142D01*
X501079400Y-406567571D01*
X501007971Y-406496142D01*
X501079400Y-406424714D01*
X501079400Y-406567571D01*
X502579400Y-406567571D02*
X501722257Y-406567571D01*
X502150828Y-406567571D02*
X502150828Y-405067571D01*
X502007971Y-405281857D01*
X501865114Y-405424714D01*
X501722257Y-405496142D01*
X503222257Y-406424714D02*
X503293685Y-406496142D01*
X503222257Y-406567571D01*
X503150828Y-406496142D01*
X503222257Y-406424714D01*
X503222257Y-406567571D01*
X504579400Y-405067571D02*
X504293685Y-405067571D01*
X504150828Y-405139000D01*
X504079400Y-405210428D01*
X503936542Y-405424714D01*
X503865114Y-405710428D01*
X503865114Y-406281857D01*
X503936542Y-406424714D01*
X504007971Y-406496142D01*
X504150828Y-406567571D01*
X504436542Y-406567571D01*
X504579400Y-406496142D01*
X504650828Y-406424714D01*
X504722257Y-406281857D01*
X504722257Y-405924714D01*
X504650828Y-405781857D01*
X504579400Y-405710428D01*
X504436542Y-405639000D01*
X504150828Y-405639000D01*
X504007971Y-405710428D01*
X503936542Y-405781857D01*
X503865114Y-405924714D01*
X505222257Y-407139000D02*
X505293685Y-407067571D01*
X505436542Y-406853285D01*
X505507971Y-406710428D01*
X505579400Y-406496142D01*
X505650828Y-406139000D01*
X505650828Y-405853285D01*
X505579400Y-405496142D01*
X505507971Y-405281857D01*
X505436542Y-405139000D01*
X505293685Y-404924714D01*
X505222257Y-404853285D01*
X506365114Y-405996142D02*
X507507971Y-405996142D01*
X509007971Y-406567571D02*
X508150828Y-406567571D01*
X508579400Y-406567571D02*
X508579400Y-405067571D01*
X508436542Y-405281857D01*
X508293685Y-405424714D01*
X508150828Y-405496142D01*
D10*
D11*
X474004400Y-401489000D02*
X582004400Y-401489000D01*
D10*
D12*
X561413685Y-403767571D02*
X560913685Y-403053285D01*
X560556542Y-403767571D02*
X560556542Y-402267571D01*
X561127971Y-402267571D01*
X561270828Y-402339000D01*
X561342257Y-402410428D01*
X561413685Y-402553285D01*
X561413685Y-402767571D01*
X561342257Y-402910428D01*
X561270828Y-402981857D01*
X561127971Y-403053285D01*
X560556542Y-403053285D01*
X562627971Y-403696142D02*
X562485114Y-403767571D01*
X562199400Y-403767571D01*
X562056542Y-403696142D01*
X561985114Y-403553285D01*
X561985114Y-402981857D01*
X562056542Y-402839000D01*
X562199400Y-402767571D01*
X562485114Y-402767571D01*
X562627971Y-402839000D01*
X562699400Y-402981857D01*
X562699400Y-403124714D01*
X561985114Y-403267571D01*
X563199400Y-402767571D02*
X563556542Y-403767571D01*
X563913685Y-402767571D01*
X564485114Y-403624714D02*
X564556542Y-403696142D01*
X564485114Y-403767571D01*
X564413685Y-403696142D01*
X564485114Y-403624714D01*
X564485114Y-403767571D01*
X564485114Y-402839000D02*
X564556542Y-402910428D01*
X564485114Y-402981857D01*
X564413685Y-402910428D01*
X564485114Y-402839000D01*
X564485114Y-402981857D01*
D10*
D11*
X475365114Y-403696142D02*
X475579400Y-403767571D01*
X475936542Y-403767571D01*
X476079400Y-403696142D01*
X476150828Y-403624714D01*
X476222257Y-403481857D01*
X476222257Y-403339000D01*
X476150828Y-403196142D01*
X476079400Y-403124714D01*
X475936542Y-403053285D01*
X475650828Y-402981857D01*
X475507971Y-402910428D01*
X475436542Y-402839000D01*
X475365114Y-402696142D01*
X475365114Y-402553285D01*
X475436542Y-402410428D01*
X475507971Y-402339000D01*
X475650828Y-402267571D01*
X476007971Y-402267571D01*
X476222257Y-402339000D01*
X476865114Y-403767571D02*
X476865114Y-402767571D01*
X476865114Y-402267571D02*
X476793685Y-402339000D01*
X476865114Y-402410428D01*
X476936542Y-402339000D01*
X476865114Y-402267571D01*
X476865114Y-402410428D01*
X477436542Y-402767571D02*
X478222257Y-402767571D01*
X477436542Y-403767571D01*
X478222257Y-403767571D01*
X479365114Y-403696142D02*
X479222257Y-403767571D01*
X478936542Y-403767571D01*
X478793685Y-403696142D01*
X478722257Y-403553285D01*
X478722257Y-402981857D01*
X478793685Y-402839000D01*
X478936542Y-402767571D01*
X479222257Y-402767571D01*
X479365114Y-402839000D01*
X479436542Y-402981857D01*
X479436542Y-403124714D01*
X478722257Y-403267571D01*
X480079400Y-403624714D02*
X480150828Y-403696142D01*
X480079400Y-403767571D01*
X480007971Y-403696142D01*
X480079400Y-403624714D01*
X480079400Y-403767571D01*
X480079400Y-402839000D02*
X480150828Y-402910428D01*
X480079400Y-402981857D01*
X480007971Y-402910428D01*
X480079400Y-402839000D01*
X480079400Y-402981857D01*
X481865114Y-403339000D02*
X482579400Y-403339000D01*
X481722257Y-403767571D02*
X482222257Y-402267571D01*
X482722257Y-403767571D01*
X483150828Y-402410428D02*
X483222257Y-402339000D01*
X483365114Y-402267571D01*
X483722257Y-402267571D01*
X483865114Y-402339000D01*
X483936542Y-402410428D01*
X484007971Y-402553285D01*
X484007971Y-402696142D01*
X483936542Y-402910428D01*
X483079400Y-403767571D01*
X484007971Y-403767571D01*
D10*
D11*
X560436542Y-406567571D02*
X560436542Y-405067571D01*
X561793685Y-406567571D02*
X561793685Y-405067571D01*
X561793685Y-406496142D02*
X561650828Y-406567571D01*
X561365114Y-406567571D01*
X561222257Y-406496142D01*
X561150828Y-406424714D01*
X561079400Y-406281857D01*
X561079400Y-405853285D01*
X561150828Y-405710428D01*
X561222257Y-405639000D01*
X561365114Y-405567571D01*
X561650828Y-405567571D01*
X561793685Y-405639000D01*
X562507971Y-406424714D02*
X562579400Y-406496142D01*
X562507971Y-406567571D01*
X562436542Y-406496142D01*
X562507971Y-406424714D01*
X562507971Y-406567571D01*
X562507971Y-405639000D02*
X562579400Y-405710428D01*
X562507971Y-405781857D01*
X562436542Y-405710428D01*
X562507971Y-405639000D01*
X562507971Y-405781857D01*
X565150828Y-406567571D02*
X564293685Y-406567571D01*
X564722257Y-406567571D02*
X564722257Y-405067571D01*
X564579400Y-405281857D01*
X564436542Y-405424714D01*
X564293685Y-405496142D01*
X566865114Y-404996142D02*
X565579400Y-406924714D01*
X568150828Y-406567571D02*
X567293685Y-406567571D01*
X567722257Y-406567571D02*
X567722257Y-405067571D01*
X567579400Y-405281857D01*
X567436542Y-405424714D01*
X567293685Y-405496142D01*
D10*
D11*
X474004400Y-397489000D02*
X582004400Y-397489000D01*
D10*
D13*
X475716780Y-398193761D02*
X476859638Y-398193761D01*
X476038209Y-400193761D02*
X476288209Y-398193761D01*
X477276304Y-400193761D02*
X477442971Y-398860428D01*
X477526304Y-398193761D02*
X477419161Y-398289000D01*
X477502495Y-398384238D01*
X477609638Y-398289000D01*
X477526304Y-398193761D01*
X477502495Y-398384238D01*
X478109638Y-398860428D02*
X478871542Y-398860428D01*
X478478685Y-398193761D02*
X478264400Y-399908047D01*
X478335828Y-400098523D01*
X478514400Y-400193761D01*
X478704876Y-400193761D01*
X479657257Y-400193761D02*
X479478685Y-400098523D01*
X479407257Y-399908047D01*
X479621542Y-398193761D01*
X481192971Y-400098523D02*
X480990590Y-400193761D01*
X480609638Y-400193761D01*
X480431066Y-400098523D01*
X480359638Y-399908047D01*
X480454876Y-399146142D01*
X480573923Y-398955666D01*
X480776304Y-398860428D01*
X481157257Y-398860428D01*
X481335828Y-398955666D01*
X481407257Y-399146142D01*
X481383447Y-399336619D01*
X480407257Y-399527095D01*
X482157257Y-400003285D02*
X482240590Y-400098523D01*
X482133447Y-400193761D01*
X482050114Y-400098523D01*
X482157257Y-400003285D01*
X482133447Y-400193761D01*
X482288209Y-398955666D02*
X482371542Y-399050904D01*
X482264400Y-399146142D01*
X482181066Y-399050904D01*
X482288209Y-398955666D01*
X482264400Y-399146142D01*
D10*
D11*
X475936542Y-395581857D02*
X475436542Y-395581857D01*
X475436542Y-396367571D02*
X475436542Y-394867571D01*
X476150828Y-394867571D01*
X476722257Y-396367571D02*
X476722257Y-395367571D01*
X476722257Y-394867571D02*
X476650828Y-394939000D01*
X476722257Y-395010428D01*
X476793685Y-394939000D01*
X476722257Y-394867571D01*
X476722257Y-395010428D01*
X477650828Y-396367571D02*
X477507971Y-396296142D01*
X477436542Y-396153285D01*
X477436542Y-394867571D01*
X478793685Y-396296142D02*
X478650828Y-396367571D01*
X478365114Y-396367571D01*
X478222257Y-396296142D01*
X478150828Y-396153285D01*
X478150828Y-395581857D01*
X478222257Y-395439000D01*
X478365114Y-395367571D01*
X478650828Y-395367571D01*
X478793685Y-395439000D01*
X478865114Y-395581857D01*
X478865114Y-395724714D01*
X478150828Y-395867571D01*
X479507971Y-396224714D02*
X479579400Y-396296142D01*
X479507971Y-396367571D01*
X479436542Y-396296142D01*
X479507971Y-396224714D01*
X479507971Y-396367571D01*
X479507971Y-395439000D02*
X479579400Y-395510428D01*
X479507971Y-395581857D01*
X479436542Y-395510428D01*
X479507971Y-395439000D01*
X479507971Y-395581857D01*
X481150828Y-394867571D02*
X482007971Y-394867571D01*
X481579400Y-396367571D02*
X481579400Y-394867571D01*
X482507971Y-396367571D02*
X482507971Y-394867571D01*
X483365114Y-396367571D02*
X482722257Y-395510428D01*
X483365114Y-394867571D02*
X482507971Y-395724714D01*
X484722257Y-396367571D02*
X484007971Y-396367571D01*
X484007971Y-394867571D01*
X485222257Y-395367571D02*
X485222257Y-396867571D01*
X485222257Y-395439000D02*
X485365114Y-395367571D01*
X485650828Y-395367571D01*
X485793685Y-395439000D01*
X485865114Y-395510428D01*
X485936542Y-395653285D01*
X485936542Y-396081857D01*
X485865114Y-396224714D01*
X485793685Y-396296142D01*
X485650828Y-396367571D01*
X485365114Y-396367571D01*
X485222257Y-396296142D01*
X487222257Y-396296142D02*
X487079400Y-396367571D01*
X486793685Y-396367571D01*
X486650828Y-396296142D01*
X486579400Y-396224714D01*
X486507971Y-396081857D01*
X486507971Y-395653285D01*
X486579400Y-395510428D01*
X486650828Y-395439000D01*
X486793685Y-395367571D01*
X487079400Y-395367571D01*
X487222257Y-395439000D01*
X487865114Y-396367571D02*
X487865114Y-394867571D01*
X487865114Y-395439000D02*
X488007971Y-395367571D01*
X488293685Y-395367571D01*
X488436542Y-395439000D01*
X488507971Y-395510428D01*
X488579400Y-395653285D01*
X488579400Y-396081857D01*
X488507971Y-396224714D01*
X488436542Y-396296142D01*
X488293685Y-396367571D01*
X488007971Y-396367571D01*
X487865114Y-396296142D01*
X489222257Y-396224714D02*
X489293685Y-396296142D01*
X489222257Y-396367571D01*
X489150828Y-396296142D01*
X489222257Y-396224714D01*
X489222257Y-396367571D01*
X489936542Y-396367571D02*
X489936542Y-394867571D01*
X490079400Y-395796142D02*
X490507971Y-396367571D01*
X490507971Y-395367571D02*
X489936542Y-395939000D01*
X491150828Y-396367571D02*
X491150828Y-395367571D01*
X491150828Y-394867571D02*
X491079400Y-394939000D01*
X491150828Y-395010428D01*
X491222257Y-394939000D01*
X491150828Y-394867571D01*
X491150828Y-395010428D01*
X492507971Y-396296142D02*
X492365114Y-396367571D01*
X492079400Y-396367571D01*
X491936542Y-396296142D01*
X491865114Y-396224714D01*
X491793685Y-396081857D01*
X491793685Y-395653285D01*
X491865114Y-395510428D01*
X491936542Y-395439000D01*
X492079400Y-395367571D01*
X492365114Y-395367571D01*
X492507971Y-395439000D01*
X493793685Y-396367571D02*
X493793685Y-395581857D01*
X493722257Y-395439000D01*
X493579400Y-395367571D01*
X493293685Y-395367571D01*
X493150828Y-395439000D01*
X493793685Y-396296142D02*
X493650828Y-396367571D01*
X493293685Y-396367571D01*
X493150828Y-396296142D01*
X493079400Y-396153285D01*
X493079400Y-396010428D01*
X493150828Y-395867571D01*
X493293685Y-395796142D01*
X493650828Y-395796142D01*
X493793685Y-395724714D01*
X495150828Y-396367571D02*
X495150828Y-394867571D01*
X495150828Y-396296142D02*
X495007971Y-396367571D01*
X494722257Y-396367571D01*
X494579400Y-396296142D01*
X494507971Y-396224714D01*
X494436542Y-396081857D01*
X494436542Y-395653285D01*
X494507971Y-395510428D01*
X494579400Y-395439000D01*
X494722257Y-395367571D01*
X495007971Y-395367571D01*
X495150828Y-395439000D01*
X495507971Y-396510428D02*
X496650828Y-396510428D01*
X497007971Y-395367571D02*
X497007971Y-396867571D01*
X497007971Y-395439000D02*
X497150828Y-395367571D01*
X497436542Y-395367571D01*
X497579400Y-395439000D01*
X497650828Y-395510428D01*
X497722257Y-395653285D01*
X497722257Y-396081857D01*
X497650828Y-396224714D01*
X497579400Y-396296142D01*
X497436542Y-396367571D01*
X497150828Y-396367571D01*
X497007971Y-396296142D01*
X499007971Y-396296142D02*
X498865114Y-396367571D01*
X498579400Y-396367571D01*
X498436542Y-396296142D01*
X498365114Y-396224714D01*
X498293685Y-396081857D01*
X498293685Y-395653285D01*
X498365114Y-395510428D01*
X498436542Y-395439000D01*
X498579400Y-395367571D01*
X498865114Y-395367571D01*
X499007971Y-395439000D01*
X499650828Y-396367571D02*
X499650828Y-394867571D01*
X499650828Y-395439000D02*
X499793685Y-395367571D01*
X500079400Y-395367571D01*
X500222257Y-395439000D01*
X500293685Y-395510428D01*
X500365114Y-395653285D01*
X500365114Y-396081857D01*
X500293685Y-396224714D01*
X500222257Y-396296142D01*
X500079400Y-396367571D01*
X499793685Y-396367571D01*
X499650828Y-396296142D01*
D10*
D11*
X474004400Y-391489000D02*
X582004400Y-391489000D01*
D10*
D11*
X475365114Y-393596142D02*
X475579400Y-393667571D01*
X475936542Y-393667571D01*
X476079400Y-393596142D01*
X476150828Y-393524714D01*
X476222257Y-393381857D01*
X476222257Y-393239000D01*
X476150828Y-393096142D01*
X476079400Y-393024714D01*
X475936542Y-392953285D01*
X475650828Y-392881857D01*
X475507971Y-392810428D01*
X475436542Y-392739000D01*
X475365114Y-392596142D01*
X475365114Y-392453285D01*
X475436542Y-392310428D01*
X475507971Y-392239000D01*
X475650828Y-392167571D01*
X476007971Y-392167571D01*
X476222257Y-392239000D01*
X476865114Y-393667571D02*
X476865114Y-392167571D01*
X477507971Y-393667571D02*
X477507971Y-392881857D01*
X477436542Y-392739000D01*
X477293685Y-392667571D01*
X477079400Y-392667571D01*
X476936542Y-392739000D01*
X476865114Y-392810428D01*
X478793685Y-393596142D02*
X478650828Y-393667571D01*
X478365114Y-393667571D01*
X478222257Y-393596142D01*
X478150828Y-393453285D01*
X478150828Y-392881857D01*
X478222257Y-392739000D01*
X478365114Y-392667571D01*
X478650828Y-392667571D01*
X478793685Y-392739000D01*
X478865114Y-392881857D01*
X478865114Y-393024714D01*
X478150828Y-393167571D01*
X480079400Y-393596142D02*
X479936542Y-393667571D01*
X479650828Y-393667571D01*
X479507971Y-393596142D01*
X479436542Y-393453285D01*
X479436542Y-392881857D01*
X479507971Y-392739000D01*
X479650828Y-392667571D01*
X479936542Y-392667571D01*
X480079400Y-392739000D01*
X480150828Y-392881857D01*
X480150828Y-393024714D01*
X479436542Y-393167571D01*
X480579400Y-392667571D02*
X481150828Y-392667571D01*
X480793685Y-392167571D02*
X480793685Y-393453285D01*
X480865114Y-393596142D01*
X481007971Y-393667571D01*
X481150828Y-393667571D01*
X481650828Y-393524714D02*
X481722257Y-393596142D01*
X481650828Y-393667571D01*
X481579400Y-393596142D01*
X481650828Y-393524714D01*
X481650828Y-393667571D01*
X481650828Y-392739000D02*
X481722257Y-392810428D01*
X481650828Y-392881857D01*
X481579400Y-392810428D01*
X481650828Y-392739000D01*
X481650828Y-392881857D01*
D10*
D11*
X494004400Y-401489000D02*
X494004400Y-404489000D01*
D10*
D11*
X558004400Y-401489000D02*
X558004400Y-407989000D01*
D14*
%TO.P,SW1,2*%
%TO.N,Net-(R2-Pad1)*%
X379388000Y-120962000D03*
X373088000Y-120962000D03*
%TO.P,SW1,1*%
%TO.N,GND*%
X379388000Y-117162000D03*
X373088000Y-117162000D03*
%TD*%
D15*
%TO.P,K86,2*%
%TO.N,Net-(D86-Pad2)*%
X370046000Y-135572000D03*
%TO.P,K86,1*%
%TO.N,/col17*%
X376396000Y-133032000D03*
%TD*%
%TO.P,K85,2*%
%TO.N,Net-(D85-Pad2)*%
X350996000Y-135572000D03*
%TO.P,K85,1*%
%TO.N,/col16*%
X357346000Y-133032000D03*
%TD*%
%TO.P,K84,2*%
%TO.N,Net-(D84-Pad2)*%
X331946000Y-135572000D03*
%TO.P,K84,1*%
%TO.N,/col15*%
X338296000Y-133032000D03*
%TD*%
%TO.P,K83,2*%
%TO.N,Net-(D83-Pad2)*%
X303371000Y-135572000D03*
%TO.P,K83,1*%
%TO.N,/col14*%
X309721000Y-133032000D03*
%TD*%
%TO.P,K82,2*%
%TO.N,Net-(D82-Pad2)*%
X279559000Y-135572000D03*
%TO.P,K82,1*%
%TO.N,/col13*%
X285909000Y-133032000D03*
%TD*%
%TO.P,K81,2*%
%TO.N,Net-(D81-Pad2)*%
X255746000Y-135572000D03*
%TO.P,K81,1*%
%TO.N,/col12*%
X262096000Y-133032000D03*
%TD*%
D16*
%TO.P,K80,2*%
%TO.N,Net-(D80-Pad2)*%
X181134000Y-133032000D03*
%TO.P,K80,1*%
%TO.N,/matrix/col6*%
X174784000Y-135572000D03*
%TD*%
D15*
%TO.P,K79,2*%
%TO.N,Net-(D79-Pad2)*%
X93821000Y-135572000D03*
%TO.P,K79,1*%
%TO.N,/matrix/col2*%
X100171000Y-133032000D03*
%TD*%
%TO.P,K78,2*%
%TO.N,Net-(D78-Pad2)*%
X70008800Y-135572000D03*
%TO.P,K78,1*%
%TO.N,/matrix/col1*%
X76358800Y-133032000D03*
%TD*%
%TO.P,K77,2*%
%TO.N,Net-(D77-Pad2)*%
X46196200Y-135572000D03*
%TO.P,K77,1*%
%TO.N,/matrix/col0*%
X52546200Y-133032000D03*
%TD*%
%TO.P,K76,2*%
%TO.N,Net-(D76-Pad2)*%
X350996000Y-116522000D03*
%TO.P,K76,1*%
%TO.N,/col16*%
X357346000Y-113982000D03*
%TD*%
%TO.P,K75,2*%
%TO.N,Net-(D75-Pad2)*%
X291465000Y-116522000D03*
%TO.P,K75,1*%
%TO.N,/col12*%
X297815000Y-113982000D03*
%TD*%
%TO.P,K74,2*%
%TO.N,Net-(D74-Pad2)*%
X255746000Y-116522000D03*
%TO.P,K74,1*%
%TO.N,/col11*%
X262096000Y-113982000D03*
%TD*%
%TO.P,K73,2*%
%TO.N,Net-(D73-Pad2)*%
X236696000Y-116522000D03*
%TO.P,K73,1*%
%TO.N,/col10*%
X243046000Y-113982000D03*
%TD*%
%TO.P,K72,2*%
%TO.N,Net-(D72-Pad2)*%
X217646000Y-116522000D03*
%TO.P,K72,1*%
%TO.N,/col9*%
X223996000Y-113982000D03*
%TD*%
%TO.P,K71,2*%
%TO.N,Net-(D71-Pad2)*%
X198596000Y-116522000D03*
%TO.P,K71,1*%
%TO.N,/col7*%
X204946000Y-113982000D03*
%TD*%
%TO.P,K70,2*%
%TO.N,Net-(D70-Pad2)*%
X179546000Y-116522000D03*
%TO.P,K70,1*%
%TO.N,/matrix/col6*%
X185896000Y-113982000D03*
%TD*%
%TO.P,K69,2*%
%TO.N,Net-(D69-Pad2)*%
X160496000Y-116522000D03*
%TO.P,K69,1*%
%TO.N,/matrix/col5*%
X166846000Y-113982000D03*
%TD*%
%TO.P,K68,2*%
%TO.N,Net-(D68-Pad2)*%
X141446000Y-116522000D03*
%TO.P,K68,1*%
%TO.N,/matrix/col4*%
X147796000Y-113982000D03*
%TD*%
%TO.P,K67,2*%
%TO.N,Net-(D67-Pad2)*%
X122396000Y-116522000D03*
%TO.P,K67,1*%
%TO.N,/matrix/col3*%
X128746000Y-113982000D03*
%TD*%
%TO.P,K66,2*%
%TO.N,Net-(D66-Pad2)*%
X103346000Y-116522000D03*
%TO.P,K66,1*%
%TO.N,/matrix/col2*%
X109696000Y-113982000D03*
%TD*%
%TO.P,K65,2*%
%TO.N,Net-(D65-Pad2)*%
X84296200Y-116522000D03*
%TO.P,K65,1*%
%TO.N,/matrix/col1*%
X90646200Y-113982000D03*
%TD*%
%TO.P,K64,2*%
%TO.N,Net-(D64-Pad2)*%
X53340000Y-116522000D03*
%TO.P,K64,1*%
%TO.N,/matrix/col0*%
X59690000Y-113982000D03*
%TD*%
%TO.P,K63,2*%
%TO.N,Net-(D63-Pad2)*%
X296228000Y-97472500D03*
%TO.P,K63,1*%
%TO.N,/col13*%
X302578000Y-94932500D03*
%TD*%
%TO.P,K62,2*%
%TO.N,Net-(D62-Pad2)*%
X265271000Y-97472500D03*
%TO.P,K62,1*%
%TO.N,/col12*%
X271621000Y-94932500D03*
%TD*%
%TO.P,K61,2*%
%TO.N,Net-(D61-Pad2)*%
X246221000Y-97472500D03*
%TO.P,K61,1*%
%TO.N,/col11*%
X252571000Y-94932500D03*
%TD*%
%TO.P,K60,2*%
%TO.N,Net-(D60-Pad2)*%
X227171000Y-97472500D03*
%TO.P,K60,1*%
%TO.N,/col10*%
X233521000Y-94932500D03*
%TD*%
%TO.P,K59,2*%
%TO.N,Net-(D59-Pad2)*%
X208121000Y-97472500D03*
%TO.P,K59,1*%
%TO.N,/col9*%
X214471000Y-94932500D03*
%TD*%
%TO.P,K58,2*%
%TO.N,Net-(D58-Pad2)*%
X189071000Y-97472500D03*
%TO.P,K58,1*%
%TO.N,/col7*%
X195421000Y-94932500D03*
%TD*%
%TO.P,K57,2*%
%TO.N,Net-(D57-Pad2)*%
X170021000Y-97472500D03*
%TO.P,K57,1*%
%TO.N,/matrix/col6*%
X176371000Y-94932500D03*
%TD*%
%TO.P,K56,2*%
%TO.N,Net-(D56-Pad2)*%
X150971000Y-97472500D03*
%TO.P,K56,1*%
%TO.N,/matrix/col5*%
X157321000Y-94932500D03*
%TD*%
%TO.P,K55,2*%
%TO.N,Net-(D55-Pad2)*%
X131921000Y-97472500D03*
%TO.P,K55,1*%
%TO.N,/matrix/col4*%
X138271000Y-94932500D03*
%TD*%
%TO.P,K54,2*%
%TO.N,Net-(D54-Pad2)*%
X112871000Y-97472500D03*
%TO.P,K54,1*%
%TO.N,/matrix/col3*%
X119221000Y-94932500D03*
%TD*%
%TO.P,K53,2*%
%TO.N,Net-(D53-Pad2)*%
X93821000Y-97472500D03*
%TO.P,K53,1*%
%TO.N,/matrix/col2*%
X100171000Y-94932500D03*
%TD*%
%TO.P,K52,2*%
%TO.N,Net-(D52-Pad2)*%
X74771200Y-97472500D03*
%TO.P,K52,1*%
%TO.N,/matrix/col1*%
X81121200Y-94932500D03*
%TD*%
%TO.P,K51,2*%
%TO.N,Net-(D51-Pad2)*%
X48577500Y-97472500D03*
%TO.P,K51,1*%
%TO.N,/matrix/col0*%
X54927500Y-94932500D03*
%TD*%
%TO.P,K50,2*%
%TO.N,Net-(D50-Pad2)*%
X370046000Y-78422500D03*
%TO.P,K50,1*%
%TO.N,/col17*%
X376396000Y-75882500D03*
%TD*%
%TO.P,K49,2*%
%TO.N,Net-(D49-Pad2)*%
X350996000Y-78422500D03*
%TO.P,K49,1*%
%TO.N,/col16*%
X357346000Y-75882500D03*
%TD*%
%TO.P,K48,2*%
%TO.N,Net-(D48-Pad2)*%
X331946000Y-78422500D03*
%TO.P,K48,1*%
%TO.N,/col15*%
X338296000Y-75882500D03*
%TD*%
%TO.P,K47,2*%
%TO.N,Net-(D47-Pad2)*%
X303371000Y-78422500D03*
%TO.P,K47,1*%
%TO.N,/col14*%
X309721000Y-75882500D03*
%TD*%
%TO.P,K46,2*%
%TO.N,Net-(D46-Pad2)*%
X279559000Y-78422500D03*
%TO.P,K46,1*%
%TO.N,/col13*%
X285909000Y-75882500D03*
%TD*%
%TO.P,K45,2*%
%TO.N,Net-(D45-Pad2)*%
X260509000Y-78422500D03*
%TO.P,K45,1*%
%TO.N,/col12*%
X266859000Y-75882500D03*
%TD*%
%TO.P,K44,2*%
%TO.N,Net-(D44-Pad2)*%
X241459000Y-78422500D03*
%TO.P,K44,1*%
%TO.N,/col11*%
X247809000Y-75882500D03*
%TD*%
%TO.P,K43,2*%
%TO.N,Net-(D43-Pad2)*%
X222409000Y-78422500D03*
%TO.P,K43,1*%
%TO.N,/col10*%
X228759000Y-75882500D03*
%TD*%
%TO.P,K42,2*%
%TO.N,Net-(D42-Pad2)*%
X203359000Y-78422500D03*
%TO.P,K42,1*%
%TO.N,/col9*%
X209709000Y-75882500D03*
%TD*%
%TO.P,K41,2*%
%TO.N,Net-(D41-Pad2)*%
X184309000Y-78422500D03*
%TO.P,K41,1*%
%TO.N,/col7*%
X190659000Y-75882500D03*
%TD*%
%TO.P,K40,2*%
%TO.N,Net-(D40-Pad2)*%
X165259000Y-78422500D03*
%TO.P,K40,1*%
%TO.N,/matrix/col6*%
X171609000Y-75882500D03*
%TD*%
%TO.P,K39,2*%
%TO.N,Net-(D39-Pad2)*%
X146209000Y-78422500D03*
%TO.P,K39,1*%
%TO.N,/matrix/col5*%
X152559000Y-75882500D03*
%TD*%
%TO.P,K38,2*%
%TO.N,Net-(D38-Pad2)*%
X127159000Y-78422500D03*
%TO.P,K38,1*%
%TO.N,/matrix/col4*%
X133509000Y-75882500D03*
%TD*%
%TO.P,K37,2*%
%TO.N,Net-(D37-Pad2)*%
X108109000Y-78422500D03*
%TO.P,K37,1*%
%TO.N,/matrix/col3*%
X114459000Y-75882500D03*
%TD*%
%TO.P,K36,2*%
%TO.N,Net-(D36-Pad2)*%
X89058800Y-78422500D03*
%TO.P,K36,1*%
%TO.N,/matrix/col2*%
X95408800Y-75882500D03*
%TD*%
%TO.P,K35,2*%
%TO.N,Net-(D35-Pad2)*%
X70008800Y-78422500D03*
%TO.P,K35,1*%
%TO.N,/matrix/col1*%
X76358800Y-75882500D03*
%TD*%
%TO.P,K34,2*%
%TO.N,Net-(D34-Pad2)*%
X46196200Y-78422500D03*
%TO.P,K34,1*%
%TO.N,/matrix/col0*%
X52546200Y-75882500D03*
%TD*%
%TO.P,K33,2*%
%TO.N,Net-(D33-Pad2)*%
X370046000Y-59372500D03*
%TO.P,K33,1*%
%TO.N,/col17*%
X376396000Y-56832500D03*
%TD*%
%TO.P,K32,2*%
%TO.N,Net-(D32-Pad2)*%
X350996000Y-59372500D03*
%TO.P,K32,1*%
%TO.N,/col16*%
X357346000Y-56832500D03*
%TD*%
%TO.P,K31,2*%
%TO.N,Net-(D31-Pad2)*%
X331946000Y-59372500D03*
%TO.P,K31,1*%
%TO.N,/col15*%
X338296000Y-56832500D03*
%TD*%
%TO.P,K30,2*%
%TO.N,Net-(D30-Pad2)*%
X298609000Y-59372500D03*
%TO.P,K30,1*%
%TO.N,/col14*%
X304959000Y-56832500D03*
%TD*%
%TO.P,K29,2*%
%TO.N,Net-(D29-Pad2)*%
X270034000Y-59372500D03*
%TO.P,K29,1*%
%TO.N,/col13*%
X276384000Y-56832500D03*
%TD*%
%TO.P,K28,2*%
%TO.N,Net-(D28-Pad2)*%
X250984000Y-59372500D03*
%TO.P,K28,1*%
%TO.N,/col12*%
X257334000Y-56832500D03*
%TD*%
%TO.P,K27,2*%
%TO.N,Net-(D27-Pad2)*%
X231934000Y-59372500D03*
%TO.P,K27,1*%
%TO.N,/col11*%
X238284000Y-56832500D03*
%TD*%
%TO.P,K26,2*%
%TO.N,Net-(D26-Pad2)*%
X212884000Y-59372500D03*
%TO.P,K26,1*%
%TO.N,/col10*%
X219234000Y-56832500D03*
%TD*%
%TO.P,K25,2*%
%TO.N,Net-(D25-Pad2)*%
X193834000Y-59372500D03*
%TO.P,K25,1*%
%TO.N,/col9*%
X200184000Y-56832500D03*
%TD*%
%TO.P,K24,2*%
%TO.N,Net-(D24-Pad2)*%
X174784000Y-59372500D03*
%TO.P,K24,1*%
%TO.N,/col7*%
X181134000Y-56832500D03*
%TD*%
%TO.P,K23,2*%
%TO.N,Net-(D23-Pad2)*%
X155734000Y-59372500D03*
%TO.P,K23,1*%
%TO.N,/matrix/col6*%
X162084000Y-56832500D03*
%TD*%
%TO.P,K22,2*%
%TO.N,Net-(D22-Pad2)*%
X136684000Y-59372500D03*
%TO.P,K22,1*%
%TO.N,/matrix/col5*%
X143034000Y-56832500D03*
%TD*%
%TO.P,K21,2*%
%TO.N,Net-(D21-Pad2)*%
X117634000Y-59372500D03*
%TO.P,K21,1*%
%TO.N,/matrix/col4*%
X123984000Y-56832500D03*
%TD*%
%TO.P,K20,2*%
%TO.N,Net-(D20-Pad2)*%
X98584000Y-59372500D03*
%TO.P,K20,1*%
%TO.N,/matrix/col3*%
X104934000Y-56832500D03*
%TD*%
%TO.P,K19,2*%
%TO.N,Net-(D19-Pad2)*%
X79533800Y-59372500D03*
%TO.P,K19,1*%
%TO.N,/matrix/col2*%
X85883800Y-56832500D03*
%TD*%
%TO.P,K18,2*%
%TO.N,Net-(D18-Pad2)*%
X60483800Y-59372500D03*
%TO.P,K18,1*%
%TO.N,/matrix/col1*%
X66833800Y-56832500D03*
%TD*%
%TO.P,K17,2*%
%TO.N,Net-(D17-Pad2)*%
X41433800Y-59372500D03*
%TO.P,K17,1*%
%TO.N,/matrix/col0*%
X47783800Y-56832500D03*
%TD*%
%TO.P,K16,2*%
%TO.N,Net-(D16-Pad2)*%
X370046000Y-35560000D03*
%TO.P,K16,1*%
%TO.N,/col17*%
X376396000Y-33020000D03*
%TD*%
%TO.P,K15,2*%
%TO.N,Net-(D15-Pad2)*%
X350996000Y-35560000D03*
%TO.P,K15,1*%
%TO.N,/col16*%
X357346000Y-33020000D03*
%TD*%
%TO.P,K14,2*%
%TO.N,Net-(D14-Pad2)*%
X331946000Y-35560000D03*
%TO.P,K14,1*%
%TO.N,/col15*%
X338296000Y-33020000D03*
%TD*%
%TO.P,K13,2*%
%TO.N,Net-(D13-Pad2)*%
X308134000Y-35560000D03*
%TO.P,K13,1*%
%TO.N,/col13*%
X314484000Y-33020000D03*
%TD*%
%TO.P,K12,2*%
%TO.N,Net-(D12-Pad2)*%
X289084000Y-35560000D03*
%TO.P,K12,1*%
%TO.N,/col12*%
X295434000Y-33020000D03*
%TD*%
%TO.P,K11,2*%
%TO.N,Net-(D11-Pad2)*%
X270034000Y-35560000D03*
%TO.P,K11,1*%
%TO.N,/col11*%
X276384000Y-33020000D03*
%TD*%
%TO.P,K10,2*%
%TO.N,Net-(D10-Pad2)*%
X250984000Y-35560000D03*
%TO.P,K10,1*%
%TO.N,/col10*%
X257334000Y-33020000D03*
%TD*%
%TO.P,K9,2*%
%TO.N,Net-(D9-Pad2)*%
X222409000Y-35560000D03*
%TO.P,K9,1*%
%TO.N,/col9*%
X228759000Y-33020000D03*
%TD*%
%TO.P,K8,2*%
%TO.N,Net-(D8-Pad2)*%
X203359000Y-35560000D03*
%TO.P,K8,1*%
%TO.N,/col7*%
X209709000Y-33020000D03*
%TD*%
%TO.P,K7,2*%
%TO.N,Net-(D7-Pad2)*%
X184309000Y-35560000D03*
%TO.P,K7,1*%
%TO.N,/matrix/col6*%
X190659000Y-33020000D03*
%TD*%
%TO.P,K6,2*%
%TO.N,Net-(D6-Pad2)*%
X165259000Y-35560000D03*
%TO.P,K6,1*%
%TO.N,/matrix/col5*%
X171609000Y-33020000D03*
%TD*%
%TO.P,K5,2*%
%TO.N,Net-(D5-Pad2)*%
X136684000Y-35560000D03*
%TO.P,K5,1*%
%TO.N,/matrix/col4*%
X143034000Y-33020000D03*
%TD*%
%TO.P,K4,2*%
%TO.N,Net-(D4-Pad2)*%
X117634000Y-35560000D03*
%TO.P,K4,1*%
%TO.N,/matrix/col3*%
X123984000Y-33020000D03*
%TD*%
%TO.P,K3,2*%
%TO.N,Net-(D3-Pad2)*%
X98584000Y-35560000D03*
%TO.P,K3,1*%
%TO.N,/matrix/col2*%
X104934000Y-33020000D03*
%TD*%
%TO.P,K2,2*%
%TO.N,Net-(D2-Pad2)*%
X79533800Y-35560000D03*
%TO.P,K2,1*%
%TO.N,/matrix/col1*%
X85883800Y-33020000D03*
%TD*%
%TO.P,K1,2*%
%TO.N,Net-(D1-Pad2)*%
X41433800Y-35560000D03*
%TO.P,K1,1*%
%TO.N,/matrix/col0*%
X47783800Y-33020000D03*
%TD*%
D17*
%TO.P,J1,S4*%
%TO.N,GND*%
X206821000Y-20382500D03*
%TO.P,J1,S3*%
X217041000Y-20382500D03*
%TO.P,J1,S2*%
X206821000Y-24312500D03*
%TO.P,J1,S1*%
X217041000Y-24312500D03*
D18*
%TO.P,J1,A7*%
%TO.N,Net-(J1-PadA7)*%
X211681000Y-24887500D03*
%TO.P,J1,A6*%
%TO.N,Net-(J1-PadA6)*%
X212181000Y-24887500D03*
%TO.P,J1,B6*%
X211181000Y-24887500D03*
%TO.P,J1,B7*%
%TO.N,Net-(J1-PadA7)*%
X212681000Y-24887500D03*
%TO.P,J1,A8*%
%TO.N,Net-(J1-PadA8)*%
X210681000Y-24887500D03*
%TO.P,J1,A5*%
%TO.N,Net-(J1-PadA5)*%
X213181000Y-24887500D03*
%TO.P,J1,B5*%
%TO.N,Net-(J1-PadB5)*%
X210181000Y-24887500D03*
%TO.P,J1,B8*%
%TO.N,Net-(J1-PadB8)*%
X213681000Y-24887500D03*
D19*
%TO.P,J1,B1/A12*%
%TO.N,GND*%
X208731000Y-24887500D03*
%TO.P,J1,B4/A9*%
%TO.N,VCC*%
X209531000Y-24887500D03*
%TO.P,J1,A4/B9*%
X214331000Y-24887500D03*
%TO.P,J1,A1/B12*%
%TO.N,GND*%
X215131000Y-24887500D03*
%TD*%
%TO.P,C5,2*%
%TO.N,GND*%
%TA.AperFunction,SMDPad,CuDef*%
G36*
G01*
X216243999Y-29025000D02*
X217144001Y-29025000D01*
G75*
G02*
X217394000Y-29274999I0J-249999D01*
G01*
X217394000Y-29925001D01*
G75*
G02*
X217144001Y-30175000I-249999J0D01*
G01*
X216243999Y-30175000D01*
G75*
G02*
X215994000Y-29925001I0J249999D01*
G01*
X215994000Y-29274999D01*
G75*
G02*
X216243999Y-29025000I249999J0D01*
G01*
G37*
%TD.AperFunction*%
%TO.P,C5,1*%
%TO.N,VCC*%
%TA.AperFunction,SMDPad,CuDef*%
G36*
G01*
X216243999Y-26975000D02*
X217144001Y-26975000D01*
G75*
G02*
X217394000Y-27224999I0J-249999D01*
G01*
X217394000Y-27875001D01*
G75*
G02*
X217144001Y-28125000I-249999J0D01*
G01*
X216243999Y-28125000D01*
G75*
G02*
X215994000Y-27875001I0J249999D01*
G01*
X215994000Y-27224999D01*
G75*
G02*
X216243999Y-26975000I249999J0D01*
G01*
G37*
%TD.AperFunction*%
%TD*%
%TO.P,C4,2*%
%TO.N,GND*%
%TA.AperFunction,SMDPad,CuDef*%
G36*
G01*
X213861999Y-29025000D02*
X214762001Y-29025000D01*
G75*
G02*
X215012000Y-29274999I0J-249999D01*
G01*
X215012000Y-29925001D01*
G75*
G02*
X214762001Y-30175000I-249999J0D01*
G01*
X213861999Y-30175000D01*
G75*
G02*
X213612000Y-29925001I0J249999D01*
G01*
X213612000Y-29274999D01*
G75*
G02*
X213861999Y-29025000I249999J0D01*
G01*
G37*
%TD.AperFunction*%
%TO.P,C4,1*%
%TO.N,VCC*%
%TA.AperFunction,SMDPad,CuDef*%
G36*
G01*
X213861999Y-26975000D02*
X214762001Y-26975000D01*
G75*
G02*
X215012000Y-27224999I0J-249999D01*
G01*
X215012000Y-27875001D01*
G75*
G02*
X214762001Y-28125000I-249999J0D01*
G01*
X213861999Y-28125000D01*
G75*
G02*
X213612000Y-27875001I0J249999D01*
G01*
X213612000Y-27224999D01*
G75*
G02*
X213861999Y-26975000I249999J0D01*
G01*
G37*
%TD.AperFunction*%
%TD*%
%TO.P,C3,2*%
%TO.N,GND*%
%TA.AperFunction,SMDPad,CuDef*%
G36*
G01*
X211480999Y-29025000D02*
X212381001Y-29025000D01*
G75*
G02*
X212631000Y-29274999I0J-249999D01*
G01*
X212631000Y-29925001D01*
G75*
G02*
X212381001Y-30175000I-249999J0D01*
G01*
X211480999Y-30175000D01*
G75*
G02*
X211231000Y-29925001I0J249999D01*
G01*
X211231000Y-29274999D01*
G75*
G02*
X211480999Y-29025000I249999J0D01*
G01*
G37*
%TD.AperFunction*%
%TO.P,C3,1*%
%TO.N,VCC*%
%TA.AperFunction,SMDPad,CuDef*%
G36*
G01*
X211480999Y-26975000D02*
X212381001Y-26975000D01*
G75*
G02*
X212631000Y-27224999I0J-249999D01*
G01*
X212631000Y-27875001D01*
G75*
G02*
X212381001Y-28125000I-249999J0D01*
G01*
X211480999Y-28125000D01*
G75*
G02*
X211231000Y-27875001I0J249999D01*
G01*
X211231000Y-27224999D01*
G75*
G02*
X211480999Y-26975000I249999J0D01*
G01*
G37*
%TD.AperFunction*%
%TD*%
%TO.P,C2,2*%
%TO.N,GND*%
%TA.AperFunction,SMDPad,CuDef*%
G36*
G01*
X209099999Y-29025000D02*
X210000001Y-29025000D01*
G75*
G02*
X210250000Y-29274999I0J-249999D01*
G01*
X210250000Y-29925001D01*
G75*
G02*
X210000001Y-30175000I-249999J0D01*
G01*
X209099999Y-30175000D01*
G75*
G02*
X208850000Y-29925001I0J249999D01*
G01*
X208850000Y-29274999D01*
G75*
G02*
X209099999Y-29025000I249999J0D01*
G01*
G37*
%TD.AperFunction*%
%TO.P,C2,1*%
%TO.N,VCC*%
%TA.AperFunction,SMDPad,CuDef*%
G36*
G01*
X209099999Y-26975000D02*
X210000001Y-26975000D01*
G75*
G02*
X210250000Y-27224999I0J-249999D01*
G01*
X210250000Y-27875001D01*
G75*
G02*
X210000001Y-28125000I-249999J0D01*
G01*
X209099999Y-28125000D01*
G75*
G02*
X208850000Y-27875001I0J249999D01*
G01*
X208850000Y-27224999D01*
G75*
G02*
X209099999Y-26975000I249999J0D01*
G01*
G37*
%TD.AperFunction*%
%TD*%
%TO.P,C1,2*%
%TO.N,GND*%
%TA.AperFunction,SMDPad,CuDef*%
G36*
G01*
X206718999Y-29025000D02*
X207619001Y-29025000D01*
G75*
G02*
X207869000Y-29274999I0J-249999D01*
G01*
X207869000Y-29925001D01*
G75*
G02*
X207619001Y-30175000I-249999J0D01*
G01*
X206718999Y-30175000D01*
G75*
G02*
X206469000Y-29925001I0J249999D01*
G01*
X206469000Y-29274999D01*
G75*
G02*
X206718999Y-29025000I249999J0D01*
G01*
G37*
%TD.AperFunction*%
%TO.P,C1,1*%
%TO.N,VCC*%
%TA.AperFunction,SMDPad,CuDef*%
G36*
G01*
X206718999Y-26975000D02*
X207619001Y-26975000D01*
G75*
G02*
X207869000Y-27224999I0J-249999D01*
G01*
X207869000Y-27875001D01*
G75*
G02*
X207619001Y-28125000I-249999J0D01*
G01*
X206718999Y-28125000D01*
G75*
G02*
X206469000Y-27875001I0J249999D01*
G01*
X206469000Y-27224999D01*
G75*
G02*
X206718999Y-26975000I249999J0D01*
G01*
G37*
%TD.AperFunction*%
%TD*%
D20*
%TO.N,GND*%
X376255200Y-99540300D03*
%TO.N,VCC*%
X358512200Y-107071800D03*
X363333400Y-104221600D03*
X350968100Y-107078300D03*
%TO.N,Net-(C7-Pad1)*%
X372974800Y-99892300D03*
X355530400Y-95752700D03*
%TO.N,Net-(C8-Pad2)*%
X366562500Y-99813300D03*
X351492600Y-99690400D03*
%TO.N,/matrix/row1*%
X338962900Y-67492500D03*
X321699100Y-67292700D03*
X324683700Y-67492500D03*
%TO.N,/matrix/row2*%
X342363800Y-90694600D03*
X294280300Y-85698900D03*
X326701100Y-95162200D03*
X360966100Y-88970800D03*
%TO.N,Net-(J1-PadA7)*%
X213006800Y-23685800D03*
%TO.N,Net-(J1-PadA6)*%
X215400300Y-26580700D03*
%TO.N,Net-(J1-PadA5)*%
X358484200Y-78680900D03*
%TO.N,Net-(J1-PadB5)*%
X210312300Y-26064600D03*
%TO.N,/matrix/col0*%
X358568700Y-103274000D03*
%TO.N,/matrix/col1*%
X361863100Y-102993700D03*
X91053100Y-100360900D03*
%TO.N,/matrix/col2*%
X356500700Y-103909700D03*
%TO.N,/matrix/col3*%
X357170200Y-100592800D03*
%TO.N,/matrix/col4*%
X358895700Y-99087900D03*
%TO.N,/matrix/col5*%
X357673300Y-98595100D03*
X157573100Y-92543100D03*
X153574600Y-87926800D03*
%TO.N,/matrix/col6*%
X356524800Y-98807800D03*
X178378000Y-93353000D03*
%TO.N,/col7*%
X345694200Y-104160300D03*
%TO.N,/col9*%
X344697300Y-104607100D03*
%TO.N,/col10*%
X343918500Y-105243100D03*
X230893600Y-51776400D03*
%TO.N,/col11*%
X253052900Y-51760200D03*
X345164700Y-98462800D03*
%TO.N,/col12*%
X342432200Y-106091400D03*
X269083300Y-51783200D03*
%TO.N,/col13*%
X356530800Y-95674500D03*
X289186100Y-51786800D03*
%TO.N,/col15*%
X342452100Y-107168500D03*
%TO.N,/col16*%
X366356400Y-103896900D03*
%TO.N,/col17*%
X352508700Y-107168500D03*
%TO.N,/col14*%
X351260100Y-90329400D03*
%TO.N,Net-(R2-Pad1)*%
X353655300Y-96733900D03*
X374206000Y-114297500D03*
%TO.N,Net-(R4-Pad1)*%
X376463700Y-101348900D03*
X350841300Y-101367700D03*
%TO.N,Net-(R5-Pad1)*%
X376966900Y-102260500D03*
X347733600Y-101818000D03*
%TD*%
D21*
%TO.N,GND*%
X373088000Y-117162000D02*
X378212700Y-117162000D01*
X376255200Y-99540300D02*
X376549900Y-99540300D01*
X376549900Y-99540300D02*
X378359700Y-101350100D01*
X378359700Y-101350100D02*
X378359700Y-116189700D01*
X378359700Y-116189700D02*
X378212700Y-116336700D01*
X378212700Y-116336700D02*
X378212700Y-117162000D01*
X216694000Y-29600000D02*
X218096200Y-31002200D01*
X218096200Y-31002200D02*
X237524800Y-31002200D01*
X237524800Y-31002200D02*
X256081100Y-49558500D01*
X256081100Y-49558500D02*
X299732700Y-49558500D01*
X299732700Y-49558500D02*
X327100600Y-76926400D01*
X327100600Y-76926400D02*
X335008600Y-76926400D01*
X335008600Y-76926400D02*
X343334100Y-85251900D01*
X343334100Y-85251900D02*
X361966800Y-85251900D01*
X361966800Y-85251900D02*
X376255200Y-99540300D01*
X379388000Y-117162000D02*
X378212700Y-117162000D01*
X214312000Y-29600000D02*
X216694000Y-29600000D01*
X215374400Y-23374400D02*
X215625700Y-23625800D01*
X215625700Y-23625800D02*
X215625700Y-24312500D01*
X207520300Y-22506100D02*
X214506000Y-22506100D01*
X214506000Y-22506100D02*
X215374400Y-23374400D01*
X217041000Y-21707800D02*
X215374400Y-23374400D01*
X217041000Y-20382500D02*
X217041000Y-21707800D01*
X207520300Y-22506100D02*
X207520300Y-22407100D01*
X207520300Y-22407100D02*
X206821000Y-21707800D01*
X207520300Y-24312500D02*
X207520300Y-22506100D01*
X217041000Y-24312500D02*
X215625700Y-24312500D01*
X215131000Y-24887500D02*
X215625700Y-24392800D01*
X215625700Y-24392800D02*
X215625700Y-24312500D01*
X206821000Y-24312500D02*
X206821000Y-25637800D01*
X206821000Y-25637800D02*
X206092200Y-26366600D01*
X206092200Y-26366600D02*
X206092200Y-28523200D01*
X206092200Y-28523200D02*
X207169000Y-29600000D01*
X207520300Y-24312500D02*
X206821000Y-24312500D01*
X206821000Y-20382500D02*
X206821000Y-21707800D01*
X207520300Y-24312500D02*
X208236300Y-24312500D01*
X209550000Y-29600000D02*
X207169000Y-29600000D01*
X211931000Y-29600000D02*
X209550000Y-29600000D01*
X211931000Y-29600000D02*
X214312000Y-29600000D01*
X208731000Y-24887500D02*
X208236300Y-24392800D01*
X208236300Y-24392800D02*
X208236300Y-24312500D01*
%TO.N,VCC*%
X216694000Y-27550000D02*
X218504800Y-29360800D01*
X218504800Y-29360800D02*
X249343500Y-29360800D01*
X249343500Y-29360800D02*
X260858500Y-40875800D01*
X260858500Y-40875800D02*
X292556900Y-40875800D01*
X292556900Y-40875800D02*
X321009800Y-69328700D01*
X321009800Y-69328700D02*
X339756700Y-69328700D01*
X339756700Y-69328700D02*
X354874800Y-84446800D01*
X354874800Y-84446800D02*
X362215900Y-84446800D01*
X362215900Y-84446800D02*
X380564800Y-102795700D01*
X380564800Y-102795700D02*
X380564800Y-121606100D01*
X380564800Y-121606100D02*
X380377300Y-121793600D01*
X380377300Y-121793600D02*
X372064500Y-121793600D01*
X372064500Y-121793600D02*
X367081700Y-116810800D01*
X367081700Y-116810800D02*
X367081700Y-103596400D01*
X367081700Y-103596400D02*
X366656900Y-103171600D01*
X366656900Y-103171600D02*
X364383400Y-103171600D01*
X364383400Y-103171600D02*
X363333400Y-104221600D01*
X363333400Y-104221600D02*
X361362400Y-104221600D01*
X361362400Y-104221600D02*
X358512200Y-107071800D01*
X358512200Y-107071800D02*
X357865200Y-106424800D01*
X357865200Y-106424800D02*
X351621600Y-106424800D01*
X351621600Y-106424800D02*
X350968100Y-107078300D01*
X214331000Y-24887500D02*
X214331000Y-24341500D01*
X214331000Y-24341500D02*
X213862500Y-23873000D01*
X213862500Y-23873000D02*
X213862500Y-23472400D01*
X213862500Y-23472400D02*
X213346600Y-22956500D01*
X213346600Y-22956500D02*
X210897500Y-22956500D01*
X210897500Y-22956500D02*
X209531000Y-24323000D01*
X209531000Y-24323000D02*
X209531000Y-24887500D01*
X209531000Y-24887500D02*
X209531000Y-27531000D01*
X209531000Y-27531000D02*
X209550000Y-27550000D01*
X214312000Y-27550000D02*
X216694000Y-27550000D01*
X214312000Y-27550000D02*
X211931000Y-27550000D01*
X209550000Y-27550000D02*
X211931000Y-27550000D01*
X207169000Y-27550000D02*
X209550000Y-27550000D01*
%TO.N,Net-(C7-Pad1)*%
X372974800Y-99892300D02*
X369495100Y-96412600D01*
X369495100Y-96412600D02*
X356190300Y-96412600D01*
X356190300Y-96412600D02*
X355530400Y-95752700D01*
%TO.N,Net-(C8-Pad2)*%
X351492600Y-99690400D02*
X351615500Y-99813300D01*
X351615500Y-99813300D02*
X366562500Y-99813300D01*
%TO.N,/matrix/row1*%
X338962900Y-67492500D02*
X324683700Y-67492500D01*
X324683700Y-67492500D02*
X324483900Y-67292700D01*
X324483900Y-67292700D02*
X321699100Y-67292700D01*
%TO.N,/matrix/row2*%
X342363800Y-90694600D02*
X342723900Y-91054700D01*
X342723900Y-91054700D02*
X358882200Y-91054700D01*
X358882200Y-91054700D02*
X360966100Y-88970800D01*
X342363800Y-90694600D02*
X331168700Y-90694600D01*
X331168700Y-90694600D02*
X326701100Y-95162200D01*
X326701100Y-95162200D02*
X317237800Y-85698900D01*
X317237800Y-85698900D02*
X294280300Y-85698900D01*
%TO.N,Net-(J1-PadA7)*%
X212681000Y-23987200D02*
X212982400Y-23685800D01*
X212982400Y-23685800D02*
X213006800Y-23685800D01*
X212681000Y-24099800D02*
X212681000Y-23987200D01*
X212681000Y-24887500D02*
X212681000Y-24099800D01*
X211681000Y-24887500D02*
X211681000Y-23987200D01*
X212681000Y-23987200D02*
X211681000Y-23987200D01*
%TO.N,Net-(J1-PadA6)*%
X212181000Y-25787800D02*
X212973900Y-26580700D01*
X212973900Y-26580700D02*
X215400300Y-26580700D01*
X212181000Y-25675200D02*
X212181000Y-25787800D01*
X212181000Y-25787800D02*
X211181000Y-25787800D01*
X212181000Y-24887500D02*
X212181000Y-25675200D01*
X211181000Y-24887500D02*
X211181000Y-25787800D01*
%TO.N,Net-(J1-PadA5)*%
X358484200Y-78680900D02*
X357744200Y-78680900D01*
X357744200Y-78680900D02*
X343301200Y-64237900D01*
X343301200Y-64237900D02*
X326278700Y-64237900D01*
X326278700Y-64237900D02*
X302466200Y-40425400D01*
X302466200Y-40425400D02*
X267382100Y-40425400D01*
X267382100Y-40425400D02*
X255867100Y-28910400D01*
X255867100Y-28910400D02*
X218929500Y-28910400D01*
X218929500Y-28910400D02*
X218691300Y-28672200D01*
X218691300Y-28672200D02*
X218691300Y-27957500D01*
X218691300Y-27957500D02*
X216521600Y-25787800D01*
X216521600Y-25787800D02*
X213181000Y-25787800D01*
X213181000Y-24887500D02*
X213181000Y-25787800D01*
%TO.N,Net-(J1-PadB5)*%
X210181000Y-24887500D02*
X210181000Y-25933300D01*
X210181000Y-25933300D02*
X210312300Y-26064600D01*
%TO.N,/matrix/col0*%
X59690000Y-103294100D02*
X342228200Y-103294100D01*
X342228200Y-103294100D02*
X342541200Y-102981100D01*
X342541200Y-102981100D02*
X346668600Y-102981100D01*
X346668600Y-102981100D02*
X346681200Y-102993700D01*
X346681200Y-102993700D02*
X358288400Y-102993700D01*
X358288400Y-102993700D02*
X358568700Y-103274000D01*
X59690000Y-103294100D02*
X59690000Y-113982000D01*
X54927500Y-94932500D02*
X59690000Y-99695000D01*
X59690000Y-99695000D02*
X59690000Y-103294100D01*
X52546200Y-75882500D02*
X47783800Y-71120100D01*
X47783800Y-71120100D02*
X47783800Y-56832500D01*
%TO.N,/matrix/col1*%
X361863100Y-102993700D02*
X361412800Y-102543400D01*
X361412800Y-102543400D02*
X346867800Y-102543400D01*
X346867800Y-102543400D02*
X346822100Y-102497700D01*
X346822100Y-102497700D02*
X323918100Y-102497700D01*
X323918100Y-102497700D02*
X323575100Y-102840700D01*
X323575100Y-102840700D02*
X93532900Y-102840700D01*
X93532900Y-102840700D02*
X91053100Y-100360900D01*
X66833800Y-56832500D02*
X76358800Y-66357500D01*
X76358800Y-66357500D02*
X76358800Y-75882500D01*
X85883800Y-33020000D02*
X85115900Y-33020000D01*
X85115900Y-33020000D02*
X66833800Y-51302100D01*
X66833800Y-51302100D02*
X66833800Y-56832500D01*
X90646200Y-113982000D02*
X89837600Y-113982000D01*
X89837600Y-113982000D02*
X76358800Y-127460800D01*
X76358800Y-127460800D02*
X76358800Y-133032000D01*
X81121200Y-94932500D02*
X85624700Y-94932500D01*
X85624700Y-94932500D02*
X91053100Y-100360900D01*
%TO.N,/matrix/col2*%
X109696000Y-113982000D02*
X119930300Y-103747700D01*
X119930300Y-103747700D02*
X342411500Y-103747700D01*
X342411500Y-103747700D02*
X342727800Y-103431400D01*
X342727800Y-103431400D02*
X346482000Y-103431400D01*
X346482000Y-103431400D02*
X346960300Y-103909700D01*
X346960300Y-103909700D02*
X356500700Y-103909700D01*
X85883800Y-56832500D02*
X95408800Y-66357500D01*
X95408800Y-66357500D02*
X95408800Y-75882500D01*
X85883800Y-56832500D02*
X85883800Y-51302200D01*
X85883800Y-51302200D02*
X104166000Y-33020000D01*
X104166000Y-33020000D02*
X104934000Y-33020000D01*
X100171000Y-94932500D02*
X95408800Y-90170300D01*
X95408800Y-90170300D02*
X95408800Y-75882500D01*
%TO.N,/matrix/col3*%
X357170200Y-100592800D02*
X325186100Y-100592800D01*
X325186100Y-100592800D02*
X323433800Y-102345100D01*
X323433800Y-102345100D02*
X126633600Y-102345100D01*
X126633600Y-102345100D02*
X119221000Y-94932500D01*
X114459000Y-75882500D02*
X114459000Y-90170500D01*
X114459000Y-90170500D02*
X119221000Y-94932500D01*
X123984000Y-33020000D02*
X123216000Y-33020000D01*
X123216000Y-33020000D02*
X104934000Y-51302000D01*
X104934000Y-51302000D02*
X104934000Y-56832500D01*
%TO.N,/matrix/col4*%
X141291200Y-91817800D02*
X280328900Y-91817800D01*
X280328900Y-91817800D02*
X283374000Y-94862900D01*
X283374000Y-94862900D02*
X300087800Y-94862900D01*
X300087800Y-94862900D02*
X301596500Y-96371600D01*
X301596500Y-96371600D02*
X352267300Y-96371600D01*
X352267300Y-96371600D02*
X353485200Y-97589500D01*
X353485200Y-97589500D02*
X357693500Y-97589500D01*
X357693500Y-97589500D02*
X358895700Y-98791700D01*
X358895700Y-98791700D02*
X358895700Y-99087900D01*
X141291200Y-91817800D02*
X138271000Y-94838000D01*
X138271000Y-94838000D02*
X138271000Y-94932500D01*
X133509000Y-75882500D02*
X133509000Y-84035600D01*
X133509000Y-84035600D02*
X141291200Y-91817800D01*
X143034000Y-33020000D02*
X142266000Y-33020000D01*
X142266000Y-33020000D02*
X123984000Y-51302000D01*
X123984000Y-51302000D02*
X123984000Y-56832500D01*
X123984000Y-56832500D02*
X133509000Y-66357500D01*
X133509000Y-66357500D02*
X133509000Y-75882500D01*
%TO.N,/matrix/col5*%
X157573100Y-92627600D02*
X278368000Y-92627600D01*
X278368000Y-92627600D02*
X281053700Y-95313300D01*
X281053700Y-95313300D02*
X299901300Y-95313300D01*
X299901300Y-95313300D02*
X301475800Y-96887800D01*
X301475800Y-96887800D02*
X351620900Y-96887800D01*
X351620900Y-96887800D02*
X352812400Y-98079300D01*
X352812400Y-98079300D02*
X357157500Y-98079300D01*
X357157500Y-98079300D02*
X357673300Y-98595100D01*
X157321000Y-94932500D02*
X157321000Y-92879700D01*
X157321000Y-92879700D02*
X157573100Y-92627600D01*
X157573100Y-92543100D02*
X157573100Y-92627600D01*
X152559000Y-75882500D02*
X152559000Y-86911200D01*
X152559000Y-86911200D02*
X153574600Y-87926800D01*
X171609000Y-33020000D02*
X165723800Y-33020000D01*
X165723800Y-33020000D02*
X143034000Y-55709800D01*
X143034000Y-55709800D02*
X143034000Y-56832500D01*
%TO.N,/matrix/col6*%
X178378000Y-93353000D02*
X263804400Y-93353000D01*
X263804400Y-93353000D02*
X266814000Y-96362600D01*
X266814000Y-96362600D02*
X294847100Y-96362600D01*
X294847100Y-96362600D02*
X295201400Y-96008300D01*
X295201400Y-96008300D02*
X299959400Y-96008300D01*
X299959400Y-96008300D02*
X301673800Y-97722700D01*
X301673800Y-97722700D02*
X351725700Y-97722700D01*
X351725700Y-97722700D02*
X352810800Y-98807800D01*
X352810800Y-98807800D02*
X356524800Y-98807800D01*
X176371000Y-94932500D02*
X176798500Y-94932500D01*
X176798500Y-94932500D02*
X178378000Y-93353000D01*
X174784000Y-135572000D02*
X174784000Y-124280200D01*
X174784000Y-124280200D02*
X185082200Y-113982000D01*
X185082200Y-113982000D02*
X185896000Y-113982000D01*
X164039600Y-58788100D02*
X162084000Y-56832500D01*
X171609000Y-75882500D02*
X171609000Y-66357500D01*
X171609000Y-66357500D02*
X164039600Y-58788100D01*
X190659000Y-33020000D02*
X189807700Y-33020000D01*
X189807700Y-33020000D02*
X164039600Y-58788100D01*
%TO.N,/col7*%
X345694200Y-104160300D02*
X345415600Y-103881700D01*
X345415600Y-103881700D02*
X343389300Y-103881700D01*
X343389300Y-103881700D02*
X342805500Y-104465500D01*
X342805500Y-104465500D02*
X214462500Y-104465500D01*
X214462500Y-104465500D02*
X204946000Y-113982000D01*
X188119100Y-56832500D02*
X188119100Y-73342600D01*
X188119100Y-73342600D02*
X190659000Y-75882500D01*
X209709000Y-33020000D02*
X208941100Y-33020000D01*
X208941100Y-33020000D02*
X188119100Y-53842000D01*
X188119100Y-53842000D02*
X188119100Y-56832500D01*
X188119100Y-56832500D02*
X181134000Y-56832500D01*
%TO.N,/col9*%
X344697300Y-104607100D02*
X344559700Y-104469500D01*
X344559700Y-104469500D02*
X343666200Y-104469500D01*
X343666200Y-104469500D02*
X343219900Y-104915800D01*
X343219900Y-104915800D02*
X233062200Y-104915800D01*
X233062200Y-104915800D02*
X223996000Y-113982000D01*
X204431600Y-56832500D02*
X204431600Y-70605100D01*
X204431600Y-70605100D02*
X209709000Y-75882500D01*
X228759000Y-33020000D02*
X227991100Y-33020000D01*
X227991100Y-33020000D02*
X204431600Y-56579500D01*
X204431600Y-56579500D02*
X204431600Y-56832500D01*
X204431600Y-56832500D02*
X200184000Y-56832500D01*
%TO.N,/col10*%
X343918500Y-105243100D02*
X343795500Y-105366100D01*
X343795500Y-105366100D02*
X251661900Y-105366100D01*
X251661900Y-105366100D02*
X243046000Y-113982000D01*
X225837500Y-56832500D02*
X230893600Y-51776400D01*
X219234000Y-56832500D02*
X225837500Y-56832500D01*
X225837500Y-56832500D02*
X225837500Y-72961000D01*
X225837500Y-72961000D02*
X228759000Y-75882500D01*
%TO.N,/col11*%
X253052900Y-51760200D02*
X247980600Y-56832500D01*
X247980600Y-56832500D02*
X247809000Y-56832500D01*
X252571000Y-94932500D02*
X264747000Y-94932500D01*
X264747000Y-94932500D02*
X267083100Y-97268600D01*
X267083100Y-97268600D02*
X293876400Y-97268600D01*
X293876400Y-97268600D02*
X295547700Y-98939900D01*
X295547700Y-98939900D02*
X296850200Y-98939900D01*
X296850200Y-98939900D02*
X298117500Y-97672600D01*
X298117500Y-97672600D02*
X300986800Y-97672600D01*
X300986800Y-97672600D02*
X301777000Y-98462800D01*
X301777000Y-98462800D02*
X345164700Y-98462800D01*
X247809000Y-56832500D02*
X238284000Y-56832500D01*
X247809000Y-75882500D02*
X247809000Y-56832500D01*
%TO.N,/col12*%
X297815000Y-113982000D02*
X334541600Y-113982000D01*
X334541600Y-113982000D02*
X342432200Y-106091400D01*
X262096000Y-133032000D02*
X281146000Y-113982000D01*
X281146000Y-113982000D02*
X297815000Y-113982000D01*
X263008400Y-57858100D02*
X269083300Y-51783200D01*
X266859000Y-75882500D02*
X263008400Y-72031900D01*
X263008400Y-72031900D02*
X263008400Y-57858100D01*
X263008400Y-57858100D02*
X258359600Y-57858100D01*
X258359600Y-57858100D02*
X257334000Y-56832500D01*
%TO.N,/col13*%
X302578000Y-94932500D02*
X303533000Y-95887500D01*
X303533000Y-95887500D02*
X327001600Y-95887500D01*
X327001600Y-95887500D02*
X327861700Y-95027400D01*
X327861700Y-95027400D02*
X355883700Y-95027400D01*
X355883700Y-95027400D02*
X356530800Y-95674500D01*
X302578000Y-94932500D02*
X302488100Y-94932500D01*
X302488100Y-94932500D02*
X290184300Y-82628700D01*
X290184300Y-82628700D02*
X290184300Y-80157800D01*
X290184300Y-80157800D02*
X285909000Y-75882500D01*
X284140400Y-56832500D02*
X289186100Y-51786800D01*
X276384000Y-56832500D02*
X284140400Y-56832500D01*
X285909000Y-75882500D02*
X285909000Y-58601100D01*
X285909000Y-58601100D02*
X284140400Y-56832500D01*
%TO.N,/col15*%
X338296000Y-133032000D02*
X342452100Y-128875900D01*
X342452100Y-128875900D02*
X342452100Y-107168500D01*
%TO.N,/col16*%
X357346000Y-113982000D02*
X366356400Y-104971600D01*
X366356400Y-104971600D02*
X366356400Y-103896900D01*
X357346000Y-56832500D02*
X357346000Y-75882500D01*
%TO.N,/col17*%
X374755500Y-128097100D02*
X364544900Y-117886600D01*
X364544900Y-117886600D02*
X359328300Y-117886600D01*
X359328300Y-117886600D02*
X357092300Y-115650600D01*
X357092300Y-115650600D02*
X356945800Y-115650600D01*
X356945800Y-115650600D02*
X354791100Y-113495900D01*
X354791100Y-113495900D02*
X354791100Y-112556600D01*
X354791100Y-112556600D02*
X352508700Y-110274200D01*
X352508700Y-110274200D02*
X352508700Y-107168500D01*
X376396000Y-133032000D02*
X376396000Y-129737700D01*
X376396000Y-129737700D02*
X374755500Y-128097100D01*
X374755500Y-128097100D02*
X381016200Y-121836400D01*
X381016200Y-121836400D02*
X381016200Y-80502700D01*
X381016200Y-80502700D02*
X376396000Y-75882500D01*
%TO.N,/col14*%
X309721000Y-75882500D02*
X320360400Y-86521900D01*
X320360400Y-86521900D02*
X347452600Y-86521900D01*
X347452600Y-86521900D02*
X351260100Y-90329400D01*
%TO.N,Net-(R2-Pad1)*%
X353655300Y-96733900D02*
X353889300Y-96967900D01*
X353889300Y-96967900D02*
X366494000Y-96967900D01*
X366494000Y-96967900D02*
X370149700Y-100623600D01*
X370149700Y-100623600D02*
X376158300Y-100623600D01*
X376158300Y-100623600D02*
X376163300Y-100618600D01*
X376163300Y-100618600D02*
X376696600Y-100618600D01*
X376696600Y-100618600D02*
X376701500Y-100623500D01*
X376701500Y-100623500D02*
X376769100Y-100623500D01*
X376769100Y-100623500D02*
X376769200Y-100623600D01*
X376769200Y-100623600D02*
X376992800Y-100623600D01*
X376992800Y-100623600D02*
X377198600Y-100829400D01*
X377198600Y-100829400D02*
X377198600Y-101466300D01*
X377198600Y-101466300D02*
X377736000Y-102003700D01*
X377736000Y-102003700D02*
X377736000Y-110503800D01*
X377736000Y-110503800D02*
X377867900Y-110635600D01*
X377867900Y-110635600D02*
X374206000Y-114297500D01*
X371912700Y-120962000D02*
X371912700Y-116463600D01*
X371912700Y-116463600D02*
X374078800Y-114297500D01*
X374078800Y-114297500D02*
X374206000Y-114297500D01*
X373088000Y-120962000D02*
X371912700Y-120962000D01*
X379388000Y-120962000D02*
X373088000Y-120962000D01*
%TO.N,Net-(R4-Pad1)*%
X350841300Y-101367700D02*
X376487500Y-101367700D01*
X376487500Y-101367700D02*
X376463700Y-101343900D01*
X376463700Y-101343900D02*
X376463700Y-101348900D01*
%TO.N,Net-(R5-Pad1)*%
X347733600Y-101818000D02*
X348008700Y-102093100D01*
X348008700Y-102093100D02*
X376187200Y-102093100D01*
X376187200Y-102093100D02*
X376347100Y-102253000D01*
X376347100Y-102253000D02*
X376969400Y-102253000D01*
X376969400Y-102253000D02*
X376964400Y-102258000D01*
X376964400Y-102258000D02*
X376966900Y-102260500D01*
%TD*%
M02*
