%TF.GenerationSoftware,KiCad,Pcbnew,(5.1.6)-1*%
%TF.CreationDate,2020-07-25T19:19:23-04:00*%
%TF.ProjectId,TKLpcb,544b4c70-6362-42e6-9b69-6361645f7063,rev?*%
%TF.SameCoordinates,Original*%
%TF.FileFunction,Legend,Top*%
%TF.FilePolarity,Positive*%
%FSLAX46Y46*%
G04 Gerber Fmt 4.6, Leading zero omitted, Abs format (unit mm)*
G04 Created by KiCad (PCBNEW (5.1.6)-1) date 2020-07-25 19:19:23*
%MOMM*%
%LPD*%
G01*
G04 APERTURE LIST*
%ADD10C,0.100000*%
%ADD11C,0.150000*%
%ADD12C,0.300000*%
%ADD13C,0.400000*%
%ADD14C,0.120000*%
%ADD15C,0.200000*%
%ADD16C,0.015000*%
G04 APERTURE END LIST*
D10*
D11*
X474004400Y-375989000D02*
X474004400Y-407989000D01*
X582004400Y-407989000D01*
X582004400Y-375989000D01*
X474004400Y-375989000D01*
D10*
D11*
X10000000Y-10000000D02*
X10000000Y-409989000D01*
X584004400Y-409989000D01*
X584004400Y-10000000D01*
X10000000Y-10000000D01*
D10*
D11*
X12000000Y-12000000D02*
X12000000Y-407989000D01*
X582004400Y-407989000D01*
X582004400Y-12000000D01*
X12000000Y-12000000D01*
D10*
D11*
X60000000Y-12000000D02*
X60000000Y-10000000D01*
D10*
D11*
X110000000Y-12000000D02*
X110000000Y-10000000D01*
D10*
D11*
X160000000Y-12000000D02*
X160000000Y-10000000D01*
D10*
D11*
X210000000Y-12000000D02*
X210000000Y-10000000D01*
D10*
D11*
X260000000Y-12000000D02*
X260000000Y-10000000D01*
D10*
D11*
X310000000Y-12000000D02*
X310000000Y-10000000D01*
D10*
D11*
X360000000Y-12000000D02*
X360000000Y-10000000D01*
D10*
D11*
X410000000Y-12000000D02*
X410000000Y-10000000D01*
D10*
D11*
X460000000Y-12000000D02*
X460000000Y-10000000D01*
D10*
D11*
X510000000Y-12000000D02*
X510000000Y-10000000D01*
D10*
D11*
X560000000Y-12000000D02*
X560000000Y-10000000D01*
D10*
D11*
X36065476Y-11588095D02*
X35322619Y-11588095D01*
X35694047Y-11588095D02*
X35694047Y-10288095D01*
X35570238Y-10473809D01*
X35446428Y-10597619D01*
X35322619Y-10659523D01*
D10*
D11*
X85322619Y-10411904D02*
X85384523Y-10350000D01*
X85508333Y-10288095D01*
X85817857Y-10288095D01*
X85941666Y-10350000D01*
X86003571Y-10411904D01*
X86065476Y-10535714D01*
X86065476Y-10659523D01*
X86003571Y-10845238D01*
X85260714Y-11588095D01*
X86065476Y-11588095D01*
D10*
D11*
X135260714Y-10288095D02*
X136065476Y-10288095D01*
X135632142Y-10783333D01*
X135817857Y-10783333D01*
X135941666Y-10845238D01*
X136003571Y-10907142D01*
X136065476Y-11030952D01*
X136065476Y-11340476D01*
X136003571Y-11464285D01*
X135941666Y-11526190D01*
X135817857Y-11588095D01*
X135446428Y-11588095D01*
X135322619Y-11526190D01*
X135260714Y-11464285D01*
D10*
D11*
X185941666Y-10721428D02*
X185941666Y-11588095D01*
X185632142Y-10226190D02*
X185322619Y-11154761D01*
X186127380Y-11154761D01*
D10*
D11*
X236003571Y-10288095D02*
X235384523Y-10288095D01*
X235322619Y-10907142D01*
X235384523Y-10845238D01*
X235508333Y-10783333D01*
X235817857Y-10783333D01*
X235941666Y-10845238D01*
X236003571Y-10907142D01*
X236065476Y-11030952D01*
X236065476Y-11340476D01*
X236003571Y-11464285D01*
X235941666Y-11526190D01*
X235817857Y-11588095D01*
X235508333Y-11588095D01*
X235384523Y-11526190D01*
X235322619Y-11464285D01*
D10*
D11*
X285941666Y-10288095D02*
X285694047Y-10288095D01*
X285570238Y-10350000D01*
X285508333Y-10411904D01*
X285384523Y-10597619D01*
X285322619Y-10845238D01*
X285322619Y-11340476D01*
X285384523Y-11464285D01*
X285446428Y-11526190D01*
X285570238Y-11588095D01*
X285817857Y-11588095D01*
X285941666Y-11526190D01*
X286003571Y-11464285D01*
X286065476Y-11340476D01*
X286065476Y-11030952D01*
X286003571Y-10907142D01*
X285941666Y-10845238D01*
X285817857Y-10783333D01*
X285570238Y-10783333D01*
X285446428Y-10845238D01*
X285384523Y-10907142D01*
X285322619Y-11030952D01*
D10*
D11*
X335260714Y-10288095D02*
X336127380Y-10288095D01*
X335570238Y-11588095D01*
D10*
D11*
X385570238Y-10845238D02*
X385446428Y-10783333D01*
X385384523Y-10721428D01*
X385322619Y-10597619D01*
X385322619Y-10535714D01*
X385384523Y-10411904D01*
X385446428Y-10350000D01*
X385570238Y-10288095D01*
X385817857Y-10288095D01*
X385941666Y-10350000D01*
X386003571Y-10411904D01*
X386065476Y-10535714D01*
X386065476Y-10597619D01*
X386003571Y-10721428D01*
X385941666Y-10783333D01*
X385817857Y-10845238D01*
X385570238Y-10845238D01*
X385446428Y-10907142D01*
X385384523Y-10969047D01*
X385322619Y-11092857D01*
X385322619Y-11340476D01*
X385384523Y-11464285D01*
X385446428Y-11526190D01*
X385570238Y-11588095D01*
X385817857Y-11588095D01*
X385941666Y-11526190D01*
X386003571Y-11464285D01*
X386065476Y-11340476D01*
X386065476Y-11092857D01*
X386003571Y-10969047D01*
X385941666Y-10907142D01*
X385817857Y-10845238D01*
D10*
D11*
X435446428Y-11588095D02*
X435694047Y-11588095D01*
X435817857Y-11526190D01*
X435879761Y-11464285D01*
X436003571Y-11278571D01*
X436065476Y-11030952D01*
X436065476Y-10535714D01*
X436003571Y-10411904D01*
X435941666Y-10350000D01*
X435817857Y-10288095D01*
X435570238Y-10288095D01*
X435446428Y-10350000D01*
X435384523Y-10411904D01*
X435322619Y-10535714D01*
X435322619Y-10845238D01*
X435384523Y-10969047D01*
X435446428Y-11030952D01*
X435570238Y-11092857D01*
X435817857Y-11092857D01*
X435941666Y-11030952D01*
X436003571Y-10969047D01*
X436065476Y-10845238D01*
D10*
D11*
X486065476Y-11588095D02*
X485322619Y-11588095D01*
X485694047Y-11588095D02*
X485694047Y-10288095D01*
X485570238Y-10473809D01*
X485446428Y-10597619D01*
X485322619Y-10659523D01*
X486870238Y-10288095D02*
X486994047Y-10288095D01*
X487117857Y-10350000D01*
X487179761Y-10411904D01*
X487241666Y-10535714D01*
X487303571Y-10783333D01*
X487303571Y-11092857D01*
X487241666Y-11340476D01*
X487179761Y-11464285D01*
X487117857Y-11526190D01*
X486994047Y-11588095D01*
X486870238Y-11588095D01*
X486746428Y-11526190D01*
X486684523Y-11464285D01*
X486622619Y-11340476D01*
X486560714Y-11092857D01*
X486560714Y-10783333D01*
X486622619Y-10535714D01*
X486684523Y-10411904D01*
X486746428Y-10350000D01*
X486870238Y-10288095D01*
D10*
D11*
X536065476Y-11588095D02*
X535322619Y-11588095D01*
X535694047Y-11588095D02*
X535694047Y-10288095D01*
X535570238Y-10473809D01*
X535446428Y-10597619D01*
X535322619Y-10659523D01*
X537303571Y-11588095D02*
X536560714Y-11588095D01*
X536932142Y-11588095D02*
X536932142Y-10288095D01*
X536808333Y-10473809D01*
X536684523Y-10597619D01*
X536560714Y-10659523D01*
D10*
D11*
X60000000Y-407989000D02*
X60000000Y-409989000D01*
D10*
D11*
X110000000Y-407989000D02*
X110000000Y-409989000D01*
D10*
D11*
X160000000Y-407989000D02*
X160000000Y-409989000D01*
D10*
D11*
X210000000Y-407989000D02*
X210000000Y-409989000D01*
D10*
D11*
X260000000Y-407989000D02*
X260000000Y-409989000D01*
D10*
D11*
X310000000Y-407989000D02*
X310000000Y-409989000D01*
D10*
D11*
X360000000Y-407989000D02*
X360000000Y-409989000D01*
D10*
D11*
X410000000Y-407989000D02*
X410000000Y-409989000D01*
D10*
D11*
X460000000Y-407989000D02*
X460000000Y-409989000D01*
D10*
D11*
X510000000Y-407989000D02*
X510000000Y-409989000D01*
D10*
D11*
X560000000Y-407989000D02*
X560000000Y-409989000D01*
D10*
D11*
X36065476Y-409577095D02*
X35322619Y-409577095D01*
X35694047Y-409577095D02*
X35694047Y-408277095D01*
X35570238Y-408462809D01*
X35446428Y-408586619D01*
X35322619Y-408648523D01*
D10*
D11*
X85322619Y-408400904D02*
X85384523Y-408339000D01*
X85508333Y-408277095D01*
X85817857Y-408277095D01*
X85941666Y-408339000D01*
X86003571Y-408400904D01*
X86065476Y-408524714D01*
X86065476Y-408648523D01*
X86003571Y-408834238D01*
X85260714Y-409577095D01*
X86065476Y-409577095D01*
D10*
D11*
X135260714Y-408277095D02*
X136065476Y-408277095D01*
X135632142Y-408772333D01*
X135817857Y-408772333D01*
X135941666Y-408834238D01*
X136003571Y-408896142D01*
X136065476Y-409019952D01*
X136065476Y-409329476D01*
X136003571Y-409453285D01*
X135941666Y-409515190D01*
X135817857Y-409577095D01*
X135446428Y-409577095D01*
X135322619Y-409515190D01*
X135260714Y-409453285D01*
D10*
D11*
X185941666Y-408710428D02*
X185941666Y-409577095D01*
X185632142Y-408215190D02*
X185322619Y-409143761D01*
X186127380Y-409143761D01*
D10*
D11*
X236003571Y-408277095D02*
X235384523Y-408277095D01*
X235322619Y-408896142D01*
X235384523Y-408834238D01*
X235508333Y-408772333D01*
X235817857Y-408772333D01*
X235941666Y-408834238D01*
X236003571Y-408896142D01*
X236065476Y-409019952D01*
X236065476Y-409329476D01*
X236003571Y-409453285D01*
X235941666Y-409515190D01*
X235817857Y-409577095D01*
X235508333Y-409577095D01*
X235384523Y-409515190D01*
X235322619Y-409453285D01*
D10*
D11*
X285941666Y-408277095D02*
X285694047Y-408277095D01*
X285570238Y-408339000D01*
X285508333Y-408400904D01*
X285384523Y-408586619D01*
X285322619Y-408834238D01*
X285322619Y-409329476D01*
X285384523Y-409453285D01*
X285446428Y-409515190D01*
X285570238Y-409577095D01*
X285817857Y-409577095D01*
X285941666Y-409515190D01*
X286003571Y-409453285D01*
X286065476Y-409329476D01*
X286065476Y-409019952D01*
X286003571Y-408896142D01*
X285941666Y-408834238D01*
X285817857Y-408772333D01*
X285570238Y-408772333D01*
X285446428Y-408834238D01*
X285384523Y-408896142D01*
X285322619Y-409019952D01*
D10*
D11*
X335260714Y-408277095D02*
X336127380Y-408277095D01*
X335570238Y-409577095D01*
D10*
D11*
X385570238Y-408834238D02*
X385446428Y-408772333D01*
X385384523Y-408710428D01*
X385322619Y-408586619D01*
X385322619Y-408524714D01*
X385384523Y-408400904D01*
X385446428Y-408339000D01*
X385570238Y-408277095D01*
X385817857Y-408277095D01*
X385941666Y-408339000D01*
X386003571Y-408400904D01*
X386065476Y-408524714D01*
X386065476Y-408586619D01*
X386003571Y-408710428D01*
X385941666Y-408772333D01*
X385817857Y-408834238D01*
X385570238Y-408834238D01*
X385446428Y-408896142D01*
X385384523Y-408958047D01*
X385322619Y-409081857D01*
X385322619Y-409329476D01*
X385384523Y-409453285D01*
X385446428Y-409515190D01*
X385570238Y-409577095D01*
X385817857Y-409577095D01*
X385941666Y-409515190D01*
X386003571Y-409453285D01*
X386065476Y-409329476D01*
X386065476Y-409081857D01*
X386003571Y-408958047D01*
X385941666Y-408896142D01*
X385817857Y-408834238D01*
D10*
D11*
X435446428Y-409577095D02*
X435694047Y-409577095D01*
X435817857Y-409515190D01*
X435879761Y-409453285D01*
X436003571Y-409267571D01*
X436065476Y-409019952D01*
X436065476Y-408524714D01*
X436003571Y-408400904D01*
X435941666Y-408339000D01*
X435817857Y-408277095D01*
X435570238Y-408277095D01*
X435446428Y-408339000D01*
X435384523Y-408400904D01*
X435322619Y-408524714D01*
X435322619Y-408834238D01*
X435384523Y-408958047D01*
X435446428Y-409019952D01*
X435570238Y-409081857D01*
X435817857Y-409081857D01*
X435941666Y-409019952D01*
X436003571Y-408958047D01*
X436065476Y-408834238D01*
D10*
D11*
X486065476Y-409577095D02*
X485322619Y-409577095D01*
X485694047Y-409577095D02*
X485694047Y-408277095D01*
X485570238Y-408462809D01*
X485446428Y-408586619D01*
X485322619Y-408648523D01*
X486870238Y-408277095D02*
X486994047Y-408277095D01*
X487117857Y-408339000D01*
X487179761Y-408400904D01*
X487241666Y-408524714D01*
X487303571Y-408772333D01*
X487303571Y-409081857D01*
X487241666Y-409329476D01*
X487179761Y-409453285D01*
X487117857Y-409515190D01*
X486994047Y-409577095D01*
X486870238Y-409577095D01*
X486746428Y-409515190D01*
X486684523Y-409453285D01*
X486622619Y-409329476D01*
X486560714Y-409081857D01*
X486560714Y-408772333D01*
X486622619Y-408524714D01*
X486684523Y-408400904D01*
X486746428Y-408339000D01*
X486870238Y-408277095D01*
D10*
D11*
X536065476Y-409577095D02*
X535322619Y-409577095D01*
X535694047Y-409577095D02*
X535694047Y-408277095D01*
X535570238Y-408462809D01*
X535446428Y-408586619D01*
X535322619Y-408648523D01*
X537303571Y-409577095D02*
X536560714Y-409577095D01*
X536932142Y-409577095D02*
X536932142Y-408277095D01*
X536808333Y-408462809D01*
X536684523Y-408586619D01*
X536560714Y-408648523D01*
D10*
D11*
X10000000Y-60000000D02*
X12000000Y-60000000D01*
D10*
D11*
X10000000Y-110000000D02*
X12000000Y-110000000D01*
D10*
D11*
X10000000Y-160000000D02*
X12000000Y-160000000D01*
D10*
D11*
X10000000Y-210000000D02*
X12000000Y-210000000D01*
D10*
D11*
X10000000Y-260000000D02*
X12000000Y-260000000D01*
D10*
D11*
X10000000Y-310000000D02*
X12000000Y-310000000D01*
D10*
D11*
X10000000Y-360000000D02*
X12000000Y-360000000D01*
D10*
D11*
X10690476Y-35216666D02*
X11309523Y-35216666D01*
X10566666Y-35588095D02*
X11000000Y-34288095D01*
X11433333Y-35588095D01*
D10*
D11*
X11092857Y-84907142D02*
X11278571Y-84969047D01*
X11340476Y-85030952D01*
X11402380Y-85154761D01*
X11402380Y-85340476D01*
X11340476Y-85464285D01*
X11278571Y-85526190D01*
X11154761Y-85588095D01*
X10659523Y-85588095D01*
X10659523Y-84288095D01*
X11092857Y-84288095D01*
X11216666Y-84350000D01*
X11278571Y-84411904D01*
X11340476Y-84535714D01*
X11340476Y-84659523D01*
X11278571Y-84783333D01*
X11216666Y-84845238D01*
X11092857Y-84907142D01*
X10659523Y-84907142D01*
D10*
D11*
X11402380Y-135464285D02*
X11340476Y-135526190D01*
X11154761Y-135588095D01*
X11030952Y-135588095D01*
X10845238Y-135526190D01*
X10721428Y-135402380D01*
X10659523Y-135278571D01*
X10597619Y-135030952D01*
X10597619Y-134845238D01*
X10659523Y-134597619D01*
X10721428Y-134473809D01*
X10845238Y-134350000D01*
X11030952Y-134288095D01*
X11154761Y-134288095D01*
X11340476Y-134350000D01*
X11402380Y-134411904D01*
D10*
D11*
X10659523Y-185588095D02*
X10659523Y-184288095D01*
X10969047Y-184288095D01*
X11154761Y-184350000D01*
X11278571Y-184473809D01*
X11340476Y-184597619D01*
X11402380Y-184845238D01*
X11402380Y-185030952D01*
X11340476Y-185278571D01*
X11278571Y-185402380D01*
X11154761Y-185526190D01*
X10969047Y-185588095D01*
X10659523Y-185588095D01*
D10*
D11*
X10721428Y-234907142D02*
X11154761Y-234907142D01*
X11340476Y-235588095D02*
X10721428Y-235588095D01*
X10721428Y-234288095D01*
X11340476Y-234288095D01*
D10*
D11*
X11185714Y-284907142D02*
X10752380Y-284907142D01*
X10752380Y-285588095D02*
X10752380Y-284288095D01*
X11371428Y-284288095D01*
D10*
D11*
X11340476Y-334350000D02*
X11216666Y-334288095D01*
X11030952Y-334288095D01*
X10845238Y-334350000D01*
X10721428Y-334473809D01*
X10659523Y-334597619D01*
X10597619Y-334845238D01*
X10597619Y-335030952D01*
X10659523Y-335278571D01*
X10721428Y-335402380D01*
X10845238Y-335526190D01*
X11030952Y-335588095D01*
X11154761Y-335588095D01*
X11340476Y-335526190D01*
X11402380Y-335464285D01*
X11402380Y-335030952D01*
X11154761Y-335030952D01*
D10*
D11*
X10628571Y-385588095D02*
X10628571Y-384288095D01*
X10628571Y-384907142D02*
X11371428Y-384907142D01*
X11371428Y-385588095D02*
X11371428Y-384288095D01*
D10*
D11*
X584004400Y-60000000D02*
X582004400Y-60000000D01*
D10*
D11*
X584004400Y-110000000D02*
X582004400Y-110000000D01*
D10*
D11*
X584004400Y-160000000D02*
X582004400Y-160000000D01*
D10*
D11*
X584004400Y-210000000D02*
X582004400Y-210000000D01*
D10*
D11*
X584004400Y-260000000D02*
X582004400Y-260000000D01*
D10*
D11*
X584004400Y-310000000D02*
X582004400Y-310000000D01*
D10*
D11*
X584004400Y-360000000D02*
X582004400Y-360000000D01*
D10*
D11*
X582694876Y-35216666D02*
X583313923Y-35216666D01*
X582571066Y-35588095D02*
X583004400Y-34288095D01*
X583437733Y-35588095D01*
D10*
D11*
X583097257Y-84907142D02*
X583282971Y-84969047D01*
X583344876Y-85030952D01*
X583406780Y-85154761D01*
X583406780Y-85340476D01*
X583344876Y-85464285D01*
X583282971Y-85526190D01*
X583159161Y-85588095D01*
X582663923Y-85588095D01*
X582663923Y-84288095D01*
X583097257Y-84288095D01*
X583221066Y-84350000D01*
X583282971Y-84411904D01*
X583344876Y-84535714D01*
X583344876Y-84659523D01*
X583282971Y-84783333D01*
X583221066Y-84845238D01*
X583097257Y-84907142D01*
X582663923Y-84907142D01*
D10*
D11*
X583406780Y-135464285D02*
X583344876Y-135526190D01*
X583159161Y-135588095D01*
X583035352Y-135588095D01*
X582849638Y-135526190D01*
X582725828Y-135402380D01*
X582663923Y-135278571D01*
X582602019Y-135030952D01*
X582602019Y-134845238D01*
X582663923Y-134597619D01*
X582725828Y-134473809D01*
X582849638Y-134350000D01*
X583035352Y-134288095D01*
X583159161Y-134288095D01*
X583344876Y-134350000D01*
X583406780Y-134411904D01*
D10*
D11*
X582663923Y-185588095D02*
X582663923Y-184288095D01*
X582973447Y-184288095D01*
X583159161Y-184350000D01*
X583282971Y-184473809D01*
X583344876Y-184597619D01*
X583406780Y-184845238D01*
X583406780Y-185030952D01*
X583344876Y-185278571D01*
X583282971Y-185402380D01*
X583159161Y-185526190D01*
X582973447Y-185588095D01*
X582663923Y-185588095D01*
D10*
D11*
X582725828Y-234907142D02*
X583159161Y-234907142D01*
X583344876Y-235588095D02*
X582725828Y-235588095D01*
X582725828Y-234288095D01*
X583344876Y-234288095D01*
D10*
D11*
X583190114Y-284907142D02*
X582756780Y-284907142D01*
X582756780Y-285588095D02*
X582756780Y-284288095D01*
X583375828Y-284288095D01*
D10*
D11*
X583344876Y-334350000D02*
X583221066Y-334288095D01*
X583035352Y-334288095D01*
X582849638Y-334350000D01*
X582725828Y-334473809D01*
X582663923Y-334597619D01*
X582602019Y-334845238D01*
X582602019Y-335030952D01*
X582663923Y-335278571D01*
X582725828Y-335402380D01*
X582849638Y-335526190D01*
X583035352Y-335588095D01*
X583159161Y-335588095D01*
X583344876Y-335526190D01*
X583406780Y-335464285D01*
X583406780Y-335030952D01*
X583159161Y-335030952D01*
D10*
D11*
X582632971Y-385588095D02*
X582632971Y-384288095D01*
X582632971Y-384907142D02*
X583375828Y-384907142D01*
X583375828Y-385588095D02*
X583375828Y-384288095D01*
D10*
D11*
X497436542Y-403767571D02*
X497436542Y-402267571D01*
X497793685Y-402267571D01*
X498007971Y-402339000D01*
X498150828Y-402481857D01*
X498222257Y-402624714D01*
X498293685Y-402910428D01*
X498293685Y-403124714D01*
X498222257Y-403410428D01*
X498150828Y-403553285D01*
X498007971Y-403696142D01*
X497793685Y-403767571D01*
X497436542Y-403767571D01*
X499579400Y-403767571D02*
X499579400Y-402981857D01*
X499507971Y-402839000D01*
X499365114Y-402767571D01*
X499079400Y-402767571D01*
X498936542Y-402839000D01*
X499579400Y-403696142D02*
X499436542Y-403767571D01*
X499079400Y-403767571D01*
X498936542Y-403696142D01*
X498865114Y-403553285D01*
X498865114Y-403410428D01*
X498936542Y-403267571D01*
X499079400Y-403196142D01*
X499436542Y-403196142D01*
X499579400Y-403124714D01*
X500079400Y-402767571D02*
X500650828Y-402767571D01*
X500293685Y-402267571D02*
X500293685Y-403553285D01*
X500365114Y-403696142D01*
X500507971Y-403767571D01*
X500650828Y-403767571D01*
X501722257Y-403696142D02*
X501579400Y-403767571D01*
X501293685Y-403767571D01*
X501150828Y-403696142D01*
X501079400Y-403553285D01*
X501079400Y-402981857D01*
X501150828Y-402839000D01*
X501293685Y-402767571D01*
X501579400Y-402767571D01*
X501722257Y-402839000D01*
X501793685Y-402981857D01*
X501793685Y-403124714D01*
X501079400Y-403267571D01*
X502436542Y-403624714D02*
X502507971Y-403696142D01*
X502436542Y-403767571D01*
X502365114Y-403696142D01*
X502436542Y-403624714D01*
X502436542Y-403767571D01*
X502436542Y-402839000D02*
X502507971Y-402910428D01*
X502436542Y-402981857D01*
X502365114Y-402910428D01*
X502436542Y-402839000D01*
X502436542Y-402981857D01*
D10*
D11*
X474004400Y-404489000D02*
X582004400Y-404489000D01*
D10*
D11*
X475436542Y-406567571D02*
X475436542Y-405067571D01*
X476293685Y-406567571D02*
X475650828Y-405710428D01*
X476293685Y-405067571D02*
X475436542Y-405924714D01*
X476936542Y-406567571D02*
X476936542Y-405567571D01*
X476936542Y-405067571D02*
X476865114Y-405139000D01*
X476936542Y-405210428D01*
X477007971Y-405139000D01*
X476936542Y-405067571D01*
X476936542Y-405210428D01*
X478507971Y-406424714D02*
X478436542Y-406496142D01*
X478222257Y-406567571D01*
X478079400Y-406567571D01*
X477865114Y-406496142D01*
X477722257Y-406353285D01*
X477650828Y-406210428D01*
X477579400Y-405924714D01*
X477579400Y-405710428D01*
X477650828Y-405424714D01*
X477722257Y-405281857D01*
X477865114Y-405139000D01*
X478079400Y-405067571D01*
X478222257Y-405067571D01*
X478436542Y-405139000D01*
X478507971Y-405210428D01*
X479793685Y-406567571D02*
X479793685Y-405781857D01*
X479722257Y-405639000D01*
X479579400Y-405567571D01*
X479293685Y-405567571D01*
X479150828Y-405639000D01*
X479793685Y-406496142D02*
X479650828Y-406567571D01*
X479293685Y-406567571D01*
X479150828Y-406496142D01*
X479079400Y-406353285D01*
X479079400Y-406210428D01*
X479150828Y-406067571D01*
X479293685Y-405996142D01*
X479650828Y-405996142D01*
X479793685Y-405924714D01*
X481150828Y-406567571D02*
X481150828Y-405067571D01*
X481150828Y-406496142D02*
X481007971Y-406567571D01*
X480722257Y-406567571D01*
X480579400Y-406496142D01*
X480507971Y-406424714D01*
X480436542Y-406281857D01*
X480436542Y-405853285D01*
X480507971Y-405710428D01*
X480579400Y-405639000D01*
X480722257Y-405567571D01*
X481007971Y-405567571D01*
X481150828Y-405639000D01*
X483007971Y-405781857D02*
X483507971Y-405781857D01*
X483722257Y-406567571D02*
X483007971Y-406567571D01*
X483007971Y-405067571D01*
X483722257Y-405067571D01*
X484365114Y-406424714D02*
X484436542Y-406496142D01*
X484365114Y-406567571D01*
X484293685Y-406496142D01*
X484365114Y-406424714D01*
X484365114Y-406567571D01*
X485079400Y-406567571D02*
X485079400Y-405067571D01*
X485436542Y-405067571D01*
X485650828Y-405139000D01*
X485793685Y-405281857D01*
X485865114Y-405424714D01*
X485936542Y-405710428D01*
X485936542Y-405924714D01*
X485865114Y-406210428D01*
X485793685Y-406353285D01*
X485650828Y-406496142D01*
X485436542Y-406567571D01*
X485079400Y-406567571D01*
X486579400Y-406424714D02*
X486650828Y-406496142D01*
X486579400Y-406567571D01*
X486507971Y-406496142D01*
X486579400Y-406424714D01*
X486579400Y-406567571D01*
X487222257Y-406139000D02*
X487936542Y-406139000D01*
X487079400Y-406567571D02*
X487579400Y-405067571D01*
X488079400Y-406567571D01*
X488579400Y-406424714D02*
X488650828Y-406496142D01*
X488579400Y-406567571D01*
X488507971Y-406496142D01*
X488579400Y-406424714D01*
X488579400Y-406567571D01*
X491579400Y-406567571D02*
X491579400Y-405067571D01*
X491722257Y-405996142D02*
X492150828Y-406567571D01*
X492150828Y-405567571D02*
X491579400Y-406139000D01*
X492793685Y-406567571D02*
X492793685Y-405567571D01*
X492793685Y-405067571D02*
X492722257Y-405139000D01*
X492793685Y-405210428D01*
X492865114Y-405139000D01*
X492793685Y-405067571D01*
X492793685Y-405210428D01*
X494150828Y-406496142D02*
X494007971Y-406567571D01*
X493722257Y-406567571D01*
X493579400Y-406496142D01*
X493507971Y-406424714D01*
X493436542Y-406281857D01*
X493436542Y-405853285D01*
X493507971Y-405710428D01*
X493579400Y-405639000D01*
X493722257Y-405567571D01*
X494007971Y-405567571D01*
X494150828Y-405639000D01*
X495436542Y-406567571D02*
X495436542Y-405781857D01*
X495365114Y-405639000D01*
X495222257Y-405567571D01*
X494936542Y-405567571D01*
X494793685Y-405639000D01*
X495436542Y-406496142D02*
X495293685Y-406567571D01*
X494936542Y-406567571D01*
X494793685Y-406496142D01*
X494722257Y-406353285D01*
X494722257Y-406210428D01*
X494793685Y-406067571D01*
X494936542Y-405996142D01*
X495293685Y-405996142D01*
X495436542Y-405924714D01*
X496793685Y-406567571D02*
X496793685Y-405067571D01*
X496793685Y-406496142D02*
X496650828Y-406567571D01*
X496365114Y-406567571D01*
X496222257Y-406496142D01*
X496150828Y-406424714D01*
X496079400Y-406281857D01*
X496079400Y-405853285D01*
X496150828Y-405710428D01*
X496222257Y-405639000D01*
X496365114Y-405567571D01*
X496650828Y-405567571D01*
X496793685Y-405639000D01*
X499079400Y-407139000D02*
X499007971Y-407067571D01*
X498865114Y-406853285D01*
X498793685Y-406710428D01*
X498722257Y-406496142D01*
X498650828Y-406139000D01*
X498650828Y-405853285D01*
X498722257Y-405496142D01*
X498793685Y-405281857D01*
X498865114Y-405139000D01*
X499007971Y-404924714D01*
X499079400Y-404853285D01*
X500365114Y-405067571D02*
X499650828Y-405067571D01*
X499579400Y-405781857D01*
X499650828Y-405710428D01*
X499793685Y-405639000D01*
X500150828Y-405639000D01*
X500293685Y-405710428D01*
X500365114Y-405781857D01*
X500436542Y-405924714D01*
X500436542Y-406281857D01*
X500365114Y-406424714D01*
X500293685Y-406496142D01*
X500150828Y-406567571D01*
X499793685Y-406567571D01*
X499650828Y-406496142D01*
X499579400Y-406424714D01*
X501079400Y-406424714D02*
X501150828Y-406496142D01*
X501079400Y-406567571D01*
X501007971Y-406496142D01*
X501079400Y-406424714D01*
X501079400Y-406567571D01*
X502579400Y-406567571D02*
X501722257Y-406567571D01*
X502150828Y-406567571D02*
X502150828Y-405067571D01*
X502007971Y-405281857D01*
X501865114Y-405424714D01*
X501722257Y-405496142D01*
X503222257Y-406424714D02*
X503293685Y-406496142D01*
X503222257Y-406567571D01*
X503150828Y-406496142D01*
X503222257Y-406424714D01*
X503222257Y-406567571D01*
X504579400Y-405067571D02*
X504293685Y-405067571D01*
X504150828Y-405139000D01*
X504079400Y-405210428D01*
X503936542Y-405424714D01*
X503865114Y-405710428D01*
X503865114Y-406281857D01*
X503936542Y-406424714D01*
X504007971Y-406496142D01*
X504150828Y-406567571D01*
X504436542Y-406567571D01*
X504579400Y-406496142D01*
X504650828Y-406424714D01*
X504722257Y-406281857D01*
X504722257Y-405924714D01*
X504650828Y-405781857D01*
X504579400Y-405710428D01*
X504436542Y-405639000D01*
X504150828Y-405639000D01*
X504007971Y-405710428D01*
X503936542Y-405781857D01*
X503865114Y-405924714D01*
X505222257Y-407139000D02*
X505293685Y-407067571D01*
X505436542Y-406853285D01*
X505507971Y-406710428D01*
X505579400Y-406496142D01*
X505650828Y-406139000D01*
X505650828Y-405853285D01*
X505579400Y-405496142D01*
X505507971Y-405281857D01*
X505436542Y-405139000D01*
X505293685Y-404924714D01*
X505222257Y-404853285D01*
X506365114Y-405996142D02*
X507507971Y-405996142D01*
X509007971Y-406567571D02*
X508150828Y-406567571D01*
X508579400Y-406567571D02*
X508579400Y-405067571D01*
X508436542Y-405281857D01*
X508293685Y-405424714D01*
X508150828Y-405496142D01*
D10*
D11*
X474004400Y-401489000D02*
X582004400Y-401489000D01*
D10*
D12*
X561413685Y-403767571D02*
X560913685Y-403053285D01*
X560556542Y-403767571D02*
X560556542Y-402267571D01*
X561127971Y-402267571D01*
X561270828Y-402339000D01*
X561342257Y-402410428D01*
X561413685Y-402553285D01*
X561413685Y-402767571D01*
X561342257Y-402910428D01*
X561270828Y-402981857D01*
X561127971Y-403053285D01*
X560556542Y-403053285D01*
X562627971Y-403696142D02*
X562485114Y-403767571D01*
X562199400Y-403767571D01*
X562056542Y-403696142D01*
X561985114Y-403553285D01*
X561985114Y-402981857D01*
X562056542Y-402839000D01*
X562199400Y-402767571D01*
X562485114Y-402767571D01*
X562627971Y-402839000D01*
X562699400Y-402981857D01*
X562699400Y-403124714D01*
X561985114Y-403267571D01*
X563199400Y-402767571D02*
X563556542Y-403767571D01*
X563913685Y-402767571D01*
X564485114Y-403624714D02*
X564556542Y-403696142D01*
X564485114Y-403767571D01*
X564413685Y-403696142D01*
X564485114Y-403624714D01*
X564485114Y-403767571D01*
X564485114Y-402839000D02*
X564556542Y-402910428D01*
X564485114Y-402981857D01*
X564413685Y-402910428D01*
X564485114Y-402839000D01*
X564485114Y-402981857D01*
D10*
D11*
X475365114Y-403696142D02*
X475579400Y-403767571D01*
X475936542Y-403767571D01*
X476079400Y-403696142D01*
X476150828Y-403624714D01*
X476222257Y-403481857D01*
X476222257Y-403339000D01*
X476150828Y-403196142D01*
X476079400Y-403124714D01*
X475936542Y-403053285D01*
X475650828Y-402981857D01*
X475507971Y-402910428D01*
X475436542Y-402839000D01*
X475365114Y-402696142D01*
X475365114Y-402553285D01*
X475436542Y-402410428D01*
X475507971Y-402339000D01*
X475650828Y-402267571D01*
X476007971Y-402267571D01*
X476222257Y-402339000D01*
X476865114Y-403767571D02*
X476865114Y-402767571D01*
X476865114Y-402267571D02*
X476793685Y-402339000D01*
X476865114Y-402410428D01*
X476936542Y-402339000D01*
X476865114Y-402267571D01*
X476865114Y-402410428D01*
X477436542Y-402767571D02*
X478222257Y-402767571D01*
X477436542Y-403767571D01*
X478222257Y-403767571D01*
X479365114Y-403696142D02*
X479222257Y-403767571D01*
X478936542Y-403767571D01*
X478793685Y-403696142D01*
X478722257Y-403553285D01*
X478722257Y-402981857D01*
X478793685Y-402839000D01*
X478936542Y-402767571D01*
X479222257Y-402767571D01*
X479365114Y-402839000D01*
X479436542Y-402981857D01*
X479436542Y-403124714D01*
X478722257Y-403267571D01*
X480079400Y-403624714D02*
X480150828Y-403696142D01*
X480079400Y-403767571D01*
X480007971Y-403696142D01*
X480079400Y-403624714D01*
X480079400Y-403767571D01*
X480079400Y-402839000D02*
X480150828Y-402910428D01*
X480079400Y-402981857D01*
X480007971Y-402910428D01*
X480079400Y-402839000D01*
X480079400Y-402981857D01*
X481865114Y-403339000D02*
X482579400Y-403339000D01*
X481722257Y-403767571D02*
X482222257Y-402267571D01*
X482722257Y-403767571D01*
X483150828Y-402410428D02*
X483222257Y-402339000D01*
X483365114Y-402267571D01*
X483722257Y-402267571D01*
X483865114Y-402339000D01*
X483936542Y-402410428D01*
X484007971Y-402553285D01*
X484007971Y-402696142D01*
X483936542Y-402910428D01*
X483079400Y-403767571D01*
X484007971Y-403767571D01*
D10*
D11*
X560436542Y-406567571D02*
X560436542Y-405067571D01*
X561793685Y-406567571D02*
X561793685Y-405067571D01*
X561793685Y-406496142D02*
X561650828Y-406567571D01*
X561365114Y-406567571D01*
X561222257Y-406496142D01*
X561150828Y-406424714D01*
X561079400Y-406281857D01*
X561079400Y-405853285D01*
X561150828Y-405710428D01*
X561222257Y-405639000D01*
X561365114Y-405567571D01*
X561650828Y-405567571D01*
X561793685Y-405639000D01*
X562507971Y-406424714D02*
X562579400Y-406496142D01*
X562507971Y-406567571D01*
X562436542Y-406496142D01*
X562507971Y-406424714D01*
X562507971Y-406567571D01*
X562507971Y-405639000D02*
X562579400Y-405710428D01*
X562507971Y-405781857D01*
X562436542Y-405710428D01*
X562507971Y-405639000D01*
X562507971Y-405781857D01*
X565150828Y-406567571D02*
X564293685Y-406567571D01*
X564722257Y-406567571D02*
X564722257Y-405067571D01*
X564579400Y-405281857D01*
X564436542Y-405424714D01*
X564293685Y-405496142D01*
X566865114Y-404996142D02*
X565579400Y-406924714D01*
X568150828Y-406567571D02*
X567293685Y-406567571D01*
X567722257Y-406567571D02*
X567722257Y-405067571D01*
X567579400Y-405281857D01*
X567436542Y-405424714D01*
X567293685Y-405496142D01*
D10*
D11*
X474004400Y-397489000D02*
X582004400Y-397489000D01*
D10*
D13*
X475716780Y-398193761D02*
X476859638Y-398193761D01*
X476038209Y-400193761D02*
X476288209Y-398193761D01*
X477276304Y-400193761D02*
X477442971Y-398860428D01*
X477526304Y-398193761D02*
X477419161Y-398289000D01*
X477502495Y-398384238D01*
X477609638Y-398289000D01*
X477526304Y-398193761D01*
X477502495Y-398384238D01*
X478109638Y-398860428D02*
X478871542Y-398860428D01*
X478478685Y-398193761D02*
X478264400Y-399908047D01*
X478335828Y-400098523D01*
X478514400Y-400193761D01*
X478704876Y-400193761D01*
X479657257Y-400193761D02*
X479478685Y-400098523D01*
X479407257Y-399908047D01*
X479621542Y-398193761D01*
X481192971Y-400098523D02*
X480990590Y-400193761D01*
X480609638Y-400193761D01*
X480431066Y-400098523D01*
X480359638Y-399908047D01*
X480454876Y-399146142D01*
X480573923Y-398955666D01*
X480776304Y-398860428D01*
X481157257Y-398860428D01*
X481335828Y-398955666D01*
X481407257Y-399146142D01*
X481383447Y-399336619D01*
X480407257Y-399527095D01*
X482157257Y-400003285D02*
X482240590Y-400098523D01*
X482133447Y-400193761D01*
X482050114Y-400098523D01*
X482157257Y-400003285D01*
X482133447Y-400193761D01*
X482288209Y-398955666D02*
X482371542Y-399050904D01*
X482264400Y-399146142D01*
X482181066Y-399050904D01*
X482288209Y-398955666D01*
X482264400Y-399146142D01*
D10*
D11*
X475936542Y-395581857D02*
X475436542Y-395581857D01*
X475436542Y-396367571D02*
X475436542Y-394867571D01*
X476150828Y-394867571D01*
X476722257Y-396367571D02*
X476722257Y-395367571D01*
X476722257Y-394867571D02*
X476650828Y-394939000D01*
X476722257Y-395010428D01*
X476793685Y-394939000D01*
X476722257Y-394867571D01*
X476722257Y-395010428D01*
X477650828Y-396367571D02*
X477507971Y-396296142D01*
X477436542Y-396153285D01*
X477436542Y-394867571D01*
X478793685Y-396296142D02*
X478650828Y-396367571D01*
X478365114Y-396367571D01*
X478222257Y-396296142D01*
X478150828Y-396153285D01*
X478150828Y-395581857D01*
X478222257Y-395439000D01*
X478365114Y-395367571D01*
X478650828Y-395367571D01*
X478793685Y-395439000D01*
X478865114Y-395581857D01*
X478865114Y-395724714D01*
X478150828Y-395867571D01*
X479507971Y-396224714D02*
X479579400Y-396296142D01*
X479507971Y-396367571D01*
X479436542Y-396296142D01*
X479507971Y-396224714D01*
X479507971Y-396367571D01*
X479507971Y-395439000D02*
X479579400Y-395510428D01*
X479507971Y-395581857D01*
X479436542Y-395510428D01*
X479507971Y-395439000D01*
X479507971Y-395581857D01*
X481150828Y-394867571D02*
X482007971Y-394867571D01*
X481579400Y-396367571D02*
X481579400Y-394867571D01*
X482507971Y-396367571D02*
X482507971Y-394867571D01*
X483365114Y-396367571D02*
X482722257Y-395510428D01*
X483365114Y-394867571D02*
X482507971Y-395724714D01*
X484722257Y-396367571D02*
X484007971Y-396367571D01*
X484007971Y-394867571D01*
X485222257Y-395367571D02*
X485222257Y-396867571D01*
X485222257Y-395439000D02*
X485365114Y-395367571D01*
X485650828Y-395367571D01*
X485793685Y-395439000D01*
X485865114Y-395510428D01*
X485936542Y-395653285D01*
X485936542Y-396081857D01*
X485865114Y-396224714D01*
X485793685Y-396296142D01*
X485650828Y-396367571D01*
X485365114Y-396367571D01*
X485222257Y-396296142D01*
X487222257Y-396296142D02*
X487079400Y-396367571D01*
X486793685Y-396367571D01*
X486650828Y-396296142D01*
X486579400Y-396224714D01*
X486507971Y-396081857D01*
X486507971Y-395653285D01*
X486579400Y-395510428D01*
X486650828Y-395439000D01*
X486793685Y-395367571D01*
X487079400Y-395367571D01*
X487222257Y-395439000D01*
X487865114Y-396367571D02*
X487865114Y-394867571D01*
X487865114Y-395439000D02*
X488007971Y-395367571D01*
X488293685Y-395367571D01*
X488436542Y-395439000D01*
X488507971Y-395510428D01*
X488579400Y-395653285D01*
X488579400Y-396081857D01*
X488507971Y-396224714D01*
X488436542Y-396296142D01*
X488293685Y-396367571D01*
X488007971Y-396367571D01*
X487865114Y-396296142D01*
X489222257Y-396224714D02*
X489293685Y-396296142D01*
X489222257Y-396367571D01*
X489150828Y-396296142D01*
X489222257Y-396224714D01*
X489222257Y-396367571D01*
X489936542Y-396367571D02*
X489936542Y-394867571D01*
X490079400Y-395796142D02*
X490507971Y-396367571D01*
X490507971Y-395367571D02*
X489936542Y-395939000D01*
X491150828Y-396367571D02*
X491150828Y-395367571D01*
X491150828Y-394867571D02*
X491079400Y-394939000D01*
X491150828Y-395010428D01*
X491222257Y-394939000D01*
X491150828Y-394867571D01*
X491150828Y-395010428D01*
X492507971Y-396296142D02*
X492365114Y-396367571D01*
X492079400Y-396367571D01*
X491936542Y-396296142D01*
X491865114Y-396224714D01*
X491793685Y-396081857D01*
X491793685Y-395653285D01*
X491865114Y-395510428D01*
X491936542Y-395439000D01*
X492079400Y-395367571D01*
X492365114Y-395367571D01*
X492507971Y-395439000D01*
X493793685Y-396367571D02*
X493793685Y-395581857D01*
X493722257Y-395439000D01*
X493579400Y-395367571D01*
X493293685Y-395367571D01*
X493150828Y-395439000D01*
X493793685Y-396296142D02*
X493650828Y-396367571D01*
X493293685Y-396367571D01*
X493150828Y-396296142D01*
X493079400Y-396153285D01*
X493079400Y-396010428D01*
X493150828Y-395867571D01*
X493293685Y-395796142D01*
X493650828Y-395796142D01*
X493793685Y-395724714D01*
X495150828Y-396367571D02*
X495150828Y-394867571D01*
X495150828Y-396296142D02*
X495007971Y-396367571D01*
X494722257Y-396367571D01*
X494579400Y-396296142D01*
X494507971Y-396224714D01*
X494436542Y-396081857D01*
X494436542Y-395653285D01*
X494507971Y-395510428D01*
X494579400Y-395439000D01*
X494722257Y-395367571D01*
X495007971Y-395367571D01*
X495150828Y-395439000D01*
X495507971Y-396510428D02*
X496650828Y-396510428D01*
X497007971Y-395367571D02*
X497007971Y-396867571D01*
X497007971Y-395439000D02*
X497150828Y-395367571D01*
X497436542Y-395367571D01*
X497579400Y-395439000D01*
X497650828Y-395510428D01*
X497722257Y-395653285D01*
X497722257Y-396081857D01*
X497650828Y-396224714D01*
X497579400Y-396296142D01*
X497436542Y-396367571D01*
X497150828Y-396367571D01*
X497007971Y-396296142D01*
X499007971Y-396296142D02*
X498865114Y-396367571D01*
X498579400Y-396367571D01*
X498436542Y-396296142D01*
X498365114Y-396224714D01*
X498293685Y-396081857D01*
X498293685Y-395653285D01*
X498365114Y-395510428D01*
X498436542Y-395439000D01*
X498579400Y-395367571D01*
X498865114Y-395367571D01*
X499007971Y-395439000D01*
X499650828Y-396367571D02*
X499650828Y-394867571D01*
X499650828Y-395439000D02*
X499793685Y-395367571D01*
X500079400Y-395367571D01*
X500222257Y-395439000D01*
X500293685Y-395510428D01*
X500365114Y-395653285D01*
X500365114Y-396081857D01*
X500293685Y-396224714D01*
X500222257Y-396296142D01*
X500079400Y-396367571D01*
X499793685Y-396367571D01*
X499650828Y-396296142D01*
D10*
D11*
X474004400Y-391489000D02*
X582004400Y-391489000D01*
D10*
D11*
X475365114Y-393596142D02*
X475579400Y-393667571D01*
X475936542Y-393667571D01*
X476079400Y-393596142D01*
X476150828Y-393524714D01*
X476222257Y-393381857D01*
X476222257Y-393239000D01*
X476150828Y-393096142D01*
X476079400Y-393024714D01*
X475936542Y-392953285D01*
X475650828Y-392881857D01*
X475507971Y-392810428D01*
X475436542Y-392739000D01*
X475365114Y-392596142D01*
X475365114Y-392453285D01*
X475436542Y-392310428D01*
X475507971Y-392239000D01*
X475650828Y-392167571D01*
X476007971Y-392167571D01*
X476222257Y-392239000D01*
X476865114Y-393667571D02*
X476865114Y-392167571D01*
X477507971Y-393667571D02*
X477507971Y-392881857D01*
X477436542Y-392739000D01*
X477293685Y-392667571D01*
X477079400Y-392667571D01*
X476936542Y-392739000D01*
X476865114Y-392810428D01*
X478793685Y-393596142D02*
X478650828Y-393667571D01*
X478365114Y-393667571D01*
X478222257Y-393596142D01*
X478150828Y-393453285D01*
X478150828Y-392881857D01*
X478222257Y-392739000D01*
X478365114Y-392667571D01*
X478650828Y-392667571D01*
X478793685Y-392739000D01*
X478865114Y-392881857D01*
X478865114Y-393024714D01*
X478150828Y-393167571D01*
X480079400Y-393596142D02*
X479936542Y-393667571D01*
X479650828Y-393667571D01*
X479507971Y-393596142D01*
X479436542Y-393453285D01*
X479436542Y-392881857D01*
X479507971Y-392739000D01*
X479650828Y-392667571D01*
X479936542Y-392667571D01*
X480079400Y-392739000D01*
X480150828Y-392881857D01*
X480150828Y-393024714D01*
X479436542Y-393167571D01*
X480579400Y-392667571D02*
X481150828Y-392667571D01*
X480793685Y-392167571D02*
X480793685Y-393453285D01*
X480865114Y-393596142D01*
X481007971Y-393667571D01*
X481150828Y-393667571D01*
X481650828Y-393524714D02*
X481722257Y-393596142D01*
X481650828Y-393667571D01*
X481579400Y-393596142D01*
X481650828Y-393524714D01*
X481650828Y-393667571D01*
X481650828Y-392739000D02*
X481722257Y-392810428D01*
X481650828Y-392881857D01*
X481579400Y-392810428D01*
X481650828Y-392739000D01*
X481650828Y-392881857D01*
D10*
D11*
X494004400Y-401489000D02*
X494004400Y-404489000D01*
D10*
D11*
X558004400Y-401489000D02*
X558004400Y-407989000D01*
D14*
%TO.C,SW1*%
X374988000Y-116312000D02*
X377488000Y-116312000D01*
X373488000Y-118062000D02*
X373488000Y-120062000D01*
X374988000Y-121812000D02*
X377488000Y-121812000D01*
X378988000Y-118062000D02*
X378988000Y-120062000D01*
X374538000Y-116762000D02*
X374988000Y-116312000D01*
X377938000Y-116762000D02*
X377488000Y-116312000D01*
X377938000Y-121362000D02*
X377488000Y-121812000D01*
X374538000Y-121362000D02*
X374988000Y-121812000D01*
%TO.C,K86*%
X366871000Y-145097000D02*
X366871000Y-131127000D01*
X380841000Y-145097000D02*
X366871000Y-145097000D01*
X380841000Y-131127000D02*
X380841000Y-145097000D01*
X366871000Y-131127000D02*
X380841000Y-131127000D01*
%TO.C,K85*%
X347821000Y-145097000D02*
X347821000Y-131127000D01*
X361791000Y-145097000D02*
X347821000Y-145097000D01*
X361791000Y-131127000D02*
X361791000Y-145097000D01*
X347821000Y-131127000D02*
X361791000Y-131127000D01*
%TO.C,K84*%
X328771000Y-145097000D02*
X328771000Y-131127000D01*
X342741000Y-145097000D02*
X328771000Y-145097000D01*
X342741000Y-131127000D02*
X342741000Y-145097000D01*
X328771000Y-131127000D02*
X342741000Y-131127000D01*
%TO.C,K83*%
X300196000Y-145097000D02*
X300196000Y-131127000D01*
X314166000Y-145097000D02*
X300196000Y-145097000D01*
X314166000Y-131127000D02*
X314166000Y-145097000D01*
X300196000Y-131127000D02*
X314166000Y-131127000D01*
%TO.C,K82*%
X276384000Y-145097000D02*
X276384000Y-131127000D01*
X290354000Y-145097000D02*
X276384000Y-145097000D01*
X290354000Y-131127000D02*
X290354000Y-145097000D01*
X276384000Y-131127000D02*
X290354000Y-131127000D01*
%TO.C,K81*%
X252571000Y-145097000D02*
X252571000Y-131127000D01*
X266541000Y-145097000D02*
X252571000Y-145097000D01*
X266541000Y-131127000D02*
X266541000Y-145097000D01*
X252571000Y-131127000D02*
X266541000Y-131127000D01*
%TO.C,K79*%
X90646000Y-145097000D02*
X90646000Y-131127000D01*
X104616000Y-145097000D02*
X90646000Y-145097000D01*
X104616000Y-131127000D02*
X104616000Y-145097000D01*
X90646000Y-131127000D02*
X104616000Y-131127000D01*
%TO.C,K78*%
X66833800Y-145097000D02*
X66833800Y-131127000D01*
X80803800Y-145097000D02*
X66833800Y-145097000D01*
X80803800Y-131127000D02*
X80803800Y-145097000D01*
X66833800Y-131127000D02*
X80803800Y-131127000D01*
%TO.C,K77*%
X43021200Y-145097000D02*
X43021200Y-131127000D01*
X56991200Y-145097000D02*
X43021200Y-145097000D01*
X56991200Y-131127000D02*
X56991200Y-145097000D01*
X43021200Y-131127000D02*
X56991200Y-131127000D01*
%TO.C,K76*%
X347821000Y-126047000D02*
X347821000Y-112077000D01*
X361791000Y-126047000D02*
X347821000Y-126047000D01*
X361791000Y-112077000D02*
X361791000Y-126047000D01*
X347821000Y-112077000D02*
X361791000Y-112077000D01*
%TO.C,K75*%
X288290000Y-126047000D02*
X288290000Y-112077000D01*
X302260000Y-126047000D02*
X288290000Y-126047000D01*
X302260000Y-112077000D02*
X302260000Y-126047000D01*
X288290000Y-112077000D02*
X302260000Y-112077000D01*
%TO.C,K74*%
X252571000Y-126047000D02*
X252571000Y-112077000D01*
X266541000Y-126047000D02*
X252571000Y-126047000D01*
X266541000Y-112077000D02*
X266541000Y-126047000D01*
X252571000Y-112077000D02*
X266541000Y-112077000D01*
%TO.C,K73*%
X233521000Y-126047000D02*
X233521000Y-112077000D01*
X247491000Y-126047000D02*
X233521000Y-126047000D01*
X247491000Y-112077000D02*
X247491000Y-126047000D01*
X233521000Y-112077000D02*
X247491000Y-112077000D01*
%TO.C,K72*%
X214471000Y-126047000D02*
X214471000Y-112077000D01*
X228441000Y-126047000D02*
X214471000Y-126047000D01*
X228441000Y-112077000D02*
X228441000Y-126047000D01*
X214471000Y-112077000D02*
X228441000Y-112077000D01*
%TO.C,K71*%
X195421000Y-126047000D02*
X195421000Y-112077000D01*
X209391000Y-126047000D02*
X195421000Y-126047000D01*
X209391000Y-112077000D02*
X209391000Y-126047000D01*
X195421000Y-112077000D02*
X209391000Y-112077000D01*
%TO.C,K70*%
X176371000Y-126047000D02*
X176371000Y-112077000D01*
X190341000Y-126047000D02*
X176371000Y-126047000D01*
X190341000Y-112077000D02*
X190341000Y-126047000D01*
X176371000Y-112077000D02*
X190341000Y-112077000D01*
%TO.C,K69*%
X157321000Y-126047000D02*
X157321000Y-112077000D01*
X171291000Y-126047000D02*
X157321000Y-126047000D01*
X171291000Y-112077000D02*
X171291000Y-126047000D01*
X157321000Y-112077000D02*
X171291000Y-112077000D01*
%TO.C,K68*%
X138271000Y-126047000D02*
X138271000Y-112077000D01*
X152241000Y-126047000D02*
X138271000Y-126047000D01*
X152241000Y-112077000D02*
X152241000Y-126047000D01*
X138271000Y-112077000D02*
X152241000Y-112077000D01*
%TO.C,K67*%
X119221000Y-126047000D02*
X119221000Y-112077000D01*
X133191000Y-126047000D02*
X119221000Y-126047000D01*
X133191000Y-112077000D02*
X133191000Y-126047000D01*
X119221000Y-112077000D02*
X133191000Y-112077000D01*
%TO.C,K66*%
X100171000Y-126047000D02*
X100171000Y-112077000D01*
X114141000Y-126047000D02*
X100171000Y-126047000D01*
X114141000Y-112077000D02*
X114141000Y-126047000D01*
X100171000Y-112077000D02*
X114141000Y-112077000D01*
%TO.C,K65*%
X81121200Y-126047000D02*
X81121200Y-112077000D01*
X95091200Y-126047000D02*
X81121200Y-126047000D01*
X95091200Y-112077000D02*
X95091200Y-126047000D01*
X81121200Y-112077000D02*
X95091200Y-112077000D01*
%TO.C,K64*%
X50165000Y-126047000D02*
X50165000Y-112077000D01*
X64135000Y-126047000D02*
X50165000Y-126047000D01*
X64135000Y-112077000D02*
X64135000Y-126047000D01*
X50165000Y-112077000D02*
X64135000Y-112077000D01*
%TO.C,K63*%
X293053000Y-106997500D02*
X293053000Y-93027500D01*
X307023000Y-106997500D02*
X293053000Y-106997500D01*
X307023000Y-93027500D02*
X307023000Y-106997500D01*
X293053000Y-93027500D02*
X307023000Y-93027500D01*
%TO.C,K62*%
X262096000Y-106997500D02*
X262096000Y-93027500D01*
X276066000Y-106997500D02*
X262096000Y-106997500D01*
X276066000Y-93027500D02*
X276066000Y-106997500D01*
X262096000Y-93027500D02*
X276066000Y-93027500D01*
%TO.C,K61*%
X243046000Y-106997500D02*
X243046000Y-93027500D01*
X257016000Y-106997500D02*
X243046000Y-106997500D01*
X257016000Y-93027500D02*
X257016000Y-106997500D01*
X243046000Y-93027500D02*
X257016000Y-93027500D01*
%TO.C,K60*%
X223996000Y-106997500D02*
X223996000Y-93027500D01*
X237966000Y-106997500D02*
X223996000Y-106997500D01*
X237966000Y-93027500D02*
X237966000Y-106997500D01*
X223996000Y-93027500D02*
X237966000Y-93027500D01*
%TO.C,K59*%
X204946000Y-106997500D02*
X204946000Y-93027500D01*
X218916000Y-106997500D02*
X204946000Y-106997500D01*
X218916000Y-93027500D02*
X218916000Y-106997500D01*
X204946000Y-93027500D02*
X218916000Y-93027500D01*
%TO.C,K58*%
X185896000Y-106997500D02*
X185896000Y-93027500D01*
X199866000Y-106997500D02*
X185896000Y-106997500D01*
X199866000Y-93027500D02*
X199866000Y-106997500D01*
X185896000Y-93027500D02*
X199866000Y-93027500D01*
%TO.C,K57*%
X166846000Y-106997500D02*
X166846000Y-93027500D01*
X180816000Y-106997500D02*
X166846000Y-106997500D01*
X180816000Y-93027500D02*
X180816000Y-106997500D01*
X166846000Y-93027500D02*
X180816000Y-93027500D01*
%TO.C,K56*%
X147796000Y-106997500D02*
X147796000Y-93027500D01*
X161766000Y-106997500D02*
X147796000Y-106997500D01*
X161766000Y-93027500D02*
X161766000Y-106997500D01*
X147796000Y-93027500D02*
X161766000Y-93027500D01*
%TO.C,K55*%
X128746000Y-106997500D02*
X128746000Y-93027500D01*
X142716000Y-106997500D02*
X128746000Y-106997500D01*
X142716000Y-93027500D02*
X142716000Y-106997500D01*
X128746000Y-93027500D02*
X142716000Y-93027500D01*
%TO.C,K54*%
X109696000Y-106997500D02*
X109696000Y-93027500D01*
X123666000Y-106997500D02*
X109696000Y-106997500D01*
X123666000Y-93027500D02*
X123666000Y-106997500D01*
X109696000Y-93027500D02*
X123666000Y-93027500D01*
%TO.C,K53*%
X90646000Y-106997500D02*
X90646000Y-93027500D01*
X104616000Y-106997500D02*
X90646000Y-106997500D01*
X104616000Y-93027500D02*
X104616000Y-106997500D01*
X90646000Y-93027500D02*
X104616000Y-93027500D01*
%TO.C,K52*%
X71596200Y-106997500D02*
X71596200Y-93027500D01*
X85566200Y-106997500D02*
X71596200Y-106997500D01*
X85566200Y-93027500D02*
X85566200Y-106997500D01*
X71596200Y-93027500D02*
X85566200Y-93027500D01*
%TO.C,K51*%
X45402500Y-106997500D02*
X45402500Y-93027500D01*
X59372500Y-106997500D02*
X45402500Y-106997500D01*
X59372500Y-93027500D02*
X59372500Y-106997500D01*
X45402500Y-93027500D02*
X59372500Y-93027500D01*
%TO.C,K50*%
X366871000Y-87947500D02*
X366871000Y-73977500D01*
X380841000Y-87947500D02*
X366871000Y-87947500D01*
X380841000Y-73977500D02*
X380841000Y-87947500D01*
X366871000Y-73977500D02*
X380841000Y-73977500D01*
%TO.C,K49*%
X347821000Y-87947500D02*
X347821000Y-73977500D01*
X361791000Y-87947500D02*
X347821000Y-87947500D01*
X361791000Y-73977500D02*
X361791000Y-87947500D01*
X347821000Y-73977500D02*
X361791000Y-73977500D01*
%TO.C,K48*%
X328771000Y-87947500D02*
X328771000Y-73977500D01*
X342741000Y-87947500D02*
X328771000Y-87947500D01*
X342741000Y-73977500D02*
X342741000Y-87947500D01*
X328771000Y-73977500D02*
X342741000Y-73977500D01*
%TO.C,K47*%
X300196000Y-87947500D02*
X300196000Y-73977500D01*
X314166000Y-87947500D02*
X300196000Y-87947500D01*
X314166000Y-73977500D02*
X314166000Y-87947500D01*
X300196000Y-73977500D02*
X314166000Y-73977500D01*
%TO.C,K46*%
X276384000Y-87947500D02*
X276384000Y-73977500D01*
X290354000Y-87947500D02*
X276384000Y-87947500D01*
X290354000Y-73977500D02*
X290354000Y-87947500D01*
X276384000Y-73977500D02*
X290354000Y-73977500D01*
%TO.C,K45*%
X257334000Y-87947500D02*
X257334000Y-73977500D01*
X271304000Y-87947500D02*
X257334000Y-87947500D01*
X271304000Y-73977500D02*
X271304000Y-87947500D01*
X257334000Y-73977500D02*
X271304000Y-73977500D01*
%TO.C,K44*%
X238284000Y-87947500D02*
X238284000Y-73977500D01*
X252254000Y-87947500D02*
X238284000Y-87947500D01*
X252254000Y-73977500D02*
X252254000Y-87947500D01*
X238284000Y-73977500D02*
X252254000Y-73977500D01*
%TO.C,K43*%
X219234000Y-87947500D02*
X219234000Y-73977500D01*
X233204000Y-87947500D02*
X219234000Y-87947500D01*
X233204000Y-73977500D02*
X233204000Y-87947500D01*
X219234000Y-73977500D02*
X233204000Y-73977500D01*
%TO.C,K42*%
X200184000Y-87947500D02*
X200184000Y-73977500D01*
X214154000Y-87947500D02*
X200184000Y-87947500D01*
X214154000Y-73977500D02*
X214154000Y-87947500D01*
X200184000Y-73977500D02*
X214154000Y-73977500D01*
%TO.C,K41*%
X181134000Y-87947500D02*
X181134000Y-73977500D01*
X195104000Y-87947500D02*
X181134000Y-87947500D01*
X195104000Y-73977500D02*
X195104000Y-87947500D01*
X181134000Y-73977500D02*
X195104000Y-73977500D01*
%TO.C,K40*%
X162084000Y-87947500D02*
X162084000Y-73977500D01*
X176054000Y-87947500D02*
X162084000Y-87947500D01*
X176054000Y-73977500D02*
X176054000Y-87947500D01*
X162084000Y-73977500D02*
X176054000Y-73977500D01*
%TO.C,K39*%
X143034000Y-87947500D02*
X143034000Y-73977500D01*
X157004000Y-87947500D02*
X143034000Y-87947500D01*
X157004000Y-73977500D02*
X157004000Y-87947500D01*
X143034000Y-73977500D02*
X157004000Y-73977500D01*
%TO.C,K38*%
X123984000Y-87947500D02*
X123984000Y-73977500D01*
X137954000Y-87947500D02*
X123984000Y-87947500D01*
X137954000Y-73977500D02*
X137954000Y-87947500D01*
X123984000Y-73977500D02*
X137954000Y-73977500D01*
%TO.C,K37*%
X104934000Y-87947500D02*
X104934000Y-73977500D01*
X118904000Y-87947500D02*
X104934000Y-87947500D01*
X118904000Y-73977500D02*
X118904000Y-87947500D01*
X104934000Y-73977500D02*
X118904000Y-73977500D01*
%TO.C,K36*%
X85883800Y-87947500D02*
X85883800Y-73977500D01*
X99853800Y-87947500D02*
X85883800Y-87947500D01*
X99853800Y-73977500D02*
X99853800Y-87947500D01*
X85883800Y-73977500D02*
X99853800Y-73977500D01*
%TO.C,K35*%
X66833800Y-87947500D02*
X66833800Y-73977500D01*
X80803800Y-87947500D02*
X66833800Y-87947500D01*
X80803800Y-73977500D02*
X80803800Y-87947500D01*
X66833800Y-73977500D02*
X80803800Y-73977500D01*
%TO.C,K34*%
X43021200Y-87947500D02*
X43021200Y-73977500D01*
X56991200Y-87947500D02*
X43021200Y-87947500D01*
X56991200Y-73977500D02*
X56991200Y-87947500D01*
X43021200Y-73977500D02*
X56991200Y-73977500D01*
%TO.C,K33*%
X366871000Y-68897500D02*
X366871000Y-54927500D01*
X380841000Y-68897500D02*
X366871000Y-68897500D01*
X380841000Y-54927500D02*
X380841000Y-68897500D01*
X366871000Y-54927500D02*
X380841000Y-54927500D01*
%TO.C,K32*%
X347821000Y-68897500D02*
X347821000Y-54927500D01*
X361791000Y-68897500D02*
X347821000Y-68897500D01*
X361791000Y-54927500D02*
X361791000Y-68897500D01*
X347821000Y-54927500D02*
X361791000Y-54927500D01*
%TO.C,K31*%
X328771000Y-68897500D02*
X328771000Y-54927500D01*
X342741000Y-68897500D02*
X328771000Y-68897500D01*
X342741000Y-54927500D02*
X342741000Y-68897500D01*
X328771000Y-54927500D02*
X342741000Y-54927500D01*
%TO.C,K30*%
X295434000Y-68897500D02*
X295434000Y-54927500D01*
X309404000Y-68897500D02*
X295434000Y-68897500D01*
X309404000Y-54927500D02*
X309404000Y-68897500D01*
X295434000Y-54927500D02*
X309404000Y-54927500D01*
%TO.C,K29*%
X266859000Y-68897500D02*
X266859000Y-54927500D01*
X280829000Y-68897500D02*
X266859000Y-68897500D01*
X280829000Y-54927500D02*
X280829000Y-68897500D01*
X266859000Y-54927500D02*
X280829000Y-54927500D01*
%TO.C,K28*%
X247809000Y-68897500D02*
X247809000Y-54927500D01*
X261779000Y-68897500D02*
X247809000Y-68897500D01*
X261779000Y-54927500D02*
X261779000Y-68897500D01*
X247809000Y-54927500D02*
X261779000Y-54927500D01*
%TO.C,K27*%
X228759000Y-68897500D02*
X228759000Y-54927500D01*
X242729000Y-68897500D02*
X228759000Y-68897500D01*
X242729000Y-54927500D02*
X242729000Y-68897500D01*
X228759000Y-54927500D02*
X242729000Y-54927500D01*
%TO.C,K26*%
X209709000Y-68897500D02*
X209709000Y-54927500D01*
X223679000Y-68897500D02*
X209709000Y-68897500D01*
X223679000Y-54927500D02*
X223679000Y-68897500D01*
X209709000Y-54927500D02*
X223679000Y-54927500D01*
%TO.C,K25*%
X190659000Y-68897500D02*
X190659000Y-54927500D01*
X204629000Y-68897500D02*
X190659000Y-68897500D01*
X204629000Y-54927500D02*
X204629000Y-68897500D01*
X190659000Y-54927500D02*
X204629000Y-54927500D01*
%TO.C,K24*%
X171609000Y-68897500D02*
X171609000Y-54927500D01*
X185579000Y-68897500D02*
X171609000Y-68897500D01*
X185579000Y-54927500D02*
X185579000Y-68897500D01*
X171609000Y-54927500D02*
X185579000Y-54927500D01*
%TO.C,K23*%
X152559000Y-68897500D02*
X152559000Y-54927500D01*
X166529000Y-68897500D02*
X152559000Y-68897500D01*
X166529000Y-54927500D02*
X166529000Y-68897500D01*
X152559000Y-54927500D02*
X166529000Y-54927500D01*
%TO.C,K22*%
X133509000Y-68897500D02*
X133509000Y-54927500D01*
X147479000Y-68897500D02*
X133509000Y-68897500D01*
X147479000Y-54927500D02*
X147479000Y-68897500D01*
X133509000Y-54927500D02*
X147479000Y-54927500D01*
%TO.C,K21*%
X114459000Y-68897500D02*
X114459000Y-54927500D01*
X128429000Y-68897500D02*
X114459000Y-68897500D01*
X128429000Y-54927500D02*
X128429000Y-68897500D01*
X114459000Y-54927500D02*
X128429000Y-54927500D01*
%TO.C,K20*%
X95409000Y-68897500D02*
X95409000Y-54927500D01*
X109379000Y-68897500D02*
X95409000Y-68897500D01*
X109379000Y-54927500D02*
X109379000Y-68897500D01*
X95409000Y-54927500D02*
X109379000Y-54927500D01*
%TO.C,K19*%
X76358800Y-68897500D02*
X76358800Y-54927500D01*
X90328800Y-68897500D02*
X76358800Y-68897500D01*
X90328800Y-54927500D02*
X90328800Y-68897500D01*
X76358800Y-54927500D02*
X90328800Y-54927500D01*
%TO.C,K18*%
X57308800Y-68897500D02*
X57308800Y-54927500D01*
X71278800Y-68897500D02*
X57308800Y-68897500D01*
X71278800Y-54927500D02*
X71278800Y-68897500D01*
X57308800Y-54927500D02*
X71278800Y-54927500D01*
%TO.C,K17*%
X38258800Y-68897500D02*
X38258800Y-54927500D01*
X52228800Y-68897500D02*
X38258800Y-68897500D01*
X52228800Y-54927500D02*
X52228800Y-68897500D01*
X38258800Y-54927500D02*
X52228800Y-54927500D01*
%TO.C,K16*%
X366871000Y-45085000D02*
X366871000Y-31115000D01*
X380841000Y-45085000D02*
X366871000Y-45085000D01*
X380841000Y-31115000D02*
X380841000Y-45085000D01*
X366871000Y-31115000D02*
X380841000Y-31115000D01*
%TO.C,K15*%
X347821000Y-45085000D02*
X347821000Y-31115000D01*
X361791000Y-45085000D02*
X347821000Y-45085000D01*
X361791000Y-31115000D02*
X361791000Y-45085000D01*
X347821000Y-31115000D02*
X361791000Y-31115000D01*
%TO.C,K14*%
X328771000Y-45085000D02*
X328771000Y-31115000D01*
X342741000Y-45085000D02*
X328771000Y-45085000D01*
X342741000Y-31115000D02*
X342741000Y-45085000D01*
X328771000Y-31115000D02*
X342741000Y-31115000D01*
%TO.C,K13*%
X304959000Y-45085000D02*
X304959000Y-31115000D01*
X318929000Y-45085000D02*
X304959000Y-45085000D01*
X318929000Y-31115000D02*
X318929000Y-45085000D01*
X304959000Y-31115000D02*
X318929000Y-31115000D01*
%TO.C,K12*%
X285909000Y-45085000D02*
X285909000Y-31115000D01*
X299879000Y-45085000D02*
X285909000Y-45085000D01*
X299879000Y-31115000D02*
X299879000Y-45085000D01*
X285909000Y-31115000D02*
X299879000Y-31115000D01*
%TO.C,K11*%
X266859000Y-45085000D02*
X266859000Y-31115000D01*
X280829000Y-45085000D02*
X266859000Y-45085000D01*
X280829000Y-31115000D02*
X280829000Y-45085000D01*
X266859000Y-31115000D02*
X280829000Y-31115000D01*
%TO.C,K10*%
X247809000Y-45085000D02*
X247809000Y-31115000D01*
X261779000Y-45085000D02*
X247809000Y-45085000D01*
X261779000Y-31115000D02*
X261779000Y-45085000D01*
X247809000Y-31115000D02*
X261779000Y-31115000D01*
%TO.C,K9*%
X219234000Y-45085000D02*
X219234000Y-31115000D01*
X233204000Y-45085000D02*
X219234000Y-45085000D01*
X233204000Y-31115000D02*
X233204000Y-45085000D01*
X219234000Y-31115000D02*
X233204000Y-31115000D01*
%TO.C,K8*%
X200184000Y-45085000D02*
X200184000Y-31115000D01*
X214154000Y-45085000D02*
X200184000Y-45085000D01*
X214154000Y-31115000D02*
X214154000Y-45085000D01*
X200184000Y-31115000D02*
X214154000Y-31115000D01*
%TO.C,K7*%
X181134000Y-45085000D02*
X181134000Y-31115000D01*
X195104000Y-45085000D02*
X181134000Y-45085000D01*
X195104000Y-31115000D02*
X195104000Y-45085000D01*
X181134000Y-31115000D02*
X195104000Y-31115000D01*
%TO.C,K6*%
X162084000Y-45085000D02*
X162084000Y-31115000D01*
X176054000Y-45085000D02*
X162084000Y-45085000D01*
X176054000Y-31115000D02*
X176054000Y-45085000D01*
X162084000Y-31115000D02*
X176054000Y-31115000D01*
%TO.C,K5*%
X133509000Y-45085000D02*
X133509000Y-31115000D01*
X147479000Y-45085000D02*
X133509000Y-45085000D01*
X147479000Y-31115000D02*
X147479000Y-45085000D01*
X133509000Y-31115000D02*
X147479000Y-31115000D01*
%TO.C,K4*%
X114459000Y-45085000D02*
X114459000Y-31115000D01*
X128429000Y-45085000D02*
X114459000Y-45085000D01*
X128429000Y-31115000D02*
X128429000Y-45085000D01*
X114459000Y-31115000D02*
X128429000Y-31115000D01*
%TO.C,K3*%
X95409000Y-45085000D02*
X95409000Y-31115000D01*
X109379000Y-45085000D02*
X95409000Y-45085000D01*
X109379000Y-31115000D02*
X109379000Y-45085000D01*
X95409000Y-31115000D02*
X109379000Y-31115000D01*
%TO.C,K2*%
X76358800Y-45085000D02*
X76358800Y-31115000D01*
X90328800Y-45085000D02*
X76358800Y-45085000D01*
X90328800Y-31115000D02*
X90328800Y-45085000D01*
X76358800Y-31115000D02*
X90328800Y-31115000D01*
%TO.C,K1*%
X38258800Y-45085000D02*
X38258800Y-31115000D01*
X52228800Y-45085000D02*
X38258800Y-45085000D01*
X52228800Y-31115000D02*
X52228800Y-45085000D01*
X38258800Y-31115000D02*
X52228800Y-31115000D01*
D15*
%TO.C,J1*%
X215811000Y-26042500D02*
G75*
G03*
X215811000Y-26042500I-100000J0D01*
G01*
X207461000Y-22952500D02*
X207461000Y-21742500D01*
X216401000Y-22952500D02*
X216401000Y-21742500D01*
X207461000Y-17532500D02*
X207461000Y-19022500D01*
X216401000Y-17532500D02*
X207461000Y-17532500D01*
X216401000Y-19022500D02*
X216401000Y-17532500D01*
D14*
%TO.C,C5*%
X215984000Y-28313748D02*
X215984000Y-28836252D01*
X217404000Y-28313748D02*
X217404000Y-28836252D01*
%TO.C,C4*%
X213602000Y-28313748D02*
X213602000Y-28836252D01*
X215022000Y-28313748D02*
X215022000Y-28836252D01*
%TO.C,C3*%
X211221000Y-28313748D02*
X211221000Y-28836252D01*
X212641000Y-28313748D02*
X212641000Y-28836252D01*
%TO.C,C2*%
X208840000Y-28313748D02*
X208840000Y-28836252D01*
X210260000Y-28313748D02*
X210260000Y-28836252D01*
%TO.C,C1*%
X206459000Y-28313748D02*
X206459000Y-28836252D01*
X207879000Y-28313748D02*
X207879000Y-28836252D01*
%TO.C,SW1*%
D11*
X374904666Y-115716761D02*
X375047523Y-115764380D01*
X375285619Y-115764380D01*
X375380857Y-115716761D01*
X375428476Y-115669142D01*
X375476095Y-115573904D01*
X375476095Y-115478666D01*
X375428476Y-115383428D01*
X375380857Y-115335809D01*
X375285619Y-115288190D01*
X375095142Y-115240571D01*
X374999904Y-115192952D01*
X374952285Y-115145333D01*
X374904666Y-115050095D01*
X374904666Y-114954857D01*
X374952285Y-114859619D01*
X374999904Y-114812000D01*
X375095142Y-114764380D01*
X375333238Y-114764380D01*
X375476095Y-114812000D01*
X375809428Y-114764380D02*
X376047523Y-115764380D01*
X376238000Y-115050095D01*
X376428476Y-115764380D01*
X376666571Y-114764380D01*
X377571333Y-115764380D02*
X376999904Y-115764380D01*
X377285619Y-115764380D02*
X377285619Y-114764380D01*
X377190380Y-114907238D01*
X377095142Y-115002476D01*
X376999904Y-115050095D01*
%TO.C,K86*%
X372641714Y-130690380D02*
X372641714Y-129690380D01*
X373213142Y-130690380D02*
X372784571Y-130118952D01*
X373213142Y-129690380D02*
X372641714Y-130261809D01*
X373784571Y-130118952D02*
X373689333Y-130071333D01*
X373641714Y-130023714D01*
X373594095Y-129928476D01*
X373594095Y-129880857D01*
X373641714Y-129785619D01*
X373689333Y-129738000D01*
X373784571Y-129690380D01*
X373975047Y-129690380D01*
X374070285Y-129738000D01*
X374117904Y-129785619D01*
X374165523Y-129880857D01*
X374165523Y-129928476D01*
X374117904Y-130023714D01*
X374070285Y-130071333D01*
X373975047Y-130118952D01*
X373784571Y-130118952D01*
X373689333Y-130166571D01*
X373641714Y-130214190D01*
X373594095Y-130309428D01*
X373594095Y-130499904D01*
X373641714Y-130595142D01*
X373689333Y-130642761D01*
X373784571Y-130690380D01*
X373975047Y-130690380D01*
X374070285Y-130642761D01*
X374117904Y-130595142D01*
X374165523Y-130499904D01*
X374165523Y-130309428D01*
X374117904Y-130214190D01*
X374070285Y-130166571D01*
X373975047Y-130118952D01*
X375022666Y-129690380D02*
X374832190Y-129690380D01*
X374736952Y-129738000D01*
X374689333Y-129785619D01*
X374594095Y-129928476D01*
X374546476Y-130118952D01*
X374546476Y-130499904D01*
X374594095Y-130595142D01*
X374641714Y-130642761D01*
X374736952Y-130690380D01*
X374927428Y-130690380D01*
X375022666Y-130642761D01*
X375070285Y-130595142D01*
X375117904Y-130499904D01*
X375117904Y-130261809D01*
X375070285Y-130166571D01*
X375022666Y-130118952D01*
X374927428Y-130071333D01*
X374736952Y-130071333D01*
X374641714Y-130118952D01*
X374594095Y-130166571D01*
X374546476Y-130261809D01*
%TO.C,K85*%
X353591714Y-130690380D02*
X353591714Y-129690380D01*
X354163142Y-130690380D02*
X353734571Y-130118952D01*
X354163142Y-129690380D02*
X353591714Y-130261809D01*
X354734571Y-130118952D02*
X354639333Y-130071333D01*
X354591714Y-130023714D01*
X354544095Y-129928476D01*
X354544095Y-129880857D01*
X354591714Y-129785619D01*
X354639333Y-129738000D01*
X354734571Y-129690380D01*
X354925047Y-129690380D01*
X355020285Y-129738000D01*
X355067904Y-129785619D01*
X355115523Y-129880857D01*
X355115523Y-129928476D01*
X355067904Y-130023714D01*
X355020285Y-130071333D01*
X354925047Y-130118952D01*
X354734571Y-130118952D01*
X354639333Y-130166571D01*
X354591714Y-130214190D01*
X354544095Y-130309428D01*
X354544095Y-130499904D01*
X354591714Y-130595142D01*
X354639333Y-130642761D01*
X354734571Y-130690380D01*
X354925047Y-130690380D01*
X355020285Y-130642761D01*
X355067904Y-130595142D01*
X355115523Y-130499904D01*
X355115523Y-130309428D01*
X355067904Y-130214190D01*
X355020285Y-130166571D01*
X354925047Y-130118952D01*
X356020285Y-129690380D02*
X355544095Y-129690380D01*
X355496476Y-130166571D01*
X355544095Y-130118952D01*
X355639333Y-130071333D01*
X355877428Y-130071333D01*
X355972666Y-130118952D01*
X356020285Y-130166571D01*
X356067904Y-130261809D01*
X356067904Y-130499904D01*
X356020285Y-130595142D01*
X355972666Y-130642761D01*
X355877428Y-130690380D01*
X355639333Y-130690380D01*
X355544095Y-130642761D01*
X355496476Y-130595142D01*
%TO.C,K84*%
X334541714Y-130690380D02*
X334541714Y-129690380D01*
X335113142Y-130690380D02*
X334684571Y-130118952D01*
X335113142Y-129690380D02*
X334541714Y-130261809D01*
X335684571Y-130118952D02*
X335589333Y-130071333D01*
X335541714Y-130023714D01*
X335494095Y-129928476D01*
X335494095Y-129880857D01*
X335541714Y-129785619D01*
X335589333Y-129738000D01*
X335684571Y-129690380D01*
X335875047Y-129690380D01*
X335970285Y-129738000D01*
X336017904Y-129785619D01*
X336065523Y-129880857D01*
X336065523Y-129928476D01*
X336017904Y-130023714D01*
X335970285Y-130071333D01*
X335875047Y-130118952D01*
X335684571Y-130118952D01*
X335589333Y-130166571D01*
X335541714Y-130214190D01*
X335494095Y-130309428D01*
X335494095Y-130499904D01*
X335541714Y-130595142D01*
X335589333Y-130642761D01*
X335684571Y-130690380D01*
X335875047Y-130690380D01*
X335970285Y-130642761D01*
X336017904Y-130595142D01*
X336065523Y-130499904D01*
X336065523Y-130309428D01*
X336017904Y-130214190D01*
X335970285Y-130166571D01*
X335875047Y-130118952D01*
X336922666Y-130023714D02*
X336922666Y-130690380D01*
X336684571Y-129642761D02*
X336446476Y-130357047D01*
X337065523Y-130357047D01*
%TO.C,K83*%
X305966714Y-130690380D02*
X305966714Y-129690380D01*
X306538142Y-130690380D02*
X306109571Y-130118952D01*
X306538142Y-129690380D02*
X305966714Y-130261809D01*
X307109571Y-130118952D02*
X307014333Y-130071333D01*
X306966714Y-130023714D01*
X306919095Y-129928476D01*
X306919095Y-129880857D01*
X306966714Y-129785619D01*
X307014333Y-129738000D01*
X307109571Y-129690380D01*
X307300047Y-129690380D01*
X307395285Y-129738000D01*
X307442904Y-129785619D01*
X307490523Y-129880857D01*
X307490523Y-129928476D01*
X307442904Y-130023714D01*
X307395285Y-130071333D01*
X307300047Y-130118952D01*
X307109571Y-130118952D01*
X307014333Y-130166571D01*
X306966714Y-130214190D01*
X306919095Y-130309428D01*
X306919095Y-130499904D01*
X306966714Y-130595142D01*
X307014333Y-130642761D01*
X307109571Y-130690380D01*
X307300047Y-130690380D01*
X307395285Y-130642761D01*
X307442904Y-130595142D01*
X307490523Y-130499904D01*
X307490523Y-130309428D01*
X307442904Y-130214190D01*
X307395285Y-130166571D01*
X307300047Y-130118952D01*
X307823857Y-129690380D02*
X308442904Y-129690380D01*
X308109571Y-130071333D01*
X308252428Y-130071333D01*
X308347666Y-130118952D01*
X308395285Y-130166571D01*
X308442904Y-130261809D01*
X308442904Y-130499904D01*
X308395285Y-130595142D01*
X308347666Y-130642761D01*
X308252428Y-130690380D01*
X307966714Y-130690380D01*
X307871476Y-130642761D01*
X307823857Y-130595142D01*
%TO.C,K82*%
X282154714Y-130690380D02*
X282154714Y-129690380D01*
X282726142Y-130690380D02*
X282297571Y-130118952D01*
X282726142Y-129690380D02*
X282154714Y-130261809D01*
X283297571Y-130118952D02*
X283202333Y-130071333D01*
X283154714Y-130023714D01*
X283107095Y-129928476D01*
X283107095Y-129880857D01*
X283154714Y-129785619D01*
X283202333Y-129738000D01*
X283297571Y-129690380D01*
X283488047Y-129690380D01*
X283583285Y-129738000D01*
X283630904Y-129785619D01*
X283678523Y-129880857D01*
X283678523Y-129928476D01*
X283630904Y-130023714D01*
X283583285Y-130071333D01*
X283488047Y-130118952D01*
X283297571Y-130118952D01*
X283202333Y-130166571D01*
X283154714Y-130214190D01*
X283107095Y-130309428D01*
X283107095Y-130499904D01*
X283154714Y-130595142D01*
X283202333Y-130642761D01*
X283297571Y-130690380D01*
X283488047Y-130690380D01*
X283583285Y-130642761D01*
X283630904Y-130595142D01*
X283678523Y-130499904D01*
X283678523Y-130309428D01*
X283630904Y-130214190D01*
X283583285Y-130166571D01*
X283488047Y-130118952D01*
X284059476Y-129785619D02*
X284107095Y-129738000D01*
X284202333Y-129690380D01*
X284440428Y-129690380D01*
X284535666Y-129738000D01*
X284583285Y-129785619D01*
X284630904Y-129880857D01*
X284630904Y-129976095D01*
X284583285Y-130118952D01*
X284011857Y-130690380D01*
X284630904Y-130690380D01*
%TO.C,K81*%
X258341714Y-130690380D02*
X258341714Y-129690380D01*
X258913142Y-130690380D02*
X258484571Y-130118952D01*
X258913142Y-129690380D02*
X258341714Y-130261809D01*
X259484571Y-130118952D02*
X259389333Y-130071333D01*
X259341714Y-130023714D01*
X259294095Y-129928476D01*
X259294095Y-129880857D01*
X259341714Y-129785619D01*
X259389333Y-129738000D01*
X259484571Y-129690380D01*
X259675047Y-129690380D01*
X259770285Y-129738000D01*
X259817904Y-129785619D01*
X259865523Y-129880857D01*
X259865523Y-129928476D01*
X259817904Y-130023714D01*
X259770285Y-130071333D01*
X259675047Y-130118952D01*
X259484571Y-130118952D01*
X259389333Y-130166571D01*
X259341714Y-130214190D01*
X259294095Y-130309428D01*
X259294095Y-130499904D01*
X259341714Y-130595142D01*
X259389333Y-130642761D01*
X259484571Y-130690380D01*
X259675047Y-130690380D01*
X259770285Y-130642761D01*
X259817904Y-130595142D01*
X259865523Y-130499904D01*
X259865523Y-130309428D01*
X259817904Y-130214190D01*
X259770285Y-130166571D01*
X259675047Y-130118952D01*
X260817904Y-130690380D02*
X260246476Y-130690380D01*
X260532190Y-130690380D02*
X260532190Y-129690380D01*
X260436952Y-129833238D01*
X260341714Y-129928476D01*
X260246476Y-129976095D01*
%TO.C,K79*%
X96416714Y-130690380D02*
X96416714Y-129690380D01*
X96988142Y-130690380D02*
X96559571Y-130118952D01*
X96988142Y-129690380D02*
X96416714Y-130261809D01*
X97321476Y-129690380D02*
X97988142Y-129690380D01*
X97559571Y-130690380D01*
X98416714Y-130690380D02*
X98607190Y-130690380D01*
X98702428Y-130642761D01*
X98750047Y-130595142D01*
X98845285Y-130452285D01*
X98892904Y-130261809D01*
X98892904Y-129880857D01*
X98845285Y-129785619D01*
X98797666Y-129738000D01*
X98702428Y-129690380D01*
X98511952Y-129690380D01*
X98416714Y-129738000D01*
X98369095Y-129785619D01*
X98321476Y-129880857D01*
X98321476Y-130118952D01*
X98369095Y-130214190D01*
X98416714Y-130261809D01*
X98511952Y-130309428D01*
X98702428Y-130309428D01*
X98797666Y-130261809D01*
X98845285Y-130214190D01*
X98892904Y-130118952D01*
%TO.C,K78*%
X72604514Y-130690380D02*
X72604514Y-129690380D01*
X73175942Y-130690380D02*
X72747371Y-130118952D01*
X73175942Y-129690380D02*
X72604514Y-130261809D01*
X73509276Y-129690380D02*
X74175942Y-129690380D01*
X73747371Y-130690380D01*
X74699752Y-130118952D02*
X74604514Y-130071333D01*
X74556895Y-130023714D01*
X74509276Y-129928476D01*
X74509276Y-129880857D01*
X74556895Y-129785619D01*
X74604514Y-129738000D01*
X74699752Y-129690380D01*
X74890228Y-129690380D01*
X74985466Y-129738000D01*
X75033085Y-129785619D01*
X75080704Y-129880857D01*
X75080704Y-129928476D01*
X75033085Y-130023714D01*
X74985466Y-130071333D01*
X74890228Y-130118952D01*
X74699752Y-130118952D01*
X74604514Y-130166571D01*
X74556895Y-130214190D01*
X74509276Y-130309428D01*
X74509276Y-130499904D01*
X74556895Y-130595142D01*
X74604514Y-130642761D01*
X74699752Y-130690380D01*
X74890228Y-130690380D01*
X74985466Y-130642761D01*
X75033085Y-130595142D01*
X75080704Y-130499904D01*
X75080704Y-130309428D01*
X75033085Y-130214190D01*
X74985466Y-130166571D01*
X74890228Y-130118952D01*
%TO.C,K77*%
X48791914Y-130690380D02*
X48791914Y-129690380D01*
X49363342Y-130690380D02*
X48934771Y-130118952D01*
X49363342Y-129690380D02*
X48791914Y-130261809D01*
X49696676Y-129690380D02*
X50363342Y-129690380D01*
X49934771Y-130690380D01*
X50649057Y-129690380D02*
X51315723Y-129690380D01*
X50887152Y-130690380D01*
%TO.C,K76*%
X353591714Y-111640380D02*
X353591714Y-110640380D01*
X354163142Y-111640380D02*
X353734571Y-111068952D01*
X354163142Y-110640380D02*
X353591714Y-111211809D01*
X354496476Y-110640380D02*
X355163142Y-110640380D01*
X354734571Y-111640380D01*
X355972666Y-110640380D02*
X355782190Y-110640380D01*
X355686952Y-110688000D01*
X355639333Y-110735619D01*
X355544095Y-110878476D01*
X355496476Y-111068952D01*
X355496476Y-111449904D01*
X355544095Y-111545142D01*
X355591714Y-111592761D01*
X355686952Y-111640380D01*
X355877428Y-111640380D01*
X355972666Y-111592761D01*
X356020285Y-111545142D01*
X356067904Y-111449904D01*
X356067904Y-111211809D01*
X356020285Y-111116571D01*
X355972666Y-111068952D01*
X355877428Y-111021333D01*
X355686952Y-111021333D01*
X355591714Y-111068952D01*
X355544095Y-111116571D01*
X355496476Y-111211809D01*
%TO.C,K75*%
X294060714Y-111640380D02*
X294060714Y-110640380D01*
X294632142Y-111640380D02*
X294203571Y-111068952D01*
X294632142Y-110640380D02*
X294060714Y-111211809D01*
X294965476Y-110640380D02*
X295632142Y-110640380D01*
X295203571Y-111640380D01*
X296489285Y-110640380D02*
X296013095Y-110640380D01*
X295965476Y-111116571D01*
X296013095Y-111068952D01*
X296108333Y-111021333D01*
X296346428Y-111021333D01*
X296441666Y-111068952D01*
X296489285Y-111116571D01*
X296536904Y-111211809D01*
X296536904Y-111449904D01*
X296489285Y-111545142D01*
X296441666Y-111592761D01*
X296346428Y-111640380D01*
X296108333Y-111640380D01*
X296013095Y-111592761D01*
X295965476Y-111545142D01*
%TO.C,K74*%
X258341714Y-111640380D02*
X258341714Y-110640380D01*
X258913142Y-111640380D02*
X258484571Y-111068952D01*
X258913142Y-110640380D02*
X258341714Y-111211809D01*
X259246476Y-110640380D02*
X259913142Y-110640380D01*
X259484571Y-111640380D01*
X260722666Y-110973714D02*
X260722666Y-111640380D01*
X260484571Y-110592761D02*
X260246476Y-111307047D01*
X260865523Y-111307047D01*
%TO.C,K73*%
X239291714Y-111640380D02*
X239291714Y-110640380D01*
X239863142Y-111640380D02*
X239434571Y-111068952D01*
X239863142Y-110640380D02*
X239291714Y-111211809D01*
X240196476Y-110640380D02*
X240863142Y-110640380D01*
X240434571Y-111640380D01*
X241148857Y-110640380D02*
X241767904Y-110640380D01*
X241434571Y-111021333D01*
X241577428Y-111021333D01*
X241672666Y-111068952D01*
X241720285Y-111116571D01*
X241767904Y-111211809D01*
X241767904Y-111449904D01*
X241720285Y-111545142D01*
X241672666Y-111592761D01*
X241577428Y-111640380D01*
X241291714Y-111640380D01*
X241196476Y-111592761D01*
X241148857Y-111545142D01*
%TO.C,K72*%
X220241714Y-111640380D02*
X220241714Y-110640380D01*
X220813142Y-111640380D02*
X220384571Y-111068952D01*
X220813142Y-110640380D02*
X220241714Y-111211809D01*
X221146476Y-110640380D02*
X221813142Y-110640380D01*
X221384571Y-111640380D01*
X222146476Y-110735619D02*
X222194095Y-110688000D01*
X222289333Y-110640380D01*
X222527428Y-110640380D01*
X222622666Y-110688000D01*
X222670285Y-110735619D01*
X222717904Y-110830857D01*
X222717904Y-110926095D01*
X222670285Y-111068952D01*
X222098857Y-111640380D01*
X222717904Y-111640380D01*
%TO.C,K71*%
X201191714Y-111640380D02*
X201191714Y-110640380D01*
X201763142Y-111640380D02*
X201334571Y-111068952D01*
X201763142Y-110640380D02*
X201191714Y-111211809D01*
X202096476Y-110640380D02*
X202763142Y-110640380D01*
X202334571Y-111640380D01*
X203667904Y-111640380D02*
X203096476Y-111640380D01*
X203382190Y-111640380D02*
X203382190Y-110640380D01*
X203286952Y-110783238D01*
X203191714Y-110878476D01*
X203096476Y-110926095D01*
%TO.C,K70*%
X182141714Y-111640380D02*
X182141714Y-110640380D01*
X182713142Y-111640380D02*
X182284571Y-111068952D01*
X182713142Y-110640380D02*
X182141714Y-111211809D01*
X183046476Y-110640380D02*
X183713142Y-110640380D01*
X183284571Y-111640380D01*
X184284571Y-110640380D02*
X184379809Y-110640380D01*
X184475047Y-110688000D01*
X184522666Y-110735619D01*
X184570285Y-110830857D01*
X184617904Y-111021333D01*
X184617904Y-111259428D01*
X184570285Y-111449904D01*
X184522666Y-111545142D01*
X184475047Y-111592761D01*
X184379809Y-111640380D01*
X184284571Y-111640380D01*
X184189333Y-111592761D01*
X184141714Y-111545142D01*
X184094095Y-111449904D01*
X184046476Y-111259428D01*
X184046476Y-111021333D01*
X184094095Y-110830857D01*
X184141714Y-110735619D01*
X184189333Y-110688000D01*
X184284571Y-110640380D01*
%TO.C,K69*%
X163091714Y-111640380D02*
X163091714Y-110640380D01*
X163663142Y-111640380D02*
X163234571Y-111068952D01*
X163663142Y-110640380D02*
X163091714Y-111211809D01*
X164520285Y-110640380D02*
X164329809Y-110640380D01*
X164234571Y-110688000D01*
X164186952Y-110735619D01*
X164091714Y-110878476D01*
X164044095Y-111068952D01*
X164044095Y-111449904D01*
X164091714Y-111545142D01*
X164139333Y-111592761D01*
X164234571Y-111640380D01*
X164425047Y-111640380D01*
X164520285Y-111592761D01*
X164567904Y-111545142D01*
X164615523Y-111449904D01*
X164615523Y-111211809D01*
X164567904Y-111116571D01*
X164520285Y-111068952D01*
X164425047Y-111021333D01*
X164234571Y-111021333D01*
X164139333Y-111068952D01*
X164091714Y-111116571D01*
X164044095Y-111211809D01*
X165091714Y-111640380D02*
X165282190Y-111640380D01*
X165377428Y-111592761D01*
X165425047Y-111545142D01*
X165520285Y-111402285D01*
X165567904Y-111211809D01*
X165567904Y-110830857D01*
X165520285Y-110735619D01*
X165472666Y-110688000D01*
X165377428Y-110640380D01*
X165186952Y-110640380D01*
X165091714Y-110688000D01*
X165044095Y-110735619D01*
X164996476Y-110830857D01*
X164996476Y-111068952D01*
X165044095Y-111164190D01*
X165091714Y-111211809D01*
X165186952Y-111259428D01*
X165377428Y-111259428D01*
X165472666Y-111211809D01*
X165520285Y-111164190D01*
X165567904Y-111068952D01*
%TO.C,K68*%
X144041714Y-111640380D02*
X144041714Y-110640380D01*
X144613142Y-111640380D02*
X144184571Y-111068952D01*
X144613142Y-110640380D02*
X144041714Y-111211809D01*
X145470285Y-110640380D02*
X145279809Y-110640380D01*
X145184571Y-110688000D01*
X145136952Y-110735619D01*
X145041714Y-110878476D01*
X144994095Y-111068952D01*
X144994095Y-111449904D01*
X145041714Y-111545142D01*
X145089333Y-111592761D01*
X145184571Y-111640380D01*
X145375047Y-111640380D01*
X145470285Y-111592761D01*
X145517904Y-111545142D01*
X145565523Y-111449904D01*
X145565523Y-111211809D01*
X145517904Y-111116571D01*
X145470285Y-111068952D01*
X145375047Y-111021333D01*
X145184571Y-111021333D01*
X145089333Y-111068952D01*
X145041714Y-111116571D01*
X144994095Y-111211809D01*
X146136952Y-111068952D02*
X146041714Y-111021333D01*
X145994095Y-110973714D01*
X145946476Y-110878476D01*
X145946476Y-110830857D01*
X145994095Y-110735619D01*
X146041714Y-110688000D01*
X146136952Y-110640380D01*
X146327428Y-110640380D01*
X146422666Y-110688000D01*
X146470285Y-110735619D01*
X146517904Y-110830857D01*
X146517904Y-110878476D01*
X146470285Y-110973714D01*
X146422666Y-111021333D01*
X146327428Y-111068952D01*
X146136952Y-111068952D01*
X146041714Y-111116571D01*
X145994095Y-111164190D01*
X145946476Y-111259428D01*
X145946476Y-111449904D01*
X145994095Y-111545142D01*
X146041714Y-111592761D01*
X146136952Y-111640380D01*
X146327428Y-111640380D01*
X146422666Y-111592761D01*
X146470285Y-111545142D01*
X146517904Y-111449904D01*
X146517904Y-111259428D01*
X146470285Y-111164190D01*
X146422666Y-111116571D01*
X146327428Y-111068952D01*
%TO.C,K67*%
X124991714Y-111640380D02*
X124991714Y-110640380D01*
X125563142Y-111640380D02*
X125134571Y-111068952D01*
X125563142Y-110640380D02*
X124991714Y-111211809D01*
X126420285Y-110640380D02*
X126229809Y-110640380D01*
X126134571Y-110688000D01*
X126086952Y-110735619D01*
X125991714Y-110878476D01*
X125944095Y-111068952D01*
X125944095Y-111449904D01*
X125991714Y-111545142D01*
X126039333Y-111592761D01*
X126134571Y-111640380D01*
X126325047Y-111640380D01*
X126420285Y-111592761D01*
X126467904Y-111545142D01*
X126515523Y-111449904D01*
X126515523Y-111211809D01*
X126467904Y-111116571D01*
X126420285Y-111068952D01*
X126325047Y-111021333D01*
X126134571Y-111021333D01*
X126039333Y-111068952D01*
X125991714Y-111116571D01*
X125944095Y-111211809D01*
X126848857Y-110640380D02*
X127515523Y-110640380D01*
X127086952Y-111640380D01*
%TO.C,K66*%
X105941714Y-111640380D02*
X105941714Y-110640380D01*
X106513142Y-111640380D02*
X106084571Y-111068952D01*
X106513142Y-110640380D02*
X105941714Y-111211809D01*
X107370285Y-110640380D02*
X107179809Y-110640380D01*
X107084571Y-110688000D01*
X107036952Y-110735619D01*
X106941714Y-110878476D01*
X106894095Y-111068952D01*
X106894095Y-111449904D01*
X106941714Y-111545142D01*
X106989333Y-111592761D01*
X107084571Y-111640380D01*
X107275047Y-111640380D01*
X107370285Y-111592761D01*
X107417904Y-111545142D01*
X107465523Y-111449904D01*
X107465523Y-111211809D01*
X107417904Y-111116571D01*
X107370285Y-111068952D01*
X107275047Y-111021333D01*
X107084571Y-111021333D01*
X106989333Y-111068952D01*
X106941714Y-111116571D01*
X106894095Y-111211809D01*
X108322666Y-110640380D02*
X108132190Y-110640380D01*
X108036952Y-110688000D01*
X107989333Y-110735619D01*
X107894095Y-110878476D01*
X107846476Y-111068952D01*
X107846476Y-111449904D01*
X107894095Y-111545142D01*
X107941714Y-111592761D01*
X108036952Y-111640380D01*
X108227428Y-111640380D01*
X108322666Y-111592761D01*
X108370285Y-111545142D01*
X108417904Y-111449904D01*
X108417904Y-111211809D01*
X108370285Y-111116571D01*
X108322666Y-111068952D01*
X108227428Y-111021333D01*
X108036952Y-111021333D01*
X107941714Y-111068952D01*
X107894095Y-111116571D01*
X107846476Y-111211809D01*
%TO.C,K65*%
X86891914Y-111640380D02*
X86891914Y-110640380D01*
X87463342Y-111640380D02*
X87034771Y-111068952D01*
X87463342Y-110640380D02*
X86891914Y-111211809D01*
X88320485Y-110640380D02*
X88130009Y-110640380D01*
X88034771Y-110688000D01*
X87987152Y-110735619D01*
X87891914Y-110878476D01*
X87844295Y-111068952D01*
X87844295Y-111449904D01*
X87891914Y-111545142D01*
X87939533Y-111592761D01*
X88034771Y-111640380D01*
X88225247Y-111640380D01*
X88320485Y-111592761D01*
X88368104Y-111545142D01*
X88415723Y-111449904D01*
X88415723Y-111211809D01*
X88368104Y-111116571D01*
X88320485Y-111068952D01*
X88225247Y-111021333D01*
X88034771Y-111021333D01*
X87939533Y-111068952D01*
X87891914Y-111116571D01*
X87844295Y-111211809D01*
X89320485Y-110640380D02*
X88844295Y-110640380D01*
X88796676Y-111116571D01*
X88844295Y-111068952D01*
X88939533Y-111021333D01*
X89177628Y-111021333D01*
X89272866Y-111068952D01*
X89320485Y-111116571D01*
X89368104Y-111211809D01*
X89368104Y-111449904D01*
X89320485Y-111545142D01*
X89272866Y-111592761D01*
X89177628Y-111640380D01*
X88939533Y-111640380D01*
X88844295Y-111592761D01*
X88796676Y-111545142D01*
%TO.C,K64*%
X55935714Y-111640380D02*
X55935714Y-110640380D01*
X56507142Y-111640380D02*
X56078571Y-111068952D01*
X56507142Y-110640380D02*
X55935714Y-111211809D01*
X57364285Y-110640380D02*
X57173809Y-110640380D01*
X57078571Y-110688000D01*
X57030952Y-110735619D01*
X56935714Y-110878476D01*
X56888095Y-111068952D01*
X56888095Y-111449904D01*
X56935714Y-111545142D01*
X56983333Y-111592761D01*
X57078571Y-111640380D01*
X57269047Y-111640380D01*
X57364285Y-111592761D01*
X57411904Y-111545142D01*
X57459523Y-111449904D01*
X57459523Y-111211809D01*
X57411904Y-111116571D01*
X57364285Y-111068952D01*
X57269047Y-111021333D01*
X57078571Y-111021333D01*
X56983333Y-111068952D01*
X56935714Y-111116571D01*
X56888095Y-111211809D01*
X58316666Y-110973714D02*
X58316666Y-111640380D01*
X58078571Y-110592761D02*
X57840476Y-111307047D01*
X58459523Y-111307047D01*
%TO.C,K63*%
X298823714Y-92590880D02*
X298823714Y-91590880D01*
X299395142Y-92590880D02*
X298966571Y-92019452D01*
X299395142Y-91590880D02*
X298823714Y-92162309D01*
X300252285Y-91590880D02*
X300061809Y-91590880D01*
X299966571Y-91638500D01*
X299918952Y-91686119D01*
X299823714Y-91828976D01*
X299776095Y-92019452D01*
X299776095Y-92400404D01*
X299823714Y-92495642D01*
X299871333Y-92543261D01*
X299966571Y-92590880D01*
X300157047Y-92590880D01*
X300252285Y-92543261D01*
X300299904Y-92495642D01*
X300347523Y-92400404D01*
X300347523Y-92162309D01*
X300299904Y-92067071D01*
X300252285Y-92019452D01*
X300157047Y-91971833D01*
X299966571Y-91971833D01*
X299871333Y-92019452D01*
X299823714Y-92067071D01*
X299776095Y-92162309D01*
X300680857Y-91590880D02*
X301299904Y-91590880D01*
X300966571Y-91971833D01*
X301109428Y-91971833D01*
X301204666Y-92019452D01*
X301252285Y-92067071D01*
X301299904Y-92162309D01*
X301299904Y-92400404D01*
X301252285Y-92495642D01*
X301204666Y-92543261D01*
X301109428Y-92590880D01*
X300823714Y-92590880D01*
X300728476Y-92543261D01*
X300680857Y-92495642D01*
%TO.C,K62*%
X267866714Y-92590880D02*
X267866714Y-91590880D01*
X268438142Y-92590880D02*
X268009571Y-92019452D01*
X268438142Y-91590880D02*
X267866714Y-92162309D01*
X269295285Y-91590880D02*
X269104809Y-91590880D01*
X269009571Y-91638500D01*
X268961952Y-91686119D01*
X268866714Y-91828976D01*
X268819095Y-92019452D01*
X268819095Y-92400404D01*
X268866714Y-92495642D01*
X268914333Y-92543261D01*
X269009571Y-92590880D01*
X269200047Y-92590880D01*
X269295285Y-92543261D01*
X269342904Y-92495642D01*
X269390523Y-92400404D01*
X269390523Y-92162309D01*
X269342904Y-92067071D01*
X269295285Y-92019452D01*
X269200047Y-91971833D01*
X269009571Y-91971833D01*
X268914333Y-92019452D01*
X268866714Y-92067071D01*
X268819095Y-92162309D01*
X269771476Y-91686119D02*
X269819095Y-91638500D01*
X269914333Y-91590880D01*
X270152428Y-91590880D01*
X270247666Y-91638500D01*
X270295285Y-91686119D01*
X270342904Y-91781357D01*
X270342904Y-91876595D01*
X270295285Y-92019452D01*
X269723857Y-92590880D01*
X270342904Y-92590880D01*
%TO.C,K61*%
X248816714Y-92590880D02*
X248816714Y-91590880D01*
X249388142Y-92590880D02*
X248959571Y-92019452D01*
X249388142Y-91590880D02*
X248816714Y-92162309D01*
X250245285Y-91590880D02*
X250054809Y-91590880D01*
X249959571Y-91638500D01*
X249911952Y-91686119D01*
X249816714Y-91828976D01*
X249769095Y-92019452D01*
X249769095Y-92400404D01*
X249816714Y-92495642D01*
X249864333Y-92543261D01*
X249959571Y-92590880D01*
X250150047Y-92590880D01*
X250245285Y-92543261D01*
X250292904Y-92495642D01*
X250340523Y-92400404D01*
X250340523Y-92162309D01*
X250292904Y-92067071D01*
X250245285Y-92019452D01*
X250150047Y-91971833D01*
X249959571Y-91971833D01*
X249864333Y-92019452D01*
X249816714Y-92067071D01*
X249769095Y-92162309D01*
X251292904Y-92590880D02*
X250721476Y-92590880D01*
X251007190Y-92590880D02*
X251007190Y-91590880D01*
X250911952Y-91733738D01*
X250816714Y-91828976D01*
X250721476Y-91876595D01*
%TO.C,K60*%
X229766714Y-92590880D02*
X229766714Y-91590880D01*
X230338142Y-92590880D02*
X229909571Y-92019452D01*
X230338142Y-91590880D02*
X229766714Y-92162309D01*
X231195285Y-91590880D02*
X231004809Y-91590880D01*
X230909571Y-91638500D01*
X230861952Y-91686119D01*
X230766714Y-91828976D01*
X230719095Y-92019452D01*
X230719095Y-92400404D01*
X230766714Y-92495642D01*
X230814333Y-92543261D01*
X230909571Y-92590880D01*
X231100047Y-92590880D01*
X231195285Y-92543261D01*
X231242904Y-92495642D01*
X231290523Y-92400404D01*
X231290523Y-92162309D01*
X231242904Y-92067071D01*
X231195285Y-92019452D01*
X231100047Y-91971833D01*
X230909571Y-91971833D01*
X230814333Y-92019452D01*
X230766714Y-92067071D01*
X230719095Y-92162309D01*
X231909571Y-91590880D02*
X232004809Y-91590880D01*
X232100047Y-91638500D01*
X232147666Y-91686119D01*
X232195285Y-91781357D01*
X232242904Y-91971833D01*
X232242904Y-92209928D01*
X232195285Y-92400404D01*
X232147666Y-92495642D01*
X232100047Y-92543261D01*
X232004809Y-92590880D01*
X231909571Y-92590880D01*
X231814333Y-92543261D01*
X231766714Y-92495642D01*
X231719095Y-92400404D01*
X231671476Y-92209928D01*
X231671476Y-91971833D01*
X231719095Y-91781357D01*
X231766714Y-91686119D01*
X231814333Y-91638500D01*
X231909571Y-91590880D01*
%TO.C,K59*%
X210716714Y-92590880D02*
X210716714Y-91590880D01*
X211288142Y-92590880D02*
X210859571Y-92019452D01*
X211288142Y-91590880D02*
X210716714Y-92162309D01*
X212192904Y-91590880D02*
X211716714Y-91590880D01*
X211669095Y-92067071D01*
X211716714Y-92019452D01*
X211811952Y-91971833D01*
X212050047Y-91971833D01*
X212145285Y-92019452D01*
X212192904Y-92067071D01*
X212240523Y-92162309D01*
X212240523Y-92400404D01*
X212192904Y-92495642D01*
X212145285Y-92543261D01*
X212050047Y-92590880D01*
X211811952Y-92590880D01*
X211716714Y-92543261D01*
X211669095Y-92495642D01*
X212716714Y-92590880D02*
X212907190Y-92590880D01*
X213002428Y-92543261D01*
X213050047Y-92495642D01*
X213145285Y-92352785D01*
X213192904Y-92162309D01*
X213192904Y-91781357D01*
X213145285Y-91686119D01*
X213097666Y-91638500D01*
X213002428Y-91590880D01*
X212811952Y-91590880D01*
X212716714Y-91638500D01*
X212669095Y-91686119D01*
X212621476Y-91781357D01*
X212621476Y-92019452D01*
X212669095Y-92114690D01*
X212716714Y-92162309D01*
X212811952Y-92209928D01*
X213002428Y-92209928D01*
X213097666Y-92162309D01*
X213145285Y-92114690D01*
X213192904Y-92019452D01*
%TO.C,K58*%
X191666714Y-92590880D02*
X191666714Y-91590880D01*
X192238142Y-92590880D02*
X191809571Y-92019452D01*
X192238142Y-91590880D02*
X191666714Y-92162309D01*
X193142904Y-91590880D02*
X192666714Y-91590880D01*
X192619095Y-92067071D01*
X192666714Y-92019452D01*
X192761952Y-91971833D01*
X193000047Y-91971833D01*
X193095285Y-92019452D01*
X193142904Y-92067071D01*
X193190523Y-92162309D01*
X193190523Y-92400404D01*
X193142904Y-92495642D01*
X193095285Y-92543261D01*
X193000047Y-92590880D01*
X192761952Y-92590880D01*
X192666714Y-92543261D01*
X192619095Y-92495642D01*
X193761952Y-92019452D02*
X193666714Y-91971833D01*
X193619095Y-91924214D01*
X193571476Y-91828976D01*
X193571476Y-91781357D01*
X193619095Y-91686119D01*
X193666714Y-91638500D01*
X193761952Y-91590880D01*
X193952428Y-91590880D01*
X194047666Y-91638500D01*
X194095285Y-91686119D01*
X194142904Y-91781357D01*
X194142904Y-91828976D01*
X194095285Y-91924214D01*
X194047666Y-91971833D01*
X193952428Y-92019452D01*
X193761952Y-92019452D01*
X193666714Y-92067071D01*
X193619095Y-92114690D01*
X193571476Y-92209928D01*
X193571476Y-92400404D01*
X193619095Y-92495642D01*
X193666714Y-92543261D01*
X193761952Y-92590880D01*
X193952428Y-92590880D01*
X194047666Y-92543261D01*
X194095285Y-92495642D01*
X194142904Y-92400404D01*
X194142904Y-92209928D01*
X194095285Y-92114690D01*
X194047666Y-92067071D01*
X193952428Y-92019452D01*
%TO.C,K57*%
X172616714Y-92590880D02*
X172616714Y-91590880D01*
X173188142Y-92590880D02*
X172759571Y-92019452D01*
X173188142Y-91590880D02*
X172616714Y-92162309D01*
X174092904Y-91590880D02*
X173616714Y-91590880D01*
X173569095Y-92067071D01*
X173616714Y-92019452D01*
X173711952Y-91971833D01*
X173950047Y-91971833D01*
X174045285Y-92019452D01*
X174092904Y-92067071D01*
X174140523Y-92162309D01*
X174140523Y-92400404D01*
X174092904Y-92495642D01*
X174045285Y-92543261D01*
X173950047Y-92590880D01*
X173711952Y-92590880D01*
X173616714Y-92543261D01*
X173569095Y-92495642D01*
X174473857Y-91590880D02*
X175140523Y-91590880D01*
X174711952Y-92590880D01*
%TO.C,K56*%
X153566714Y-92590880D02*
X153566714Y-91590880D01*
X154138142Y-92590880D02*
X153709571Y-92019452D01*
X154138142Y-91590880D02*
X153566714Y-92162309D01*
X155042904Y-91590880D02*
X154566714Y-91590880D01*
X154519095Y-92067071D01*
X154566714Y-92019452D01*
X154661952Y-91971833D01*
X154900047Y-91971833D01*
X154995285Y-92019452D01*
X155042904Y-92067071D01*
X155090523Y-92162309D01*
X155090523Y-92400404D01*
X155042904Y-92495642D01*
X154995285Y-92543261D01*
X154900047Y-92590880D01*
X154661952Y-92590880D01*
X154566714Y-92543261D01*
X154519095Y-92495642D01*
X155947666Y-91590880D02*
X155757190Y-91590880D01*
X155661952Y-91638500D01*
X155614333Y-91686119D01*
X155519095Y-91828976D01*
X155471476Y-92019452D01*
X155471476Y-92400404D01*
X155519095Y-92495642D01*
X155566714Y-92543261D01*
X155661952Y-92590880D01*
X155852428Y-92590880D01*
X155947666Y-92543261D01*
X155995285Y-92495642D01*
X156042904Y-92400404D01*
X156042904Y-92162309D01*
X155995285Y-92067071D01*
X155947666Y-92019452D01*
X155852428Y-91971833D01*
X155661952Y-91971833D01*
X155566714Y-92019452D01*
X155519095Y-92067071D01*
X155471476Y-92162309D01*
%TO.C,K55*%
X134516714Y-92590880D02*
X134516714Y-91590880D01*
X135088142Y-92590880D02*
X134659571Y-92019452D01*
X135088142Y-91590880D02*
X134516714Y-92162309D01*
X135992904Y-91590880D02*
X135516714Y-91590880D01*
X135469095Y-92067071D01*
X135516714Y-92019452D01*
X135611952Y-91971833D01*
X135850047Y-91971833D01*
X135945285Y-92019452D01*
X135992904Y-92067071D01*
X136040523Y-92162309D01*
X136040523Y-92400404D01*
X135992904Y-92495642D01*
X135945285Y-92543261D01*
X135850047Y-92590880D01*
X135611952Y-92590880D01*
X135516714Y-92543261D01*
X135469095Y-92495642D01*
X136945285Y-91590880D02*
X136469095Y-91590880D01*
X136421476Y-92067071D01*
X136469095Y-92019452D01*
X136564333Y-91971833D01*
X136802428Y-91971833D01*
X136897666Y-92019452D01*
X136945285Y-92067071D01*
X136992904Y-92162309D01*
X136992904Y-92400404D01*
X136945285Y-92495642D01*
X136897666Y-92543261D01*
X136802428Y-92590880D01*
X136564333Y-92590880D01*
X136469095Y-92543261D01*
X136421476Y-92495642D01*
%TO.C,K54*%
X115466714Y-92590880D02*
X115466714Y-91590880D01*
X116038142Y-92590880D02*
X115609571Y-92019452D01*
X116038142Y-91590880D02*
X115466714Y-92162309D01*
X116942904Y-91590880D02*
X116466714Y-91590880D01*
X116419095Y-92067071D01*
X116466714Y-92019452D01*
X116561952Y-91971833D01*
X116800047Y-91971833D01*
X116895285Y-92019452D01*
X116942904Y-92067071D01*
X116990523Y-92162309D01*
X116990523Y-92400404D01*
X116942904Y-92495642D01*
X116895285Y-92543261D01*
X116800047Y-92590880D01*
X116561952Y-92590880D01*
X116466714Y-92543261D01*
X116419095Y-92495642D01*
X117847666Y-91924214D02*
X117847666Y-92590880D01*
X117609571Y-91543261D02*
X117371476Y-92257547D01*
X117990523Y-92257547D01*
%TO.C,K53*%
X96416714Y-92590880D02*
X96416714Y-91590880D01*
X96988142Y-92590880D02*
X96559571Y-92019452D01*
X96988142Y-91590880D02*
X96416714Y-92162309D01*
X97892904Y-91590880D02*
X97416714Y-91590880D01*
X97369095Y-92067071D01*
X97416714Y-92019452D01*
X97511952Y-91971833D01*
X97750047Y-91971833D01*
X97845285Y-92019452D01*
X97892904Y-92067071D01*
X97940523Y-92162309D01*
X97940523Y-92400404D01*
X97892904Y-92495642D01*
X97845285Y-92543261D01*
X97750047Y-92590880D01*
X97511952Y-92590880D01*
X97416714Y-92543261D01*
X97369095Y-92495642D01*
X98273857Y-91590880D02*
X98892904Y-91590880D01*
X98559571Y-91971833D01*
X98702428Y-91971833D01*
X98797666Y-92019452D01*
X98845285Y-92067071D01*
X98892904Y-92162309D01*
X98892904Y-92400404D01*
X98845285Y-92495642D01*
X98797666Y-92543261D01*
X98702428Y-92590880D01*
X98416714Y-92590880D01*
X98321476Y-92543261D01*
X98273857Y-92495642D01*
%TO.C,K52*%
X77366914Y-92590880D02*
X77366914Y-91590880D01*
X77938342Y-92590880D02*
X77509771Y-92019452D01*
X77938342Y-91590880D02*
X77366914Y-92162309D01*
X78843104Y-91590880D02*
X78366914Y-91590880D01*
X78319295Y-92067071D01*
X78366914Y-92019452D01*
X78462152Y-91971833D01*
X78700247Y-91971833D01*
X78795485Y-92019452D01*
X78843104Y-92067071D01*
X78890723Y-92162309D01*
X78890723Y-92400404D01*
X78843104Y-92495642D01*
X78795485Y-92543261D01*
X78700247Y-92590880D01*
X78462152Y-92590880D01*
X78366914Y-92543261D01*
X78319295Y-92495642D01*
X79271676Y-91686119D02*
X79319295Y-91638500D01*
X79414533Y-91590880D01*
X79652628Y-91590880D01*
X79747866Y-91638500D01*
X79795485Y-91686119D01*
X79843104Y-91781357D01*
X79843104Y-91876595D01*
X79795485Y-92019452D01*
X79224057Y-92590880D01*
X79843104Y-92590880D01*
%TO.C,K51*%
X51173214Y-92590880D02*
X51173214Y-91590880D01*
X51744642Y-92590880D02*
X51316071Y-92019452D01*
X51744642Y-91590880D02*
X51173214Y-92162309D01*
X52649404Y-91590880D02*
X52173214Y-91590880D01*
X52125595Y-92067071D01*
X52173214Y-92019452D01*
X52268452Y-91971833D01*
X52506547Y-91971833D01*
X52601785Y-92019452D01*
X52649404Y-92067071D01*
X52697023Y-92162309D01*
X52697023Y-92400404D01*
X52649404Y-92495642D01*
X52601785Y-92543261D01*
X52506547Y-92590880D01*
X52268452Y-92590880D01*
X52173214Y-92543261D01*
X52125595Y-92495642D01*
X53649404Y-92590880D02*
X53077976Y-92590880D01*
X53363690Y-92590880D02*
X53363690Y-91590880D01*
X53268452Y-91733738D01*
X53173214Y-91828976D01*
X53077976Y-91876595D01*
%TO.C,K50*%
X372641714Y-73540880D02*
X372641714Y-72540880D01*
X373213142Y-73540880D02*
X372784571Y-72969452D01*
X373213142Y-72540880D02*
X372641714Y-73112309D01*
X374117904Y-72540880D02*
X373641714Y-72540880D01*
X373594095Y-73017071D01*
X373641714Y-72969452D01*
X373736952Y-72921833D01*
X373975047Y-72921833D01*
X374070285Y-72969452D01*
X374117904Y-73017071D01*
X374165523Y-73112309D01*
X374165523Y-73350404D01*
X374117904Y-73445642D01*
X374070285Y-73493261D01*
X373975047Y-73540880D01*
X373736952Y-73540880D01*
X373641714Y-73493261D01*
X373594095Y-73445642D01*
X374784571Y-72540880D02*
X374879809Y-72540880D01*
X374975047Y-72588500D01*
X375022666Y-72636119D01*
X375070285Y-72731357D01*
X375117904Y-72921833D01*
X375117904Y-73159928D01*
X375070285Y-73350404D01*
X375022666Y-73445642D01*
X374975047Y-73493261D01*
X374879809Y-73540880D01*
X374784571Y-73540880D01*
X374689333Y-73493261D01*
X374641714Y-73445642D01*
X374594095Y-73350404D01*
X374546476Y-73159928D01*
X374546476Y-72921833D01*
X374594095Y-72731357D01*
X374641714Y-72636119D01*
X374689333Y-72588500D01*
X374784571Y-72540880D01*
%TO.C,K49*%
X353591714Y-73540880D02*
X353591714Y-72540880D01*
X354163142Y-73540880D02*
X353734571Y-72969452D01*
X354163142Y-72540880D02*
X353591714Y-73112309D01*
X355020285Y-72874214D02*
X355020285Y-73540880D01*
X354782190Y-72493261D02*
X354544095Y-73207547D01*
X355163142Y-73207547D01*
X355591714Y-73540880D02*
X355782190Y-73540880D01*
X355877428Y-73493261D01*
X355925047Y-73445642D01*
X356020285Y-73302785D01*
X356067904Y-73112309D01*
X356067904Y-72731357D01*
X356020285Y-72636119D01*
X355972666Y-72588500D01*
X355877428Y-72540880D01*
X355686952Y-72540880D01*
X355591714Y-72588500D01*
X355544095Y-72636119D01*
X355496476Y-72731357D01*
X355496476Y-72969452D01*
X355544095Y-73064690D01*
X355591714Y-73112309D01*
X355686952Y-73159928D01*
X355877428Y-73159928D01*
X355972666Y-73112309D01*
X356020285Y-73064690D01*
X356067904Y-72969452D01*
%TO.C,K48*%
X334541714Y-73540880D02*
X334541714Y-72540880D01*
X335113142Y-73540880D02*
X334684571Y-72969452D01*
X335113142Y-72540880D02*
X334541714Y-73112309D01*
X335970285Y-72874214D02*
X335970285Y-73540880D01*
X335732190Y-72493261D02*
X335494095Y-73207547D01*
X336113142Y-73207547D01*
X336636952Y-72969452D02*
X336541714Y-72921833D01*
X336494095Y-72874214D01*
X336446476Y-72778976D01*
X336446476Y-72731357D01*
X336494095Y-72636119D01*
X336541714Y-72588500D01*
X336636952Y-72540880D01*
X336827428Y-72540880D01*
X336922666Y-72588500D01*
X336970285Y-72636119D01*
X337017904Y-72731357D01*
X337017904Y-72778976D01*
X336970285Y-72874214D01*
X336922666Y-72921833D01*
X336827428Y-72969452D01*
X336636952Y-72969452D01*
X336541714Y-73017071D01*
X336494095Y-73064690D01*
X336446476Y-73159928D01*
X336446476Y-73350404D01*
X336494095Y-73445642D01*
X336541714Y-73493261D01*
X336636952Y-73540880D01*
X336827428Y-73540880D01*
X336922666Y-73493261D01*
X336970285Y-73445642D01*
X337017904Y-73350404D01*
X337017904Y-73159928D01*
X336970285Y-73064690D01*
X336922666Y-73017071D01*
X336827428Y-72969452D01*
%TO.C,K47*%
X305966714Y-73540880D02*
X305966714Y-72540880D01*
X306538142Y-73540880D02*
X306109571Y-72969452D01*
X306538142Y-72540880D02*
X305966714Y-73112309D01*
X307395285Y-72874214D02*
X307395285Y-73540880D01*
X307157190Y-72493261D02*
X306919095Y-73207547D01*
X307538142Y-73207547D01*
X307823857Y-72540880D02*
X308490523Y-72540880D01*
X308061952Y-73540880D01*
%TO.C,K46*%
X282154714Y-73540880D02*
X282154714Y-72540880D01*
X282726142Y-73540880D02*
X282297571Y-72969452D01*
X282726142Y-72540880D02*
X282154714Y-73112309D01*
X283583285Y-72874214D02*
X283583285Y-73540880D01*
X283345190Y-72493261D02*
X283107095Y-73207547D01*
X283726142Y-73207547D01*
X284535666Y-72540880D02*
X284345190Y-72540880D01*
X284249952Y-72588500D01*
X284202333Y-72636119D01*
X284107095Y-72778976D01*
X284059476Y-72969452D01*
X284059476Y-73350404D01*
X284107095Y-73445642D01*
X284154714Y-73493261D01*
X284249952Y-73540880D01*
X284440428Y-73540880D01*
X284535666Y-73493261D01*
X284583285Y-73445642D01*
X284630904Y-73350404D01*
X284630904Y-73112309D01*
X284583285Y-73017071D01*
X284535666Y-72969452D01*
X284440428Y-72921833D01*
X284249952Y-72921833D01*
X284154714Y-72969452D01*
X284107095Y-73017071D01*
X284059476Y-73112309D01*
%TO.C,K45*%
X263104714Y-73540880D02*
X263104714Y-72540880D01*
X263676142Y-73540880D02*
X263247571Y-72969452D01*
X263676142Y-72540880D02*
X263104714Y-73112309D01*
X264533285Y-72874214D02*
X264533285Y-73540880D01*
X264295190Y-72493261D02*
X264057095Y-73207547D01*
X264676142Y-73207547D01*
X265533285Y-72540880D02*
X265057095Y-72540880D01*
X265009476Y-73017071D01*
X265057095Y-72969452D01*
X265152333Y-72921833D01*
X265390428Y-72921833D01*
X265485666Y-72969452D01*
X265533285Y-73017071D01*
X265580904Y-73112309D01*
X265580904Y-73350404D01*
X265533285Y-73445642D01*
X265485666Y-73493261D01*
X265390428Y-73540880D01*
X265152333Y-73540880D01*
X265057095Y-73493261D01*
X265009476Y-73445642D01*
%TO.C,K44*%
X244054714Y-73540880D02*
X244054714Y-72540880D01*
X244626142Y-73540880D02*
X244197571Y-72969452D01*
X244626142Y-72540880D02*
X244054714Y-73112309D01*
X245483285Y-72874214D02*
X245483285Y-73540880D01*
X245245190Y-72493261D02*
X245007095Y-73207547D01*
X245626142Y-73207547D01*
X246435666Y-72874214D02*
X246435666Y-73540880D01*
X246197571Y-72493261D02*
X245959476Y-73207547D01*
X246578523Y-73207547D01*
%TO.C,K43*%
X225004714Y-73540880D02*
X225004714Y-72540880D01*
X225576142Y-73540880D02*
X225147571Y-72969452D01*
X225576142Y-72540880D02*
X225004714Y-73112309D01*
X226433285Y-72874214D02*
X226433285Y-73540880D01*
X226195190Y-72493261D02*
X225957095Y-73207547D01*
X226576142Y-73207547D01*
X226861857Y-72540880D02*
X227480904Y-72540880D01*
X227147571Y-72921833D01*
X227290428Y-72921833D01*
X227385666Y-72969452D01*
X227433285Y-73017071D01*
X227480904Y-73112309D01*
X227480904Y-73350404D01*
X227433285Y-73445642D01*
X227385666Y-73493261D01*
X227290428Y-73540880D01*
X227004714Y-73540880D01*
X226909476Y-73493261D01*
X226861857Y-73445642D01*
%TO.C,K42*%
X205954714Y-73540880D02*
X205954714Y-72540880D01*
X206526142Y-73540880D02*
X206097571Y-72969452D01*
X206526142Y-72540880D02*
X205954714Y-73112309D01*
X207383285Y-72874214D02*
X207383285Y-73540880D01*
X207145190Y-72493261D02*
X206907095Y-73207547D01*
X207526142Y-73207547D01*
X207859476Y-72636119D02*
X207907095Y-72588500D01*
X208002333Y-72540880D01*
X208240428Y-72540880D01*
X208335666Y-72588500D01*
X208383285Y-72636119D01*
X208430904Y-72731357D01*
X208430904Y-72826595D01*
X208383285Y-72969452D01*
X207811857Y-73540880D01*
X208430904Y-73540880D01*
%TO.C,K41*%
X186904714Y-73540880D02*
X186904714Y-72540880D01*
X187476142Y-73540880D02*
X187047571Y-72969452D01*
X187476142Y-72540880D02*
X186904714Y-73112309D01*
X188333285Y-72874214D02*
X188333285Y-73540880D01*
X188095190Y-72493261D02*
X187857095Y-73207547D01*
X188476142Y-73207547D01*
X189380904Y-73540880D02*
X188809476Y-73540880D01*
X189095190Y-73540880D02*
X189095190Y-72540880D01*
X188999952Y-72683738D01*
X188904714Y-72778976D01*
X188809476Y-72826595D01*
%TO.C,K40*%
X167854714Y-73540880D02*
X167854714Y-72540880D01*
X168426142Y-73540880D02*
X167997571Y-72969452D01*
X168426142Y-72540880D02*
X167854714Y-73112309D01*
X169283285Y-72874214D02*
X169283285Y-73540880D01*
X169045190Y-72493261D02*
X168807095Y-73207547D01*
X169426142Y-73207547D01*
X169997571Y-72540880D02*
X170092809Y-72540880D01*
X170188047Y-72588500D01*
X170235666Y-72636119D01*
X170283285Y-72731357D01*
X170330904Y-72921833D01*
X170330904Y-73159928D01*
X170283285Y-73350404D01*
X170235666Y-73445642D01*
X170188047Y-73493261D01*
X170092809Y-73540880D01*
X169997571Y-73540880D01*
X169902333Y-73493261D01*
X169854714Y-73445642D01*
X169807095Y-73350404D01*
X169759476Y-73159928D01*
X169759476Y-72921833D01*
X169807095Y-72731357D01*
X169854714Y-72636119D01*
X169902333Y-72588500D01*
X169997571Y-72540880D01*
%TO.C,K39*%
X148804714Y-73540880D02*
X148804714Y-72540880D01*
X149376142Y-73540880D02*
X148947571Y-72969452D01*
X149376142Y-72540880D02*
X148804714Y-73112309D01*
X149709476Y-72540880D02*
X150328523Y-72540880D01*
X149995190Y-72921833D01*
X150138047Y-72921833D01*
X150233285Y-72969452D01*
X150280904Y-73017071D01*
X150328523Y-73112309D01*
X150328523Y-73350404D01*
X150280904Y-73445642D01*
X150233285Y-73493261D01*
X150138047Y-73540880D01*
X149852333Y-73540880D01*
X149757095Y-73493261D01*
X149709476Y-73445642D01*
X150804714Y-73540880D02*
X150995190Y-73540880D01*
X151090428Y-73493261D01*
X151138047Y-73445642D01*
X151233285Y-73302785D01*
X151280904Y-73112309D01*
X151280904Y-72731357D01*
X151233285Y-72636119D01*
X151185666Y-72588500D01*
X151090428Y-72540880D01*
X150899952Y-72540880D01*
X150804714Y-72588500D01*
X150757095Y-72636119D01*
X150709476Y-72731357D01*
X150709476Y-72969452D01*
X150757095Y-73064690D01*
X150804714Y-73112309D01*
X150899952Y-73159928D01*
X151090428Y-73159928D01*
X151185666Y-73112309D01*
X151233285Y-73064690D01*
X151280904Y-72969452D01*
%TO.C,K38*%
X129754714Y-73540880D02*
X129754714Y-72540880D01*
X130326142Y-73540880D02*
X129897571Y-72969452D01*
X130326142Y-72540880D02*
X129754714Y-73112309D01*
X130659476Y-72540880D02*
X131278523Y-72540880D01*
X130945190Y-72921833D01*
X131088047Y-72921833D01*
X131183285Y-72969452D01*
X131230904Y-73017071D01*
X131278523Y-73112309D01*
X131278523Y-73350404D01*
X131230904Y-73445642D01*
X131183285Y-73493261D01*
X131088047Y-73540880D01*
X130802333Y-73540880D01*
X130707095Y-73493261D01*
X130659476Y-73445642D01*
X131849952Y-72969452D02*
X131754714Y-72921833D01*
X131707095Y-72874214D01*
X131659476Y-72778976D01*
X131659476Y-72731357D01*
X131707095Y-72636119D01*
X131754714Y-72588500D01*
X131849952Y-72540880D01*
X132040428Y-72540880D01*
X132135666Y-72588500D01*
X132183285Y-72636119D01*
X132230904Y-72731357D01*
X132230904Y-72778976D01*
X132183285Y-72874214D01*
X132135666Y-72921833D01*
X132040428Y-72969452D01*
X131849952Y-72969452D01*
X131754714Y-73017071D01*
X131707095Y-73064690D01*
X131659476Y-73159928D01*
X131659476Y-73350404D01*
X131707095Y-73445642D01*
X131754714Y-73493261D01*
X131849952Y-73540880D01*
X132040428Y-73540880D01*
X132135666Y-73493261D01*
X132183285Y-73445642D01*
X132230904Y-73350404D01*
X132230904Y-73159928D01*
X132183285Y-73064690D01*
X132135666Y-73017071D01*
X132040428Y-72969452D01*
%TO.C,K37*%
X110704714Y-73540880D02*
X110704714Y-72540880D01*
X111276142Y-73540880D02*
X110847571Y-72969452D01*
X111276142Y-72540880D02*
X110704714Y-73112309D01*
X111609476Y-72540880D02*
X112228523Y-72540880D01*
X111895190Y-72921833D01*
X112038047Y-72921833D01*
X112133285Y-72969452D01*
X112180904Y-73017071D01*
X112228523Y-73112309D01*
X112228523Y-73350404D01*
X112180904Y-73445642D01*
X112133285Y-73493261D01*
X112038047Y-73540880D01*
X111752333Y-73540880D01*
X111657095Y-73493261D01*
X111609476Y-73445642D01*
X112561857Y-72540880D02*
X113228523Y-72540880D01*
X112799952Y-73540880D01*
%TO.C,K36*%
X91654514Y-73540880D02*
X91654514Y-72540880D01*
X92225942Y-73540880D02*
X91797371Y-72969452D01*
X92225942Y-72540880D02*
X91654514Y-73112309D01*
X92559276Y-72540880D02*
X93178323Y-72540880D01*
X92844990Y-72921833D01*
X92987847Y-72921833D01*
X93083085Y-72969452D01*
X93130704Y-73017071D01*
X93178323Y-73112309D01*
X93178323Y-73350404D01*
X93130704Y-73445642D01*
X93083085Y-73493261D01*
X92987847Y-73540880D01*
X92702133Y-73540880D01*
X92606895Y-73493261D01*
X92559276Y-73445642D01*
X94035466Y-72540880D02*
X93844990Y-72540880D01*
X93749752Y-72588500D01*
X93702133Y-72636119D01*
X93606895Y-72778976D01*
X93559276Y-72969452D01*
X93559276Y-73350404D01*
X93606895Y-73445642D01*
X93654514Y-73493261D01*
X93749752Y-73540880D01*
X93940228Y-73540880D01*
X94035466Y-73493261D01*
X94083085Y-73445642D01*
X94130704Y-73350404D01*
X94130704Y-73112309D01*
X94083085Y-73017071D01*
X94035466Y-72969452D01*
X93940228Y-72921833D01*
X93749752Y-72921833D01*
X93654514Y-72969452D01*
X93606895Y-73017071D01*
X93559276Y-73112309D01*
%TO.C,K35*%
X72604514Y-73540880D02*
X72604514Y-72540880D01*
X73175942Y-73540880D02*
X72747371Y-72969452D01*
X73175942Y-72540880D02*
X72604514Y-73112309D01*
X73509276Y-72540880D02*
X74128323Y-72540880D01*
X73794990Y-72921833D01*
X73937847Y-72921833D01*
X74033085Y-72969452D01*
X74080704Y-73017071D01*
X74128323Y-73112309D01*
X74128323Y-73350404D01*
X74080704Y-73445642D01*
X74033085Y-73493261D01*
X73937847Y-73540880D01*
X73652133Y-73540880D01*
X73556895Y-73493261D01*
X73509276Y-73445642D01*
X75033085Y-72540880D02*
X74556895Y-72540880D01*
X74509276Y-73017071D01*
X74556895Y-72969452D01*
X74652133Y-72921833D01*
X74890228Y-72921833D01*
X74985466Y-72969452D01*
X75033085Y-73017071D01*
X75080704Y-73112309D01*
X75080704Y-73350404D01*
X75033085Y-73445642D01*
X74985466Y-73493261D01*
X74890228Y-73540880D01*
X74652133Y-73540880D01*
X74556895Y-73493261D01*
X74509276Y-73445642D01*
%TO.C,K34*%
X48791914Y-73540880D02*
X48791914Y-72540880D01*
X49363342Y-73540880D02*
X48934771Y-72969452D01*
X49363342Y-72540880D02*
X48791914Y-73112309D01*
X49696676Y-72540880D02*
X50315723Y-72540880D01*
X49982390Y-72921833D01*
X50125247Y-72921833D01*
X50220485Y-72969452D01*
X50268104Y-73017071D01*
X50315723Y-73112309D01*
X50315723Y-73350404D01*
X50268104Y-73445642D01*
X50220485Y-73493261D01*
X50125247Y-73540880D01*
X49839533Y-73540880D01*
X49744295Y-73493261D01*
X49696676Y-73445642D01*
X51172866Y-72874214D02*
X51172866Y-73540880D01*
X50934771Y-72493261D02*
X50696676Y-73207547D01*
X51315723Y-73207547D01*
%TO.C,K33*%
X372641714Y-54490880D02*
X372641714Y-53490880D01*
X373213142Y-54490880D02*
X372784571Y-53919452D01*
X373213142Y-53490880D02*
X372641714Y-54062309D01*
X373546476Y-53490880D02*
X374165523Y-53490880D01*
X373832190Y-53871833D01*
X373975047Y-53871833D01*
X374070285Y-53919452D01*
X374117904Y-53967071D01*
X374165523Y-54062309D01*
X374165523Y-54300404D01*
X374117904Y-54395642D01*
X374070285Y-54443261D01*
X373975047Y-54490880D01*
X373689333Y-54490880D01*
X373594095Y-54443261D01*
X373546476Y-54395642D01*
X374498857Y-53490880D02*
X375117904Y-53490880D01*
X374784571Y-53871833D01*
X374927428Y-53871833D01*
X375022666Y-53919452D01*
X375070285Y-53967071D01*
X375117904Y-54062309D01*
X375117904Y-54300404D01*
X375070285Y-54395642D01*
X375022666Y-54443261D01*
X374927428Y-54490880D01*
X374641714Y-54490880D01*
X374546476Y-54443261D01*
X374498857Y-54395642D01*
%TO.C,K32*%
X353591714Y-54490880D02*
X353591714Y-53490880D01*
X354163142Y-54490880D02*
X353734571Y-53919452D01*
X354163142Y-53490880D02*
X353591714Y-54062309D01*
X354496476Y-53490880D02*
X355115523Y-53490880D01*
X354782190Y-53871833D01*
X354925047Y-53871833D01*
X355020285Y-53919452D01*
X355067904Y-53967071D01*
X355115523Y-54062309D01*
X355115523Y-54300404D01*
X355067904Y-54395642D01*
X355020285Y-54443261D01*
X354925047Y-54490880D01*
X354639333Y-54490880D01*
X354544095Y-54443261D01*
X354496476Y-54395642D01*
X355496476Y-53586119D02*
X355544095Y-53538500D01*
X355639333Y-53490880D01*
X355877428Y-53490880D01*
X355972666Y-53538500D01*
X356020285Y-53586119D01*
X356067904Y-53681357D01*
X356067904Y-53776595D01*
X356020285Y-53919452D01*
X355448857Y-54490880D01*
X356067904Y-54490880D01*
%TO.C,K31*%
X334541714Y-54490880D02*
X334541714Y-53490880D01*
X335113142Y-54490880D02*
X334684571Y-53919452D01*
X335113142Y-53490880D02*
X334541714Y-54062309D01*
X335446476Y-53490880D02*
X336065523Y-53490880D01*
X335732190Y-53871833D01*
X335875047Y-53871833D01*
X335970285Y-53919452D01*
X336017904Y-53967071D01*
X336065523Y-54062309D01*
X336065523Y-54300404D01*
X336017904Y-54395642D01*
X335970285Y-54443261D01*
X335875047Y-54490880D01*
X335589333Y-54490880D01*
X335494095Y-54443261D01*
X335446476Y-54395642D01*
X337017904Y-54490880D02*
X336446476Y-54490880D01*
X336732190Y-54490880D02*
X336732190Y-53490880D01*
X336636952Y-53633738D01*
X336541714Y-53728976D01*
X336446476Y-53776595D01*
%TO.C,K30*%
X301204714Y-54490880D02*
X301204714Y-53490880D01*
X301776142Y-54490880D02*
X301347571Y-53919452D01*
X301776142Y-53490880D02*
X301204714Y-54062309D01*
X302109476Y-53490880D02*
X302728523Y-53490880D01*
X302395190Y-53871833D01*
X302538047Y-53871833D01*
X302633285Y-53919452D01*
X302680904Y-53967071D01*
X302728523Y-54062309D01*
X302728523Y-54300404D01*
X302680904Y-54395642D01*
X302633285Y-54443261D01*
X302538047Y-54490880D01*
X302252333Y-54490880D01*
X302157095Y-54443261D01*
X302109476Y-54395642D01*
X303347571Y-53490880D02*
X303442809Y-53490880D01*
X303538047Y-53538500D01*
X303585666Y-53586119D01*
X303633285Y-53681357D01*
X303680904Y-53871833D01*
X303680904Y-54109928D01*
X303633285Y-54300404D01*
X303585666Y-54395642D01*
X303538047Y-54443261D01*
X303442809Y-54490880D01*
X303347571Y-54490880D01*
X303252333Y-54443261D01*
X303204714Y-54395642D01*
X303157095Y-54300404D01*
X303109476Y-54109928D01*
X303109476Y-53871833D01*
X303157095Y-53681357D01*
X303204714Y-53586119D01*
X303252333Y-53538500D01*
X303347571Y-53490880D01*
%TO.C,K29*%
X272629714Y-54490880D02*
X272629714Y-53490880D01*
X273201142Y-54490880D02*
X272772571Y-53919452D01*
X273201142Y-53490880D02*
X272629714Y-54062309D01*
X273582095Y-53586119D02*
X273629714Y-53538500D01*
X273724952Y-53490880D01*
X273963047Y-53490880D01*
X274058285Y-53538500D01*
X274105904Y-53586119D01*
X274153523Y-53681357D01*
X274153523Y-53776595D01*
X274105904Y-53919452D01*
X273534476Y-54490880D01*
X274153523Y-54490880D01*
X274629714Y-54490880D02*
X274820190Y-54490880D01*
X274915428Y-54443261D01*
X274963047Y-54395642D01*
X275058285Y-54252785D01*
X275105904Y-54062309D01*
X275105904Y-53681357D01*
X275058285Y-53586119D01*
X275010666Y-53538500D01*
X274915428Y-53490880D01*
X274724952Y-53490880D01*
X274629714Y-53538500D01*
X274582095Y-53586119D01*
X274534476Y-53681357D01*
X274534476Y-53919452D01*
X274582095Y-54014690D01*
X274629714Y-54062309D01*
X274724952Y-54109928D01*
X274915428Y-54109928D01*
X275010666Y-54062309D01*
X275058285Y-54014690D01*
X275105904Y-53919452D01*
%TO.C,K28*%
X253579714Y-54490880D02*
X253579714Y-53490880D01*
X254151142Y-54490880D02*
X253722571Y-53919452D01*
X254151142Y-53490880D02*
X253579714Y-54062309D01*
X254532095Y-53586119D02*
X254579714Y-53538500D01*
X254674952Y-53490880D01*
X254913047Y-53490880D01*
X255008285Y-53538500D01*
X255055904Y-53586119D01*
X255103523Y-53681357D01*
X255103523Y-53776595D01*
X255055904Y-53919452D01*
X254484476Y-54490880D01*
X255103523Y-54490880D01*
X255674952Y-53919452D02*
X255579714Y-53871833D01*
X255532095Y-53824214D01*
X255484476Y-53728976D01*
X255484476Y-53681357D01*
X255532095Y-53586119D01*
X255579714Y-53538500D01*
X255674952Y-53490880D01*
X255865428Y-53490880D01*
X255960666Y-53538500D01*
X256008285Y-53586119D01*
X256055904Y-53681357D01*
X256055904Y-53728976D01*
X256008285Y-53824214D01*
X255960666Y-53871833D01*
X255865428Y-53919452D01*
X255674952Y-53919452D01*
X255579714Y-53967071D01*
X255532095Y-54014690D01*
X255484476Y-54109928D01*
X255484476Y-54300404D01*
X255532095Y-54395642D01*
X255579714Y-54443261D01*
X255674952Y-54490880D01*
X255865428Y-54490880D01*
X255960666Y-54443261D01*
X256008285Y-54395642D01*
X256055904Y-54300404D01*
X256055904Y-54109928D01*
X256008285Y-54014690D01*
X255960666Y-53967071D01*
X255865428Y-53919452D01*
%TO.C,K27*%
X234529714Y-54490880D02*
X234529714Y-53490880D01*
X235101142Y-54490880D02*
X234672571Y-53919452D01*
X235101142Y-53490880D02*
X234529714Y-54062309D01*
X235482095Y-53586119D02*
X235529714Y-53538500D01*
X235624952Y-53490880D01*
X235863047Y-53490880D01*
X235958285Y-53538500D01*
X236005904Y-53586119D01*
X236053523Y-53681357D01*
X236053523Y-53776595D01*
X236005904Y-53919452D01*
X235434476Y-54490880D01*
X236053523Y-54490880D01*
X236386857Y-53490880D02*
X237053523Y-53490880D01*
X236624952Y-54490880D01*
%TO.C,K26*%
X215479714Y-54490880D02*
X215479714Y-53490880D01*
X216051142Y-54490880D02*
X215622571Y-53919452D01*
X216051142Y-53490880D02*
X215479714Y-54062309D01*
X216432095Y-53586119D02*
X216479714Y-53538500D01*
X216574952Y-53490880D01*
X216813047Y-53490880D01*
X216908285Y-53538500D01*
X216955904Y-53586119D01*
X217003523Y-53681357D01*
X217003523Y-53776595D01*
X216955904Y-53919452D01*
X216384476Y-54490880D01*
X217003523Y-54490880D01*
X217860666Y-53490880D02*
X217670190Y-53490880D01*
X217574952Y-53538500D01*
X217527333Y-53586119D01*
X217432095Y-53728976D01*
X217384476Y-53919452D01*
X217384476Y-54300404D01*
X217432095Y-54395642D01*
X217479714Y-54443261D01*
X217574952Y-54490880D01*
X217765428Y-54490880D01*
X217860666Y-54443261D01*
X217908285Y-54395642D01*
X217955904Y-54300404D01*
X217955904Y-54062309D01*
X217908285Y-53967071D01*
X217860666Y-53919452D01*
X217765428Y-53871833D01*
X217574952Y-53871833D01*
X217479714Y-53919452D01*
X217432095Y-53967071D01*
X217384476Y-54062309D01*
%TO.C,K25*%
X196429714Y-54490880D02*
X196429714Y-53490880D01*
X197001142Y-54490880D02*
X196572571Y-53919452D01*
X197001142Y-53490880D02*
X196429714Y-54062309D01*
X197382095Y-53586119D02*
X197429714Y-53538500D01*
X197524952Y-53490880D01*
X197763047Y-53490880D01*
X197858285Y-53538500D01*
X197905904Y-53586119D01*
X197953523Y-53681357D01*
X197953523Y-53776595D01*
X197905904Y-53919452D01*
X197334476Y-54490880D01*
X197953523Y-54490880D01*
X198858285Y-53490880D02*
X198382095Y-53490880D01*
X198334476Y-53967071D01*
X198382095Y-53919452D01*
X198477333Y-53871833D01*
X198715428Y-53871833D01*
X198810666Y-53919452D01*
X198858285Y-53967071D01*
X198905904Y-54062309D01*
X198905904Y-54300404D01*
X198858285Y-54395642D01*
X198810666Y-54443261D01*
X198715428Y-54490880D01*
X198477333Y-54490880D01*
X198382095Y-54443261D01*
X198334476Y-54395642D01*
%TO.C,K24*%
X177379714Y-54490880D02*
X177379714Y-53490880D01*
X177951142Y-54490880D02*
X177522571Y-53919452D01*
X177951142Y-53490880D02*
X177379714Y-54062309D01*
X178332095Y-53586119D02*
X178379714Y-53538500D01*
X178474952Y-53490880D01*
X178713047Y-53490880D01*
X178808285Y-53538500D01*
X178855904Y-53586119D01*
X178903523Y-53681357D01*
X178903523Y-53776595D01*
X178855904Y-53919452D01*
X178284476Y-54490880D01*
X178903523Y-54490880D01*
X179760666Y-53824214D02*
X179760666Y-54490880D01*
X179522571Y-53443261D02*
X179284476Y-54157547D01*
X179903523Y-54157547D01*
%TO.C,K23*%
X158329714Y-54490880D02*
X158329714Y-53490880D01*
X158901142Y-54490880D02*
X158472571Y-53919452D01*
X158901142Y-53490880D02*
X158329714Y-54062309D01*
X159282095Y-53586119D02*
X159329714Y-53538500D01*
X159424952Y-53490880D01*
X159663047Y-53490880D01*
X159758285Y-53538500D01*
X159805904Y-53586119D01*
X159853523Y-53681357D01*
X159853523Y-53776595D01*
X159805904Y-53919452D01*
X159234476Y-54490880D01*
X159853523Y-54490880D01*
X160186857Y-53490880D02*
X160805904Y-53490880D01*
X160472571Y-53871833D01*
X160615428Y-53871833D01*
X160710666Y-53919452D01*
X160758285Y-53967071D01*
X160805904Y-54062309D01*
X160805904Y-54300404D01*
X160758285Y-54395642D01*
X160710666Y-54443261D01*
X160615428Y-54490880D01*
X160329714Y-54490880D01*
X160234476Y-54443261D01*
X160186857Y-54395642D01*
%TO.C,K22*%
X139279714Y-54490880D02*
X139279714Y-53490880D01*
X139851142Y-54490880D02*
X139422571Y-53919452D01*
X139851142Y-53490880D02*
X139279714Y-54062309D01*
X140232095Y-53586119D02*
X140279714Y-53538500D01*
X140374952Y-53490880D01*
X140613047Y-53490880D01*
X140708285Y-53538500D01*
X140755904Y-53586119D01*
X140803523Y-53681357D01*
X140803523Y-53776595D01*
X140755904Y-53919452D01*
X140184476Y-54490880D01*
X140803523Y-54490880D01*
X141184476Y-53586119D02*
X141232095Y-53538500D01*
X141327333Y-53490880D01*
X141565428Y-53490880D01*
X141660666Y-53538500D01*
X141708285Y-53586119D01*
X141755904Y-53681357D01*
X141755904Y-53776595D01*
X141708285Y-53919452D01*
X141136857Y-54490880D01*
X141755904Y-54490880D01*
%TO.C,K21*%
X120229714Y-54490880D02*
X120229714Y-53490880D01*
X120801142Y-54490880D02*
X120372571Y-53919452D01*
X120801142Y-53490880D02*
X120229714Y-54062309D01*
X121182095Y-53586119D02*
X121229714Y-53538500D01*
X121324952Y-53490880D01*
X121563047Y-53490880D01*
X121658285Y-53538500D01*
X121705904Y-53586119D01*
X121753523Y-53681357D01*
X121753523Y-53776595D01*
X121705904Y-53919452D01*
X121134476Y-54490880D01*
X121753523Y-54490880D01*
X122705904Y-54490880D02*
X122134476Y-54490880D01*
X122420190Y-54490880D02*
X122420190Y-53490880D01*
X122324952Y-53633738D01*
X122229714Y-53728976D01*
X122134476Y-53776595D01*
%TO.C,K20*%
X101179714Y-54490880D02*
X101179714Y-53490880D01*
X101751142Y-54490880D02*
X101322571Y-53919452D01*
X101751142Y-53490880D02*
X101179714Y-54062309D01*
X102132095Y-53586119D02*
X102179714Y-53538500D01*
X102274952Y-53490880D01*
X102513047Y-53490880D01*
X102608285Y-53538500D01*
X102655904Y-53586119D01*
X102703523Y-53681357D01*
X102703523Y-53776595D01*
X102655904Y-53919452D01*
X102084476Y-54490880D01*
X102703523Y-54490880D01*
X103322571Y-53490880D02*
X103417809Y-53490880D01*
X103513047Y-53538500D01*
X103560666Y-53586119D01*
X103608285Y-53681357D01*
X103655904Y-53871833D01*
X103655904Y-54109928D01*
X103608285Y-54300404D01*
X103560666Y-54395642D01*
X103513047Y-54443261D01*
X103417809Y-54490880D01*
X103322571Y-54490880D01*
X103227333Y-54443261D01*
X103179714Y-54395642D01*
X103132095Y-54300404D01*
X103084476Y-54109928D01*
X103084476Y-53871833D01*
X103132095Y-53681357D01*
X103179714Y-53586119D01*
X103227333Y-53538500D01*
X103322571Y-53490880D01*
%TO.C,K19*%
X82129514Y-54490880D02*
X82129514Y-53490880D01*
X82700942Y-54490880D02*
X82272371Y-53919452D01*
X82700942Y-53490880D02*
X82129514Y-54062309D01*
X83653323Y-54490880D02*
X83081895Y-54490880D01*
X83367609Y-54490880D02*
X83367609Y-53490880D01*
X83272371Y-53633738D01*
X83177133Y-53728976D01*
X83081895Y-53776595D01*
X84129514Y-54490880D02*
X84319990Y-54490880D01*
X84415228Y-54443261D01*
X84462847Y-54395642D01*
X84558085Y-54252785D01*
X84605704Y-54062309D01*
X84605704Y-53681357D01*
X84558085Y-53586119D01*
X84510466Y-53538500D01*
X84415228Y-53490880D01*
X84224752Y-53490880D01*
X84129514Y-53538500D01*
X84081895Y-53586119D01*
X84034276Y-53681357D01*
X84034276Y-53919452D01*
X84081895Y-54014690D01*
X84129514Y-54062309D01*
X84224752Y-54109928D01*
X84415228Y-54109928D01*
X84510466Y-54062309D01*
X84558085Y-54014690D01*
X84605704Y-53919452D01*
%TO.C,K18*%
X63079514Y-54490880D02*
X63079514Y-53490880D01*
X63650942Y-54490880D02*
X63222371Y-53919452D01*
X63650942Y-53490880D02*
X63079514Y-54062309D01*
X64603323Y-54490880D02*
X64031895Y-54490880D01*
X64317609Y-54490880D02*
X64317609Y-53490880D01*
X64222371Y-53633738D01*
X64127133Y-53728976D01*
X64031895Y-53776595D01*
X65174752Y-53919452D02*
X65079514Y-53871833D01*
X65031895Y-53824214D01*
X64984276Y-53728976D01*
X64984276Y-53681357D01*
X65031895Y-53586119D01*
X65079514Y-53538500D01*
X65174752Y-53490880D01*
X65365228Y-53490880D01*
X65460466Y-53538500D01*
X65508085Y-53586119D01*
X65555704Y-53681357D01*
X65555704Y-53728976D01*
X65508085Y-53824214D01*
X65460466Y-53871833D01*
X65365228Y-53919452D01*
X65174752Y-53919452D01*
X65079514Y-53967071D01*
X65031895Y-54014690D01*
X64984276Y-54109928D01*
X64984276Y-54300404D01*
X65031895Y-54395642D01*
X65079514Y-54443261D01*
X65174752Y-54490880D01*
X65365228Y-54490880D01*
X65460466Y-54443261D01*
X65508085Y-54395642D01*
X65555704Y-54300404D01*
X65555704Y-54109928D01*
X65508085Y-54014690D01*
X65460466Y-53967071D01*
X65365228Y-53919452D01*
%TO.C,K17*%
X44029514Y-54490880D02*
X44029514Y-53490880D01*
X44600942Y-54490880D02*
X44172371Y-53919452D01*
X44600942Y-53490880D02*
X44029514Y-54062309D01*
X45553323Y-54490880D02*
X44981895Y-54490880D01*
X45267609Y-54490880D02*
X45267609Y-53490880D01*
X45172371Y-53633738D01*
X45077133Y-53728976D01*
X44981895Y-53776595D01*
X45886657Y-53490880D02*
X46553323Y-53490880D01*
X46124752Y-54490880D01*
%TO.C,K16*%
X372641714Y-30678380D02*
X372641714Y-29678380D01*
X373213142Y-30678380D02*
X372784571Y-30106952D01*
X373213142Y-29678380D02*
X372641714Y-30249809D01*
X374165523Y-30678380D02*
X373594095Y-30678380D01*
X373879809Y-30678380D02*
X373879809Y-29678380D01*
X373784571Y-29821238D01*
X373689333Y-29916476D01*
X373594095Y-29964095D01*
X375022666Y-29678380D02*
X374832190Y-29678380D01*
X374736952Y-29726000D01*
X374689333Y-29773619D01*
X374594095Y-29916476D01*
X374546476Y-30106952D01*
X374546476Y-30487904D01*
X374594095Y-30583142D01*
X374641714Y-30630761D01*
X374736952Y-30678380D01*
X374927428Y-30678380D01*
X375022666Y-30630761D01*
X375070285Y-30583142D01*
X375117904Y-30487904D01*
X375117904Y-30249809D01*
X375070285Y-30154571D01*
X375022666Y-30106952D01*
X374927428Y-30059333D01*
X374736952Y-30059333D01*
X374641714Y-30106952D01*
X374594095Y-30154571D01*
X374546476Y-30249809D01*
%TO.C,K15*%
X353591714Y-30678380D02*
X353591714Y-29678380D01*
X354163142Y-30678380D02*
X353734571Y-30106952D01*
X354163142Y-29678380D02*
X353591714Y-30249809D01*
X355115523Y-30678380D02*
X354544095Y-30678380D01*
X354829809Y-30678380D02*
X354829809Y-29678380D01*
X354734571Y-29821238D01*
X354639333Y-29916476D01*
X354544095Y-29964095D01*
X356020285Y-29678380D02*
X355544095Y-29678380D01*
X355496476Y-30154571D01*
X355544095Y-30106952D01*
X355639333Y-30059333D01*
X355877428Y-30059333D01*
X355972666Y-30106952D01*
X356020285Y-30154571D01*
X356067904Y-30249809D01*
X356067904Y-30487904D01*
X356020285Y-30583142D01*
X355972666Y-30630761D01*
X355877428Y-30678380D01*
X355639333Y-30678380D01*
X355544095Y-30630761D01*
X355496476Y-30583142D01*
%TO.C,K14*%
X334541714Y-30678380D02*
X334541714Y-29678380D01*
X335113142Y-30678380D02*
X334684571Y-30106952D01*
X335113142Y-29678380D02*
X334541714Y-30249809D01*
X336065523Y-30678380D02*
X335494095Y-30678380D01*
X335779809Y-30678380D02*
X335779809Y-29678380D01*
X335684571Y-29821238D01*
X335589333Y-29916476D01*
X335494095Y-29964095D01*
X336922666Y-30011714D02*
X336922666Y-30678380D01*
X336684571Y-29630761D02*
X336446476Y-30345047D01*
X337065523Y-30345047D01*
%TO.C,K13*%
X310729714Y-30678380D02*
X310729714Y-29678380D01*
X311301142Y-30678380D02*
X310872571Y-30106952D01*
X311301142Y-29678380D02*
X310729714Y-30249809D01*
X312253523Y-30678380D02*
X311682095Y-30678380D01*
X311967809Y-30678380D02*
X311967809Y-29678380D01*
X311872571Y-29821238D01*
X311777333Y-29916476D01*
X311682095Y-29964095D01*
X312586857Y-29678380D02*
X313205904Y-29678380D01*
X312872571Y-30059333D01*
X313015428Y-30059333D01*
X313110666Y-30106952D01*
X313158285Y-30154571D01*
X313205904Y-30249809D01*
X313205904Y-30487904D01*
X313158285Y-30583142D01*
X313110666Y-30630761D01*
X313015428Y-30678380D01*
X312729714Y-30678380D01*
X312634476Y-30630761D01*
X312586857Y-30583142D01*
%TO.C,K12*%
X291679714Y-30678380D02*
X291679714Y-29678380D01*
X292251142Y-30678380D02*
X291822571Y-30106952D01*
X292251142Y-29678380D02*
X291679714Y-30249809D01*
X293203523Y-30678380D02*
X292632095Y-30678380D01*
X292917809Y-30678380D02*
X292917809Y-29678380D01*
X292822571Y-29821238D01*
X292727333Y-29916476D01*
X292632095Y-29964095D01*
X293584476Y-29773619D02*
X293632095Y-29726000D01*
X293727333Y-29678380D01*
X293965428Y-29678380D01*
X294060666Y-29726000D01*
X294108285Y-29773619D01*
X294155904Y-29868857D01*
X294155904Y-29964095D01*
X294108285Y-30106952D01*
X293536857Y-30678380D01*
X294155904Y-30678380D01*
%TO.C,K11*%
X272629714Y-30678380D02*
X272629714Y-29678380D01*
X273201142Y-30678380D02*
X272772571Y-30106952D01*
X273201142Y-29678380D02*
X272629714Y-30249809D01*
X274153523Y-30678380D02*
X273582095Y-30678380D01*
X273867809Y-30678380D02*
X273867809Y-29678380D01*
X273772571Y-29821238D01*
X273677333Y-29916476D01*
X273582095Y-29964095D01*
X275105904Y-30678380D02*
X274534476Y-30678380D01*
X274820190Y-30678380D02*
X274820190Y-29678380D01*
X274724952Y-29821238D01*
X274629714Y-29916476D01*
X274534476Y-29964095D01*
%TO.C,K10*%
X253579714Y-30678380D02*
X253579714Y-29678380D01*
X254151142Y-30678380D02*
X253722571Y-30106952D01*
X254151142Y-29678380D02*
X253579714Y-30249809D01*
X255103523Y-30678380D02*
X254532095Y-30678380D01*
X254817809Y-30678380D02*
X254817809Y-29678380D01*
X254722571Y-29821238D01*
X254627333Y-29916476D01*
X254532095Y-29964095D01*
X255722571Y-29678380D02*
X255817809Y-29678380D01*
X255913047Y-29726000D01*
X255960666Y-29773619D01*
X256008285Y-29868857D01*
X256055904Y-30059333D01*
X256055904Y-30297428D01*
X256008285Y-30487904D01*
X255960666Y-30583142D01*
X255913047Y-30630761D01*
X255817809Y-30678380D01*
X255722571Y-30678380D01*
X255627333Y-30630761D01*
X255579714Y-30583142D01*
X255532095Y-30487904D01*
X255484476Y-30297428D01*
X255484476Y-30059333D01*
X255532095Y-29868857D01*
X255579714Y-29773619D01*
X255627333Y-29726000D01*
X255722571Y-29678380D01*
%TO.C,K9*%
X225480904Y-30678380D02*
X225480904Y-29678380D01*
X226052333Y-30678380D02*
X225623761Y-30106952D01*
X226052333Y-29678380D02*
X225480904Y-30249809D01*
X226528523Y-30678380D02*
X226719000Y-30678380D01*
X226814238Y-30630761D01*
X226861857Y-30583142D01*
X226957095Y-30440285D01*
X227004714Y-30249809D01*
X227004714Y-29868857D01*
X226957095Y-29773619D01*
X226909476Y-29726000D01*
X226814238Y-29678380D01*
X226623761Y-29678380D01*
X226528523Y-29726000D01*
X226480904Y-29773619D01*
X226433285Y-29868857D01*
X226433285Y-30106952D01*
X226480904Y-30202190D01*
X226528523Y-30249809D01*
X226623761Y-30297428D01*
X226814238Y-30297428D01*
X226909476Y-30249809D01*
X226957095Y-30202190D01*
X227004714Y-30106952D01*
%TO.C,K8*%
X206430904Y-30678380D02*
X206430904Y-29678380D01*
X207002333Y-30678380D02*
X206573761Y-30106952D01*
X207002333Y-29678380D02*
X206430904Y-30249809D01*
X207573761Y-30106952D02*
X207478523Y-30059333D01*
X207430904Y-30011714D01*
X207383285Y-29916476D01*
X207383285Y-29868857D01*
X207430904Y-29773619D01*
X207478523Y-29726000D01*
X207573761Y-29678380D01*
X207764238Y-29678380D01*
X207859476Y-29726000D01*
X207907095Y-29773619D01*
X207954714Y-29868857D01*
X207954714Y-29916476D01*
X207907095Y-30011714D01*
X207859476Y-30059333D01*
X207764238Y-30106952D01*
X207573761Y-30106952D01*
X207478523Y-30154571D01*
X207430904Y-30202190D01*
X207383285Y-30297428D01*
X207383285Y-30487904D01*
X207430904Y-30583142D01*
X207478523Y-30630761D01*
X207573761Y-30678380D01*
X207764238Y-30678380D01*
X207859476Y-30630761D01*
X207907095Y-30583142D01*
X207954714Y-30487904D01*
X207954714Y-30297428D01*
X207907095Y-30202190D01*
X207859476Y-30154571D01*
X207764238Y-30106952D01*
%TO.C,K7*%
X187380904Y-30678380D02*
X187380904Y-29678380D01*
X187952333Y-30678380D02*
X187523761Y-30106952D01*
X187952333Y-29678380D02*
X187380904Y-30249809D01*
X188285666Y-29678380D02*
X188952333Y-29678380D01*
X188523761Y-30678380D01*
%TO.C,K6*%
X168330904Y-30678380D02*
X168330904Y-29678380D01*
X168902333Y-30678380D02*
X168473761Y-30106952D01*
X168902333Y-29678380D02*
X168330904Y-30249809D01*
X169759476Y-29678380D02*
X169569000Y-29678380D01*
X169473761Y-29726000D01*
X169426142Y-29773619D01*
X169330904Y-29916476D01*
X169283285Y-30106952D01*
X169283285Y-30487904D01*
X169330904Y-30583142D01*
X169378523Y-30630761D01*
X169473761Y-30678380D01*
X169664238Y-30678380D01*
X169759476Y-30630761D01*
X169807095Y-30583142D01*
X169854714Y-30487904D01*
X169854714Y-30249809D01*
X169807095Y-30154571D01*
X169759476Y-30106952D01*
X169664238Y-30059333D01*
X169473761Y-30059333D01*
X169378523Y-30106952D01*
X169330904Y-30154571D01*
X169283285Y-30249809D01*
%TO.C,K5*%
X139755904Y-30678380D02*
X139755904Y-29678380D01*
X140327333Y-30678380D02*
X139898761Y-30106952D01*
X140327333Y-29678380D02*
X139755904Y-30249809D01*
X141232095Y-29678380D02*
X140755904Y-29678380D01*
X140708285Y-30154571D01*
X140755904Y-30106952D01*
X140851142Y-30059333D01*
X141089238Y-30059333D01*
X141184476Y-30106952D01*
X141232095Y-30154571D01*
X141279714Y-30249809D01*
X141279714Y-30487904D01*
X141232095Y-30583142D01*
X141184476Y-30630761D01*
X141089238Y-30678380D01*
X140851142Y-30678380D01*
X140755904Y-30630761D01*
X140708285Y-30583142D01*
%TO.C,K4*%
X120705904Y-30678380D02*
X120705904Y-29678380D01*
X121277333Y-30678380D02*
X120848761Y-30106952D01*
X121277333Y-29678380D02*
X120705904Y-30249809D01*
X122134476Y-30011714D02*
X122134476Y-30678380D01*
X121896380Y-29630761D02*
X121658285Y-30345047D01*
X122277333Y-30345047D01*
%TO.C,K3*%
X101655904Y-30678380D02*
X101655904Y-29678380D01*
X102227333Y-30678380D02*
X101798761Y-30106952D01*
X102227333Y-29678380D02*
X101655904Y-30249809D01*
X102560666Y-29678380D02*
X103179714Y-29678380D01*
X102846380Y-30059333D01*
X102989238Y-30059333D01*
X103084476Y-30106952D01*
X103132095Y-30154571D01*
X103179714Y-30249809D01*
X103179714Y-30487904D01*
X103132095Y-30583142D01*
X103084476Y-30630761D01*
X102989238Y-30678380D01*
X102703523Y-30678380D01*
X102608285Y-30630761D01*
X102560666Y-30583142D01*
%TO.C,K2*%
X82605704Y-30678380D02*
X82605704Y-29678380D01*
X83177133Y-30678380D02*
X82748561Y-30106952D01*
X83177133Y-29678380D02*
X82605704Y-30249809D01*
X83558085Y-29773619D02*
X83605704Y-29726000D01*
X83700942Y-29678380D01*
X83939038Y-29678380D01*
X84034276Y-29726000D01*
X84081895Y-29773619D01*
X84129514Y-29868857D01*
X84129514Y-29964095D01*
X84081895Y-30106952D01*
X83510466Y-30678380D01*
X84129514Y-30678380D01*
%TO.C,K1*%
X44505704Y-30678380D02*
X44505704Y-29678380D01*
X45077133Y-30678380D02*
X44648561Y-30106952D01*
X45077133Y-29678380D02*
X44505704Y-30249809D01*
X46029514Y-30678380D02*
X45458085Y-30678380D01*
X45743800Y-30678380D02*
X45743800Y-29678380D01*
X45648561Y-29821238D01*
X45553323Y-29916476D01*
X45458085Y-29964095D01*
%TO.C,J1*%
D16*
X213022666Y-26399880D02*
X213022666Y-27114166D01*
X212975047Y-27257023D01*
X212879809Y-27352261D01*
X212736952Y-27399880D01*
X212641714Y-27399880D01*
X214022666Y-27399880D02*
X213451238Y-27399880D01*
X213736952Y-27399880D02*
X213736952Y-26399880D01*
X213641714Y-26542738D01*
X213546476Y-26637976D01*
X213451238Y-26685595D01*
%TO.C,C5*%
D11*
X218701142Y-28741666D02*
X218748761Y-28789285D01*
X218796380Y-28932142D01*
X218796380Y-29027380D01*
X218748761Y-29170238D01*
X218653523Y-29265476D01*
X218558285Y-29313095D01*
X218367809Y-29360714D01*
X218224952Y-29360714D01*
X218034476Y-29313095D01*
X217939238Y-29265476D01*
X217844000Y-29170238D01*
X217796380Y-29027380D01*
X217796380Y-28932142D01*
X217844000Y-28789285D01*
X217891619Y-28741666D01*
X217796380Y-27836904D02*
X217796380Y-28313095D01*
X218272571Y-28360714D01*
X218224952Y-28313095D01*
X218177333Y-28217857D01*
X218177333Y-27979761D01*
X218224952Y-27884523D01*
X218272571Y-27836904D01*
X218367809Y-27789285D01*
X218605904Y-27789285D01*
X218701142Y-27836904D01*
X218748761Y-27884523D01*
X218796380Y-27979761D01*
X218796380Y-28217857D01*
X218748761Y-28313095D01*
X218701142Y-28360714D01*
%TO.C,C4*%
X216319142Y-28741666D02*
X216366761Y-28789285D01*
X216414380Y-28932142D01*
X216414380Y-29027380D01*
X216366761Y-29170238D01*
X216271523Y-29265476D01*
X216176285Y-29313095D01*
X215985809Y-29360714D01*
X215842952Y-29360714D01*
X215652476Y-29313095D01*
X215557238Y-29265476D01*
X215462000Y-29170238D01*
X215414380Y-29027380D01*
X215414380Y-28932142D01*
X215462000Y-28789285D01*
X215509619Y-28741666D01*
X215747714Y-27884523D02*
X216414380Y-27884523D01*
X215366761Y-28122619D02*
X216081047Y-28360714D01*
X216081047Y-27741666D01*
%TO.C,C3*%
X213938142Y-28741666D02*
X213985761Y-28789285D01*
X214033380Y-28932142D01*
X214033380Y-29027380D01*
X213985761Y-29170238D01*
X213890523Y-29265476D01*
X213795285Y-29313095D01*
X213604809Y-29360714D01*
X213461952Y-29360714D01*
X213271476Y-29313095D01*
X213176238Y-29265476D01*
X213081000Y-29170238D01*
X213033380Y-29027380D01*
X213033380Y-28932142D01*
X213081000Y-28789285D01*
X213128619Y-28741666D01*
X213033380Y-28408333D02*
X213033380Y-27789285D01*
X213414333Y-28122619D01*
X213414333Y-27979761D01*
X213461952Y-27884523D01*
X213509571Y-27836904D01*
X213604809Y-27789285D01*
X213842904Y-27789285D01*
X213938142Y-27836904D01*
X213985761Y-27884523D01*
X214033380Y-27979761D01*
X214033380Y-28265476D01*
X213985761Y-28360714D01*
X213938142Y-28408333D01*
%TO.C,C2*%
X211557142Y-28741666D02*
X211604761Y-28789285D01*
X211652380Y-28932142D01*
X211652380Y-29027380D01*
X211604761Y-29170238D01*
X211509523Y-29265476D01*
X211414285Y-29313095D01*
X211223809Y-29360714D01*
X211080952Y-29360714D01*
X210890476Y-29313095D01*
X210795238Y-29265476D01*
X210700000Y-29170238D01*
X210652380Y-29027380D01*
X210652380Y-28932142D01*
X210700000Y-28789285D01*
X210747619Y-28741666D01*
X210747619Y-28360714D02*
X210700000Y-28313095D01*
X210652380Y-28217857D01*
X210652380Y-27979761D01*
X210700000Y-27884523D01*
X210747619Y-27836904D01*
X210842857Y-27789285D01*
X210938095Y-27789285D01*
X211080952Y-27836904D01*
X211652380Y-28408333D01*
X211652380Y-27789285D01*
%TO.C,C1*%
X209176142Y-28741666D02*
X209223761Y-28789285D01*
X209271380Y-28932142D01*
X209271380Y-29027380D01*
X209223761Y-29170238D01*
X209128523Y-29265476D01*
X209033285Y-29313095D01*
X208842809Y-29360714D01*
X208699952Y-29360714D01*
X208509476Y-29313095D01*
X208414238Y-29265476D01*
X208319000Y-29170238D01*
X208271380Y-29027380D01*
X208271380Y-28932142D01*
X208319000Y-28789285D01*
X208366619Y-28741666D01*
X209271380Y-27789285D02*
X209271380Y-28360714D01*
X209271380Y-28075000D02*
X208271380Y-28075000D01*
X208414238Y-28170238D01*
X208509476Y-28265476D01*
X208557095Y-28360714D01*
%TD*%
M02*
