M48
; DRILL file {KiCad (5.1.6)-1} date 07/25/20 19:20:48
; FORMAT={-:-/ absolute / inch / decimal}
; #@! TF.CreationDate,2020-07-25T19:20:48-04:00
; #@! TF.GenerationSoftware,Kicad,Pcbnew,(5.1.6)-1
; #@! TF.FileFunction,Plated,1,2,PTH
FMAT,2
INCH
T1C0.0157
T2C0.0579
T3C0.0591
%
G90
G05
T1
X3.5848Y-3.9512
X6.0462Y-3.4617
X6.2037Y-3.6434
X7.0228Y-3.6753
X8.28Y-1.0262
X8.3861Y-0.9325
X8.4803Y-1.0465
X9.0903Y-2.0384
X9.9627Y-2.0378
X10.5938Y-2.0387
X11.3853Y-2.0389
X11.5858Y-3.374
X12.6653Y-2.6493
X12.7828Y-2.6572
X12.8622Y-3.7465
X13.345Y-2.6572
X13.4789Y-3.5707
X13.4816Y-4.1768
X13.4824Y-4.2192
X13.5401Y-4.1434
X13.5708Y-4.1184
X13.5892Y-3.8765
X13.61Y-4.1008
X13.6903Y-4.0086
X13.8126Y-3.9909
X13.8176Y-4.2157
X13.8291Y-3.5563
X13.8383Y-3.9248
X13.8783Y-4.2192
X13.9234Y-3.8084
X13.9973Y-3.7698
X14.0355Y-4.0909
X14.0364Y-3.8901
X14.0366Y-3.7667
X14.0618Y-3.9603
X14.0816Y-3.8817
X14.1136Y-3.0977
X14.1147Y-4.2154
X14.1169Y-4.0659
X14.1298Y-3.9011
X14.2113Y-3.5028
X14.2466Y-4.0549
X14.3045Y-4.1032
X14.4235Y-4.0904
X14.4316Y-3.9297
X14.684Y-3.9328
X14.7325Y-4.4999
X14.8132Y-3.9189
X14.8214Y-3.9901
X14.8412Y-4.026
T2
X6.8813Y-5.3375
X7.1313Y-5.2375
T3
X2.9437Y-3.8375
X3.1937Y-3.7375
X4.4437Y-3.8375
X4.6937Y-3.7375
X5.3813Y-1.4
X5.6313Y-1.3
X9.6937Y-3.8375
X9.9437Y-3.7375
X3.1313Y-1.4
X3.3813Y-1.3
X3.3187Y-4.5875
X3.5687Y-4.4875
X11.9437Y-5.3375
X12.1937Y-5.2375
X8.0063Y-1.4
X8.2563Y-1.3
X14.5687Y-5.3375
X14.8187Y-5.2375
X11.9437Y-3.0875
X12.1937Y-2.9875
X3.8813Y-2.3375
X4.1313Y-2.2375
X2.7563Y-3.0875
X3.0063Y-2.9875
X8.0063Y-3.0875
X8.2563Y-2.9875
X3.1313Y-2.3375
X3.3813Y-2.2375
X14.5687Y-2.3375
X14.8187Y-2.2375
X7.4437Y-3.8375
X7.6937Y-3.7375
X1.9125Y-3.8375
X2.1625Y-3.7375
X13.0687Y-5.3375
X13.3187Y-5.2375
X4.8187Y-4.5875
X5.0687Y-4.4875
X1.8187Y-5.3375
X2.0687Y-5.2375
X8.7563Y-1.4
X9.0063Y-1.3
X13.8187Y-3.0875
X14.0687Y-2.9875
X5.3813Y-2.3375
X5.6313Y-2.2375
X9.3187Y-4.5875
X9.5687Y-4.4875
X13.0687Y-3.0875
X13.3187Y-2.9875
X1.8187Y-3.0875
X2.0687Y-2.9875
X8.7563Y-3.0875
X9.0063Y-2.9875
X3.6937Y-3.8375
X3.9437Y-3.7375
X8.9437Y-3.8375
X9.1937Y-3.7375
X10.0687Y-4.5875
X10.3187Y-4.4875
X6.3187Y-4.5875
X6.5687Y-4.4875
X10.6313Y-1.4
X10.8813Y-1.3
X13.0687Y-2.3375
X13.3187Y-2.2375
X6.1313Y-2.3375
X6.3813Y-2.2375
X6.5063Y-3.0875
X6.7563Y-2.9875
X4.6313Y-2.3375
X4.8813Y-2.2375
X9.8813Y-1.4
X10.1313Y-1.3
X14.5687Y-3.0875
X14.8187Y-2.9875
X5.1937Y-3.8375
X5.4437Y-3.7375
X4.0687Y-4.5875
X4.3187Y-4.4875
X7.8187Y-4.5875
X8.0687Y-4.4875
X1.6313Y-1.4
X1.8813Y-1.3
X11.0063Y-5.3375
X11.2563Y-5.2375
X11.3813Y-1.4
X11.6313Y-1.3
X10.6313Y-2.3375
X10.8813Y-2.2375
X6.8813Y-2.3375
X7.1313Y-2.2375
X4.2563Y-3.0875
X4.5063Y-2.9875
X10.2563Y-3.0875
X10.5063Y-2.9875
X7.6313Y-2.3375
X7.8813Y-2.2375
X8.1937Y-3.8375
X8.4437Y-3.7375
X2.1Y-4.5875
X2.35Y-4.4875
X13.8187Y-5.3375
X14.0687Y-5.2375
X8.5687Y-4.5875
X8.8187Y-4.4875
X3.8813Y-1.4
X4.1313Y-1.3
X13.0687Y-1.4
X13.3187Y-1.3
X2.7563Y-5.3375
X3.0063Y-5.2375
X13.8187Y-1.4
X14.0687Y-1.3
X8.3813Y-2.3375
X8.6313Y-2.2375
X5.0063Y-3.0875
X5.2563Y-2.9875
X9.5063Y-3.0875
X9.7563Y-2.9875
X12.1313Y-1.4
X12.3813Y-1.3
X6.6937Y-3.8375
X6.9437Y-3.7375
X5.5687Y-4.5875
X5.8187Y-4.4875
X10.4437Y-3.8375
X10.6937Y-3.7375
X11.475Y-4.5875
X11.725Y-4.4875
X4.6313Y-1.4
X4.8813Y-1.3
X3.6937Y-5.3375
X3.9437Y-5.2375
X14.5687Y-1.4
X14.8187Y-1.3
X1.6313Y-2.3375
X1.8813Y-2.2375
X9.1313Y-2.3375
X9.3813Y-2.2375
X5.7563Y-3.0875
X6.0063Y-2.9875
X11.0063Y-3.0875
X11.2563Y-2.9875
X3.5063Y-3.0875
X3.7563Y-2.9875
X5.9437Y-3.8375
X6.1937Y-3.7375
X7.0687Y-4.5875
X7.3187Y-4.4875
X11.6625Y-3.8375
X11.9125Y-3.7375
X13.8187Y-4.5875
X14.0687Y-4.4875
X7.2563Y-1.4
X7.5063Y-1.3
X10.0687Y-5.3375
X10.3187Y-5.2375
X11.7563Y-2.3375
X12.0063Y-2.2375
X2.3813Y-2.3375
X2.6313Y-2.2375
X13.8187Y-2.3375
X14.0687Y-2.2375
X7.2563Y-3.0875
X7.5063Y-2.9875
X6.5063Y-1.4
X6.7563Y-1.3
X9.8813Y-2.3375
X10.1313Y-2.2375
T0
M30
