  0
SECTION
  2
HEADER
  9
$ANGBASE
  50
0.0
  9
$ANGDIR
  70
1
  9
$MEASUREMENT
  70
0
  0
ENDSEC
  0
SECTION
  2
TABLES
  0
TABLE
  2
LTYPE
  70
4
  0
LTYPE
  5
40F
  2
CONTINUOUS
  70
0
  3
Solid line
  72
65
  73
0
  40
0.0
  0
LTYPE
  5
410
  2
DASHDOT
 70
0
  3
Dash Dot ____ _ ____ _
 72
65
 73
4
 40
2.0
 49
1.25
 49
-0.25
 49
0.25
 49
-0.25
  0
LTYPE
  5
411
  2
DASHED
 70
0
  3
Dashed __ __ __ __ __
 72
65
 73
2
 40
0.75
 49
0.5
 49
-0.25
  0
LTYPE
  5
43B
  2
DOTTED
 70
0
  3
Dotted .  .  .  .
 72
65
 73
2
 40
0.2
 49
0.0
 49
-0.2
  0
ENDTAB
  0
TABLE
  2
STYLE
  70
4
  0
STYLE
  2
KICAD
  70
0
  40
0
  41
1
  42
1
  50
0
  71
0
  3
isocp.shx
  0
STYLE
  2
KICADB
  70
0
  40
0
  41
1
  42
1
  50
0
  71
0
  3
isocp.shx
  0
STYLE
  2
KICADI
  70
0
  40
0
  41
1
  42
1
  50
15
  71
0
  3
isocp.shx
  0
STYLE
  2
KICADBI
  70
0
  40
0
  41
1
  42
1
  50
15
  71
0
  3
isocp.shx
  0
ENDTAB
  0
TABLE
  2
LAYER
  70
1
  0
LAYER
  2
BLACK
  70
0
  62
7
  6
CONTINUOUS
  0
ENDTAB
  0
ENDSEC
  0
SECTION
  2
ENTITIES
0
LINE
8
BLACK
6
CONTINUOUS
10
18.6616
20
-14.8027
11
18.6616
21
-16.0626
0
LINE
8
BLACK
6
CONTINUOUS
10
18.6616
20
-16.0626
11
22.9136
21
-16.0626
0
LINE
8
BLACK
6
CONTINUOUS
10
22.9136
20
-16.0626
11
22.9136
21
-14.8027
0
LINE
8
BLACK
6
CONTINUOUS
10
22.9136
20
-14.8027
11
18.6616
21
-14.8027
0
LINE
8
BLACK
6
CONTINUOUS
10
0.393701
20
-0.393701
11
0.393701
21
-16.1413
0
LINE
8
BLACK
6
CONTINUOUS
10
0.393701
20
-16.1413
11
22.9923
21
-16.1413
0
LINE
8
BLACK
6
CONTINUOUS
10
22.9923
20
-16.1413
11
22.9923
21
-0.393701
0
LINE
8
BLACK
6
CONTINUOUS
10
22.9923
20
-0.393701
11
0.393701
21
-0.393701
0
LINE
8
BLACK
6
CONTINUOUS
10
0.472441
20
-0.472441
11
0.472441
21
-16.0626
0
LINE
8
BLACK
6
CONTINUOUS
10
0.472441
20
-16.0626
11
22.9136
21
-16.0626
0
LINE
8
BLACK
6
CONTINUOUS
10
22.9136
20
-16.0626
11
22.9136
21
-0.472441
0
LINE
8
BLACK
6
CONTINUOUS
10
22.9136
20
-0.472441
11
0.472441
21
-0.472441
0
LINE
8
BLACK
6
CONTINUOUS
10
2.3622
20
-0.472441
11
2.3622
21
-0.393701
0
LINE
8
BLACK
6
CONTINUOUS
10
4.33071
20
-0.472441
11
4.33071
21
-0.393701
0
LINE
8
BLACK
6
CONTINUOUS
10
6.29921
20
-0.472441
11
6.29921
21
-0.393701
0
LINE
8
BLACK
6
CONTINUOUS
10
8.26772
20
-0.472441
11
8.26772
21
-0.393701
0
LINE
8
BLACK
6
CONTINUOUS
10
10.2362
20
-0.472441
11
10.2362
21
-0.393701
0
LINE
8
BLACK
6
CONTINUOUS
10
12.2047
20
-0.472441
11
12.2047
21
-0.393701
0
LINE
8
BLACK
6
CONTINUOUS
10
14.1732
20
-0.472441
11
14.1732
21
-0.393701
0
LINE
8
BLACK
6
CONTINUOUS
10
16.1417
20
-0.472441
11
16.1417
21
-0.393701
0
LINE
8
BLACK
6
CONTINUOUS
10
18.1102
20
-0.472441
11
18.1102
21
-0.393701
0
LINE
8
BLACK
6
CONTINUOUS
10
20.0787
20
-0.472441
11
20.0787
21
-0.393701
0
LINE
8
BLACK
6
CONTINUOUS
10
22.0472
20
-0.472441
11
22.0472
21
-0.393701
0
LINE
8
BLACK
6
CONTINUOUS
10
1.4199
20
-0.456224
11
1.39065
21
-0.456224
0
LINE
8
BLACK
6
CONTINUOUS
10
1.40528
20
-0.456224
11
1.40528
21
-0.405043
0
LINE
8
BLACK
6
CONTINUOUS
10
1.40528
20
-0.405043
11
1.4004
21
-0.412355
0
LINE
8
BLACK
6
CONTINUOUS
10
1.4004
20
-0.412355
11
1.39553
21
-0.417229
0
LINE
8
BLACK
6
CONTINUOUS
10
1.39553
20
-0.417229
11
1.39065
21
-0.419666
0
LINE
8
BLACK
6
CONTINUOUS
10
3.35916
20
-0.409917
11
3.3616
21
-0.40748
0
LINE
8
BLACK
6
CONTINUOUS
10
3.3616
20
-0.40748
11
3.36647
21
-0.405043
0
LINE
8
BLACK
6
CONTINUOUS
10
3.36647
20
-0.405043
11
3.37866
21
-0.405043
0
LINE
8
BLACK
6
CONTINUOUS
10
3.37866
20
-0.405043
11
3.38353
21
-0.40748
0
LINE
8
BLACK
6
CONTINUOUS
10
3.38353
20
-0.40748
11
3.38597
21
-0.409917
0
LINE
8
BLACK
6
CONTINUOUS
10
3.38597
20
-0.409917
11
3.3884
21
-0.414792
0
LINE
8
BLACK
6
CONTINUOUS
10
3.3884
20
-0.414792
11
3.3884
21
-0.419666
0
LINE
8
BLACK
6
CONTINUOUS
10
3.3884
20
-0.419666
11
3.38597
21
-0.426978
0
LINE
8
BLACK
6
CONTINUOUS
10
3.38597
20
-0.426978
11
3.35672
21
-0.456224
0
LINE
8
BLACK
6
CONTINUOUS
10
3.35672
20
-0.456224
11
3.3884
21
-0.456224
0
LINE
8
BLACK
6
CONTINUOUS
10
5.32522
20
-0.405043
11
5.35691
21
-0.405043
0
LINE
8
BLACK
6
CONTINUOUS
10
5.35691
20
-0.405043
11
5.33985
21
-0.424541
0
LINE
8
BLACK
6
CONTINUOUS
10
5.33985
20
-0.424541
11
5.34716
21
-0.424541
0
LINE
8
BLACK
6
CONTINUOUS
10
5.34716
20
-0.424541
11
5.35203
21
-0.426978
0
LINE
8
BLACK
6
CONTINUOUS
10
5.35203
20
-0.426978
11
5.35447
21
-0.429415
0
LINE
8
BLACK
6
CONTINUOUS
10
5.35447
20
-0.429415
11
5.35691
21
-0.434289
0
LINE
8
BLACK
6
CONTINUOUS
10
5.35691
20
-0.434289
11
5.35691
21
-0.446475
0
LINE
8
BLACK
6
CONTINUOUS
10
5.35691
20
-0.446475
11
5.35447
21
-0.45135
0
LINE
8
BLACK
6
CONTINUOUS
10
5.35447
20
-0.45135
11
5.35203
21
-0.453787
0
LINE
8
BLACK
6
CONTINUOUS
10
5.35203
20
-0.453787
11
5.34716
21
-0.456224
0
LINE
8
BLACK
6
CONTINUOUS
10
5.34716
20
-0.456224
11
5.33254
21
-0.456224
0
LINE
8
BLACK
6
CONTINUOUS
10
5.33254
20
-0.456224
11
5.32766
21
-0.453787
0
LINE
8
BLACK
6
CONTINUOUS
10
5.32766
20
-0.453787
11
5.32522
21
-0.45135
0
LINE
8
BLACK
6
CONTINUOUS
10
7.32054
20
-0.422103
11
7.32054
21
-0.456224
0
LINE
8
BLACK
6
CONTINUOUS
10
7.30835
20
-0.402606
11
7.29617
21
-0.439164
0
LINE
8
BLACK
6
CONTINUOUS
10
7.29617
20
-0.439164
11
7.32785
21
-0.439164
0
LINE
8
BLACK
6
CONTINUOUS
10
9.29148
20
-0.405043
11
9.26711
21
-0.405043
0
LINE
8
BLACK
6
CONTINUOUS
10
9.26711
20
-0.405043
11
9.26467
21
-0.429415
0
LINE
8
BLACK
6
CONTINUOUS
10
9.26467
20
-0.429415
11
9.26711
21
-0.426978
0
LINE
8
BLACK
6
CONTINUOUS
10
9.26711
20
-0.426978
11
9.27198
21
-0.424541
0
LINE
8
BLACK
6
CONTINUOUS
10
9.27198
20
-0.424541
11
9.28417
21
-0.424541
0
LINE
8
BLACK
6
CONTINUOUS
10
9.28417
20
-0.424541
11
9.28904
21
-0.426978
0
LINE
8
BLACK
6
CONTINUOUS
10
9.28904
20
-0.426978
11
9.29148
21
-0.429415
0
LINE
8
BLACK
6
CONTINUOUS
10
9.29148
20
-0.429415
11
9.29392
21
-0.434289
0
LINE
8
BLACK
6
CONTINUOUS
10
9.29392
20
-0.434289
11
9.29392
21
-0.446475
0
LINE
8
BLACK
6
CONTINUOUS
10
9.29392
20
-0.446475
11
9.29148
21
-0.45135
0
LINE
8
BLACK
6
CONTINUOUS
10
9.29148
20
-0.45135
11
9.28904
21
-0.453787
0
LINE
8
BLACK
6
CONTINUOUS
10
9.28904
20
-0.453787
11
9.28417
21
-0.456224
0
LINE
8
BLACK
6
CONTINUOUS
10
9.28417
20
-0.456224
11
9.27198
21
-0.456224
0
LINE
8
BLACK
6
CONTINUOUS
10
9.27198
20
-0.456224
11
9.26711
21
-0.453787
0
LINE
8
BLACK
6
CONTINUOUS
10
9.26711
20
-0.453787
11
9.26467
21
-0.45135
0
LINE
8
BLACK
6
CONTINUOUS
10
11.2575
20
-0.405043
11
11.2478
21
-0.405043
0
LINE
8
BLACK
6
CONTINUOUS
10
11.2478
20
-0.405043
11
11.2429
21
-0.40748
0
LINE
8
BLACK
6
CONTINUOUS
10
11.2429
20
-0.40748
11
11.2405
21
-0.409917
0
LINE
8
BLACK
6
CONTINUOUS
10
11.2405
20
-0.409917
11
11.2356
21
-0.417229
0
LINE
8
BLACK
6
CONTINUOUS
10
11.2356
20
-0.417229
11
11.2332
21
-0.426978
0
LINE
8
BLACK
6
CONTINUOUS
10
11.2332
20
-0.426978
11
11.2332
21
-0.446475
0
LINE
8
BLACK
6
CONTINUOUS
10
11.2332
20
-0.446475
11
11.2356
21
-0.45135
0
LINE
8
BLACK
6
CONTINUOUS
10
11.2356
20
-0.45135
11
11.238
21
-0.453787
0
LINE
8
BLACK
6
CONTINUOUS
10
11.238
20
-0.453787
11
11.2429
21
-0.456224
0
LINE
8
BLACK
6
CONTINUOUS
10
11.2429
20
-0.456224
11
11.2527
21
-0.456224
0
LINE
8
BLACK
6
CONTINUOUS
10
11.2527
20
-0.456224
11
11.2575
21
-0.453787
0
LINE
8
BLACK
6
CONTINUOUS
10
11.2575
20
-0.453787
11
11.26
21
-0.45135
0
LINE
8
BLACK
6
CONTINUOUS
10
11.26
20
-0.45135
11
11.2624
21
-0.446475
0
LINE
8
BLACK
6
CONTINUOUS
10
11.2624
20
-0.446475
11
11.2624
21
-0.434289
0
LINE
8
BLACK
6
CONTINUOUS
10
11.2624
20
-0.434289
11
11.26
21
-0.429415
0
LINE
8
BLACK
6
CONTINUOUS
10
11.26
20
-0.429415
11
11.2575
21
-0.426978
0
LINE
8
BLACK
6
CONTINUOUS
10
11.2575
20
-0.426978
11
11.2527
21
-0.424541
0
LINE
8
BLACK
6
CONTINUOUS
10
11.2527
20
-0.424541
11
11.2429
21
-0.424541
0
LINE
8
BLACK
6
CONTINUOUS
10
11.2429
20
-0.424541
11
11.238
21
-0.426978
0
LINE
8
BLACK
6
CONTINUOUS
10
11.238
20
-0.426978
11
11.2356
21
-0.429415
0
LINE
8
BLACK
6
CONTINUOUS
10
11.2356
20
-0.429415
11
11.2332
21
-0.434289
0
LINE
8
BLACK
6
CONTINUOUS
10
13.1992
20
-0.405043
11
13.2334
21
-0.405043
0
LINE
8
BLACK
6
CONTINUOUS
10
13.2334
20
-0.405043
11
13.2114
21
-0.456224
0
LINE
8
BLACK
6
CONTINUOUS
10
15.1799
20
-0.426978
11
15.1751
21
-0.424541
0
LINE
8
BLACK
6
CONTINUOUS
10
15.1751
20
-0.424541
11
15.1726
21
-0.422103
0
LINE
8
BLACK
6
CONTINUOUS
10
15.1726
20
-0.422103
11
15.1702
21
-0.417229
0
LINE
8
BLACK
6
CONTINUOUS
10
15.1702
20
-0.417229
11
15.1702
21
-0.414792
0
LINE
8
BLACK
6
CONTINUOUS
10
15.1702
20
-0.414792
11
15.1726
21
-0.409917
0
LINE
8
BLACK
6
CONTINUOUS
10
15.1726
20
-0.409917
11
15.1751
21
-0.40748
0
LINE
8
BLACK
6
CONTINUOUS
10
15.1751
20
-0.40748
11
15.1799
21
-0.405043
0
LINE
8
BLACK
6
CONTINUOUS
10
15.1799
20
-0.405043
11
15.1897
21
-0.405043
0
LINE
8
BLACK
6
CONTINUOUS
10
15.1897
20
-0.405043
11
15.1946
21
-0.40748
0
LINE
8
BLACK
6
CONTINUOUS
10
15.1946
20
-0.40748
11
15.197
21
-0.409917
0
LINE
8
BLACK
6
CONTINUOUS
10
15.197
20
-0.409917
11
15.1994
21
-0.414792
0
LINE
8
BLACK
6
CONTINUOUS
10
15.1994
20
-0.414792
11
15.1994
21
-0.417229
0
LINE
8
BLACK
6
CONTINUOUS
10
15.1994
20
-0.417229
11
15.197
21
-0.422103
0
LINE
8
BLACK
6
CONTINUOUS
10
15.197
20
-0.422103
11
15.1946
21
-0.424541
0
LINE
8
BLACK
6
CONTINUOUS
10
15.1946
20
-0.424541
11
15.1897
21
-0.426978
0
LINE
8
BLACK
6
CONTINUOUS
10
15.1897
20
-0.426978
11
15.1799
21
-0.426978
0
LINE
8
BLACK
6
CONTINUOUS
10
15.1799
20
-0.426978
11
15.1751
21
-0.429415
0
LINE
8
BLACK
6
CONTINUOUS
10
15.1751
20
-0.429415
11
15.1726
21
-0.431852
0
LINE
8
BLACK
6
CONTINUOUS
10
15.1726
20
-0.431852
11
15.1702
21
-0.436727
0
LINE
8
BLACK
6
CONTINUOUS
10
15.1702
20
-0.436727
11
15.1702
21
-0.446475
0
LINE
8
BLACK
6
CONTINUOUS
10
15.1702
20
-0.446475
11
15.1726
21
-0.45135
0
LINE
8
BLACK
6
CONTINUOUS
10
15.1726
20
-0.45135
11
15.1751
21
-0.453787
0
LINE
8
BLACK
6
CONTINUOUS
10
15.1751
20
-0.453787
11
15.1799
21
-0.456224
0
LINE
8
BLACK
6
CONTINUOUS
10
15.1799
20
-0.456224
11
15.1897
21
-0.456224
0
LINE
8
BLACK
6
CONTINUOUS
10
15.1897
20
-0.456224
11
15.1946
21
-0.453787
0
LINE
8
BLACK
6
CONTINUOUS
10
15.1946
20
-0.453787
11
15.197
21
-0.45135
0
LINE
8
BLACK
6
CONTINUOUS
10
15.197
20
-0.45135
11
15.1994
21
-0.446475
0
LINE
8
BLACK
6
CONTINUOUS
10
15.1994
20
-0.446475
11
15.1994
21
-0.436727
0
LINE
8
BLACK
6
CONTINUOUS
10
15.1994
20
-0.436727
11
15.197
21
-0.431852
0
LINE
8
BLACK
6
CONTINUOUS
10
15.197
20
-0.431852
11
15.1946
21
-0.429415
0
LINE
8
BLACK
6
CONTINUOUS
10
15.1946
20
-0.429415
11
15.1897
21
-0.426978
0
LINE
8
BLACK
6
CONTINUOUS
10
17.1436
20
-0.456224
11
17.1533
21
-0.456224
0
LINE
8
BLACK
6
CONTINUOUS
10
17.1533
20
-0.456224
11
17.1582
21
-0.453787
0
LINE
8
BLACK
6
CONTINUOUS
10
17.1582
20
-0.453787
11
17.1606
21
-0.45135
0
LINE
8
BLACK
6
CONTINUOUS
10
17.1606
20
-0.45135
11
17.1655
21
-0.444038
0
LINE
8
BLACK
6
CONTINUOUS
10
17.1655
20
-0.444038
11
17.1679
21
-0.434289
0
LINE
8
BLACK
6
CONTINUOUS
10
17.1679
20
-0.434289
11
17.1679
21
-0.414792
0
LINE
8
BLACK
6
CONTINUOUS
10
17.1679
20
-0.414792
11
17.1655
21
-0.409917
0
LINE
8
BLACK
6
CONTINUOUS
10
17.1655
20
-0.409917
11
17.1631
21
-0.40748
0
LINE
8
BLACK
6
CONTINUOUS
10
17.1631
20
-0.40748
11
17.1582
21
-0.405043
0
LINE
8
BLACK
6
CONTINUOUS
10
17.1582
20
-0.405043
11
17.1484
21
-0.405043
0
LINE
8
BLACK
6
CONTINUOUS
10
17.1484
20
-0.405043
11
17.1436
21
-0.40748
0
LINE
8
BLACK
6
CONTINUOUS
10
17.1436
20
-0.40748
11
17.1411
21
-0.409917
0
LINE
8
BLACK
6
CONTINUOUS
10
17.1411
20
-0.409917
11
17.1387
21
-0.414792
0
LINE
8
BLACK
6
CONTINUOUS
10
17.1387
20
-0.414792
11
17.1387
21
-0.426978
0
LINE
8
BLACK
6
CONTINUOUS
10
17.1387
20
-0.426978
11
17.1411
21
-0.431852
0
LINE
8
BLACK
6
CONTINUOUS
10
17.1411
20
-0.431852
11
17.1436
21
-0.434289
0
LINE
8
BLACK
6
CONTINUOUS
10
17.1436
20
-0.434289
11
17.1484
21
-0.436727
0
LINE
8
BLACK
6
CONTINUOUS
10
17.1484
20
-0.436727
11
17.1582
21
-0.436727
0
LINE
8
BLACK
6
CONTINUOUS
10
17.1582
20
-0.436727
11
17.1631
21
-0.434289
0
LINE
8
BLACK
6
CONTINUOUS
10
17.1631
20
-0.434289
11
17.1655
21
-0.431852
0
LINE
8
BLACK
6
CONTINUOUS
10
17.1655
20
-0.431852
11
17.1679
21
-0.426978
0
LINE
8
BLACK
6
CONTINUOUS
10
19.1364
20
-0.456224
11
19.1072
21
-0.456224
0
LINE
8
BLACK
6
CONTINUOUS
10
19.1218
20
-0.456224
11
19.1218
21
-0.405043
0
LINE
8
BLACK
6
CONTINUOUS
10
19.1218
20
-0.405043
11
19.1169
21
-0.412355
0
LINE
8
BLACK
6
CONTINUOUS
10
19.1169
20
-0.412355
11
19.1121
21
-0.417229
0
LINE
8
BLACK
6
CONTINUOUS
10
19.1121
20
-0.417229
11
19.1072
21
-0.419666
0
LINE
8
BLACK
6
CONTINUOUS
10
19.1681
20
-0.405043
11
19.173
21
-0.405043
0
LINE
8
BLACK
6
CONTINUOUS
10
19.173
20
-0.405043
11
19.1779
21
-0.40748
0
LINE
8
BLACK
6
CONTINUOUS
10
19.1779
20
-0.40748
11
19.1803
21
-0.409917
0
LINE
8
BLACK
6
CONTINUOUS
10
19.1803
20
-0.409917
11
19.1827
21
-0.414792
0
LINE
8
BLACK
6
CONTINUOUS
10
19.1827
20
-0.414792
11
19.1852
21
-0.424541
0
LINE
8
BLACK
6
CONTINUOUS
10
19.1852
20
-0.424541
11
19.1852
21
-0.436727
0
LINE
8
BLACK
6
CONTINUOUS
10
19.1852
20
-0.436727
11
19.1827
21
-0.446475
0
LINE
8
BLACK
6
CONTINUOUS
10
19.1827
20
-0.446475
11
19.1803
21
-0.45135
0
LINE
8
BLACK
6
CONTINUOUS
10
19.1803
20
-0.45135
11
19.1779
21
-0.453787
0
LINE
8
BLACK
6
CONTINUOUS
10
19.1779
20
-0.453787
11
19.173
21
-0.456224
0
LINE
8
BLACK
6
CONTINUOUS
10
19.173
20
-0.456224
11
19.1681
21
-0.456224
0
LINE
8
BLACK
6
CONTINUOUS
10
19.1681
20
-0.456224
11
19.1632
21
-0.453787
0
LINE
8
BLACK
6
CONTINUOUS
10
19.1632
20
-0.453787
11
19.1608
21
-0.45135
0
LINE
8
BLACK
6
CONTINUOUS
10
19.1608
20
-0.45135
11
19.1584
21
-0.446475
0
LINE
8
BLACK
6
CONTINUOUS
10
19.1584
20
-0.446475
11
19.1559
21
-0.436727
0
LINE
8
BLACK
6
CONTINUOUS
10
19.1559
20
-0.436727
11
19.1559
21
-0.424541
0
LINE
8
BLACK
6
CONTINUOUS
10
19.1559
20
-0.424541
11
19.1584
21
-0.414792
0
LINE
8
BLACK
6
CONTINUOUS
10
19.1584
20
-0.414792
11
19.1608
21
-0.409917
0
LINE
8
BLACK
6
CONTINUOUS
10
19.1608
20
-0.409917
11
19.1632
21
-0.40748
0
LINE
8
BLACK
6
CONTINUOUS
10
19.1632
20
-0.40748
11
19.1681
21
-0.405043
0
LINE
8
BLACK
6
CONTINUOUS
10
21.1049
20
-0.456224
11
21.0757
21
-0.456224
0
LINE
8
BLACK
6
CONTINUOUS
10
21.0903
20
-0.456224
11
21.0903
21
-0.405043
0
LINE
8
BLACK
6
CONTINUOUS
10
21.0903
20
-0.405043
11
21.0854
21
-0.412355
0
LINE
8
BLACK
6
CONTINUOUS
10
21.0854
20
-0.412355
11
21.0806
21
-0.417229
0
LINE
8
BLACK
6
CONTINUOUS
10
21.0806
20
-0.417229
11
21.0757
21
-0.419666
0
LINE
8
BLACK
6
CONTINUOUS
10
21.1537
20
-0.456224
11
21.1244
21
-0.456224
0
LINE
8
BLACK
6
CONTINUOUS
10
21.1391
20
-0.456224
11
21.1391
21
-0.405043
0
LINE
8
BLACK
6
CONTINUOUS
10
21.1391
20
-0.405043
11
21.1342
21
-0.412355
0
LINE
8
BLACK
6
CONTINUOUS
10
21.1342
20
-0.412355
11
21.1293
21
-0.417229
0
LINE
8
BLACK
6
CONTINUOUS
10
21.1293
20
-0.417229
11
21.1244
21
-0.419666
0
LINE
8
BLACK
6
CONTINUOUS
10
2.3622
20
-16.0626
11
2.3622
21
-16.1413
0
LINE
8
BLACK
6
CONTINUOUS
10
4.33071
20
-16.0626
11
4.33071
21
-16.1413
0
LINE
8
BLACK
6
CONTINUOUS
10
6.29921
20
-16.0626
11
6.29921
21
-16.1413
0
LINE
8
BLACK
6
CONTINUOUS
10
8.26772
20
-16.0626
11
8.26772
21
-16.1413
0
LINE
8
BLACK
6
CONTINUOUS
10
10.2362
20
-16.0626
11
10.2362
21
-16.1413
0
LINE
8
BLACK
6
CONTINUOUS
10
12.2047
20
-16.0626
11
12.2047
21
-16.1413
0
LINE
8
BLACK
6
CONTINUOUS
10
14.1732
20
-16.0626
11
14.1732
21
-16.1413
0
LINE
8
BLACK
6
CONTINUOUS
10
16.1417
20
-16.0626
11
16.1417
21
-16.1413
0
LINE
8
BLACK
6
CONTINUOUS
10
18.1102
20
-16.0626
11
18.1102
21
-16.1413
0
LINE
8
BLACK
6
CONTINUOUS
10
20.0787
20
-16.0626
11
20.0787
21
-16.1413
0
LINE
8
BLACK
6
CONTINUOUS
10
22.0472
20
-16.0626
11
22.0472
21
-16.1413
0
LINE
8
BLACK
6
CONTINUOUS
10
1.4199
20
-16.1251
11
1.39065
21
-16.1251
0
LINE
8
BLACK
6
CONTINUOUS
10
1.40528
20
-16.1251
11
1.40528
21
-16.0739
0
LINE
8
BLACK
6
CONTINUOUS
10
1.40528
20
-16.0739
11
1.4004
21
-16.0812
0
LINE
8
BLACK
6
CONTINUOUS
10
1.4004
20
-16.0812
11
1.39553
21
-16.0861
0
LINE
8
BLACK
6
CONTINUOUS
10
1.39553
20
-16.0861
11
1.39065
21
-16.0885
0
LINE
8
BLACK
6
CONTINUOUS
10
3.35916
20
-16.0788
11
3.3616
21
-16.0763
0
LINE
8
BLACK
6
CONTINUOUS
10
3.3616
20
-16.0763
11
3.36647
21
-16.0739
0
LINE
8
BLACK
6
CONTINUOUS
10
3.36647
20
-16.0739
11
3.37866
21
-16.0739
0
LINE
8
BLACK
6
CONTINUOUS
10
3.37866
20
-16.0739
11
3.38353
21
-16.0763
0
LINE
8
BLACK
6
CONTINUOUS
10
3.38353
20
-16.0763
11
3.38597
21
-16.0788
0
LINE
8
BLACK
6
CONTINUOUS
10
3.38597
20
-16.0788
11
3.3884
21
-16.0837
0
LINE
8
BLACK
6
CONTINUOUS
10
3.3884
20
-16.0837
11
3.3884
21
-16.0885
0
LINE
8
BLACK
6
CONTINUOUS
10
3.3884
20
-16.0885
11
3.38597
21
-16.0958
0
LINE
8
BLACK
6
CONTINUOUS
10
3.38597
20
-16.0958
11
3.35672
21
-16.1251
0
LINE
8
BLACK
6
CONTINUOUS
10
3.35672
20
-16.1251
11
3.3884
21
-16.1251
0
LINE
8
BLACK
6
CONTINUOUS
10
5.32522
20
-16.0739
11
5.35691
21
-16.0739
0
LINE
8
BLACK
6
CONTINUOUS
10
5.35691
20
-16.0739
11
5.33985
21
-16.0934
0
LINE
8
BLACK
6
CONTINUOUS
10
5.33985
20
-16.0934
11
5.34716
21
-16.0934
0
LINE
8
BLACK
6
CONTINUOUS
10
5.34716
20
-16.0934
11
5.35203
21
-16.0958
0
LINE
8
BLACK
6
CONTINUOUS
10
5.35203
20
-16.0958
11
5.35447
21
-16.0983
0
LINE
8
BLACK
6
CONTINUOUS
10
5.35447
20
-16.0983
11
5.35691
21
-16.1031
0
LINE
8
BLACK
6
CONTINUOUS
10
5.35691
20
-16.1031
11
5.35691
21
-16.1153
0
LINE
8
BLACK
6
CONTINUOUS
10
5.35691
20
-16.1153
11
5.35447
21
-16.1202
0
LINE
8
BLACK
6
CONTINUOUS
10
5.35447
20
-16.1202
11
5.35203
21
-16.1226
0
LINE
8
BLACK
6
CONTINUOUS
10
5.35203
20
-16.1226
11
5.34716
21
-16.1251
0
LINE
8
BLACK
6
CONTINUOUS
10
5.34716
20
-16.1251
11
5.33254
21
-16.1251
0
LINE
8
BLACK
6
CONTINUOUS
10
5.33254
20
-16.1251
11
5.32766
21
-16.1226
0
LINE
8
BLACK
6
CONTINUOUS
10
5.32766
20
-16.1226
11
5.32522
21
-16.1202
0
LINE
8
BLACK
6
CONTINUOUS
10
7.32054
20
-16.091
11
7.32054
21
-16.1251
0
LINE
8
BLACK
6
CONTINUOUS
10
7.30835
20
-16.0715
11
7.29617
21
-16.108
0
LINE
8
BLACK
6
CONTINUOUS
10
7.29617
20
-16.108
11
7.32785
21
-16.108
0
LINE
8
BLACK
6
CONTINUOUS
10
9.29148
20
-16.0739
11
9.26711
21
-16.0739
0
LINE
8
BLACK
6
CONTINUOUS
10
9.26711
20
-16.0739
11
9.26467
21
-16.0983
0
LINE
8
BLACK
6
CONTINUOUS
10
9.26467
20
-16.0983
11
9.26711
21
-16.0958
0
LINE
8
BLACK
6
CONTINUOUS
10
9.26711
20
-16.0958
11
9.27198
21
-16.0934
0
LINE
8
BLACK
6
CONTINUOUS
10
9.27198
20
-16.0934
11
9.28417
21
-16.0934
0
LINE
8
BLACK
6
CONTINUOUS
10
9.28417
20
-16.0934
11
9.28904
21
-16.0958
0
LINE
8
BLACK
6
CONTINUOUS
10
9.28904
20
-16.0958
11
9.29148
21
-16.0983
0
LINE
8
BLACK
6
CONTINUOUS
10
9.29148
20
-16.0983
11
9.29392
21
-16.1031
0
LINE
8
BLACK
6
CONTINUOUS
10
9.29392
20
-16.1031
11
9.29392
21
-16.1153
0
LINE
8
BLACK
6
CONTINUOUS
10
9.29392
20
-16.1153
11
9.29148
21
-16.1202
0
LINE
8
BLACK
6
CONTINUOUS
10
9.29148
20
-16.1202
11
9.28904
21
-16.1226
0
LINE
8
BLACK
6
CONTINUOUS
10
9.28904
20
-16.1226
11
9.28417
21
-16.1251
0
LINE
8
BLACK
6
CONTINUOUS
10
9.28417
20
-16.1251
11
9.27198
21
-16.1251
0
LINE
8
BLACK
6
CONTINUOUS
10
9.27198
20
-16.1251
11
9.26711
21
-16.1226
0
LINE
8
BLACK
6
CONTINUOUS
10
9.26711
20
-16.1226
11
9.26467
21
-16.1202
0
LINE
8
BLACK
6
CONTINUOUS
10
11.2575
20
-16.0739
11
11.2478
21
-16.0739
0
LINE
8
BLACK
6
CONTINUOUS
10
11.2478
20
-16.0739
11
11.2429
21
-16.0763
0
LINE
8
BLACK
6
CONTINUOUS
10
11.2429
20
-16.0763
11
11.2405
21
-16.0788
0
LINE
8
BLACK
6
CONTINUOUS
10
11.2405
20
-16.0788
11
11.2356
21
-16.0861
0
LINE
8
BLACK
6
CONTINUOUS
10
11.2356
20
-16.0861
11
11.2332
21
-16.0958
0
LINE
8
BLACK
6
CONTINUOUS
10
11.2332
20
-16.0958
11
11.2332
21
-16.1153
0
LINE
8
BLACK
6
CONTINUOUS
10
11.2332
20
-16.1153
11
11.2356
21
-16.1202
0
LINE
8
BLACK
6
CONTINUOUS
10
11.2356
20
-16.1202
11
11.238
21
-16.1226
0
LINE
8
BLACK
6
CONTINUOUS
10
11.238
20
-16.1226
11
11.2429
21
-16.1251
0
LINE
8
BLACK
6
CONTINUOUS
10
11.2429
20
-16.1251
11
11.2527
21
-16.1251
0
LINE
8
BLACK
6
CONTINUOUS
10
11.2527
20
-16.1251
11
11.2575
21
-16.1226
0
LINE
8
BLACK
6
CONTINUOUS
10
11.2575
20
-16.1226
11
11.26
21
-16.1202
0
LINE
8
BLACK
6
CONTINUOUS
10
11.26
20
-16.1202
11
11.2624
21
-16.1153
0
LINE
8
BLACK
6
CONTINUOUS
10
11.2624
20
-16.1153
11
11.2624
21
-16.1031
0
LINE
8
BLACK
6
CONTINUOUS
10
11.2624
20
-16.1031
11
11.26
21
-16.0983
0
LINE
8
BLACK
6
CONTINUOUS
10
11.26
20
-16.0983
11
11.2575
21
-16.0958
0
LINE
8
BLACK
6
CONTINUOUS
10
11.2575
20
-16.0958
11
11.2527
21
-16.0934
0
LINE
8
BLACK
6
CONTINUOUS
10
11.2527
20
-16.0934
11
11.2429
21
-16.0934
0
LINE
8
BLACK
6
CONTINUOUS
10
11.2429
20
-16.0934
11
11.238
21
-16.0958
0
LINE
8
BLACK
6
CONTINUOUS
10
11.238
20
-16.0958
11
11.2356
21
-16.0983
0
LINE
8
BLACK
6
CONTINUOUS
10
11.2356
20
-16.0983
11
11.2332
21
-16.1031
0
LINE
8
BLACK
6
CONTINUOUS
10
13.1992
20
-16.0739
11
13.2334
21
-16.0739
0
LINE
8
BLACK
6
CONTINUOUS
10
13.2334
20
-16.0739
11
13.2114
21
-16.1251
0
LINE
8
BLACK
6
CONTINUOUS
10
15.1799
20
-16.0958
11
15.1751
21
-16.0934
0
LINE
8
BLACK
6
CONTINUOUS
10
15.1751
20
-16.0934
11
15.1726
21
-16.091
0
LINE
8
BLACK
6
CONTINUOUS
10
15.1726
20
-16.091
11
15.1702
21
-16.0861
0
LINE
8
BLACK
6
CONTINUOUS
10
15.1702
20
-16.0861
11
15.1702
21
-16.0837
0
LINE
8
BLACK
6
CONTINUOUS
10
15.1702
20
-16.0837
11
15.1726
21
-16.0788
0
LINE
8
BLACK
6
CONTINUOUS
10
15.1726
20
-16.0788
11
15.1751
21
-16.0763
0
LINE
8
BLACK
6
CONTINUOUS
10
15.1751
20
-16.0763
11
15.1799
21
-16.0739
0
LINE
8
BLACK
6
CONTINUOUS
10
15.1799
20
-16.0739
11
15.1897
21
-16.0739
0
LINE
8
BLACK
6
CONTINUOUS
10
15.1897
20
-16.0739
11
15.1946
21
-16.0763
0
LINE
8
BLACK
6
CONTINUOUS
10
15.1946
20
-16.0763
11
15.197
21
-16.0788
0
LINE
8
BLACK
6
CONTINUOUS
10
15.197
20
-16.0788
11
15.1994
21
-16.0837
0
LINE
8
BLACK
6
CONTINUOUS
10
15.1994
20
-16.0837
11
15.1994
21
-16.0861
0
LINE
8
BLACK
6
CONTINUOUS
10
15.1994
20
-16.0861
11
15.197
21
-16.091
0
LINE
8
BLACK
6
CONTINUOUS
10
15.197
20
-16.091
11
15.1946
21
-16.0934
0
LINE
8
BLACK
6
CONTINUOUS
10
15.1946
20
-16.0934
11
15.1897
21
-16.0958
0
LINE
8
BLACK
6
CONTINUOUS
10
15.1897
20
-16.0958
11
15.1799
21
-16.0958
0
LINE
8
BLACK
6
CONTINUOUS
10
15.1799
20
-16.0958
11
15.1751
21
-16.0983
0
LINE
8
BLACK
6
CONTINUOUS
10
15.1751
20
-16.0983
11
15.1726
21
-16.1007
0
LINE
8
BLACK
6
CONTINUOUS
10
15.1726
20
-16.1007
11
15.1702
21
-16.1056
0
LINE
8
BLACK
6
CONTINUOUS
10
15.1702
20
-16.1056
11
15.1702
21
-16.1153
0
LINE
8
BLACK
6
CONTINUOUS
10
15.1702
20
-16.1153
11
15.1726
21
-16.1202
0
LINE
8
BLACK
6
CONTINUOUS
10
15.1726
20
-16.1202
11
15.1751
21
-16.1226
0
LINE
8
BLACK
6
CONTINUOUS
10
15.1751
20
-16.1226
11
15.1799
21
-16.1251
0
LINE
8
BLACK
6
CONTINUOUS
10
15.1799
20
-16.1251
11
15.1897
21
-16.1251
0
LINE
8
BLACK
6
CONTINUOUS
10
15.1897
20
-16.1251
11
15.1946
21
-16.1226
0
LINE
8
BLACK
6
CONTINUOUS
10
15.1946
20
-16.1226
11
15.197
21
-16.1202
0
LINE
8
BLACK
6
CONTINUOUS
10
15.197
20
-16.1202
11
15.1994
21
-16.1153
0
LINE
8
BLACK
6
CONTINUOUS
10
15.1994
20
-16.1153
11
15.1994
21
-16.1056
0
LINE
8
BLACK
6
CONTINUOUS
10
15.1994
20
-16.1056
11
15.197
21
-16.1007
0
LINE
8
BLACK
6
CONTINUOUS
10
15.197
20
-16.1007
11
15.1946
21
-16.0983
0
LINE
8
BLACK
6
CONTINUOUS
10
15.1946
20
-16.0983
11
15.1897
21
-16.0958
0
LINE
8
BLACK
6
CONTINUOUS
10
17.1436
20
-16.1251
11
17.1533
21
-16.1251
0
LINE
8
BLACK
6
CONTINUOUS
10
17.1533
20
-16.1251
11
17.1582
21
-16.1226
0
LINE
8
BLACK
6
CONTINUOUS
10
17.1582
20
-16.1226
11
17.1606
21
-16.1202
0
LINE
8
BLACK
6
CONTINUOUS
10
17.1606
20
-16.1202
11
17.1655
21
-16.1129
0
LINE
8
BLACK
6
CONTINUOUS
10
17.1655
20
-16.1129
11
17.1679
21
-16.1031
0
LINE
8
BLACK
6
CONTINUOUS
10
17.1679
20
-16.1031
11
17.1679
21
-16.0837
0
LINE
8
BLACK
6
CONTINUOUS
10
17.1679
20
-16.0837
11
17.1655
21
-16.0788
0
LINE
8
BLACK
6
CONTINUOUS
10
17.1655
20
-16.0788
11
17.1631
21
-16.0763
0
LINE
8
BLACK
6
CONTINUOUS
10
17.1631
20
-16.0763
11
17.1582
21
-16.0739
0
LINE
8
BLACK
6
CONTINUOUS
10
17.1582
20
-16.0739
11
17.1484
21
-16.0739
0
LINE
8
BLACK
6
CONTINUOUS
10
17.1484
20
-16.0739
11
17.1436
21
-16.0763
0
LINE
8
BLACK
6
CONTINUOUS
10
17.1436
20
-16.0763
11
17.1411
21
-16.0788
0
LINE
8
BLACK
6
CONTINUOUS
10
17.1411
20
-16.0788
11
17.1387
21
-16.0837
0
LINE
8
BLACK
6
CONTINUOUS
10
17.1387
20
-16.0837
11
17.1387
21
-16.0958
0
LINE
8
BLACK
6
CONTINUOUS
10
17.1387
20
-16.0958
11
17.1411
21
-16.1007
0
LINE
8
BLACK
6
CONTINUOUS
10
17.1411
20
-16.1007
11
17.1436
21
-16.1031
0
LINE
8
BLACK
6
CONTINUOUS
10
17.1436
20
-16.1031
11
17.1484
21
-16.1056
0
LINE
8
BLACK
6
CONTINUOUS
10
17.1484
20
-16.1056
11
17.1582
21
-16.1056
0
LINE
8
BLACK
6
CONTINUOUS
10
17.1582
20
-16.1056
11
17.1631
21
-16.1031
0
LINE
8
BLACK
6
CONTINUOUS
10
17.1631
20
-16.1031
11
17.1655
21
-16.1007
0
LINE
8
BLACK
6
CONTINUOUS
10
17.1655
20
-16.1007
11
17.1679
21
-16.0958
0
LINE
8
BLACK
6
CONTINUOUS
10
19.1364
20
-16.1251
11
19.1072
21
-16.1251
0
LINE
8
BLACK
6
CONTINUOUS
10
19.1218
20
-16.1251
11
19.1218
21
-16.0739
0
LINE
8
BLACK
6
CONTINUOUS
10
19.1218
20
-16.0739
11
19.1169
21
-16.0812
0
LINE
8
BLACK
6
CONTINUOUS
10
19.1169
20
-16.0812
11
19.1121
21
-16.0861
0
LINE
8
BLACK
6
CONTINUOUS
10
19.1121
20
-16.0861
11
19.1072
21
-16.0885
0
LINE
8
BLACK
6
CONTINUOUS
10
19.1681
20
-16.0739
11
19.173
21
-16.0739
0
LINE
8
BLACK
6
CONTINUOUS
10
19.173
20
-16.0739
11
19.1779
21
-16.0763
0
LINE
8
BLACK
6
CONTINUOUS
10
19.1779
20
-16.0763
11
19.1803
21
-16.0788
0
LINE
8
BLACK
6
CONTINUOUS
10
19.1803
20
-16.0788
11
19.1827
21
-16.0837
0
LINE
8
BLACK
6
CONTINUOUS
10
19.1827
20
-16.0837
11
19.1852
21
-16.0934
0
LINE
8
BLACK
6
CONTINUOUS
10
19.1852
20
-16.0934
11
19.1852
21
-16.1056
0
LINE
8
BLACK
6
CONTINUOUS
10
19.1852
20
-16.1056
11
19.1827
21
-16.1153
0
LINE
8
BLACK
6
CONTINUOUS
10
19.1827
20
-16.1153
11
19.1803
21
-16.1202
0
LINE
8
BLACK
6
CONTINUOUS
10
19.1803
20
-16.1202
11
19.1779
21
-16.1226
0
LINE
8
BLACK
6
CONTINUOUS
10
19.1779
20
-16.1226
11
19.173
21
-16.1251
0
LINE
8
BLACK
6
CONTINUOUS
10
19.173
20
-16.1251
11
19.1681
21
-16.1251
0
LINE
8
BLACK
6
CONTINUOUS
10
19.1681
20
-16.1251
11
19.1632
21
-16.1226
0
LINE
8
BLACK
6
CONTINUOUS
10
19.1632
20
-16.1226
11
19.1608
21
-16.1202
0
LINE
8
BLACK
6
CONTINUOUS
10
19.1608
20
-16.1202
11
19.1584
21
-16.1153
0
LINE
8
BLACK
6
CONTINUOUS
10
19.1584
20
-16.1153
11
19.1559
21
-16.1056
0
LINE
8
BLACK
6
CONTINUOUS
10
19.1559
20
-16.1056
11
19.1559
21
-16.0934
0
LINE
8
BLACK
6
CONTINUOUS
10
19.1559
20
-16.0934
11
19.1584
21
-16.0837
0
LINE
8
BLACK
6
CONTINUOUS
10
19.1584
20
-16.0837
11
19.1608
21
-16.0788
0
LINE
8
BLACK
6
CONTINUOUS
10
19.1608
20
-16.0788
11
19.1632
21
-16.0763
0
LINE
8
BLACK
6
CONTINUOUS
10
19.1632
20
-16.0763
11
19.1681
21
-16.0739
0
LINE
8
BLACK
6
CONTINUOUS
10
21.1049
20
-16.1251
11
21.0757
21
-16.1251
0
LINE
8
BLACK
6
CONTINUOUS
10
21.0903
20
-16.1251
11
21.0903
21
-16.0739
0
LINE
8
BLACK
6
CONTINUOUS
10
21.0903
20
-16.0739
11
21.0854
21
-16.0812
0
LINE
8
BLACK
6
CONTINUOUS
10
21.0854
20
-16.0812
11
21.0806
21
-16.0861
0
LINE
8
BLACK
6
CONTINUOUS
10
21.0806
20
-16.0861
11
21.0757
21
-16.0885
0
LINE
8
BLACK
6
CONTINUOUS
10
21.1537
20
-16.1251
11
21.1244
21
-16.1251
0
LINE
8
BLACK
6
CONTINUOUS
10
21.1391
20
-16.1251
11
21.1391
21
-16.0739
0
LINE
8
BLACK
6
CONTINUOUS
10
21.1391
20
-16.0739
11
21.1342
21
-16.0812
0
LINE
8
BLACK
6
CONTINUOUS
10
21.1342
20
-16.0812
11
21.1293
21
-16.0861
0
LINE
8
BLACK
6
CONTINUOUS
10
21.1293
20
-16.0861
11
21.1244
21
-16.0885
0
LINE
8
BLACK
6
CONTINUOUS
10
0.393701
20
-2.3622
11
0.472441
21
-2.3622
0
LINE
8
BLACK
6
CONTINUOUS
10
0.393701
20
-4.33071
11
0.472441
21
-4.33071
0
LINE
8
BLACK
6
CONTINUOUS
10
0.393701
20
-6.29921
11
0.472441
21
-6.29921
0
LINE
8
BLACK
6
CONTINUOUS
10
0.393701
20
-8.26772
11
0.472441
21
-8.26772
0
LINE
8
BLACK
6
CONTINUOUS
10
0.393701
20
-10.2362
11
0.472441
21
-10.2362
0
LINE
8
BLACK
6
CONTINUOUS
10
0.393701
20
-12.2047
11
0.472441
21
-12.2047
0
LINE
8
BLACK
6
CONTINUOUS
10
0.393701
20
-14.1732
11
0.472441
21
-14.1732
0
LINE
8
BLACK
6
CONTINUOUS
10
0.420885
20
-1.38648
11
0.445257
21
-1.38648
0
LINE
8
BLACK
6
CONTINUOUS
10
0.41601
20
-1.40111
11
0.433071
21
-1.34993
0
LINE
8
BLACK
6
CONTINUOUS
10
0.433071
20
-1.34993
11
0.450131
21
-1.40111
0
LINE
8
BLACK
6
CONTINUOUS
10
0.436727
20
-3.3428
11
0.444038
21
-3.34524
0
LINE
8
BLACK
6
CONTINUOUS
10
0.444038
20
-3.34524
11
0.446475
21
-3.34768
0
LINE
8
BLACK
6
CONTINUOUS
10
0.446475
20
-3.34768
11
0.448913
21
-3.35255
0
LINE
8
BLACK
6
CONTINUOUS
10
0.448913
20
-3.35255
11
0.448913
21
-3.35986
0
LINE
8
BLACK
6
CONTINUOUS
10
0.448913
20
-3.35986
11
0.446475
21
-3.36474
0
LINE
8
BLACK
6
CONTINUOUS
10
0.446475
20
-3.36474
11
0.444038
21
-3.36717
0
LINE
8
BLACK
6
CONTINUOUS
10
0.444038
20
-3.36717
11
0.439164
21
-3.36961
0
LINE
8
BLACK
6
CONTINUOUS
10
0.439164
20
-3.36961
11
0.419666
21
-3.36961
0
LINE
8
BLACK
6
CONTINUOUS
10
0.419666
20
-3.36961
11
0.419666
21
-3.31843
0
LINE
8
BLACK
6
CONTINUOUS
10
0.419666
20
-3.31843
11
0.436727
21
-3.31843
0
LINE
8
BLACK
6
CONTINUOUS
10
0.436727
20
-3.31843
11
0.441601
21
-3.32087
0
LINE
8
BLACK
6
CONTINUOUS
10
0.441601
20
-3.32087
11
0.444038
21
-3.3233
0
LINE
8
BLACK
6
CONTINUOUS
10
0.444038
20
-3.3233
11
0.446475
21
-3.32818
0
LINE
8
BLACK
6
CONTINUOUS
10
0.446475
20
-3.32818
11
0.446475
21
-3.33305
0
LINE
8
BLACK
6
CONTINUOUS
10
0.446475
20
-3.33305
11
0.444038
21
-3.33793
0
LINE
8
BLACK
6
CONTINUOUS
10
0.444038
20
-3.33793
11
0.441601
21
-3.34036
0
LINE
8
BLACK
6
CONTINUOUS
10
0.441601
20
-3.34036
11
0.436727
21
-3.3428
0
LINE
8
BLACK
6
CONTINUOUS
10
0.436727
20
-3.3428
11
0.419666
21
-3.3428
0
LINE
8
BLACK
6
CONTINUOUS
10
0.448913
20
-5.33324
11
0.446475
21
-5.33568
0
LINE
8
BLACK
6
CONTINUOUS
10
0.446475
20
-5.33568
11
0.439164
21
-5.33811
0
LINE
8
BLACK
6
CONTINUOUS
10
0.439164
20
-5.33811
11
0.434289
21
-5.33811
0
LINE
8
BLACK
6
CONTINUOUS
10
0.434289
20
-5.33811
11
0.426978
21
-5.33568
0
LINE
8
BLACK
6
CONTINUOUS
10
0.426978
20
-5.33568
11
0.422103
21
-5.3308
0
LINE
8
BLACK
6
CONTINUOUS
10
0.422103
20
-5.3308
11
0.419666
21
-5.32593
0
LINE
8
BLACK
6
CONTINUOUS
10
0.419666
20
-5.32593
11
0.417229
21
-5.31618
0
LINE
8
BLACK
6
CONTINUOUS
10
0.417229
20
-5.31618
11
0.417229
21
-5.30887
0
LINE
8
BLACK
6
CONTINUOUS
10
0.417229
20
-5.30887
11
0.419666
21
-5.29912
0
LINE
8
BLACK
6
CONTINUOUS
10
0.419666
20
-5.29912
11
0.422103
21
-5.29424
0
LINE
8
BLACK
6
CONTINUOUS
10
0.422103
20
-5.29424
11
0.426978
21
-5.28937
0
LINE
8
BLACK
6
CONTINUOUS
10
0.426978
20
-5.28937
11
0.434289
21
-5.28693
0
LINE
8
BLACK
6
CONTINUOUS
10
0.434289
20
-5.28693
11
0.439164
21
-5.28693
0
LINE
8
BLACK
6
CONTINUOUS
10
0.439164
20
-5.28693
11
0.446475
21
-5.28937
0
LINE
8
BLACK
6
CONTINUOUS
10
0.446475
20
-5.28937
11
0.448913
21
-5.29181
0
LINE
8
BLACK
6
CONTINUOUS
10
0.419666
20
-7.30662
11
0.419666
21
-7.25544
0
LINE
8
BLACK
6
CONTINUOUS
10
0.419666
20
-7.25544
11
0.431852
21
-7.25544
0
LINE
8
BLACK
6
CONTINUOUS
10
0.431852
20
-7.25544
11
0.439164
21
-7.25787
0
LINE
8
BLACK
6
CONTINUOUS
10
0.439164
20
-7.25787
11
0.444038
21
-7.26275
0
LINE
8
BLACK
6
CONTINUOUS
10
0.444038
20
-7.26275
11
0.446475
21
-7.26762
0
LINE
8
BLACK
6
CONTINUOUS
10
0.446475
20
-7.26762
11
0.448913
21
-7.27737
0
LINE
8
BLACK
6
CONTINUOUS
10
0.448913
20
-7.27737
11
0.448913
21
-7.28468
0
LINE
8
BLACK
6
CONTINUOUS
10
0.448913
20
-7.28468
11
0.446475
21
-7.29443
0
LINE
8
BLACK
6
CONTINUOUS
10
0.446475
20
-7.29443
11
0.444038
21
-7.29931
0
LINE
8
BLACK
6
CONTINUOUS
10
0.444038
20
-7.29931
11
0.439164
21
-7.30418
0
LINE
8
BLACK
6
CONTINUOUS
10
0.439164
20
-7.30418
11
0.431852
21
-7.30662
0
LINE
8
BLACK
6
CONTINUOUS
10
0.431852
20
-7.30662
11
0.419666
21
-7.30662
0
LINE
8
BLACK
6
CONTINUOUS
10
0.422103
20
-9.24831
11
0.439164
21
-9.24831
0
LINE
8
BLACK
6
CONTINUOUS
10
0.446475
20
-9.27512
11
0.422103
21
-9.27512
0
LINE
8
BLACK
6
CONTINUOUS
10
0.422103
20
-9.27512
11
0.422103
21
-9.22394
0
LINE
8
BLACK
6
CONTINUOUS
10
0.422103
20
-9.22394
11
0.446475
21
-9.22394
0
LINE
8
BLACK
6
CONTINUOUS
10
0.440382
20
-11.2168
11
0.423322
21
-11.2168
0
LINE
8
BLACK
6
CONTINUOUS
10
0.423322
20
-11.2436
11
0.423322
21
-11.1924
0
LINE
8
BLACK
6
CONTINUOUS
10
0.423322
20
-11.1924
11
0.447694
21
-11.1924
0
LINE
8
BLACK
6
CONTINUOUS
10
0.446475
20
-13.1634
11
0.441601
21
-13.1609
0
LINE
8
BLACK
6
CONTINUOUS
10
0.441601
20
-13.1609
11
0.434289
21
-13.1609
0
LINE
8
BLACK
6
CONTINUOUS
10
0.434289
20
-13.1609
11
0.426978
21
-13.1634
0
LINE
8
BLACK
6
CONTINUOUS
10
0.426978
20
-13.1634
11
0.422103
21
-13.1683
0
LINE
8
BLACK
6
CONTINUOUS
10
0.422103
20
-13.1683
11
0.419666
21
-13.1731
0
LINE
8
BLACK
6
CONTINUOUS
10
0.419666
20
-13.1731
11
0.417229
21
-13.1829
0
LINE
8
BLACK
6
CONTINUOUS
10
0.417229
20
-13.1829
11
0.417229
21
-13.1902
0
LINE
8
BLACK
6
CONTINUOUS
10
0.417229
20
-13.1902
11
0.419666
21
-13.1999
0
LINE
8
BLACK
6
CONTINUOUS
10
0.419666
20
-13.1999
11
0.422103
21
-13.2048
0
LINE
8
BLACK
6
CONTINUOUS
10
0.422103
20
-13.2048
11
0.426978
21
-13.2097
0
LINE
8
BLACK
6
CONTINUOUS
10
0.426978
20
-13.2097
11
0.434289
21
-13.2121
0
LINE
8
BLACK
6
CONTINUOUS
10
0.434289
20
-13.2121
11
0.439164
21
-13.2121
0
LINE
8
BLACK
6
CONTINUOUS
10
0.439164
20
-13.2121
11
0.446475
21
-13.2097
0
LINE
8
BLACK
6
CONTINUOUS
10
0.446475
20
-13.2097
11
0.448913
21
-13.2073
0
LINE
8
BLACK
6
CONTINUOUS
10
0.448913
20
-13.2073
11
0.448913
21
-13.1902
0
LINE
8
BLACK
6
CONTINUOUS
10
0.448913
20
-13.1902
11
0.439164
21
-13.1902
0
LINE
8
BLACK
6
CONTINUOUS
10
0.418448
20
-15.1806
11
0.418448
21
-15.1295
0
LINE
8
BLACK
6
CONTINUOUS
10
0.418448
20
-15.1538
11
0.447694
21
-15.1538
0
LINE
8
BLACK
6
CONTINUOUS
10
0.447694
20
-15.1806
11
0.447694
21
-15.1295
0
LINE
8
BLACK
6
CONTINUOUS
10
22.9923
20
-2.3622
11
22.9136
21
-2.3622
0
LINE
8
BLACK
6
CONTINUOUS
10
22.9923
20
-4.33071
11
22.9136
21
-4.33071
0
LINE
8
BLACK
6
CONTINUOUS
10
22.9923
20
-6.29921
11
22.9136
21
-6.29921
0
LINE
8
BLACK
6
CONTINUOUS
10
22.9923
20
-8.26772
11
22.9136
21
-8.26772
0
LINE
8
BLACK
6
CONTINUOUS
10
22.9923
20
-10.2362
11
22.9136
21
-10.2362
0
LINE
8
BLACK
6
CONTINUOUS
10
22.9923
20
-12.2047
11
22.9136
21
-12.2047
0
LINE
8
BLACK
6
CONTINUOUS
10
22.9923
20
-14.1732
11
22.9136
21
-14.1732
0
LINE
8
BLACK
6
CONTINUOUS
10
22.9407
20
-1.38648
11
22.9651
21
-1.38648
0
LINE
8
BLACK
6
CONTINUOUS
10
22.9359
20
-1.40111
11
22.9529
21
-1.34993
0
LINE
8
BLACK
6
CONTINUOUS
10
22.9529
20
-1.34993
11
22.97
21
-1.40111
0
LINE
8
BLACK
6
CONTINUOUS
10
22.9566
20
-3.3428
11
22.9639
21
-3.34524
0
LINE
8
BLACK
6
CONTINUOUS
10
22.9639
20
-3.34524
11
22.9663
21
-3.34768
0
LINE
8
BLACK
6
CONTINUOUS
10
22.9663
20
-3.34768
11
22.9688
21
-3.35255
0
LINE
8
BLACK
6
CONTINUOUS
10
22.9688
20
-3.35255
11
22.9688
21
-3.35986
0
LINE
8
BLACK
6
CONTINUOUS
10
22.9688
20
-3.35986
11
22.9663
21
-3.36474
0
LINE
8
BLACK
6
CONTINUOUS
10
22.9663
20
-3.36474
11
22.9639
21
-3.36717
0
LINE
8
BLACK
6
CONTINUOUS
10
22.9639
20
-3.36717
11
22.959
21
-3.36961
0
LINE
8
BLACK
6
CONTINUOUS
10
22.959
20
-3.36961
11
22.9395
21
-3.36961
0
LINE
8
BLACK
6
CONTINUOUS
10
22.9395
20
-3.36961
11
22.9395
21
-3.31843
0
LINE
8
BLACK
6
CONTINUOUS
10
22.9395
20
-3.31843
11
22.9566
21
-3.31843
0
LINE
8
BLACK
6
CONTINUOUS
10
22.9566
20
-3.31843
11
22.9615
21
-3.32087
0
LINE
8
BLACK
6
CONTINUOUS
10
22.9615
20
-3.32087
11
22.9639
21
-3.3233
0
LINE
8
BLACK
6
CONTINUOUS
10
22.9639
20
-3.3233
11
22.9663
21
-3.32818
0
LINE
8
BLACK
6
CONTINUOUS
10
22.9663
20
-3.32818
11
22.9663
21
-3.33305
0
LINE
8
BLACK
6
CONTINUOUS
10
22.9663
20
-3.33305
11
22.9639
21
-3.33793
0
LINE
8
BLACK
6
CONTINUOUS
10
22.9639
20
-3.33793
11
22.9615
21
-3.34036
0
LINE
8
BLACK
6
CONTINUOUS
10
22.9615
20
-3.34036
11
22.9566
21
-3.3428
0
LINE
8
BLACK
6
CONTINUOUS
10
22.9566
20
-3.3428
11
22.9395
21
-3.3428
0
LINE
8
BLACK
6
CONTINUOUS
10
22.9688
20
-5.33324
11
22.9663
21
-5.33568
0
LINE
8
BLACK
6
CONTINUOUS
10
22.9663
20
-5.33568
11
22.959
21
-5.33811
0
LINE
8
BLACK
6
CONTINUOUS
10
22.959
20
-5.33811
11
22.9541
21
-5.33811
0
LINE
8
BLACK
6
CONTINUOUS
10
22.9541
20
-5.33811
11
22.9468
21
-5.33568
0
LINE
8
BLACK
6
CONTINUOUS
10
22.9468
20
-5.33568
11
22.942
21
-5.3308
0
LINE
8
BLACK
6
CONTINUOUS
10
22.942
20
-5.3308
11
22.9395
21
-5.32593
0
LINE
8
BLACK
6
CONTINUOUS
10
22.9395
20
-5.32593
11
22.9371
21
-5.31618
0
LINE
8
BLACK
6
CONTINUOUS
10
22.9371
20
-5.31618
11
22.9371
21
-5.30887
0
LINE
8
BLACK
6
CONTINUOUS
10
22.9371
20
-5.30887
11
22.9395
21
-5.29912
0
LINE
8
BLACK
6
CONTINUOUS
10
22.9395
20
-5.29912
11
22.942
21
-5.29424
0
LINE
8
BLACK
6
CONTINUOUS
10
22.942
20
-5.29424
11
22.9468
21
-5.28937
0
LINE
8
BLACK
6
CONTINUOUS
10
22.9468
20
-5.28937
11
22.9541
21
-5.28693
0
LINE
8
BLACK
6
CONTINUOUS
10
22.9541
20
-5.28693
11
22.959
21
-5.28693
0
LINE
8
BLACK
6
CONTINUOUS
10
22.959
20
-5.28693
11
22.9663
21
-5.28937
0
LINE
8
BLACK
6
CONTINUOUS
10
22.9663
20
-5.28937
11
22.9688
21
-5.29181
0
LINE
8
BLACK
6
CONTINUOUS
10
22.9395
20
-7.30662
11
22.9395
21
-7.25544
0
LINE
8
BLACK
6
CONTINUOUS
10
22.9395
20
-7.25544
11
22.9517
21
-7.25544
0
LINE
8
BLACK
6
CONTINUOUS
10
22.9517
20
-7.25544
11
22.959
21
-7.25787
0
LINE
8
BLACK
6
CONTINUOUS
10
22.959
20
-7.25787
11
22.9639
21
-7.26275
0
LINE
8
BLACK
6
CONTINUOUS
10
22.9639
20
-7.26275
11
22.9663
21
-7.26762
0
LINE
8
BLACK
6
CONTINUOUS
10
22.9663
20
-7.26762
11
22.9688
21
-7.27737
0
LINE
8
BLACK
6
CONTINUOUS
10
22.9688
20
-7.27737
11
22.9688
21
-7.28468
0
LINE
8
BLACK
6
CONTINUOUS
10
22.9688
20
-7.28468
11
22.9663
21
-7.29443
0
LINE
8
BLACK
6
CONTINUOUS
10
22.9663
20
-7.29443
11
22.9639
21
-7.29931
0
LINE
8
BLACK
6
CONTINUOUS
10
22.9639
20
-7.29931
11
22.959
21
-7.30418
0
LINE
8
BLACK
6
CONTINUOUS
10
22.959
20
-7.30418
11
22.9517
21
-7.30662
0
LINE
8
BLACK
6
CONTINUOUS
10
22.9517
20
-7.30662
11
22.9395
21
-7.30662
0
LINE
8
BLACK
6
CONTINUOUS
10
22.942
20
-9.24831
11
22.959
21
-9.24831
0
LINE
8
BLACK
6
CONTINUOUS
10
22.9663
20
-9.27512
11
22.942
21
-9.27512
0
LINE
8
BLACK
6
CONTINUOUS
10
22.942
20
-9.27512
11
22.942
21
-9.22394
0
LINE
8
BLACK
6
CONTINUOUS
10
22.942
20
-9.22394
11
22.9663
21
-9.22394
0
LINE
8
BLACK
6
CONTINUOUS
10
22.9602
20
-11.2168
11
22.9432
21
-11.2168
0
LINE
8
BLACK
6
CONTINUOUS
10
22.9432
20
-11.2436
11
22.9432
21
-11.1924
0
LINE
8
BLACK
6
CONTINUOUS
10
22.9432
20
-11.1924
11
22.9676
21
-11.1924
0
LINE
8
BLACK
6
CONTINUOUS
10
22.9663
20
-13.1634
11
22.9615
21
-13.1609
0
LINE
8
BLACK
6
CONTINUOUS
10
22.9615
20
-13.1609
11
22.9541
21
-13.1609
0
LINE
8
BLACK
6
CONTINUOUS
10
22.9541
20
-13.1609
11
22.9468
21
-13.1634
0
LINE
8
BLACK
6
CONTINUOUS
10
22.9468
20
-13.1634
11
22.942
21
-13.1683
0
LINE
8
BLACK
6
CONTINUOUS
10
22.942
20
-13.1683
11
22.9395
21
-13.1731
0
LINE
8
BLACK
6
CONTINUOUS
10
22.9395
20
-13.1731
11
22.9371
21
-13.1829
0
LINE
8
BLACK
6
CONTINUOUS
10
22.9371
20
-13.1829
11
22.9371
21
-13.1902
0
LINE
8
BLACK
6
CONTINUOUS
10
22.9371
20
-13.1902
11
22.9395
21
-13.1999
0
LINE
8
BLACK
6
CONTINUOUS
10
22.9395
20
-13.1999
11
22.942
21
-13.2048
0
LINE
8
BLACK
6
CONTINUOUS
10
22.942
20
-13.2048
11
22.9468
21
-13.2097
0
LINE
8
BLACK
6
CONTINUOUS
10
22.9468
20
-13.2097
11
22.9541
21
-13.2121
0
LINE
8
BLACK
6
CONTINUOUS
10
22.9541
20
-13.2121
11
22.959
21
-13.2121
0
LINE
8
BLACK
6
CONTINUOUS
10
22.959
20
-13.2121
11
22.9663
21
-13.2097
0
LINE
8
BLACK
6
CONTINUOUS
10
22.9663
20
-13.2097
11
22.9688
21
-13.2073
0
LINE
8
BLACK
6
CONTINUOUS
10
22.9688
20
-13.2073
11
22.9688
21
-13.1902
0
LINE
8
BLACK
6
CONTINUOUS
10
22.9688
20
-13.1902
11
22.959
21
-13.1902
0
LINE
8
BLACK
6
CONTINUOUS
10
22.9383
20
-15.1806
11
22.9383
21
-15.1295
0
LINE
8
BLACK
6
CONTINUOUS
10
22.9383
20
-15.1538
11
22.9676
21
-15.1538
0
LINE
8
BLACK
6
CONTINUOUS
10
22.9676
20
-15.1806
11
22.9676
21
-15.1295
0
LINE
8
BLACK
6
CONTINUOUS
10
19.5841
20
-15.8964
11
19.5841
21
-15.8373
0
LINE
8
BLACK
6
CONTINUOUS
10
19.5841
20
-15.8373
11
19.5982
21
-15.8373
0
LINE
8
BLACK
6
CONTINUOUS
10
19.5982
20
-15.8373
11
19.6066
21
-15.8401
0
LINE
8
BLACK
6
CONTINUOUS
10
19.6066
20
-15.8401
11
19.6122
21
-15.8457
0
LINE
8
BLACK
6
CONTINUOUS
10
19.6122
20
-15.8457
11
19.615
21
-15.8514
0
LINE
8
BLACK
6
CONTINUOUS
10
19.615
20
-15.8514
11
19.6179
21
-15.8626
0
LINE
8
BLACK
6
CONTINUOUS
10
19.6179
20
-15.8626
11
19.6179
21
-15.8711
0
LINE
8
BLACK
6
CONTINUOUS
10
19.6179
20
-15.8711
11
19.615
21
-15.8823
0
LINE
8
BLACK
6
CONTINUOUS
10
19.615
20
-15.8823
11
19.6122
21
-15.8879
0
LINE
8
BLACK
6
CONTINUOUS
10
19.6122
20
-15.8879
11
19.6066
21
-15.8935
0
LINE
8
BLACK
6
CONTINUOUS
10
19.6066
20
-15.8935
11
19.5982
21
-15.8964
0
LINE
8
BLACK
6
CONTINUOUS
10
19.5982
20
-15.8964
11
19.5841
21
-15.8964
0
LINE
8
BLACK
6
CONTINUOUS
10
19.6685
20
-15.8964
11
19.6685
21
-15.8654
0
LINE
8
BLACK
6
CONTINUOUS
10
19.6685
20
-15.8654
11
19.6657
21
-15.8598
0
LINE
8
BLACK
6
CONTINUOUS
10
19.6657
20
-15.8598
11
19.66
21
-15.857
0
LINE
8
BLACK
6
CONTINUOUS
10
19.66
20
-15.857
11
19.6488
21
-15.857
0
LINE
8
BLACK
6
CONTINUOUS
10
19.6488
20
-15.857
11
19.6432
21
-15.8598
0
LINE
8
BLACK
6
CONTINUOUS
10
19.6685
20
-15.8935
11
19.6629
21
-15.8964
0
LINE
8
BLACK
6
CONTINUOUS
10
19.6629
20
-15.8964
11
19.6488
21
-15.8964
0
LINE
8
BLACK
6
CONTINUOUS
10
19.6488
20
-15.8964
11
19.6432
21
-15.8935
0
LINE
8
BLACK
6
CONTINUOUS
10
19.6432
20
-15.8935
11
19.6404
21
-15.8879
0
LINE
8
BLACK
6
CONTINUOUS
10
19.6404
20
-15.8879
11
19.6404
21
-15.8823
0
LINE
8
BLACK
6
CONTINUOUS
10
19.6404
20
-15.8823
11
19.6432
21
-15.8767
0
LINE
8
BLACK
6
CONTINUOUS
10
19.6432
20
-15.8767
11
19.6488
21
-15.8739
0
LINE
8
BLACK
6
CONTINUOUS
10
19.6488
20
-15.8739
11
19.6629
21
-15.8739
0
LINE
8
BLACK
6
CONTINUOUS
10
19.6629
20
-15.8739
11
19.6685
21
-15.8711
0
LINE
8
BLACK
6
CONTINUOUS
10
19.6882
20
-15.857
11
19.7107
21
-15.857
0
LINE
8
BLACK
6
CONTINUOUS
10
19.6966
20
-15.8373
11
19.6966
21
-15.8879
0
LINE
8
BLACK
6
CONTINUOUS
10
19.6966
20
-15.8879
11
19.6994
21
-15.8935
0
LINE
8
BLACK
6
CONTINUOUS
10
19.6994
20
-15.8935
11
19.705
21
-15.8964
0
LINE
8
BLACK
6
CONTINUOUS
10
19.705
20
-15.8964
11
19.7107
21
-15.8964
0
LINE
8
BLACK
6
CONTINUOUS
10
19.7528
20
-15.8935
11
19.7472
21
-15.8964
0
LINE
8
BLACK
6
CONTINUOUS
10
19.7472
20
-15.8964
11
19.736
21
-15.8964
0
LINE
8
BLACK
6
CONTINUOUS
10
19.736
20
-15.8964
11
19.7303
21
-15.8935
0
LINE
8
BLACK
6
CONTINUOUS
10
19.7303
20
-15.8935
11
19.7275
21
-15.8879
0
LINE
8
BLACK
6
CONTINUOUS
10
19.7275
20
-15.8879
11
19.7275
21
-15.8654
0
LINE
8
BLACK
6
CONTINUOUS
10
19.7275
20
-15.8654
11
19.7303
21
-15.8598
0
LINE
8
BLACK
6
CONTINUOUS
10
19.7303
20
-15.8598
11
19.736
21
-15.857
0
LINE
8
BLACK
6
CONTINUOUS
10
19.736
20
-15.857
11
19.7472
21
-15.857
0
LINE
8
BLACK
6
CONTINUOUS
10
19.7472
20
-15.857
11
19.7528
21
-15.8598
0
LINE
8
BLACK
6
CONTINUOUS
10
19.7528
20
-15.8598
11
19.7557
21
-15.8654
0
LINE
8
BLACK
6
CONTINUOUS
10
19.7557
20
-15.8654
11
19.7557
21
-15.8711
0
LINE
8
BLACK
6
CONTINUOUS
10
19.7557
20
-15.8711
11
19.7275
21
-15.8767
0
LINE
8
BLACK
6
CONTINUOUS
10
19.781
20
-15.8907
11
19.7838
21
-15.8935
0
LINE
8
BLACK
6
CONTINUOUS
10
19.7838
20
-15.8935
11
19.781
21
-15.8964
0
LINE
8
BLACK
6
CONTINUOUS
10
19.781
20
-15.8964
11
19.7782
21
-15.8935
0
LINE
8
BLACK
6
CONTINUOUS
10
19.7782
20
-15.8935
11
19.781
21
-15.8907
0
LINE
8
BLACK
6
CONTINUOUS
10
19.781
20
-15.8907
11
19.781
21
-15.8964
0
LINE
8
BLACK
6
CONTINUOUS
10
19.781
20
-15.8598
11
19.7838
21
-15.8626
0
LINE
8
BLACK
6
CONTINUOUS
10
19.7838
20
-15.8626
11
19.781
21
-15.8654
0
LINE
8
BLACK
6
CONTINUOUS
10
19.781
20
-15.8654
11
19.7782
21
-15.8626
0
LINE
8
BLACK
6
CONTINUOUS
10
19.7782
20
-15.8626
11
19.781
21
-15.8598
0
LINE
8
BLACK
6
CONTINUOUS
10
19.781
20
-15.8598
11
19.781
21
-15.8654
0
LINE
8
BLACK
6
CONTINUOUS
10
18.6616
20
-15.9248
11
22.9136
21
-15.9248
0
LINE
8
BLACK
6
CONTINUOUS
10
18.718
20
-16.0066
11
18.718
21
-15.9475
0
LINE
8
BLACK
6
CONTINUOUS
10
18.7517
20
-16.0066
11
18.7264
21
-15.9729
0
LINE
8
BLACK
6
CONTINUOUS
10
18.7517
20
-15.9475
11
18.718
21
-15.9813
0
LINE
8
BLACK
6
CONTINUOUS
10
18.777
20
-16.0066
11
18.777
21
-15.9672
0
LINE
8
BLACK
6
CONTINUOUS
10
18.777
20
-15.9475
11
18.7742
21
-15.9504
0
LINE
8
BLACK
6
CONTINUOUS
10
18.7742
20
-15.9504
11
18.777
21
-15.9532
0
LINE
8
BLACK
6
CONTINUOUS
10
18.777
20
-15.9532
11
18.7798
21
-15.9504
0
LINE
8
BLACK
6
CONTINUOUS
10
18.7798
20
-15.9504
11
18.777
21
-15.9475
0
LINE
8
BLACK
6
CONTINUOUS
10
18.777
20
-15.9475
11
18.777
21
-15.9532
0
LINE
8
BLACK
6
CONTINUOUS
10
18.8389
20
-16.001
11
18.8361
21
-16.0038
0
LINE
8
BLACK
6
CONTINUOUS
10
18.8361
20
-16.0038
11
18.8276
21
-16.0066
0
LINE
8
BLACK
6
CONTINUOUS
10
18.8276
20
-16.0066
11
18.822
21
-16.0066
0
LINE
8
BLACK
6
CONTINUOUS
10
18.822
20
-16.0066
11
18.8136
21
-16.0038
0
LINE
8
BLACK
6
CONTINUOUS
10
18.8136
20
-16.0038
11
18.808
21
-15.9982
0
LINE
8
BLACK
6
CONTINUOUS
10
18.808
20
-15.9982
11
18.8052
21
-15.9925
0
LINE
8
BLACK
6
CONTINUOUS
10
18.8052
20
-15.9925
11
18.8023
21
-15.9813
0
LINE
8
BLACK
6
CONTINUOUS
10
18.8023
20
-15.9813
11
18.8023
21
-15.9729
0
LINE
8
BLACK
6
CONTINUOUS
10
18.8023
20
-15.9729
11
18.8052
21
-15.9616
0
LINE
8
BLACK
6
CONTINUOUS
10
18.8052
20
-15.9616
11
18.808
21
-15.956
0
LINE
8
BLACK
6
CONTINUOUS
10
18.808
20
-15.956
11
18.8136
21
-15.9504
0
LINE
8
BLACK
6
CONTINUOUS
10
18.8136
20
-15.9504
11
18.822
21
-15.9475
0
LINE
8
BLACK
6
CONTINUOUS
10
18.822
20
-15.9475
11
18.8276
21
-15.9475
0
LINE
8
BLACK
6
CONTINUOUS
10
18.8276
20
-15.9475
11
18.8361
21
-15.9504
0
LINE
8
BLACK
6
CONTINUOUS
10
18.8361
20
-15.9504
11
18.8389
21
-15.9532
0
LINE
8
BLACK
6
CONTINUOUS
10
18.8895
20
-16.0066
11
18.8895
21
-15.9757
0
LINE
8
BLACK
6
CONTINUOUS
10
18.8895
20
-15.9757
11
18.8867
21
-15.97
0
LINE
8
BLACK
6
CONTINUOUS
10
18.8867
20
-15.97
11
18.8811
21
-15.9672
0
LINE
8
BLACK
6
CONTINUOUS
10
18.8811
20
-15.9672
11
18.8698
21
-15.9672
0
LINE
8
BLACK
6
CONTINUOUS
10
18.8698
20
-15.9672
11
18.8642
21
-15.97
0
LINE
8
BLACK
6
CONTINUOUS
10
18.8895
20
-16.0038
11
18.8839
21
-16.0066
0
LINE
8
BLACK
6
CONTINUOUS
10
18.8839
20
-16.0066
11
18.8698
21
-16.0066
0
LINE
8
BLACK
6
CONTINUOUS
10
18.8698
20
-16.0066
11
18.8642
21
-16.0038
0
LINE
8
BLACK
6
CONTINUOUS
10
18.8642
20
-16.0038
11
18.8614
21
-15.9982
0
LINE
8
BLACK
6
CONTINUOUS
10
18.8614
20
-15.9982
11
18.8614
21
-15.9925
0
LINE
8
BLACK
6
CONTINUOUS
10
18.8614
20
-15.9925
11
18.8642
21
-15.9869
0
LINE
8
BLACK
6
CONTINUOUS
10
18.8642
20
-15.9869
11
18.8698
21
-15.9841
0
LINE
8
BLACK
6
CONTINUOUS
10
18.8698
20
-15.9841
11
18.8839
21
-15.9841
0
LINE
8
BLACK
6
CONTINUOUS
10
18.8839
20
-15.9841
11
18.8895
21
-15.9813
0
LINE
8
BLACK
6
CONTINUOUS
10
18.9429
20
-16.0066
11
18.9429
21
-15.9475
0
LINE
8
BLACK
6
CONTINUOUS
10
18.9429
20
-16.0038
11
18.9373
21
-16.0066
0
LINE
8
BLACK
6
CONTINUOUS
10
18.9373
20
-16.0066
11
18.9261
21
-16.0066
0
LINE
8
BLACK
6
CONTINUOUS
10
18.9261
20
-16.0066
11
18.9204
21
-16.0038
0
LINE
8
BLACK
6
CONTINUOUS
10
18.9204
20
-16.0038
11
18.9176
21
-16.001
0
LINE
8
BLACK
6
CONTINUOUS
10
18.9176
20
-16.001
11
18.9148
21
-15.9953
0
LINE
8
BLACK
6
CONTINUOUS
10
18.9148
20
-15.9953
11
18.9148
21
-15.9785
0
LINE
8
BLACK
6
CONTINUOUS
10
18.9148
20
-15.9785
11
18.9176
21
-15.9729
0
LINE
8
BLACK
6
CONTINUOUS
10
18.9176
20
-15.9729
11
18.9204
21
-15.97
0
LINE
8
BLACK
6
CONTINUOUS
10
18.9204
20
-15.97
11
18.9261
21
-15.9672
0
LINE
8
BLACK
6
CONTINUOUS
10
18.9261
20
-15.9672
11
18.9373
21
-15.9672
0
LINE
8
BLACK
6
CONTINUOUS
10
18.9373
20
-15.9672
11
18.9429
21
-15.97
0
LINE
8
BLACK
6
CONTINUOUS
10
19.0161
20
-15.9757
11
19.0357
21
-15.9757
0
LINE
8
BLACK
6
CONTINUOUS
10
19.0442
20
-16.0066
11
19.0161
21
-16.0066
0
LINE
8
BLACK
6
CONTINUOUS
10
19.0161
20
-16.0066
11
19.0161
21
-15.9475
0
LINE
8
BLACK
6
CONTINUOUS
10
19.0161
20
-15.9475
11
19.0442
21
-15.9475
0
LINE
8
BLACK
6
CONTINUOUS
10
19.0695
20
-16.001
11
19.0723
21
-16.0038
0
LINE
8
BLACK
6
CONTINUOUS
10
19.0723
20
-16.0038
11
19.0695
21
-16.0066
0
LINE
8
BLACK
6
CONTINUOUS
10
19.0695
20
-16.0066
11
19.0667
21
-16.0038
0
LINE
8
BLACK
6
CONTINUOUS
10
19.0667
20
-16.0038
11
19.0695
21
-16.001
0
LINE
8
BLACK
6
CONTINUOUS
10
19.0695
20
-16.001
11
19.0695
21
-16.0066
0
LINE
8
BLACK
6
CONTINUOUS
10
19.0976
20
-16.0066
11
19.0976
21
-15.9475
0
LINE
8
BLACK
6
CONTINUOUS
10
19.0976
20
-15.9475
11
19.1117
21
-15.9475
0
LINE
8
BLACK
6
CONTINUOUS
10
19.1117
20
-15.9475
11
19.1201
21
-15.9504
0
LINE
8
BLACK
6
CONTINUOUS
10
19.1201
20
-15.9504
11
19.1257
21
-15.956
0
LINE
8
BLACK
6
CONTINUOUS
10
19.1257
20
-15.956
11
19.1285
21
-15.9616
0
LINE
8
BLACK
6
CONTINUOUS
10
19.1285
20
-15.9616
11
19.1314
21
-15.9729
0
LINE
8
BLACK
6
CONTINUOUS
10
19.1314
20
-15.9729
11
19.1314
21
-15.9813
0
LINE
8
BLACK
6
CONTINUOUS
10
19.1314
20
-15.9813
11
19.1285
21
-15.9925
0
LINE
8
BLACK
6
CONTINUOUS
10
19.1285
20
-15.9925
11
19.1257
21
-15.9982
0
LINE
8
BLACK
6
CONTINUOUS
10
19.1257
20
-15.9982
11
19.1201
21
-16.0038
0
LINE
8
BLACK
6
CONTINUOUS
10
19.1201
20
-16.0038
11
19.1117
21
-16.0066
0
LINE
8
BLACK
6
CONTINUOUS
10
19.1117
20
-16.0066
11
19.0976
21
-16.0066
0
LINE
8
BLACK
6
CONTINUOUS
10
19.1567
20
-16.001
11
19.1595
21
-16.0038
0
LINE
8
BLACK
6
CONTINUOUS
10
19.1595
20
-16.0038
11
19.1567
21
-16.0066
0
LINE
8
BLACK
6
CONTINUOUS
10
19.1567
20
-16.0066
11
19.1539
21
-16.0038
0
LINE
8
BLACK
6
CONTINUOUS
10
19.1539
20
-16.0038
11
19.1567
21
-16.001
0
LINE
8
BLACK
6
CONTINUOUS
10
19.1567
20
-16.001
11
19.1567
21
-16.0066
0
LINE
8
BLACK
6
CONTINUOUS
10
19.182
20
-15.9897
11
19.2101
21
-15.9897
0
LINE
8
BLACK
6
CONTINUOUS
10
19.1764
20
-16.0066
11
19.196
21
-15.9475
0
LINE
8
BLACK
6
CONTINUOUS
10
19.196
20
-15.9475
11
19.2157
21
-16.0066
0
LINE
8
BLACK
6
CONTINUOUS
10
19.2354
20
-16.001
11
19.2382
21
-16.0038
0
LINE
8
BLACK
6
CONTINUOUS
10
19.2382
20
-16.0038
11
19.2354
21
-16.0066
0
LINE
8
BLACK
6
CONTINUOUS
10
19.2354
20
-16.0066
11
19.2326
21
-16.0038
0
LINE
8
BLACK
6
CONTINUOUS
10
19.2326
20
-16.0038
11
19.2354
21
-16.001
0
LINE
8
BLACK
6
CONTINUOUS
10
19.2354
20
-16.001
11
19.2354
21
-16.0066
0
LINE
8
BLACK
6
CONTINUOUS
10
19.3535
20
-16.0066
11
19.3535
21
-15.9475
0
LINE
8
BLACK
6
CONTINUOUS
10
19.3591
20
-15.9841
11
19.376
21
-16.0066
0
LINE
8
BLACK
6
CONTINUOUS
10
19.376
20
-15.9672
11
19.3535
21
-15.9897
0
LINE
8
BLACK
6
CONTINUOUS
10
19.4013
20
-16.0066
11
19.4013
21
-15.9672
0
LINE
8
BLACK
6
CONTINUOUS
10
19.4013
20
-15.9475
11
19.3985
21
-15.9504
0
LINE
8
BLACK
6
CONTINUOUS
10
19.3985
20
-15.9504
11
19.4013
21
-15.9532
0
LINE
8
BLACK
6
CONTINUOUS
10
19.4013
20
-15.9532
11
19.4041
21
-15.9504
0
LINE
8
BLACK
6
CONTINUOUS
10
19.4041
20
-15.9504
11
19.4013
21
-15.9475
0
LINE
8
BLACK
6
CONTINUOUS
10
19.4013
20
-15.9475
11
19.4013
21
-15.9532
0
LINE
8
BLACK
6
CONTINUOUS
10
19.4548
20
-16.0038
11
19.4491
21
-16.0066
0
LINE
8
BLACK
6
CONTINUOUS
10
19.4491
20
-16.0066
11
19.4379
21
-16.0066
0
LINE
8
BLACK
6
CONTINUOUS
10
19.4379
20
-16.0066
11
19.4323
21
-16.0038
0
LINE
8
BLACK
6
CONTINUOUS
10
19.4323
20
-16.0038
11
19.4294
21
-16.001
0
LINE
8
BLACK
6
CONTINUOUS
10
19.4294
20
-16.001
11
19.4266
21
-15.9953
0
LINE
8
BLACK
6
CONTINUOUS
10
19.4266
20
-15.9953
11
19.4266
21
-15.9785
0
LINE
8
BLACK
6
CONTINUOUS
10
19.4266
20
-15.9785
11
19.4294
21
-15.9729
0
LINE
8
BLACK
6
CONTINUOUS
10
19.4294
20
-15.9729
11
19.4323
21
-15.97
0
LINE
8
BLACK
6
CONTINUOUS
10
19.4323
20
-15.97
11
19.4379
21
-15.9672
0
LINE
8
BLACK
6
CONTINUOUS
10
19.4379
20
-15.9672
11
19.4491
21
-15.9672
0
LINE
8
BLACK
6
CONTINUOUS
10
19.4491
20
-15.9672
11
19.4548
21
-15.97
0
LINE
8
BLACK
6
CONTINUOUS
10
19.5054
20
-16.0066
11
19.5054
21
-15.9757
0
LINE
8
BLACK
6
CONTINUOUS
10
19.5054
20
-15.9757
11
19.5026
21
-15.97
0
LINE
8
BLACK
6
CONTINUOUS
10
19.5026
20
-15.97
11
19.4969
21
-15.9672
0
LINE
8
BLACK
6
CONTINUOUS
10
19.4969
20
-15.9672
11
19.4857
21
-15.9672
0
LINE
8
BLACK
6
CONTINUOUS
10
19.4857
20
-15.9672
11
19.4801
21
-15.97
0
LINE
8
BLACK
6
CONTINUOUS
10
19.5054
20
-16.0038
11
19.4998
21
-16.0066
0
LINE
8
BLACK
6
CONTINUOUS
10
19.4998
20
-16.0066
11
19.4857
21
-16.0066
0
LINE
8
BLACK
6
CONTINUOUS
10
19.4857
20
-16.0066
11
19.4801
21
-16.0038
0
LINE
8
BLACK
6
CONTINUOUS
10
19.4801
20
-16.0038
11
19.4773
21
-15.9982
0
LINE
8
BLACK
6
CONTINUOUS
10
19.4773
20
-15.9982
11
19.4773
21
-15.9925
0
LINE
8
BLACK
6
CONTINUOUS
10
19.4773
20
-15.9925
11
19.4801
21
-15.9869
0
LINE
8
BLACK
6
CONTINUOUS
10
19.4801
20
-15.9869
11
19.4857
21
-15.9841
0
LINE
8
BLACK
6
CONTINUOUS
10
19.4857
20
-15.9841
11
19.4998
21
-15.9841
0
LINE
8
BLACK
6
CONTINUOUS
10
19.4998
20
-15.9841
11
19.5054
21
-15.9813
0
LINE
8
BLACK
6
CONTINUOUS
10
19.5588
20
-16.0066
11
19.5588
21
-15.9475
0
LINE
8
BLACK
6
CONTINUOUS
10
19.5588
20
-16.0038
11
19.5532
21
-16.0066
0
LINE
8
BLACK
6
CONTINUOUS
10
19.5532
20
-16.0066
11
19.5419
21
-16.0066
0
LINE
8
BLACK
6
CONTINUOUS
10
19.5419
20
-16.0066
11
19.5363
21
-16.0038
0
LINE
8
BLACK
6
CONTINUOUS
10
19.5363
20
-16.0038
11
19.5335
21
-16.001
0
LINE
8
BLACK
6
CONTINUOUS
10
19.5335
20
-16.001
11
19.5307
21
-15.9953
0
LINE
8
BLACK
6
CONTINUOUS
10
19.5307
20
-15.9953
11
19.5307
21
-15.9785
0
LINE
8
BLACK
6
CONTINUOUS
10
19.5307
20
-15.9785
11
19.5335
21
-15.9729
0
LINE
8
BLACK
6
CONTINUOUS
10
19.5335
20
-15.9729
11
19.5363
21
-15.97
0
LINE
8
BLACK
6
CONTINUOUS
10
19.5363
20
-15.97
11
19.5419
21
-15.9672
0
LINE
8
BLACK
6
CONTINUOUS
10
19.5419
20
-15.9672
11
19.5532
21
-15.9672
0
LINE
8
BLACK
6
CONTINUOUS
10
19.5532
20
-15.9672
11
19.5588
21
-15.97
0
LINE
8
BLACK
6
CONTINUOUS
10
19.6488
20
-16.0291
11
19.646
21
-16.0263
0
LINE
8
BLACK
6
CONTINUOUS
10
19.646
20
-16.0263
11
19.6404
21
-16.0178
0
LINE
8
BLACK
6
CONTINUOUS
10
19.6404
20
-16.0178
11
19.6375
21
-16.0122
0
LINE
8
BLACK
6
CONTINUOUS
10
19.6375
20
-16.0122
11
19.6347
21
-16.0038
0
LINE
8
BLACK
6
CONTINUOUS
10
19.6347
20
-16.0038
11
19.6319
21
-15.9897
0
LINE
8
BLACK
6
CONTINUOUS
10
19.6319
20
-15.9897
11
19.6319
21
-15.9785
0
LINE
8
BLACK
6
CONTINUOUS
10
19.6319
20
-15.9785
11
19.6347
21
-15.9644
0
LINE
8
BLACK
6
CONTINUOUS
10
19.6347
20
-15.9644
11
19.6375
21
-15.956
0
LINE
8
BLACK
6
CONTINUOUS
10
19.6375
20
-15.956
11
19.6404
21
-15.9504
0
LINE
8
BLACK
6
CONTINUOUS
10
19.6404
20
-15.9504
11
19.646
21
-15.9419
0
LINE
8
BLACK
6
CONTINUOUS
10
19.646
20
-15.9419
11
19.6488
21
-15.9391
0
LINE
8
BLACK
6
CONTINUOUS
10
19.6994
20
-15.9475
11
19.6713
21
-15.9475
0
LINE
8
BLACK
6
CONTINUOUS
10
19.6713
20
-15.9475
11
19.6685
21
-15.9757
0
LINE
8
BLACK
6
CONTINUOUS
10
19.6685
20
-15.9757
11
19.6713
21
-15.9729
0
LINE
8
BLACK
6
CONTINUOUS
10
19.6713
20
-15.9729
11
19.6769
21
-15.97
0
LINE
8
BLACK
6
CONTINUOUS
10
19.6769
20
-15.97
11
19.691
21
-15.97
0
LINE
8
BLACK
6
CONTINUOUS
10
19.691
20
-15.97
11
19.6966
21
-15.9729
0
LINE
8
BLACK
6
CONTINUOUS
10
19.6966
20
-15.9729
11
19.6994
21
-15.9757
0
LINE
8
BLACK
6
CONTINUOUS
10
19.6994
20
-15.9757
11
19.7022
21
-15.9813
0
LINE
8
BLACK
6
CONTINUOUS
10
19.7022
20
-15.9813
11
19.7022
21
-15.9953
0
LINE
8
BLACK
6
CONTINUOUS
10
19.7022
20
-15.9953
11
19.6994
21
-16.001
0
LINE
8
BLACK
6
CONTINUOUS
10
19.6994
20
-16.001
11
19.6966
21
-16.0038
0
LINE
8
BLACK
6
CONTINUOUS
10
19.6966
20
-16.0038
11
19.691
21
-16.0066
0
LINE
8
BLACK
6
CONTINUOUS
10
19.691
20
-16.0066
11
19.6769
21
-16.0066
0
LINE
8
BLACK
6
CONTINUOUS
10
19.6769
20
-16.0066
11
19.6713
21
-16.0038
0
LINE
8
BLACK
6
CONTINUOUS
10
19.6713
20
-16.0038
11
19.6685
21
-16.001
0
LINE
8
BLACK
6
CONTINUOUS
10
19.7275
20
-16.001
11
19.7303
21
-16.0038
0
LINE
8
BLACK
6
CONTINUOUS
10
19.7303
20
-16.0038
11
19.7275
21
-16.0066
0
LINE
8
BLACK
6
CONTINUOUS
10
19.7275
20
-16.0066
11
19.7247
21
-16.0038
0
LINE
8
BLACK
6
CONTINUOUS
10
19.7247
20
-16.0038
11
19.7275
21
-16.001
0
LINE
8
BLACK
6
CONTINUOUS
10
19.7275
20
-16.001
11
19.7275
21
-16.0066
0
LINE
8
BLACK
6
CONTINUOUS
10
19.7866
20
-16.0066
11
19.7528
21
-16.0066
0
LINE
8
BLACK
6
CONTINUOUS
10
19.7697
20
-16.0066
11
19.7697
21
-15.9475
0
LINE
8
BLACK
6
CONTINUOUS
10
19.7697
20
-15.9475
11
19.7641
21
-15.956
0
LINE
8
BLACK
6
CONTINUOUS
10
19.7641
20
-15.956
11
19.7585
21
-15.9616
0
LINE
8
BLACK
6
CONTINUOUS
10
19.7585
20
-15.9616
11
19.7528
21
-15.9644
0
LINE
8
BLACK
6
CONTINUOUS
10
19.8119
20
-16.001
11
19.8147
21
-16.0038
0
LINE
8
BLACK
6
CONTINUOUS
10
19.8147
20
-16.0038
11
19.8119
21
-16.0066
0
LINE
8
BLACK
6
CONTINUOUS
10
19.8119
20
-16.0066
11
19.8091
21
-16.0038
0
LINE
8
BLACK
6
CONTINUOUS
10
19.8091
20
-16.0038
11
19.8119
21
-16.001
0
LINE
8
BLACK
6
CONTINUOUS
10
19.8119
20
-16.001
11
19.8119
21
-16.0066
0
LINE
8
BLACK
6
CONTINUOUS
10
19.8653
20
-15.9475
11
19.8541
21
-15.9475
0
LINE
8
BLACK
6
CONTINUOUS
10
19.8541
20
-15.9475
11
19.8485
21
-15.9504
0
LINE
8
BLACK
6
CONTINUOUS
10
19.8485
20
-15.9504
11
19.8456
21
-15.9532
0
LINE
8
BLACK
6
CONTINUOUS
10
19.8456
20
-15.9532
11
19.84
21
-15.9616
0
LINE
8
BLACK
6
CONTINUOUS
10
19.84
20
-15.9616
11
19.8372
21
-15.9729
0
LINE
8
BLACK
6
CONTINUOUS
10
19.8372
20
-15.9729
11
19.8372
21
-15.9953
0
LINE
8
BLACK
6
CONTINUOUS
10
19.8372
20
-15.9953
11
19.84
21
-16.001
0
LINE
8
BLACK
6
CONTINUOUS
10
19.84
20
-16.001
11
19.8428
21
-16.0038
0
LINE
8
BLACK
6
CONTINUOUS
10
19.8428
20
-16.0038
11
19.8485
21
-16.0066
0
LINE
8
BLACK
6
CONTINUOUS
10
19.8485
20
-16.0066
11
19.8597
21
-16.0066
0
LINE
8
BLACK
6
CONTINUOUS
10
19.8597
20
-16.0066
11
19.8653
21
-16.0038
0
LINE
8
BLACK
6
CONTINUOUS
10
19.8653
20
-16.0038
11
19.8681
21
-16.001
0
LINE
8
BLACK
6
CONTINUOUS
10
19.8681
20
-16.001
11
19.871
21
-15.9953
0
LINE
8
BLACK
6
CONTINUOUS
10
19.871
20
-15.9953
11
19.871
21
-15.9813
0
LINE
8
BLACK
6
CONTINUOUS
10
19.871
20
-15.9813
11
19.8681
21
-15.9757
0
LINE
8
BLACK
6
CONTINUOUS
10
19.8681
20
-15.9757
11
19.8653
21
-15.9729
0
LINE
8
BLACK
6
CONTINUOUS
10
19.8653
20
-15.9729
11
19.8597
21
-15.97
0
LINE
8
BLACK
6
CONTINUOUS
10
19.8597
20
-15.97
11
19.8485
21
-15.97
0
LINE
8
BLACK
6
CONTINUOUS
10
19.8485
20
-15.97
11
19.8428
21
-15.9729
0
LINE
8
BLACK
6
CONTINUOUS
10
19.8428
20
-15.9729
11
19.84
21
-15.9757
0
LINE
8
BLACK
6
CONTINUOUS
10
19.84
20
-15.9757
11
19.8372
21
-15.9813
0
LINE
8
BLACK
6
CONTINUOUS
10
19.8906
20
-16.0291
11
19.8935
21
-16.0263
0
LINE
8
BLACK
6
CONTINUOUS
10
19.8935
20
-16.0263
11
19.8991
21
-16.0178
0
LINE
8
BLACK
6
CONTINUOUS
10
19.8991
20
-16.0178
11
19.9019
21
-16.0122
0
LINE
8
BLACK
6
CONTINUOUS
10
19.9019
20
-16.0122
11
19.9047
21
-16.0038
0
LINE
8
BLACK
6
CONTINUOUS
10
19.9047
20
-16.0038
11
19.9075
21
-15.9897
0
LINE
8
BLACK
6
CONTINUOUS
10
19.9075
20
-15.9897
11
19.9075
21
-15.9785
0
LINE
8
BLACK
6
CONTINUOUS
10
19.9075
20
-15.9785
11
19.9047
21
-15.9644
0
LINE
8
BLACK
6
CONTINUOUS
10
19.9047
20
-15.9644
11
19.9019
21
-15.956
0
LINE
8
BLACK
6
CONTINUOUS
10
19.9019
20
-15.956
11
19.8991
21
-15.9504
0
LINE
8
BLACK
6
CONTINUOUS
10
19.8991
20
-15.9504
11
19.8935
21
-15.9419
0
LINE
8
BLACK
6
CONTINUOUS
10
19.8935
20
-15.9419
11
19.8906
21
-15.9391
0
LINE
8
BLACK
6
CONTINUOUS
10
19.9356
20
-15.9841
11
19.9806
21
-15.9841
0
LINE
8
BLACK
6
CONTINUOUS
10
20.0397
20
-16.0066
11
20.0059
21
-16.0066
0
LINE
8
BLACK
6
CONTINUOUS
10
20.0228
20
-16.0066
11
20.0228
21
-15.9475
0
LINE
8
BLACK
6
CONTINUOUS
10
20.0228
20
-15.9475
11
20.0172
21
-15.956
0
LINE
8
BLACK
6
CONTINUOUS
10
20.0172
20
-15.956
11
20.0116
21
-15.9616
0
LINE
8
BLACK
6
CONTINUOUS
10
20.0116
20
-15.9616
11
20.0059
21
-15.9644
0
LINE
8
BLACK
6
CONTINUOUS
10
18.6616
20
-15.8067
11
22.9136
21
-15.8067
0
LINE
8
BLACK
6
CONTINUOUS
10
22.1029
20
-15.8964
11
22.0832
21
-15.8682
0
LINE
8
BLACK
6
CONTINUOUS
10
22.0692
20
-15.8964
11
22.0692
21
-15.8373
0
LINE
8
BLACK
6
CONTINUOUS
10
22.0692
20
-15.8373
11
22.0917
21
-15.8373
0
LINE
8
BLACK
6
CONTINUOUS
10
22.0917
20
-15.8373
11
22.0973
21
-15.8401
0
LINE
8
BLACK
6
CONTINUOUS
10
22.0973
20
-15.8401
11
22.1001
21
-15.8429
0
LINE
8
BLACK
6
CONTINUOUS
10
22.1001
20
-15.8429
11
22.1029
21
-15.8486
0
LINE
8
BLACK
6
CONTINUOUS
10
22.1029
20
-15.8486
11
22.1029
21
-15.857
0
LINE
8
BLACK
6
CONTINUOUS
10
22.1029
20
-15.857
11
22.1001
21
-15.8626
0
LINE
8
BLACK
6
CONTINUOUS
10
22.1001
20
-15.8626
11
22.0973
21
-15.8654
0
LINE
8
BLACK
6
CONTINUOUS
10
22.0973
20
-15.8654
11
22.0917
21
-15.8682
0
LINE
8
BLACK
6
CONTINUOUS
10
22.0917
20
-15.8682
11
22.0692
21
-15.8682
0
LINE
8
BLACK
6
CONTINUOUS
10
22.1507
20
-15.8935
11
22.1451
21
-15.8964
0
LINE
8
BLACK
6
CONTINUOUS
10
22.1451
20
-15.8964
11
22.1338
21
-15.8964
0
LINE
8
BLACK
6
CONTINUOUS
10
22.1338
20
-15.8964
11
22.1282
21
-15.8935
0
LINE
8
BLACK
6
CONTINUOUS
10
22.1282
20
-15.8935
11
22.1254
21
-15.8879
0
LINE
8
BLACK
6
CONTINUOUS
10
22.1254
20
-15.8879
11
22.1254
21
-15.8654
0
LINE
8
BLACK
6
CONTINUOUS
10
22.1254
20
-15.8654
11
22.1282
21
-15.8598
0
LINE
8
BLACK
6
CONTINUOUS
10
22.1282
20
-15.8598
11
22.1338
21
-15.857
0
LINE
8
BLACK
6
CONTINUOUS
10
22.1338
20
-15.857
11
22.1451
21
-15.857
0
LINE
8
BLACK
6
CONTINUOUS
10
22.1451
20
-15.857
11
22.1507
21
-15.8598
0
LINE
8
BLACK
6
CONTINUOUS
10
22.1507
20
-15.8598
11
22.1535
21
-15.8654
0
LINE
8
BLACK
6
CONTINUOUS
10
22.1535
20
-15.8654
11
22.1535
21
-15.8711
0
LINE
8
BLACK
6
CONTINUOUS
10
22.1535
20
-15.8711
11
22.1254
21
-15.8767
0
LINE
8
BLACK
6
CONTINUOUS
10
22.1732
20
-15.857
11
22.1873
21
-15.8964
0
LINE
8
BLACK
6
CONTINUOUS
10
22.1873
20
-15.8964
11
22.2013
21
-15.857
0
LINE
8
BLACK
6
CONTINUOUS
10
22.2238
20
-15.8907
11
22.2266
21
-15.8935
0
LINE
8
BLACK
6
CONTINUOUS
10
22.2266
20
-15.8935
11
22.2238
21
-15.8964
0
LINE
8
BLACK
6
CONTINUOUS
10
22.2238
20
-15.8964
11
22.221
21
-15.8935
0
LINE
8
BLACK
6
CONTINUOUS
10
22.221
20
-15.8935
11
22.2238
21
-15.8907
0
LINE
8
BLACK
6
CONTINUOUS
10
22.2238
20
-15.8907
11
22.2238
21
-15.8964
0
LINE
8
BLACK
6
CONTINUOUS
10
22.2238
20
-15.8598
11
22.2266
21
-15.8626
0
LINE
8
BLACK
6
CONTINUOUS
10
22.2266
20
-15.8626
11
22.2238
21
-15.8654
0
LINE
8
BLACK
6
CONTINUOUS
10
22.2238
20
-15.8654
11
22.221
21
-15.8626
0
LINE
8
BLACK
6
CONTINUOUS
10
22.221
20
-15.8626
11
22.2238
21
-15.8598
0
LINE
8
BLACK
6
CONTINUOUS
10
22.2238
20
-15.8598
11
22.2238
21
-15.8654
0
LINE
8
BLACK
6
CONTINUOUS
10
18.7152
20
-15.8935
11
18.7236
21
-15.8964
0
LINE
8
BLACK
6
CONTINUOUS
10
18.7236
20
-15.8964
11
18.7377
21
-15.8964
0
LINE
8
BLACK
6
CONTINUOUS
10
18.7377
20
-15.8964
11
18.7433
21
-15.8935
0
LINE
8
BLACK
6
CONTINUOUS
10
18.7433
20
-15.8935
11
18.7461
21
-15.8907
0
LINE
8
BLACK
6
CONTINUOUS
10
18.7461
20
-15.8907
11
18.7489
21
-15.8851
0
LINE
8
BLACK
6
CONTINUOUS
10
18.7489
20
-15.8851
11
18.7489
21
-15.8795
0
LINE
8
BLACK
6
CONTINUOUS
10
18.7489
20
-15.8795
11
18.7461
21
-15.8739
0
LINE
8
BLACK
6
CONTINUOUS
10
18.7461
20
-15.8739
11
18.7433
21
-15.8711
0
LINE
8
BLACK
6
CONTINUOUS
10
18.7433
20
-15.8711
11
18.7377
21
-15.8682
0
LINE
8
BLACK
6
CONTINUOUS
10
18.7377
20
-15.8682
11
18.7264
21
-15.8654
0
LINE
8
BLACK
6
CONTINUOUS
10
18.7264
20
-15.8654
11
18.7208
21
-15.8626
0
LINE
8
BLACK
6
CONTINUOUS
10
18.7208
20
-15.8626
11
18.718
21
-15.8598
0
LINE
8
BLACK
6
CONTINUOUS
10
18.718
20
-15.8598
11
18.7152
21
-15.8542
0
LINE
8
BLACK
6
CONTINUOUS
10
18.7152
20
-15.8542
11
18.7152
21
-15.8486
0
LINE
8
BLACK
6
CONTINUOUS
10
18.7152
20
-15.8486
11
18.718
21
-15.8429
0
LINE
8
BLACK
6
CONTINUOUS
10
18.718
20
-15.8429
11
18.7208
21
-15.8401
0
LINE
8
BLACK
6
CONTINUOUS
10
18.7208
20
-15.8401
11
18.7264
21
-15.8373
0
LINE
8
BLACK
6
CONTINUOUS
10
18.7264
20
-15.8373
11
18.7405
21
-15.8373
0
LINE
8
BLACK
6
CONTINUOUS
10
18.7405
20
-15.8373
11
18.7489
21
-15.8401
0
LINE
8
BLACK
6
CONTINUOUS
10
18.7742
20
-15.8964
11
18.7742
21
-15.857
0
LINE
8
BLACK
6
CONTINUOUS
10
18.7742
20
-15.8373
11
18.7714
21
-15.8401
0
LINE
8
BLACK
6
CONTINUOUS
10
18.7714
20
-15.8401
11
18.7742
21
-15.8429
0
LINE
8
BLACK
6
CONTINUOUS
10
18.7742
20
-15.8429
11
18.777
21
-15.8401
0
LINE
8
BLACK
6
CONTINUOUS
10
18.777
20
-15.8401
11
18.7742
21
-15.8373
0
LINE
8
BLACK
6
CONTINUOUS
10
18.7742
20
-15.8373
11
18.7742
21
-15.8429
0
LINE
8
BLACK
6
CONTINUOUS
10
18.7967
20
-15.857
11
18.8276
21
-15.857
0
LINE
8
BLACK
6
CONTINUOUS
10
18.8276
20
-15.857
11
18.7967
21
-15.8964
0
LINE
8
BLACK
6
CONTINUOUS
10
18.7967
20
-15.8964
11
18.8276
21
-15.8964
0
LINE
8
BLACK
6
CONTINUOUS
10
18.8726
20
-15.8935
11
18.867
21
-15.8964
0
LINE
8
BLACK
6
CONTINUOUS
10
18.867
20
-15.8964
11
18.8558
21
-15.8964
0
LINE
8
BLACK
6
CONTINUOUS
10
18.8558
20
-15.8964
11
18.8501
21
-15.8935
0
LINE
8
BLACK
6
CONTINUOUS
10
18.8501
20
-15.8935
11
18.8473
21
-15.8879
0
LINE
8
BLACK
6
CONTINUOUS
10
18.8473
20
-15.8879
11
18.8473
21
-15.8654
0
LINE
8
BLACK
6
CONTINUOUS
10
18.8473
20
-15.8654
11
18.8501
21
-15.8598
0
LINE
8
BLACK
6
CONTINUOUS
10
18.8501
20
-15.8598
11
18.8558
21
-15.857
0
LINE
8
BLACK
6
CONTINUOUS
10
18.8558
20
-15.857
11
18.867
21
-15.857
0
LINE
8
BLACK
6
CONTINUOUS
10
18.867
20
-15.857
11
18.8726
21
-15.8598
0
LINE
8
BLACK
6
CONTINUOUS
10
18.8726
20
-15.8598
11
18.8755
21
-15.8654
0
LINE
8
BLACK
6
CONTINUOUS
10
18.8755
20
-15.8654
11
18.8755
21
-15.8711
0
LINE
8
BLACK
6
CONTINUOUS
10
18.8755
20
-15.8711
11
18.8473
21
-15.8767
0
LINE
8
BLACK
6
CONTINUOUS
10
18.9008
20
-15.8907
11
18.9036
21
-15.8935
0
LINE
8
BLACK
6
CONTINUOUS
10
18.9036
20
-15.8935
11
18.9008
21
-15.8964
0
LINE
8
BLACK
6
CONTINUOUS
10
18.9008
20
-15.8964
11
18.898
21
-15.8935
0
LINE
8
BLACK
6
CONTINUOUS
10
18.898
20
-15.8935
11
18.9008
21
-15.8907
0
LINE
8
BLACK
6
CONTINUOUS
10
18.9008
20
-15.8907
11
18.9008
21
-15.8964
0
LINE
8
BLACK
6
CONTINUOUS
10
18.9008
20
-15.8598
11
18.9036
21
-15.8626
0
LINE
8
BLACK
6
CONTINUOUS
10
18.9036
20
-15.8626
11
18.9008
21
-15.8654
0
LINE
8
BLACK
6
CONTINUOUS
10
18.9008
20
-15.8654
11
18.898
21
-15.8626
0
LINE
8
BLACK
6
CONTINUOUS
10
18.898
20
-15.8626
11
18.9008
21
-15.8598
0
LINE
8
BLACK
6
CONTINUOUS
10
18.9008
20
-15.8598
11
18.9008
21
-15.8654
0
LINE
8
BLACK
6
CONTINUOUS
10
18.9711
20
-15.8795
11
18.9992
21
-15.8795
0
LINE
8
BLACK
6
CONTINUOUS
10
18.9654
20
-15.8964
11
18.9851
21
-15.8373
0
LINE
8
BLACK
6
CONTINUOUS
10
18.9851
20
-15.8373
11
19.0048
21
-15.8964
0
LINE
8
BLACK
6
CONTINUOUS
10
19.0217
20
-15.8429
11
19.0245
21
-15.8401
0
LINE
8
BLACK
6
CONTINUOUS
10
19.0245
20
-15.8401
11
19.0301
21
-15.8373
0
LINE
8
BLACK
6
CONTINUOUS
10
19.0301
20
-15.8373
11
19.0442
21
-15.8373
0
LINE
8
BLACK
6
CONTINUOUS
10
19.0442
20
-15.8373
11
19.0498
21
-15.8401
0
LINE
8
BLACK
6
CONTINUOUS
10
19.0498
20
-15.8401
11
19.0526
21
-15.8429
0
LINE
8
BLACK
6
CONTINUOUS
10
19.0526
20
-15.8429
11
19.0554
21
-15.8486
0
LINE
8
BLACK
6
CONTINUOUS
10
19.0554
20
-15.8486
11
19.0554
21
-15.8542
0
LINE
8
BLACK
6
CONTINUOUS
10
19.0554
20
-15.8542
11
19.0526
21
-15.8626
0
LINE
8
BLACK
6
CONTINUOUS
10
19.0526
20
-15.8626
11
19.0189
21
-15.8964
0
LINE
8
BLACK
6
CONTINUOUS
10
19.0189
20
-15.8964
11
19.0554
21
-15.8964
0
LINE
8
BLACK
6
CONTINUOUS
10
22.0644
20
-16.0066
11
22.0644
21
-15.9475
0
LINE
8
BLACK
6
CONTINUOUS
10
22.1179
20
-16.0066
11
22.1179
21
-15.9475
0
LINE
8
BLACK
6
CONTINUOUS
10
22.1179
20
-16.0038
11
22.1122
21
-16.0066
0
LINE
8
BLACK
6
CONTINUOUS
10
22.1122
20
-16.0066
11
22.101
21
-16.0066
0
LINE
8
BLACK
6
CONTINUOUS
10
22.101
20
-16.0066
11
22.0954
21
-16.0038
0
LINE
8
BLACK
6
CONTINUOUS
10
22.0954
20
-16.0038
11
22.0926
21
-16.001
0
LINE
8
BLACK
6
CONTINUOUS
10
22.0926
20
-16.001
11
22.0897
21
-15.9953
0
LINE
8
BLACK
6
CONTINUOUS
10
22.0897
20
-15.9953
11
22.0897
21
-15.9785
0
LINE
8
BLACK
6
CONTINUOUS
10
22.0897
20
-15.9785
11
22.0926
21
-15.9729
0
LINE
8
BLACK
6
CONTINUOUS
10
22.0926
20
-15.9729
11
22.0954
21
-15.97
0
LINE
8
BLACK
6
CONTINUOUS
10
22.0954
20
-15.97
11
22.101
21
-15.9672
0
LINE
8
BLACK
6
CONTINUOUS
10
22.101
20
-15.9672
11
22.1122
21
-15.9672
0
LINE
8
BLACK
6
CONTINUOUS
10
22.1122
20
-15.9672
11
22.1179
21
-15.97
0
LINE
8
BLACK
6
CONTINUOUS
10
22.146
20
-16.001
11
22.1488
21
-16.0038
0
LINE
8
BLACK
6
CONTINUOUS
10
22.1488
20
-16.0038
11
22.146
21
-16.0066
0
LINE
8
BLACK
6
CONTINUOUS
10
22.146
20
-16.0066
11
22.1432
21
-16.0038
0
LINE
8
BLACK
6
CONTINUOUS
10
22.1432
20
-16.0038
11
22.146
21
-16.001
0
LINE
8
BLACK
6
CONTINUOUS
10
22.146
20
-16.001
11
22.146
21
-16.0066
0
LINE
8
BLACK
6
CONTINUOUS
10
22.146
20
-15.97
11
22.1488
21
-15.9729
0
LINE
8
BLACK
6
CONTINUOUS
10
22.1488
20
-15.9729
11
22.146
21
-15.9757
0
LINE
8
BLACK
6
CONTINUOUS
10
22.146
20
-15.9757
11
22.1432
21
-15.9729
0
LINE
8
BLACK
6
CONTINUOUS
10
22.1432
20
-15.9729
11
22.146
21
-15.97
0
LINE
8
BLACK
6
CONTINUOUS
10
22.146
20
-15.97
11
22.146
21
-15.9757
0
LINE
8
BLACK
6
CONTINUOUS
10
22.25
20
-16.0066
11
22.2163
21
-16.0066
0
LINE
8
BLACK
6
CONTINUOUS
10
22.2332
20
-16.0066
11
22.2332
21
-15.9475
0
LINE
8
BLACK
6
CONTINUOUS
10
22.2332
20
-15.9475
11
22.2275
21
-15.956
0
LINE
8
BLACK
6
CONTINUOUS
10
22.2275
20
-15.956
11
22.2219
21
-15.9616
0
LINE
8
BLACK
6
CONTINUOUS
10
22.2219
20
-15.9616
11
22.2163
21
-15.9644
0
LINE
8
BLACK
6
CONTINUOUS
10
22.3175
20
-15.9447
11
22.2669
21
-16.0207
0
LINE
8
BLACK
6
CONTINUOUS
10
22.3681
20
-16.0066
11
22.3344
21
-16.0066
0
LINE
8
BLACK
6
CONTINUOUS
10
22.3513
20
-16.0066
11
22.3513
21
-15.9475
0
LINE
8
BLACK
6
CONTINUOUS
10
22.3513
20
-15.9475
11
22.3456
21
-15.956
0
LINE
8
BLACK
6
CONTINUOUS
10
22.3456
20
-15.956
11
22.34
21
-15.9616
0
LINE
8
BLACK
6
CONTINUOUS
10
22.34
20
-15.9616
11
22.3344
21
-15.9644
0
LINE
8
BLACK
6
CONTINUOUS
10
18.6616
20
-15.6492
11
22.9136
21
-15.6492
0
LINE
8
BLACK
6
CONTINUOUS
10
18.729
20
-15.6769
11
18.774
21
-15.6769
0
LINE
8
BLACK
6
CONTINUOUS
10
18.7417
20
-15.7557
11
18.7515
21
-15.6769
0
LINE
8
BLACK
6
CONTINUOUS
10
18.7904
20
-15.7557
11
18.797
21
-15.7032
0
LINE
8
BLACK
6
CONTINUOUS
10
18.8002
20
-15.6769
11
18.796
21
-15.6807
0
LINE
8
BLACK
6
CONTINUOUS
10
18.796
20
-15.6807
11
18.7993
21
-15.6844
0
LINE
8
BLACK
6
CONTINUOUS
10
18.7993
20
-15.6844
11
18.8035
21
-15.6807
0
LINE
8
BLACK
6
CONTINUOUS
10
18.8035
20
-15.6807
11
18.8002
21
-15.6769
0
LINE
8
BLACK
6
CONTINUOUS
10
18.8002
20
-15.6769
11
18.7993
21
-15.6844
0
LINE
8
BLACK
6
CONTINUOUS
10
18.8232
20
-15.7032
11
18.8532
21
-15.7032
0
LINE
8
BLACK
6
CONTINUOUS
10
18.8377
20
-15.6769
11
18.8293
21
-15.7444
0
LINE
8
BLACK
6
CONTINUOUS
10
18.8293
20
-15.7444
11
18.8321
21
-15.7519
0
LINE
8
BLACK
6
CONTINUOUS
10
18.8321
20
-15.7519
11
18.8391
21
-15.7557
0
LINE
8
BLACK
6
CONTINUOUS
10
18.8391
20
-15.7557
11
18.8466
21
-15.7557
0
LINE
8
BLACK
6
CONTINUOUS
10
18.8841
20
-15.7557
11
18.8771
21
-15.7519
0
LINE
8
BLACK
6
CONTINUOUS
10
18.8771
20
-15.7519
11
18.8743
21
-15.7444
0
LINE
8
BLACK
6
CONTINUOUS
10
18.8743
20
-15.7444
11
18.8827
21
-15.6769
0
LINE
8
BLACK
6
CONTINUOUS
10
18.9446
20
-15.7519
11
18.9366
21
-15.7557
0
LINE
8
BLACK
6
CONTINUOUS
10
18.9366
20
-15.7557
11
18.9216
21
-15.7557
0
LINE
8
BLACK
6
CONTINUOUS
10
18.9216
20
-15.7557
11
18.9146
21
-15.7519
0
LINE
8
BLACK
6
CONTINUOUS
10
18.9146
20
-15.7519
11
18.9118
21
-15.7444
0
LINE
8
BLACK
6
CONTINUOUS
10
18.9118
20
-15.7444
11
18.9155
21
-15.7144
0
LINE
8
BLACK
6
CONTINUOUS
10
18.9155
20
-15.7144
11
18.9202
21
-15.7069
0
LINE
8
BLACK
6
CONTINUOUS
10
18.9202
20
-15.7069
11
18.9282
21
-15.7032
0
LINE
8
BLACK
6
CONTINUOUS
10
18.9282
20
-15.7032
11
18.9432
21
-15.7032
0
LINE
8
BLACK
6
CONTINUOUS
10
18.9432
20
-15.7032
11
18.9502
21
-15.7069
0
LINE
8
BLACK
6
CONTINUOUS
10
18.9502
20
-15.7069
11
18.953
21
-15.7144
0
LINE
8
BLACK
6
CONTINUOUS
10
18.953
20
-15.7144
11
18.9521
21
-15.7219
0
LINE
8
BLACK
6
CONTINUOUS
10
18.9521
20
-15.7219
11
18.9137
21
-15.7294
0
LINE
8
BLACK
6
CONTINUOUS
10
18.9826
20
-15.7482
11
18.9858
21
-15.7519
0
LINE
8
BLACK
6
CONTINUOUS
10
18.9858
20
-15.7519
11
18.9816
21
-15.7557
0
LINE
8
BLACK
6
CONTINUOUS
10
18.9816
20
-15.7557
11
18.9784
21
-15.7519
0
LINE
8
BLACK
6
CONTINUOUS
10
18.9784
20
-15.7519
11
18.9826
21
-15.7482
0
LINE
8
BLACK
6
CONTINUOUS
10
18.9826
20
-15.7482
11
18.9816
21
-15.7557
0
LINE
8
BLACK
6
CONTINUOUS
10
18.9877
20
-15.7069
11
18.991
21
-15.7107
0
LINE
8
BLACK
6
CONTINUOUS
10
18.991
20
-15.7107
11
18.9868
21
-15.7144
0
LINE
8
BLACK
6
CONTINUOUS
10
18.9868
20
-15.7144
11
18.9835
21
-15.7107
0
LINE
8
BLACK
6
CONTINUOUS
10
18.9835
20
-15.7107
11
18.9877
21
-15.7069
0
LINE
8
BLACK
6
CONTINUOUS
10
18.9877
20
-15.7069
11
18.9868
21
-15.7144
0
LINE
8
BLACK
6
CONTINUOUS
10
18.7377
20
-15.5741
11
18.718
21
-15.5741
0
LINE
8
BLACK
6
CONTINUOUS
10
18.718
20
-15.605
11
18.718
21
-15.546
0
LINE
8
BLACK
6
CONTINUOUS
10
18.718
20
-15.546
11
18.7461
21
-15.546
0
LINE
8
BLACK
6
CONTINUOUS
10
18.7686
20
-15.605
11
18.7686
21
-15.5657
0
LINE
8
BLACK
6
CONTINUOUS
10
18.7686
20
-15.546
11
18.7658
21
-15.5488
0
LINE
8
BLACK
6
CONTINUOUS
10
18.7658
20
-15.5488
11
18.7686
21
-15.5516
0
LINE
8
BLACK
6
CONTINUOUS
10
18.7686
20
-15.5516
11
18.7714
21
-15.5488
0
LINE
8
BLACK
6
CONTINUOUS
10
18.7714
20
-15.5488
11
18.7686
21
-15.546
0
LINE
8
BLACK
6
CONTINUOUS
10
18.7686
20
-15.546
11
18.7686
21
-15.5516
0
LINE
8
BLACK
6
CONTINUOUS
10
18.8052
20
-15.605
11
18.7995
21
-15.6022
0
LINE
8
BLACK
6
CONTINUOUS
10
18.7995
20
-15.6022
11
18.7967
21
-15.5966
0
LINE
8
BLACK
6
CONTINUOUS
10
18.7967
20
-15.5966
11
18.7967
21
-15.546
0
LINE
8
BLACK
6
CONTINUOUS
10
18.8501
20
-15.6022
11
18.8445
21
-15.605
0
LINE
8
BLACK
6
CONTINUOUS
10
18.8445
20
-15.605
11
18.8333
21
-15.605
0
LINE
8
BLACK
6
CONTINUOUS
10
18.8333
20
-15.605
11
18.8276
21
-15.6022
0
LINE
8
BLACK
6
CONTINUOUS
10
18.8276
20
-15.6022
11
18.8248
21
-15.5966
0
LINE
8
BLACK
6
CONTINUOUS
10
18.8248
20
-15.5966
11
18.8248
21
-15.5741
0
LINE
8
BLACK
6
CONTINUOUS
10
18.8248
20
-15.5741
11
18.8276
21
-15.5685
0
LINE
8
BLACK
6
CONTINUOUS
10
18.8276
20
-15.5685
11
18.8333
21
-15.5657
0
LINE
8
BLACK
6
CONTINUOUS
10
18.8333
20
-15.5657
11
18.8445
21
-15.5657
0
LINE
8
BLACK
6
CONTINUOUS
10
18.8445
20
-15.5657
11
18.8501
21
-15.5685
0
LINE
8
BLACK
6
CONTINUOUS
10
18.8501
20
-15.5685
11
18.853
21
-15.5741
0
LINE
8
BLACK
6
CONTINUOUS
10
18.853
20
-15.5741
11
18.853
21
-15.5797
0
LINE
8
BLACK
6
CONTINUOUS
10
18.853
20
-15.5797
11
18.8248
21
-15.5853
0
LINE
8
BLACK
6
CONTINUOUS
10
18.8783
20
-15.5994
11
18.8811
21
-15.6022
0
LINE
8
BLACK
6
CONTINUOUS
10
18.8811
20
-15.6022
11
18.8783
21
-15.605
0
LINE
8
BLACK
6
CONTINUOUS
10
18.8783
20
-15.605
11
18.8755
21
-15.6022
0
LINE
8
BLACK
6
CONTINUOUS
10
18.8755
20
-15.6022
11
18.8783
21
-15.5994
0
LINE
8
BLACK
6
CONTINUOUS
10
18.8783
20
-15.5994
11
18.8783
21
-15.605
0
LINE
8
BLACK
6
CONTINUOUS
10
18.8783
20
-15.5685
11
18.8811
21
-15.5713
0
LINE
8
BLACK
6
CONTINUOUS
10
18.8811
20
-15.5713
11
18.8783
21
-15.5741
0
LINE
8
BLACK
6
CONTINUOUS
10
18.8783
20
-15.5741
11
18.8755
21
-15.5713
0
LINE
8
BLACK
6
CONTINUOUS
10
18.8755
20
-15.5713
11
18.8783
21
-15.5685
0
LINE
8
BLACK
6
CONTINUOUS
10
18.8783
20
-15.5685
11
18.8783
21
-15.5741
0
LINE
8
BLACK
6
CONTINUOUS
10
18.9429
20
-15.546
11
18.9767
21
-15.546
0
LINE
8
BLACK
6
CONTINUOUS
10
18.9598
20
-15.605
11
18.9598
21
-15.546
0
LINE
8
BLACK
6
CONTINUOUS
10
18.9964
20
-15.605
11
18.9964
21
-15.546
0
LINE
8
BLACK
6
CONTINUOUS
10
19.0301
20
-15.605
11
19.0048
21
-15.5713
0
LINE
8
BLACK
6
CONTINUOUS
10
19.0301
20
-15.546
11
18.9964
21
-15.5797
0
LINE
8
BLACK
6
CONTINUOUS
10
19.0836
20
-15.605
11
19.0554
21
-15.605
0
LINE
8
BLACK
6
CONTINUOUS
10
19.0554
20
-15.605
11
19.0554
21
-15.546
0
LINE
8
BLACK
6
CONTINUOUS
10
19.1032
20
-15.5657
11
19.1032
21
-15.6247
0
LINE
8
BLACK
6
CONTINUOUS
10
19.1032
20
-15.5685
11
19.1089
21
-15.5657
0
LINE
8
BLACK
6
CONTINUOUS
10
19.1089
20
-15.5657
11
19.1201
21
-15.5657
0
LINE
8
BLACK
6
CONTINUOUS
10
19.1201
20
-15.5657
11
19.1257
21
-15.5685
0
LINE
8
BLACK
6
CONTINUOUS
10
19.1257
20
-15.5685
11
19.1285
21
-15.5713
0
LINE
8
BLACK
6
CONTINUOUS
10
19.1285
20
-15.5713
11
19.1314
21
-15.5769
0
LINE
8
BLACK
6
CONTINUOUS
10
19.1314
20
-15.5769
11
19.1314
21
-15.5938
0
LINE
8
BLACK
6
CONTINUOUS
10
19.1314
20
-15.5938
11
19.1285
21
-15.5994
0
LINE
8
BLACK
6
CONTINUOUS
10
19.1285
20
-15.5994
11
19.1257
21
-15.6022
0
LINE
8
BLACK
6
CONTINUOUS
10
19.1257
20
-15.6022
11
19.1201
21
-15.605
0
LINE
8
BLACK
6
CONTINUOUS
10
19.1201
20
-15.605
11
19.1089
21
-15.605
0
LINE
8
BLACK
6
CONTINUOUS
10
19.1089
20
-15.605
11
19.1032
21
-15.6022
0
LINE
8
BLACK
6
CONTINUOUS
10
19.182
20
-15.6022
11
19.1764
21
-15.605
0
LINE
8
BLACK
6
CONTINUOUS
10
19.1764
20
-15.605
11
19.1651
21
-15.605
0
LINE
8
BLACK
6
CONTINUOUS
10
19.1651
20
-15.605
11
19.1595
21
-15.6022
0
LINE
8
BLACK
6
CONTINUOUS
10
19.1595
20
-15.6022
11
19.1567
21
-15.5994
0
LINE
8
BLACK
6
CONTINUOUS
10
19.1567
20
-15.5994
11
19.1539
21
-15.5938
0
LINE
8
BLACK
6
CONTINUOUS
10
19.1539
20
-15.5938
11
19.1539
21
-15.5769
0
LINE
8
BLACK
6
CONTINUOUS
10
19.1539
20
-15.5769
11
19.1567
21
-15.5713
0
LINE
8
BLACK
6
CONTINUOUS
10
19.1567
20
-15.5713
11
19.1595
21
-15.5685
0
LINE
8
BLACK
6
CONTINUOUS
10
19.1595
20
-15.5685
11
19.1651
21
-15.5657
0
LINE
8
BLACK
6
CONTINUOUS
10
19.1651
20
-15.5657
11
19.1764
21
-15.5657
0
LINE
8
BLACK
6
CONTINUOUS
10
19.1764
20
-15.5657
11
19.182
21
-15.5685
0
LINE
8
BLACK
6
CONTINUOUS
10
19.2073
20
-15.605
11
19.2073
21
-15.546
0
LINE
8
BLACK
6
CONTINUOUS
10
19.2073
20
-15.5685
11
19.2129
21
-15.5657
0
LINE
8
BLACK
6
CONTINUOUS
10
19.2129
20
-15.5657
11
19.2242
21
-15.5657
0
LINE
8
BLACK
6
CONTINUOUS
10
19.2242
20
-15.5657
11
19.2298
21
-15.5685
0
LINE
8
BLACK
6
CONTINUOUS
10
19.2298
20
-15.5685
11
19.2326
21
-15.5713
0
LINE
8
BLACK
6
CONTINUOUS
10
19.2326
20
-15.5713
11
19.2354
21
-15.5769
0
LINE
8
BLACK
6
CONTINUOUS
10
19.2354
20
-15.5769
11
19.2354
21
-15.5938
0
LINE
8
BLACK
6
CONTINUOUS
10
19.2354
20
-15.5938
11
19.2326
21
-15.5994
0
LINE
8
BLACK
6
CONTINUOUS
10
19.2326
20
-15.5994
11
19.2298
21
-15.6022
0
LINE
8
BLACK
6
CONTINUOUS
10
19.2298
20
-15.6022
11
19.2242
21
-15.605
0
LINE
8
BLACK
6
CONTINUOUS
10
19.2242
20
-15.605
11
19.2129
21
-15.605
0
LINE
8
BLACK
6
CONTINUOUS
10
19.2129
20
-15.605
11
19.2073
21
-15.6022
0
LINE
8
BLACK
6
CONTINUOUS
10
19.2607
20
-15.5994
11
19.2635
21
-15.6022
0
LINE
8
BLACK
6
CONTINUOUS
10
19.2635
20
-15.6022
11
19.2607
21
-15.605
0
LINE
8
BLACK
6
CONTINUOUS
10
19.2607
20
-15.605
11
19.2579
21
-15.6022
0
LINE
8
BLACK
6
CONTINUOUS
10
19.2579
20
-15.6022
11
19.2607
21
-15.5994
0
LINE
8
BLACK
6
CONTINUOUS
10
19.2607
20
-15.5994
11
19.2607
21
-15.605
0
LINE
8
BLACK
6
CONTINUOUS
10
19.2888
20
-15.605
11
19.2888
21
-15.546
0
LINE
8
BLACK
6
CONTINUOUS
10
19.2945
20
-15.5825
11
19.3113
21
-15.605
0
LINE
8
BLACK
6
CONTINUOUS
10
19.3113
20
-15.5657
11
19.2888
21
-15.5881
0
LINE
8
BLACK
6
CONTINUOUS
10
19.3366
20
-15.605
11
19.3366
21
-15.5657
0
LINE
8
BLACK
6
CONTINUOUS
10
19.3366
20
-15.546
11
19.3338
21
-15.5488
0
LINE
8
BLACK
6
CONTINUOUS
10
19.3338
20
-15.5488
11
19.3366
21
-15.5516
0
LINE
8
BLACK
6
CONTINUOUS
10
19.3366
20
-15.5516
11
19.3395
21
-15.5488
0
LINE
8
BLACK
6
CONTINUOUS
10
19.3395
20
-15.5488
11
19.3366
21
-15.546
0
LINE
8
BLACK
6
CONTINUOUS
10
19.3366
20
-15.546
11
19.3366
21
-15.5516
0
LINE
8
BLACK
6
CONTINUOUS
10
19.3901
20
-15.6022
11
19.3845
21
-15.605
0
LINE
8
BLACK
6
CONTINUOUS
10
19.3845
20
-15.605
11
19.3732
21
-15.605
0
LINE
8
BLACK
6
CONTINUOUS
10
19.3732
20
-15.605
11
19.3676
21
-15.6022
0
LINE
8
BLACK
6
CONTINUOUS
10
19.3676
20
-15.6022
11
19.3648
21
-15.5994
0
LINE
8
BLACK
6
CONTINUOUS
10
19.3648
20
-15.5994
11
19.362
21
-15.5938
0
LINE
8
BLACK
6
CONTINUOUS
10
19.362
20
-15.5938
11
19.362
21
-15.5769
0
LINE
8
BLACK
6
CONTINUOUS
10
19.362
20
-15.5769
11
19.3648
21
-15.5713
0
LINE
8
BLACK
6
CONTINUOUS
10
19.3648
20
-15.5713
11
19.3676
21
-15.5685
0
LINE
8
BLACK
6
CONTINUOUS
10
19.3676
20
-15.5685
11
19.3732
21
-15.5657
0
LINE
8
BLACK
6
CONTINUOUS
10
19.3732
20
-15.5657
11
19.3845
21
-15.5657
0
LINE
8
BLACK
6
CONTINUOUS
10
19.3845
20
-15.5657
11
19.3901
21
-15.5685
0
LINE
8
BLACK
6
CONTINUOUS
10
19.4407
20
-15.605
11
19.4407
21
-15.5741
0
LINE
8
BLACK
6
CONTINUOUS
10
19.4407
20
-15.5741
11
19.4379
21
-15.5685
0
LINE
8
BLACK
6
CONTINUOUS
10
19.4379
20
-15.5685
11
19.4323
21
-15.5657
0
LINE
8
BLACK
6
CONTINUOUS
10
19.4323
20
-15.5657
11
19.421
21
-15.5657
0
LINE
8
BLACK
6
CONTINUOUS
10
19.421
20
-15.5657
11
19.4154
21
-15.5685
0
LINE
8
BLACK
6
CONTINUOUS
10
19.4407
20
-15.6022
11
19.4351
21
-15.605
0
LINE
8
BLACK
6
CONTINUOUS
10
19.4351
20
-15.605
11
19.421
21
-15.605
0
LINE
8
BLACK
6
CONTINUOUS
10
19.421
20
-15.605
11
19.4154
21
-15.6022
0
LINE
8
BLACK
6
CONTINUOUS
10
19.4154
20
-15.6022
11
19.4126
21
-15.5966
0
LINE
8
BLACK
6
CONTINUOUS
10
19.4126
20
-15.5966
11
19.4126
21
-15.591
0
LINE
8
BLACK
6
CONTINUOUS
10
19.4126
20
-15.591
11
19.4154
21
-15.5853
0
LINE
8
BLACK
6
CONTINUOUS
10
19.4154
20
-15.5853
11
19.421
21
-15.5825
0
LINE
8
BLACK
6
CONTINUOUS
10
19.421
20
-15.5825
11
19.4351
21
-15.5825
0
LINE
8
BLACK
6
CONTINUOUS
10
19.4351
20
-15.5825
11
19.4407
21
-15.5797
0
LINE
8
BLACK
6
CONTINUOUS
10
19.4941
20
-15.605
11
19.4941
21
-15.546
0
LINE
8
BLACK
6
CONTINUOUS
10
19.4941
20
-15.6022
11
19.4885
21
-15.605
0
LINE
8
BLACK
6
CONTINUOUS
10
19.4885
20
-15.605
11
19.4773
21
-15.605
0
LINE
8
BLACK
6
CONTINUOUS
10
19.4773
20
-15.605
11
19.4716
21
-15.6022
0
LINE
8
BLACK
6
CONTINUOUS
10
19.4716
20
-15.6022
11
19.4688
21
-15.5994
0
LINE
8
BLACK
6
CONTINUOUS
10
19.4688
20
-15.5994
11
19.466
21
-15.5938
0
LINE
8
BLACK
6
CONTINUOUS
10
19.466
20
-15.5938
11
19.466
21
-15.5769
0
LINE
8
BLACK
6
CONTINUOUS
10
19.466
20
-15.5769
11
19.4688
21
-15.5713
0
LINE
8
BLACK
6
CONTINUOUS
10
19.4688
20
-15.5713
11
19.4716
21
-15.5685
0
LINE
8
BLACK
6
CONTINUOUS
10
19.4716
20
-15.5685
11
19.4773
21
-15.5657
0
LINE
8
BLACK
6
CONTINUOUS
10
19.4773
20
-15.5657
11
19.4885
21
-15.5657
0
LINE
8
BLACK
6
CONTINUOUS
10
19.4885
20
-15.5657
11
19.4941
21
-15.5685
0
LINE
8
BLACK
6
CONTINUOUS
10
19.5082
20
-15.6106
11
19.5532
21
-15.6106
0
LINE
8
BLACK
6
CONTINUOUS
10
19.5672
20
-15.5657
11
19.5672
21
-15.6247
0
LINE
8
BLACK
6
CONTINUOUS
10
19.5672
20
-15.5685
11
19.5729
21
-15.5657
0
LINE
8
BLACK
6
CONTINUOUS
10
19.5729
20
-15.5657
11
19.5841
21
-15.5657
0
LINE
8
BLACK
6
CONTINUOUS
10
19.5841
20
-15.5657
11
19.5897
21
-15.5685
0
LINE
8
BLACK
6
CONTINUOUS
10
19.5897
20
-15.5685
11
19.5926
21
-15.5713
0
LINE
8
BLACK
6
CONTINUOUS
10
19.5926
20
-15.5713
11
19.5954
21
-15.5769
0
LINE
8
BLACK
6
CONTINUOUS
10
19.5954
20
-15.5769
11
19.5954
21
-15.5938
0
LINE
8
BLACK
6
CONTINUOUS
10
19.5954
20
-15.5938
11
19.5926
21
-15.5994
0
LINE
8
BLACK
6
CONTINUOUS
10
19.5926
20
-15.5994
11
19.5897
21
-15.6022
0
LINE
8
BLACK
6
CONTINUOUS
10
19.5897
20
-15.6022
11
19.5841
21
-15.605
0
LINE
8
BLACK
6
CONTINUOUS
10
19.5841
20
-15.605
11
19.5729
21
-15.605
0
LINE
8
BLACK
6
CONTINUOUS
10
19.5729
20
-15.605
11
19.5672
21
-15.6022
0
LINE
8
BLACK
6
CONTINUOUS
10
19.646
20
-15.6022
11
19.6404
21
-15.605
0
LINE
8
BLACK
6
CONTINUOUS
10
19.6404
20
-15.605
11
19.6291
21
-15.605
0
LINE
8
BLACK
6
CONTINUOUS
10
19.6291
20
-15.605
11
19.6235
21
-15.6022
0
LINE
8
BLACK
6
CONTINUOUS
10
19.6235
20
-15.6022
11
19.6207
21
-15.5994
0
LINE
8
BLACK
6
CONTINUOUS
10
19.6207
20
-15.5994
11
19.6179
21
-15.5938
0
LINE
8
BLACK
6
CONTINUOUS
10
19.6179
20
-15.5938
11
19.6179
21
-15.5769
0
LINE
8
BLACK
6
CONTINUOUS
10
19.6179
20
-15.5769
11
19.6207
21
-15.5713
0
LINE
8
BLACK
6
CONTINUOUS
10
19.6207
20
-15.5713
11
19.6235
21
-15.5685
0
LINE
8
BLACK
6
CONTINUOUS
10
19.6235
20
-15.5685
11
19.6291
21
-15.5657
0
LINE
8
BLACK
6
CONTINUOUS
10
19.6291
20
-15.5657
11
19.6404
21
-15.5657
0
LINE
8
BLACK
6
CONTINUOUS
10
19.6404
20
-15.5657
11
19.646
21
-15.5685
0
LINE
8
BLACK
6
CONTINUOUS
10
19.6713
20
-15.605
11
19.6713
21
-15.546
0
LINE
8
BLACK
6
CONTINUOUS
10
19.6713
20
-15.5685
11
19.6769
21
-15.5657
0
LINE
8
BLACK
6
CONTINUOUS
10
19.6769
20
-15.5657
11
19.6882
21
-15.5657
0
LINE
8
BLACK
6
CONTINUOUS
10
19.6882
20
-15.5657
11
19.6938
21
-15.5685
0
LINE
8
BLACK
6
CONTINUOUS
10
19.6938
20
-15.5685
11
19.6966
21
-15.5713
0
LINE
8
BLACK
6
CONTINUOUS
10
19.6966
20
-15.5713
11
19.6994
21
-15.5769
0
LINE
8
BLACK
6
CONTINUOUS
10
19.6994
20
-15.5769
11
19.6994
21
-15.5938
0
LINE
8
BLACK
6
CONTINUOUS
10
19.6994
20
-15.5938
11
19.6966
21
-15.5994
0
LINE
8
BLACK
6
CONTINUOUS
10
19.6966
20
-15.5994
11
19.6938
21
-15.6022
0
LINE
8
BLACK
6
CONTINUOUS
10
19.6938
20
-15.6022
11
19.6882
21
-15.605
0
LINE
8
BLACK
6
CONTINUOUS
10
19.6882
20
-15.605
11
19.6769
21
-15.605
0
LINE
8
BLACK
6
CONTINUOUS
10
19.6769
20
-15.605
11
19.6713
21
-15.6022
0
LINE
8
BLACK
6
CONTINUOUS
10
18.6616
20
-15.413
11
22.9136
21
-15.413
0
LINE
8
BLACK
6
CONTINUOUS
10
18.7152
20
-15.4959
11
18.7236
21
-15.4987
0
LINE
8
BLACK
6
CONTINUOUS
10
18.7236
20
-15.4987
11
18.7377
21
-15.4987
0
LINE
8
BLACK
6
CONTINUOUS
10
18.7377
20
-15.4987
11
18.7433
21
-15.4959
0
LINE
8
BLACK
6
CONTINUOUS
10
18.7433
20
-15.4959
11
18.7461
21
-15.4931
0
LINE
8
BLACK
6
CONTINUOUS
10
18.7461
20
-15.4931
11
18.7489
21
-15.4875
0
LINE
8
BLACK
6
CONTINUOUS
10
18.7489
20
-15.4875
11
18.7489
21
-15.4819
0
LINE
8
BLACK
6
CONTINUOUS
10
18.7489
20
-15.4819
11
18.7461
21
-15.4762
0
LINE
8
BLACK
6
CONTINUOUS
10
18.7461
20
-15.4762
11
18.7433
21
-15.4734
0
LINE
8
BLACK
6
CONTINUOUS
10
18.7433
20
-15.4734
11
18.7377
21
-15.4706
0
LINE
8
BLACK
6
CONTINUOUS
10
18.7377
20
-15.4706
11
18.7264
21
-15.4678
0
LINE
8
BLACK
6
CONTINUOUS
10
18.7264
20
-15.4678
11
18.7208
21
-15.465
0
LINE
8
BLACK
6
CONTINUOUS
10
18.7208
20
-15.465
11
18.718
21
-15.4622
0
LINE
8
BLACK
6
CONTINUOUS
10
18.718
20
-15.4622
11
18.7152
21
-15.4565
0
LINE
8
BLACK
6
CONTINUOUS
10
18.7152
20
-15.4565
11
18.7152
21
-15.4509
0
LINE
8
BLACK
6
CONTINUOUS
10
18.7152
20
-15.4509
11
18.718
21
-15.4453
0
LINE
8
BLACK
6
CONTINUOUS
10
18.718
20
-15.4453
11
18.7208
21
-15.4425
0
LINE
8
BLACK
6
CONTINUOUS
10
18.7208
20
-15.4425
11
18.7264
21
-15.4397
0
LINE
8
BLACK
6
CONTINUOUS
10
18.7264
20
-15.4397
11
18.7405
21
-15.4397
0
LINE
8
BLACK
6
CONTINUOUS
10
18.7405
20
-15.4397
11
18.7489
21
-15.4425
0
LINE
8
BLACK
6
CONTINUOUS
10
18.7742
20
-15.4987
11
18.7742
21
-15.4397
0
LINE
8
BLACK
6
CONTINUOUS
10
18.7995
20
-15.4987
11
18.7995
21
-15.4678
0
LINE
8
BLACK
6
CONTINUOUS
10
18.7995
20
-15.4678
11
18.7967
21
-15.4622
0
LINE
8
BLACK
6
CONTINUOUS
10
18.7967
20
-15.4622
11
18.7911
21
-15.4594
0
LINE
8
BLACK
6
CONTINUOUS
10
18.7911
20
-15.4594
11
18.7827
21
-15.4594
0
LINE
8
BLACK
6
CONTINUOUS
10
18.7827
20
-15.4594
11
18.777
21
-15.4622
0
LINE
8
BLACK
6
CONTINUOUS
10
18.777
20
-15.4622
11
18.7742
21
-15.465
0
LINE
8
BLACK
6
CONTINUOUS
10
18.8501
20
-15.4959
11
18.8445
21
-15.4987
0
LINE
8
BLACK
6
CONTINUOUS
10
18.8445
20
-15.4987
11
18.8333
21
-15.4987
0
LINE
8
BLACK
6
CONTINUOUS
10
18.8333
20
-15.4987
11
18.8276
21
-15.4959
0
LINE
8
BLACK
6
CONTINUOUS
10
18.8276
20
-15.4959
11
18.8248
21
-15.4903
0
LINE
8
BLACK
6
CONTINUOUS
10
18.8248
20
-15.4903
11
18.8248
21
-15.4678
0
LINE
8
BLACK
6
CONTINUOUS
10
18.8248
20
-15.4678
11
18.8276
21
-15.4622
0
LINE
8
BLACK
6
CONTINUOUS
10
18.8276
20
-15.4622
11
18.8333
21
-15.4594
0
LINE
8
BLACK
6
CONTINUOUS
10
18.8333
20
-15.4594
11
18.8445
21
-15.4594
0
LINE
8
BLACK
6
CONTINUOUS
10
18.8445
20
-15.4594
11
18.8501
21
-15.4622
0
LINE
8
BLACK
6
CONTINUOUS
10
18.8501
20
-15.4622
11
18.853
21
-15.4678
0
LINE
8
BLACK
6
CONTINUOUS
10
18.853
20
-15.4678
11
18.853
21
-15.4734
0
LINE
8
BLACK
6
CONTINUOUS
10
18.853
20
-15.4734
11
18.8248
21
-15.479
0
LINE
8
BLACK
6
CONTINUOUS
10
18.9008
20
-15.4959
11
18.8951
21
-15.4987
0
LINE
8
BLACK
6
CONTINUOUS
10
18.8951
20
-15.4987
11
18.8839
21
-15.4987
0
LINE
8
BLACK
6
CONTINUOUS
10
18.8839
20
-15.4987
11
18.8783
21
-15.4959
0
LINE
8
BLACK
6
CONTINUOUS
10
18.8783
20
-15.4959
11
18.8755
21
-15.4903
0
LINE
8
BLACK
6
CONTINUOUS
10
18.8755
20
-15.4903
11
18.8755
21
-15.4678
0
LINE
8
BLACK
6
CONTINUOUS
10
18.8755
20
-15.4678
11
18.8783
21
-15.4622
0
LINE
8
BLACK
6
CONTINUOUS
10
18.8783
20
-15.4622
11
18.8839
21
-15.4594
0
LINE
8
BLACK
6
CONTINUOUS
10
18.8839
20
-15.4594
11
18.8951
21
-15.4594
0
LINE
8
BLACK
6
CONTINUOUS
10
18.8951
20
-15.4594
11
18.9008
21
-15.4622
0
LINE
8
BLACK
6
CONTINUOUS
10
18.9008
20
-15.4622
11
18.9036
21
-15.4678
0
LINE
8
BLACK
6
CONTINUOUS
10
18.9036
20
-15.4678
11
18.9036
21
-15.4734
0
LINE
8
BLACK
6
CONTINUOUS
10
18.9036
20
-15.4734
11
18.8755
21
-15.479
0
LINE
8
BLACK
6
CONTINUOUS
10
18.9204
20
-15.4594
11
18.9429
21
-15.4594
0
LINE
8
BLACK
6
CONTINUOUS
10
18.9289
20
-15.4397
11
18.9289
21
-15.4903
0
LINE
8
BLACK
6
CONTINUOUS
10
18.9289
20
-15.4903
11
18.9317
21
-15.4959
0
LINE
8
BLACK
6
CONTINUOUS
10
18.9317
20
-15.4959
11
18.9373
21
-15.4987
0
LINE
8
BLACK
6
CONTINUOUS
10
18.9373
20
-15.4987
11
18.9429
21
-15.4987
0
LINE
8
BLACK
6
CONTINUOUS
10
18.9626
20
-15.4931
11
18.9654
21
-15.4959
0
LINE
8
BLACK
6
CONTINUOUS
10
18.9654
20
-15.4959
11
18.9626
21
-15.4987
0
LINE
8
BLACK
6
CONTINUOUS
10
18.9626
20
-15.4987
11
18.9598
21
-15.4959
0
LINE
8
BLACK
6
CONTINUOUS
10
18.9598
20
-15.4959
11
18.9626
21
-15.4931
0
LINE
8
BLACK
6
CONTINUOUS
10
18.9626
20
-15.4931
11
18.9626
21
-15.4987
0
LINE
8
BLACK
6
CONTINUOUS
10
18.9626
20
-15.4622
11
18.9654
21
-15.465
0
LINE
8
BLACK
6
CONTINUOUS
10
18.9654
20
-15.465
11
18.9626
21
-15.4678
0
LINE
8
BLACK
6
CONTINUOUS
10
18.9626
20
-15.4678
11
18.9598
21
-15.465
0
LINE
8
BLACK
6
CONTINUOUS
10
18.9598
20
-15.465
11
18.9626
21
-15.4622
0
LINE
8
BLACK
6
CONTINUOUS
10
18.9626
20
-15.4622
11
18.9626
21
-15.4678
0
LINE
8
BLACK
6
CONTINUOUS
10
19.449
20
-15.8067
11
19.449
21
-15.9248
0
LINE
8
BLACK
6
CONTINUOUS
10
21.9687
20
-15.8067
11
21.9687
21
-16.0626
0
LINE
8
BLACK
6
CONTINUOUS
10
14.722
20
-4.78197
11
14.655
21
-4.78197
0
LINE
8
BLACK
6
CONTINUOUS
10
14.655
20
-4.78197
11
14.655
21
-4.7426
0
LINE
8
BLACK
6
CONTINUOUS
10
14.655
20
-4.7426
11
14.722
21
-4.7426
0
LINE
8
BLACK
6
CONTINUOUS
10
14.722
20
-4.7426
11
14.722
21
-4.78197
0
LINE
8
BLACK
6
CONTINUOUS
10
14.97
20
-4.78197
11
14.9031
21
-4.78197
0
LINE
8
BLACK
6
CONTINUOUS
10
14.9031
20
-4.78197
11
14.9031
21
-4.7426
0
LINE
8
BLACK
6
CONTINUOUS
10
14.9031
20
-4.7426
11
14.97
21
-4.7426
0
LINE
8
BLACK
6
CONTINUOUS
10
14.97
20
-4.7426
11
14.97
21
-4.78197
0
LINE
8
BLACK
6
CONTINUOUS
10
14.97
20
-4.63236
11
14.9031
21
-4.63236
0
LINE
8
BLACK
6
CONTINUOUS
10
14.9031
20
-4.63236
11
14.9031
21
-4.59299
0
LINE
8
BLACK
6
CONTINUOUS
10
14.9031
20
-4.59299
11
14.97
21
-4.59299
0
LINE
8
BLACK
6
CONTINUOUS
10
14.97
20
-4.59299
11
14.97
21
-4.63236
0
LINE
8
BLACK
6
CONTINUOUS
10
14.722
20
-4.63236
11
14.655
21
-4.63236
0
LINE
8
BLACK
6
CONTINUOUS
10
14.655
20
-4.63236
11
14.655
21
-4.59299
0
LINE
8
BLACK
6
CONTINUOUS
10
14.655
20
-4.59299
11
14.722
21
-4.59299
0
LINE
8
BLACK
6
CONTINUOUS
10
14.722
20
-4.59299
11
14.722
21
-4.63236
0
LINE
8
BLACK
6
CONTINUOUS
10
8.1759
20
-0.861654
11
8.17774
21
-0.862214
0
LINE
8
BLACK
6
CONTINUOUS
10
8.17774
20
-0.862214
11
8.17944
21
-0.863123
0
LINE
8
BLACK
6
CONTINUOUS
10
8.17944
20
-0.863123
11
8.18094
21
-0.864347
0
LINE
8
BLACK
6
CONTINUOUS
10
8.18094
20
-0.864347
11
8.18216
21
-0.865839
0
LINE
8
BLACK
6
CONTINUOUS
10
8.18216
20
-0.865839
11
8.18307
21
-0.867541
0
LINE
8
BLACK
6
CONTINUOUS
10
8.18307
20
-0.867541
11
8.18363
21
-0.869387
0
LINE
8
BLACK
6
CONTINUOUS
10
8.18363
20
-0.869387
11
8.18382
21
-0.871307
0
LINE
8
BLACK
6
CONTINUOUS
10
8.18382
20
-0.871307
11
8.18382
21
-0.896898
0
LINE
8
BLACK
6
CONTINUOUS
10
8.18382
20
-0.896898
11
8.18363
21
-0.898818
0
LINE
8
BLACK
6
CONTINUOUS
10
8.18363
20
-0.898818
11
8.18307
21
-0.900664
0
LINE
8
BLACK
6
CONTINUOUS
10
8.18307
20
-0.900664
11
8.18216
21
-0.902366
0
LINE
8
BLACK
6
CONTINUOUS
10
8.18216
20
-0.902366
11
8.18094
21
-0.903857
0
LINE
8
BLACK
6
CONTINUOUS
10
8.18094
20
-0.903857
11
8.17944
21
-0.905081
0
LINE
8
BLACK
6
CONTINUOUS
10
8.17944
20
-0.905081
11
8.17774
21
-0.905991
0
LINE
8
BLACK
6
CONTINUOUS
10
8.17774
20
-0.905991
11
8.1759
21
-0.906551
0
LINE
8
BLACK
6
CONTINUOUS
10
8.1759
20
-0.906551
11
8.17398
21
-0.90674
0
LINE
8
BLACK
6
CONTINUOUS
10
8.17398
20
-0.90674
11
8.13854
21
-0.90674
0
LINE
8
BLACK
6
CONTINUOUS
10
8.13854
20
-0.90674
11
8.13662
21
-0.906551
0
LINE
8
BLACK
6
CONTINUOUS
10
8.13662
20
-0.906551
11
8.13478
21
-0.905991
0
LINE
8
BLACK
6
CONTINUOUS
10
8.13478
20
-0.905991
11
8.13308
21
-0.905081
0
LINE
8
BLACK
6
CONTINUOUS
10
8.13308
20
-0.905081
11
8.13158
21
-0.903857
0
LINE
8
BLACK
6
CONTINUOUS
10
8.13158
20
-0.903857
11
8.13036
21
-0.902366
0
LINE
8
BLACK
6
CONTINUOUS
10
8.13036
20
-0.902366
11
8.12945
21
-0.900664
0
LINE
8
BLACK
6
CONTINUOUS
10
8.12945
20
-0.900664
11
8.12889
21
-0.898818
0
LINE
8
BLACK
6
CONTINUOUS
10
8.12889
20
-0.898818
11
8.1287
21
-0.896898
0
LINE
8
BLACK
6
CONTINUOUS
10
8.1287
20
-0.896898
11
8.1287
21
-0.871307
0
LINE
8
BLACK
6
CONTINUOUS
10
8.1287
20
-0.871307
11
8.12889
21
-0.869387
0
LINE
8
BLACK
6
CONTINUOUS
10
8.12889
20
-0.869387
11
8.12945
21
-0.867541
0
LINE
8
BLACK
6
CONTINUOUS
10
8.12945
20
-0.867541
11
8.13036
21
-0.865839
0
LINE
8
BLACK
6
CONTINUOUS
10
8.13036
20
-0.865839
11
8.13158
21
-0.864347
0
LINE
8
BLACK
6
CONTINUOUS
10
8.13158
20
-0.864347
11
8.13308
21
-0.863123
0
LINE
8
BLACK
6
CONTINUOUS
10
8.13308
20
-0.863123
11
8.13478
21
-0.862214
0
LINE
8
BLACK
6
CONTINUOUS
10
8.13478
20
-0.862214
11
8.13662
21
-0.861654
0
LINE
8
BLACK
6
CONTINUOUS
10
8.13662
20
-0.861654
11
8.13854
21
-0.861465
0
LINE
8
BLACK
6
CONTINUOUS
10
8.13854
20
-0.861465
11
8.17398
21
-0.861465
0
LINE
8
BLACK
6
CONTINUOUS
10
8.17398
20
-0.861465
11
8.1759
21
-0.861654
0
LINE
8
BLACK
6
CONTINUOUS
10
8.26964
20
-0.861654
11
8.27148
21
-0.862214
0
LINE
8
BLACK
6
CONTINUOUS
10
8.27148
20
-0.862214
11
8.27318
21
-0.863123
0
LINE
8
BLACK
6
CONTINUOUS
10
8.27318
20
-0.863123
11
8.27468
21
-0.864347
0
LINE
8
BLACK
6
CONTINUOUS
10
8.27468
20
-0.864347
11
8.2759
21
-0.865839
0
LINE
8
BLACK
6
CONTINUOUS
10
8.2759
20
-0.865839
11
8.27681
21
-0.867541
0
LINE
8
BLACK
6
CONTINUOUS
10
8.27681
20
-0.867541
11
8.27737
21
-0.869387
0
LINE
8
BLACK
6
CONTINUOUS
10
8.27737
20
-0.869387
11
8.27756
21
-0.871307
0
LINE
8
BLACK
6
CONTINUOUS
10
8.27756
20
-0.871307
11
8.27756
21
-0.896898
0
LINE
8
BLACK
6
CONTINUOUS
10
8.27756
20
-0.896898
11
8.27737
21
-0.898818
0
LINE
8
BLACK
6
CONTINUOUS
10
8.27737
20
-0.898818
11
8.27681
21
-0.900664
0
LINE
8
BLACK
6
CONTINUOUS
10
8.27681
20
-0.900664
11
8.2759
21
-0.902366
0
LINE
8
BLACK
6
CONTINUOUS
10
8.2759
20
-0.902366
11
8.27468
21
-0.903857
0
LINE
8
BLACK
6
CONTINUOUS
10
8.27468
20
-0.903857
11
8.27318
21
-0.905081
0
LINE
8
BLACK
6
CONTINUOUS
10
8.27318
20
-0.905081
11
8.27148
21
-0.905991
0
LINE
8
BLACK
6
CONTINUOUS
10
8.27148
20
-0.905991
11
8.26964
21
-0.906551
0
LINE
8
BLACK
6
CONTINUOUS
10
8.26964
20
-0.906551
11
8.26772
21
-0.90674
0
LINE
8
BLACK
6
CONTINUOUS
10
8.26772
20
-0.90674
11
8.23228
21
-0.90674
0
LINE
8
BLACK
6
CONTINUOUS
10
8.23228
20
-0.90674
11
8.23036
21
-0.906551
0
LINE
8
BLACK
6
CONTINUOUS
10
8.23036
20
-0.906551
11
8.22852
21
-0.905991
0
LINE
8
BLACK
6
CONTINUOUS
10
8.22852
20
-0.905991
11
8.22682
21
-0.905081
0
LINE
8
BLACK
6
CONTINUOUS
10
8.22682
20
-0.905081
11
8.22532
21
-0.903857
0
LINE
8
BLACK
6
CONTINUOUS
10
8.22532
20
-0.903857
11
8.2241
21
-0.902366
0
LINE
8
BLACK
6
CONTINUOUS
10
8.2241
20
-0.902366
11
8.22319
21
-0.900664
0
LINE
8
BLACK
6
CONTINUOUS
10
8.22319
20
-0.900664
11
8.22263
21
-0.898818
0
LINE
8
BLACK
6
CONTINUOUS
10
8.22263
20
-0.898818
11
8.22244
21
-0.896898
0
LINE
8
BLACK
6
CONTINUOUS
10
8.22244
20
-0.896898
11
8.22244
21
-0.871307
0
LINE
8
BLACK
6
CONTINUOUS
10
8.22244
20
-0.871307
11
8.22263
21
-0.869387
0
LINE
8
BLACK
6
CONTINUOUS
10
8.22263
20
-0.869387
11
8.22319
21
-0.867541
0
LINE
8
BLACK
6
CONTINUOUS
10
8.22319
20
-0.867541
11
8.2241
21
-0.865839
0
LINE
8
BLACK
6
CONTINUOUS
10
8.2241
20
-0.865839
11
8.22532
21
-0.864347
0
LINE
8
BLACK
6
CONTINUOUS
10
8.22532
20
-0.864347
11
8.22682
21
-0.863123
0
LINE
8
BLACK
6
CONTINUOUS
10
8.22682
20
-0.863123
11
8.22852
21
-0.862214
0
LINE
8
BLACK
6
CONTINUOUS
10
8.22852
20
-0.862214
11
8.23036
21
-0.861654
0
LINE
8
BLACK
6
CONTINUOUS
10
8.23036
20
-0.861654
11
8.23228
21
-0.861465
0
LINE
8
BLACK
6
CONTINUOUS
10
8.23228
20
-0.861465
11
8.26772
21
-0.861465
0
LINE
8
BLACK
6
CONTINUOUS
10
8.26772
20
-0.861465
11
8.26964
21
-0.861654
0
LINE
8
BLACK
6
CONTINUOUS
10
8.36338
20
-0.861654
11
8.36522
21
-0.862214
0
LINE
8
BLACK
6
CONTINUOUS
10
8.36522
20
-0.862214
11
8.36692
21
-0.863123
0
LINE
8
BLACK
6
CONTINUOUS
10
8.36692
20
-0.863123
11
8.36842
21
-0.864347
0
LINE
8
BLACK
6
CONTINUOUS
10
8.36842
20
-0.864347
11
8.36964
21
-0.865839
0
LINE
8
BLACK
6
CONTINUOUS
10
8.36964
20
-0.865839
11
8.37055
21
-0.867541
0
LINE
8
BLACK
6
CONTINUOUS
10
8.37055
20
-0.867541
11
8.37111
21
-0.869387
0
LINE
8
BLACK
6
CONTINUOUS
10
8.37111
20
-0.869387
11
8.3713
21
-0.871307
0
LINE
8
BLACK
6
CONTINUOUS
10
8.3713
20
-0.871307
11
8.3713
21
-0.896898
0
LINE
8
BLACK
6
CONTINUOUS
10
8.3713
20
-0.896898
11
8.37111
21
-0.898818
0
LINE
8
BLACK
6
CONTINUOUS
10
8.37111
20
-0.898818
11
8.37055
21
-0.900664
0
LINE
8
BLACK
6
CONTINUOUS
10
8.37055
20
-0.900664
11
8.36964
21
-0.902366
0
LINE
8
BLACK
6
CONTINUOUS
10
8.36964
20
-0.902366
11
8.36842
21
-0.903857
0
LINE
8
BLACK
6
CONTINUOUS
10
8.36842
20
-0.903857
11
8.36692
21
-0.905081
0
LINE
8
BLACK
6
CONTINUOUS
10
8.36692
20
-0.905081
11
8.36522
21
-0.905991
0
LINE
8
BLACK
6
CONTINUOUS
10
8.36522
20
-0.905991
11
8.36338
21
-0.906551
0
LINE
8
BLACK
6
CONTINUOUS
10
8.36338
20
-0.906551
11
8.36146
21
-0.90674
0
LINE
8
BLACK
6
CONTINUOUS
10
8.36146
20
-0.90674
11
8.32602
21
-0.90674
0
LINE
8
BLACK
6
CONTINUOUS
10
8.32602
20
-0.90674
11
8.3241
21
-0.906551
0
LINE
8
BLACK
6
CONTINUOUS
10
8.3241
20
-0.906551
11
8.32226
21
-0.905991
0
LINE
8
BLACK
6
CONTINUOUS
10
8.32226
20
-0.905991
11
8.32056
21
-0.905081
0
LINE
8
BLACK
6
CONTINUOUS
10
8.32056
20
-0.905081
11
8.31906
21
-0.903857
0
LINE
8
BLACK
6
CONTINUOUS
10
8.31906
20
-0.903857
11
8.31784
21
-0.902366
0
LINE
8
BLACK
6
CONTINUOUS
10
8.31784
20
-0.902366
11
8.31693
21
-0.900664
0
LINE
8
BLACK
6
CONTINUOUS
10
8.31693
20
-0.900664
11
8.31637
21
-0.898818
0
LINE
8
BLACK
6
CONTINUOUS
10
8.31637
20
-0.898818
11
8.31618
21
-0.896898
0
LINE
8
BLACK
6
CONTINUOUS
10
8.31618
20
-0.896898
11
8.31618
21
-0.871307
0
LINE
8
BLACK
6
CONTINUOUS
10
8.31618
20
-0.871307
11
8.31637
21
-0.869387
0
LINE
8
BLACK
6
CONTINUOUS
10
8.31637
20
-0.869387
11
8.31693
21
-0.867541
0
LINE
8
BLACK
6
CONTINUOUS
10
8.31693
20
-0.867541
11
8.31784
21
-0.865839
0
LINE
8
BLACK
6
CONTINUOUS
10
8.31784
20
-0.865839
11
8.31906
21
-0.864347
0
LINE
8
BLACK
6
CONTINUOUS
10
8.31906
20
-0.864347
11
8.32056
21
-0.863123
0
LINE
8
BLACK
6
CONTINUOUS
10
8.32056
20
-0.863123
11
8.32226
21
-0.862214
0
LINE
8
BLACK
6
CONTINUOUS
10
8.32226
20
-0.862214
11
8.3241
21
-0.861654
0
LINE
8
BLACK
6
CONTINUOUS
10
8.3241
20
-0.861654
11
8.32602
21
-0.861465
0
LINE
8
BLACK
6
CONTINUOUS
10
8.32602
20
-0.861465
11
8.36146
21
-0.861465
0
LINE
8
BLACK
6
CONTINUOUS
10
8.36146
20
-0.861465
11
8.36338
21
-0.861654
0
LINE
8
BLACK
6
CONTINUOUS
10
8.45712
20
-0.861654
11
8.45896
21
-0.862214
0
LINE
8
BLACK
6
CONTINUOUS
10
8.45896
20
-0.862214
11
8.46067
21
-0.863123
0
LINE
8
BLACK
6
CONTINUOUS
10
8.46067
20
-0.863123
11
8.46216
21
-0.864347
0
LINE
8
BLACK
6
CONTINUOUS
10
8.46216
20
-0.864347
11
8.46338
21
-0.865839
0
LINE
8
BLACK
6
CONTINUOUS
10
8.46338
20
-0.865839
11
8.46429
21
-0.867541
0
LINE
8
BLACK
6
CONTINUOUS
10
8.46429
20
-0.867541
11
8.46485
21
-0.869387
0
LINE
8
BLACK
6
CONTINUOUS
10
8.46485
20
-0.869387
11
8.46504
21
-0.871307
0
LINE
8
BLACK
6
CONTINUOUS
10
8.46504
20
-0.871307
11
8.46504
21
-0.896898
0
LINE
8
BLACK
6
CONTINUOUS
10
8.46504
20
-0.896898
11
8.46485
21
-0.898818
0
LINE
8
BLACK
6
CONTINUOUS
10
8.46485
20
-0.898818
11
8.46429
21
-0.900664
0
LINE
8
BLACK
6
CONTINUOUS
10
8.46429
20
-0.900664
11
8.46338
21
-0.902366
0
LINE
8
BLACK
6
CONTINUOUS
10
8.46338
20
-0.902366
11
8.46216
21
-0.903857
0
LINE
8
BLACK
6
CONTINUOUS
10
8.46216
20
-0.903857
11
8.46067
21
-0.905081
0
LINE
8
BLACK
6
CONTINUOUS
10
8.46067
20
-0.905081
11
8.45896
21
-0.905991
0
LINE
8
BLACK
6
CONTINUOUS
10
8.45896
20
-0.905991
11
8.45712
21
-0.906551
0
LINE
8
BLACK
6
CONTINUOUS
10
8.45712
20
-0.906551
11
8.4552
21
-0.90674
0
LINE
8
BLACK
6
CONTINUOUS
10
8.4552
20
-0.90674
11
8.41976
21
-0.90674
0
LINE
8
BLACK
6
CONTINUOUS
10
8.41976
20
-0.90674
11
8.41784
21
-0.906551
0
LINE
8
BLACK
6
CONTINUOUS
10
8.41784
20
-0.906551
11
8.416
21
-0.905991
0
LINE
8
BLACK
6
CONTINUOUS
10
8.416
20
-0.905991
11
8.4143
21
-0.905081
0
LINE
8
BLACK
6
CONTINUOUS
10
8.4143
20
-0.905081
11
8.4128
21
-0.903857
0
LINE
8
BLACK
6
CONTINUOUS
10
8.4128
20
-0.903857
11
8.41158
21
-0.902366
0
LINE
8
BLACK
6
CONTINUOUS
10
8.41158
20
-0.902366
11
8.41067
21
-0.900664
0
LINE
8
BLACK
6
CONTINUOUS
10
8.41067
20
-0.900664
11
8.41011
21
-0.898818
0
LINE
8
BLACK
6
CONTINUOUS
10
8.41011
20
-0.898818
11
8.40992
21
-0.896898
0
LINE
8
BLACK
6
CONTINUOUS
10
8.40992
20
-0.896898
11
8.40992
21
-0.871307
0
LINE
8
BLACK
6
CONTINUOUS
10
8.40992
20
-0.871307
11
8.41011
21
-0.869387
0
LINE
8
BLACK
6
CONTINUOUS
10
8.41011
20
-0.869387
11
8.41067
21
-0.867541
0
LINE
8
BLACK
6
CONTINUOUS
10
8.41067
20
-0.867541
11
8.41158
21
-0.865839
0
LINE
8
BLACK
6
CONTINUOUS
10
8.41158
20
-0.865839
11
8.4128
21
-0.864347
0
LINE
8
BLACK
6
CONTINUOUS
10
8.4128
20
-0.864347
11
8.4143
21
-0.863123
0
LINE
8
BLACK
6
CONTINUOUS
10
8.4143
20
-0.863123
11
8.416
21
-0.862214
0
LINE
8
BLACK
6
CONTINUOUS
10
8.416
20
-0.862214
11
8.41784
21
-0.861654
0
LINE
8
BLACK
6
CONTINUOUS
10
8.41784
20
-0.861654
11
8.41976
21
-0.861465
0
LINE
8
BLACK
6
CONTINUOUS
10
8.41976
20
-0.861465
11
8.4552
21
-0.861465
0
LINE
8
BLACK
6
CONTINUOUS
10
8.4552
20
-0.861465
11
8.45712
21
-0.861654
0
LINE
8
BLACK
6
CONTINUOUS
10
8.5509
20
-0.861654
11
8.55274
21
-0.862214
0
LINE
8
BLACK
6
CONTINUOUS
10
8.55274
20
-0.862214
11
8.55444
21
-0.863123
0
LINE
8
BLACK
6
CONTINUOUS
10
8.55444
20
-0.863123
11
8.55594
21
-0.864347
0
LINE
8
BLACK
6
CONTINUOUS
10
8.55594
20
-0.864347
11
8.55716
21
-0.865839
0
LINE
8
BLACK
6
CONTINUOUS
10
8.55716
20
-0.865839
11
8.55807
21
-0.867541
0
LINE
8
BLACK
6
CONTINUOUS
10
8.55807
20
-0.867541
11
8.55863
21
-0.869387
0
LINE
8
BLACK
6
CONTINUOUS
10
8.55863
20
-0.869387
11
8.55882
21
-0.871307
0
LINE
8
BLACK
6
CONTINUOUS
10
8.55882
20
-0.871307
11
8.55882
21
-0.896898
0
LINE
8
BLACK
6
CONTINUOUS
10
8.55882
20
-0.896898
11
8.55863
21
-0.898818
0
LINE
8
BLACK
6
CONTINUOUS
10
8.55863
20
-0.898818
11
8.55807
21
-0.900664
0
LINE
8
BLACK
6
CONTINUOUS
10
8.55807
20
-0.900664
11
8.55716
21
-0.902366
0
LINE
8
BLACK
6
CONTINUOUS
10
8.55716
20
-0.902366
11
8.55594
21
-0.903857
0
LINE
8
BLACK
6
CONTINUOUS
10
8.55594
20
-0.903857
11
8.55444
21
-0.905081
0
LINE
8
BLACK
6
CONTINUOUS
10
8.55444
20
-0.905081
11
8.55274
21
-0.905991
0
LINE
8
BLACK
6
CONTINUOUS
10
8.55274
20
-0.905991
11
8.5509
21
-0.906551
0
LINE
8
BLACK
6
CONTINUOUS
10
8.5509
20
-0.906551
11
8.54898
21
-0.90674
0
LINE
8
BLACK
6
CONTINUOUS
10
8.54898
20
-0.90674
11
8.51354
21
-0.90674
0
LINE
8
BLACK
6
CONTINUOUS
10
8.51354
20
-0.90674
11
8.51162
21
-0.906551
0
LINE
8
BLACK
6
CONTINUOUS
10
8.51162
20
-0.906551
11
8.50978
21
-0.905991
0
LINE
8
BLACK
6
CONTINUOUS
10
8.50978
20
-0.905991
11
8.50808
21
-0.905081
0
LINE
8
BLACK
6
CONTINUOUS
10
8.50808
20
-0.905081
11
8.50658
21
-0.903857
0
LINE
8
BLACK
6
CONTINUOUS
10
8.50658
20
-0.903857
11
8.50536
21
-0.902366
0
LINE
8
BLACK
6
CONTINUOUS
10
8.50536
20
-0.902366
11
8.50445
21
-0.900664
0
LINE
8
BLACK
6
CONTINUOUS
10
8.50445
20
-0.900664
11
8.50389
21
-0.898818
0
LINE
8
BLACK
6
CONTINUOUS
10
8.50389
20
-0.898818
11
8.5037
21
-0.896898
0
LINE
8
BLACK
6
CONTINUOUS
10
8.5037
20
-0.896898
11
8.5037
21
-0.871307
0
LINE
8
BLACK
6
CONTINUOUS
10
8.5037
20
-0.871307
11
8.50389
21
-0.869387
0
LINE
8
BLACK
6
CONTINUOUS
10
8.50389
20
-0.869387
11
8.50445
21
-0.867541
0
LINE
8
BLACK
6
CONTINUOUS
10
8.50445
20
-0.867541
11
8.50536
21
-0.865839
0
LINE
8
BLACK
6
CONTINUOUS
10
8.50536
20
-0.865839
11
8.50658
21
-0.864347
0
LINE
8
BLACK
6
CONTINUOUS
10
8.50658
20
-0.864347
11
8.50808
21
-0.863123
0
LINE
8
BLACK
6
CONTINUOUS
10
8.50808
20
-0.863123
11
8.50978
21
-0.862214
0
LINE
8
BLACK
6
CONTINUOUS
10
8.50978
20
-0.862214
11
8.51162
21
-0.861654
0
LINE
8
BLACK
6
CONTINUOUS
10
8.51162
20
-0.861654
11
8.51354
21
-0.861465
0
LINE
8
BLACK
6
CONTINUOUS
10
8.51354
20
-0.861465
11
8.54898
21
-0.861465
0
LINE
8
BLACK
6
CONTINUOUS
10
8.54898
20
-0.861465
11
8.5509
21
-0.861654
0
LINE
8
BLACK
6
CONTINUOUS
10
8.1759
20
-0.780945
11
8.17774
21
-0.781505
0
LINE
8
BLACK
6
CONTINUOUS
10
8.17774
20
-0.781505
11
8.17944
21
-0.782415
0
LINE
8
BLACK
6
CONTINUOUS
10
8.17944
20
-0.782415
11
8.18094
21
-0.783639
0
LINE
8
BLACK
6
CONTINUOUS
10
8.18094
20
-0.783639
11
8.18216
21
-0.78513
0
LINE
8
BLACK
6
CONTINUOUS
10
8.18216
20
-0.78513
11
8.18307
21
-0.786832
0
LINE
8
BLACK
6
CONTINUOUS
10
8.18307
20
-0.786832
11
8.18363
21
-0.788678
0
LINE
8
BLACK
6
CONTINUOUS
10
8.18363
20
-0.788678
11
8.18382
21
-0.790598
0
LINE
8
BLACK
6
CONTINUOUS
10
8.18382
20
-0.790598
11
8.18382
21
-0.816189
0
LINE
8
BLACK
6
CONTINUOUS
10
8.18382
20
-0.816189
11
8.18363
21
-0.818109
0
LINE
8
BLACK
6
CONTINUOUS
10
8.18363
20
-0.818109
11
8.18307
21
-0.819956
0
LINE
8
BLACK
6
CONTINUOUS
10
8.18307
20
-0.819956
11
8.18216
21
-0.821657
0
LINE
8
BLACK
6
CONTINUOUS
10
8.18216
20
-0.821657
11
8.18094
21
-0.823149
0
LINE
8
BLACK
6
CONTINUOUS
10
8.18094
20
-0.823149
11
8.17944
21
-0.824373
0
LINE
8
BLACK
6
CONTINUOUS
10
8.17944
20
-0.824373
11
8.17774
21
-0.825282
0
LINE
8
BLACK
6
CONTINUOUS
10
8.17774
20
-0.825282
11
8.1759
21
-0.825842
0
LINE
8
BLACK
6
CONTINUOUS
10
8.1759
20
-0.825842
11
8.17398
21
-0.826031
0
LINE
8
BLACK
6
CONTINUOUS
10
8.17398
20
-0.826031
11
8.13854
21
-0.826031
0
LINE
8
BLACK
6
CONTINUOUS
10
8.13854
20
-0.826031
11
8.13662
21
-0.825842
0
LINE
8
BLACK
6
CONTINUOUS
10
8.13662
20
-0.825842
11
8.13478
21
-0.825282
0
LINE
8
BLACK
6
CONTINUOUS
10
8.13478
20
-0.825282
11
8.13308
21
-0.824373
0
LINE
8
BLACK
6
CONTINUOUS
10
8.13308
20
-0.824373
11
8.13158
21
-0.823149
0
LINE
8
BLACK
6
CONTINUOUS
10
8.13158
20
-0.823149
11
8.13036
21
-0.821657
0
LINE
8
BLACK
6
CONTINUOUS
10
8.13036
20
-0.821657
11
8.12945
21
-0.819956
0
LINE
8
BLACK
6
CONTINUOUS
10
8.12945
20
-0.819956
11
8.12889
21
-0.818109
0
LINE
8
BLACK
6
CONTINUOUS
10
8.12889
20
-0.818109
11
8.1287
21
-0.816189
0
LINE
8
BLACK
6
CONTINUOUS
10
8.1287
20
-0.816189
11
8.1287
21
-0.790598
0
LINE
8
BLACK
6
CONTINUOUS
10
8.1287
20
-0.790598
11
8.12889
21
-0.788678
0
LINE
8
BLACK
6
CONTINUOUS
10
8.12889
20
-0.788678
11
8.12945
21
-0.786832
0
LINE
8
BLACK
6
CONTINUOUS
10
8.12945
20
-0.786832
11
8.13036
21
-0.78513
0
LINE
8
BLACK
6
CONTINUOUS
10
8.13036
20
-0.78513
11
8.13158
21
-0.783639
0
LINE
8
BLACK
6
CONTINUOUS
10
8.13158
20
-0.783639
11
8.13308
21
-0.782415
0
LINE
8
BLACK
6
CONTINUOUS
10
8.13308
20
-0.782415
11
8.13478
21
-0.781505
0
LINE
8
BLACK
6
CONTINUOUS
10
8.13478
20
-0.781505
11
8.13662
21
-0.780945
0
LINE
8
BLACK
6
CONTINUOUS
10
8.13662
20
-0.780945
11
8.13854
21
-0.780756
0
LINE
8
BLACK
6
CONTINUOUS
10
8.13854
20
-0.780756
11
8.17398
21
-0.780756
0
LINE
8
BLACK
6
CONTINUOUS
10
8.17398
20
-0.780756
11
8.1759
21
-0.780945
0
LINE
8
BLACK
6
CONTINUOUS
10
8.26964
20
-0.780945
11
8.27148
21
-0.781505
0
LINE
8
BLACK
6
CONTINUOUS
10
8.27148
20
-0.781505
11
8.27318
21
-0.782415
0
LINE
8
BLACK
6
CONTINUOUS
10
8.27318
20
-0.782415
11
8.27468
21
-0.783639
0
LINE
8
BLACK
6
CONTINUOUS
10
8.27468
20
-0.783639
11
8.2759
21
-0.78513
0
LINE
8
BLACK
6
CONTINUOUS
10
8.2759
20
-0.78513
11
8.27681
21
-0.786832
0
LINE
8
BLACK
6
CONTINUOUS
10
8.27681
20
-0.786832
11
8.27737
21
-0.788678
0
LINE
8
BLACK
6
CONTINUOUS
10
8.27737
20
-0.788678
11
8.27756
21
-0.790598
0
LINE
8
BLACK
6
CONTINUOUS
10
8.27756
20
-0.790598
11
8.27756
21
-0.816189
0
LINE
8
BLACK
6
CONTINUOUS
10
8.27756
20
-0.816189
11
8.27737
21
-0.818109
0
LINE
8
BLACK
6
CONTINUOUS
10
8.27737
20
-0.818109
11
8.27681
21
-0.819956
0
LINE
8
BLACK
6
CONTINUOUS
10
8.27681
20
-0.819956
11
8.2759
21
-0.821657
0
LINE
8
BLACK
6
CONTINUOUS
10
8.2759
20
-0.821657
11
8.27468
21
-0.823149
0
LINE
8
BLACK
6
CONTINUOUS
10
8.27468
20
-0.823149
11
8.27318
21
-0.824373
0
LINE
8
BLACK
6
CONTINUOUS
10
8.27318
20
-0.824373
11
8.27148
21
-0.825282
0
LINE
8
BLACK
6
CONTINUOUS
10
8.27148
20
-0.825282
11
8.26964
21
-0.825842
0
LINE
8
BLACK
6
CONTINUOUS
10
8.26964
20
-0.825842
11
8.26772
21
-0.826031
0
LINE
8
BLACK
6
CONTINUOUS
10
8.26772
20
-0.826031
11
8.23228
21
-0.826031
0
LINE
8
BLACK
6
CONTINUOUS
10
8.23228
20
-0.826031
11
8.23036
21
-0.825842
0
LINE
8
BLACK
6
CONTINUOUS
10
8.23036
20
-0.825842
11
8.22852
21
-0.825282
0
LINE
8
BLACK
6
CONTINUOUS
10
8.22852
20
-0.825282
11
8.22682
21
-0.824373
0
LINE
8
BLACK
6
CONTINUOUS
10
8.22682
20
-0.824373
11
8.22532
21
-0.823149
0
LINE
8
BLACK
6
CONTINUOUS
10
8.22532
20
-0.823149
11
8.2241
21
-0.821657
0
LINE
8
BLACK
6
CONTINUOUS
10
8.2241
20
-0.821657
11
8.22319
21
-0.819956
0
LINE
8
BLACK
6
CONTINUOUS
10
8.22319
20
-0.819956
11
8.22263
21
-0.818109
0
LINE
8
BLACK
6
CONTINUOUS
10
8.22263
20
-0.818109
11
8.22244
21
-0.816189
0
LINE
8
BLACK
6
CONTINUOUS
10
8.22244
20
-0.816189
11
8.22244
21
-0.790598
0
LINE
8
BLACK
6
CONTINUOUS
10
8.22244
20
-0.790598
11
8.22263
21
-0.788678
0
LINE
8
BLACK
6
CONTINUOUS
10
8.22263
20
-0.788678
11
8.22319
21
-0.786832
0
LINE
8
BLACK
6
CONTINUOUS
10
8.22319
20
-0.786832
11
8.2241
21
-0.78513
0
LINE
8
BLACK
6
CONTINUOUS
10
8.2241
20
-0.78513
11
8.22532
21
-0.783639
0
LINE
8
BLACK
6
CONTINUOUS
10
8.22532
20
-0.783639
11
8.22682
21
-0.782415
0
LINE
8
BLACK
6
CONTINUOUS
10
8.22682
20
-0.782415
11
8.22852
21
-0.781505
0
LINE
8
BLACK
6
CONTINUOUS
10
8.22852
20
-0.781505
11
8.23036
21
-0.780945
0
LINE
8
BLACK
6
CONTINUOUS
10
8.23036
20
-0.780945
11
8.23228
21
-0.780756
0
LINE
8
BLACK
6
CONTINUOUS
10
8.23228
20
-0.780756
11
8.26772
21
-0.780756
0
LINE
8
BLACK
6
CONTINUOUS
10
8.26772
20
-0.780756
11
8.26964
21
-0.780945
0
LINE
8
BLACK
6
CONTINUOUS
10
8.36338
20
-0.780945
11
8.36522
21
-0.781505
0
LINE
8
BLACK
6
CONTINUOUS
10
8.36522
20
-0.781505
11
8.36692
21
-0.782415
0
LINE
8
BLACK
6
CONTINUOUS
10
8.36692
20
-0.782415
11
8.36842
21
-0.783639
0
LINE
8
BLACK
6
CONTINUOUS
10
8.36842
20
-0.783639
11
8.36964
21
-0.78513
0
LINE
8
BLACK
6
CONTINUOUS
10
8.36964
20
-0.78513
11
8.37055
21
-0.786832
0
LINE
8
BLACK
6
CONTINUOUS
10
8.37055
20
-0.786832
11
8.37111
21
-0.788678
0
LINE
8
BLACK
6
CONTINUOUS
10
8.37111
20
-0.788678
11
8.3713
21
-0.790598
0
LINE
8
BLACK
6
CONTINUOUS
10
8.3713
20
-0.790598
11
8.3713
21
-0.816189
0
LINE
8
BLACK
6
CONTINUOUS
10
8.3713
20
-0.816189
11
8.37111
21
-0.818109
0
LINE
8
BLACK
6
CONTINUOUS
10
8.37111
20
-0.818109
11
8.37055
21
-0.819956
0
LINE
8
BLACK
6
CONTINUOUS
10
8.37055
20
-0.819956
11
8.36964
21
-0.821657
0
LINE
8
BLACK
6
CONTINUOUS
10
8.36964
20
-0.821657
11
8.36842
21
-0.823149
0
LINE
8
BLACK
6
CONTINUOUS
10
8.36842
20
-0.823149
11
8.36692
21
-0.824373
0
LINE
8
BLACK
6
CONTINUOUS
10
8.36692
20
-0.824373
11
8.36522
21
-0.825282
0
LINE
8
BLACK
6
CONTINUOUS
10
8.36522
20
-0.825282
11
8.36338
21
-0.825842
0
LINE
8
BLACK
6
CONTINUOUS
10
8.36338
20
-0.825842
11
8.36146
21
-0.826031
0
LINE
8
BLACK
6
CONTINUOUS
10
8.36146
20
-0.826031
11
8.32602
21
-0.826031
0
LINE
8
BLACK
6
CONTINUOUS
10
8.32602
20
-0.826031
11
8.3241
21
-0.825842
0
LINE
8
BLACK
6
CONTINUOUS
10
8.3241
20
-0.825842
11
8.32226
21
-0.825282
0
LINE
8
BLACK
6
CONTINUOUS
10
8.32226
20
-0.825282
11
8.32056
21
-0.824373
0
LINE
8
BLACK
6
CONTINUOUS
10
8.32056
20
-0.824373
11
8.31906
21
-0.823149
0
LINE
8
BLACK
6
CONTINUOUS
10
8.31906
20
-0.823149
11
8.31784
21
-0.821657
0
LINE
8
BLACK
6
CONTINUOUS
10
8.31784
20
-0.821657
11
8.31693
21
-0.819956
0
LINE
8
BLACK
6
CONTINUOUS
10
8.31693
20
-0.819956
11
8.31637
21
-0.818109
0
LINE
8
BLACK
6
CONTINUOUS
10
8.31637
20
-0.818109
11
8.31618
21
-0.816189
0
LINE
8
BLACK
6
CONTINUOUS
10
8.31618
20
-0.816189
11
8.31618
21
-0.790598
0
LINE
8
BLACK
6
CONTINUOUS
10
8.31618
20
-0.790598
11
8.31637
21
-0.788678
0
LINE
8
BLACK
6
CONTINUOUS
10
8.31637
20
-0.788678
11
8.31693
21
-0.786832
0
LINE
8
BLACK
6
CONTINUOUS
10
8.31693
20
-0.786832
11
8.31784
21
-0.78513
0
LINE
8
BLACK
6
CONTINUOUS
10
8.31784
20
-0.78513
11
8.31906
21
-0.783639
0
LINE
8
BLACK
6
CONTINUOUS
10
8.31906
20
-0.783639
11
8.32056
21
-0.782415
0
LINE
8
BLACK
6
CONTINUOUS
10
8.32056
20
-0.782415
11
8.32226
21
-0.781505
0
LINE
8
BLACK
6
CONTINUOUS
10
8.32226
20
-0.781505
11
8.3241
21
-0.780945
0
LINE
8
BLACK
6
CONTINUOUS
10
8.3241
20
-0.780945
11
8.32602
21
-0.780756
0
LINE
8
BLACK
6
CONTINUOUS
10
8.32602
20
-0.780756
11
8.36146
21
-0.780756
0
LINE
8
BLACK
6
CONTINUOUS
10
8.36146
20
-0.780756
11
8.36338
21
-0.780945
0
LINE
8
BLACK
6
CONTINUOUS
10
8.45712
20
-0.780945
11
8.45896
21
-0.781505
0
LINE
8
BLACK
6
CONTINUOUS
10
8.45896
20
-0.781505
11
8.46067
21
-0.782415
0
LINE
8
BLACK
6
CONTINUOUS
10
8.46067
20
-0.782415
11
8.46216
21
-0.783639
0
LINE
8
BLACK
6
CONTINUOUS
10
8.46216
20
-0.783639
11
8.46338
21
-0.78513
0
LINE
8
BLACK
6
CONTINUOUS
10
8.46338
20
-0.78513
11
8.46429
21
-0.786832
0
LINE
8
BLACK
6
CONTINUOUS
10
8.46429
20
-0.786832
11
8.46485
21
-0.788678
0
LINE
8
BLACK
6
CONTINUOUS
10
8.46485
20
-0.788678
11
8.46504
21
-0.790598
0
LINE
8
BLACK
6
CONTINUOUS
10
8.46504
20
-0.790598
11
8.46504
21
-0.816189
0
LINE
8
BLACK
6
CONTINUOUS
10
8.46504
20
-0.816189
11
8.46485
21
-0.818109
0
LINE
8
BLACK
6
CONTINUOUS
10
8.46485
20
-0.818109
11
8.46429
21
-0.819956
0
LINE
8
BLACK
6
CONTINUOUS
10
8.46429
20
-0.819956
11
8.46338
21
-0.821657
0
LINE
8
BLACK
6
CONTINUOUS
10
8.46338
20
-0.821657
11
8.46216
21
-0.823149
0
LINE
8
BLACK
6
CONTINUOUS
10
8.46216
20
-0.823149
11
8.46067
21
-0.824373
0
LINE
8
BLACK
6
CONTINUOUS
10
8.46067
20
-0.824373
11
8.45896
21
-0.825282
0
LINE
8
BLACK
6
CONTINUOUS
10
8.45896
20
-0.825282
11
8.45712
21
-0.825842
0
LINE
8
BLACK
6
CONTINUOUS
10
8.45712
20
-0.825842
11
8.4552
21
-0.826031
0
LINE
8
BLACK
6
CONTINUOUS
10
8.4552
20
-0.826031
11
8.41976
21
-0.826031
0
LINE
8
BLACK
6
CONTINUOUS
10
8.41976
20
-0.826031
11
8.41784
21
-0.825842
0
LINE
8
BLACK
6
CONTINUOUS
10
8.41784
20
-0.825842
11
8.416
21
-0.825282
0
LINE
8
BLACK
6
CONTINUOUS
10
8.416
20
-0.825282
11
8.4143
21
-0.824373
0
LINE
8
BLACK
6
CONTINUOUS
10
8.4143
20
-0.824373
11
8.4128
21
-0.823149
0
LINE
8
BLACK
6
CONTINUOUS
10
8.4128
20
-0.823149
11
8.41158
21
-0.821657
0
LINE
8
BLACK
6
CONTINUOUS
10
8.41158
20
-0.821657
11
8.41067
21
-0.819956
0
LINE
8
BLACK
6
CONTINUOUS
10
8.41067
20
-0.819956
11
8.41011
21
-0.818109
0
LINE
8
BLACK
6
CONTINUOUS
10
8.41011
20
-0.818109
11
8.40992
21
-0.816189
0
LINE
8
BLACK
6
CONTINUOUS
10
8.40992
20
-0.816189
11
8.40992
21
-0.790598
0
LINE
8
BLACK
6
CONTINUOUS
10
8.40992
20
-0.790598
11
8.41011
21
-0.788678
0
LINE
8
BLACK
6
CONTINUOUS
10
8.41011
20
-0.788678
11
8.41067
21
-0.786832
0
LINE
8
BLACK
6
CONTINUOUS
10
8.41067
20
-0.786832
11
8.41158
21
-0.78513
0
LINE
8
BLACK
6
CONTINUOUS
10
8.41158
20
-0.78513
11
8.4128
21
-0.783639
0
LINE
8
BLACK
6
CONTINUOUS
10
8.4128
20
-0.783639
11
8.4143
21
-0.782415
0
LINE
8
BLACK
6
CONTINUOUS
10
8.4143
20
-0.782415
11
8.416
21
-0.781505
0
LINE
8
BLACK
6
CONTINUOUS
10
8.416
20
-0.781505
11
8.41784
21
-0.780945
0
LINE
8
BLACK
6
CONTINUOUS
10
8.41784
20
-0.780945
11
8.41976
21
-0.780756
0
LINE
8
BLACK
6
CONTINUOUS
10
8.41976
20
-0.780756
11
8.4552
21
-0.780756
0
LINE
8
BLACK
6
CONTINUOUS
10
8.4552
20
-0.780756
11
8.45712
21
-0.780945
0
LINE
8
BLACK
6
CONTINUOUS
10
8.5509
20
-0.780945
11
8.55274
21
-0.781505
0
LINE
8
BLACK
6
CONTINUOUS
10
8.55274
20
-0.781505
11
8.55444
21
-0.782415
0
LINE
8
BLACK
6
CONTINUOUS
10
8.55444
20
-0.782415
11
8.55594
21
-0.783639
0
LINE
8
BLACK
6
CONTINUOUS
10
8.55594
20
-0.783639
11
8.55716
21
-0.78513
0
LINE
8
BLACK
6
CONTINUOUS
10
8.55716
20
-0.78513
11
8.55807
21
-0.786832
0
LINE
8
BLACK
6
CONTINUOUS
10
8.55807
20
-0.786832
11
8.55863
21
-0.788678
0
LINE
8
BLACK
6
CONTINUOUS
10
8.55863
20
-0.788678
11
8.55882
21
-0.790598
0
LINE
8
BLACK
6
CONTINUOUS
10
8.55882
20
-0.790598
11
8.55882
21
-0.816189
0
LINE
8
BLACK
6
CONTINUOUS
10
8.55882
20
-0.816189
11
8.55863
21
-0.818109
0
LINE
8
BLACK
6
CONTINUOUS
10
8.55863
20
-0.818109
11
8.55807
21
-0.819956
0
LINE
8
BLACK
6
CONTINUOUS
10
8.55807
20
-0.819956
11
8.55716
21
-0.821657
0
LINE
8
BLACK
6
CONTINUOUS
10
8.55716
20
-0.821657
11
8.55594
21
-0.823149
0
LINE
8
BLACK
6
CONTINUOUS
10
8.55594
20
-0.823149
11
8.55444
21
-0.824373
0
LINE
8
BLACK
6
CONTINUOUS
10
8.55444
20
-0.824373
11
8.55274
21
-0.825282
0
LINE
8
BLACK
6
CONTINUOUS
10
8.55274
20
-0.825282
11
8.5509
21
-0.825842
0
LINE
8
BLACK
6
CONTINUOUS
10
8.5509
20
-0.825842
11
8.54898
21
-0.826031
0
LINE
8
BLACK
6
CONTINUOUS
10
8.54898
20
-0.826031
11
8.51354
21
-0.826031
0
LINE
8
BLACK
6
CONTINUOUS
10
8.51354
20
-0.826031
11
8.51162
21
-0.825842
0
LINE
8
BLACK
6
CONTINUOUS
10
8.51162
20
-0.825842
11
8.50978
21
-0.825282
0
LINE
8
BLACK
6
CONTINUOUS
10
8.50978
20
-0.825282
11
8.50808
21
-0.824373
0
LINE
8
BLACK
6
CONTINUOUS
10
8.50808
20
-0.824373
11
8.50658
21
-0.823149
0
LINE
8
BLACK
6
CONTINUOUS
10
8.50658
20
-0.823149
11
8.50536
21
-0.821657
0
LINE
8
BLACK
6
CONTINUOUS
10
8.50536
20
-0.821657
11
8.50445
21
-0.819956
0
LINE
8
BLACK
6
CONTINUOUS
10
8.50445
20
-0.819956
11
8.50389
21
-0.818109
0
LINE
8
BLACK
6
CONTINUOUS
10
8.50389
20
-0.818109
11
8.5037
21
-0.816189
0
LINE
8
BLACK
6
CONTINUOUS
10
8.5037
20
-0.816189
11
8.5037
21
-0.790598
0
LINE
8
BLACK
6
CONTINUOUS
10
8.5037
20
-0.790598
11
8.50389
21
-0.788678
0
LINE
8
BLACK
6
CONTINUOUS
10
8.50389
20
-0.788678
11
8.50445
21
-0.786832
0
LINE
8
BLACK
6
CONTINUOUS
10
8.50445
20
-0.786832
11
8.50536
21
-0.78513
0
LINE
8
BLACK
6
CONTINUOUS
10
8.50536
20
-0.78513
11
8.50658
21
-0.783639
0
LINE
8
BLACK
6
CONTINUOUS
10
8.50658
20
-0.783639
11
8.50808
21
-0.782415
0
LINE
8
BLACK
6
CONTINUOUS
10
8.50808
20
-0.782415
11
8.50978
21
-0.781505
0
LINE
8
BLACK
6
CONTINUOUS
10
8.50978
20
-0.781505
11
8.51162
21
-0.780945
0
LINE
8
BLACK
6
CONTINUOUS
10
8.51162
20
-0.780945
11
8.51354
21
-0.780756
0
LINE
8
BLACK
6
CONTINUOUS
10
8.51354
20
-0.780756
11
8.54898
21
-0.780756
0
LINE
8
BLACK
6
CONTINUOUS
10
8.54898
20
-0.780756
11
8.5509
21
-0.780945
0
LINE
8
BLACK
6
CONTINUOUS
10
8.28075
20
-0.721213
11
8.26894
21
-0.721213
0
LINE
8
BLACK
6
CONTINUOUS
10
8.26894
20
-0.721213
11
8.26894
21
-0.675937
0
LINE
8
BLACK
6
CONTINUOUS
10
8.26894
20
-0.675937
11
8.28075
21
-0.675937
0
LINE
8
BLACK
6
CONTINUOUS
10
8.28075
20
-0.675937
11
8.28075
21
-0.721213
0
LINE
8
BLACK
6
CONTINUOUS
10
8.41854
20
-0.721213
11
8.40673
21
-0.721213
0
LINE
8
BLACK
6
CONTINUOUS
10
8.40673
20
-0.721213
11
8.40673
21
-0.675937
0
LINE
8
BLACK
6
CONTINUOUS
10
8.40673
20
-0.675937
11
8.41854
21
-0.675937
0
LINE
8
BLACK
6
CONTINUOUS
10
8.41854
20
-0.675937
11
8.41854
21
-0.721213
0
LINE
8
BLACK
6
CONTINUOUS
10
8.22957
20
-0.721213
11
8.20594
21
-0.721213
0
LINE
8
BLACK
6
CONTINUOUS
10
8.20594
20
-0.721213
11
8.20594
21
-0.675937
0
LINE
8
BLACK
6
CONTINUOUS
10
8.20594
20
-0.675937
11
8.22957
21
-0.675937
0
LINE
8
BLACK
6
CONTINUOUS
10
8.22957
20
-0.675937
11
8.22957
21
-0.721213
0
LINE
8
BLACK
6
CONTINUOUS
10
8.26106
20
-0.721213
11
8.23744
21
-0.721213
0
LINE
8
BLACK
6
CONTINUOUS
10
8.23744
20
-0.721213
11
8.23744
21
-0.675937
0
LINE
8
BLACK
6
CONTINUOUS
10
8.23744
20
-0.675937
11
8.26106
21
-0.675937
0
LINE
8
BLACK
6
CONTINUOUS
10
8.26106
20
-0.675937
11
8.26106
21
-0.721213
0
LINE
8
BLACK
6
CONTINUOUS
10
8.45004
20
-0.721213
11
8.42642
21
-0.721213
0
LINE
8
BLACK
6
CONTINUOUS
10
8.42642
20
-0.721213
11
8.42642
21
-0.675937
0
LINE
8
BLACK
6
CONTINUOUS
10
8.42642
20
-0.675937
11
8.45004
21
-0.675937
0
LINE
8
BLACK
6
CONTINUOUS
10
8.45004
20
-0.675937
11
8.45004
21
-0.721213
0
LINE
8
BLACK
6
CONTINUOUS
10
8.48154
20
-0.721213
11
8.45791
21
-0.721213
0
LINE
8
BLACK
6
CONTINUOUS
10
8.45791
20
-0.721213
11
8.45791
21
-0.675937
0
LINE
8
BLACK
6
CONTINUOUS
10
8.45791
20
-0.675937
11
8.48154
21
-0.675937
0
LINE
8
BLACK
6
CONTINUOUS
10
8.48154
20
-0.675937
11
8.48154
21
-0.721213
0
LINE
8
BLACK
6
CONTINUOUS
10
8.39886
20
-0.721213
11
8.38705
21
-0.721213
0
LINE
8
BLACK
6
CONTINUOUS
10
8.38705
20
-0.721213
11
8.38705
21
-0.675937
0
LINE
8
BLACK
6
CONTINUOUS
10
8.38705
20
-0.675937
11
8.39886
21
-0.675937
0
LINE
8
BLACK
6
CONTINUOUS
10
8.39886
20
-0.675937
11
8.39886
21
-0.721213
0
LINE
8
BLACK
6
CONTINUOUS
10
8.30043
20
-0.721213
11
8.28862
21
-0.721213
0
LINE
8
BLACK
6
CONTINUOUS
10
8.28862
20
-0.721213
11
8.28862
21
-0.675937
0
LINE
8
BLACK
6
CONTINUOUS
10
8.28862
20
-0.675937
11
8.30043
21
-0.675937
0
LINE
8
BLACK
6
CONTINUOUS
10
8.30043
20
-0.675937
11
8.30043
21
-0.721213
0
LINE
8
BLACK
6
CONTINUOUS
10
8.37917
20
-0.721213
11
8.36736
21
-0.721213
0
LINE
8
BLACK
6
CONTINUOUS
10
8.36736
20
-0.721213
11
8.36736
21
-0.675937
0
LINE
8
BLACK
6
CONTINUOUS
10
8.36736
20
-0.675937
11
8.37917
21
-0.675937
0
LINE
8
BLACK
6
CONTINUOUS
10
8.37917
20
-0.675937
11
8.37917
21
-0.721213
0
LINE
8
BLACK
6
CONTINUOUS
10
8.32012
20
-0.721213
11
8.30831
21
-0.721213
0
LINE
8
BLACK
6
CONTINUOUS
10
8.30831
20
-0.721213
11
8.30831
21
-0.675937
0
LINE
8
BLACK
6
CONTINUOUS
10
8.30831
20
-0.675937
11
8.32012
21
-0.675937
0
LINE
8
BLACK
6
CONTINUOUS
10
8.32012
20
-0.675937
11
8.32012
21
-0.721213
0
LINE
8
BLACK
6
CONTINUOUS
10
8.35949
20
-0.721213
11
8.34768
21
-0.721213
0
LINE
8
BLACK
6
CONTINUOUS
10
8.34768
20
-0.721213
11
8.34768
21
-0.675937
0
LINE
8
BLACK
6
CONTINUOUS
10
8.34768
20
-0.675937
11
8.35949
21
-0.675937
0
LINE
8
BLACK
6
CONTINUOUS
10
8.35949
20
-0.675937
11
8.35949
21
-0.721213
0
LINE
8
BLACK
6
CONTINUOUS
10
8.3398
20
-0.721213
11
8.32799
21
-0.721213
0
LINE
8
BLACK
6
CONTINUOUS
10
8.32799
20
-0.721213
11
8.32799
21
-0.675937
0
LINE
8
BLACK
6
CONTINUOUS
10
8.32799
20
-0.675937
11
8.3398
21
-0.675937
0
LINE
8
BLACK
6
CONTINUOUS
10
8.3398
20
-0.675937
11
8.3398
21
-0.721213
0
LINE
8
BLACK
6
CONTINUOUS
10
8.58783
20
-0.715307
11
8.50201
21
-0.715307
0
LINE
8
BLACK
6
CONTINUOUS
10
8.50201
20
-0.715307
11
8.50201
21
-0.636567
0
LINE
8
BLACK
6
CONTINUOUS
10
8.50201
20
-0.636567
11
8.58783
21
-0.636567
0
LINE
8
BLACK
6
CONTINUOUS
10
8.58783
20
-0.636567
11
8.58783
21
-0.715307
0
LINE
8
BLACK
6
CONTINUOUS
10
8.18547
20
-0.715307
11
8.09965
21
-0.715307
0
LINE
8
BLACK
6
CONTINUOUS
10
8.09965
20
-0.715307
11
8.09965
21
-0.636567
0
LINE
8
BLACK
6
CONTINUOUS
10
8.09965
20
-0.636567
11
8.18547
21
-0.636567
0
LINE
8
BLACK
6
CONTINUOUS
10
8.18547
20
-0.636567
11
8.18547
21
-0.715307
0
LINE
8
BLACK
6
CONTINUOUS
10
8.58783
20
-0.560583
11
8.50201
21
-0.560583
0
LINE
8
BLACK
6
CONTINUOUS
10
8.50201
20
-0.560583
11
8.50201
21
-0.481843
0
LINE
8
BLACK
6
CONTINUOUS
10
8.50201
20
-0.481843
11
8.58783
21
-0.481843
0
LINE
8
BLACK
6
CONTINUOUS
10
8.58783
20
-0.481843
11
8.58783
21
-0.560583
0
LINE
8
BLACK
6
CONTINUOUS
10
8.18547
20
-0.560583
11
8.09965
21
-0.560583
0
LINE
8
BLACK
6
CONTINUOUS
10
8.09965
20
-0.560583
11
8.09965
21
-0.481843
0
LINE
8
BLACK
6
CONTINUOUS
10
8.09965
20
-0.481843
11
8.18547
21
-0.481843
0
LINE
8
BLACK
6
CONTINUOUS
10
8.18547
20
-0.481843
11
8.18547
21
-0.560583
  0
ENDSEC
  0
EOF
