M48
; DRILL file {KiCad (5.1.6)-1} date 07/25/20 19:20:48
; FORMAT={-:-/ absolute / inch / decimal}
; #@! TF.CreationDate,2020-07-25T19:20:48-04:00
; #@! TF.GenerationSoftware,Kicad,Pcbnew,(5.1.6)-1
; #@! TF.FileFunction,NonPlated,1,2,NPTH
FMAT,2
INCH
T1C0.0256
T2C0.0669
T3C0.0689
T4C0.1200
T5C0.1201
T6C0.1570
T7C0.1575
%
G90
G05
T1
X8.23Y-0.9375
X8.4575Y-0.9375
T2
X8.1437Y-3.9375
X8.5437Y-3.9375
X2.05Y-4.6875
X2.45Y-4.6875
X13.7687Y-5.4375
X14.1687Y-5.4375
X8.5187Y-4.6875
X8.9187Y-4.6875
X3.8313Y-1.5
X4.2313Y-1.5
X13.0187Y-1.5
X13.4187Y-1.5
X2.7063Y-5.4375
X3.1063Y-5.4375
X13.7687Y-1.5
X14.1687Y-1.5
X8.3313Y-2.4375
X8.7313Y-2.4375
X4.9563Y-3.1875
X5.3563Y-3.1875
X9.4563Y-3.1875
X9.8563Y-3.1875
X12.0813Y-1.5
X12.4813Y-1.5
X6.6437Y-3.9375
X7.0437Y-3.9375
X5.5187Y-4.6875
X5.9187Y-4.6875
X10.3937Y-3.9375
X10.7937Y-3.9375
X11.425Y-4.6875
X11.825Y-4.6875
X4.5813Y-1.5
X4.9813Y-1.5
X3.6437Y-5.4375
X4.0437Y-5.4375
X14.5187Y-1.5
X14.9187Y-1.5
X1.5813Y-2.4375
X1.9813Y-2.4375
X9.0813Y-2.4375
X9.4813Y-2.4375
X5.7063Y-3.1875
X6.1063Y-3.1875
X10.9563Y-3.1875
X11.3563Y-3.1875
X3.4563Y-3.1875
X3.8563Y-3.1875
X5.8937Y-3.9375
X6.2937Y-3.9375
X7.0187Y-4.6875
X7.4187Y-4.6875
X11.6125Y-3.9375
X12.0125Y-3.9375
X13.7687Y-4.6875
X14.1687Y-4.6875
X7.2063Y-1.5
X7.6063Y-1.5
X10.0187Y-5.4375
X10.4187Y-5.4375
X11.7063Y-2.4375
X12.1063Y-2.4375
X2.3313Y-2.4375
X2.7313Y-2.4375
X13.7687Y-2.4375
X14.1687Y-2.4375
X7.2063Y-3.1875
X7.6063Y-3.1875
X6.4563Y-1.5
X6.8563Y-1.5
X9.8313Y-2.4375
X10.2313Y-2.4375
X2.8937Y-3.9375
X3.2937Y-3.9375
X4.3937Y-3.9375
X4.7937Y-3.9375
X5.3313Y-1.5
X5.7313Y-1.5
X9.6437Y-3.9375
X10.0437Y-3.9375
X3.0813Y-1.5
X3.4813Y-1.5
X3.2687Y-4.6875
X3.6687Y-4.6875
X11.8937Y-5.4375
X12.2937Y-5.4375
X7.9563Y-1.5
X8.3563Y-1.5
X14.5187Y-5.4375
X14.9187Y-5.4375
X11.8937Y-3.1875
X12.2937Y-3.1875
X3.8313Y-2.4375
X4.2313Y-2.4375
X2.7063Y-3.1875
X3.1063Y-3.1875
X7.9563Y-3.1875
X8.3563Y-3.1875
X3.0813Y-2.4375
X3.4813Y-2.4375
X14.5187Y-2.4375
X14.9187Y-2.4375
X7.3937Y-3.9375
X7.7937Y-3.9375
X1.8625Y-3.9375
X2.2625Y-3.9375
X13.0187Y-5.4375
X13.4187Y-5.4375
X4.7687Y-4.6875
X5.1687Y-4.6875
X1.7687Y-5.4375
X2.1687Y-5.4375
X8.7063Y-1.5
X9.1063Y-1.5
X13.7687Y-3.1875
X14.1687Y-3.1875
X5.3313Y-2.4375
X5.7313Y-2.4375
X9.2687Y-4.6875
X9.6687Y-4.6875
X13.0187Y-3.1875
X13.4187Y-3.1875
X1.7687Y-3.1875
X2.1687Y-3.1875
X8.7063Y-3.1875
X9.1063Y-3.1875
X3.6437Y-3.9375
X4.0437Y-3.9375
X8.8937Y-3.9375
X9.2937Y-3.9375
X10.0187Y-4.6875
X10.4187Y-4.6875
X6.2687Y-4.6875
X6.6687Y-4.6875
X10.5813Y-1.5
X10.9813Y-1.5
X13.0187Y-2.4375
X13.4187Y-2.4375
X6.0813Y-2.4375
X6.4813Y-2.4375
X6.4563Y-3.1875
X6.8563Y-3.1875
X4.5813Y-2.4375
X4.9813Y-2.4375
X9.8313Y-1.5
X10.2313Y-1.5
X14.5187Y-3.1875
X14.9187Y-3.1875
X5.1437Y-3.9375
X5.5437Y-3.9375
X4.0187Y-4.6875
X4.4187Y-4.6875
X7.7687Y-4.6875
X8.1687Y-4.6875
X1.5813Y-1.5
X1.9813Y-1.5
X10.9563Y-5.4375
X11.3563Y-5.4375
X11.3313Y-1.5
X11.7313Y-1.5
X10.5813Y-2.4375
X10.9813Y-2.4375
X6.8313Y-2.4375
X7.2313Y-2.4375
X4.2063Y-3.1875
X4.6063Y-3.1875
X10.2063Y-3.1875
X10.6063Y-3.1875
X7.5813Y-2.4375
X7.9813Y-2.4375
T3
X6.8313Y-5.4375
X7.2313Y-5.4375
T4
X4.7813Y-5.7125
X9.2813Y-5.7125
T5
X1.7815Y-4.4119
X2.7185Y-4.4119
X11.1565Y-4.4119
X12.0935Y-4.4119
X11.344Y-3.6619
X12.281Y-3.6619
X11.4378Y-2.1619
X12.3748Y-2.1619
T6
X4.7813Y-5.1125
X7.0313Y-5.4375
X9.2813Y-5.1125
T7
X14.7187Y-3.1875
X5.3437Y-3.9375
X4.2187Y-4.6875
X7.9687Y-4.6875
X1.7813Y-1.5
X11.1563Y-5.4375
X11.5313Y-1.5
X10.7813Y-2.4375
X7.0313Y-2.4375
X4.4063Y-3.1875
X10.4063Y-3.1875
X7.7813Y-2.4375
X8.3437Y-3.9375
X1.7815Y-5.0119
X2.25Y-4.6875
X2.7185Y-5.0119
X13.9687Y-5.4375
X8.7187Y-4.6875
X4.0313Y-1.5
X13.2187Y-1.5
X2.9063Y-5.4375
X13.9687Y-1.5
X8.5313Y-2.4375
X5.1563Y-3.1875
X9.6563Y-3.1875
X12.2813Y-1.5
X6.8437Y-3.9375
X5.7187Y-4.6875
X10.5937Y-3.9375
X11.1565Y-5.0119
X11.625Y-4.6875
X12.0935Y-5.0119
X4.7813Y-1.5
X3.8437Y-5.4375
X14.7187Y-1.5
X1.7813Y-2.4375
X9.2813Y-2.4375
X5.9063Y-3.1875
X11.1563Y-3.1875
X3.6563Y-3.1875
X6.0937Y-3.9375
X7.2187Y-4.6875
X11.344Y-4.2619
X11.8125Y-3.9375
X12.281Y-4.2619
X13.9687Y-4.6875
X7.4063Y-1.5
X10.2187Y-5.4375
X11.4378Y-2.7619
X11.9063Y-2.4375
X12.3748Y-2.7619
X2.5313Y-2.4375
X13.9687Y-2.4375
X7.4063Y-3.1875
X6.6563Y-1.5
X10.0313Y-2.4375
X3.0937Y-3.9375
X4.5937Y-3.9375
X5.5313Y-1.5
X9.8437Y-3.9375
X3.2813Y-1.5
X3.4687Y-4.6875
X12.0937Y-5.4375
X8.1563Y-1.5
X14.7187Y-5.4375
X12.0937Y-3.1875
X4.0313Y-2.4375
X2.9063Y-3.1875
X8.1563Y-3.1875
X3.2813Y-2.4375
X14.7187Y-2.4375
X7.5937Y-3.9375
X2.0625Y-3.9375
X13.2187Y-5.4375
X4.9687Y-4.6875
X1.9687Y-5.4375
X8.9063Y-1.5
X13.9687Y-3.1875
X5.5313Y-2.4375
X9.4687Y-4.6875
X13.2187Y-3.1875
X1.9687Y-3.1875
X8.9063Y-3.1875
X3.8437Y-3.9375
X9.0937Y-3.9375
X10.2187Y-4.6875
X6.4687Y-4.6875
X10.7813Y-1.5
X13.2187Y-2.4375
X6.2813Y-2.4375
X6.6563Y-3.1875
X4.7813Y-2.4375
X10.0313Y-1.5
T0
M30
